<svg xmlns="http://www.w3.org/2000/svg" viewBox="0 0 48 48">
  <ellipse class="st5" cx="11.4" cy="45.2" rx="9" ry="1.5" fill="#45413C" opacity=".15"/>
  <ellipse class="st5" cx="36.1" cy="45.2" rx="9" ry="1.5" fill="#45413C" opacity=".15"/>
  <path class="st61" d="M10.7 29.6c0 4.1-1.9 10.6-1.9 10.6-.1.3-.4.6-.8.5-2.7-.5-5-.4-5.6.3-.1.1-.1.3 0 .5.6.5 2.4 1.8 6.4 2.8 3.9 1 6.2.6 6.9.5.2 0 .3-.2.3-.4-.2-.9-2.1-2-4.8-2.9-.3-.1-.5-.5-.4-.8 0 0 1.3-6.6 3.2-10.3l-3.3-.8z" fill="#00B8F0" stroke="#45413C" stroke-linecap="round" stroke-linejoin="round" stroke-miterlimit="10"/>
  <path class="st35" d="M12.1 4.4c.9-.8 3.1-.6 6.5.2s5.4 1.7 5.9 2.8c1 2-.1 14.4-.7 16.7-1.3 5.2-6.6 8.4-11.8 7.1-5.2-1.2-8.4-6.5-7.1-11.7.6-2.3 5.4-13.8 7.2-15.1z" fill="#00B8F0"/>
  <path class="st36" d="M6.1 26.9c9.8-1.9 15.7-9.5 18.8-15.1 0-2.1-.1-3.8-.4-4.4-.4-1.1-2.4-2-5.9-2.8s-5.6-1-6.5-.2c-1.8 1.3-6.6 12.7-7.2 15.1-.6 2.6-.2 5.3 1.2 7.4z" fill="#4ACFFF"/>
  <path class="st35" d="M18 7.2c3.4.8 6.3.9 6.5.2-.4-1.1-2.4-2-5.9-2.8s-5.6-1-6.5-.2c-.2.7 2.4 2 5.9 2.8z" fill="#00B8F0"/>
  <path class="st10" d="M12.1 4.4c.9-.8 3.1-.6 6.5.2s5.4 1.7 5.9 2.8c1 2-.1 14.4-.7 16.7-1.3 5.2-6.6 8.4-11.8 7.1-5.2-1.2-8.4-6.5-7.1-11.7.6-2.3 5.4-13.8 7.2-15.1z" fill="none" stroke="#45413C" stroke-linecap="round" stroke-linejoin="round" stroke-miterlimit="10"/>
  <path class="st10" d="M24.5 7.5c-.2.7-3.1.6-6.5-.2s-6-2.1-5.9-2.8" fill="none" stroke="#45413C" stroke-linecap="round" stroke-linejoin="round" stroke-miterlimit="10"/>
  <path class="st58" d="M7.2 21.5s1.3-2.4 4.9-1.6c3.6.9 3.9 3.7 3.9 3.7l-8.8-2.1z" fill="#E04122"/>
  <path class="st58" d="M22.1 23.8c-1.1 4.3-5.4 6.9-9.7 5.9S5.5 24.3 6.5 20c0 0 2.3 1.9 4.2 2.4 2 .5 5.2-1.5 7.1-1 2.1.4 4.3 2.4 4.3 2.4z" fill="#E04122"/>
  <path class="st57" d="M7.8 26.5c3.8-1 7-3 9.6-5.2-2-.1-4.8 1.5-6.6 1.1-2-.5-4.2-2.4-4.2-2.4-.7 2.3-.1 4.7 1.2 6.5z" fill="#FF6242"/>
  <circle transform="rotate(-76.085 13.176 9.83)" class="st16" cx="13.2" cy="9.8" fill="#E5F8FF" r="1.3"/>
  <circle transform="rotate(-76.085 10.742 11.299)" class="st16" cx="10.7" cy="11.3" fill="#E5F8FF" r=".7"/>
  <path class="st61" d="M33.3 27.7c2.2 3.5 3.9 10.1 3.9 10.1.1.3-.1.7-.4.8-2.6 1-4.4 2.3-4.6 3.2 0 .2.1.3.3.4.7.1 3 .3 6.8-.9 3.9-1.2 5.6-2.7 6.1-3.2.1-.1.1-.3 0-.5-.7-.6-2.9-.6-5.6.1-.3.1-.7-.1-.8-.4 0 0-2.4-6.3-2.7-10.5l-3 .9z" fill="#00B8F0" stroke="#45413C" stroke-linecap="round" stroke-linejoin="round" stroke-miterlimit="10"/>
  <path class="st35" d="M21.3 5.6c.3-1.2 2.3-2.1 5.7-3.2s5.5-1.4 6.5-.7C35.4 2.9 41 14 41.7 16.3c1.6 5.1-1.2 10.6-6.3 12.2-5.1 1.6-10.6-1.2-12.2-6.3-.8-2.3-2.8-14.5-1.9-16.6z" fill="#00B8F0"/>
  <path class="st36" d="M28 27.9c7.3-6.7 8.4-16.3 8.1-22.7-1.1-1.8-2-3.1-2.7-3.5-.9-.8-3.1-.4-6.5.7s-5.3 2.1-5.7 3.2c-.9 2.1 1.1 14.3 1.8 16.6 1 2.6 2.8 4.6 5 5.7z" fill="#4ACFFF"/>
  <path class="st35" d="M27.8 4.9c3.3-1.1 5.9-2.5 5.7-3.2-.9-.8-3.1-.4-6.5.7s-5.3 2.1-5.7 3.2c.2.7 3.1.4 6.5-.7z" fill="#00B8F0"/>
  <path class="st10" d="M21.3 5.6c.3-1.2 2.3-2.1 5.7-3.2s5.5-1.4 6.5-.7C35.4 2.9 41 14 41.7 16.3c1.6 5.1-1.2 10.6-6.3 12.2-5.1 1.6-10.6-1.2-12.2-6.3-.8-2.3-2.8-14.5-1.9-16.6z" fill="none" stroke="#45413C" stroke-linecap="round" stroke-linejoin="round" stroke-miterlimit="10"/>
  <path class="st10" d="M33.4 1.7c.2.7-2.3 2.1-5.7 3.2s-6.2 1.4-6.5.7" fill="none" stroke="#45413C" stroke-linecap="round" stroke-linejoin="round" stroke-miterlimit="10"/>
  <path class="st58" d="M26.1 22.7s-.2-2.8 3.3-3.9 5.3 1.1 5.3 1.1l-8.6 2.8z" fill="#E04122"/>
  <path class="st58" d="M40 16.8c1.4 4.2-1 8.8-5.2 10.1-4.2 1.4-8.8-1-10.1-5.2 0 0 3 .5 4.9-.2 1.9-.6 3.6-4 5.6-4.6 1.9-.6 4.8-.1 4.8-.1z" fill="#E04122"/>
  <path class="st57" d="M29.3 26.7c2.7-2.9 4.4-6.2 5.4-9.5-1.7 1-3.3 3.8-5.1 4.4-1.9.6-4.9.2-4.9.2.8 2.2 2.5 4 4.6 4.9z" fill="#FF6242"/>
  <circle transform="rotate(-17.794 25.062 9.628)" class="st16" cx="25.1" cy="9.6" fill="#E5F8FF" r="1.3"/>
  <circle transform="rotate(-17.794 23.763 12.157)" class="st16" cx="23.8" cy="12.2" fill="#E5F8FF" r=".7"/>
</svg>
