<svg viewBox="0 0 24 24" xmlns="http://www.w3.org/2000/svg" focusable="false">
  <path d="M7.916 2C4.378 2 2 4.276 2 7.665v8.669C2 19.723 4.378 22 7.916 22h8.168C19.622 22 22 19.723 22 16.334V7.665C22 4.276 19.622 2 16.084 2H7.916zm0 1.5h8.168c2.683 0 4.416 1.635 4.416 4.165v8.669c0 2.53-1.733 4.166-4.416 4.166H7.916c-2.683 0-4.416-1.636-4.416-4.166V7.665C3.5 5.135 5.233 3.5 7.916 3.5zm3.233 4.221L7.39 11.462a.755.755 0 00-.077.088l.07-.081a.736.736 0 00-.22.531l.003.039.004.063a.745.745 0 00.213.428v.001l3.765 3.748a.747.747 0 001.06-.002.75.75 0 00-.002-1.06L9.73 12.75h6.356a.75.75 0 000-1.5H9.73l2.477-2.467a.75.75 0 00-1.058-1.062z" fill-rule="evenodd"/>
</svg>
