<svg xmlns="http://www.w3.org/2000/svg" viewBox="0 0 15 15.002" style="width:15px;height:15px">
  <path d="M13.843 9.413a.375.375 0 00-.374.376v3.335a1.125 1.125 0 01-1.121 1.127H1.868a1.125 1.125 0 01-1.121-1.127v-9.79a1.125 1.125 0 011.121-1.127h3.316a.376.376 0 000-.751H1.868A1.875 1.875 0 000 3.334v9.79a1.875 1.875 0 001.868 1.878h10.481a1.875 1.875 0 001.868-1.878v-3.34a.375.375 0 00-.374-.371zm0 0"/>
  <path d="M14.069.493a1.684 1.684 0 00-2.381 0L5.013 7.168a.374.374 0 00-.1.165l-.878 3.169a.374.374 0 00.46.461l3.169-.878a.374.374 0 00.165-.1l6.675-6.676a1.686 1.686 0 000-2.381zM5.828 7.412l5.463-5.464 1.762 1.762L7.59 9.174zm-.352.706l1.408 1.408-1.947.539zm8.5-5.334l-.4.4-1.756-1.765.4-.4a.935.935 0 011.323 0l.439.439a.937.937 0 01-.003 1.326zm0 0"/>
</svg>
