<svg viewBox="0 0 24 24" xmlns="http://www.w3.org/2000/svg" focusable="false">
  <path d="M11.985 2c3.068 0 5.538 2.415 5.538 5.396v1.533c1.722.538 2.977 2.097 2.977 3.96v4.936c0 2.306-1.911 4.175-4.268 4.175H7.77c-2.36 0-4.27-1.87-4.27-4.175v-4.937c0-1.862 1.256-3.421 2.977-3.959V7.396C6.487 4.415 8.957 2 11.985 2zm.01 11.384a.875.875 0 00-.884.865v2.206c0 .487.396.874.884.874a.88.88 0 00.894-.874v-2.206a.877.877 0 00-.894-.865zm.01-9.645c-2.063 0-3.74 1.63-3.75 3.637v1.338h7.49V7.396c0-2.017-1.677-3.657-3.74-3.657z"/>
</svg>
