<svg xmlns="http://www.w3.org/2000/svg" viewBox="0 0 24 24" focusable="false">
  <g fill="none" stroke-linecap="round" stroke-miterlimit="10" stroke-width="1.5">
    <path d="M4.84 13.63v2.073a2.632 2.632 0 001.725 2.47l4.527 1.665a2.632 2.632 0 001.816 0l4.527-1.664a2.632 2.632 0 001.724-2.47v-2.075" stroke="#ffb531"/>
    <path d="M11.996 13a3.322 3.322 0 01-1.093-.185L3.16 10.13a1.726 1.726 0 010-3.26l7.75-2.686a3.332 3.332 0 012.183 0L20.84 6.87a1.726 1.726 0 010 3.261l-7.753 2.686a3.335 3.335 0 01-1.091.183z" stroke="#030835"/>
  </g>
</svg>
