<svg xmlns="http://www.w3.org/2000/svg" viewBox="0 0 32 33" fill="currentColor" focusable="false">
  <path d="M13.344 1.2c-1.332 1.116-1.547 1.16-3.477.773-2.531-.516-3.133-.13-3.816 2.441-.43 1.715-.602 1.887-2.489 2.484L1.5 7.5v2.656c0 1.93-.21 2.914-.727 3.559-1.03 1.156-1.03 4.414-.043 5.57.555.645.77 1.63.77 3.516v2.656l2.016.645c1.89.554 2.101.77 2.703 2.656.773 2.36 1.59 2.785 3.906 2.144 1.371-.386 1.715-.3 3.258.856 2.23 1.586 3.004 1.543 5.02-.086 1.585-1.242 1.757-1.285 3.433-.813 2.574.684 3.344.297 4.031-2.058.559-1.887.73-2.059 2.703-2.7 2.36-.73 2.746-1.628 1.973-4.37-.344-1.286-.258-1.672.602-2.7 1.203-1.504 1.37-4.074.3-5.316-.558-.64-.773-1.63-.773-3.555V7.5l-2.102-.684c-1.972-.601-2.144-.773-2.703-2.66-.64-2.27-1.629-2.785-4.074-2.097-1.29.343-1.629.257-2.961-.817C16.945-.344 15.23-.344 13.344 1.2zm7.46 3.773l2.231-.258.387 1.8c.344 1.673.515 1.84 2.36 2.356l1.976.559-.43 2.011c-.473 1.973-.473 1.973 1.2 3.43l1.675 1.457-1.633 1.328c-1.457 1.203-1.629 1.5-1.414 2.871.13.86.344 1.844.473 2.23.215.513-.172.813-1.715 1.286-1.848.555-2.102.77-2.531 2.312-.516 1.801-.688 1.844-3.133 1.329-1.203-.297-1.543-.13-2.79 1.117l-1.37 1.414-1.418-1.457c-1.027-1.031-1.629-1.371-2.36-1.203-.515.129-1.414.386-2.015.515-.985.258-1.156.086-1.629-1.672-.473-1.843-.645-1.972-2.445-2.441-1.328-.344-1.887-.687-1.758-1.074.129-.297.34-1.242.515-2.098.254-1.37.13-1.672-1.332-3.043l-1.628-1.5 1.585-1.328c1.461-1.203 1.59-1.457 1.333-2.785-.13-.816-.387-1.758-.516-2.059-.129-.43.387-.773 1.758-1.113 1.843-.473 2.015-.602 2.445-2.36l.473-1.886 2.273.258c2.188.258 2.274.258 3.477-1.242l1.199-1.543 1.289 1.543c1.242 1.457 1.328 1.5 3.473 1.242zm-10.167 4.5c-2.016.77-2.485 3.726-.856 5.613.903 1.07 3.688 1.027 4.805-.086 1.117-1.113 1.156-3.855.129-4.844-1.027-.898-2.703-1.199-4.074-.683zm4.336 5.914c-5.664 5.656-6.438 6.941-4.332 7.242 1.37.215 11.796-10.203 11.582-11.574-.301-2.098-1.586-1.328-7.25 4.328zm3.386 1.8c-.726.297-1.328.942-1.629 1.84-.816 2.532.516 4.543 3.09 4.543 2.188 0 3.344-1.156 3.344-3.343 0-2.57-2.23-3.985-4.805-3.043zm0 0"/>
</svg>
