<svg xmlns="http://www.w3.org/2000/svg" viewBox="0 0 48 48">
  <style>
    .st1{fill:#ffc258}.st2{fill:#4f4b45}.st3{fill:#fabfa5}.st10{fill:none;stroke:#45413c;stroke-linecap:round;stroke-linejoin:round;stroke-miterlimit:10}.st17{fill:#fff}.st18{fill:#e8f4fa}.st44{fill:#c0dceb}.st115{fill:#4acfff;stroke:#45413c;stroke-linecap:round;stroke-linejoin:round;stroke-miterlimit:10}
  </style>
  <symbol id="New_Symbol_14" viewBox="-6.5 -6.5 13 13">
    <path d="M0-6c2.2 0 4.1 1.5 4.7 3.5C6.3-2.5 6.4 0 5 0v1c0 2.8-2.2 5-5 5s-5-2.2-5-5V0c-1.4 0-1.3-2.5.2-2.5C-4.1-4.5-2.2-6 0-6z" fill="#ffd4c3" stroke="#504b46" stroke-linecap="round" stroke-linejoin="round" stroke-miterlimit="10"/>
    <circle class="st1" cx="-1.6" cy="-.1" r=".1" fill="#FFC258"/>
    <path class="st2" d="M-1.6.5c-.3 0-.6-.3-.6-.6s.2-.7.6-.7c.3 0 .6.3.6.7s-.3.6-.6.6z" fill="#4F4B45"/>
    <circle class="st1" cx="1.6" cy="-.1" r=".1" fill="#FFC258"/>
    <path class="st2" d="M1.6.5C1.3.5 1 .2 1-.1s.3-.6.6-.6.6.3.6.6-.2.6-.6.6z" fill="#4F4B45"/>
    <circle class="st3" cx="-3" cy="-1.5" r=".5" fill="#FABFA5"/>
    <circle class="st3" cx="3" cy="-1.5" r=".5" fill="#FABFA5"/>
    <path d="M-1.2-3c.8-.5 1.7-.5 2.5 0" fill="none" stroke="#504b46" stroke-linecap="round" stroke-linejoin="round" stroke-miterlimit="10"/>
  </symbol>
  <g id="Icons">
    <g id="XMLID_1884_">
      <ellipse id="XMLID_1264_" cx="33.7" cy="44.9" rx="11.5" ry="1.5" fill="#45413c" opacity=".15"/>
      <path id="XMLID_2848_" class="st115" d="M17.2 23l-3.6 1.6c-.5.2-.9.7-.9 1.3 0 .8.6 1.5 1.4 1.5.6 0 1.1-.3 1.4-.8l1.8-3.5c.1 0 0-.1-.1-.1z" fill="#4ACFFF" stroke="#45413C" stroke-linecap="round" stroke-linejoin="round" stroke-miterlimit="10"/>
      <path id="XMLID_2847_" class="st115" d="M9.7 30.3l-3.2 2.2c-.5.3-.7.9-.6 1.5.1.8.9 1.4 1.7 1.2.6-.1 1-.5 1.2-1l1.1-3.7c-.1-.2-.2-.3-.2-.2z" fill="#4ACFFF" stroke="#45413C" stroke-linecap="round" stroke-linejoin="round" stroke-miterlimit="10"/>
      <path id="XMLID_2846_" class="st115" d="M14.3 18l-3.8.8c-.6.1-1 .5-1.1 1.1-.2.8.3 1.6 1.1 1.8.6.1 1.1-.1 1.5-.5l2.5-3c-.1-.1-.1-.2-.2-.2z" fill="#4ACFFF" stroke="#45413C" stroke-linecap="round" stroke-linejoin="round" stroke-miterlimit="10"/>
      <path id="XMLID_2845_" class="st115" d="M5.7 23.7l-3.6 1.5c-.5.2-.9.7-.9 1.3 0 .8.6 1.5 1.4 1.6.6 0 1.1-.3 1.4-.8l1.8-3.4c0-.1 0-.2-.1-.2z" fill="#4ACFFF" stroke="#45413C" stroke-linecap="round" stroke-linejoin="round" stroke-miterlimit="10"/>
      <path id="XMLID_2844_" class="st115" d="M21.8 27.1l-3.3 2.1c-.5.3-.7.9-.7 1.4.1.8.8 1.4 1.7 1.3.6-.1 1-.5 1.2-1l1.2-3.7c0-.1 0-.2-.1-.1z" fill="#4ACFFF" stroke="#45413C" stroke-linecap="round" stroke-linejoin="round" stroke-miterlimit="10"/>
      <path id="XMLID_2843_" class="st115" d="M15.9 35.9l-2.8 2.7c-.4.4-.6 1-.4 1.5.3.8 1.1 1.2 1.9.9.5-.2.9-.7 1-1.2l.4-3.9c.1 0 0-.1-.1 0z" fill="#4ACFFF" stroke="#45413C" stroke-linecap="round" stroke-linejoin="round" stroke-miterlimit="10"/>
      <path id="XMLID_2842_" class="st115" d="M27.1 29.3L24.3 32c-.4.4-.6 1-.4 1.5.3.8 1.1 1.2 1.9.9.5-.2.9-.7 1-1.2l.5-3.9c-.1 0-.2-.1-.2 0z" fill="#4ACFFF" stroke="#45413C" stroke-linecap="round" stroke-linejoin="round" stroke-miterlimit="10"/>
      <path id="XMLID_2841_" class="st115" d="M23.1 39.4l-2.4 3.1c-.4.5-.4 1.1-.1 1.6.4.7 1.3 1 2 .6.5-.3.8-.8.8-1.4l-.1-3.9s-.1-.1-.2 0z" fill="#4ACFFF" stroke="#45413C" stroke-linecap="round" stroke-linejoin="round" stroke-miterlimit="10"/>
      <g id="XMLID_2828_">
        <path id="XMLID_2840_" class="st44" d="M37 10.7c.3-.3.3-.7 0-1l-2.8-2.8c-.3-.3-.7-.3-1 0-.8.8-1.9 1.3-3 1.3H19.5L36 24.7l-.2-10.8c0-1.2.4-2.4 1.2-3.2z" fill="#C0DCEB"/>
        <path id="XMLID_2839_" d="M31.2 10.1c1.3-.1 2.5-.7 3.5-1.7.2-.2.4-.3.7-.3l-1.2-1.2c-.3-.3-.7-.3-1 0-.8.8-1.9 1.3-3 1.3H19.5l2.8 2.8 8.9-.9z" fill="#daedf7"/>
        <path id="XMLID_2838_" class="st10" d="M37 10.7c.3-.3.3-.7 0-1l-2.8-2.8c-.3-.3-.7-.3-1 0-.8.8-1.9 1.3-3 1.3H19.5L36 24.7l-.2-10.8c0-1.2.4-2.4 1.2-3.2z" fill="none" stroke="#45413C" stroke-linecap="round" stroke-linejoin="round" stroke-miterlimit="10"/>
        <path id="XMLID_2837_" class="st18" d="M34.2 27L17.1 9.9c-.1-.1-.1-.4 0-.5l1.6-1.6c.1-.1.4-.1.5 0l17.1 17.1c.1.1.1.4 0 .5L34.7 27c-.1.1-.4.1-.5 0z" fill="#E8F4FA"/>
        <path id="XMLID_2836_" class="st17" d="M23.8 12.5l-4.6-4.6c-.1-.1-.4-.1-.5 0l-1.6 1.6c-.1.1-.1.4 0 .5l4.6 4.6 2.1-2.1z" fill="#FFF"/>
        <path id="XMLID_2835_" class="st10" d="M34.2 27L17.1 9.9c-.1-.1-.1-.4 0-.5l1.6-1.6c.1-.1.4-.1.5 0l17.1 17.1c.1.1.1.4 0 .5L34.7 27c-.1.1-.4.1-.5 0z" fill="none" stroke="#45413C" stroke-linecap="round" stroke-linejoin="round" stroke-miterlimit="10"/>
        <path id="XMLID_2834_" d="M31.9 27.2l-15-15c-.3-.3-.3-.7 0-1l.8-.8 16 16-.8.8c-.3.3-.8.3-1 0z" fill="#adc4d9"/>
        <path id="XMLID_2833_" class="st44" d="M18.6 13c-.2.2-.3.6-.1.9l-1.6-1.6c-.3-.3-.3-.7 0-1l.8-.8 1.8 1.8-.9.7z" fill="#C0DCEB"/>
        <path id="XMLID_2832_" class="st10" d="M31.9 27.2l-15-15c-.3-.3-.3-.7 0-1l.8-.8 16 16-.8.8c-.3.3-.8.3-1 0z" fill="none" stroke="#45413C" stroke-linecap="round" stroke-linejoin="round" stroke-miterlimit="10"/>
        <path id="XMLID_2831_" class="st18" d="M46.8 4V2.6c0-.5-.4-.9-.9-.9h-3.1c-1.9 0-3.7.7-5 2.1l-3.4 3.4 2.3 2.3L40 6.1c.8-.8 1.8-1.2 2.9-1.2h2.9c.6 0 1-.4 1-.9z" fill="#E8F4FA"/>
        <path id="XMLID_2830_" class="st17" d="M37.8 5.3c1.3-1.3 3.1-2.1 5-2.1h3.1c.5 0 .9.4.9.8V2.6c0-.5-.4-.9-.9-.9h-3.1c-1.9 0-3.7.7-5 2.1l-3.4 3.4.8.8 2.6-2.7z" fill="#FFF"/>
        <path id="XMLID_2829_" class="st10" d="M46.8 4V2.6c0-.5-.4-.9-.9-.9h-3.1c-1.9 0-3.7.7-5 2.1l-3.4 3.4 2.3 2.3L40 6.1c.8-.8 1.8-1.2 2.9-1.2h2.9c.6 0 1-.4 1-.9z" fill="none" stroke="#45413C" stroke-linecap="round" stroke-linejoin="round" stroke-miterlimit="10"/>
      </g>
    </g>
  </g>
</svg>
