<svg xmlns="http://www.w3.org/2000/svg" viewBox="0 0 48 48" focusable="false">
  <ellipse cx="33.7" cy="44.9" rx="11.5" ry="1.5" fill="#45413c" opacity=".15"/>
  <path d="M17.2 23l-3.6 1.6c-.5.2-.9.7-.9 1.3 0 .8.6 1.5 1.4 1.5.6 0 1.1-.3 1.4-.8l1.8-3.5c.1 0 0-.1-.1-.1zm-7.5 7.3l-3.2 2.2c-.5.3-.7.9-.6 1.5.1.8.9 1.4 1.7 1.2.6-.1 1-.5 1.2-1l1.1-3.7c-.1-.2-.2-.3-.2-.2zM14.3 18l-3.8.8c-.6.1-1 .5-1.1 1.1-.2.8.3 1.6 1.1 1.8.6.1 1.1-.1 1.5-.5l2.5-3c-.1-.1-.1-.2-.2-.2zm-8.6 5.7l-3.6 1.5c-.5.2-.9.7-.9 1.3 0 .8.6 1.5 1.4 1.6.6 0 1.1-.3 1.4-.8l1.8-3.4c0-.1 0-.2-.1-.2zm16.1 3.4l-3.3 2.1c-.5.3-.7.9-.7 1.4.1.8.8 1.4 1.7 1.3.6-.1 1-.5 1.2-1l1.2-3.7c0-.1 0-.2-.1-.1zm-5.9 8.8l-2.8 2.7c-.4.4-.6 1-.4 1.5.3.8 1.1 1.2 1.9.9.5-.2.9-.7 1-1.2l.4-3.9c.1 0 0-.1-.1 0zm11.2-6.6L24.3 32c-.4.4-.6 1-.4 1.5.3.8 1.1 1.2 1.9.9.5-.2.9-.7 1-1.2l.5-3.9c-.1 0-.2-.1-.2 0zm-4 10.1l-2.4 3.1c-.4.5-.4 1.1-.1 1.6.4.7 1.3 1 2 .6.5-.3.8-.8.8-1.4l-.1-3.9s-.1-.1-.2 0z" fill="#4ACFFF" stroke="#45413C" stroke-linecap="round" stroke-linejoin="round" stroke-miterlimit="10"/>
  <path d="M37 10.7c.3-.3.3-.7 0-1l-2.8-2.8c-.3-.3-.7-.3-1 0-.8.8-1.9 1.3-3 1.3H19.5L36 24.7l-.2-10.8c0-1.2.4-2.4 1.2-3.2z" fill="#C0DCEB"/>
  <path d="M31.2 10.1c1.3-.1 2.5-.7 3.5-1.7.2-.2.4-.3.7-.3l-1.2-1.2c-.3-.3-.7-.3-1 0-.8.8-1.9 1.3-3 1.3H19.5l2.8 2.8 8.9-.9z" fill="#daedf7"/>
  <path d="M37 10.7c.3-.3.3-.7 0-1l-2.8-2.8c-.3-.3-.7-.3-1 0-.8.8-1.9 1.3-3 1.3H19.5L36 24.7l-.2-10.8c0-1.2.4-2.4 1.2-3.2z" fill="none" stroke="#45413C" stroke-linecap="round" stroke-linejoin="round" stroke-miterlimit="10"/>
  <path d="M34.2 27L17.1 9.9c-.1-.1-.1-.4 0-.5l1.6-1.6c.1-.1.4-.1.5 0l17.1 17.1c.1.1.1.4 0 .5L34.7 27c-.1.1-.4.1-.5 0z" fill="#E8F4FA"/>
  <path d="M23.8 12.5l-4.6-4.6c-.1-.1-.4-.1-.5 0l-1.6 1.6c-.1.1-.1.4 0 .5l4.6 4.6 2.1-2.1z" fill="#FFF"/>
  <path d="M34.2 27L17.1 9.9c-.1-.1-.1-.4 0-.5l1.6-1.6c.1-.1.4-.1.5 0l17.1 17.1c.1.1.1.4 0 .5L34.7 27c-.1.1-.4.1-.5 0z" fill="none" stroke="#45413C" stroke-linecap="round" stroke-linejoin="round" stroke-miterlimit="10"/>
  <path d="M31.9 27.2l-15-15c-.3-.3-.3-.7 0-1l.8-.8 16 16-.8.8c-.3.3-.8.3-1 0z" fill="#adc4d9"/>
  <path d="M18.6 13c-.2.2-.3.6-.1.9l-1.6-1.6c-.3-.3-.3-.7 0-1l.8-.8 1.8 1.8-.9.7z" fill="#C0DCEB"/>
  <path d="M31.9 27.2l-15-15c-.3-.3-.3-.7 0-1l.8-.8 16 16-.8.8c-.3.3-.8.3-1 0z" fill="none" stroke="#45413C" stroke-linecap="round" stroke-linejoin="round" stroke-miterlimit="10"/>
  <path d="M46.8 4V2.6c0-.5-.4-.9-.9-.9h-3.1c-1.9 0-3.7.7-5 2.1l-3.4 3.4 2.3 2.3L40 6.1c.8-.8 1.8-1.2 2.9-1.2h2.9c.6 0 1-.4 1-.9z" fill="#E8F4FA"/>
  <path d="M37.8 5.3c1.3-1.3 3.1-2.1 5-2.1h3.1c.5 0 .9.4.9.8V2.6c0-.5-.4-.9-.9-.9h-3.1c-1.9 0-3.7.7-5 2.1l-3.4 3.4.8.8 2.6-2.7z" fill="#FFF"/>
  <path d="M46.8 4V2.6c0-.5-.4-.9-.9-.9h-3.1c-1.9 0-3.7.7-5 2.1l-3.4 3.4 2.3 2.3L40 6.1c.8-.8 1.8-1.2 2.9-1.2h2.9c.6 0 1-.4 1-.9z" fill="none" stroke="#45413C" stroke-linecap="round" stroke-linejoin="round" stroke-miterlimit="10"/>
</svg>
