<svg xmlns="http://www.w3.org/2000/svg" viewBox="0 0 24 24" focusable="false">
  <path fill="none" d="M0 0h24v24H0z"/>
  <path d="M11.995 12.999a3.322 3.322 0 01-1.092-.184L3.16 10.131a1.726 1.726 0 010-3.261l7.75-2.686a3.332 3.332 0 012.182 0l7.747 2.685a1.726 1.726 0 010 3.261l-7.753 2.686a3.335 3.335 0 01-1.09.184z" fill="#3effb5" opacity=".1"/>
  <path d="M4.84 13.631v2.072a2.632 2.632 0 001.724 2.471l4.527 1.665a2.632 2.632 0 001.817 0l4.527-1.665a2.632 2.632 0 001.724-2.47v-2.075m-7.164-.63a3.322 3.322 0 01-1.092-.184L3.16 10.131a1.726 1.726 0 010-3.261l7.75-2.686a3.332 3.332 0 012.182 0l7.747 2.685a1.726 1.726 0 010 3.261l-7.753 2.686a3.335 3.335 0 01-1.09.184z"/>
</svg>
