<?xml version="1.0" encoding="UTF-8"?>
<svg width="24px" height="24px" viewBox="0 0 24 24" version="1.1" xmlns="http://www.w3.org/2000/svg" xmlns:xlink="http://www.w3.org/1999/xlink">
    <title>Icons/24/CircleDown-Fill</title>
    <g id="Icons/24/CircleDown-Fill" stroke="none" stroke-width="1" fill="none" fill-rule="evenodd">
        <rect id="Container" fill-opacity="0" fill="#D8D8D8" fill-rule="nonzero" x="0" y="0" width="24" height="24"></rect>
        <path d="M19.0710678,4.92893219 C22.9763107,8.83417511 22.9763107,15.1658249 19.0710678,19.0710678 C15.1658249,22.9763107 8.83417511,22.9763107 4.92893219,19.0710678 C1.02368927,15.1658249 1.02368927,8.83417511 4.92893219,4.92893219 C8.83417511,1.02368927 15.1658249,1.02368927 19.0710678,4.92893219 Z M8.46446609,10.2928932 C8.0739418,9.90236893 7.44077682,9.90236893 7.05025253,10.2928932 C6.65972824,10.6834175 6.65972824,11.3165825 7.05025253,11.7071068 L7.05025253,11.7071068 L11.2928932,15.9497475 C11.6834175,16.3402718 12.3165825,16.3402718 12.7071068,15.9497475 L12.7071068,15.9497475 L16.9497475,11.7071068 C17.3402718,11.3165825 17.3402718,10.6834175 16.9497475,10.2928932 C16.5592232,9.90236893 15.9260582,9.90236893 15.5355339,10.2928932 L15.5355339,10.2928932 L12,13.8284271 Z" id="Shape" fill="#00D170" fill-rule="nonzero"></path>
    </g>
</svg>