<svg viewBox="0 0 24 24" xmlns="http://www.w3.org/2000/svg" focusable="false">
  <g stroke="#000" stroke-width="1.5" fill="none" fill-rule="evenodd" stroke-linecap="round" stroke-linejoin="round">
    <path d="M17.857 20.417a3.392 3.392 0 003.393-3.393v-2.7c-1.24 0-2.24-1-2.24-2.24 0-1.24 1-2.238 2.24-2.238l-.002-2.703a3.392 3.392 0 00-3.392-3.393H6.144a3.393 3.393 0 00-3.393 3.393v2.79c1.238 0 2.238.912 2.238 2.152 0 1.239-1 2.239-2.239 2.239v2.7a3.392 3.392 0 003.392 3.393h11.715z"/>
    <path d="M12 13.854l1.74.915a.223.223 0 00.323-.234l-.333-1.939 1.409-1.37a.222.222 0 00-.123-.38l-1.946-.283-.871-1.764a.222.222 0 00-.398 0l-.871 1.764-1.945.283a.222.222 0 00-.123.38l1.408 1.37-.333 1.94a.223.223 0 00.323.233l1.74-.915h0z" opacity=".4"/>
  </g>
</svg>
