<svg viewBox="0 0 24 24" xmlns="http://www.w3.org/2000/svg" focusable="false">
  <path d="M17.388 13.708a3.108 3.108 0 013.112 3.096 3.108 3.108 0 01-3.112 3.096c-1.717 0-3.114-1.389-3.114-3.096s1.397-3.096 3.114-3.096zm0 1.5c-.89 0-1.614.716-1.614 1.596 0 .881.724 1.596 1.614 1.596.889 0 1.612-.715 1.612-1.596 0-.88-.723-1.596-1.612-1.596zm-7.308.885a.75.75 0 010 1.5h-6.3a.75.75 0 010-1.5h6.3zM6.113 4a3.109 3.109 0 013.113 3.097c0 1.707-1.396 3.095-3.113 3.095C4.397 10.192 3 8.804 3 7.097A3.11 3.11 0 016.113 4zm0 1.5c-.889 0-1.613.716-1.613 1.597 0 .88.724 1.595 1.613 1.595.89 0 1.613-.715 1.613-1.595 0-.881-.723-1.597-1.613-1.597zm13.078.9a.75.75 0 010 1.5h-6.3a.75.75 0 010-1.5h6.3z" fill-rule="evenodd"/>
</svg>
