<svg xmlns="http://www.w3.org/2000/svg" viewBox="0 0 32 24">
  <path d="M0 4.055v16.199A4.062 4.062 0 004.055 24.3h13.09a4.062 4.062 0 004.054-4.047v-2.625a.8.8 0 10-1.597 0v2.625a2.463 2.463 0 01-2.465 2.445H4.055a2.456 2.456 0 01-2.453-2.445V4.05A2.454 2.454 0 014.055 1.6h13.09a2.458 2.458 0 012.457 2.454V6.68c0 .441.355.797.796.797a.796.796 0 00.801-.797V4.055A4.062 4.062 0 0017.152 0H4.055A4.056 4.056 0 000 4.055zm0 0"/>
  <path d="M25.152 18.191a.808.808 0 001.137 0l5.477-5.476a.797.797 0 000-1.13L26.289 6.11a.8.8 0 00-1.129 1.129l4.113 4.114h-15a.799.799 0 100 1.597h15l-4.113 4.114a.806.806 0 00-.242.562c0 .21.086.414.234.566zm0 0"/>
</svg>
