<svg data-name="Layer 1" xmlns="http://www.w3.org/2000/svg" viewBox="0 0 24 24" focusable="false">
  <rect x="2" y="15.303" width="20" height="6.698" rx="3.349"/>
  <path d="M15.919 4.418c-1.084-1.303-2.44-2.419-3.92-2.419h-.136v.01c-1.418.063-2.732 1.148-3.775 2.41a4.979 4.979 0 00-1.147 2.93 5.072 5.072 0 1010.136.27 4.998 4.998 0 00-1.158-3.2z"/>
  <path d="M11.306 2.086a.528.528 0 01.651.408c.213 1.169.657 4.104-.094 4.855-.687.687-3.36.288-4.453.09a.51.51 0 01-.422-.566 4.99 4.99 0 011.1-2.455 6.423 6.423 0 013.218-2.332z" fill="#030835"/>
</svg>
