<svg viewBox="0 0 24 24" xmlns="http://www.w3.org/2000/svg" focusable="false">
  <path d="M9.591 15.207c3.69 0 6.843.559 6.843 2.792 0 2.233-3.132 2.808-6.842 2.808-3.69 0-6.842-.554-6.842-2.788s3.13-2.812 6.842-2.812zm0-3.187a4.386 4.386 0 114.386-4.385 4.37 4.37 0 01-4.355 4.385h-.03zm6.892-1.138A3.301 3.301 0 0019.32 7.62a3.3 3.3 0 00-2.762-3.256m2.037 10.368c1.551.231 2.634.775 2.634 1.895 0 .771-.51 1.271-1.334 1.584" stroke="#000" stroke-width="1.5" fill="none" stroke-linecap="round" stroke-linejoin="round"/>
</svg>
