<svg xmlns="http://www.w3.org/2000/svg" viewBox="0 0 24 24" fill="currentColor" focusable="false">
  <g transform="translate(5 2)">
    <path d="M3.532.937a6.89 6.89 0 017.034.058C12.71 2.327 14.012 4.705 14 7.26c-.05 2.54-1.447 4.929-3.193 6.775a18.726 18.726 0 01-3.358 2.82A1.174 1.174 0 017.04 17a.82.82 0 01-.39-.119 18.515 18.515 0 01-4.839-4.547A9.28 9.28 0 010 7.134l.005-.273c.09-2.456 1.42-4.7 3.527-5.924zm4.375 4.098a2.346 2.346 0 00-2.594.52 2.455 2.455 0 00-.519 2.64 2.378 2.378 0 002.198 1.497 2.339 2.339 0 001.683-.702 2.43 2.43 0 00.694-1.712 2.423 2.423 0 00-1.462-2.243z"/>
    <ellipse cx="7" cy="19" opacity=".4" rx="5" ry="1"/>
  </g>
</svg>
