<svg viewBox="0 0 24 24" xmlns="http://www.w3.org/2000/svg" focusable="false">
  <path d="M11.949 14.54c3.431 0 6.361.544 6.361 2.72S15.399 20 11.949 20c-3.431 0-6.36-.544-6.36-2.72 0-2.177 2.91-2.74 6.36-2.74zm5.486-1.311c1.312-.024 2.722.156 3.243.284 1.104.217 1.83.66 2.131 1.304a1.923 1.923 0 010 1.67c-.46.998-1.944 1.319-2.52 1.402-.12.018-.215-.086-.203-.206.295-2.767-2.048-4.08-2.655-4.381-.025-.014-.03-.034-.028-.047.002-.009.012-.023.032-.026zM6.32 13.227l.247.002c.02.003.03.017.03.025.004.014-.002.034-.027.048-.607.302-2.95 1.614-2.656 4.38.013.121-.082.224-.201.207-.577-.083-2.06-.403-2.52-1.402a1.917 1.917 0 010-1.67c.3-.644 1.026-1.087 2.13-1.305.522-.127 1.93-.307 3.244-.283zM11.949 4a4.206 4.206 0 014.21 4.233 4.207 4.207 0 01-4.21 4.234 4.207 4.207 0 01-4.21-4.234A4.206 4.206 0 0111.95 4zm5.714.706c2.257 0 4.029 2.135 3.425 4.514-.407 1.601-1.882 2.665-3.525 2.621a3.396 3.396 0 01-.483-.046.158.158 0 01-.107-.244 5.765 5.765 0 00.984-3.242 5.8 5.8 0 00-1.068-3.37c-.022-.03-.038-.076-.016-.11.018-.029.05-.043.082-.05a3.49 3.49 0 01.708-.073zm-11.327 0c.245 0 .48.026.71.073.03.007.064.022.081.05.021.034.006.08-.016.11a5.807 5.807 0 00-1.068 3.37 5.76 5.76 0 00.984 3.241.158.158 0 01-.106.244 3.282 3.282 0 01-.484.047c-1.643.044-3.118-1.02-3.525-2.621-.604-2.38 1.168-4.514 3.424-4.514z"/>
</svg>
