<svg viewBox="0 0 24 24" xmlns="http://www.w3.org/2000/svg" focusable="false">
  <path d="M15.798 10.81l3.699-.327c.83 0 1.503.68 1.503 1.517a1.51 1.51 0 01-1.503 1.518l-3.7-.327c-.65 0-1.179-.533-1.179-1.19 0-.66.528-1.191 1.18-1.191" opacity=".4"/>
  <path d="M3.375 10.87c.058-.059.274-.305.477-.51 1.184-1.283 4.274-3.382 5.89-4.024.246-.102.867-.32 1.2-.336a2 2 0 01.91.22c.36.203.649.525.808.904.101.262.26 1.05.26 1.064.159.86.245 2.259.245 3.805 0 1.472-.086 2.814-.216 3.688-.014.016-.173.993-.347 1.328A1.815 1.815 0 0111 18h-.058c-.433-.014-1.343-.394-1.343-.408-1.53-.642-4.548-2.639-5.761-3.966 0 0-.343-.342-.491-.554A1.768 1.768 0 013 12.008c0-.423.13-.817.375-1.138"/>
</svg>
