<svg viewBox="0 0 24 24" xmlns="http://www.w3.org/2000/svg" focusable="false">
  <g fill="none" fill-rule="evenodd">
    <path d="M0 0h24v24H0z"/>
    <path d="M12 5c3.686 0 6.707 1.706 8.983 5.05l.214.323a3 3 0 010 3.254C18.904 17.179 15.809 19 12 19c-3.686 0-6.707-1.706-8.983-5.05l-.214-.323a3 3 0 010-3.254C5.096 6.821 8.191 5 12 5zm0 2c-3.103 0-5.58 1.456-7.517 4.458a.996.996 0 00-.006 1.074l.2.302C6.585 15.637 8.997 17 12 17c3.103 0 5.58-1.456 7.517-4.458a.996.996 0 00.006-1.074l-.2-.302C17.415 8.363 15.003 7 12 7zm0 2a3 3 0 110 6 3 3 0 010-6zm0 2a1 1 0 100 2 1 1 0 000-2z" fill="currentColor"/>
  </g>
</svg>
