<svg viewBox="0 0 24 24" xmlns="http://www.w3.org/2000/svg" focusable="false">
  <path d="M14.762 6.743c.605 0 1.186.238 1.61.663.425.428.661 1.004.66 1.603v1.245a.28.28 0 01-.273.269H7.24a.278.278 0 01-.27-.269V9.01c-.01-1.24 1.005-2.254 2.27-2.266zM17.194 3c2.197 0 3.983 1.752 3.983 3.906v1.856c0 .412-.34.748-.761.748a.755.755 0 01-.761-.748V6.906c0-1.33-1.104-2.413-2.461-2.413H15.6a.753.753 0 01-.761-.745c0-.413.34-.748.76-.748zM8.428 3c.42 0 .76.334.76.747 0 .412-.34.746-.76.746l-1.63.001c-1.351.002-2.451 1.082-2.451 2.409v1.859a.756.756 0 01-.762.747.755.755 0 01-.761-.747v-1.86c0-2.149 1.783-3.9 3.974-3.901z" opacity=".4"/>
  <path d="M22.239 12.041H1.762a.755.755 0 00-.762.747c0 .412.342.746.762.746h1.061v3.563c0 2.15 1.784 3.9 3.975 3.902L8.427 21a.755.755 0 00.762-.747.754.754 0 00-.761-.746L6.8 19.506c-1.353-.002-2.454-1.082-2.454-2.409v-3.563h2.623v.991c-.01 1.24 1.005 2.254 2.269 2.266h5.524c1.265-.012 2.28-1.025 2.27-2.266v-.991h2.623v3.56c0 1.33-1.104 2.413-2.461 2.413h-1.593a.754.754 0 00-.762.746c0 .413.341.747.762.747h1.593c2.196 0 3.983-1.751 3.983-3.907v-3.56h1.062c.42 0 .761-.333.761-.745a.754.754 0 00-.761-.747"/>
</svg>
