<svg viewBox="0 0 24 24" xmlns="http://www.w3.org/2000/svg" focusable="false">
  <path d="M12.013 2c2.967 0 5.384 2.378 5.384 5.301v1.597c1.8.621 3.103 2.29 3.103 4.271v4.289c0 2.505-2.071 4.542-4.617 4.542h-3.44a.756.756 0 01-.763-.75c0-.414.341-.75.762-.75h3.411c1.706 0 3.092-1.364 3.092-3.042 0-.052.02-.097.03-.145v-4.144c0-1.678-1.387-3.042-3.092-3.042H8.117c-1.705 0-3.092 1.364-3.092 3.042v4.144c.01.048.029.093.029.145 0 1.678 1.387 3.042 3.093 3.042.42 0 .762.336.762.75s-.341.75-.762.75l-.02-.002-.01.002C5.571 22 3.5 19.963 3.5 17.458v-4.289c0-1.981 1.302-3.65 3.102-4.271V7.301C6.615 4.363 9.03 2 11.99 2zM12 13.453c.42 0 .762.336.762.75v2.22c0 .415-.341.75-.762.75a.756.756 0 01-.762-.75v-2.22c0-.414.341-.75.762-.75zm.01-9.953h-.017c-2.125 0-3.856 1.694-3.866 3.784v1.343h7.745V7.301c0-2.096-1.733-3.801-3.862-3.801z"/>
</svg>
