<svg xmlns="http://www.w3.org/2000/svg" viewBox="0 0 32 32">
  <path fill="#ffdaa7" d="M21.398 10.5h-1.465v-3h2.132a1 1 0 01.832 1.555l-.667 1a1 1 0 01-.832.445z"/>
  <path fill="#2c2b2d" d="M21.398 11h-1.464a.5.5 0 01-.5-.5v-3a.5.5 0 01.5-.5h2.13a1.5 1.5 0 011.248 2.332l-.666 1a1.497 1.497 0 01-1.248.668zm-.964-1h.964a.498.498 0 00.416-.223l.666-1A.5.5 0 0022.064 8h-1.63z"/>
  <path fill="#ffdaa7" d="M10.602 10.5h1.465v-3H9.935a1 1 0 00-.832 1.555l.667 1a1 1 0 00.832.445z"/>
  <path fill="#2c2b2d" d="M12.066 11h-1.464a1.497 1.497 0 01-1.248-.668l-.666-1A1.5 1.5 0 019.936 7h2.13a.5.5 0 01.5.5v3a.5.5 0 01-.5.5zm-2.13-3a.5.5 0 00-.416.777l.666 1a.498.498 0 00.416.223h.964V8z"/>
  <path fill="#3f6db4" d="M18.5 14.5h-5a5.076 5.076 0 01-3.478 2.943l-3.164.764A7 7 0 001.5 25.01v4.49a2 2 0 002 2h25a2 2 0 002-2v-4.489a7 7 0 00-5.358-6.804l-3.164-.764A5.076 5.076 0 0118.5 14.5z"/>
  <path fill="#e0e0e2" d="M22.43 17.04a1.007 1.007 0 01-.09.38 5.854 5.854 0 01-.3.55A7.045 7.045 0 0116 21.83a7.045 7.045 0 01-6.04-3.86 5.854 5.854 0 01-.3-.55 1.241 1.241 0 01-.09-.38l.34-.08a4.596 4.596 0 003.13-2.66.505.505 0 01.46-.3h5a.505.505 0 01.46.3 4.596 4.596 0 003.13 2.66z"/>
  <path fill="#ffdaa7" d="M20.71 17.35a5.51 5.51 0 01-9.42 0 .47.47 0 01-.05-.38 3.251 3.251 0 00.59-.37 5.001 5.001 0 001.67-2.1h5a5.001 5.001 0 001.67 2.1 3.251 3.251 0 00.59.37.47.47 0 01-.05.38z"/>
  <path fill="#2c2b2d" d="M25.26 17.72l-2.83-.68-.34-.08a4.596 4.596 0 01-3.13-2.66.505.505 0 00-.46-.3h-5a.505.505 0 00-.46.3 4.596 4.596 0 01-3.13 2.66l-.34.08-2.83.68A7.487 7.487 0 001 25.01v4.49A2.5 2.5 0 003.5 32h25a2.5 2.5 0 002.5-2.5v-4.49a7.487 7.487 0 00-5.74-7.29zM30 29.5a1.498 1.498 0 01-1.5 1.5h-25A1.498 1.498 0 012 29.5v-4.49a6.494 6.494 0 014.97-6.32l2.99-.72.18-.04A5.607 5.607 0 0013.82 15h4.36a5.607 5.607 0 003.68 2.93l.18.04 2.99.72A6.494 6.494 0 0130 25.01z"/>
  <path fill="#e0e0e2" d="M10.5 6.577V6A5.5 5.5 0 0116 .5 5.5 5.5 0 0121.5 6v.577"/>
  <path fill="#2c2b2d" d="M21.5 7.077a.5.5 0 01-.5-.5V6a5 5 0 00-10 0v.577a.5.5 0 01-1 0V6a6 6 0 0112 0v.577a.5.5 0 01-.5.5zM16 22a7.535 7.535 0 01-6.76-4.265.5.5 0 11.902-.431 6.49 6.49 0 0011.716 0 .5.5 0 01.903.431A7.535 7.535 0 0116 22z"/>
  <path fill="#2c2b2d" d="M20.71 17.35a5.51 5.51 0 01-9.42 0 .47.47 0 01-.05-.38.561.561 0 01.22-.31.493.493 0 01.37-.06.467.467 0 01.32.23 4.5 4.5 0 007.7 0 .467.467 0 01.32-.23.493.493 0 01.37.06.561.561 0 01.22.31.47.47 0 01-.05.38z"/>
  <circle cx="16" cy="23.5" r=".5" fill="#2c2b2d"/>
  <circle cx="16" cy="25.5" r=".5" fill="#2c2b2d"/>
  <circle cx="16" cy="27.5" r=".5" fill="#2c2b2d"/>
  <circle cx="16" cy="29.5" r=".5" fill="#2c2b2d"/>
  <path fill="#2c2b2d" d="M25.5 32a.5.5 0 01-.5-.5v-6a.5.5 0 011 0v6a.5.5 0 01-.5.5zm-19 0a.5.5 0 01-.5-.5v-6a.5.5 0 011 0v6a.5.5 0 01-.5.5z"/>
  <path fill="#ffdaa7" d="M18.268 14.988l-1.159.772a2 2 0 01-2.218 0l-1.159-.772a6 6 0 01-2.611-4.144L10.5 6.5a30.676 30.676 0 0111 0l-.62 4.344a6 6 0 01-2.612 4.144z"/>
  <path fill="#58565d" d="M21 9.46l-2.75 3.245a.291.291 0 01-.465-.027l-.553-.83a.782.782 0 00-.65-.348h-1.163a.782.782 0 00-.651.348l-.556.834a.291.291 0 01-.463.03l-2.826-3.253-.003.001.2 1.38a6.013 6.013 0 002.61 4.15l1.16.77a1.994 1.994 0 002.22 0l1.16-.77a6.013 6.013 0 002.61-4.15l.2-1.37z"/>
  <path fill="#2c2b2d" d="M16 16.597a2.497 2.497 0 01-1.387-.42l-1.158-.773a6.504 6.504 0 01-2.829-4.489l-.621-4.344a.5.5 0 01.419-.565 31.016 31.016 0 0111.152 0 .5.5 0 01.42.565l-.622 4.344a6.504 6.504 0 01-2.83 4.49l-1.157.771a2.497 2.497 0 01-1.387.421zM11.065 6.92l.551 3.853a5.503 5.503 0 002.394 3.8l1.158.771a1.496 1.496 0 001.664 0l1.158-.772a5.503 5.503 0 002.394-3.799l.55-3.853a29.372 29.372 0 00-9.869 0zm7.203 8.068z"/>
  <path fill="#2c2b2d" d="M13.969 13.312a.786.786 0 01-.597-.272l-2.826-3.252a.5.5 0 11.754-.657l2.647 3.046.405-.606A1.282 1.282 0 0115.419 11h1.162a1.28 1.28 0 011.067.57l.4.6 2.57-3.034a.5.5 0 01.764.647l-2.75 3.245a.823.823 0 01-.65.279.785.785 0 01-.613-.352l-.553-.83a.284.284 0 00-.235-.125H15.42a.285.285 0 00-.236.126l-.555.833a.784.784 0 01-.606.351.634.634 0 01-.053.002z"/>
</svg>
