<svg xmlns="http://www.w3.org/2000/svg" viewBox="0 0 32 32" fill="currentColor" focusable="false">
  <path d="M30.524 8.853l-5.902-5.76c-.071-.089-.178-.124-.284-.178l-.196-.142-.302-.053c-.107-.018-.178-.053-.284-.053l-.178.036a1.11 1.11 0 00-.409.071l-.142.107a1.75 1.75 0 00-.338.213l-5.902 5.76a1.529 1.529 0 102.133 2.187l.001-.001 3.307-3.2v18.649a1.529 1.529 0 103.058 0V7.822l3.307 3.218c.276.273.656.442 1.076.442a1.525 1.525 0 001.058-2.629zM12.267 19.644l-3.307 3.2V4.195a1.529 1.529 0 10-3.058 0v18.667l-3.307-3.236A1.534 1.534 0 00.461 21.83l5.902 5.76c.107.107.249.178.356.231l.142.089a1.534 1.534 0 001.166-.004l-.01.004.124-.089c.124-.071.249-.124.356-.231l5.902-5.76a1.529 1.529 0 00-2.135-2.185l.001-.001z"/>
</svg>
