<svg xmlns="http://www.w3.org/2000/svg" viewBox="0 0 48 48">
  <style>
    .st1{fill:#ffc258}.st2{fill:#4f4b45}.st3{fill:#fabfa5}.st10{fill:none;stroke:#45413c;stroke-linecap:round;stroke-linejoin:round;stroke-miterlimit:10}
  </style>
  <symbol id="New_Symbol_14" viewBox="-6.5 -6.5 13 13">
    <path d="M0-6c2.2 0 4.1 1.5 4.7 3.5C6.3-2.5 6.4 0 5 0v1c0 2.8-2.2 5-5 5s-5-2.2-5-5V0c-1.4 0-1.3-2.5.2-2.5C-4.1-4.5-2.2-6 0-6z" fill="#ffd4c3" stroke="#504b46" stroke-linecap="round" stroke-linejoin="round" stroke-miterlimit="10"/>
    <circle class="st1" cx="-1.6" cy="-.1" r=".1" fill="#FFC258"/>
    <path class="st2" d="M-1.6.5c-.3 0-.6-.3-.6-.6s.2-.7.6-.7c.3 0 .6.3.6.7s-.3.6-.6.6z" fill="#4F4B45"/>
    <circle class="st1" cx="1.6" cy="-.1" r=".1" fill="#FFC258"/>
    <path class="st2" d="M1.6.5C1.3.5 1 .2 1-.1s.3-.6.6-.6.6.3.6.6-.2.6-.6.6z" fill="#4F4B45"/>
    <circle class="st3" cx="-3" cy="-1.5" r=".5" fill="#FABFA5"/>
    <circle class="st3" cx="3" cy="-1.5" r=".5" fill="#FABFA5"/>
    <path d="M-1.2-3c.8-.5 1.7-.5 2.5 0" fill="none" stroke="#504b46" stroke-linecap="round" stroke-linejoin="round" stroke-miterlimit="10"/>
  </symbol>
  <g id="Icons">
    <g id="XMLID_1986_">
      <ellipse id="XMLID_2755_" cx="21.6" cy="44.7" rx="12.6" ry="1.6" fill="#45413c" opacity=".15"/>
      <path id="XMLID_2754_" d="M32.9 39.1c4.4-4.4 6.7-10.6 5.2-16.2-.4-1.4-.6-2.8-.5-4.2.1-1.5-.5-3-1.7-4.2l-.9-.9c-1.1-1.1-2.7-1.7-4.2-1.7-1.4.1-2.8-.2-4.2-.5-5.6-1.5-11.7.8-16.2 5.2C6 21 3.7 27.2 5.2 32.8c.4 1.4.6 2.8.5 4.2-.1 1.5.5 3 1.7 4.2l.9.9c1.1 1.1 2.7 1.7 4.2 1.7 1.4-.1 2.8.2 4.2.5 5.6 1.5 11.7-.8 16.2-5.2z" fill="#ffe500"/>
      <path id="XMLID_2753_" d="M10.4 21.6c4.4-4.4 10.6-6.7 16.2-5.2 1.4.4 2.8.6 4.2.5 1.5-.1 3 .5 4.2 1.7l.9.9c1.1 1.1 1.7 2.7 1.7 4.2-.1 1.4.2 2.8.5 4.2.1.4.2.7.2 1.1.3-2 .3-4.1-.2-6.1-.4-1.4-.6-2.8-.5-4.2.1-1.5-.5-3-1.7-4.2l-.9-.9c-1.1-1.1-2.7-1.7-4.2-1.7-1.4.1-2.8-.2-4.2-.5-5.6-1.5-11.7.8-16.2 5.2C6.2 20.8 4 26.4 5 31.7c.6-3.7 2.5-7.2 5.4-10.1z" fill="#fff48c"/>
      <path id="XMLID_2752_" class="st10" d="M32.9 39.1c4.4-4.4 6.7-10.6 5.2-16.2-.4-1.4-.6-2.8-.5-4.2.1-1.5-.5-3-1.7-4.2l-.9-.9c-1.1-1.1-2.7-1.7-4.2-1.7-1.4.1-2.8-.2-4.2-.5-5.6-1.5-11.7.8-16.2 5.2C6 21 3.7 27.2 5.2 32.8c.4 1.4.6 2.8.5 4.2-.1 1.5.5 3 1.7 4.2l.9.9c1.1 1.1 2.7 1.7 4.2 1.7 1.4-.1 2.8.2 4.2.5 5.6 1.5 11.7-.8 16.2-5.2z" fill="none" stroke="#45413C" stroke-linecap="round" stroke-linejoin="round" stroke-miterlimit="10"/>
      <path id="XMLID_2751_" d="M33.5 14.4s2.8-3.2 6.6-4.3c2.5-.7 3 .8 3.1 2 0 .6-.4 1.1-1 1.2-1.5.2-4.5.7-7.2 2.6-1.3.1-1.5-1.5-1.5-1.5z" fill="#debb7e"/>
      <path id="XMLID_2750_" d="M34.2 15.6c1-1 3.2-2.9 6-3.6 1.7-.5 2.5.1 2.9.9.2-.2.3-.5.3-.8-.1-1.1-.7-2.6-3.1-2-3.8 1-6.6 4.3-6.6 4.3s-.1.8.5 1.2z" fill="#f0d5a8"/>
      <path id="XMLID_2749_" class="st10" d="M33.5 14.4s2.8-3.2 6.6-4.3c2.5-.7 3 .8 3.1 2 0 .6-.4 1.1-1 1.2-1.5.2-4.5.7-7.2 2.6-1.3.1-1.5-1.5-1.5-1.5z" fill="none" stroke="#45413C" stroke-linecap="round" stroke-linejoin="round" stroke-miterlimit="10"/>
      <path id="XMLID_2748_" d="M33.6 14.3s2.2-5.3-2.7-9.8C26.5.3 22 1.7 20.4 2.4c-.4.2-.6.6-.6 1 0 1.6.4 5.4 3.8 7.9 3.8 3 7.9-.4 10 3z" fill="#6dd627"/>
      <path id="XMLID_2747_" d="M20.4 5.4c1.6-.7 6.1-2.1 10.5 2.1 2 1.8 2.8 3.8 3.1 5.5.3-1.9.3-5.3-3.1-8.5C26.5.3 22 1.7 20.4 2.4c-.4.2-.6.6-.6 1 0 .5.1 1.3.3 2.3 0-.1.1-.2.3-.3z" fill="#9ceb60"/>
      <path id="XMLID_2746_" class="st10" d="M33.6 14.3s2.2-5.3-2.7-9.8C26.5.3 22 1.7 20.4 2.4c-.4.2-.6.6-.6 1 0 1.6.4 5.4 3.8 7.9 3.8 3 7.9-.4 10 3z" fill="none" stroke="#45413C" stroke-linecap="round" stroke-linejoin="round" stroke-miterlimit="10"/>
      <path id="XMLID_2745_" d="M33.6 14.3s0-5.9-5.6-8.4" fill="#6dd627" stroke="#45413c" stroke-linecap="round" stroke-linejoin="round" stroke-miterlimit="10"/>
    </g>
  </g>
</svg>
