<svg xmlns="http://www.w3.org/2000/svg" viewBox="0 0 32 32">
  <path fill="#fff" d="M18.5 14.5h-5a5.076 5.076 0 01-3.478 2.943l-3.164.764A7 7 0 001.5 25.01v4.49a2 2 0 002 2h25a2 2 0 002-2v-4.489a7 7 0 00-5.358-6.804l-3.164-.764A5.076 5.076 0 0118.5 14.5z"/>
  <path fill="#ffdaa7" d="M19.5 18.08a4.998 4.998 0 01-7 0v-2.9l2.39 1.59a1.994 1.994 0 002.22 0l2.39-1.59v2.9z"/>
  <path fill="#8b8891" d="M20.238 17.096a5.002 5.002 0 01-8.554 0l-2.033.43a6.992 6.992 0 0012.62 0z"/>
  <path fill="#e5303e" d="M11 3.5a4.426 4.426 0 011.597-2.172A4.382 4.382 0 0115.162.5h1.676A4.387 4.387 0 0121 3.5"/>
  <path fill="#2c2b2d" d="M21 4a.502.502 0 01-.475-.342A3.882 3.882 0 0016.838 1h-1.676a3.869 3.869 0 00-2.273.733 3.933 3.933 0 00-1.414 1.925.5.5 0 01-.95-.316 4.935 4.935 0 011.78-2.42A4.857 4.857 0 0115.162 0h1.676a4.882 4.882 0 014.637 3.342.501.501 0 01-.317.633A.496.496 0 0121 4z"/>
  <path fill="#fff" d="M12.5 26.5l-3 2-3-10.5 3-10.5h3v19z"/>
  <path fill="#2c2b2d" d="M28.5 32h-25A2.502 2.502 0 011 29.5v-4.488a7.48 7.48 0 015.74-7.291l3.165-.764a4.595 4.595 0 003.135-2.653.5.5 0 01.46-.304h5a.5.5 0 01.46.304 4.595 4.595 0 003.135 2.653l3.165.764A7.48 7.48 0 0131 25.01v4.49a2.502 2.502 0 01-2.5 2.5zM13.82 15a5.61 5.61 0 01-3.68 2.93l-3.165.763A6.482 6.482 0 002 25.012V29.5A1.502 1.502 0 003.5 31h25a1.502 1.502 0 001.5-1.5v-4.488a6.482 6.482 0 00-4.975-6.319l-3.165-.763A5.608 5.608 0 0118.18 15z"/>
  <path fill="#2c2b2d" d="M16 22a7.535 7.535 0 01-6.76-4.265.5.5 0 11.902-.431 6.49 6.49 0 0011.716 0 .5.5 0 01.903.431A7.535 7.535 0 0116 22z"/>
  <path fill="#2c2b2d" d="M16 20a5.466 5.466 0 01-4.705-2.65.5.5 0 01.855-.519 4.5 4.5 0 007.7 0 .5.5 0 01.855.52A5.466 5.466 0 0116 20zm9.5 12a.5.5 0 01-.5-.5v-4a.5.5 0 011 0v4a.5.5 0 01-.5.5zm-19 0a.5.5 0 01-.5-.5v-4a.5.5 0 011 0v4a.5.5 0 01-.5.5z"/>
  <path fill="#8b8891" d="M14.5 21.5h3v10h-3z"/>
  <path fill="#2c2b2d" d="M17.5 32h-3a.5.5 0 01-.5-.5v-10a.5.5 0 01.5-.5h3a.5.5 0 01.5.5v10a.5.5 0 01-.5.5zM15 31h2v-9h-2z"/>
  <path fill="#e5303e" d="M11.975 26.613l-1.415.943a1 1 0 01-1.516-.558l-2.31-8.083a4 4 0 010-2.198L9.42 7.316h3V25.78a1 1 0 01-.445.832z"/>
  <path fill="#2c2b2d" d="M10.009 28.226a1.516 1.516 0 01-.522-.094 1.486 1.486 0 01-.924-.997l-2.31-8.082a4.475 4.475 0 010-2.474L8.94 7.178a.5.5 0 01.48-.363h3a.5.5 0 01.5.5V25.78a1.498 1.498 0 01-.667 1.248l-1.415.944a1.488 1.488 0 01-.828.254zm-.212-20.41l-2.582 9.038a3.479 3.479 0 000 1.923l2.31 8.083a.5.5 0 00.757.28l1.415-.944a.498.498 0 00.223-.416V7.815z"/>
  <path fill="#e5303e" d="M19.945 26.797l1.415.943a1 1 0 001.516-.557l2.31-8.084a4 4 0 000-2.198L22.5 7.5h-3v18.465a1 1 0 00.445.832z"/>
  <path fill="#2c2b2d" d="M21.911 28.41a1.488 1.488 0 01-.828-.254l-1.415-.943A1.498 1.498 0 0119 25.965V7.5a.5.5 0 01.5-.5h3a.5.5 0 01.48.362l2.686 9.402a4.471 4.471 0 010 2.472l-2.31 8.084a1.486 1.486 0 01-.923.996 1.516 1.516 0 01-.522.094zM20 8v17.965a.498.498 0 00.223.416l1.415.943a.5.5 0 00.757-.278l2.31-8.085a3.475 3.475 0 000-1.922L22.123 8z"/>
  <path fill="#ffdaa7" d="M19.756 14.996l-2.647 1.764a2 2 0 01-2.218 0l-2.647-1.764a2 2 0 01-.87-1.381L10.5 7.5a30.676 30.676 0 0111 0l-.874 6.115a2 2 0 01-.87 1.381z"/>
  <path fill="#8b8891" d="M21.5 5.5a69.672 69.672 0 00-11 0c-.592-.228-1-.61-1-1a1 1 0 011-1 87.04 87.04 0 0111 0 1 1 0 010 2z"/>
  <path fill="#2c2b2d" d="M21.5 6a.537.537 0 01-.04-.002 69.354 69.354 0 00-10.92 0 .52.52 0 01-.22-.031C9.494 5.648 9 5.1 9 4.5A1.502 1.502 0 0110.5 3c1.815-.116 3.719-.15 5.544-.174a88.11 88.11 0 015.487.175h.002A1.5 1.5 0 0121.5 6zm-5.499-1.218c1.83 0 3.685.073 5.516.218A.5.5 0 0022 4.5a.506.506 0 00-.5-.5 78.1 78.1 0 00-5.499-.174c-1.817 0-3.657.059-5.47.173A.51.51 0 0010 4.5c0 .088.172.313.58.492 1.799-.14 3.622-.21 5.421-.21z"/>
  <path fill="#58565d" d="M21 10.38l-2.75 3.246a.291.291 0 01-.465-.027l-.553-.83a.782.782 0 00-.65-.348h-1.163a.782.782 0 00-.651.349l-.556.833a.291.291 0 01-.463.03l-2.826-3.253-.003.001.45 3.15a2.022 2.022 0 00.87 1.39l2.65 1.76a1.994 1.994 0 002.22 0l2.65-1.76a2.022 2.022 0 00.87-1.39l.45-3.14"/>
  <path fill="#2c2b2d" d="M16 17.598a2.503 2.503 0 01-1.387-.421l-2.646-1.765a2.5 2.5 0 01-1.088-1.726l-.874-6.116a.5.5 0 01.419-.564 31.016 31.016 0 0111.152 0 .5.5 0 01.42.564l-.875 6.116a2.5 2.5 0 01-1.088 1.726l-2.646 1.765a2.5 2.5 0 01-1.387.42zM11.065 7.92l.804 5.624a1.498 1.498 0 00.652 1.035l2.647 1.765a1.5 1.5 0 001.664 0l2.647-1.765a1.498 1.498 0 00.652-1.035l.804-5.624a29.27 29.27 0 00-9.87 0z"/>
  <path fill="#2c2b2d" d="M13.968 14.312a.79.79 0 01-.595-.27l-2.828-3.255a.5.5 0 01.756-.656l2.646 3.047.405-.607A1.282 1.282 0 0115.419 12h1.162a1.282 1.282 0 011.067.571l.4.599 2.57-3.034a.5.5 0 01.764.646l-2.75 3.246a.794.794 0 01-.65.279.786.786 0 01-.613-.352l-.553-.829a.282.282 0 00-.235-.126H15.42a.282.282 0 00-.235.126l-.556.833a.784.784 0 01-.605.35.513.513 0 01-.055.003z"/>
  <path fill="#8b8891" d="M21.5 7.5a51.682 51.682 0 00-11 0 1 1 0 010-2 69.663 69.663 0 0111 0 1 1 0 010 2z"/>
  <path fill="#2c2b2d" d="M21.5 8a.478.478 0 01-.053-.003 51.562 51.562 0 00-5.404-.29h-.024a51.407 51.407 0 00-5.465.29h-.006A1.499 1.499 0 1110.5 5c1.766-.142 3.6-.215 5.412-.218 1.871.026 3.765.072 5.627.22h.003A1.5 1.5 0 0121.5 8zm-5.52-2.218h-.066a69.972 69.972 0 00-5.375.216A.513.513 0 0010 6.5a.506.506 0 00.5.5 51.423 51.423 0 015.52-.294h.024A52.433 52.433 0 0121.522 7a.5.5 0 00-.022-1 70.576 70.576 0 00-5.52-.218z"/>
</svg>
