<svg data-name="Layer 1" xmlns="http://www.w3.org/2000/svg" viewBox="0 0 24 24" focusable="false">
  <g fill="none" stroke-linecap="round" stroke-miterlimit="10" stroke-width="1.5">
    <path d="M14.329 3.916a10.43 10.43 0 01-.9 3.793 11.198 11.198 0 01-5.736 5.728 10.433 10.433 0 01-3.776.892 1.994 1.994 0 00-1.525 3.181A10.83 10.83 0 1017.51 2.392a1.994 1.994 0 00-3.181 1.524z" stroke="#030835"/>
    <path d="M21.825 13.138A10.82 10.82 0 0017.51 2.392a1.994 1.994 0 00-3.181 1.524 10.43 10.43 0 01-.9 3.793 11.198 11.198 0 01-5.736 5.728" stroke="#ffb531"/>
  </g>
</svg>
