<svg viewBox="0 0 24 24" xmlns="http://www.w3.org/2000/svg" focusable="false">
  <path d="M12.005 2A4.992 4.992 0 0117 6.774h-.026A.502.502 0 0116.93 7h.156c1.217 0 2.492.844 3.003 2.88l.055.24.77 6.195c.553 3.95-1.609 5.612-4.558 5.683l-.198.002h-8.29c-2.996 0-5.305-1.092-4.798-5.416l.035-.27.778-6.194c.383-2.193 1.67-3.058 2.911-3.117L6.932 7h.078a.649.649 0 010-.226A4.992 4.992 0 0112.005 2zm-2.908 8.33a.897.897 0 00-.884.909c0 .502.396.91.884.91a.897.897 0 00.884-.91l-.007-.114a.893.893 0 00-.877-.796zm5.789 0a.897.897 0 00-.884.909c0 .502.396.91.884.91a.897.897 0 00.884-.91.897.897 0 00-.884-.91zm-2.92-7.028a3.478 3.478 0 00-3.484 3.472.649.649 0 010 .226h7.011a.649.649 0 01-.043-.226 3.478 3.478 0 00-3.484-3.472z"/>
</svg>
