<svg viewBox="0 0 24 24" xmlns="http://www.w3.org/2000/svg" focusable="false">
  <path d="M16.334 2C19.723 2 22 4.378 22 7.916v8.168C22 19.622 19.723 22 16.333 22H7.665C4.276 22 2 19.622 2 16.084V7.916C2 4.378 4.276 2 7.665 2h8.669zm0 1.5H7.665C5.135 3.5 3.5 5.233 3.5 7.916v8.168c0 2.683 1.635 4.416 4.165 4.416h8.668c2.531 0 4.167-1.733 4.167-4.416V7.916c0-2.683-1.636-4.416-4.166-4.416zm-.245 5.597a.749.749 0 010 1.06l-4.745 4.746a.746.746 0 01-1.06 0L7.91 12.53a.749.749 0 111.06-1.06l1.844 1.842 4.216-4.215a.749.749 0 011.06 0z" fill-rule="evenodd"/>
</svg>
