<svg xmlns="http://www.w3.org/2000/svg" viewBox="0 0 42.256 42.256" focusable="false">
  <path d="M36.069 6.189a21.128 21.128 0 100 29.88 21.128 21.128 0 000-29.88zm-.88 29A19.9 19.9 0 017.063 7.064a19.9 19.9 0 0128.13 28.129zm0 0"/>
  <path d="M8.914 16.731a.7.7 0 00.866-.5 3.484 3.484 0 016.037 0 .707.707 0 101.365-.37 4.84 4.84 0 00-8.766 0 .7.7 0 00.5.866zm16.591 0a.7.7 0 00.866-.5 3.484 3.484 0 016.037 0 .707.707 0 101.365-.37 4.84 4.84 0 00-8.766 0 .7.7 0 00.5.866zm1.577 10.544s-5.6 9.627-11.414 0"/>
</svg>
