<svg viewBox="0 0 24 24" xmlns="http://www.w3.org/2000/svg" focusable="false">
  <path d="M7.368 8.794a.75.75 0 010 1.5h-.933A2.937 2.937 0 003.5 13.228v4.875a2.938 2.938 0 002.935 2.935h11.13a2.938 2.938 0 002.935-2.935V13.22a2.928 2.928 0 00-2.924-2.925h-.943a.75.75 0 010-1.5h.943A4.43 4.43 0 0122 13.22v4.884a4.44 4.44 0 01-4.435 4.435H6.435A4.44 4.44 0 012 18.103v-4.875a4.44 4.44 0 014.435-4.434h.933zm5.163-6.572l2.916 2.928a.75.75 0 01-1.062 1.058l-1.636-1.642.001 10.975h-1.5V4.566L9.615 6.208a.747.747 0 01-1.06.002.749.749 0 01-.002-1.06l2.915-2.928a.77.77 0 011.062 0z" fill-rule="evenodd"/>
</svg>
