<svg xmlns="http://www.w3.org/2000/svg" viewBox="0 0 32 32">
  <path fill="#b28966" d="M5.502 7.394l-.417.252a.587.587 0 00-.26.665l.021.076A1.761 1.761 0 014.8 9.502l-.028.074a.587.587 0 00.203.685l.394.286c.39.73 2.146 1.097 3.603 1.048 2.009-.068 4.824-.99 4.878-2.269s-2.674-2.435-4.67-2.672c-1.447-.172-3.227.045-3.677.74z"/>
  <path fill="#2c2b2d" d="M8.738 12.099c-1.157 0-3.104-.247-3.745-1.206l-.313-.228a1.09 1.09 0 01-.376-1.267 1.332 1.332 0 00.062-.872 1.115 1.115 0 01.461-1.308l.33-.2c.774-.97 2.985-.994 4.082-.86 1.82.216 5.186 1.374 5.11 3.19-.077 1.814-3.53 2.684-5.361 2.747a10.11 10.11 0 01-.25.004zM8.21 7.097a3.363 3.363 0 00-2.29.569.51.51 0 01-.159.155l-.416.253a.086.086 0 00-.04.099 2.335 2.335 0 01-.038 1.508c-.043.11-.03.152.002.175l.393.287a.49.49 0 01.147.169c.221.413 1.616.833 3.145.783 2.062-.07 4.362-1.007 4.395-1.79.033-.784-2.18-1.91-4.228-2.155a7.708 7.708 0 00-.911-.053zm-2.708.297z"/>
  <path fill="#b28966" d="M18.753 7.554l-.407.269a.587.587 0 00-.233.674l.025.076a1.761 1.761 0 01-.002 1.116l-.025.075a.587.587 0 00.23.676l.406.27c.42.714 2.188 1.01 3.642.902 2.004-.15 4.78-1.185 4.782-2.464s-2.77-2.325-4.773-2.482c-1.454-.113-3.223.176-3.645.888z"/>
  <path fill="#2c2b2d" d="M21.821 12.13c-1.167 0-2.822-.218-3.435-1.06l-.322-.215a1.092 1.092 0 01-.428-1.249 1.33 1.33 0 00.027-.875 1.115 1.115 0 01.41-1.326l.32-.213c.734-.999 2.942-1.11 4.044-1.024 1.828.143 5.238 1.165 5.234 2.981-.003 1.818-3.418 2.826-5.245 2.961-.177.013-.382.02-.605.02zm-.058-4.988a3.743 3.743 0 00-2.58.667.506.506 0 01-.154.162l-.406.27a.085.085 0 00-.035.098 2.335 2.335 0 01.021 1.51c-.037.111-.022.153.01.174l.405.271a.503.503 0 01.155.163c.237.403 1.646.773 3.173.655 2.057-.152 4.318-1.18 4.319-1.965.002-.784-2.255-1.82-4.312-1.983a7.739 7.739 0 00-.596-.022zm-3.01.412z"/>
  <path fill="#b28966" d="M12.116 7.004l-.406.268a.587.587 0 00-.233.675l.025.076a1.761 1.761 0 01-.002 1.115l-.026.076a.587.587 0 00.231.675l.405.27c.42.715 2.188 1.01 3.642.902 2.005-.149 4.78-1.184 4.783-2.463s-2.77-2.325-4.773-2.482c-1.454-.114-3.223.175-3.646.888z"/>
  <path fill="#2c2b2d" d="M15.19 11.581c-1.167 0-2.826-.219-3.44-1.061l-.322-.214A1.09 1.09 0 0111 9.055a1.339 1.339 0 00.027-.875 1.116 1.116 0 01.407-1.325l.323-.212c.735-1.002 2.943-1.11 4.044-1.025 1.827.142 5.237 1.163 5.233 2.98-.003 1.817-3.417 2.826-5.244 2.963a8.39 8.39 0 01-.6.02zm-.068-4.99a3.732 3.732 0 00-2.576.668.5.5 0 01-.154.162l-.406.268a.088.088 0 00-.035.101 2.34 2.34 0 01.023 1.508c-.038.112-.024.154.009.176l.404.27a.503.503 0 01.154.162c.238.404 1.643.775 3.175.657 2.056-.154 4.317-1.182 4.318-1.966.002-.784-2.255-1.822-4.311-1.983a7.822 7.822 0 00-.6-.023zm-3.006.413z"/>
  <path fill="#b28966" d="M22.822 10.715l-.416.252a.587.587 0 00-.26.665l.021.076a1.761 1.761 0 01-.047 1.115l-.028.074a.587.587 0 00.203.684l.394.287c.39.73 2.146 1.097 3.603 1.048 2.008-.069 4.824-.991 4.878-2.269s-2.674-2.435-4.67-2.672c-1.447-.172-3.227.045-3.678.74z"/>
  <path fill="#2c2b2d" d="M26.063 15.42c-1.157 0-3.107-.248-3.749-1.206l-.313-.229a1.088 1.088 0 01-.376-1.266 1.327 1.327 0 00.062-.873 1.12 1.12 0 01.459-1.307l.332-.2c.776-.969 2.99-.992 4.082-.86 1.819.215 5.186 1.374 5.11 3.19-.078 1.814-3.53 2.685-5.361 2.747a9.53 9.53 0 01-.246.004zm-.528-5.002a3.378 3.378 0 00-2.294.57.496.496 0 01-.16.155l-.417.252a.089.089 0 00-.038.1A2.32 2.32 0 0122.588 13c-.043.111-.03.152 0 .176l.395.287a.492.492 0 01.148.169c.22.412 1.596.833 3.144.783 2.062-.07 4.362-1.007 4.395-1.791.033-.783-2.18-1.91-4.228-2.154a7.859 7.859 0 00-.907-.053zm-2.713.297z"/>
  <path fill="#b28966" d="M16.18 10.715l-.416.252a.587.587 0 00-.26.665l.022.076a1.761 1.761 0 01-.048 1.115l-.028.074a.587.587 0 00.203.684l.394.287c.39.73 2.146 1.097 3.603 1.048 2.009-.069 4.824-.991 4.878-2.269s-2.673-2.435-4.67-2.672c-1.447-.172-3.227.045-3.677.74z"/>
  <path fill="#2c2b2d" d="M19.422 15.42c-1.157 0-3.109-.248-3.75-1.206l-.313-.229a1.088 1.088 0 01-.376-1.266 1.319 1.319 0 00.062-.872 1.119 1.119 0 01.459-1.308l.332-.2c.775-.969 2.988-.992 4.081-.86 1.82.215 5.187 1.374 5.111 3.189-.078 1.815-3.53 2.686-5.361 2.748a9.302 9.302 0 01-.245.004zm-.53-5.002a3.366 3.366 0 00-2.292.57.498.498 0 01-.16.155l-.418.252a.09.09 0 00-.038.1A2.307 2.307 0 0115.946 13c-.043.111-.03.152 0 .175l.396.288a.507.507 0 01.146.169c.22.412 1.594.833 3.146.783 2.061-.07 4.361-1.007 4.394-1.791.034-.783-2.18-1.91-4.228-2.154a7.859 7.859 0 00-.907-.053zm-2.711.297z"/>
  <path fill="#b28966" d="M2.18 9.715l-.416.252a.587.587 0 00-.26.665l.022.076a1.761 1.761 0 01-.048 1.115l-.028.074a.587.587 0 00.203.684l.394.287c.39.73 2.146 1.097 3.603 1.048 2.009-.069 4.824-.991 4.878-2.27s-2.673-2.434-4.67-2.671c-1.447-.172-3.227.045-3.677.74z"/>
  <path fill="#2c2b2d" d="M5.422 14.42c-1.157 0-3.109-.248-3.75-1.206l-.313-.229a1.088 1.088 0 01-.376-1.266 1.319 1.319 0 00.062-.872 1.119 1.119 0 01.459-1.308l.332-.2c.775-.969 2.987-.993 4.082-.86 1.82.215 5.186 1.374 5.11 3.189s-3.53 2.686-5.361 2.748a9.285 9.285 0 01-.245.004zm-.53-5.002a3.366 3.366 0 00-2.292.57.498.498 0 01-.16.155l-.418.252a.09.09 0 00-.038.1A2.307 2.307 0 011.946 12c-.043.111-.03.152 0 .175l.396.288a.507.507 0 01.146.169c.221.412 1.618.84 3.145.783 2.062-.07 4.362-1.007 4.395-1.791.033-.783-2.18-1.91-4.228-2.154a7.852 7.852 0 00-.907-.053zm-2.711.297z"/>
  <path fill="#b28966" d="M17.532 10.474l-.416.252a.587.587 0 00-.26.665l.021.076a1.761 1.761 0 01-.047 1.115l-.028.074a.587.587 0 00.203.684l.394.287c.39.73 2.145 1.097 3.603 1.048 2.008-.069 4.823-.991 4.877-2.27s-2.673-2.434-4.669-2.671c-1.447-.173-3.227.045-3.678.74z"/>
  <path fill="#2c2b2d" d="M20.773 15.179c-1.156 0-3.107-.248-3.749-1.206l-.313-.228a1.09 1.09 0 01-.377-1.267 1.337 1.337 0 00.063-.873 1.117 1.117 0 01.458-1.307l.332-.2c.777-.969 2.99-.992 4.082-.86 1.82.215 5.187 1.373 5.11 3.189-.077 1.815-3.53 2.685-5.36 2.748a9.423 9.423 0 01-.246.004zm-.528-5.002a3.378 3.378 0 00-2.294.569.496.496 0 01-.16.155l-.417.252a.088.088 0 00-.038.1 2.341 2.341 0 01-.04 1.508c-.041.11-.028.152.004.176l.393.286a.502.502 0 01.148.169c.22.41 1.596.836 3.144.783 2.062-.07 4.362-1.007 4.395-1.79s-2.18-1.911-4.228-2.155a7.859 7.859 0 00-.907-.053zm-2.713.297z"/>
  <path fill="#b28966" d="M12.21 10.036l-.416.252a.587.587 0 00-.26.664l.021.077a1.761 1.761 0 01-.047 1.115l-.028.074a.587.587 0 00.203.684l.394.287c.39.73 2.146 1.097 3.603 1.048 2.009-.069 4.824-.991 4.878-2.27s-2.673-2.434-4.67-2.671c-1.447-.173-3.227.045-3.677.74z"/>
  <path fill="#2c2b2d" d="M15.447 14.74c-1.157 0-3.104-.247-3.745-1.206l-.313-.227a1.09 1.09 0 01-.376-1.268 1.332 1.332 0 00.062-.871 1.115 1.115 0 01.461-1.309l.33-.199c.775-.97 2.988-.993 4.082-.86 1.82.216 5.187 1.374 5.11 3.19-.078 1.814-3.53 2.684-5.36 2.746a9.863 9.863 0 01-.25.004zm-.527-5.002a3.36 3.36 0 00-2.29.57.498.498 0 01-.16.156l-.417.252a.086.086 0 00-.039.097 2.34 2.34 0 01-.038 1.51c-.043.11-.03.152.002.175l.393.286a.49.49 0 01.147.17c.22.412 1.611.838 3.145.782 2.062-.07 4.362-1.006 4.395-1.789.034-.784-2.18-1.91-4.228-2.155a7.691 7.691 0 00-.91-.054zm-2.71.298z"/>
  <path fill="#b28966" d="M7.47 10.474l-.416.252a.587.587 0 00-.26.665l.022.076a1.761 1.761 0 01-.047 1.115l-.029.074a.587.587 0 00.203.684l.394.287c.391.73 2.146 1.097 3.603 1.048 2.009-.069 4.824-.991 4.878-2.27s-2.673-2.434-4.669-2.671c-1.448-.173-3.227.045-3.678.74z"/>
  <path fill="#2c2b2d" d="M10.712 15.179c-1.157 0-3.108-.248-3.75-1.206l-.313-.228a1.09 1.09 0 01-.376-1.267 1.337 1.337 0 00.063-.873 1.116 1.116 0 01.459-1.307l.332-.2c.774-.969 2.985-.994 4.081-.86 1.82.215 5.187 1.373 5.11 3.19-.077 1.814-3.53 2.684-5.36 2.747a9.707 9.707 0 01-.246.004zm-.53-5.002a3.366 3.366 0 00-2.292.569.498.498 0 01-.16.155l-.417.252a.089.089 0 00-.04.1 2.335 2.335 0 01-.037 1.508c-.043.11-.03.152.002.176l.393.286a.49.49 0 01.147.169c.22.412 1.613.842 3.145.783 2.062-.07 4.362-1.007 4.395-1.79s-2.18-1.911-4.228-2.155a7.852 7.852 0 00-.907-.053zm-2.711.297z"/>
  <path fill="#f7991d" d="M10.5 25.908h11l-.382-.382a2.558 2.558 0 01-.618-2.618h-9a2.558 2.558 0 01-.618 2.618z"/>
  <path fill="#2c2b2d" d="M21.5 26.408h-11a.5.5 0 01-.353-.853l.382-.382a2.048 2.048 0 00.497-2.107.5.5 0 01.474-.658h9a.501.501 0 01.475.658 2.046 2.046 0 00.497 2.107l.382.382a.5.5 0 01-.354.853zm-9.877-1h8.754a3.035 3.035 0 01-.494-2h-7.766a3.035 3.035 0 01-.494 2z"/>
  <path fill="#f7991d" d="M11.817 22.865l.183.043h8l.183-.043A16 16 0 0031.5 12.908H.5a16 16 0 0011.317 9.957z"/>
  <path fill="#2c2b2d" d="M20 23.408h-8a.5.5 0 01-.114-.013l-.183-.043A16.47 16.47 0 01.032 13.084a.5.5 0 01.468-.676h31a.5.5 0 01.468.676 16.469 16.469 0 01-11.67 10.268l-.184.044a.569.569 0 01-.114.012zm-7.942-1l8.011-.03a15.47 15.47 0 0010.692-8.97H1.24a15.473 15.473 0 0010.691 8.97z"/>
  <path fill="#2c2b2d" d="M29.999 16.408H2.001a.5.5 0 010-1h27.998a.5.5 0 010 1z"/>
</svg>
