<svg viewBox="0 0 24 24" xmlns="http://www.w3.org/2000/svg" focusable="false">
  <path d="M11.385 2.1a1.931 1.931 0 011.23 0l6.643 2.267A1.812 1.812 0 0120.5 6.071v6.641a8.236 8.236 0 01-2.105 5.483c-.623.697-1.42 1.296-2.438 1.832l-3.59 1.885a.787.787 0 01-.72 0l-3.598-1.886c-1.02-.537-1.819-1.136-2.44-1.83A8.243 8.243 0 013.5 12.708c0-.406.34-.736.757-.736.418 0 .758.33.758.736 0 1.662.617 3.268 1.738 4.524.499.56 1.159 1.05 2.016 1.5l3.237 1.696 3.23-1.696c.856-.449 1.514-.939 2.015-1.5a6.79 6.79 0 001.735-4.52v-6.64a.335.335 0 00-.23-.316L12.115 3.49a.357.357 0 00-.228 0L5.244 5.756a.334.334 0 00-.23.315v1.9a.747.747 0 01-.757.737.748.748 0 01-.757-.737v-1.9c0-.766.5-1.45 1.243-1.704zm-1.83 7.337a.773.773 0 011.07 0l1.361 1.324 1.362-1.324a.773.773 0 011.07 0 .721.721 0 010 1.04l-1.361 1.324 1.361 1.322a.721.721 0 010 1.04.766.766 0 01-.535.216.762.762 0 01-.535-.216l-1.362-1.322-1.361 1.322a.766.766 0 01-.535.216.766.766 0 01-.535-.216.721.721 0 010-1.04l1.361-1.322-1.361-1.324a.721.721 0 010-1.04z"/>
</svg>
