<svg data-name="Layer 1" xmlns="http://www.w3.org/2000/svg" viewBox="0 0 24 24" focusable="false">
  <path fill="none" d="M0 0h24v24H0z"/>
  <path d="M13.837 15.66c-.132 0-.264-.005-.397-.015a5.519 5.519 0 01-2.236-.657 5.444 5.444 0 01-1.762-1.53.91.91 0 011.458-1.087 3.639 3.639 0 001.175 1.021 3.662 3.662 0 004.347-.625l2.743-2.745a3.667 3.667 0 00-2.614-6.204 3.764 3.764 0 00-2.577 1.03l-1.562 1.555a.909.909 0 11-1.282-1.289l1.572-1.565A5.561 5.561 0 0116.567 2a5.486 5.486 0 013.895 9.295l-2.754 2.757a5.478 5.478 0 01-3.871 1.608z"/>
  <path d="M7.482 22h-.05a5.486 5.486 0 01-3.895-9.295l2.755-2.757a5.475 5.475 0 016.503-.936 5.525 5.525 0 011.763 1.529.91.91 0 01-1.458 1.088 3.68 3.68 0 00-1.176-1.021 3.633 3.633 0 00-1.495-.44 3.693 3.693 0 00-1.54.222 3.638 3.638 0 00-1.31.843l-2.744 2.746a3.667 3.667 0 002.613 6.203 3.795 3.795 0 002.576-1.029l1.553-1.554a.909.909 0 111.285 1.285l-1.563 1.565A5.45 5.45 0 017.482 22z"/>
</svg>
