<svg data-name="Layer 1" xmlns="http://www.w3.org/2000/svg" viewBox="0 0 24 24" focusable="false">
  <path d="M22 11.41v1.17a3.004 3.004 0 01-2.5 2.96l-1.42.24a2.805 2.805 0 00-2.3 2.29l-.24 1.43a2.997 2.997 0 01-2.96 2.5h-1.16a3.013 3.013 0 01-2.96-2.5l-.24-1.43a2.805 2.805 0 00-2.3-2.29l-1.42-.24A3.013 3.013 0 012 12.58v-1.17a2.995 2.995 0 012.5-2.95l1.42-.25a2.805 2.805 0 002.3-2.29l.24-1.43A3.004 3.004 0 0111.42 2h1.16a2.989 2.989 0 012.96 2.49l.24 1.43a2.805 2.805 0 002.3 2.29l1.42.25a2.986 2.986 0 012.5 2.95z" fill="#ffb531"/>
  <circle cx="12" cy="12" r="1.75" fill="#030835"/>
</svg>
