<svg xmlns="http://www.w3.org/2000/svg" viewBox="0 0 48 48">
  <ellipse cx="21.4" cy="45.1" rx="13" ry="1.5" fill="#45413c" opacity=".15"/>
  <path d="M28.5 38.3H7c-1.7 0-3-1.3-3-3v-16c0-1.7 1.3-3 3-3h21.5c1.7 0 3 1.3 3 3v16c0 1.6-1.4 3-3 3z" fill="#ffe500"/>
  <path d="M28.5 16.3H7c-1.7 0-3 1.3-3 3v4c0-1.7 1.3-3 3-3h21.5c1.7 0 3 1.3 3 3v-4c0-1.7-1.4-3-3-3z" fill="#fff48c"/>
  <path class="st10" d="M28.5 38.3H7c-1.7 0-3-1.3-3-3v-16c0-1.7 1.3-3 3-3h21.5c1.7 0 3 1.3 3 3v16c0 1.6-1.4 3-3 3z" fill="none" stroke="#45413C" stroke-linecap="round" stroke-linejoin="round" stroke-miterlimit="10"/>
  <path d="M17.7 1.3C11.8 1.3 7 6.1 7 12v4.2h4.5V12c0-3.5 2.8-6.2 6.3-6.2S24 8.6 24 12v4.2h4.5V12c0-5.9-4.8-10.7-10.8-10.7z" fill="#daedf7"/>
  <path d="M17.7 1.3C11.8 1.3 7 6.1 7 12v2.5C7 8.6 11.8 3.8 17.7 3.8s10.8 4.8 10.8 10.8V12c0-5.9-4.8-10.7-10.8-10.7z" fill="#fff"/>
  <path class="st10" d="M17.7 1.3C11.8 1.3 7 6.1 7 12v4.2h4.5V12c0-3.5 2.8-6.2 6.3-6.2S24 8.6 24 12v4.2h4.5V12c0-5.9-4.8-10.7-10.8-10.7z" fill="none" stroke="#45413C" stroke-linecap="round" stroke-linejoin="round" stroke-miterlimit="10"/>
  <path d="M41.8 23.9c-2.9-2.9-7.7-2.9-10.6 0-2.3 2.3-2.8 5.7-1.5 8.5L20.2 42c-.2.2-.3.5-.3.8l.2 1.9c.1.5.4.8.9.9l1.9.2c.3 0 .6-.1.8-.3l1.1-1.1c.2-.2.3-.4.3-.7v-1h1c.3 0 .5-.1.7-.3l.9-.9c.2-.2.3-.4.3-.7v-.6c0-.3.1-.5.3-.7l1.2-1.2c.2-.2.4-.3.7-.3h.6c.3 0 .5-.1.7-.3l1.7-1.7c2.8 1.3 6.2.8 8.5-1.5 3-2.9 3-7.7.1-10.6zm-3.5 3.5c-.6-.6-.6-1.5 0-2.1.6-.6 1.5-.6 2.1 0 .6.6.6 1.5 0 2.1-.6.6-1.5.6-2.1 0z" fill="#ffaa54"/>
  <path class="st50" d="M31.2 27.1c2-2 4.8-2.6 7.3-1.9.6-.4 1.4-.4 1.9.2.3.3.4.6.4.9.4.2.7.5 1 .8 1.1 1.1 1.7 2.4 2 3.7.5-2.4-.2-5-2-6.9-2.9-2.9-7.7-2.9-10.6 0-1.9 1.9-2.5 4.5-2 6.9.3-1.4 1-2.7 2-3.7zm-10.9 18l9.5-9.5c-.4-.8-.6-1.6-.7-2.5L20.2 42c-.2.2-.3.5-.3.8l.2 1.9c.1.1.1.2.2.4z" fill="#FC9"/>
  <path class="st10" d="M41.8 23.9c-2.9-2.9-7.7-2.9-10.6 0-2.3 2.3-2.8 5.7-1.5 8.5L20.2 42c-.2.2-.3.5-.3.8l.2 1.9c.1.5.4.8.9.9l1.9.2c.3 0 .6-.1.8-.3l1.1-1.1c.2-.2.3-.4.3-.7v-1h1c.3 0 .5-.1.7-.3l.9-.9c.2-.2.3-.4.3-.7v-.6c0-.3.1-.5.3-.7l1.2-1.2c.2-.2.4-.3.7-.3h.6c.3 0 .5-.1.7-.3l1.7-1.7c2.8 1.3 6.2.8 8.5-1.5 3-2.9 3-7.7.1-10.6zm-3.5 3.5c-.6-.6-.6-1.5 0-2.1.6-.6 1.5-.6 2.1 0 .6.6.6 1.5 0 2.1-.6.6-1.5.6-2.1 0zm-18 17.4l9.1-9.2" fill="none" stroke="#45413C" stroke-linecap="round" stroke-linejoin="round" stroke-miterlimit="10"/>
</svg>
