<svg data-name="Layer 1" xmlns="http://www.w3.org/2000/svg" viewBox="0 0 24 24" focusable="false">
  <path fill="none" d="M0 0h24v24H0z"/>
  <path d="M14.726 3.73a1.494 1.494 0 01-1.49 1.49h-2.48a1.485 1.485 0 110-2.97h2.48a1.492 1.492 0 011.49 1.48z"/>
  <path d="M15.72 3.821a2.497 2.497 0 01-2.48 2.4h-2.48a2.49 2.49 0 01-2.48-2.4A4.98 4.98 0 004 8.751v8a5.002 5.002 0 005 5h6a5.002 5.002 0 005-5v-8a4.99 4.99 0 00-4.28-4.93zm-1.341 13.43h-4.77a.75.75 0 010-1.5h4.77a.75.75 0 010 1.5zm1.62-3.52h-8a.75.75 0 110-1.5h8a.75.75 0 010 1.5z"/>
</svg>
