<svg viewBox="0 0 24 24" xmlns="http://www.w3.org/2000/svg" focusable="false">
  <path d="M17.856 3c2.284 0 4.143 1.841 4.143 4.105L22 9.782a.75.75 0 01-.75.743c-.821 0-1.489.662-1.489 1.476 0 .813.668 1.475 1.489 1.475.414 0 .75.333.75.744v2.675C22 19.159 20.142 21 17.858 21h-5.463a.747.747 0 01-.75-.743c0-.41.336-.743.75-.743h5.463c1.457 0 2.642-1.175 2.642-2.62V14.87A2.972 2.972 0 0118.261 12 2.97 2.97 0 0120.5 9.133l-.001-2.028c0-1.444-1.186-2.619-2.643-2.619H6.144c-1.457 0-2.642 1.175-2.642 2.62l-.001 2.107c1.301.313 2.238 1.426 2.238 2.788A2.97 2.97 0 013.5 14.869v2.026c0 1.444 1.186 2.619 2.643 2.619h1.79c.414 0 .75.333.75.743s-.336.743-.75.743h-1.79C3.858 21 2 19.159 2 16.895V14.22c0-.41.336-.744.75-.744.821 0 1.489-.662 1.489-1.475 0-.793-.64-1.39-1.489-1.39A.75.75 0 012 9.87l.002-2.764C2.002 4.841 3.86 3 6.144 3h11.712zm-5.823 5c.373 0 .706.212.871.554l.787 1.547c.19.374.05.837-.313 1.031a.718.718 0 01-.562.054.744.744 0 01-.437-.374l-.331-.649-.448.935a.741.741 0 01-.558.417l-.968.145.7.705a.773.773 0 01.214.675l-.165.994.868-.469a.722.722 0 01.689 0l.868.47-.166-.995a.778.778 0 01.213-.676l1.446-1.45a.69.69 0 01.524-.218.725.725 0 01.524.231.77.77 0 01.211.543.766.766 0 01-.224.536l-1.167 1.172.275 1.654c.063.377-.085.752-.386.975a.943.943 0 01-1.021.075l-1.443-.778-1.442.78a.933.933 0 01-1.02-.077 1.005 1.005 0 01-.387-.975l.277-1.654-1.168-1.172a1.013 1.013 0 01-.246-1.024.972.972 0 01.784-.678l1.612-.242.722-1.506A.96.96 0 0112.033 8z"/>
</svg>
