<svg viewBox="0 0 24 24" xmlns="http://www.w3.org/2000/svg" focusable="false">
  <path d="M15.747 2C19.607 2 22 4.393 22 8.256v7.5C22 19.608 19.608 22 15.747 22H8.244C4.392 22 2 19.608 2 15.753a.766.766 0 011.53 0c0 3.034 1.67 4.714 4.723 4.714h7.493c3.043 0 4.723-1.671 4.723-4.714v-7.5c0-3.043-1.67-4.723-4.723-4.723H8.253C5.21 3.53 3.53 5.21 3.53 8.253v2.33a.755.755 0 01-.756.757h-.011A.763.763 0 012 10.575V8.253C2 4.393 4.41 2 8.254 2zM7.52 10.804c.66 0 1.198.537 1.198 1.196a1.199 1.199 0 01-2.396 0c0-.66.538-1.196 1.198-1.196zm4.479 0c.661 0 1.198.537 1.198 1.196a1.199 1.199 0 01-2.396 0c0-.66.538-1.196 1.198-1.196zm4.479 0c.661 0 1.198.537 1.198 1.196a1.199 1.199 0 01-2.396 0c0-.66.538-1.196 1.198-1.196z"/>
</svg>
