<svg viewBox="0 0 24 24" xmlns="http://www.w3.org/2000/svg" focusable="false">
  <path d="M7.999 15.852c.442 0 .8.345.8.77v.941c0 1.597 1.352 2.897 3.01 2.897h5.068c1.666 0 3.022-1.304 3.022-2.907 0-.425.358-.77.8-.77.442 0 .8.345.8.77 0 2.452-2.073 4.447-4.622 4.447H11.81c-2.543 0-4.612-1.99-4.612-4.437v-.94c0-.426.36-.77.8-.77zm7.222-4.623c.31 0 .59.188.709.477a.775.775 0 01-.167.84l-2.908 2.908a.764.764 0 01-1.084-.002.773.773 0 01.002-1.089l1.592-1.593H3.266A.768.768 0 012.5 12a.77.77 0 01.766-.77zM16.888 2C19.43 2 21.5 3.99 21.5 6.437v7.614c0 .425-.36.769-.8.769-.443 0-.802-.344-.802-.77V6.438c0-1.597-1.35-2.897-3.01-2.897H11.82c-1.667 0-3.022 1.304-3.022 2.907v.93c0 .426-.358.77-.8.77-.442 0-.801-.344-.801-.77v-.93C7.198 3.995 9.272 2 11.82 2zm-5.119 6.55a.763.763 0 011.084-.006l.733.728a.771.771 0 01-.54 1.317.764.764 0 01-.539-.223l-.732-.727a.773.773 0 01-.006-1.09z"/>
</svg>
