<svg viewBox="0 0 24 24" xmlns="http://www.w3.org/2000/svg" focusable="false">
  <path d="M12 2c5.514 0 10 4.486 10 10s-4.486 10-10 10S2 17.514 2 12 6.486 2 12 2zm0 1.5c-4.687 0-8.5 3.813-8.5 8.5 0 4.687 3.813 8.5 8.5 8.5 4.687 0 8.5-3.813 8.5-8.5 0-4.687-3.813-8.5-8.5-8.5zm3.948 7.514a1 1 0 110 2 1.003 1.003 0 01-1.005-1c0-.553.443-1 .995-1h.01zm-4.01 0a1 1 0 110 2 1.003 1.003 0 01-1.004-1c0-.553.443-1 .996-1h.008zm-4.008 0a1 1 0 110 2 1.003 1.003 0 01-1.005-1c0-.553.443-1 .996-1h.009z" fill-rule="evenodd"/>
</svg>
