<svg xmlns="http://www.w3.org/2000/svg" viewBox="0 0 32 32" focusable="false">
  <circle cx="16" cy="16" r="15.5" fill="#516d97"/>
  <circle cx="16" cy="16" r="13.5" fill="#fff"/>
  <path fill="#40455a" d="M16 32C7.2 32 0 24.8 0 16S7.2 0 16 0s16 7.2 16 16-7.2 16-16 16zm0-31C7.7 1 1 7.7 1 16s6.7 15 15 15 15-6.7 15-15S24.3 1 16 1z"/>
  <path fill="#40455a" d="M16 30C8.3 30 2 23.7 2 16S8.3 2 16 2s14 6.3 14 14-6.3 14-14 14zm0-27C8.8 3 3 8.8 3 16s5.8 13 13 13 13-5.8 13-13S23.2 3 16 3z"/>
  <path fill="#40455a" d="M16 5c-.3 0-.5-.2-.5-.5v-2c0-.3.2-.5.5-.5s.5.2.5.5v2c0 .3-.2.5-.5.5zm0 25c-.3 0-.5-.2-.5-.5v-2c0-.3.2-.5.5-.5s.5.2.5.5v2c0 .3-.2.5-.5.5zm13.5-13.5h-2c-.3 0-.5-.2-.5-.5s.2-.5.5-.5h2c.3 0 .5.2.5.5s-.2.5-.5.5zm-25 0h-2c-.3 0-.5-.2-.5-.5s.2-.5.5-.5h2c.3 0 .5.2.5.5s-.2.5-.5.5zm20.3-8.8c-.1 0-.3 0-.4-.1-.2-.2-.2-.5 0-.7l.7-.7c.2-.2.5-.2.7 0s.2.5 0 .7l-.7.7s-.1.1-.3.1zM6.5 26c-.1 0-.3 0-.4-.1-.2-.2-.2-.5 0-.7l.7-.7c.2-.2.5-.2.7 0s.2.5 0 .7l-.7.7c-.1.1-.2.1-.3.1zm19 0c-.1 0-.3 0-.4-.1l-.7-.7c-.2-.2-.2-.5 0-.7s.5-.2.7 0l.7.7c.2.2.2.5 0 .7 0 .1-.1.1-.3.1zM7.2 7.7c-.1 0-.3 0-.4-.1l-.7-.8c-.2-.2-.2-.5 0-.7s.5-.2.7 0l.7.7c.2.2.2.5 0 .7-.1.1-.2.2-.3.2zm20.3 4c-.2 0-.4-.1-.5-.3-.1-.3 0-.5.3-.7l.9-.4c.3-.1.5 0 .7.3.1.3 0 .5-.3.7l-.9.4h-.2zm-24 10c-.2 0-.4-.1-.5-.3-.1-.3 0-.5.3-.7l.9-.4c.3-.1.5 0 .7.3.1.3 0 .5-.3.7l-.9.4h-.2zM21.2 29c-.2 0-.4-.1-.5-.3l-.4-.9c-.1-.3 0-.5.3-.7.3-.1.5 0 .7.3l.4.9c.1.3 0 .5-.3.7h-.2zm-10-24c-.2 0-.4-.1-.5-.3l-.4-.9c-.1-.3 0-.5.3-.7.3-.1.5 0 .7.3l.4.9c.1.3 0 .5-.3.7-.1-.1-.1 0-.2 0zm-6.7 6.7h-.2l-.9-.4c-.3-.1-.4-.4-.3-.7.1-.3.4-.4.7-.3l.9.4c.3.1.4.4.3.7-.2.2-.3.3-.5.3zm24 10h-.2l-.9-.4c-.3-.1-.4-.4-.3-.7.1-.3.4-.4.7-.3l.9.4c.3.1.4.4.3.7-.1.2-.3.3-.5.3zM10.8 29h-.2c-.3-.1-.4-.4-.3-.7l.4-.9c.1-.3.4-.4.7-.3.3.1.4.4.3.7l-.4.9c-.1.2-.3.3-.5.3zm10-24h-.2c-.3-.1-.4-.4-.3-.7l.4-.9c.1-.3.4-.4.7-.3.3.1.4.4.3.7l-.4.9c-.1.1-.3.3-.5.3zm-3.1 16.3c-.1 0-.2 0-.2-.1-.2-.1-.3-.4-.2-.7l4.5-8c.1-.2.4-.3.7-.2.2.1.3.4.2.7l-4.5 8c-.1.2-.3.3-.5.3zm4.8-.5h-.2c-.3-.1-.4-.4-.3-.6l1.2-3.3H22c-.3 0-.5-.2-.5-.5s.2-.5.5-.5h2c.2 0 .3.1.4.2.1.1.1.3.1.5l-1.5 4c-.1 0-.3.2-.5.2zm-4.5-4h-4c-.1 0-.3-.1-.4-.2s-.1-.3-.1-.4l1-5c.1-.3.3-.4.6-.4.3.1.4.3.4.6l-.9 4.4H18c.3 0 .5.2.5.5s-.2.5-.5.5z"/>
  <path fill="#40455a" d="M17 17.8c-.3 0-.5-.2-.5-.5v-4c0-.3.2-.5.5-.5s.5.2.5.5v4c0 .2-.2.5-.5.5zm-5 0H8c-.2 0-.4-.1-.5-.3s0-.4.2-.6l3.4-2.6c.2-.2.4-.6.4-1 0-.8-.7-1.5-1.5-1.5s-1.5.7-1.5 1.5c0 .3-.2.5-.5.5s-.5-.2-.5-.5c0-1.4 1.1-2.5 2.5-2.5s2.5 1.1 2.5 2.5c0 .7-.3 1.3-.7 1.8l-2.3 1.7H12c.3 0 .5.2.5.5s-.2.5-.5.5z"/>
</svg>
