<svg viewBox="0 0 24 24" xmlns="http://www.w3.org/2000/svg" focusable="false">
  <g fill="none" fill-rule="evenodd">
    <path d="M0 0h24v24H0z"/>
    <path d="M13 8.222l1.93-1.93a1 1 0 111.413 1.415l-3.636 3.636a1 1 0 01-1.414 0L7.657 7.707A1 1 0 019.07 6.293L11 8.223V4a1 1 0 012 0v4.222zM17 18a1 1 0 01-2 0 3 3 0 00-6 0 1 1 0 01-2 0 5 5 0 0110 0zM5.293 12.707a1 1 0 011.414-1.414l1 1a1 1 0 01-1.414 1.414l-1-1zM4 18a1 1 0 010-2h1a1 1 0 010 2H4zm15 0a1 1 0 010-2h1a1 1 0 010 2h-1zm-1.293-4.293a1 1 0 01-1.414-1.414l1-1a1 1 0 011.414 1.414l-1 1zM20 20a1 1 0 010 2H4a1 1 0 010-2h16z" fill="currentColor" fill-rule="nonzero"/>
  </g>
</svg>
