<svg viewBox="0 0 24 24" xmlns="http://www.w3.org/2000/svg" focusable="false">
  <path d="M21.273 14.735a.75.75 0 01.69.805l-.19 2.51a4.008 4.008 0 01-3.978 3.69h-11.6a4.008 4.008 0 01-3.98-3.69l-.19-2.51a.751.751 0 01.693-.805c.415-.015.773.278.805.692l.189 2.508a2.503 2.503 0 002.483 2.305h11.6a2.502 2.502 0 002.483-2.305l.19-2.508c.032-.414.399-.708.805-.692zM13.285 2a2.965 2.965 0 012.936 2.58h1.97a3.81 3.81 0 013.8 3.811v3.439a.75.75 0 01-.372.647c-2.468 1.445-5.595 2.289-8.874 2.401v1.799a.75.75 0 01-1.5 0v-1.799c-3.277-.111-6.404-.954-8.874-2.401a.748.748 0 01-.37-.647V8.381A3.81 3.81 0 015.81 4.58h1.96A2.965 2.965 0 0110.705 2h2.58zm4.905 4.08H5.81A2.308 2.308 0 003.5 8.381v3.012c2.374 1.29 5.366 1.997 8.481 1.998l.014-.001h.011l.476-.005c2.946-.07 5.756-.769 8.008-1.992V8.391a2.307 2.307 0 00-2.3-2.311zM13.285 3.5h-2.58c-.673 0-1.242.458-1.41 1.08h5.4a1.463 1.463 0 00-1.41-1.08z" fill-rule="evenodd"/>
</svg>
