<svg xmlns="http://www.w3.org/2000/svg" viewBox="0 0 24 24">
  <g fill="#200E32">
    <path d="M10.422 20.26h-4a2.365 2.365 0 01-2.357-2.347V9.957a1.47 1.47 0 01.53-1.122l.705-.522a.783.783 0 00-.904-1.243l-.722.539A3.026 3.026 0 002.5 9.957v7.965a3.93 3.93 0 003.922 3.921h4a.783.783 0 000-1.565v-.017z"/>
    <path d="M21.291 9.94a3.052 3.052 0 00-1.139-2.349L14.143 2.8a3.609 3.609 0 00-4.521 0L7.717 4.183a.798.798 0 00.93 1.295l1.931-1.443a2.052 2.052 0 012.609 0l6.009 4.791c.345.274.55.69.556 1.13v7.966a2.348 2.348 0 01-2.348 2.348h-1.782a.33.33 0 01-.33-.33v-3.592a2.078 2.078 0 00-2.07-2.078h-2.609a2.078 2.078 0 00-2.078 2.078v1.374a.783.783 0 101.565 0v-1.374a.504.504 0 01.504-.513h2.609c.279 0 .504.226.504.504v3.6a1.904 1.904 0 001.905 1.896h1.739a3.922 3.922 0 003.922-3.922l.008-7.974z"/>
  </g>
</svg>
