<svg viewBox="0 0 24 24" xmlns="http://www.w3.org/2000/svg" focusable="false">
  <path d="M13.178 22a.757.757 0 01-.756-.756v-.009h.017c0-.422.342-.764.764-.765h2.544c3.053 0 4.723-1.67 4.723-4.714v-7.5c0-3.046-1.68-4.726-4.723-4.726h-7.5c-3.034 0-4.714 1.68-4.714 4.723v7.5c0 3.043 1.68 4.714 4.714 4.714a.766.766 0 010 1.53C4.392 22 2 19.608 2 15.756V8.253C2 4.392 4.392 2 8.244 2h7.5C19.607 2 22 4.392 22 8.253v7.5C22 19.59 19.607 22 15.747 22zM12 16.836a.75.75 0 01-.75-.75V7.914a.756.756 0 01.22-.531c.008-.008.017-.01.024-.017a.782.782 0 01.22-.144.754.754 0 01.25-.051c.014-.001.023-.007.036-.007a.743.743 0 01.53.22l3.749 3.765a.749.749 0 11-1.062 1.058L12.75 9.73v6.356a.75.75 0 01-.75.75zm-3.217-4.629a.749.749 0 11-1.062-1.059l1.278-1.284a.751.751 0 011.062 1.06z"/>
</svg>
