<svg xmlns="http://www.w3.org/2000/svg" viewBox="0 0 24 24" fill="currentColor" focusable="false">
  <path d="M22.197 12.237a.723.723 0 01.692.327.703.703 0 010 .757.723.723 0 01-.692.327H21.18v2.663a4.65 4.65 0 01-1.385 3.315A4.773 4.773 0 0116.439 21h-.778a.715.715 0 01-.72-.71c0-.393.323-.711.72-.711h.778c1.813-.02 3.273-1.478 3.272-3.268v-2.663h-2.696v1.061c0 .59-.238 1.157-.661 1.575a2.27 2.27 0 01-1.595.652H9.27c-1.245 0-2.255-.997-2.255-2.227v-1.06H4.356v2.662c0 1.805 1.482 3.268 3.31 3.268h.826c.398 0 .72.318.72.71a.715.715 0 01-.72.711h-.777c-2.632 0-4.773-2.092-4.799-4.69v-2.662H1.803a.723.723 0 01-.692-.327.703.703 0 010-.757.723.723 0 01.692-.327zM14.75 7.064a2.27 2.27 0 011.594.652c.423.418.661.984.661 1.575v1.222a.254.254 0 01-.076.19.261.261 0 01-.193.075H7.283a.261.261 0 01-.193-.075.254.254 0 01-.076-.19V9.29c0-1.23 1.01-2.227 2.256-2.227zM16.439 3c2.616.046 4.713 2.154 4.712 4.737V8.75c0 .392-.322.71-.72.71a.715.715 0 01-.72-.71V7.737a3.246 3.246 0 00-.939-2.329 3.332 3.332 0 00-2.333-.987h-.778a.715.715 0 01-.72-.71c0-.393.323-.711.72-.711zM8.444 3c.396.005.715.32.72.71a.725.725 0 01-.72.711h-.777c-.887 0-1.736.35-2.359.974a3.246 3.246 0 00-.952 2.342V8.75a.725.725 0 01-.72.71h-.01l-.096-.008a.714.714 0 01-.614-.702V7.737c0-2.598 2.12-4.711 4.75-4.737z"/>
</svg>
