<svg data-name="Layer 1" xmlns="http://www.w3.org/2000/svg" viewBox="0 0 24 24" focusable="false">
  <path d="M14.344 3.5H9.677a7.675 7.675 0 00-7.666 7.667V15.6a1.977 1.977 0 00-.022.222v2.673a2.004 2.004 0 004.009 0v-2.673a2.003 2.003 0 00-1.987-2.002v-2.654A5.673 5.673 0 019.677 5.5h4.667a5.673 5.673 0 015.667 5.667v2.652h-.004a2.004 2.004 0 00-2.005 2.004v2.673a2.004 2.004 0 004.01 0v-7.33A7.675 7.675 0 0014.343 3.5z" fill="#ffb531"/>
  <path d="M13.605 10.25h-3.358a.75.75 0 010-1.5h3.358a.75.75 0 010 1.5z" fill="#030835"/>
</svg>
