<svg xmlns="http://www.w3.org/2000/svg" viewBox="0 0 32 32" focusable="false">
  <path fill="#ffdaa7" d="M13.666 6.818l-1.517 2.907 3.236 1.191.98-1.981"/>
  <path fill="#2c2b2d" d="M15.385 11.416a.487.487 0 01-.173-.031l-3.236-1.192a.5.5 0 01-.27-.7l1.517-2.906a.5.5 0 01.886.463l-1.255 2.402 2.282.84.781-1.578a.5.5 0 11.896.443l-.98 1.98a.5.5 0 01-.448.279z"/>
  <path fill="#ffdaa7" d="M15.167 8.94l-.476-.253A3.224 3.224 0 0113.364 4.3l.964-1.773a3.283 3.283 0 014.427-1.316l.476.254a3.224 3.224 0 011.327 4.387l-.964 1.774a3.283 3.283 0 01-4.427 1.315z"/>
  <path fill="#2c2b2d" d="M16.71 9.827a3.775 3.775 0 01-1.778-.445l-.476-.254a3.722 3.722 0 01-1.531-5.067l.964-1.773A3.791 3.791 0 0118.99.771l.477.253a3.723 3.723 0 011.531 5.067l-.965 1.774a3.774 3.774 0 01-3.322 1.962zm.498-8.503a2.773 2.773 0 00-2.44 1.44l-.964 1.774a2.72 2.72 0 001.123 3.707l.475.254a2.784 2.784 0 003.752-1.111l.965-1.775a2.696 2.696 0 00.216-2.076 2.723 2.723 0 00-1.339-1.63l-.476-.254a2.779 2.779 0 00-1.312-.329z"/>
  <path fill="#e0e0e2" d="M14.46 2.357l6.048 3.587.375-1.147a3.044 3.044 0 00-1.266-3.513l-.466-.297a3.106 3.106 0 00-4.02.589z"/>
  <path fill="#2c2b2d" d="M20.508 6.444a.494.494 0 01-.255-.07l-6.048-3.588a.5.5 0 01-.124-.756l.671-.781A3.62 3.62 0 0119.42.564l.467.3a3.546 3.546 0 011.471 4.09L20.983 6.1a.502.502 0 01-.475.344zm-5.28-4.214l4.999 2.966.18-.553a2.546 2.546 0 00-1.058-2.937l-.467-.299a2.619 2.619 0 00-3.372.494z"/>
  <path fill="#58565d" d="M14.426 2.326L16.96 3.84a20.19 20.19 0 00-1.78 1.06 18.45 18.45 0 00-2.03 1.58l-.1.02a3.16 3.16 0 01.31-2.2l.97-1.77z"/>
  <path fill="#2c2b2d" d="M13.05 7a.5.5 0 01-.488-.392 3.67 3.67 0 01.359-2.546l1.052-1.948a.5.5 0 01.71-.218l2.534 1.514a.5.5 0 01-.024.872 19.632 19.632 0 00-1.736 1.034 17.539 17.539 0 00-1.973 1.537.501.501 0 01-.238.119l-.1.02A.537.537 0 0113.05 7zm1.576-3.972l-.827 1.512a2.679 2.679 0 00-.309.991c.456-.373.922-.719 1.411-1.046.347-.231.7-.452 1.058-.66z"/>
  <path fill="#fff" d="M20.494 31.5H5.917v-3.86h1.472l2.165-1.02 5.4 1.02 3.784-3.397 3.341 3.812a2.079 2.079 0 01-1.585 3.445z"/>
  <path fill="#2c2b2d" d="M20.494 32H5.917a.5.5 0 01-.5-.5v-3.86a.5.5 0 01.5-.5h1.36l2.064-.971a.481.481 0 01.305-.04l5.157.975 3.6-3.233a.47.47 0 01.365-.127.5.5 0 01.345.17l3.342 3.813a2.538 2.538 0 01.41 2.75A2.571 2.571 0 0120.495 32zM6.417 31h14.077a1.586 1.586 0 001.46-.935 1.53 1.53 0 00-.25-1.68l-3.009-3.432-3.408 3.06a.497.497 0 01-.427.119l-5.24-.99-2.018.95a.502.502 0 01-.213.049h-.972z"/>
  <path fill="#fff" d="M12.088 9.708a2.674 2.674 0 01.842.037 5.338 5.338 0 011.183.307 5.423 5.423 0 011.123.59c1.054.723 1.34 2.097 1.583 3.27l.023.115a12.489 12.489 0 01.205 1.56c.093 1.364-.522 2.253-.932 3.474-.499 1.488.664 2.903 1.791 3.75 1.513 1.136 3.315 1.954 4.142 3.756.142.31.62 1.588-1.522 1.69-4.777.226-4.525.42-5.526.332-2.301-.203-2.692-.923-5.31-1.009a16.438 16.438 0 00-2.301.06c-.147-.84-.252-1.64-.398-2.481a20.398 20.398 0 01-.285-2.514 16.942 16.942 0 01.048-2.373 15.53 15.53 0 01.375-2.25 15.93 15.93 0 01.693-2.157 18.233 18.233 0 011.006-2.096 27.553 27.553 0 012.075-3.172 2.696 2.696 0 01.837-.766 1.159 1.159 0 01.348-.123z"/>
  <path fill="#2c2b2d" d="M15.429 29.111a5.16 5.16 0 01-.473-.023 10.722 10.722 0 01-2.45-.51 9.351 9.351 0 00-2.833-.498 16.173 16.173 0 00-2.223.057.492.492 0 01-.554-.41c-.074-.423-.137-.836-.2-1.248a63.03 63.03 0 00-.198-1.234 20.964 20.964 0 01-.29-2.575 17.293 17.293 0 01.048-2.443 15.999 15.999 0 01.388-2.324 16.383 16.383 0 01.714-2.223 18.86 18.86 0 011.033-2.154 27.956 27.956 0 012.114-3.231 3.131 3.131 0 01.997-.903A1.65 1.65 0 0112 9.216a2.737 2.737 0 01.927.024 5.913 5.913 0 012.59.989c1.227.841 1.54 2.36 1.79 3.582l.027.127a12.95 12.95 0 01.212 1.616 5.772 5.772 0 01-.604 2.749c-.12.292-.244.591-.353.917-.491 1.466 1.114 2.812 1.617 3.19.355.267.724.514 1.093.762a8.044 8.044 0 013.203 3.187 1.636 1.636 0 01-.004 1.545 2.248 2.248 0 01-1.948.852c-2.56.12-3.648.231-4.297.297a7.967 7.967 0 01-.824.058zm-6.507-2.044c.252 0 .515.004.784.013a10.352 10.352 0 013.094.541 9.722 9.722 0 002.244.47 4.589 4.589 0 001.108-.033c.66-.067 1.764-.178 4.35-.3.599-.029 1.015-.165 1.142-.373a.748.748 0 00-.05-.609 7.193 7.193 0 00-2.852-2.774 25.622 25.622 0 01-1.137-.792c-1.705-1.28-2.439-2.89-1.963-4.309.116-.346.248-.668.377-.98a4.844 4.844 0 00.529-2.3 11.838 11.838 0 00-.196-1.498l-.023-.111c-.226-1.099-.483-2.345-1.377-2.958a4.898 4.898 0 00-1.017-.535 4.84 4.84 0 00-1.074-.279 2.323 2.323 0 00-.683-.04h-.002a.647.647 0 00-.198.07 2.175 2.175 0 00-.675.628 27.026 27.026 0 00-2.04 3.116 17.83 17.83 0 00-.977 2.038 15.585 15.585 0 00-.672 2.089 15.08 15.08 0 00-.362 2.177 16.479 16.479 0 00-.047 2.303 20.253 20.253 0 00.277 2.452c.075.424.138.84.202 1.253l.12.775c.33-.023.71-.034 1.118-.034zm3.166-17.359z"/>
  <path fill="#ffdaa7" d="M5.917 31.5v-3.86a2.646 2.646 0 00-1.416.396 4.08 4.08 0 00-1.167 1.544 6.116 6.116 0 01-1.97 1.92z"/>
  <path fill="#2c2b2d" d="M5.917 32H1.363a.5.5 0 01-.267-.922 5.708 5.708 0 001.814-1.763c.087-.14.163-.275.236-.407a3.25 3.25 0 011.082-1.29 3.099 3.099 0 011.682-.477h.007a.5.5 0 01.5.5V31.5a.5.5 0 01-.5.5zm-3.103-1h2.603v-2.806a1.901 1.901 0 00-.643.261 2.34 2.34 0 00-.754.94 9.73 9.73 0 01-.262.45A6.085 6.085 0 012.814 31z"/>
  <path fill="#fff" d="M13.696 12.18l4.667 2.407 2.872-3.801 2.75.253-2.981 5.867a2.856 2.856 0 01-3.801 1.259l-5.361-2.627"/>
  <path fill="#2c2b2d" d="M18.454 18.955a3.332 3.332 0 01-1.47-.34l-5.362-2.628a.5.5 0 01.44-.898l5.36 2.627a2.362 2.362 0 003.137-1.036l2.646-5.21-1.74-.16-2.702 3.579a.502.502 0 01-.63.142l-4.666-2.407a.5.5 0 11.459-.889l4.292 2.214 2.617-3.465a.507.507 0 01.445-.196l2.75.253a.5.5 0 01.4.725l-2.98 5.867a3.357 3.357 0 01-2.996 1.822z"/>
  <path fill="#ffdaa7" d="M21.445 10.805a10.664 10.664 0 00.708-1.993c.19-.766 1.28-1.836 1.77-1.744a10.875 10.875 0 01-.253 3.942l-2.079-.191"/>
  <path fill="#2c2b2d" d="M23.67 11.51l-.046-.001-2.08-.193a.396.396 0 01-.068-.011.469.469 0 01-.244-.047.499.499 0 01-.239-.665 10.244 10.244 0 00.675-1.9c.216-.876 1.497-2.28 2.347-2.117a.497.497 0 01.405.433 11.396 11.396 0 01.046 2.212 11.198 11.198 0 01-.312 1.913.5.5 0 01-.484.377zm-1.492-1.14l1.103.103a10.14 10.14 0 00.188-1.327 10.3 10.3 0 00.014-1.368 2.722 2.722 0 00-.844 1.153 11.112 11.112 0 01-.461 1.44z"/>
</svg>
