<svg viewBox="0 0 24 24" xmlns="http://www.w3.org/2000/svg" focusable="false">
  <path d="M21.922 14.836l.104.014c.417.094.682.525.59.961-.41 1.983-1.16 3.83-2.164 5.344a.766.766 0 01-.635.345.746.746 0 01-.441-.145.832.832 0 01-.193-1.124c.891-1.34 1.557-2.987 1.924-4.763a.781.781 0 01.919-.618zM10.579 2.968c1.034.018 1.983.756 2.328 1.963.127.505.178 1.012.227 1.501l.047.442c.178 1.483.178 8.769 0 10.254l-.047.457c-.044.466-.09.946-.222 1.46-.342 1.205-1.263 1.988-2.306 1.988-.035 0-.066-.002-.1 0-.578 0-1.206-.363-1.561-.677l-3.677-3.137a.832.832 0 01-.11-1.136.749.749 0 011.085-.116l3.688 3.146c.231.202.534.328.615.302.38.028.74-.314.881-.811.093-.363.13-.76.17-1.179.016-.165.032-.329.05-.495.16-1.338.16-8.522.001-9.858l-.05-.47c-.043-.43-.088-.873-.178-1.235-.135-.47-.499-.825-.834-.782-.143.004-.5.15-.72.345l-3.62 3.102a.75.75 0 01-.49.183H3.7c-.648 0-.955.575-1.027 1.114-.173 1.458-.173 3.978 0 5.278.059.44-.236.85-.657.911a.786.786 0 01-.872-.69c-.213-1.586-.172-4.283-.003-5.711.2-1.488 1.251-2.518 2.559-2.518h1.78l3.396-2.91c.41-.363 1.154-.717 1.702-.721zm5.264 2.975a.752.752 0 011.075.2C17.972 7.73 18.552 9.808 18.552 12c0 2.191-.58 4.271-1.634 5.856a.762.762 0 01-.635.345.745.745 0 01-.44-.145.831.831 0 01-.194-1.124c.876-1.317 1.359-3.067 1.359-4.932 0-1.864-.483-3.617-1.359-4.933a.831.831 0 01.194-1.124zm3.533-3.3a.755.755 0 011.075.204C22.095 5.317 23 8.57 23 12c0 .446-.346.808-.772.808-.427 0-.772-.362-.772-.808 0-3.104-.808-6.026-2.273-8.232a.835.835 0 01.193-1.125z"/>
</svg>
