<svg xmlns="http://www.w3.org/2000/svg" viewBox="0 0 32 32" focusable="false">
  <path fill="#2c2b2d" d="M27.606 9.843a.5.5 0 01-.353-.146l-4.95-4.95a.5.5 0 010-.707l2.122-2.122a2.502 2.502 0 013.535 0l2.121 2.122a2.5 2.5 0 010 3.535L27.96 9.697a.5.5 0 01-.354.146zm-4.242-5.45l4.242 4.243 1.768-1.768a1.5 1.5 0 000-2.12l-2.121-2.123a1.503 1.503 0 00-2.121 0zM5.808 30.814a2.492 2.492 0 01-1.768-.732L1.919 27.96a2.503 2.503 0 010-3.535l2.121-2.121a.5.5 0 01.707 0l4.95 4.949a.5.5 0 010 .707l-2.123 2.12a2.492 2.492 0 01-1.767.732zm-1.414-7.449l-1.768 1.768a1.501 1.501 0 000 2.12l2.121 2.122a1.503 1.503 0 002.121 0l1.768-1.768z"/>
  <circle cx="16" cy="16" r="15.5" fill="#e0e0e2"/>
  <path fill="#2c2b2d" d="M16 32A16 16 0 014.687 4.687a15.999 15.999 0 0122.627 0A16 16 0 0116 32zm0-31A15 15 0 005.394 26.606 15 15 0 1026.606 5.394 14.902 14.902 0 0016 1z"/>
  <circle cx="16" cy="16" r="13.5" fill="#fff4ca"/>
  <path fill="#2c2b2d" d="M16 30a14 14 0 119.9-4.1A13.908 13.908 0 0116 30zm0-26.994a12.99 12.99 0 109.192 3.802A12.96 12.96 0 0016 3.006z"/>
  <path fill="#fff" d="M11.17 9.038c.978.333 1.848-.649 2.215-.302.313.295.02 1.334-.644 1.893a2.5 2.5 0 01-3.787-1.288c-.186-.848.215-1.85.644-1.894.502-.05.593 1.258 1.571 1.591z"/>
  <path fill="#2c2b2d" d="M11.426 11.575a3.469 3.469 0 01-1.062-.17 2.892 2.892 0 01-1.898-1.958 2.732 2.732 0 01.376-2.042.998.998 0 01.705-.455c.552-.058.818.417 1.033.797a1.568 1.568 0 00.75.818 1.578 1.578 0 001.095-.191c.401-.17.901-.38 1.304-.001a.994.994 0 01.28.79 2.729 2.729 0 01-.947 1.849 2.488 2.488 0 01-1.636.563zM9.592 8.036a2.017 2.017 0 00-.15 1.198 1.883 1.883 0 001.245 1.224 1.881 1.881 0 001.731-.211 1.818 1.818 0 00.588-1.031l-.192.078a2.465 2.465 0 01-1.806.218 2.466 2.466 0 01-1.299-1.274c-.036-.063-.078-.138-.117-.202z"/>
  <path fill="#fff" d="M20.963 21.985c1.029.104 1.413 1.359 1.89 1.196.408-.14.573-1.206.2-1.99a2.5 2.5 0 00-3.98-.401c-.52.694-.572 1.772-.2 1.99.435.254 1.062-.898 2.09-.795z"/>
  <path fill="#2c2b2d" d="M22.758 23.698a1.382 1.382 0 01-.929-.587 1.572 1.572 0 00-.916-.629 1.573 1.573 0 00-1.022.433c-.353.256-.791.576-1.27.296a.996.996 0 01-.453-.705 2.735 2.735 0 01.505-2.016 2.995 2.995 0 014.833.488 2.733 2.733 0 01.094 2.074 1 1 0 01-.586.602.797.797 0 01-.256.044zm-1.745-2.21a2.47 2.47 0 011.554.948c.05.053.107.117.159.17a2.003 2.003 0 00-.124-1.2 1.891 1.891 0 00-1.489-.914 1.935 1.935 0 00-1.64.598 1.82 1.82 0 00-.338 1.137l.168-.12a2.39 2.39 0 011.71-.619z"/>
  <path fill="#fff" d="M21.694 10.87c-.784-.675-1.957-.089-2.168-.547-.18-.391.48-1.245 1.304-1.516a2.5 2.5 0 013.032 2.61c-.144.855-.89 1.635-1.304 1.515-.485-.14-.08-1.388-.864-2.062z"/>
  <path fill="#2c2b2d" d="M22.648 13.444a.82.82 0 01-.23-.032c-.531-.154-.603-.692-.66-1.124a1.572 1.572 0 00-.39-1.04 1.576 1.576 0 00-1.087-.23c-.434.006-.977.017-1.21-.486a.998.998 0 01.034-.84 2.734 2.734 0 011.57-1.36 2.995 2.995 0 013.68 3.167 2.732 2.732 0 01-1.112 1.755 1.112 1.112 0 01-.595.19zm.173-.901zm-2.347-2.528a2.268 2.268 0 011.547.476 2.469 2.469 0 01.729 1.666c.01.072.02.158.033.232a2.013 2.013 0 00.586-1.055 2.008 2.008 0 00-2.384-2.052 1.82 1.82 0 00-.928.738c.076.001.143-.001.206-.002a9.39 9.39 0 01.21-.003z"/>
  <path fill="#fff" d="M9.43 20.248c.534.885 1.832.695 1.89 1.196.048.428-.845 1.034-1.713 1.033a2.5 2.5 0 01-2.067-3.425c.405-.768 1.357-1.276 1.713-1.033.416.284-.357 1.344.177 2.229z"/>
  <path fill="#2c2b2d" d="M9.606 22.978a2.995 2.995 0 01-2.508-4.159A2.733 2.733 0 018.7 17.5a.995.995 0 01.833.105c.458.314.358.847.277 1.276a1.574 1.574 0 00.046 1.108 1.568 1.568 0 00.96.559c.417.129.936.288 1 .839a1.002 1.002 0 01-.296.787 2.732 2.732 0 01-1.915.804zm-.737-4.513a2.015 2.015 0 00-.887.82 1.888 1.888 0 00.164 1.737 1.913 1.913 0 001.46.956 1.822 1.822 0 001.114-.412 8.52 8.52 0 00-.197-.062 2.467 2.467 0 01-1.521-.997 2.469 2.469 0 01-.174-1.812c.014-.071.03-.157.041-.23zm2.023 3.174z"/>
  <ellipse cx="15.5" cy="15.5" fill="#b28966" rx="2" ry="1" transform="rotate(-42.064 15.5 15.5)"/>
  <path fill="#2c2b2d" d="M14.524 17.532c-.027 0-.053 0-.08-.002a1.13 1.13 0 01-.8-.355 1.337 1.337 0 01-.133-1.435 3.738 3.738 0 01.984-1.353 3.128 3.128 0 012.062-.917 1.124 1.124 0 01.8.356 1.336 1.336 0 01.132 1.434 3.738 3.738 0 01-.984 1.353 3.183 3.183 0 01-1.98.92zm1.95-3.064a2.258 2.258 0 00-1.309.66 2.773 2.773 0 00-.723.976c-.104.267-.067.388-.055.4a.2.2 0 00.108.027 2.109 2.109 0 001.34-.66 2.773 2.773 0 00.723-.975c.104-.267.067-.388.055-.4a.2.2 0 00-.108-.027z"/>
  <ellipse cx="16.5" cy="7.5" fill="#b28966" rx="1" ry="2" transform="rotate(-30 16.5 7.5)"/>
  <path fill="#2c2b2d" d="M17.23 9.801A2.7 2.7 0 0115.2 8.25a3.73 3.73 0 01-.52-1.591 1.334 1.334 0 01.569-1.324c.745-.43 1.836.182 2.549 1.415a3.74 3.74 0 01.52 1.591 1.334 1.334 0 01-.569 1.324 1.029 1.029 0 01-.52.136zm-1.44-3.609a.079.079 0 00-.04.01c-.023.013-.086.136-.07.397a2.765 2.765 0 00.387 1.151c.483.836 1.072 1.117 1.183 1.049.023-.014.086-.137.07-.398a2.777 2.777 0 00-.386-1.151c-.442-.763-.971-1.058-1.144-1.058z"/>
  <ellipse cx="7.5" cy="14.5" fill="#b28966" rx="2" ry="1" transform="rotate(-42.064 7.5 14.5)"/>
  <path fill="#2c2b2d" d="M6.524 16.532c-.027 0-.053 0-.08-.002a1.124 1.124 0 01-.8-.356 1.336 1.336 0 01-.133-1.434 3.738 3.738 0 01.984-1.353 3.105 3.105 0 012.062-.917 1.124 1.124 0 01.8.356 1.336 1.336 0 01.132 1.434 3.738 3.738 0 01-.984 1.353 3.183 3.183 0 01-1.98.92zm1.95-3.064a2.258 2.258 0 00-1.309.66 2.773 2.773 0 00-.723.976c-.104.267-.067.388-.055.4a.2.2 0 00.108.027 2.122 2.122 0 001.34-.66 2.773 2.773 0 00.723-.975c.104-.267.067-.388.055-.4a.2.2 0 00-.108-.027z"/>
  <ellipse cx="24.5" cy="16.5" fill="#b28966" rx="2" ry="1" transform="rotate(-39.883 24.5 16.5)"/>
  <path fill="#2c2b2d" d="M23.512 18.49a1.165 1.165 0 01-.931-.387c-.548-.657-.137-1.84.957-2.754 1.094-.914 2.331-1.109 2.88-.452.549.657.138 1.84-.956 2.754a3.224 3.224 0 01-1.95.84zm1.99-2.989a2.329 2.329 0 00-1.323.615c-.742.62-.91 1.25-.83 1.346.08.093.728.043 1.472-.578.743-.62.91-1.25.83-1.346a.211.211 0 00-.149-.037zm-.36 1.767z"/>
  <ellipse cx="15.5" cy="24.5" fill="#b28966" rx="1" ry="2" transform="rotate(-45 15.5 24.5)"/>
  <path fill="#2c2b2d" d="M16.454 26.577a3.07 3.07 0 01-2.015-1.016c-1.007-1.008-1.311-2.224-.707-2.829s1.82-.3 2.829.707 1.311 2.224.707 2.829a1.117 1.117 0 01-.814.31zm-1.902-3.159a.211.211 0 00-.113.021c-.012.013-.055.132.036.403a3.069 3.069 0 001.683 1.683c.273.092.389.046.403.036.012-.013.055-.132-.036-.403a3.069 3.069 0 00-1.683-1.683.925.925 0 00-.29-.057z"/>
  <circle cx="17.5" cy="11.5" r=".5" fill="#2c2b2d"/>
  <circle cx="12.5" cy="6.5" r=".5" fill="#2c2b2d"/>
  <circle cx="6.5" cy="11.5" r=".5" fill="#2c2b2d"/>
  <circle cx="19.5" cy="15.5" r=".5" fill="#2c2b2d"/>
  <circle cx="11.5" cy="14.5" r=".5" fill="#2c2b2d"/>
  <circle cx="13.5" cy="19.5" r=".5" fill="#2c2b2d"/>
  <circle cx="17.5" cy="19.5" r=".5" fill="#2c2b2d"/>
  <circle cx="20.5" cy="6.5" r=".5" fill="#2c2b2d"/>
  <circle cx="26.5" cy="12.5" r=".5" fill="#2c2b2d"/>
  <circle cx="25.5" cy="19.5" r=".5" fill="#2c2b2d"/>
  <circle cx="11.5" cy="24.5" r=".5" fill="#2c2b2d"/>
</svg>
