<svg xmlns="http://www.w3.org/2000/svg" viewBox="0 0 32 32" focusable="false">
  <path fill="#516d97" d="M7 5V4c0-.6.4-1 1-1h16c1.7 0 3 1.3 3 3v20c0 1.7-1.3 3-3 3H8c-.6 0-1-.4-1-1v-1"/>
  <path fill="#fff" d="M8 7H6c-.6 0-1-.4-1-1s.4-1 1-1h2c.6 0 1 .4 1 1s-.4 1-1 1zm0 4H6c-.6 0-1-.4-1-1s.4-1 1-1h2c.6 0 1 .4 1 1s-.4 1-1 1zm0 4H6c-.6 0-1-.4-1-1s.4-1 1-1h2c.6 0 1 .4 1 1s-.4 1-1 1zm0 4H6c-.6 0-1-.4-1-1s.4-1 1-1h2c.6 0 1 .4 1 1s-.4 1-1 1zm0 4H6c-.6 0-1-.4-1-1s.4-1 1-1h2c.6 0 1 .4 1 1s-.4 1-1 1zm0 4H6c-.6 0-1-.4-1-1s.4-1 1-1h2c.6 0 1 .4 1 1s-.4 1-1 1z"/>
  <path fill="#40455a" d="M7 9.5c-.3 0-.5-.2-.5-.5V7c0-.3.2-.5.5-.5s.5.2.5.5v2c0 .3-.2.5-.5.5zm0 8c-.3 0-.5-.2-.5-.5v-2c0-.3.2-.5.5-.5s.5.2.5.5v2c0 .3-.2.5-.5.5zm0 8c-.3 0-.5-.2-.5-.5v-2c0-.3.2-.5.5-.5s.5.2.5.5v2c0 .3-.2.5-.5.5zm0-12c-.3 0-.5-.2-.5-.5v-2c0-.3.2-.5.5-.5s.5.2.5.5v2c0 .3-.2.5-.5.5zm0 8c-.3 0-.5-.2-.5-.5v-2c0-.3.2-.5.5-.5s.5.2.5.5v2c0 .3-.2.5-.5.5z"/>
  <path fill="#40455a" d="M24 29.5H8c-.8 0-1.5-.7-1.5-1.5v-1c0-.3.2-.5.5-.5s.5.2.5.5v1c0 .3.2.5.5.5h16c1.4 0 2.5-1.1 2.5-2.5V6c0-1.4-1.1-2.5-2.5-2.5H8c-.3 0-.5.2-.5.5v1c0 .3-.2.5-.5.5s-.5-.2-.5-.5V4c0-.8.7-1.5 1.5-1.5h16c1.9 0 3.5 1.6 3.5 3.5v20c0 1.9-1.6 3.5-3.5 3.5z"/>
  <path fill="#40455a" d="M8 7.5H6c-.8 0-1.5-.7-1.5-1.5S5.2 4.5 6 4.5h2c.8 0 1.5.7 1.5 1.5S8.8 7.5 8 7.5zm-2-2c-.3 0-.5.2-.5.5s.2.5.5.5h2c.3 0 .5-.2.5-.5s-.2-.5-.5-.5H6zm2 6H6c-.8 0-1.5-.7-1.5-1.5S5.2 8.5 6 8.5h2c.8 0 1.5.7 1.5 1.5s-.7 1.5-1.5 1.5zm-2-2c-.3 0-.5.2-.5.5s.2.5.5.5h2c.3 0 .5-.2.5-.5s-.2-.5-.5-.5H6zm2 6H6c-.8 0-1.5-.7-1.5-1.5s.7-1.5 1.5-1.5h2c.8 0 1.5.7 1.5 1.5s-.7 1.5-1.5 1.5zm-2-2c-.3 0-.5.2-.5.5s.2.5.5.5h2c.3 0 .5-.2.5-.5s-.2-.5-.5-.5H6zm2 6H6c-.8 0-1.5-.7-1.5-1.5s.7-1.5 1.5-1.5h2c.8 0 1.5.7 1.5 1.5s-.7 1.5-1.5 1.5zm-2-2c-.3 0-.5.2-.5.5s.2.5.5.5h2c.3 0 .5-.2.5-.5s-.2-.5-.5-.5H6zm2 6H6c-.8 0-1.5-.7-1.5-1.5s.7-1.5 1.5-1.5h2c.8 0 1.5.7 1.5 1.5s-.7 1.5-1.5 1.5zm-2-2c-.3 0-.5.2-.5.5s.2.5.5.5h2c.3 0 .5-.2.5-.5s-.2-.5-.5-.5H6zm2 6H6c-.8 0-1.5-.7-1.5-1.5s.7-1.5 1.5-1.5h2c.8 0 1.5.7 1.5 1.5s-.7 1.5-1.5 1.5zm-2-2c-.3 0-.5.2-.5.5s.2.5.5.5h2c.3 0 .5-.2.5-.5s-.2-.5-.5-.5H6zm11.5-4c-1.7 0-3-1.3-3-3s1.3-3 3-3c.6 0 1.3.2 1.8.6.1.1.2.2.2.4v4c0 .2-.1.3-.2.4-.5.4-1.2.6-1.8.6zm0-5c-1.1 0-2 .9-2 2s.9 2 2 2c.4 0 .7-.1 1-.3v-3.4c-.3-.2-.6-.3-1-.3z"/>
  <path fill="#40455a" d="M17 23.5c-2.8 0-5-2.2-5-5s2.2-5 5-5 5 2.2 5 5c0 1-.3 2-.8 2.8-.1.1-.2.2-.4.2H19c-.3 0-.5-.2-.5-.5v-5c0-.3.2-.5.5-.5s.5.2.5.5v4.5h1c.4-.6.5-1.3.5-2 0-2.2-1.8-4-4-4s-4 1.8-4 4 1.8 4 4 4c.6 0 1.2-.1 1.8-.4.2-.1.5 0 .7.2.1.2 0 .5-.2.7-.8.3-1.5.5-2.3.5z"/>
</svg>
