<svg viewBox="0 0 24 24" xmlns="http://www.w3.org/2000/svg" focusable="false">
  <g stroke="#000" stroke-width="1.5" fill="none" fill-rule="evenodd" stroke-linecap="round" stroke-linejoin="round">
    <path d="M15.438 12.498a3.146 3.146 0 10-6.291 0 3.146 3.146 0 006.291 0z"/>
    <path d="M12.293 20.2c8.045 0 9.003-2.41 9.003-7.634 0-3.66-.485-5.62-3.534-6.462a1.927 1.927 0 01-.842-.533c-.406-.446-.703-1.813-1.684-2.227-.981-.412-4.921-.393-5.887 0-.964.395-1.278 1.781-1.684 2.227a1.92 1.92 0 01-.842.533c-3.05.842-3.534 2.801-3.534 6.462 0 5.224.958 7.634 9.004 7.634zM17.204 9h.009"/>
  </g>
</svg>
