<svg data-name="Layer 1" xmlns="http://www.w3.org/2000/svg" viewBox="0 0 24 24" focusable="false">
  <path d="M10.015 20.723L8.156 21.74a2.049 2.049 0 01-3.018-2.107l.427-2.594a4.046 4.046 0 00-1.113-3.496l-1.867-1.897a2.03 2.03 0 011.16-3.432l2.32-.351A4.1 4.1 0 009.158 5.57l1.202-2.539a1.817 1.817 0 013.278 0L14.84 5.57a4.1 4.1 0 003.095 2.293l2.32.351a2.03 2.03 0 011.159 3.432l-1.867 1.897a4.046 4.046 0 00-1.113 3.496l.427 2.594a2.049 2.049 0 01-3.018 2.107l-1.859-1.018a4.135 4.135 0 00-3.97 0z" fill="none" stroke="#030835" stroke-linecap="round" stroke-miterlimit="10" stroke-width="1.5"/>
</svg>
