<svg xmlns="http://www.w3.org/2000/svg" viewBox="0 0 32 32" focusable="false">
  <path d="M6.4 0H4.396a2.303 2.303 0 00-2.298 2.297v4.328c0 1.27 1.028 2.3 2.297 2.303h2.009a2.303 2.303 0 002.298-2.303V2.297A2.303 2.303 0 006.405-.001zm.572 6.626a.57.57 0 01-.567.561H4.396a.562.562 0 01-.561-.561V2.298c0-.315.252-.561.561-.561h2.009c.309 0 .561.252.561.561zM21.77 8.929h2.009a2.303 2.303 0 002.298-2.303V2.298A2.303 2.303 0 0023.78 0h-2.009a2.303 2.303 0 00-2.298 2.297v4.328c0 1.27 1.028 2.3 2.297 2.303zm-.561-6.631c0-.315.252-.561.561-.561h2.004c.309 0 .561.252.561.561v4.328a.562.562 0 01-.561.561H21.77a.558.558 0 01-.561-.561zM11.064 8.929h1.731V0h-1.731zm4.537 0h1.731V0h-1.731zm12.617 0h1.731V0h-1.731zM6.4 23.129H4.396a2.303 2.303 0 00-2.298 2.297v4.333a2.303 2.303 0 002.297 2.298h2.009a2.303 2.303 0 002.298-2.297v-4.333a2.303 2.303 0 00-2.297-2.298zm.572 6.626a.57.57 0 01-.567.561H4.396a.562.562 0 01-.561-.561v-4.328c0-.315.252-.561.561-.561h2.009c.309 0 .561.252.561.561zm16.808-6.626h-2.009a2.303 2.303 0 00-2.298 2.297v4.333a2.303 2.303 0 002.297 2.298h2.014a2.292 2.292 0 002.292-2.292v-4.339a2.303 2.303 0 00-2.297-2.298zm.556 6.626a.562.562 0 01-.561.561h-2.004a.558.558 0 01-.561-.561v-4.328c0-.315.252-.561.561-.561h2.004c.309 0 .561.252.561.561zm3.882 2.297h1.731v-8.918h-1.731zm-17.154 0h1.731v-8.918h-1.731zm4.537 0h1.731v-8.918h-1.731zm-.556-20.49h-2.004a2.303 2.303 0 00-2.298 2.297v4.333a2.303 2.303 0 002.297 2.298h2.004c1.27 0 2.3-1.028 2.303-2.297v-4.328a2.303 2.303 0 00-2.303-2.303zm.567 6.626a.565.565 0 01-.567.567h-2.004a.56.56 0 01-.561-.567v-4.323c0-.315.252-.567.561-.567h2.004c.315 0 .567.252.567.567zm14.269.005v-4.328c0-1.27-1.028-2.3-2.297-2.303h-2.009a2.303 2.303 0 00-2.298 2.297v4.333a2.303 2.303 0 002.297 2.298h2.009a2.303 2.303 0 002.298-2.297zm-1.732 0a.567.567 0 01-.567.561h-2.009a.563.563 0 01-.561-.567v-4.323c0-.315.252-.567.561-.567h2.009a.56.56 0 01.561.567zM6.542 20.491h1.731v-8.929H6.542zm12.973 0h1.731v-8.929h-1.731zm-17.348 0h1.731v-8.929H2.167z"/>
</svg>
