<svg xmlns="http://www.w3.org/2000/svg" viewBox="0 0 48 48">
  <path d="M11.5 11.2l4 5.1 3-2.4-4-5.1c-1.3-1.7-.1-3.7-1.8-5.9-1-1.3-1.7-1-2.6-.3C9 3.5 9 4.9 9 4.9s-1.4-.3-2.5.6c-.9.7-1.1 1.5-.3 2.6 1.9 2.4 3.6 1 5.3 3.1z" fill="#f0f0f0"/>
  <path d="M6.6 8.5C7.7 7.6 9 7.9 9 7.9s0-1.4 1.1-2.3c.9-.7 1.7-.5 2.6.3.4.4.8.8 1.1 1.2-.2-1.3 0-2.7-1.1-4.1-1-1.3-1.7-1-2.6-.3C9 3.5 9 4.9 9 4.9s-1.4-.3-2.5.6c-.9.7-1.1 1.5-.3 2.6l.4.4z" fill="#fff"/>
  <path class="st10" d="M11.5 11.2l4 5.1 3-2.4-4-5.1c-1.3-1.7-.1-3.7-1.8-5.9-1-1.3-1.7-1-2.6-.3C9 3.5 9 4.9 9 4.9s-1.4-.3-2.5.6c-.9.7-1.1 1.5-.3 2.6 1.9 2.4 3.6 1 5.3 3.1z" fill="none" stroke="#45413C" stroke-linecap="round" stroke-linejoin="round" stroke-miterlimit="10"/>
  <ellipse cx="25.8" cy="44.4" rx="12" ry="1.6" fill="#45413c" opacity=".15"/>
  <path class="st37" d="M20.8 39.3c4.1 5.2 11.6 6.1 16.8 2 5.2-4.1 6.1-11.6 2-16.8-4.8-6.1-16.6-8.4-16.7-8.6-1.3-1.7-1.4-2.6-1.4-2.9 0-.2 0-.4-.2-.5-.4-.6-1.2-.8-1.9-.6-1 .4-1.4 1.2-1.3 2-.6-.2-1.3-.1-1.8.3s-.8 1.1-.7 1.7c-.7-.3-1.5-.1-2.1.6-.6.7-.6 1.6-.1 2.2.1.1.3.3.5.3.4.1 1.2.4 2.5 2.1.2.2-.5 12 4.4 18.2z" fill="#BF8256"/>
  <path class="st37" d="M20.8 39.3c4.1 5.2 11.6 6.1 16.8 2 5.2-4.1 6.1-11.6 2-16.8-4.8-6.1-16.6-8.4-16.7-8.6-1.3-1.7-1.4-2.6-1.4-2.9 0-.2 0-.4-.2-.5-.4-.6-1.2-.8-1.9-.6-1 .4-1.4 1.2-1.3 2-.6-.2-1.3-.1-1.8.3s-.8 1.1-.7 1.7c-.7-.3-1.5-.1-2.1.6-.6.7-.6 1.6-.1 2.2.1.1.3.3.5.3.4.1 1.2.4 2.5 2.1.2.2-.5 12 4.4 18.2z" fill="#BF8256"/>
  <path d="M13.8 19c.3 0 .9.3 1.7 1.1 0-.5.3-1 .7-1.3.5-.4 1.2-.5 1.8-.3-.1-.8.4-1.7 1.3-2 .7-.3 1.5 0 1.9.6.1.1.2.3.2.5 0 .4.1 1.3 1.4 2.9.2.2 11.9 2.6 16.7 8.6 1.2 1.5 2 3.3 2.3 5.1.6-3.3-.1-6.8-2.3-9.6-4.8-6.1-16.6-8.4-16.7-8.6-1.3-1.7-1.4-2.6-1.4-2.9 0-.2 0-.4-.2-.5-.4-.6-1.2-.8-1.9-.6-1 .4-1.4 1.2-1.3 2-.6-.2-1.3-.1-1.8.3s-.8 1.1-.7 1.7c-.7-.3-1.5-.1-2.1.6-.6.7-.6 1.6-.1 2.2.2 0 .3.1.5.2z" fill="#dea47a"/>
  <path class="st10" d="M20.8 39.3c4.1 5.2 11.6 6.1 16.8 2 5.2-4.1 6.1-11.6 2-16.8-4.8-6.1-16.6-8.4-16.7-8.6-1.3-1.7-1.4-2.6-1.4-2.9 0-.2 0-.4-.2-.5-.4-.6-1.2-.8-1.9-.6-1 .4-1.4 1.2-1.3 2-.6-.2-1.3-.1-1.8.3s-.8 1.1-.7 1.7c-.7-.3-1.5-.1-2.1.6-.6.7-.6 1.6-.1 2.2.1.1.3.3.5.3.4.1 1.2.4 2.5 2.1.2.2-.5 12 4.4 18.2z" fill="none" stroke="#45413C" stroke-linecap="round" stroke-linejoin="round" stroke-miterlimit="10"/>
</svg>
