<svg data-name="Layer 1" xmlns="http://www.w3.org/2000/svg" viewBox="0 0 24 24" focusable="false">
  <path d="M19.244 7.859v9.14a4.995 4.995 0 01-5 5h-4.46a4.995 4.995 0 01-5-5v-9.14a1.046 1.046 0 011.04-1.04h12.38a1.04 1.04 0 011.04 1.04z" fill="#ffb531"/>
  <path d="M12.74 13.819v4.05a.75.75 0 01-1.5 0v-4.05a.75.75 0 011.5 0zm6.502-8.379H4.758a.723.723 0 110-1.446h14.484a.723.723 0 110 1.446z"/>
  <path d="M13.92 5.368a.723.723 0 01-.723-.723 1.197 1.197 0 00-2.394 0 .723.723 0 01-1.446 0 2.643 2.643 0 115.286 0 .723.723 0 01-.723.723z"/>
</svg>
