<svg xmlns="http://www.w3.org/2000/svg" viewBox="0 0 48 48">
  <path d="M35.4 2.3c-5.5-3.4-13.1-1-17.1 5.4-.2.4-.4.7-.6 1.1-.1.1-.1.2-.2.3-.1.3-.3.6-.4.8l-.3.9c0 .1 0 .1-.1.2-.6 1.8-.9 3.7-.7 5.5.1 5.3 2 10.2-.4 14.2-1 1.6-1.8 2.8-1.8 2.8l3.2 2s.8-1.3 1.8-2.8c2.5-4 7.7-4.4 12.5-6.7 1.7-.7 3.2-1.7 4.6-3.1l.1-.1.7-.7c.2-.2.4-.5.6-.7.1-.1.1-.2.2-.3.2-.3.5-.7.7-1 3.9-6.4 2.7-14.4-2.8-17.8zM18.3 29.9c.9-2.9.6-6.3.6-6.3s1 1.1 2.2 1.8c1.2.7 2.6 1.1 2.6 1.1s-3.1 1.3-5.4 3.4z" fill="#ff8a14"/>
  <path d="M16.1 17.3c.1-1.2.3-2.4.7-3.5 0-.1 0-.1.1-.2l.3-.9c.1-.3.2-.5.4-.8 0-.1.1-.2.2-.3.2-.4.4-.7.6-1.1C22.3 4.1 30 1.7 35.5 5.1c2.9 1.8 4.6 4.9 5 8.4.5-4.6-1.3-8.9-5-11.2-5.5-3.4-13.1-1-17.1 5.4-.2.4-.4.7-.6 1.1-.1.1-.1.2-.2.3-.1.3-.3.6-.4.8l-.3.9c0 .1 0 .1-.1.2-.6 1.8-.9 3.7-.7 5.5v.8z" fill="#ffaa54"/>
  <path class="st95" d="M35.4 2.3c-5.5-3.4-13.1-1-17.1 5.4-.2.4-.4.7-.6 1.1-.1.1-.1.2-.2.3-.1.3-.3.6-.4.8l-.3.9c0 .1 0 .1-.1.2-.6 1.8-.9 3.7-.7 5.5.1 5.3 2 10.2-.4 14.2-1 1.6-1.8 2.8-1.8 2.8l3.2 2s.8-1.3 1.8-2.8c2.5-4 7.7-4.4 12.5-6.7 1.7-.7 3.2-1.7 4.6-3.1l.1-.1.7-.7c.2-.2.4-.5.6-.7.1-.1.1-.2.2-.3.2-.3.5-.7.7-1 3.9-6.4 2.7-14.4-2.8-17.8zM18.3 29.9c.9-2.9.6-6.3.6-6.3s1 1.1 2.2 1.8c1.2.7 2.6 1.1 2.6 1.1s-3.1 1.3-5.4 3.4z" fill="none" stroke="#45413C" stroke-linecap="round" stroke-linejoin="round" stroke-miterlimit="10" stroke-width="1.006"/>
  <ellipse cx="22.6" cy="45.6" rx="13.5" ry="1.6" fill="#45413c" opacity=".15"/>
  <ellipse transform="rotate(-58.177 28.26 13.855)" cx="28.3" cy="13.9" rx="10.7" ry="8.9" fill="#fff"/>
  <path d="M20.7 11.8c3.1-5 9-7 13.2-4.4 2.1 1.3 3.4 3.6 3.7 6.1.4-3.6-.9-7-3.7-8.7-4.2-2.6-10.1-.6-13.2 4.4-1.5 2.5-2.1 5.2-1.8 7.7.2-1.7.8-3.5 1.8-5.1z" fill="#e0e0e0"/>
  <ellipse transform="rotate(-58.177 28.26 13.855)" class="st95" cx="28.3" cy="13.9" rx="10.7" ry="8.9" fill="none" stroke="#45413C" stroke-linecap="round" stroke-linejoin="round" stroke-miterlimit="10" stroke-width="1.006"/>
  <path class="st74" d="M12 44.5L8 42l6.6-10.7c.3-.4.8-.6 1.3-.3l2.4 1.5c.4.3.6.8.3 1.3L12 44.5z" fill="#87898C"/>
  <path class="st76" d="M17.2 31.7L16 31c-.4-.3-1-.1-1.3.3L8.1 42l2 1.2 7.1-11.5z" fill="#BDBEC0"/>
  <path class="st95" d="M12 44.5L8 42l6.6-10.7c.3-.4.8-.6 1.3-.3l2.4 1.5c.4.3.6.8.3 1.3L12 44.5z" fill="none" stroke="#45413C" stroke-linecap="round" stroke-linejoin="round" stroke-miterlimit="10" stroke-width="1.006"/>
  <path class="st74" d="M11.1 45L8 43c-.4-.3-.6-.8-.3-1.3l.2-.4c.3-.4.8-.6 1.3-.3l3.2 2c.4.3.6.8.3 1.3l-.2.4c-.4.4-.9.6-1.4.3z" fill="#87898C"/>
  <path class="st76" d="M9.7 43.3l.4-.7c.2-.3.5-.5.9-.5L9.2 41c-.4-.3-1-.1-1.3.3l-.2.4c-.3.4-.1 1 .3 1.3l1.6 1c-.1-.2-.1-.5.1-.7z" fill="#BDBEC0"/>
  <path class="st95" d="M11.1 45L8 43c-.4-.3-.6-.8-.3-1.3l.2-.4c.3-.4.8-.6 1.3-.3l3.2 2c.4.3.6.8.3 1.3l-.2.4c-.4.4-.9.6-1.4.3zM33.9 4.7L22.6 23m7.1-19.4l-10 16.1M36.8 8l-10 16.1M21 8.8l15 9.3m-11.2-13l12.8 8m-18.7 1.5l12.8 8" fill="none" stroke="#45413C" stroke-linecap="round" stroke-linejoin="round" stroke-miterlimit="10" stroke-width="1.006"/>
  <circle transform="rotate(-17.668 33.987 34.958)" cx="34" cy="35" fill="#9ceb60" r="3.7"/>
  <path d="M32.9 33.5c2-.6 4.1.5 4.7 2.4v.1c.2-.7.2-1.4 0-2.2-.6-2-2.7-3.1-4.7-2.4-1.9.6-3 2.6-2.5 4.6.3-1.2 1.2-2.1 2.5-2.5z" fill="#c8ffa1"/>
  <circle transform="rotate(-17.668 33.987 34.958)" class="st95" cx="34" cy="35" fill="none" stroke="#45413C" stroke-linecap="round" stroke-linejoin="round" stroke-miterlimit="10" stroke-width="1.006" r="3.7"/>
  <path class="st95" d="M35.4 31.6s-.5 1.7 0 3c.4 1.3 1.7 2.4 1.7 2.4m-6.2-4s1.3 1.1 1.7 2.4c.4 1.3 0 3 0 3" fill="none" stroke="#45413C" stroke-linecap="round" stroke-linejoin="round" stroke-miterlimit="10" stroke-width="1.006"/>
</svg>
