<svg viewBox="0 0 24 24" xmlns="http://www.w3.org/2000/svg" focusable="false">
  <path d="M19.75 9.8a.75.75 0 01.75.75c0 4.593-3.525 8.373-8 8.757v2.443a.75.75 0 01-1.5 0v-2.443c-4.475-.383-8-4.164-8-8.756a.75.75 0 011.5 0c0 4.018 3.252 7.288 7.25 7.288S19 14.569 19 10.55a.75.75 0 01.75-.75zm-8-8.8c2.652 0 4.812 2.167 4.812 4.831v4.688c0 2.663-2.16 4.83-4.813 4.83-2.652 0-4.811-2.167-4.811-4.83V5.831C6.938 3.167 9.097 1 11.75 1zm0 1.5c-1.827 0-3.313 1.494-3.313 3.331v4.688c0 1.835 1.487 3.33 3.313 3.33 1.825 0 3.312-1.495 3.312-3.33V5.831c0-1.837-1.486-3.331-3.313-3.331z" fill-rule="evenodd"/>
</svg>
