<svg data-name="Layer 1" xmlns="http://www.w3.org/2000/svg" viewBox="0 0 24 24" focusable="false">
  <path d="M8.675 14.074A3.686 3.686 0 005.8 12.6a.34.34 0 00-.1-.01 3.705 3.705 0 000 7.41l.004-.003h11.011l.005.003a5.283 5.283 0 00.83-10.5A6.147 6.147 0 105.8 12.6" stroke="#030835" fill="none" stroke-linecap="round" stroke-miterlimit="10" stroke-width="1.5"/>
  <path d="M11.43 4a6.148 6.148 0 00-5.63 8.6m2.875 1.474A3.686 3.686 0 005.8 12.6a.34.34 0 00-.1-.01 3.705 3.705 0 000 7.41l.004-.003"/>
</svg>
