<svg xmlns="http://www.w3.org/2000/svg" class="icon icon-tabler icon-tabler-alien" stroke-width="2" stroke="currentColor" fill="none" stroke-linecap="round" stroke-linejoin="round" viewBox="0 0 24 24">
  <path d="M0 0h24v24H0z" stroke="none"/>
  <path d="M11 17a2.5 2.5 0 002 0M12 3C7.336 3 4.604 5.331 4.138 8.595a11.816 11.816 0 001.998 8.592 10.777 10.777 0 003.199 3.064h0a5.114 5.114 0 005.33 0h0a10.777 10.777 0 003.199-3.064 11.89 11.89 0 001.998-8.592C19.396 5.33 16.664 3 12 3zm-4 8l2 2m6-2l-2 2"/>
</svg>
