<svg viewBox="0 0 24 24" xmlns="http://www.w3.org/2000/svg" focusable="false">
  <path d="M8.848 12.314v3.745m1.911-1.872H6.938m8.428-1.759h-.107m1.921 3.575h-.107M8.072 2h0c0 .74.613 1.34 1.368 1.34h1.057c1.165.005 2.11.93 2.115 2.073v.675m3.816 15.875c-3.005.05-5.955.048-8.855 0C4.353 21.963 2 19.666 2 16.51v-4.65c0-3.154 2.354-5.45 5.573-5.45 2.916-.05 5.868-.05 8.855 0 3.22 0 5.572 2.297 5.572 5.45v4.65c0 3.155-2.352 5.452-5.572 5.452z" stroke="#000" stroke-width="1.5" fill="none" stroke-linecap="round" stroke-linejoin="round"/>
</svg>
