<svg viewBox="0 0 24 24" xmlns="http://www.w3.org/2000/svg" focusable="false">
  <path d="M10.63 3.354a2.832 2.832 0 013.847 1.106l7.272 12.726a.83.83 0 01.044.09c.12.294.187.603.204.919a2.809 2.809 0 01-.725 2.04 2.805 2.805 0 01-1.956.932H8.56a.75.75 0 010-1.5h10.72c.315-.017.641-.171.88-.436a1.319 1.319 0 00.26-1.35L13.17 5.195a1.334 1.334 0 00-1.812-.528c-.219.12-.398.3-.519.519L3.583 17.882c-.117.318-.109.663.023.976.138.327.395.58.724.714.14.057.283.089.432.097a.75.75 0 01-.038 1.499l-.038-.001a2.806 2.806 0 01-.922-.205 2.811 2.811 0 01-1.539-1.52 2.805 2.805 0 01-.015-2.166.618.618 0 01.043-.09L9.53 4.45a2.83 2.83 0 011.1-1.097zm1.371 12.16c.414 0 .75.33.75.745v.01a.75.75 0 01-1.5 0c0-.414.336-.755.75-.755zm0-6.243a.75.75 0 01.75.75v2.827a.75.75 0 01-1.5 0v-2.827a.75.75 0 01.75-.75z"/>
</svg>
