<svg xmlns="http://www.w3.org/2000/svg" viewBox="0 0 24 24" focusable="false">
  <path fill="none" d="M0 0h24v24H0z"/>
  <path d="M18.205 6.819H5.825a1.046 1.046 0 00-1.04 1.04v9.14a4.995 4.995 0 005 5h4.46a4.995 4.995 0 005-5v-9.14a1.04 1.04 0 00-1.04-1.04zm-5.464 11.05a.75.75 0 01-1.5 0v-4.05a.75.75 0 011.5 0zM19.242 5.44H4.758a.723.723 0 010-1.446h14.484a.723.723 0 010 1.445z"/>
  <path d="M13.92 5.368a.723.723 0 01-.722-.723 1.197 1.197 0 10-2.394 0 .723.723 0 11-1.446 0 2.643 2.643 0 115.285 0 .723.723 0 01-.722.723z"/>
</svg>
