<svg viewBox="0 0 24 24" xmlns="http://www.w3.org/2000/svg" focusable="false">
  <path d="M12.014 2c2.292 0 4.338 1.434 5.089 3.567a.748.748 0 01-.472.955.766.766 0 01-.97-.464C15.125 4.528 13.657 3.5 12.01 3.5h-.017c-2.125 0-3.857 1.694-3.866 3.784v1.343h7.756c2.547 0 4.617 2.037 4.617 4.542v4.289c0 2.505-2.07 4.542-4.617 4.542h-3.44a.757.757 0 01-.763-.75c0-.414.342-.75.763-.75h3.41c1.705 0 3.093-1.364 3.093-3.042 0-.052.02-.097.03-.144v-4.145c0-1.678-1.387-3.042-3.093-3.042H8.117c-1.705 0-3.092 1.364-3.092 3.042v4.145c.01.047.03.092.03.144 0 1.678 1.387 3.042 3.092 3.042.421 0 .763.336.763.75s-.342.75-.763.75l-.02-.002-.01.002C5.57 22 3.5 19.963 3.5 17.458v-4.289c0-1.98 1.302-3.65 3.102-4.271V7.301C6.615 4.363 9.03 2 11.99 2zM12 13.453c.42 0 .762.336.762.75v2.22c0 .415-.341.75-.762.75a.757.757 0 01-.762-.75v-2.22c0-.414.341-.75.762-.75z"/>
</svg>
