<svg viewBox="0 0 24 24" xmlns="http://www.w3.org/2000/svg" fill="currentColor" focusable="false">
  <path d="M17.318 3c1.014 0 1.881.36 2.602 1.08.72.72 1.08 1.588 1.08 2.602v10.636c0 1.014-.36 1.881-1.08 2.602A3.548 3.548 0 0117.318 21H6.682a3.548 3.548 0 01-2.602-1.08A3.548 3.548 0 013 17.318V6.682C3 5.668 3.36 4.8 4.08 4.08A3.548 3.548 0 016.682 3zm-.262 2H6.944c-.534 0-.992.19-1.373.571C5.191 5.952 5 6.41 5 6.945v10.11c0 .535.19.993.571 1.374.381.38.839.57 1.373.57h10.112c.534 0 .992-.19 1.373-.57.38-.381.571-.839.571-1.373V6.945c0-.535-.19-.993-.571-1.374a1.873 1.873 0 00-1.373-.57zm-2.692 3c.45 0 .836.16 1.156.48.32.32.48.706.48 1.156v4.728c0 .45-.16.836-.48 1.156-.32.32-.706.48-1.156.48H9.636c-.45 0-.836-.16-1.156-.48-.32-.32-.48-.706-.48-1.156V9.636c0-.45.16-.836.48-1.156.32-.32.706-.48 1.156-.48zm-.703 1.7H10.34a.615.615 0 00-.451.188.615.615 0 00-.188.45v3.323c0 .176.063.326.188.451a.615.615 0 00.45.188h3.323a.615.615 0 00.451-.188.615.615 0 00.188-.45v-3.323a.615.615 0 00-.188-.451.615.615 0 00-.45-.188z" fill="none"/>
</svg>
