<svg xmlns="http://www.w3.org/2000/svg" viewBox="0 0 32 32" focusable="false">
  <path fill="#65c5b4" d="M23.806 11.222v15.652c0 .903-.728 1.63-1.63 1.63H10.218c-.904 0-1.63-.727-1.63-1.63V11.222"/>
  <path fill="#938993" d="M9.132 4.591h14.13c.903 0 1.66.728 1.63 1.63v4.891H7.503v-4.89c0-.904.726-1.63 1.63-1.63z"/>
  <path fill="#f2f2f2" d="M8.595 15.465H23.8v6.517H8.595"/>
  <path fill="#62355c" d="M9.13 4.091C7.96 4.091 7 5.05 7 6.221v4.889a.5.5 0 00.502.502h.585v15.26c0 1.171.96 2.13 2.131 2.13h11.957a2.137 2.137 0 002.131-2.13v-15.26h.586a.5.5 0 00.5-.502V6.22l-.002.018c.04-1.191-.957-2.147-2.129-2.147H9.131zm0 1h.045v3.84a.5.5 0 101 0v-3.84h1.172v3.84a.5.5 0 101 0v-3.84h1.176v3.84a.5.5 0 101 0v-3.84h1.172v3.84a.5.5 0 101 0v-3.84h1.174v3.84a.5.5 0 101 0v-3.84h1.174v3.84a.5.5 0 101 0v-3.84h1.173v3.84a.5.5 0 101 0v-3.84h.045c.635 0 1.154.499 1.133 1.114a.5.5 0 00-.004.015v4.392H8.001V6.22c0-.635.494-1.129 1.13-1.129zm-.04 6.522h14.214v3.351H9.09v-3.351zm0 4.351h14.214v5.516H9.09v-5.516zm2.769 1.17a.5.5 0 100 1h8.674a.5.5 0 100-1h-8.674zm0 2.174a.5.5 0 100 1h8.674a.5.5 0 100-1h-8.674zm-2.77 3.174h14.215v4.39c0 .636-.494 1.132-1.129 1.132H10.218a1.116 1.116 0 01-1.129-1.131v-4.391z" color="#000" font-family="sans-serif" font-weight="400" overflow="visible"/>
</svg>
