<svg xmlns="http://www.w3.org/2000/svg" viewBox="0 0 24 24">
  <path fill="#200E32" d="M18.965 12.791c1.67.005 3.025 1.384 3.035 3.089v3.022c-.01 1.707-1.363 3.088-3.035 3.098h-2.96c-1.67-.01-3.02-1.393-3.026-3.098V15.88c0-1.706 1.355-3.089 3.026-3.089zm-12.714 0a.811.811 0 01.779.387.848.848 0 010 .884.811.811 0 01-.78.387H5.036c-.776 0-1.406.64-1.41 1.43v2.985c.019.785.64 1.416 1.41 1.43h2.979c.373.003.732-.146.997-.415s.414-.634.414-1.015v-4.481l-.013-.112a.839.839 0 01.378-.744.803.803 0 01.914.027.844.844 0 01.317.876v4.462c0 1.711-1.359 3.099-3.035 3.099H5.035c-1.662-.036-3-1.402-3.035-3.099V15.88c0-.821.32-1.608.89-2.188a2.994 2.994 0 012.145-.9zm12.714 1.658h-2.96c-.774 0-1.402.64-1.402 1.43v3.023c-.002.38.145.745.408 1.014.263.27.621.42.994.417h2.96c.373.002.73-.148.994-.417a1.44 1.44 0 00.408-1.014V15.88c0-.38-.148-.744-.41-1.012a1.387 1.387 0 00-.992-.419zm0-12.449c1.658.04 2.991 1.405 3.026 3.098v3.013c.01.819-.3 1.609-.86 2.195a2.996 2.996 0 01-2.129.931h-1.225a.828.828 0 01-.73-.829c0-.426.315-.783.73-.829h1.188c.376-.002.735-.158.998-.431.263-.274.409-.644.404-1.028V5.098c-.01-.786-.632-1.42-1.402-1.43h-2.96c-.774 0-1.402.64-1.402 1.43v4.52l-.01.103a.831.831 0 01-.825.711.8.8 0 01-.569-.258.834.834 0 01-.22-.595V5.1a3.122 3.122 0 01.883-2.191A2.995 2.995 0 0116.005 2zM7.995 2c1.674.005 3.03 1.39 3.035 3.098V8.12c0 .821-.32 1.608-.89 2.188-.569.58-1.34.903-2.145.9h-2.96C3.365 11.205 2.01 9.826 2 8.12V5.098C2.01 3.391 3.363 2.01 5.035 2zm0 1.667h-2.96a1.39 1.39 0 00-1.01.41c-.268.268-.42.637-.42 1.021V8.12c-.007.39.141.765.41 1.04.27.276.638.427 1.02.42h2.96c.376-.003.735-.159.998-.432.264-.274.409-.644.404-1.028V5.098c-.005-.788-.63-1.425-1.402-1.43z"/>
</svg>
