<svg xmlns="http://www.w3.org/2000/svg" viewBox="0 0 32 32">
  <path d="M16 9.472a1.865 1.865 0 01-1.865-1.865V2.011a1.865 1.865 0 013.73 0v5.596c0 1.03-.835 1.865-1.865 1.865zm0 21.683a1.166 1.166 0 01-1.166-1.166v-5.596a1.166 1.166 0 112.332 0v5.596c0 .644-.522 1.166-1.166 1.166zM11.805 10.48a1.749 1.749 0 01-1.516-.875L7.491 4.759A1.75 1.75 0 0110.52 3.01l2.798 4.846a1.75 1.75 0 01-1.513 2.624zm11.19 18.684a1.05 1.05 0 01-.91-.525l-2.798-4.846a1.049 1.049 0 111.817-1.049l2.798 4.846a1.049 1.049 0 01-.908 1.574zM8.729 13.436c-.277 0-.557-.07-.814-.219l-4.846-2.798a1.631 1.631 0 111.632-2.826l4.846 2.798a1.631 1.631 0 01-.818 3.045zm19.385 10.491a.923.923 0 01-.465-.125l-4.846-2.798a.932.932 0 11.933-1.615l4.846 2.798a.932.932 0 01-.468 1.74zM7.607 17.515H2.011a1.515 1.515 0 110-3.03h5.596a1.515 1.515 0 110 3.03zm22.382-.582h-5.596a.933.933 0 010-1.866h5.596a.933.933 0 010 1.866zM3.886 24.394a1.399 1.399 0 01-.701-2.611l4.846-2.798a1.398 1.398 0 111.399 2.423l-4.846 2.798c-.22.127-.461.188-.698.188zM23.27 12.736a.934.934 0 01-.468-1.74l4.846-2.798a.933.933 0 01.933 1.615l-4.846 2.798a.925.925 0 01-.465.125zM9.004 29.397a1.283 1.283 0 01-1.109-1.924l2.798-4.846a1.283 1.283 0 012.221 1.283l-2.798 4.846a1.281 1.281 0 01-1.112.641zM20.196 9.664a.932.932 0 01-.806-1.399l2.798-4.846a.932.932 0 111.615.933l-2.798 4.846a.932.932 0 01-.809.466z"/>
</svg>
