<svg viewBox="0 0 24 24" xmlns="http://www.w3.org/2000/svg" focusable="false">
  <g fill="none" fill-rule="evenodd">
    <path d="M0 0h24v24H0z"/>
    <path d="M20 15a1 1 0 011 1v2a3 3 0 01-2.824 2.995L18 21h-2a1 1 0 010-2h2a1 1 0 00.993-.883L19 18v-2a1 1 0 011-1zM4 15a1 1 0 011 1v2a1 1 0 00.883.993L6 19h2a1 1 0 010 2H6a3 3 0 01-2.995-2.824L3 18v-2a1 1 0 011-1zm8-2.145c1.669 0 5 .838 5 2.5v1.25H7v-1.25c0-1.662 3.331-2.5 5-2.5zm0-6.25a2.5 2.5 0 11.001 4.999A2.5 2.5 0 0112 6.605zM8 3a1 1 0 110 2H6a1 1 0 00-.993.883L5 6v2a1 1 0 11-2 0V6a3 3 0 012.824-2.995L6 3h2zm10 0a3 3 0 012.995 2.824L21 6v2a1 1 0 01-2 0V6a1 1 0 00-.883-.993L18 5h-2a1 1 0 010-2h2z" fill="#404040"/>
  </g>
</svg>
