<svg viewBox="0 0 24 24" xmlns="http://www.w3.org/2000/svg" focusable="false">
  <path d="M16.664 21.99h-9.33A5.343 5.343 0 013.4 20.6a5.346 5.346 0 01-1.389-3.936v-9.33a5.345 5.345 0 011.388-3.936A5.347 5.347 0 017.335 2.01h9.33a5.338 5.338 0 013.932 1.388 5.372 5.372 0 011.393 3.937v9.33a5.35 5.35 0 01-1.389 3.936 5.347 5.347 0 01-3.937 1.389" opacity=".4"/>
  <path d="M17.055 10.398l-6.553 6.585a1.8 1.8 0 01-1.256.517H6.958a.463.463 0 01-.331-.137.457.457 0 01-.127-.331l.058-2.312c.01-.459.195-.888.516-1.21l4.645-4.654a.211.211 0 01.292 0l1.629 1.623a.615.615 0 00.428.175c.36 0 .643-.293.643-.644a.661.661 0 00-.175-.449c-.03-.039-1.58-1.583-1.58-1.583a.26.26 0 010-.36l.652-.664a1.538 1.538 0 012.18 0l1.267 1.268a1.55 1.55 0 010 2.176"/>
</svg>
