<svg xmlns="http://www.w3.org/2000/svg" viewBox="0 0 32 32">
  <g transform="rotate(-45 -1353.09 839.063) scale(1.00765)">
    <path fill="#f6b577" d="M199.5 1219.862v7.556c0 .8-.669 1.444-1.5 1.444h-5c-.831 0-1.5-.644-1.5-1.444v-23.111c0-.8.669-1.445 1.5-1.445h5c.831 0 1.5.644 1.5 1.445v7.477z"/>
    <rect width="8" height="26" x="1211.862" y="-208.5" fill="#f6b577" rx="1.5" ry="1.444" transform="rotate(90)"/>
    <path fill="#62355c" style="line-height:normal;text-indent:0;text-align:start;text-decoration-line:none;text-decoration-style:solid;text-decoration-color:#000;text-transform:none;block-progression:tb;isolation:auto;mix-blend-mode:normal" d="M199.409 1202.93a2.031 2.031 0 00-1.41-.568h-5c-1.089 0-2 .865-2 1.944v7.055h-7.054c-1.079 0-1.946.911-1.946 2v5c0 1.09.867 2.001 1.946 2.001h7.056v7.056c0 1.08.91 1.944 1.998 1.944h5c1.09 0 2.001-.865 2.001-1.944v-7.057h7.055c1.078 0 1.944-.91 1.944-2v-5c0-1.089-.866-1.999-1.944-1.999H200v-7.055c0-.539-.227-1.026-.591-1.378zm-.694.708a.925.925 0 01.285.67v7.054l-7-.001v-7.055c0-.521.427-.944 1-.944h5c.285 0 .536.105.715.276zm9.008 9.009c.171.178.276.429.276.715v5c0 .572-.423 1-.944 1h-7.469a.501.501 0 00-.166 0h-7.833a.503.503 0 00-.166 0h-7.476c-.521 0-.946-.428-.946-1v-5c0-.573.425-1.001.946-1.001l23.11.001a.92.92 0 01.668.285zm-10.164-7.845a1.497 1.497 0 00-1.06-.44h-1c-.68-.014-.68 1.013 0 1h1c.286 0 .5.214.5.5l.002 4c-.014.68 1.013.68 1 0l-.002-4c0-.412-.168-.788-.44-1.06zm9.293 10.7a.5.5 0 00-.852.36v1a.49.49 0 01-.5.5h-4c-.68-.014-.68 1.013 0 1h4c.822 0 1.5-.678 1.5-1.5v-1a.5.5 0 00-.148-.36zm-7.852 4.86v7.057c0 .521-.428.943-1 .943h-5c-.573 0-.999-.422-.999-.943v-7.058h7zm-9.157-6.863a.502.502 0 00-.35-.137l-4-.001c-.823 0-1.5.677-1.5 1.5v1c-.015.68 1.013.68 1 0v-1c0-.286.214-.5.5-.5h4a.5.5 0 00.35-.862zm4.01 8.002a.5.5 0 00-.852.36l-.001 4.001c0 .823.677 1.5 1.5 1.5h1c.68.014.68-1.014 0-1h-1a.488.488 0 01-.5-.5l.001-4a.5.5 0 00-.148-.361z" color="#000" font-family="sans-serif" font-weight="400" overflow="visible"/>
    <path fill="#fbdabb" d="M197.86 1213.514a.5.5 0 10-.719.697.5.5 0 00.719-.697zm-2 0a.5.5 0 10-.718.697.5.5 0 00.718-.697zm.962 1.965a.5.5 0 10-.643.765.5.5 0 00.643-.765zm-3-2a.5.5 0 10-.646.768.5.5 0 00.647-.768zm4 4a.5.5 0 10-.646.768.5.5 0 00.646-.768zm-3-2a.5.5 0 10-.646.768.5.5 0 00.647-.768zm1.036 2.036a.5.5 0 10-.718.697.5.5 0 00.718-.697zm-2 0a.5.5 0 10-.718.697.5.5 0 00.719-.697z" color="#000" font-family="sans-serif" font-weight="400" overflow="visible" style="line-height:normal;text-indent:0;text-align:start;text-decoration-line:none;text-decoration-style:solid;text-decoration-color:#000;text-transform:none;block-progression:tb;isolation:auto;mix-blend-mode:normal"/>
  </g>
</svg>
