<svg viewBox="0 0 24 24" xmlns="http://www.w3.org/2000/svg" focusable="false">
  <g fill="none" fill-rule="evenodd">
    <path d="M0 0h24v24H0z"/>
    <path d="M18.364 4.535c3.515 3.38 3.515 8.86 0 12.24l-4.773 4.591a2.314 2.314 0 01-3.182 0l-4.773-4.59c-3.515-3.38-3.515-8.86 0-12.24 3.515-3.381 9.213-3.381 12.728 0zM12 6.837c-2.193 0-3.97 1.71-3.97 3.819 0 2.108 1.777 3.818 3.97 3.818 2.193 0 3.97-1.71 3.97-3.818 0-2.11-1.777-3.82-3.97-3.82z" fill="currentColor" fill-rule="nonzero"/>
  </g>
</svg>
