<?xml version="1.0" encoding="UTF-8"?>
<svg width="24px" height="24px" viewBox="0 0 24 24" version="1.1" xmlns="http://www.w3.org/2000/svg" xmlns:xlink="http://www.w3.org/1999/xlink">
    <title>Icons/24/Pin</title>
    <g id="Icons/24/Pin" stroke="none" stroke-width="1" fill="none" fill-rule="evenodd">
        <rect id="Container" fill-opacity="0" fill="#D8D8D8" fill-rule="nonzero" x="0" y="0" width="24" height="24"></rect>
        <path d="M18.363961,4.53514751 C21.8786797,7.91534418 21.8786797,13.3957258 18.363961,16.7759225 L13.5909903,21.3662131 C12.7123106,22.2112623 11.2876894,22.2112623 10.4090097,21.3662131 L5.63603897,16.7759225 C2.12132034,13.3957258 2.12132034,7.91534418 5.63603897,4.53514751 C9.15075759,1.15495083 14.8492424,1.15495083 18.363961,4.53514751 Z M12,6.83691662 C9.80710467,6.83691662 8.02941176,8.54657031 8.02941176,10.655535 C8.02941176,12.7644997 9.80710467,14.4741534 12,14.4741534 C14.1928953,14.4741534 15.9705882,12.7644997 15.9705882,10.655535 C15.9705882,8.54657031 14.1928953,6.83691662 12,6.83691662 Z" id="Shape" fill="#404040" fill-rule="nonzero"></path>
    </g>
</svg>