<svg viewBox="0 0 24 24" xmlns="http://www.w3.org/2000/svg" focusable="false">
  <path d="M18.451 4c2.232 0 4.048 1.798 4.048 4.007L22.5 10.6a.749.749 0 01-.75.75c-.787 0-1.427.628-1.427 1.4 0 .772.64 1.4 1.427 1.4a.75.75 0 01.75.75v2.592c0 2.209-1.816 4.007-4.048 4.007H5.048C2.816 21.5 1 19.702 1 17.493V14.9a.75.75 0 01.75-.75c.787 0 1.427-.628 1.427-1.4 0-.75-.614-1.316-1.427-1.316a.749.749 0 01-.75-.75l.001-2.678C1.001 5.797 2.817 4 5.049 4h13.402zm0 1.5h-4.102v1.92a.75.75 0 01-1.5 0V5.5h-7.8c-1.405 0-2.548 1.125-2.548 2.507L2.5 10.025c1.267.31 2.177 1.397 2.177 2.726A2.91 2.91 0 012.5 15.554v1.939C2.5 18.875 3.643 20 5.048 20h7.801v-1.49a.75.75 0 111.5 0V20h4.103C19.857 20 21 18.875 21 17.493v-1.94a2.91 2.91 0 01-2.177-2.802c0-1.343.925-2.474 2.177-2.803l-.001-1.941c0-1.382-1.143-2.507-2.548-2.507zM13.6 9.504a.75.75 0 01.75.75v4.821a.75.75 0 01-1.5 0v-4.82a.75.75 0 01.75-.75z" fill-rule="evenodd"/>
</svg>
