<svg xmlns="http://www.w3.org/2000/svg" viewBox="0 0 48 48">
  <ellipse cx="25.2" cy="44" rx="10" ry="1.5" fill="#45413c" opacity=".15"/>
  <path class="st10" d="M26.6 10.2c-.8-1.4-1.8-3.8-1.8-7.8 0 3.9-.9 6.3-1.8 7.7" fill="none" stroke="#45413C" stroke-linecap="round" stroke-linejoin="round" stroke-miterlimit="10"/>
  <ellipse transform="rotate(-40.051 15.707 17.203)" class="st51" cx="15.7" cy="17.2" rx="10.2" ry="3" fill="#EBCB00" stroke="#45413C" stroke-linecap="round" stroke-linejoin="round" stroke-miterlimit="10"/>
  <path class="st11" d="M23.5 10.6c-1.1-1.3-5.4.7-9.7 4.3-4.3 3.6-6.9 7.6-5.9 8.8C4.3 19.5 4.8 13 9.2 9.4c4.3-3.6 10.7-3.1 14.3 1.2z" fill="#FFE500"/>
  <path class="st45" d="M9.2 11.5c3.4-2.9 8.2-3.1 11.8-.9 1.2-.4 2.1-.4 2.5.1-3.6-4.3-10-4.9-14.4-1.2-2.7 2.3-3.9 5.7-3.6 8.9.3-2.6 1.5-5.1 3.7-6.9z" fill="#FFF48C"/>
  <path class="st10" d="M23.5 10.6c-1.1-1.3-5.4.7-9.7 4.3-4.3 3.6-6.9 7.6-5.9 8.8C4.3 19.5 4.8 13 9.2 9.4c4.3-3.6 10.7-3.1 14.3 1.2z" fill="none" stroke="#45413C" stroke-linecap="round" stroke-linejoin="round" stroke-miterlimit="10"/>
  <ellipse transform="rotate(-49.949 33.935 17.203)" class="st51" cx="33.9" cy="17.2" rx="3" ry="10.2" fill="#EBCB00" stroke="#45413C" stroke-linecap="round" stroke-linejoin="round" stroke-miterlimit="10"/>
  <path class="st11" d="M26.1 10.6c1.1-1.3 5.4.7 9.7 4.3 4.3 3.6 6.9 7.6 5.9 8.8 3.6-4.3 3.1-10.7-1.2-14.4-4.3-3.5-10.7-3-14.4 1.3z" fill="#FFE500"/>
  <path class="st45" d="M40.5 11.5c-3.4-2.9-8.2-3.1-11.8-.9-1.2-.4-2.1-.4-2.5.1 3.6-4.3 10-4.9 14.4-1.2 2.7 2.3 3.9 5.7 3.6 8.9-.4-2.6-1.6-5.1-3.7-6.9z" fill="#FFF48C"/>
  <path class="st10" d="M26.1 10.6c1.1-1.3 5.4.7 9.7 4.3 4.3 3.6 6.9 7.6 5.9 8.8 3.6-4.3 3.1-10.7-1.2-14.4-4.3-3.5-10.7-3-14.4 1.3z" fill="none" stroke="#45413C" stroke-linecap="round" stroke-linejoin="round" stroke-miterlimit="10"/>
  <path d="M4.9 27.8C4.1 29 3 29.6 1.7 29.7l-1.2-2c1.4-.1 2.5-.7 3.3-1.8l1.1 1.9z" fill="#00f5bc" stroke="#45413c" stroke-linecap="round" stroke-linejoin="round" stroke-miterlimit="10"/>
  <path d="M32.2 15.5c0 1.4-.5 2.5-1.6 3.4l-2.1-1c1.1-.8 1.7-2 1.6-3.4l2.1 1z" fill="#ff6242" stroke="#45413c" stroke-linecap="round" stroke-linejoin="round" stroke-miterlimit="10"/>
  <path d="M31.4 38.8c-.9-1.1-1.1-2.3-.8-3.7l2.3-.5c-.3 1.3-.1 2.6.8 3.7l-2.3.5z" fill="#ff6196" stroke="#45413c" stroke-linecap="round" stroke-linejoin="round" stroke-miterlimit="10"/>
  <path class="st53" d="M19.8 14.6c-.9 1.1-1.1 2.3-.7 3.7l2.3.5c-.4-1.3-.1-2.6.7-3.7l-2.3-.5zm23.7 12.8c1.2.8 2.4.9 3.7.5l.3-2.3c-1.3.5-2.6.3-3.7-.5l-.3 2.3z" fill="#BF8DF2" stroke="#45413C" stroke-linecap="round" stroke-linejoin="round" stroke-miterlimit="10"/>
  <path d="M28.2 30.2c-.7 1.2-1.7 1.9-3.1 2.1l-1.3-1.9c1.4-.2 2.4-.9 3.1-2.1l1.3 1.9z" fill="#ff8a14" stroke="#45413c" stroke-linecap="round" stroke-linejoin="round" stroke-miterlimit="10"/>
  <path d="M22.3 22.9c1.4.1 2.5.7 3.2 1.9l-1.2 2c-.8-1.2-1.8-1.8-3.2-1.9l1.2-2z" fill="#4aeff7" stroke="#45413c" stroke-linecap="round" stroke-linejoin="round" stroke-miterlimit="10"/>
  <path d="M16.6 37.1c.3-1.4 1.1-2.3 2.4-2.8l1.8 1.5c-1.3.5-2.1 1.5-2.4 2.8l-1.8-1.5z" fill="#fff48c" stroke="#45413c" stroke-linecap="round" stroke-linejoin="round" stroke-miterlimit="10"/>
  <path d="M18.7 20.8l-2 .2s.1 3-1.2 6.1c-.2-.5-.6-.9-1-1.2-1.7-1.4-4.2-1.1-5.5.6-1.4 1.7-1.1 4.2.6 5.5.6.5 1.3.8 2 .8C9.1 35.5 6 36.4 6 36.4l.5 1.9c3-.9 6.7-3.4 8.7-6.9 2.6-3.1 3.8-7.4 3.5-10.6zm-8.2 6.9c.7-.9 1.9-1 2.8-.3.9.7 1 1.9.3 2.8-.7.9-1.9 1-2.8.3-.8-.7-.9-1.9-.3-2.8z" fill="#ff6242"/>
  <path class="st58" d="M15.2 31.4c-.9 1.1-2.2 1.6-3.5 1.5-.4.4-.8.8-1.2 1.1.9.3 1.8.3 2.7.2.8-.9 1.5-1.8 2-2.8z" fill="#E04122"/>
  <path class="st10" d="M10.5 27.7c-.7.9-.5 2.1.3 2.8.9.7 2.1.5 2.8-.3.7-.9.5-2.1-.3-2.8-.8-.7-2.1-.5-2.8.3z" fill="none" stroke="#45413C" stroke-linecap="round" stroke-linejoin="round" stroke-miterlimit="10"/>
  <path class="st58" d="M13.7 30.2c.8-1 1.4-2 1.9-3.1-.2-.4-.6-.8-1-1.2-.2.6-.5 1.3-.9 1.9.5.7.5 1.7 0 2.4z" fill="#E04122"/>
  <path class="st10" d="M13.6 30.2c3.4-3.9 3.1-9.2 3.1-9.2l2-.2c.3 3.2-.9 7.5-3.6 10.6" fill="none" stroke="#45413C" stroke-linecap="round" stroke-linejoin="round" stroke-miterlimit="10"/>
  <path d="M38.1 32c.7-.2 1.3-.6 1.8-1.1 1.5-1.6 1.3-4.1-.3-5.6-1.6-1.4-4.1-1.3-5.6.3-.4.4-.6.9-.8 1.3-1.8-2.9-2.2-5.8-2.2-5.8l-2 .2c.3 3.2 2.1 7.2 5.2 9.8 2.5 3.1 4.9 3.6 8.1 3.9l.2-2c.1.2-2 .6-4.4-1zm-2.6-5c.7-.8 2-.9 2.8-.1.8.7.9 2 .1 2.8-.7.8-2 .9-2.8.1-.7-.8-.8-2-.1-2.8z" fill="#6dd627"/>
  <path class="st59" d="M34.3 31.2l-.1-.1c1 1.3 2 2.1 3 2.7.9 0 1.9-.3 2.7-.8-.6-.2-1.2-.5-1.8-.9-1.3.3-2.7.1-3.8-.9zm1.3-1.5c-1-.8-1.7-1.8-2.3-2.7.2-.5.4-.9.7-1.3.3.5 1.1 1.6 1.2 1.7-.3.8-.2 1.7.4 2.3z" fill="#46B000"/>
  <path class="st10" d="M38.1 32c.7-.2 1.3-.6 1.8-1.1 1.5-1.6 1.3-4.1-.3-5.6-1.6-1.4-4.1-1.3-5.6.3-.4.4-.6.9-.8 1.3-1.8-2.9-2.2-5.8-2.2-5.8l-2 .2c.3 3.2 2.1 7.2 5.2 9.8 2.5 3.1 4.9 3.6 8.1 3.9l.2-2c.1.2-2 .6-4.4-1zm-2.6-5c.7-.8 2-.9 2.8-.1.8.7.9 2 .1 2.8-.7.8-2 .9-2.8.1-.7-.8-.8-2-.1-2.8zm-1.2 4.2c1.1.9 2.5 1.2 3.8.8m-2.4-2.3c-1-.8-1.8-1.8-2.4-2.8m-17.8.2c-.5 1.1-1.1 2.1-1.9 3.1m-2 2.7c1.3.1 2.6-.3 3.6-1.5" fill="none" stroke="#45413C" stroke-linecap="round" stroke-linejoin="round" stroke-miterlimit="10"/>
  <path d="M18.7 20.8l-2 .2s.1 3-1.2 6.1c-.2-.5-.6-.9-1-1.2-1.7-1.4-4.2-1.1-5.5.6-1.4 1.7-1.1 4.2.6 5.5.6.5 1.3.8 2 .8C9.1 35.5 6 36.4 6 36.4l.5 1.9c3-.9 6.7-3.4 8.7-6.9 2.6-3.1 3.8-7.4 3.5-10.6zm-8.2 6.9c.7-.9 1.9-1 2.8-.3.9.7 1 1.9.3 2.8-.7.9-1.9 1-2.8.3-.8-.7-.9-1.9-.3-2.8z" fill="none" stroke="#45413c" stroke-miterlimit="10"/>
</svg>
