<svg xmlns="http://www.w3.org/2000/svg" viewBox="0 0 176 183" focusable="false">
  <path d="M70.6 1.6C53.3 5.3 40.4 12.5 27.4 25.4c-36 35.9-36.8 93.3-1.8 130.5 27.9 29.6 71.6 35.7 106.9 14.9 9.7-5.8 23.9-20.2 29.9-30.3 21.9-37.5 17.2-82.4-12-113.4-12.7-13.5-27.5-21.8-45.6-25.5-9.5-2-25-1.9-34.2 0zm36.9 7.9c27.9 7.7 50.1 30.4 58.7 60 2 6.8 2.3 10.3 2.3 23.5 0 18.2-1.7 25.8-9 40-8.5 16.3-19 26.8-35 34.5C71.8 193.2 10.9 155.7 7.3 95.4c-2.5-43 23.3-78.3 63.7-87 8.2-1.7 28.2-1.1 36.5 1.1z"/>
  <path d="M49.5 56.9C40.9 59 32.9 67 35.1 71.2c1.5 2.7 3.4 2.2 6.4-1.8 4.5-5.9 12.4-8 18.3-5 1.5.8 4.2 3 6 5 3.6 4 4.4 4.3 6.2 2.1 2.9-3.4-4.3-11.6-12.3-14-5.5-1.6-5.8-1.6-10.2-.6zm68 0c-5 1.3-9.3 3.9-11.9 7.4-2.9 3.8-3.4 7.2-1.1 8.1 2.2.8 3.8-.1 5.6-3.2 1.9-3.3 7.4-6.2 11.7-6.2 4.8 0 8.2 1.7 12.2 6.1 6 6.6 9.9 2.4 4.4-4.8-4.4-5.7-13.9-9.1-20.9-7.4zM64 128v3h48v-6H64v3z"/>
</svg>
