<svg xmlns="http://www.w3.org/2000/svg" viewBox="0 0 48 48" focusable="false">
  <path d="M5.9 25.6c.7-.1 1.4.4 1.6 1l.7 1.8c.8 2 .8 4.3 0 6.3-.9 2.2-2.8 4-5.1 4.7H3c-.7.2-1.4 0-1.8-.6-.4-.6-.4-1.4.1-1.9l1-1.1c.7-.8 1.2-1.6 1.6-2.5.6-1.5.8-3.1.6-4.7l-.1-1.1c-.2-1 .5-1.8 1.5-1.9z" fill="#ffe500"/>
  <path d="M4.5 28.6v.5c.3-.5.7-.8 1.3-.9.7-.1 1.4.4 1.6 1l.8 1.8c.3.6.4 1.2.5 1.9.2-1.5.1-3-.5-4.4l-.7-1.8c-.3-.7-.9-1.1-1.6-1-.9.1-1.6.9-1.5 1.9l.1 1zM1.6 39.2l.7-.8c.6-.8 1.2-1.6 1.5-2.5.6-1.5.8-3.1.6-4.7v-.1c-.1.8-.3 1.5-.6 2.2-.3.9-.8 1.7-1.5 2.5l-1 1.1c-.5.5-.5 1.3-.1 1.9.2.1.3.3.4.4z" fill="#FFF48C"/>
  <path d="M5.9 25.6c.7-.1 1.4.4 1.6 1l.7 1.8c.8 2 .8 4.3 0 6.3-.9 2.2-2.8 4-5.1 4.7H3c-.7.2-1.4 0-1.8-.6-.4-.6-.4-1.4.1-1.9l1-1.1c.7-.8 1.2-1.6 1.6-2.5.6-1.5.8-3.1.6-4.7l-.1-1.1c-.2-1 .5-1.8 1.5-1.9zm-.3 0l-.7-1.7m1.7-.7l-3.5 1.4" fill="none" stroke="#45413C" stroke-linecap="round" stroke-linejoin="round" stroke-miterlimit="10"/>
  <path d="M19.4 43.6h8.8c8.7 0 16.4-5.9 18.5-14.4 1.3-5.4-1.3-10.9-6.3-13.3-3.7-1.8-8.1-.4-10.2 3.1-.5.9-.2 2.1.7 2.6.9.6 2.1.2 2.6-.7.9-1.7 3-2.3 4.7-1.6 3.5 1.5 5.4 5.4 4.4 9.1C41 35 35 39.6 28.1 39.6h-8l-.7 4z" fill="#BF8256"/>
  <path d="M20 41.8h8c6.9 0 12.9-4.6 14.6-11.3.3-1 .3-2 .2-3 0 .3-.1.6-.2.8C41 35 35 39.6 28.1 39.6h-8l-.7 3.9h.4l.2-1.7zM40.4 18c3.8 1.8 6.2 5.4 6.6 9.4.4-4.8-2.1-9.4-6.6-11.6-3.7-1.8-8.1-.4-10.2 3.1-.4.7-.3 1.5.1 2.1 2.1-3.4 6.4-4.7 10.1-3z" fill="#DEA47A"/>
  <path d="M19.4 43.6h8.8c8.7 0 16.4-5.9 18.5-14.4 1.3-5.4-1.3-10.9-6.3-13.3-3.7-1.8-8.1-.4-10.2 3.1-.5.9-.2 2.1.7 2.6.9.6 2.1.2 2.6-.7.9-1.7 3-2.3 4.7-1.6 3.5 1.5 5.4 5.4 4.4 9.1C41 35 35 39.6 28.1 39.6h-8l-.7 4z" fill="none" stroke="#45413C" stroke-linecap="round" stroke-linejoin="round" stroke-miterlimit="10"/>
  <path d="M30.7 30.2C29.1 21.9 21.9 16 13.5 16v12l-4.3-.8c-1.6-.3-2.9 1.2-2.4 2.7.2.8.9 1.4 1.7 1.5l5 .8v2.4c-1 1-1.6 2.5-1.5 4.1l.1 1h-.8c-1.7 0-3 1.6-2.7 3.2.1.5.5.8 1 .8h14.1c4.2 0 7.6-3.4 7.6-7.6-.1-2.1-.3-4-.6-5.9z" fill="#BF8256"/>
  <ellipse cx="20" cy="44.3" rx="18" ry="1.5" fill="#45413c" opacity=".15"/>
  <path d="M13.5 25.8c4.5 0 8.4-2.7 10.2-6.5-2.9-2.1-6.4-3.3-10.2-3.3v9.8z" fill="#915e3a"/>
  <path d="M30.7 30.2C29.1 21.9 21.9 16 13.5 16v12l-4.3-.8c-1.6-.3-2.9 1.2-2.4 2.7.2.8.9 1.4 1.7 1.5l5 .8v2.4c-1 1-1.6 2.5-1.5 4.1l.1 1h-.8c-1.7 0-3 1.6-2.7 3.2.1.5.5.8 1 .8h14.1c4.2 0 7.6-3.4 7.6-7.6-.1-2.1-.3-4-.6-5.9z" fill="none" stroke="#45413C" stroke-linecap="round" stroke-linejoin="round" stroke-miterlimit="10"/>
  <path d="M22 8.7h-.2c-.9-3.8-4.3-6.6-8.3-6.6S6.1 5 5.2 8.8H5c-1.8 0-3.3 1.5-3.3 3.3v.7c0 1.8 1.5 3.3 3.3 3.3h.2c.9 3.8 4.3 6.6 8.3 6.6s7.4-2.8 8.3-6.6h.2c1.8 0 3.3-1.5 3.3-3.3V12c0-1.8-1.5-3.3-3.3-3.3z" fill="#BF8256"/>
  <path d="M22 8.7h-.2c-.9-3.8-4.3-6.6-8.3-6.6C9.4 2.2 6 5 5.2 8.8H5c-1.8 0-3.3 1.5-3.3 3.3v.7c0 .4.1.7.2 1 .4-1.3 1.7-2.3 3.1-2.3h.2c.8-3.8 4.2-6.6 8.3-6.6 4 0 7.4 2.8 8.3 6.6h.2c1.5 0 2.7 1 3.1 2.3.1-.3.2-.7.2-1V12c0-1.8-1.5-3.3-3.3-3.3z" fill="#DEA47A"/>
  <path d="M22 8.7h-.2c-.9-3.8-4.3-6.6-8.3-6.6S6.1 5 5.2 8.8H5c-1.8 0-3.3 1.5-3.3 3.3v.7c0 1.8 1.5 3.3 3.3 3.3h.2c.9 3.8 4.3 6.6 8.3 6.6s7.4-2.8 8.3-6.6h.2c1.8 0 3.3-1.5 3.3-3.3V12c0-1.8-1.5-3.3-3.3-3.3z" fill="none" stroke="#45413C" stroke-linecap="round" stroke-linejoin="round" stroke-miterlimit="10"/>
  <path d="M18.1 14.6c1.1 1 1.7 2.4 1.7 4 0 .5-.1.9-.2 1.3-1.5 1.6-3.7 2.6-6.1 2.6-2.8 0-5.2-1.3-6.8-3.3 0-.2-.1-.4-.1-.6 0-1.5.7-2.9 1.7-4-1-.7-1.7-1.9-1.7-3.3 0-2.2 1.8-3.9 3.9-3.9 1 0 1.9.4 2.6 1 .7-.6 1.6-1 2.6-1 2.2 0 3.9 1.8 3.9 3.9.2 1.4-.5 2.6-1.5 3.3z" fill="#ffdcd1" stroke="#45413c" stroke-linecap="round" stroke-linejoin="round" stroke-miterlimit="10"/>
  <circle transform="matrix(.05447 -.9985 .9985 .05447 4.484 27.495)" cx="16.8" cy="11.4" fill="#45413C" r="1.3"/>
  <circle transform="matrix(.05447 -.9985 .9985 .05447 -1.726 20.937)" cx="10.2" cy="11.4" fill="#45413C" r="1.3"/>
  <path d="M10.8 17.9s1.1 1.3 2.6 1.3c1.6 0 2.6-1.3 2.6-1.3m-2.5 10l3.5.6m3.9-3.9l1.6 4.4c.8 2.2-1.1 4.4-3.3 4l-5.7-.9m8.9 6.7c.2-3.2-2.4-5.9-5.7-5.8-1.3.1-2.4.6-3.2 1.5" fill="none" stroke="#45413C" stroke-linecap="round" stroke-linejoin="round" stroke-miterlimit="10"/>
</svg>
