<svg viewBox="0 0 24 24" xmlns="http://www.w3.org/2000/svg" focusable="false">
  <g stroke="#000" stroke-width="1.5" fill="none" fill-rule="evenodd" stroke-linecap="round" stroke-linejoin="round">
    <path d="M5.694 6.43c5.327-1.337 11.949-1.255 13.48.488 1.53 1.743 1.498 7.57-.29 9.17-1.789 1.598-9.554 1.75-12.014 0-2.599-1.852-1.09-7.546-1.176-10.995C5.745 3.163 3.65 2.85 3.65 2.85m10.506 7.87h2.773"/>
    <path d="M7.264 20.128a.545.545 0 11-.001 1.089.545.545 0 01.001-1.09zm10.332 0a.545.545 0 110 1.09.545.545 0 010-1.09z" fill="#000"/>
  </g>
</svg>
