<svg xmlns="http://www.w3.org/2000/svg" viewBox="0 0 48 48" focusable="false">
  <ellipse cx="24" cy="44.8" rx="12" ry="1.6" fill="#45413c" opacity=".15"/>
  <circle cx="24" cy="28.1" r="16.7" fill="#ffaa54"/>
  <path d="M24 15.6c8.5 0 15.6 6.4 16.6 14.6.1-.7.1-1.4.1-2.1 0-9.2-7.5-16.7-16.7-16.7S7.3 18.9 7.3 28.1c0 .7.1 1.4.1 2.1 1-8.3 8.1-14.6 16.6-14.6z" fill="#fc9"/>
  <circle cx="24" cy="28.1" r="16.7" fill="none" stroke="#45413C" stroke-linecap="round" stroke-linejoin="round" stroke-miterlimit="10"/>
  <path d="M15.6 14s-2.7-3.3-.9-6.9 1.7-5.5 1.7-5.5 4.6 1.3 4.4 6c-.2 4.7-5.2 6.4-5.2 6.4z" fill="#6DD627"/>
  <path d="M16.3 8.8c1.8-3.1 2.3-5.1 2.4-5.9-1.1-.9-2.3-1.2-2.3-1.2s.1 2-1.7 5.5c-1.8 3.6.9 6.9.9 6.9s.1 0 .1-.1c-.5-1.5-.6-3.3.6-5.2z" fill="#9CEB60"/>
  <path d="M15.6 14s-2.7-3.3-.9-6.9 1.7-5.5 1.7-5.5 4.6 1.3 4.4 6c-.2 4.7-5.2 6.4-5.2 6.4z" fill="none" stroke="#45413C" stroke-linecap="round" stroke-linejoin="round" stroke-miterlimit="10"/>
  <path d="M17 16.3c-.2.2-.5.4-.9.6-.4.2-.7.3-1 .4-.3-.4-1.4-2.2-3.3-2.9-2.5-.9-3.1 2.2-3.5-1.1-.3-3.3 2-3.9 5.2-1.5 2.2 1.7 3.2 3.9 3.5 4.5z" fill="#6DD627"/>
  <path d="M17 16.3c-.2.2-.4.4-.8.6-.6-.9-1.5-2-2.7-3-2.6-2-4.7-2-5.1-.1 0-.2-.1-.3-.1-.5-.3-3.3 2-3.9 5.2-1.5 2.2 1.7 3.2 3.9 3.5 4.5z" fill="#9CEB60"/>
  <path d="M17 16.3c-.2.2-.5.4-.9.6-.4.2-.7.3-1 .4-.3-.4-1.4-2.2-3.3-2.9-2.5-.9-3.1 2.2-3.5-1.1-.3-3.3 2-3.9 5.2-1.5 2.2 1.7 3.2 3.9 3.5 4.5z" fill="none" stroke="#45413C" stroke-linecap="round" stroke-linejoin="round" stroke-miterlimit="10"/>
  <path d="M14 17.4s.5.3 2.1-.5 1.6-2.1 1.6-2.1m-2.1-.8s-.6-4.2.9-6.2" fill="none" stroke="#45413C" stroke-linecap="round" stroke-linejoin="round" stroke-miterlimit="10"/>
</svg>
