<svg xmlns="http://www.w3.org/2000/svg" viewBox="0 0 24 24">
  <g fill="#200E32">
    <path d="M12.979 3.123l2.23 4.47c.16.326.474.552.838.606l4.996.727c.293.041.558.196.736.43.177.233.252.527.209.815-.035.24-.147.46-.321.631l-3.622 3.507c-.265.248-.386.61-.32.964l.891 4.936a1.115 1.115 0 01-.892 1.271 1.168 1.168 0 01-.713-.114l-4.46-2.323a1.169 1.169 0 00-1.053 0l-4.46 2.323a1.143 1.143 0 01-1.534-.447 1.131 1.131 0 01-.116-.701l.892-4.936a1.058 1.058 0 00-.321-.964L2.337 10.81a1.087 1.087 0 010-1.56c.171-.175.398-.286.642-.316l4.996-.728c.364-.053.677-.28.838-.604l2.15-4.48a1.108 1.108 0 011.017-.614h.134c.375.047.701.278.865.614z"/>
    <path d="M12.007 18.912a1.214 1.214 0 00-.553.15L7.008 21.38c-.533.268-1.21.053-1.504-.46a1.097 1.097 0 01-.116-.693L6.28 15.3a1.1 1.1 0 00-.321-.973l-3.63-3.507a1.091 1.091 0 010-1.56c.17-.17.393-.28.633-.316l5.013-.737c.386-.056.662-.27.838-.604l2.178-4.532c.166-.368.724-.623 1.024-.562-.008.298-.008 16.2-.008 16.403z"/>
  </g>
</svg>
