<svg viewBox="0 0 24 24" xmlns="http://www.w3.org/2000/svg" focusable="false">
  <path d="M16.335 2C19.724 2 22 4.378 22 7.916v8.168C22 19.622 19.724 22 16.335 22H7.666C4.277 22 2 19.622 2 16.084V7.916C2 4.378 4.277 2 7.666 2h8.669zm0 1.5H7.666C5.136 3.5 3.5 5.233 3.5 7.916v8.168c0 2.683 1.636 4.416 4.166 4.416h8.669c2.53 0 4.165-1.733 4.165-4.416V7.916c0-2.683-1.635-4.416-4.165-4.416zM12 7.164a.75.75 0 01.75.75v6.356l2.467-2.477a.749.749 0 111.062 1.059l-3.748 3.764a.821.821 0 01-.077.066l.077-.066a.736.736 0 01-.13.104l-.033.02a.55.55 0 01-.067.034l-.019.007a.56.56 0 01-.072.026l-.046.01a.474.474 0 01-.057.012l-.047.005a.47.47 0 01-.06.003l-.059-.005-.043-.003a.75.75 0 01-.006 0l.108.008a.751.751 0 01-.164-.018l-.046-.013a.565.565 0 01-.073-.024l-.017-.009a.557.557 0 01-.069-.033l-.032-.02a.88.88 0 01-.137-.111l-3.741-3.757a.75.75 0 011.062-1.06l2.467 2.478V7.914a.75.75 0 01.75-.75z" fill-rule="evenodd"/>
</svg>
