<svg viewBox="0 0 24 24" xmlns="http://www.w3.org/2000/svg" focusable="false">
  <path d="M12.77 3c1.044 0 2.018.752 2.37 1.956.129.504.181 1.008.232 1.495l.047.442c.18 1.476.18 8.728 0 10.215l-.047.459c-.046.462-.092.941-.225 1.452-.352 1.202-1.29 1.981-2.354 1.981l-.105-.001c-.588 0-1.227-.36-1.59-.675l-3.53-2.941H5.755c-1.4 0-2.424-1.012-2.61-2.579-.214-1.566-.172-4.253 0-5.677.203-1.483 1.276-2.51 2.61-2.51h1.813l3.464-2.898c.417-.363 1.154-.721 1.737-.719zm5.378 3.258a.91.91 0 011.278.237C20.44 7.988 21 9.943 21 12s-.56 4.012-1.574 5.505a.915.915 0 01-.755.404.902.902 0 01-.523-.167.955.955 0 01-.23-1.308c.803-1.183 1.245-2.758 1.245-4.434 0-1.677-.442-3.25-1.245-4.434a.955.955 0 01.23-1.308z"/>
</svg>
