<?xml version="1.0" encoding="UTF-8"?>
<svg width="24px" height="24px" viewBox="0 0 24 24" version="1.1" xmlns="http://www.w3.org/2000/svg" xmlns:xlink="http://www.w3.org/1999/xlink">
    <title>Icons/24/Navigation</title>
    <g id="Icons/24/Navigation" stroke="none" stroke-width="1" fill="none" fill-rule="evenodd">
        <rect id="Container" fill-opacity="0" fill="#D8D8D8" fill-rule="nonzero" x="0" y="0" width="24" height="24"></rect>
        <g id="navigation" transform="translate(3.000000, 3.000000)" fill="#404040" fill-rule="nonzero">
            <path d="M16.26903,0.77939965 C17.1000151,0.420946817 17.9417792,1.26271096 17.5833264,2.09369599 L11.1687317,16.9643614 C10.7312332,17.9785945 9.55437212,18.4461303 8.54013901,18.0086317 C7.96774251,17.7617234 7.54320682,17.262038 7.39201518,16.6572715 L6.25470305,12.108023 L1.70545452,10.9707108 C0.633864708,10.7028134 -0.0176566799,9.6169444 0.250240774,8.54535458 C0.401432411,7.94058803 0.8259681,7.44090268 1.3983646,7.19399433 L16.26903,0.77939965 Z M14.7498977,3.61282829 L2.19052577,9.03042583 L6.7397743,10.167738 C7.45634474,10.3468806 8.01584544,10.9063813 8.19498805,11.6229517 L9.33230018,16.1722002 L14.7498977,3.61282829 Z" id="Path"></path>
        </g>
    </g>
</svg>