<?xml version="1.0" encoding="UTF-8"?>
<svg width="24px" height="24px" viewBox="0 0 24 24" version="1.1" xmlns="http://www.w3.org/2000/svg" xmlns:xlink="http://www.w3.org/1999/xlink">
    <title>Icons/24/PlaceHolder@3x</title>
    <g id="Icons/24/PlaceHolder" stroke="none" stroke-width="1" fill="none" fill-rule="evenodd">
        <path d="M12,22 C6.4771525,22 2,17.5228475 2,12 C2,6.4771525 6.4771525,2 12,2 C17.5228475,2 22,6.4771525 22,12 C22,17.5228475 17.5228475,22 12,22 Z M12,20 C16.418278,20 20,16.418278 20,12 C20,7.581722 16.418278,4 12,4 C7.581722,4 4,7.581722 4,12 C4,16.418278 7.581722,20 12,20 Z M12,15.75 C9.92893219,15.75 8.25,14.0710678 8.25,12 C8.25,9.92893219 9.92893219,8.25 12,8.25 C14.0710678,8.25 15.75,9.92893219 15.75,12 C15.75,14.0710678 14.0710678,15.75 12,15.75 Z M12,17.7142857 C15.1559129,17.7142857 17.7142857,15.1559129 17.7142857,12 C17.7142857,8.84408714 15.1559129,6.28571429 12,6.28571429 C8.84408714,6.28571429 6.28571429,8.84408714 6.28571429,12 C6.28571429,15.1559129 8.84408714,17.7142857 12,17.7142857 Z" id="Shape" fill="#404040"></path>
    </g>
</svg>