<svg xmlns="http://www.w3.org/2000/svg" viewBox="0 0 48 48">
  <circle cx="24" cy="22.1" r="20.3" fill="#debb7e"/>
  <path class="st7" d="M24 6.7c10.3 0 18.9 7.7 20.1 17.8.1-.8.2-1.6.2-2.4 0-11.2-9.1-20.3-20.3-20.3-11.2 0-20.3 9.1-20.3 20.3 0 .8.1 1.6.2 2.5C5.1 14.5 13.6 6.7 24 6.7zm-1.8 35.5h.5l-.3-.3c-.1.1-.1.2-.2.3z" fill="#F0D5A8"/>
  <circle class="st10" cx="24" cy="22.1" r="20.3" fill="none" stroke="#45413C" stroke-linecap="round" stroke-linejoin="round" stroke-miterlimit="10"/>
  <ellipse cx="24.2" cy="44.7" rx="13" ry="1.5" fill="#45413c" opacity=".15"/>
  <circle class="st7" cx="27.1" cy="16.8" r="3.6" fill="#F0D5A8"/>
  <circle class="st39" cx="27.1" cy="15.7" r="3" fill="#915E3A"/>
  <path class="st37" d="M27.1 15.2c1.2 0 2.2.7 2.7 1.7.2-.4.3-.8.3-1.2 0-1.6-1.3-3-3-3-1.6 0-3 1.3-3 3 0 .4.1.8.3 1.2.4-1 1.5-1.7 2.7-1.7z" fill="#BF8256"/>
  <circle class="st10" cx="27.1" cy="15.7" r="3" fill="none" stroke="#45413C" stroke-linecap="round" stroke-linejoin="round" stroke-miterlimit="10"/>
  <circle class="st7" cx="11.5" cy="18.6" r="2.7" fill="#F0D5A8"/>
  <circle class="st39" cx="11.5" cy="17.8" r="2.2" fill="#915E3A"/>
  <path class="st37" d="M11.5 17.4c.9 0 1.7.5 2 1.3.1-.3.2-.6.2-.9 0-1.2-1-2.2-2.2-2.2-1.2 0-2.2 1-2.2 2.2 0 .3.1.6.2.9.3-.8 1.1-1.3 2-1.3z" fill="#BF8256"/>
  <circle class="st10" cx="11.5" cy="17.8" r="2.2" fill="none" stroke="#45413C" stroke-linecap="round" stroke-linejoin="round" stroke-miterlimit="10"/>
  <circle class="st7" cx="37.4" cy="24.9" r="2.7" fill="#F0D5A8"/>
  <circle class="st39" cx="37.4" cy="24" r="2.2" fill="#915E3A"/>
  <path class="st37" d="M37.4 23.6c.9 0 1.7.5 2 1.3.1-.3.2-.6.2-.9 0-1.2-1-2.2-2.2-2.2-1.2 0-2.2 1-2.2 2.2 0 .3.1.6.2.9.3-.7 1.1-1.3 2-1.3z" fill="#BF8256"/>
  <circle class="st10" cx="37.4" cy="24" r="2.2" fill="none" stroke="#45413C" stroke-linecap="round" stroke-linejoin="round" stroke-miterlimit="10"/>
  <circle class="st7" cx="26.6" cy="32.2" r="2.4" fill="#F0D5A8"/>
  <circle class="st39" cx="26.6" cy="31.4" r="1.9" fill="#915E3A"/>
  <path class="st37" d="M26.6 31.1c.8 0 1.4.5 1.7 1.1.1-.2.2-.5.2-.8 0-1.1-.9-1.9-1.9-1.9-1.1 0-1.9.9-1.9 1.9 0 .3.1.5.2.8.2-.6.9-1.1 1.7-1.1z" fill="#BF8256"/>
  <circle class="st10" cx="26.6" cy="31.4" r="1.9" fill="none" stroke="#45413C" stroke-linecap="round" stroke-linejoin="round" stroke-miterlimit="10"/>
  <circle class="st7" cx="14.8" cy="28.5" r="2.4" fill="#F0D5A8"/>
  <circle class="st39" cx="14.8" cy="27.8" r="1.9" fill="#915E3A"/>
  <path class="st37" d="M14.8 27.5c.8 0 1.4.5 1.7 1.1.1-.2.2-.5.2-.8 0-1.1-.9-1.9-1.9-1.9-1.1 0-1.9.9-1.9 1.9 0 .3.1.5.2.8.2-.7.9-1.1 1.7-1.1z" fill="#BF8256"/>
  <circle class="st10" cx="14.8" cy="27.8" r="1.9" fill="none" stroke="#45413C" stroke-linecap="round" stroke-linejoin="round" stroke-miterlimit="10"/>
</svg>
