<svg viewBox="0 0 24 24" xmlns="http://www.w3.org/2000/svg" focusable="false">
  <g stroke="#000" stroke-width="1.5" fill="none" fill-rule="evenodd" stroke-linecap="round" stroke-linejoin="round">
    <path d="M17.278 13.89c.675 0 1.24.556 1.138 1.222-.605 3.92-3.961 6.83-8.009 6.83A8.107 8.107 0 012.3 13.838c0-3.689 2.802-7.125 5.957-7.902.678-.167 1.372.31 1.372 1.008 0 4.728.16 5.951 1.057 6.617.898.665 1.954.33 6.592.33z"/>
    <path d="M21.693 9.952c.053-3.038-3.678-7.935-8.226-7.85a.679.679 0 00-.652.653c-.115 2.498.04 5.734.126 7.202a.89.89 0 00.841.842c1.508.086 4.863.204 7.325-.168a.695.695 0 00.586-.68z"/>
  </g>
</svg>
