<svg xmlns="http://www.w3.org/2000/svg" viewBox="0 0 32 32" focusable="false">
  <path fill="#37b678" d="M27.253 20.247l3.54-3.54a1 1 0 000-1.414l-3.54-3.54a1 1 0 01-.293-.707V6.04a1 1 0 00-1-1h-5.006a1 1 0 01-.707-.293l-3.54-3.54a1 1 0 00-1.414 0l-3.54 3.54a1 1 0 01-.707.293H6.04a1 1 0 00-1 1v5.006a1 1 0 01-.293.707l-3.54 3.54a1 1 0 000 1.414l3.54 3.54a1 1 0 01.293.707v5.006a1 1 0 001 1h5.006a1 1 0 01.707.293l3.54 3.54a1 1 0 001.414 0l3.54-3.54a1 1 0 01.707-.293h5.006a1 1 0 001-1v-5.006a1 1 0 01.293-.707z"/>
  <path fill="#2c2b2d" d="M16 31.585a1.497 1.497 0 01-1.06-.438l-3.54-3.54a.505.505 0 00-.354-.147H6.04a1.502 1.502 0 01-1.5-1.5v-5.006a.498.498 0 00-.146-.353l-3.54-3.54a1.501 1.501 0 010-2.122l3.54-3.54a.503.503 0 00.146-.353V6.04a1.502 1.502 0 011.5-1.5h5.006a.503.503 0 00.353-.146l3.54-3.54a1.501 1.501 0 012.122 0l3.54 3.54a.498.498 0 00.353.146h5.006a1.502 1.502 0 011.5 1.5v5.006a.505.505 0 00.146.353l3.54 3.54a1.501 1.501 0 010 2.122l-3.54 3.54a.496.496 0 00-.146.353v5.006a1.502 1.502 0 01-1.5 1.5h-5.006a.496.496 0 00-.353.146l-3.54 3.54a1.497 1.497 0 01-1.061.439zM6.04 5.54a.5.5 0 00-.5.5v5.006a1.49 1.49 0 01-.44 1.06l-3.54 3.54a.5.5 0 000 .707l3.54 3.54a1.49 1.49 0 01.44 1.061v5.006a.5.5 0 00.5.5h5.006a1.49 1.49 0 011.06.44l3.54 3.54a.5.5 0 00.707 0l3.54-3.54a1.49 1.49 0 011.061-.44h5.006a.501.501 0 00.5-.5v-5.006a1.49 1.49 0 01.44-1.06l3.54-3.54a.5.5 0 000-.707l-3.54-3.54a1.49 1.49 0 01-.44-1.061V6.04a.5.5 0 00-.5-.5h-5.006a1.49 1.49 0 01-1.06-.44l-3.54-3.54a.5.5 0 00-.707 0l-3.54 3.54a1.49 1.49 0 01-1.061.44z"/>
  <path fill="#e0e0e2" d="M13.874 25.132a3.972 3.972 0 00-2.828-1.172H8.04v-3.006a3.971 3.971 0 00-1.172-2.828L4.743 16l2.125-2.126a3.972 3.972 0 001.172-2.828V8.04h3.006a3.972 3.972 0 002.828-1.172L16 4.743l2.126 2.125a3.971 3.971 0 002.828 1.172h3.006v3.006a3.972 3.972 0 001.172 2.828L27.258 16l-2.126 2.126a3.971 3.971 0 00-1.172 2.828v3.006h-3.006a3.971 3.971 0 00-2.828 1.172L16 27.258z"/>
  <path fill="#2c2b2d" d="M16 27.758a.498.498 0 01-.354-.147l-2.126-2.126a3.476 3.476 0 00-2.474-1.025H8.04a.5.5 0 01-.5-.5v-3.006a3.474 3.474 0 00-1.025-2.475l-2.126-2.126a.5.5 0 010-.707l2.126-2.126a3.476 3.476 0 001.025-2.474V8.04a.5.5 0 01.5-.5h3.006a3.476 3.476 0 002.475-1.025l2.126-2.126a.5.5 0 01.707 0l2.126 2.126a3.474 3.474 0 002.474 1.025h3.006a.5.5 0 01.5.5v3.006a3.476 3.476 0 001.025 2.475l2.126 2.126a.5.5 0 010 .707l-2.126 2.126a3.474 3.474 0 00-1.025 2.474v3.006a.5.5 0 01-.5.5h-3.006a3.474 3.474 0 00-2.475 1.025l-2.126 2.126a.498.498 0 01-.353.147zm-1.772-2.98L16 26.551l1.772-1.773a4.467 4.467 0 013.182-1.318h2.506v-2.506a4.467 4.467 0 011.318-3.182L26.551 16l-1.773-1.772a4.467 4.467 0 01-1.318-3.182V8.54h-2.506a4.465 4.465 0 01-3.182-1.318L16 5.45l-1.772 1.772a4.469 4.469 0 01-3.182 1.318H8.54v2.506a4.469 4.469 0 01-1.318 3.182L5.45 16l1.772 1.772a4.465 4.465 0 011.318 3.182v2.506h2.506a4.467 4.467 0 013.182 1.318z"/>
  <path fill="#e0e0e2" d="M18.015 12.965l.872-1.728a.2.2 0 01.36.003l.84 1.744a.2.2 0 00.15.111l1.913.296a.2.2 0 01.108.343l-1.398 1.338a.2.2 0 00-.06.177l.31 1.91a.2.2 0 01-.292.21l-1.705-.917a.2.2 0 00-.187-.001l-1.721.885a.2.2 0 01-.29-.214l.345-1.905a.2.2 0 00-.056-.178l-1.374-1.364a.2.2 0 01.115-.34l1.918-.262a.2.2 0 00.152-.108z"/>
  <path fill="#2c2b2d" d="M20.913 17.893a.7.7 0 01-.333-.084l-1.565-.842-1.581.813a.7.7 0 01-1.01-.747l.316-1.75-1.261-1.253a.7.7 0 01.398-1.192l1.763-.239.8-1.587a.66.66 0 01.633-.385.697.697 0 01.624.395l.773 1.603 1.757.272a.7.7 0 01.377 1.198l-1.285 1.23.285 1.755a.7.7 0 01-.69.813zm.14-.966zm-2.177-.034h.002zm.142-.965a.7.7 0 01.333.085l1.169.628-.212-1.312a.696.696 0 01.209-.62l.958-.917-1.314-.203a.696.696 0 01-.524-.39l-.577-1.196-.599 1.187a.697.697 0 01-.532.379l-1.316.179.944.936a.7.7 0 01.195.622l-.236 1.308 1.181-.608a.698.698 0 01.32-.078zm2.19-.496l-.002.002zm.086-.265zm-.757-2.403l.001.003zm-.225-.164h.002z"/>
  <path fill="#d9d8da" d="M12.207 10.38a6.856 6.856 0 012.138-1.221.2.2 0 01.22.315 7.055 7.055 0 006.563 11.366.2.2 0 01.163.346 6.871 6.871 0 01-2.72 1.428 7.056 7.056 0 01-6.364-12.234z"/>
  <path fill="#2c2b2d" d="M16.748 23.353a7.611 7.611 0 01-5.203-2.04 7.408 7.408 0 01-2.362-5.673 7.644 7.644 0 012.702-5.642 7.357 7.357 0 012.294-1.31.689.689 0 01.799.251.697.697 0 01-.02.844 6.555 6.555 0 006.097 10.562.7.7 0 01.742.405.69.69 0 01-.182.817 7.379 7.379 0 01-2.915 1.53 7.6 7.6 0 01-1.952.256zm-3.185-13.298a6.316 6.316 0 00-1.034.708 6.643 6.643 0 00-2.347 4.904 6.422 6.422 0 002.048 4.917 6.63 6.63 0 006.212 1.547 6.393 6.393 0 001.681-.714h-.047a7.557 7.557 0 01-6.513-11.362zm-1.356.325z"/>
  <path fill="#2c2b2d" d="M16 31.585a1.497 1.497 0 01-1.06-.438l-3.54-3.54a.505.505 0 00-.354-.147H6.04a1.502 1.502 0 01-1.5-1.5v-5.006a.498.498 0 00-.146-.353l-3.54-3.54a1.501 1.501 0 010-2.122l3.54-3.54a.503.503 0 00.146-.353V6.04a1.502 1.502 0 011.5-1.5h5.006a.503.503 0 00.353-.146l3.54-3.54a1.501 1.501 0 012.122 0l3.54 3.54a.498.498 0 00.353.146h5.006a1.502 1.502 0 011.5 1.5v5.006a.505.505 0 00.146.353l3.54 3.54a1.501 1.501 0 010 2.122l-3.54 3.54a.496.496 0 00-.146.353v5.006a1.502 1.502 0 01-1.5 1.5h-5.006a.496.496 0 00-.353.146l-3.54 3.54a1.497 1.497 0 01-1.061.439zM6.04 5.54a.5.5 0 00-.5.5v5.006a1.49 1.49 0 01-.44 1.06l-3.54 3.54a.5.5 0 000 .707l3.54 3.54a1.49 1.49 0 01.44 1.061v5.006a.5.5 0 00.5.5h5.006a1.49 1.49 0 011.06.44l3.54 3.54a.5.5 0 00.707 0l3.54-3.54a1.49 1.49 0 011.061-.44h5.006a.501.501 0 00.5-.5v-5.006a1.49 1.49 0 01.44-1.06l3.54-3.54a.5.5 0 000-.707l-3.54-3.54a1.49 1.49 0 01-.44-1.061V6.04a.5.5 0 00-.5-.5h-5.006a1.49 1.49 0 01-1.06-.44l-3.54-3.54a.5.5 0 00-.707 0l-3.54 3.54a1.49 1.49 0 01-1.061.44z"/>
</svg>
