<svg viewBox="0 0 24 24" xmlns="http://www.w3.org/2000/svg" focusable="false">
  <path d="M16.84 5.796a.75.75 0 01.743.649l.007.101v11.8l2.796-2.807a.75.75 0 011.135.974l-.072.084-4.078 4.097a.816.816 0 01-.076.066l.076-.066a.753.753 0 01-.31.188l-.037.01a.613.613 0 01-.065.013l-.032.004a.627.627 0 01-.073.006h-.029a.754.754 0 01-.073-.005l.088.004a.755.755 0 01-.185-.022l-.034-.01a.594.594 0 01-.064-.022l-.034-.016a.532.532 0 01-.097-.054.416.416 0 01-.034-.023l-.008-.007a.754.754 0 01-.075-.065l-.001-.001-4.078-4.097a.75.75 0 01.98-1.13l.083.072 2.796 2.81V6.545a.75.75 0 01.75-.75zM6.91 3.083h.015c.024 0 .049.002.073.004l-.088-.004a.755.755 0 01.184.022l.038.011a.57.57 0 01.058.02l.04.019a.509.509 0 01.048.024l.04.024a.468.468 0 01.04.027l.084.073L11.52 7.4a.75.75 0 01-.98 1.13l-.084-.072-2.797-2.81.001 11.803a.75.75 0 01-1.493.101l-.007-.101V5.648l-2.796 2.81a.75.75 0 01-.976.075l-.085-.072a.75.75 0 01-.075-.977l.073-.084L6.38 3.303l.044-.04a.754.754 0 01.032-.026l-.076.066a.753.753 0 01.31-.188l.038-.01c.02-.005.04-.01.06-.013l.037-.004a.614.614 0 01.07-.006h.016z"/>
</svg>
