<svg xmlns="http://www.w3.org/2000/svg" viewBox="0 0 48 48">
  <ellipse class="st5" cx="12.1" cy="45.2" rx="9" ry="1.5" fill="#45413C" opacity=".15"/>
  <ellipse class="st5" cx="36.8" cy="45.2" rx="9" ry="1.5" fill="#45413C" opacity=".15"/>
  <path class="st61" d="M10.6 29.7c0 4.2-2 10.7-2 10.7-.1.3-.4.6-.8.5-2.7-.5-5-.4-5.6.3-.1.1-.1.3 0 .5.6.5 2.4 1.8 6.4 2.8 4 1 6.2.6 6.9.5.2 0 .3-.2.3-.4-.2-.9-2.1-2.1-4.8-2.9-.3-.1-.5-.5-.5-.8 0 0 1.3-6.7 3.3-10.4l-3.2-.8z" fill="#00B8F0" stroke="#45413C" stroke-linecap="round" stroke-linejoin="round" stroke-miterlimit="10"/>
  <path class="st35" d="M12 4.4c.9-.8 3.1-.6 6.5.2 3.5.9 5.5 1.7 5.9 2.9 1 2-.1 14.4-.7 16.8-1.3 5.2-6.6 8.4-11.8 7.1s-8.4-6.6-7.1-11.8c.6-2.4 5.4-13.9 7.2-15.2z" fill="#00B8F0"/>
  <path class="st36" d="M5.9 27.1c9.8-1.9 15.8-9.6 18.9-15.2 0-2.1-.1-3.8-.4-4.4-.4-1.1-2.5-2-5.9-2.8-3.4-.9-5.6-1.1-6.5-.2-1.9 1.3-6.6 12.8-7.2 15.2-.7 2.5-.2 5.2 1.1 7.4z" fill="#4ACFFF"/>
  <path class="st35" d="M17.9 7.2c3.4.9 6.4 1 6.5.2-.4-1.1-2.5-2-5.9-2.8-3.4-.9-5.6-1.1-6.5-.2-.2.7 2.5 2 5.9 2.8z" fill="#00B8F0"/>
  <path class="st10" d="M12 4.4c.9-.8 3.1-.6 6.5.2 3.5.9 5.5 1.7 5.9 2.9 1 2-.1 14.4-.7 16.8-1.3 5.2-6.6 8.4-11.8 7.1s-8.4-6.6-7.1-11.8c.6-2.4 5.4-13.9 7.2-15.2z" fill="none" stroke="#45413C" stroke-linecap="round" stroke-linejoin="round" stroke-miterlimit="10"/>
  <path class="st10" d="M24.4 7.5c-.2.7-3.1.6-6.5-.2S11.8 5.1 12 4.4" fill="none" stroke="#45413C" stroke-linecap="round" stroke-linejoin="round" stroke-miterlimit="10"/>
  <path class="st45" d="M7.1 21.6S8.4 19.1 12 20c3.6.9 3.9 3.8 3.9 3.8l-8.8-2.2z" fill="#FFF48C"/>
  <path class="st45" d="M22.1 23.9c-1.1 4.3-5.5 7-9.8 5.9-4.3-1.1-7-5.5-5.9-9.8 0 0 2.3 2 4.3 2.4 2 .5 5.2-1.5 7.2-1 1.9.5 4.2 2.5 4.2 2.5z" fill="#FFF48C"/>
  <path class="st28" d="M7.7 26.6c3.8-1 7-3 9.6-5.3-2-.1-4.9 1.5-6.7 1.1C8.7 22 6.4 20 6.4 20c-.6 2.4 0 4.8 1.3 6.6z" fill="#FFFACF"/>
  <circle transform="rotate(-76.09 13.092 9.849)" class="st16" cx="13.1" cy="9.8" fill="#E5F8FF" r="1.3"/>
  <circle transform="rotate(-76.085 10.644 11.326)" class="st16" cx="10.6" cy="11.3" fill="#E5F8FF" r=".7"/>
  <path class="st61" d="M33.4 27.9c2.2 3.5 4 10.1 4 10.1.1.3-.1.7-.4.8-2.6 1-4.4 2.3-4.6 3.2 0 .2.1.3.3.4.7.1 3 .3 6.9-.9 3.9-1.2 5.6-2.7 6.1-3.3.1-.1.1-.3 0-.5-.7-.6-2.9-.6-5.6.1-.3.1-.7-.1-.8-.4 0 0-2.4-6.4-2.7-10.5l-3.2 1z" fill="#00B8F0" stroke="#45413C" stroke-linecap="round" stroke-linejoin="round" stroke-miterlimit="10"/>
  <path class="st35" d="M21.3 5.6c.3-1.2 2.3-2.2 5.7-3.2 3.4-1.1 5.6-1.4 6.5-.7C35.4 2.8 41 14 41.7 16.3c1.6 5.1-1.2 10.6-6.3 12.3-5.1 1.6-10.6-1.2-12.3-6.3-.7-2.3-2.7-14.6-1.8-16.7z" fill="#00B8F0"/>
  <path class="st36" d="M28 28c7.4-6.8 8.4-16.4 8.1-22.8C35 3.4 34 2 33.4 1.7c-1-.8-3.1-.4-6.5.7s-5.4 2.1-5.7 3.2C20.3 7.7 22.3 20 23 22.3c.9 2.6 2.8 4.6 5 5.7z" fill="#4ACFFF"/>
  <path class="st35" d="M27.8 4.9c3.4-1.1 5.9-2.5 5.7-3.2-1-.8-3.1-.4-6.5.7s-5.4 2.1-5.7 3.2c.2.7 3.1.4 6.5-.7z" fill="#00B8F0"/>
  <path class="st10" d="M21.3 5.6c.3-1.2 2.3-2.2 5.7-3.2 3.4-1.1 5.6-1.4 6.5-.7C35.4 2.8 41 14 41.7 16.3c1.6 5.1-1.2 10.6-6.3 12.3-5.1 1.6-10.6-1.2-12.3-6.3-.7-2.3-2.7-14.6-1.8-16.7z" fill="none" stroke="#45413C" stroke-linecap="round" stroke-linejoin="round" stroke-miterlimit="10"/>
  <path class="st10" d="M33.5 1.7c.2.7-2.3 2.2-5.7 3.2s-6.3 1.4-6.5.7" fill="none" stroke="#45413C" stroke-linecap="round" stroke-linejoin="round" stroke-miterlimit="10"/>
  <path class="st45" d="M26.1 22.8s-.2-2.8 3.3-3.9 5.3 1.1 5.3 1.1l-8.6 2.8z" fill="#FFF48C"/>
  <path class="st45" d="M40.1 16.9c1.4 4.3-1 8.8-5.2 10.2-4.3 1.4-8.8-1-10.2-5.2 0 0 3 .5 4.9-.2 1.9-.6 3.7-4 5.6-4.6 1.9-.7 4.9-.2 4.9-.2z" fill="#FFF48C"/>
  <path class="st28" d="M29.3 26.8c2.7-2.9 4.4-6.2 5.4-9.5-1.7 1-3.3 3.8-5.1 4.4-1.9.6-4.9.2-4.9.2.8 2.2 2.5 4 4.6 4.9z" fill="#FFFACF"/>
  <circle transform="rotate(-17.794 25.05 9.645)" class="st16" cx="25.1" cy="9.6" fill="#E5F8FF" r="1.3"/>
  <circle transform="rotate(-17.787 23.75 12.19)" class="st16" cx="23.7" cy="12.2" fill="#E5F8FF" r=".7"/>
</svg>
