<svg xmlns="http://www.w3.org/2000/svg" viewBox="0 0 48 48">
  <style>
    .st1{fill:#ffc258}.st2{fill:#4f4b45}.st3{fill:#fabfa5}.st5{opacity:.15;fill:#45413c}.st10{fill:none;stroke:#45413c;stroke-linecap:round;stroke-linejoin:round;stroke-miterlimit:10}.st16{fill:#e5f8ff}.st28{fill:#fffacf}.st35{fill:#00b8f0}.st36{fill:#4acfff}.st45{fill:#fff48c}.st61{fill:#00b8f0;stroke:#45413c;stroke-linecap:round;stroke-linejoin:round;stroke-miterlimit:10}
  </style>
  <symbol id="New_Symbol_14" viewBox="-6.5 -6.5 13 13">
    <path d="M0-6c2.2 0 4.1 1.5 4.7 3.5C6.3-2.5 6.4 0 5 0v1c0 2.8-2.2 5-5 5s-5-2.2-5-5V0c-1.4 0-1.3-2.5.2-2.5C-4.1-4.5-2.2-6 0-6z" fill="#ffd4c3" stroke="#504b46" stroke-linecap="round" stroke-linejoin="round" stroke-miterlimit="10"/>
    <circle class="st1" cx="-1.6" cy="-.1" r=".1" fill="#FFC258"/>
    <path class="st2" d="M-1.6.5c-.3 0-.6-.3-.6-.6s.2-.7.6-.7c.3 0 .6.3.6.7s-.3.6-.6.6z" fill="#4F4B45"/>
    <circle class="st1" cx="1.6" cy="-.1" r=".1" fill="#FFC258"/>
    <path class="st2" d="M1.6.5C1.3.5 1 .2 1-.1s.3-.6.6-.6.6.3.6.6-.2.6-.6.6z" fill="#4F4B45"/>
    <circle class="st3" cx="-3" cy="-1.5" r=".5" fill="#FABFA5"/>
    <circle class="st3" cx="3" cy="-1.5" r=".5" fill="#FABFA5"/>
    <path d="M-1.2-3c.8-.5 1.7-.5 2.5 0" fill="none" stroke="#504b46" stroke-linecap="round" stroke-linejoin="round" stroke-miterlimit="10"/>
  </symbol>
  <g id="Icons">
    <g id="XMLID_1890_">
      <ellipse id="XMLID_1461_" class="st5" cx="12.1" cy="45.2" rx="9" ry="1.5" fill="#45413C" opacity=".15"/>
      <ellipse id="XMLID_1460_" class="st5" cx="36.8" cy="45.2" rx="9" ry="1.5" fill="#45413C" opacity=".15"/>
      <g id="XMLID_1497_">
        <path id="XMLID_1557_" class="st61" d="M10.6 29.7c0 4.2-2 10.7-2 10.7-.1.3-.4.6-.8.5-2.7-.5-5-.4-5.6.3-.1.1-.1.3 0 .5.6.5 2.4 1.8 6.4 2.8 4 1 6.2.6 6.9.5.2 0 .3-.2.3-.4-.2-.9-2.1-2.1-4.8-2.9-.3-.1-.5-.5-.5-.8 0 0 1.3-6.7 3.3-10.4l-3.2-.8z" fill="#00B8F0" stroke="#45413C" stroke-linecap="round" stroke-linejoin="round" stroke-miterlimit="10"/>
        <g id="XMLID_1503_">
          <g id="XMLID_1508_">
            <path id="XMLID_1556_" class="st35" d="M12 4.4c.9-.8 3.1-.6 6.5.2 3.5.9 5.5 1.7 5.9 2.9 1 2-.1 14.4-.7 16.8-1.3 5.2-6.6 8.4-11.8 7.1s-8.4-6.6-7.1-11.8c.6-2.4 5.4-13.9 7.2-15.2z" fill="#00B8F0"/>
            <path id="XMLID_1555_" class="st36" d="M5.9 27.1c9.8-1.9 15.8-9.6 18.9-15.2 0-2.1-.1-3.8-.4-4.4-.4-1.1-2.5-2-5.9-2.8-3.4-.9-5.6-1.1-6.5-.2-1.9 1.3-6.6 12.8-7.2 15.2-.7 2.5-.2 5.2 1.1 7.4z" fill="#4ACFFF"/>
            <path id="XMLID_1552_" class="st35" d="M17.9 7.2c3.4.9 6.4 1 6.5.2-.4-1.1-2.5-2-5.9-2.8-3.4-.9-5.6-1.1-6.5-.2-.2.7 2.5 2 5.9 2.8z" fill="#00B8F0"/>
            <path id="XMLID_1551_" class="st10" d="M12 4.4c.9-.8 3.1-.6 6.5.2 3.5.9 5.5 1.7 5.9 2.9 1 2-.1 14.4-.7 16.8-1.3 5.2-6.6 8.4-11.8 7.1s-8.4-6.6-7.1-11.8c.6-2.4 5.4-13.9 7.2-15.2z" fill="none" stroke="#45413C" stroke-linecap="round" stroke-linejoin="round" stroke-miterlimit="10"/>
            <path id="XMLID_1522_" class="st10" d="M24.4 7.5c-.2.7-3.1.6-6.5-.2S11.8 5.1 12 4.4" fill="none" stroke="#45413C" stroke-linecap="round" stroke-linejoin="round" stroke-miterlimit="10"/>
          </g>
          <g id="XMLID_1504_">
            <path id="XMLID_1507_" class="st45" d="M7.1 21.6S8.4 19.1 12 20c3.6.9 3.9 3.8 3.9 3.8l-8.8-2.2z" fill="#FFF48C"/>
            <path id="XMLID_1506_" class="st45" d="M22.1 23.9c-1.1 4.3-5.5 7-9.8 5.9-4.3-1.1-7-5.5-5.9-9.8 0 0 2.3 2 4.3 2.4 2 .5 5.2-1.5 7.2-1 1.9.5 4.2 2.5 4.2 2.5z" fill="#FFF48C"/>
            <path id="XMLID_1505_" class="st28" d="M7.7 26.6c3.8-1 7-3 9.6-5.3-2-.1-4.9 1.5-6.7 1.1C8.7 22 6.4 20 6.4 20c-.6 2.4 0 4.8 1.3 6.6z" fill="#FFFACF"/>
          </g>
        </g>
        <g id="XMLID_1498_">
          <circle id="XMLID_1502_" transform="rotate(-76.09 13.092 9.849)" class="st16" cx="13.1" cy="9.8" fill="#E5F8FF" r="1.3"/>
          <circle id="XMLID_1501_" transform="rotate(-76.085 10.644 11.326)" class="st16" cx="10.6" cy="11.3" fill="#E5F8FF" r=".7"/>
        </g>
      </g>
      <g id="XMLID_1280_">
        <path id="XMLID_1494_" class="st61" d="M33.4 27.9c2.2 3.5 4 10.1 4 10.1.1.3-.1.7-.4.8-2.6 1-4.4 2.3-4.6 3.2 0 .2.1.3.3.4.7.1 3 .3 6.9-.9 3.9-1.2 5.6-2.7 6.1-3.3.1-.1.1-.3 0-.5-.7-.6-2.9-.6-5.6.1-.3.1-.7-.1-.8-.4 0 0-2.4-6.4-2.7-10.5l-3.2 1z" fill="#00B8F0" stroke="#45413C" stroke-linecap="round" stroke-linejoin="round" stroke-miterlimit="10"/>
        <g id="XMLID_1284_">
          <g id="XMLID_1300_">
            <path id="XMLID_1319_" class="st35" d="M21.3 5.6c.3-1.2 2.3-2.2 5.7-3.2 3.4-1.1 5.6-1.4 6.5-.7C35.4 2.8 41 14 41.7 16.3c1.6 5.1-1.2 10.6-6.3 12.3-5.1 1.6-10.6-1.2-12.3-6.3-.7-2.3-2.7-14.6-1.8-16.7z" fill="#00B8F0"/>
            <path id="XMLID_1318_" class="st36" d="M28 28c7.4-6.8 8.4-16.4 8.1-22.8C35 3.4 34 2 33.4 1.7c-1-.8-3.1-.4-6.5.7s-5.4 2.1-5.7 3.2C20.3 7.7 22.3 20 23 22.3c.9 2.6 2.8 4.6 5 5.7z" fill="#4ACFFF"/>
            <path id="XMLID_1317_" class="st35" d="M27.8 4.9c3.4-1.1 5.9-2.5 5.7-3.2-1-.8-3.1-.4-6.5.7s-5.4 2.1-5.7 3.2c.2.7 3.1.4 6.5-.7z" fill="#00B8F0"/>
            <path id="XMLID_1316_" class="st10" d="M21.3 5.6c.3-1.2 2.3-2.2 5.7-3.2 3.4-1.1 5.6-1.4 6.5-.7C35.4 2.8 41 14 41.7 16.3c1.6 5.1-1.2 10.6-6.3 12.3-5.1 1.6-10.6-1.2-12.3-6.3-.7-2.3-2.7-14.6-1.8-16.7z" fill="none" stroke="#45413C" stroke-linecap="round" stroke-linejoin="round" stroke-miterlimit="10"/>
            <path id="XMLID_1301_" class="st10" d="M33.5 1.7c.2.7-2.3 2.2-5.7 3.2s-6.3 1.4-6.5.7" fill="none" stroke="#45413C" stroke-linecap="round" stroke-linejoin="round" stroke-miterlimit="10"/>
          </g>
          <g id="XMLID_1285_">
            <path id="XMLID_1288_" class="st45" d="M26.1 22.8s-.2-2.8 3.3-3.9 5.3 1.1 5.3 1.1l-8.6 2.8z" fill="#FFF48C"/>
            <path id="XMLID_1287_" class="st45" d="M40.1 16.9c1.4 4.3-1 8.8-5.2 10.2-4.3 1.4-8.8-1-10.2-5.2 0 0 3 .5 4.9-.2 1.9-.6 3.7-4 5.6-4.6 1.9-.7 4.9-.2 4.9-.2z" fill="#FFF48C"/>
            <path id="XMLID_1286_" class="st28" d="M29.3 26.8c2.7-2.9 4.4-6.2 5.4-9.5-1.7 1-3.3 3.8-5.1 4.4-1.9.6-4.9.2-4.9.2.8 2.2 2.5 4 4.6 4.9z" fill="#FFFACF"/>
          </g>
        </g>
        <g id="XMLID_1281_">
          <circle id="XMLID_1283_" transform="rotate(-17.794 25.05 9.645)" class="st16" cx="25.1" cy="9.6" fill="#E5F8FF" r="1.3"/>
          <circle id="XMLID_1282_" transform="rotate(-17.787 23.75 12.19)" class="st16" cx="23.7" cy="12.2" fill="#E5F8FF" r=".7"/>
        </g>
      </g>
    </g>
  </g>
</svg>
