<svg viewBox="0 0 24 24" xmlns="http://www.w3.org/2000/svg" focusable="false">
  <path d="M19.296 10.274c.389 0 .704.322.704.72 0 4.264-3.214 7.772-7.296 8.138v2.148c0 .397-.315.72-.704.72a.712.712 0 01-.703-.72v-2.83a.71.71 0 01.703-.72c3.635 0 6.593-3.022 6.593-6.736 0-.398.315-.72.703-.72zm-14.592 0c.388 0 .704.323.704.72 0 2.581 1.406 4.896 3.672 6.042a.727.727 0 01.319.964.704.704 0 01-.632.399.67.67 0 01-.312-.075C5.708 16.934 4 14.126 4 10.994c0-.397.315-.72.704-.72zM12.124 2c2.377 0 4.31 1.976 4.31 4.404v.508a.712.712 0 01-.703.719h-1.876a.712.712 0 01-.704-.72c0-.396.316-.718.704-.718h1.165c-.107-1.537-1.365-2.754-2.896-2.754h-.249c-1.6 0-2.902 1.33-2.902 2.965v4.584c0 1.635 1.301 2.965 2.902 2.965h.249c1.6 0 2.902-1.33 2.902-2.965v-.164h-2.11a.712.712 0 01-.703-.72c0-.397.315-.72.704-.72h2.814c.388 0 .704.323.704.72v.884c0 2.428-1.934 4.403-4.311 4.403h-.249c-2.377 0-4.31-1.975-4.31-4.403V6.404C7.565 3.976 9.498 2 11.875 2z"/>
</svg>
