<svg data-name="Layer 1" xmlns="http://www.w3.org/2000/svg" viewBox="0 0 24 24" focusable="false">
  <path fill="none" d="M0 0h24v24H0z"/>
  <path d="M15.515 4.167C14.544 3.001 13.325 2 12 2S9.457 3.001 8.485 4.167a4.536 4.536 0 00.3 6.103 4.546 4.546 0 006.43 0 4.536 4.536 0 00.3-6.103z"/>
  <rect x="2" y="15.302" width="20" height="6.698" rx="3.349"/>
  <g opacity=".1">
    <path d="M15.515 4.167C14.544 3.001 13.325 2 12 2S9.457 3.001 8.485 4.167a4.536 4.536 0 00.3 6.103 4.546 4.546 0 006.43 0 4.536 4.536 0 00.3-6.103z"/>
    <rect x="2" y="15.302" width="20" height="6.698" rx="3.349"/>
  </g>
</svg>
