<svg xmlns="http://www.w3.org/2000/svg" viewBox="0 0 24 24" fill-rule="evenodd" stroke="currentColor" stroke-linecap="round" stroke-linejoin="round" stroke-width="1.5" focusable="false">
  <path d="M21.524 9.753a8.311 8.311 0 00-7.963-6.975.714.714 0 00-.742.687h0v.064l.449 6.709c.03.452.417.795.87.769l6.727-.449a.714.714 0 00.659-.769v-.036z"/>
  <path d="M8.902 6.769a.915.915 0 011.043.522.824.824 0 01.082.302c.092 1.3.284 4.146.394 5.684a1.043 1.043 0 001.117.97h0l5.647-.348a.915.915 0 01.97.916h0A7.698 7.698 0 013.73 18.009a7.323 7.323 0 01-.915-2.8 4.723 4.723 0 01-.055-.916 7.707 7.707 0 016.132-7.524"/>
</svg>
