<svg viewBox="0 0 24 24" xmlns="http://www.w3.org/2000/svg" fill="currentColor" focusable="false">
  <path d="M13.025 3.234a2 2 0 01.693.693l2.197 3.684 4.183.952a2 2 0 011.061 3.267l-2.824 3.228.387 4.272a2 2 0 01-2.779 2.02L12 19.66l-3.943 1.69a2 2 0 01-2.78-2.02l.388-4.272-2.824-3.228a2 2 0 011.061-3.267l4.183-.952 2.197-3.684a2 2 0 012.743-.693zM12 4.952L9.802 8.636a2 2 0 01-1.099.877l-.175.048-4.182.952 2.824 3.228a2 2 0 01.495 1.317l-.008.181-.388 4.272 3.944-1.689a2 2 0 011.404-.063l.17.063 3.944 1.689-.388-4.272a2 2 0 01.374-1.356l.113-.142 2.824-3.228-4.182-.952a2 2 0 01-1.174-.774l-.1-.151L12 4.952z" fill="none"/>
</svg>
