<svg xmlns="http://www.w3.org/2000/svg" viewBox="0 0 39.69 44.184" focusable="false" fill="currentColor">
  <path d="M3.744 24.71a.749.749 0 00-.749.749v3a.75.75 0 101.5 0v-3a.749.749 0 00-.751-.749zm2.995 1.498a.749.749 0 00-.749.749v3a.75.75 0 001.5 0v-3a.749.749 0 00-.751-.749zm27.314 4.021a.749.749 0 00-.839 1.24 4.493 4.493 0 11-2.512-.766.75.75 0 000-1.5 5.991 5.991 0 103.35 1.024z" fill="#01af44"/>
  <path d="M39.336 32.709a8.982 8.982 0 00-4.889-5.675v-16.55a.749.749 0 00-.368-.645L17.605.1a.749.749 0 00-.762 0L.368 9.839c-.016.009-.027.022-.042.033l-.044.034a.738.738 0 00-.165.183c0 .005-.009.008-.012.013v.005a.749.749 0 00-.085.245.662.662 0 01-.009.066.655.655 0 00-.01.065v19.47a.749.749 0 00.368.645l16.475 9.735a.616.616 0 00.061.025.591.591 0 00.063.027.668.668 0 00.515 0 .6.6 0 00.064-.027c.019-.009.04-.014.06-.025l4.471-2.643a8.982 8.982 0 0017.26-4.982zM17.223 1.619l3.894 2.3-5.773 3.413a.75.75 0 10.762 1.29l6.484-3.829 3.894 2.3-15 8.863-3.894-2.3 6.273-3.707a.75.75 0 10-.762-1.29l-6.985 4.126-3.895-2.3zm-6.49 15.636v5l-3.869-2.286v-5zm11.279 15.626a9.124 9.124 0 00-.246 3.253l-3.794 2.243v-2.432a.75.75 0 00-1.5 0v2.432l-14.976-8.85V11.8l3.869 2.286V20.4a.749.749 0 00.368.646l5.363 3.166a.749.749 0 001.13-.645v-5.428l4.244 2.508v12.3a.75.75 0 101.5 0v-12.3l13.572-8.02a.75.75 0 10-.762-1.29L17.223 19.35l-4.268-2.523 15-8.866 4.992 2.95v15.6a8.95 8.95 0 00-10.935 6.37zm8.69 9.8a7.488 7.488 0 117.489-7.481 7.488 7.488 0 01-7.488 7.484z" fill="#2446f5"/>
  <path d="M33.461 33.169a.749.749 0 00-1.041 0l-2.84 2.84-.594-.594a.749.749 0 00-1.059 1.059l1.123 1.123a.749.749 0 001.059 0l3.37-3.37a.749.749 0 00-.018-1.058z" fill="#01af44"/>
</svg>
