<svg viewBox="0 0 24 24" xmlns="http://www.w3.org/2000/svg" focusable="false">
  <path d="M13.64 19.57a.77.77 0 011-.02.755.755 0 01.102 1.069A3.559 3.559 0 0111.956 22l-.217-.01a3.557 3.557 0 01-2.56-1.371l-.065-.092a.755.755 0 01.167-.978.77.77 0 011.078.102 1.99 1.99 0 003.194 0h.01zM11.966 2c3.07 0 6.512 2.165 6.903 5.64v1.813c.133.654.439 1.261.887 1.76.026.03.05.062.07.096a4.06 4.06 0 01.675 2.05l-.027.185a4.14 4.14 0 01-.94 2.754 4.886 4.886 0 01-3.123 1.54 40.656 40.656 0 01-8.872 0 4.832 4.832 0 01-3.07-1.54 4.08 4.08 0 01-.967-2.736v-.123a4.2 4.2 0 01.728-2.103l.07-.088c.445-.5.751-1.107.888-1.76V7.675l.049-.1a.765.765 0 011.415.259v1.812a.454.454 0 010 .097 5.263 5.263 0 01-1.225 2.446 2.528 2.528 0 00-.39 1.25v.193c-.02.623.188 1.233.586 1.716a3.32 3.32 0 002.076.985 40.03 40.03 0 008.588 0 3.329 3.329 0 002.12-1.029 2.55 2.55 0 00.56-1.663v-.202a2.624 2.624 0 00-.382-1.259 5.265 5.265 0 01-1.296-2.446.454.454 0 010-.097v-1.82c-.257-2.658-2.927-4.304-5.252-4.304a5.76 5.76 0 00-2.821.73l-.106.053a.769.769 0 01-.67-.047.755.755 0 01.03-1.325A7.25 7.25 0 0111.966 2z"/>
</svg>
