<svg viewBox="0 0 24 24" xmlns="http://www.w3.org/2000/svg" fill="currentColor" focusable="false">
  <path d="M12 3a1 1 0 010 2H6c-.447 0-1 .553-1 1v12.19c0 .448.362.81.81.81H18c.447 0 1-.553 1-1v-6a1 1 0 012 0v6c0 1.552-1.448 3-3 3H5.81A2.81 2.81 0 013 18.19V6c0-1.552 1.448-3 3-3h6zm-.464 10.764l8.4-8.4a.92.92 0 00-1.3-1.3l-8.4 8.4-.433 1.733 1.733-.433zM21.35 2.65a2.92 2.92 0 010 4.129l-8.595 8.595a1 1 0 01-.465.263l-3.619.905a1 1 0 01-1.213-1.213l.905-3.62a1 1 0 01.263-.464l8.595-8.595a2.92 2.92 0 014.129 0z" fill="none"/>
</svg>
