<svg xmlns="http://www.w3.org/2000/svg" viewBox="0 0 48 48" focusable="false">
  <ellipse cx="24" cy="38.4" rx="19.3" ry="2" fill="#45413c" opacity=".15"/>
  <path d="M42.9 22.1c-1.8 2.7-2 15.9-2 15.9h-2.7s.7-11.3-2-11.3h-5.3l7.3-7.3 4.7 2.7z" fill="#87898C" stroke="#45413C" stroke-linecap="round" stroke-linejoin="round" stroke-miterlimit="10"/>
  <path d="M8.6 26.4c.3-.2.6-.1.8.1.8.9 3 2.7 6.3 2.9 4.3.2 12-5 17.9-12 4.6-5.4 6-8.3 6.5-9.4.1-.3.5-.5.8-.4 1.5.5 5.3 2.1 5.3 6.5 0 5.4-3.3 8-3.3 8s-5.6-.1-10 5.3C28.6 32.8 27 38 23 38H5.7s-4-.5-4-3.3c.1-2.7 3.8-6.3 6.9-8.3z" fill="#ff6242"/>
  <path d="M7.2 29.7c.3-.2.7-.1.9.1.9.9 3.3 2.7 6.8 2.9 4.6.2 13.1-5 19.5-12 5-5.4 6.6-8.3 7-9.4.1-.3.5-.5.9-.4.9.3 2.4.8 3.7 1.9-.6-3.4-3.8-4.8-5.2-5.3-.3-.1-.7.1-.8.4-.4 1.1-1.9 4-6.5 9.4-5.9 7-13.7 12.2-17.9 12-3.3-.2-5.5-2.1-6.3-2.9-.2-.2-.6-.3-.8-.1-2.8 1.9-6.3 5.1-6.8 7.7 1.6-1.6 3.7-3.2 5.5-4.3z" fill="#ff866e"/>
  <path d="M8.6 26.4c.3-.2.6-.1.8.1.8.9 3 2.7 6.3 2.9 4.3.2 12-5 17.9-12 4.6-5.4 6-8.3 6.5-9.4.1-.3.5-.5.8-.4 1.5.5 5.3 2.1 5.3 6.5 0 5.4-3.3 8-3.3 8s-5.6-.1-10 5.3C28.6 32.8 27 38 23 38H5.7s-4-.5-4-3.3c.1-2.7 3.8-6.3 6.9-8.3z" fill="none" stroke="#45413c" stroke-linecap="round" stroke-linejoin="round" stroke-miterlimit="10"/>
  <path d="M23 35.4H7.7c-3.5 0-5.1-.6-5.9-1.2v.5c0 2.8 4 3.3 4 3.3H23c2.5 0 4-1.9 5.8-4.6-1.1.8-3.1 2-5.8 2z" fill="#87898C" stroke="#45413C" stroke-linecap="round" stroke-linejoin="round" stroke-miterlimit="10"/>
</svg>
