<svg xmlns="http://www.w3.org/2000/svg" viewBox="0 0 24 24" fill="currentColor" focusable="false">
  <path d="M20.56 8.79a.733.733 0 01.724.732v6.473c0 3.703-2.315 6.005-6.027 6.005h-2.952a.742.742 0 01-.743-.732.75.75 0 01.743-.74h2.952c2.925 0 4.542-1.606 4.569-4.533V9.522c0-.404.328-.732.733-.732zm-6.037-6.014a.742.742 0 01.734.74.731.731 0 01-.743.733H8.02c-2.926 0-4.543 1.613-4.543 4.541v7.205c0 2.927 1.617 4.532 4.543 4.532a.75.75 0 01.742.741.742.742 0 01-.742.732C4.307 22 2 19.698 2 15.995V8.79c0-3.712 2.307-6.014 6.019-6.014zm1.118 6.698a.735.735 0 01.86.025.73.73 0 01.196.931l-2.828 3.642a.787.787 0 01-.495.283.744.744 0 01-.539-.16l-2.713-2.124-2.44 3.165a.734.734 0 01-1.033.15.74.74 0 01-.133-1.031l2.89-3.757a.743.743 0 011.043-.132l2.713 2.125 2.386-3.042zM18.4 2.2a2.603 2.603 0 012.835.556c.745.741.969 1.857.567 2.827a2.598 2.598 0 01-2.401 1.602 2.596 2.596 0 01-2.599-2.584l.006-.184A2.593 2.593 0 0118.401 2.2zm1 1.282a1.121 1.121 0 101.123 1.12 1.12 1.12 0 00-1.122-1.12z"/>
</svg>
