<svg viewBox="0 0 24 24" xmlns="http://www.w3.org/2000/svg" focusable="false">
  <g fill="none" fill-rule="evenodd">
    <path d="M0 0h24v24H0z"/>
    <path d="M17.667 13.947c2.32 0 4.215 1.789 4.328 4.038l.005.212v1.062c0 .587-.485 1.063-1.083 1.063-.556 0-1.014-.41-1.076-.939l-.008-.124v-1.062c0-1.12-.884-2.038-2.005-2.12l-.161-.005h-4.334c-1.142 0-2.078.867-2.16 1.966l-.006.159v1.062c0 .587-.485 1.063-1.084 1.063-.555 0-1.013-.41-1.076-.939L9 19.26v-1.062c0-2.276 1.824-4.134 4.117-4.245l.216-.005h4.334zM6.048 8a1 1 0 011 1v1.999h2.038a1 1 0 110 2H7.048v2.08a1 1 0 11-2 0v-2.08H3a1 1 0 010-2h2.048V9a1 1 0 011-1zm9.602-4.678A4.65 4.65 0 1111 7.97a4.65 4.65 0 014.65-4.648zm0 2.125a2.524 2.524 0 100 5.047 2.524 2.524 0 000-5.047z" fill="currentColor" fill-rule="nonzero"/>
  </g>
</svg>
