<svg viewBox="0 0 24 24" xmlns="http://www.w3.org/2000/svg" focusable="false">
  <path d="M16.34 2C19.73 2 22 4.38 22 7.92v8.17c0 3.53-2.27 5.91-5.66 5.91H7.67C4.28 22 2 19.62 2 16.09V7.92C2 4.38 4.28 2 7.67 2zm.14 8.8c-.66 0-1.2.54-1.2 1.2 0 .66.54 1.2 1.2 1.2.66 0 1.19-.54 1.19-1.2 0-.66-.53-1.2-1.19-1.2zm-4.48 0c-.66 0-1.2.54-1.2 1.2 0 .66.54 1.2 1.2 1.2.66 0 1.2-.54 1.2-1.2 0-.66-.54-1.2-1.2-1.2zm-4.48 0c-.66 0-1.2.54-1.2 1.2 0 .66.54 1.2 1.2 1.2.66 0 1.2-.54 1.2-1.2 0-.66-.54-1.2-1.2-1.2z"/>
</svg>
