<svg viewBox="0 0 24 24" xmlns="http://www.w3.org/2000/svg" focusable="false">
  <path d="M18.617 12.752c1.587.004 2.873 1.314 2.883 2.934v2.87c-.01 1.622-1.295 2.934-2.883 2.944h-2.813c-1.586-.01-2.869-1.323-2.874-2.943v-2.871c0-1.62 1.287-2.934 2.874-2.934zm-12.079 0a.77.77 0 01.74.367.806.806 0 010 .84.77.77 0 01-.74.368H5.383c-.737 0-1.335.607-1.34 1.359v2.835a1.38 1.38 0 001.34 1.359h2.83c.355.002.696-.14.947-.395.252-.255.393-.602.393-.964v-4.257l-.012-.106a.797.797 0 01.36-.707.763.763 0 01.868.026.8.8 0 01.3.832v4.239c0 1.625-1.29 2.943-2.882 2.943H5.383c-1.578-.033-2.85-1.332-2.883-2.943v-2.862c0-.78.304-1.528.845-2.078a2.845 2.845 0 012.038-.856zm12.079 1.575h-2.813c-.735 0-1.33.608-1.33 1.359v2.87c-.003.362.136.71.386.965s.59.397.944.395h2.813c.354.002.694-.14.944-.395.25-.256.39-.603.387-.964v-2.871c0-.36-.14-.706-.39-.961a1.318 1.318 0 00-.941-.398zm0-11.827c1.575.038 2.842 1.335 2.874 2.943v2.862a2.967 2.967 0 01-.817 2.086 2.846 2.846 0 01-2.022.884h-1.164a.786.786 0 01-.693-.787c0-.405.3-.745.693-.788h1.129c.357-.002.698-.15.948-.41s.388-.611.383-.976v-2.87c-.01-.747-.6-1.35-1.331-1.36h-2.813c-.735 0-1.33.609-1.33 1.36v4.292l-.011.107a.79.79 0 01-.783.667.76.76 0 01-.54-.245.792.792 0 01-.21-.565V5.443c-.002-.78.3-1.528.839-2.08a2.845 2.845 0 012.035-.863zm-10.421 0c1.59.005 2.878 1.32 2.883 2.943v2.871c0 .78-.304 1.528-.845 2.078a2.845 2.845 0 01-2.038.856H5.383C3.796 11.244 2.51 9.934 2.5 8.314v-2.87C2.51 3.821 3.795 2.51 5.383 2.5zm0 1.584H5.383a1.317 1.317 0 00-.958.388c-.256.256-.4.606-.4.971v2.871c-.007.37.134.727.39.989.256.261.606.405.968.397h2.813c.357-.002.698-.15.948-.41s.388-.611.383-.976v-2.87c-.005-.75-.598-1.355-1.331-1.36z"/>
</svg>
