<svg viewBox="0 0 24 24" xmlns="http://www.w3.org/2000/svg" focusable="false">
  <path d="M16.3 2c3.386 0 5.66 2.371 5.66 5.899v8.151c0 3.528-2.274 5.899-5.66 5.899h-3.32a.75.75 0 010-1.5h3.32c2.527 0 4.16-1.727 4.16-4.399V7.899c0-2.673-1.633-4.399-4.16-4.399H7.65C5.129 3.5 3.5 5.226 3.5 7.899v8.151c0 2.672 1.629 4.399 4.15 4.399h.721a.75.75 0 010 1.5H7.65C4.271 21.949 2 19.578 2 16.05V7.899C2 4.371 4.271 2 7.65 2h8.65zm-1.009 9.543a2.47 2.47 0 011.85.74l2.077 2.14a.75.75 0 01-1.078 1.045l-2.077-2.14a.894.894 0 00-.71-.286.926.926 0 00-.686.342l-2.229 2.712a2.187 2.187 0 01-1.59.795 2.243 2.243 0 01-1.656-.652l-.886-.904c-.13-.134-.294-.252-.478-.206a.651.651 0 00-.473.204l-1.53 1.615a.75.75 0 11-1.088-1.032l1.53-1.614a2.13 2.13 0 011.554-.673c.574.038 1.15.233 1.561.661l.882.898a.65.65 0 00.518.204.677.677 0 00.498-.249l2.229-2.712a2.444 2.444 0 011.782-.888zM8.561 6.63a2.506 2.506 0 012.502 2.504 2.506 2.506 0 01-2.503 2.504 2.506 2.506 0 01-2.504-2.504A2.506 2.506 0 018.56 6.63zm0 1.5a1.005 1.005 0 100 2.009 1.005 1.005 0 000-2.01z"/>
</svg>
