<svg xmlns="http://www.w3.org/2000/svg" viewBox="0 0 32 32" fill="currentColor" focusable="false">
  <path d="M19.286 9.321H6.677a1.023 1.023 0 110-2.048h12.608a1.023 1.023 0 110 2.048zm0 7.766H6.677a1.023 1.023 0 110-2.048h12.608a1.023 1.023 0 110 2.048zm0 7.764H6.677a1.023 1.023 0 110-2.048h12.608a1.023 1.023 0 110 2.048zm5.29-15.53h-.069a1.023 1.023 0 110-2.048h.069a1.023 1.023 0 110 2.048zm0 7.766h-.069a1.023 1.023 0 110-2.048h.069a1.023 1.023 0 110 2.048zm0 7.764h-.069a1.023 1.023 0 110-2.048h.069a1.023 1.023 0 110 2.048zm5.532 6.181H1.82a1.023 1.023 0 01-1.024-1.024V2.247c0-.566.458-1.024 1.024-1.024h28.288c.566 0 1.024.458 1.024 1.024v27.761c0 .566-.458 1.024-1.024 1.024zM2.844 28.984h26.24V3.271H2.844z"/>
</svg>
