<svg viewBox="0 0 24 24" xmlns="http://www.w3.org/2000/svg" focusable="false">
  <path d="M12 21.998a3.005 3.005 0 01-2.125-.875l-.73-.73a1.504 1.504 0 00-1.064-.439H7.054a3.015 3.015 0 01-3.01-3.01v-1.029a1.509 1.509 0 00-.44-1.065l-.719-.717a3.015 3.015 0 01-.01-4.257l.73-.73c.281-.284.437-.663.438-1.065V7.055a3.015 3.015 0 013.011-3.012h1.028c.401 0 .78-.156 1.064-.44l.72-.718a3.014 3.014 0 014.256-.01l.73.73a1.5 1.5 0 001.063.438h1.028a3.015 3.015 0 013.011 3.012v1.027c.001.401.157.78.44 1.065l.718.718c.57.566.884 1.32.887 2.125.002.8-.306 1.553-.867 2.122l-.029.03-.71.71a1.504 1.504 0 00-.439 1.064v1.027a3.015 3.015 0 01-3.01 3.011h-1.029c-.4.001-.78.157-1.064.44l-.719.718c-.586.59-1.36.886-2.133.886" opacity=".4"/>
  <path d="M13.942 13.958a.885.885 0 01.964-.194c.095.032.2.1.289.187.16.16.247.379.247.619a.865.865 0 01-.246.618.908.908 0 01-.62.257.896.896 0 01-.624-.253.845.845 0 01-.25-.622.85.85 0 01.06-.341c.052-.113.127-.21.18-.271zm.011-5.148a.878.878 0 011.238 0 .877.877 0 010 1.238l-5.14 5.14a.872.872 0 01-1.237 0 .877.877 0 010-1.238zm-4.846-.19a.856.856 0 01.94.194.833.833 0 01.264.616.84.84 0 01-.268.62.856.856 0 01-.616.255.903.903 0 01-.615-.255.88.88 0 01-.26-.62c0-.218.092-.442.254-.615a.792.792 0 01.3-.194z"/>
</svg>
