<svg xmlns="http://www.w3.org/2000/svg" viewBox="0 0 32 32" focusable="false" fill="currentColor">
  <path d="M29.411 23.115a.637.637 0 00-.819-.377l-6.63 2.446a.637.637 0 10.442 1.196l6.63-2.446a.637.637 0 00.377-.819zm-8.452 3.119a.637.637 0 00-.819-.377l-.281.104a.637.637 0 10.442 1.196l.281-.104a.637.637 0 00.377-.819zm8.452-5.717a.637.637 0 00-.819-.377l-5.239 1.933a.637.637 0 10.442 1.196l5.239-1.933a.637.637 0 00.377-.819zm0-2.57a.637.637 0 00-.819-.377l-5.239 1.933a.637.637 0 10.442 1.196l5.239-1.933a.637.637 0 00.377-.819zm2.172-11.664L16.22.615a.643.643 0 00-.441 0L.416 6.284a.637.637 0 00-.417.598V25.12c0 .267.166.506.417.598l15.363 5.669a.647.647 0 00.441-.001l15.363-5.668A.638.638 0 0032 25.12V6.882a.636.636 0 00-.417-.598zm-16.22 23.59L1.275 24.675V7.796l2.869 1.059v7.724c0 .267.166.506.417.598l6.884 2.54a.647.647 0 00.586-.075.637.637 0 00.273-.523v-7.253l3.06 1.129v16.879zm-4.335-18.479v6.809l-5.61-2.07V9.324l5.61 2.07zM6.622 8.405l5.043-1.861 5.043 1.861-5.043 1.861-5.043-1.861zM16 11.87l-2.5-.922 5.271-1.945a.638.638 0 000-1.196l-6.884-2.54a.631.631 0 00-.441 0L4.775 7.729 2.48 6.882l13.521-4.989 13.521 4.989-13.521 4.989zm14.725 12.805l-14.088 5.198V12.994l14.088-5.198v16.879z"/>
</svg>
