<svg xmlns="http://www.w3.org/2000/svg" viewBox="0 0 48 48">
  <ellipse cx="24" cy="45" rx="15.5" ry="1.7" fill="#45413c" opacity=".15"/>
  <ellipse transform="rotate(-54.458 35.078 10.821)" class="st73" cx="35.1" cy="10.8" rx="10" ry="8.9" fill="#656769"/>
  <path class="st74" d="M27.9 7.9c3.2-4.5 9-5.8 13-3 2 1.4 3.1 3.6 3.4 5.9.3-3.2-.8-6.3-3.4-8.2-4-2.8-9.8-1.5-13 3-1.6 2.3-2.3 4.9-2 7.3.2-1.6.8-3.4 2-5z" fill="#87898C"/>
  <ellipse transform="rotate(-54.458 35.078 10.821)" class="st10" cx="35.1" cy="10.8" rx="10" ry="8.9" fill="none" stroke="#45413C" stroke-linecap="round" stroke-linejoin="round" stroke-miterlimit="10"/>
  <ellipse transform="rotate(-54.458 34.93 10.821)" class="st75" cx="34.9" cy="10.8" rx="6.8" ry="6.1" fill="#E0E0E0"/>
  <ellipse transform="rotate(-35.541 13.07 10.821)" class="st73" cx="13.1" cy="10.8" rx="8.9" ry="10" fill="#656769"/>
  <path class="st74" d="M7.3 4.9c4-2.8 9.8-1.5 13 3 1.1 1.6 1.8 3.4 2 5.1.3-2.4-.4-5.1-2-7.3-3.2-4.5-9-5.8-13-3-2.6 1.8-3.7 5-3.4 8.2.2-2.4 1.4-4.6 3.4-6z" fill="#87898C"/>
  <ellipse transform="rotate(-35.541 13.07 10.821)" class="st10" cx="13.1" cy="10.8" rx="8.9" ry="10" fill="none" stroke="#45413C" stroke-linecap="round" stroke-linejoin="round" stroke-miterlimit="10"/>
  <ellipse transform="rotate(-35.541 13.218 10.821)" class="st75" cx="13.2" cy="10.8" rx="6.1" ry="6.8" fill="#E0E0E0"/>
  <path class="st76" d="M30 9.8c2.2-3.1 6.2-4 8.9-2 1.2.9 1.9 2.2 2.2 3.6.4-2.4-.3-4.7-2.2-6.1-2.7-1.9-6.7-1-8.9 2-1.2 1.7-1.6 3.7-1.3 5.5.2-1 .6-2.1 1.3-3zm-20.7-2c2.7-1.9 6.7-1 8.9 2 .7.9 1.1 2 1.3 3 .3-1.8 0-3.8-1.3-5.5-2.2-3.1-6.2-4-8.9-2C7.4 6.6 6.6 9 7 11.4c.3-1.5 1-2.8 2.3-3.6z" fill="#BDBEC0"/>
  <ellipse transform="rotate(-54.458 34.93 10.821)" class="st10" cx="34.9" cy="10.8" rx="6.8" ry="6.1" fill="none" stroke="#45413C" stroke-linecap="round" stroke-linejoin="round" stroke-miterlimit="10"/>
  <ellipse transform="rotate(-35.541 13.218 10.821)" class="st10" cx="13.2" cy="10.8" rx="6.1" ry="6.8" fill="none" stroke="#45413C" stroke-linecap="round" stroke-linejoin="round" stroke-miterlimit="10"/>
  <path d="M44.8 25.2C43 13.8 34.2 5.5 24 5.5c-10.2 0-19 8.3-20.8 19.7-1.2 7.8 4.1 15 11.1 15H16c1.9 1.6 4.7 2.7 7.9 2.7s6-1 7.9-2.7h2c6.9 0 12.2-7.2 11-15z" fill="#f0f0f0"/>
  <path d="M3.2 29.6C5 18.2 13.8 9.9 24 9.9c10.2 0 19 8.3 20.8 19.7.2-1.4.2-2.9 0-4.4C43 13.8 34.2 5.5 24 5.5c-10.2 0-19 8.3-20.8 19.7-.2 1.5-.2 3 0 4.4z" fill="#fff"/>
  <path class="st10" d="M44.8 25.2C43 13.8 34.2 5.5 24 5.5c-10.2 0-19 8.3-20.8 19.7-1.2 7.8 4.1 15 11.1 15H16c1.9 1.6 4.7 2.7 7.9 2.7s6-1 7.9-2.7h2c6.9 0 12.2-7.2 11-15z" fill="none" stroke="#45413C" stroke-linecap="round" stroke-linejoin="round" stroke-miterlimit="10"/>
  <path class="st77" d="M27.9 32.5c0 1.1-1.7 3-3.9 3s-3.9-1.8-3.9-3c0-1.1 1.7-2 3.9-2s3.9.8 3.9 2zm.2-12.4c-.9 5.1 3.1 7.7 6.1 8.8 3.1 1.2 4.8-1 4.8-4.1-.1-3.1-2-7.3-5.4-8.2-3-.7-5.3 2-5.5 3.5zm-8.3 0c.9 5.1-3.1 7.7-6.1 8.8-3.1 1.2-4.8-1-4.8-4.1.1-3.1 2-7.3 5.4-8.2 3-.7 5.2 2 5.5 3.5z" fill="#656769" stroke="#45413C" stroke-linecap="round" stroke-linejoin="round" stroke-miterlimit="10"/>
  <circle class="st78" cx="31.8" cy="22.1" r="1.7" fill="#45413C" stroke="#45413C" stroke-linecap="round" stroke-linejoin="round" stroke-miterlimit="10"/>
  <circle class="st78" cx="16.2" cy="22.1" r="1.7" fill="#45413C" stroke="#45413C" stroke-linecap="round" stroke-linejoin="round" stroke-miterlimit="10"/>
  <circle class="st79" cx="41.4" cy="29.7" r="2" fill="#FFA694"/>
  <circle class="st79" cx="6.6" cy="29.7" r="2" fill="#FFA694"/>
  <path class="st10" fill="none" stroke="#45413C" stroke-linecap="round" stroke-linejoin="round" stroke-miterlimit="10" d="M24 35.4v2.2"/>
</svg>
