<svg xmlns="http://www.w3.org/2000/svg" viewBox="0 0 32 32" fill="currentColor" focusable="false">
  <path d="M12.565 31.573a1.835 1.835 0 01-1.835-1.835V17.279L1.599 8.042a1.85 1.85 0 01-.533-1.279V1.855A1.84 1.84 0 012.901-.001h25.301a1.84 1.84 0 011.856 1.835v4.907c0 .491-.213.96-.533 1.28l-9.131 9.259v9.173c0 .661-.363 1.28-.96 1.6l-5.973 3.285a1.789 1.789 0 01-.892.235h-.004zm-7.808-25.6l9.109 9.259c.341.341.533.811.533 1.28v10.112l2.304-1.28v-8.832c0-.469.192-.939.533-1.28l9.109-9.237V3.67H4.756z"/>
</svg>
