<svg viewBox="0 0 24 24" xmlns="http://www.w3.org/2000/svg" focusable="false">
  <path d="M8.24 8.71V7.366C8.25 5.37 9.925 3.74 11.998 3.74c1.585 0 3.008.984 3.526 2.456a.906.906 0 001.138.537.85.85 0 00.508-.438.844.844 0 00.04-.666C16.44 3.462 14.347 2 11.979 2 8.95 2 6.481 4.416 6.461 7.387v1.524l1.778-.202z" opacity=".4"/>
  <path d="M16.231 8.711c2.358 0 4.269 1.87 4.269 4.176v4.937C20.5 20.13 18.589 22 16.231 22H7.77c-2.36 0-4.27-1.87-4.27-4.176v-4.937c0-2.306 1.911-4.176 4.269-4.176zm-4.236 4.672a.875.875 0 00-.884.864v2.207c0 .487.396.874.884.874a.88.88 0 00.894-.874v-2.207a.878.878 0 00-.894-.864z"/>
</svg>
