<svg xmlns="http://www.w3.org/2000/svg" viewBox="0 0 48 48">
  <ellipse cx="24" cy="45.3" rx="10" ry="1.5" fill="#45413c" opacity=".15"/>
  <path class="st11" d="M22.6 10.2c.8 1.9-.1 4-2 4.8s-4-.1-4.8-2c-.6-1.5-.6-7.3-.5-9.7 0-.4.5-.6.8-.3 1.7 1.6 5.9 5.7 6.5 7.2zM13.8 15c1.9.8 2.8 2.9 2 4.8s-2.9 2.8-4.8 2c-1.5-.6-5.6-4.8-7.2-6.5-.3-.3-.1-.8.3-.8 2.4 0 8.2-.1 9.7.5zM11 24.7c1.9-.8 4 .1 4.8 2s-.1 4-2 4.8c-1.5.6-7.3.6-9.7.5-.4 0-.6-.5-.3-.8 1.6-1.8 5.7-5.9 7.2-6.5zm4.8 8.8c.8-1.9 2.9-2.8 4.8-2s2.8 2.9 2 4.8c-.6 1.5-4.8 5.6-6.5 7.2-.3.3-.8.1-.8-.3-.1-2.4-.1-8.3.5-9.7zm9.6 2.8c-.8-1.9.1-4 2-4.8s4 .1 4.8 2c.6 1.5.6 7.3.5 9.7 0 .4-.5.6-.8.3-1.7-1.7-5.9-5.7-6.5-7.2zm8.8-4.9c-1.9-.8-2.8-2.9-2-4.8.8-1.9 2.9-2.8 4.8-2 1.5.6 5.6 4.8 7.2 6.5.3.3.1.8-.3.8-2.4.1-8.2.2-9.7-.5zm2.8-9.6c-1.9.8-4-.1-4.8-2-.8-1.9.1-4 2-4.8 1.5-.6 7.3-.6 9.7-.5.4 0 .6.5.3.8-1.6 1.7-5.7 5.9-7.2 6.5zM32.2 13c-.8 1.9-2.9 2.8-4.8 2s-2.8-2.9-2-4.8c.6-1.5 4.8-5.6 6.5-7.2.3-.3.8-.1.8.3.1 2.4.1 8.2-.5 9.7z" fill="#FFE500"/>
  <path class="st12" d="M20.6 15c1.9-.8 2.8-2.9 2-4.8-.1-.4-.5-.9-1-1.4-2.3.4-4.4 1.3-6.2 2.5.1.7.2 1.3.3 1.7.9 1.9 3 2.8 4.9 2zm-4.8 4.8c.8-1.9-.1-4-2-4.8-.4-.1-1-.3-1.7-.3-1.3 1.8-2.2 3.9-2.5 6.2.6.5 1.1.8 1.4 1 1.8.7 4-.2 4.8-2.1zm0 6.9c-.8-1.9-2.9-2.8-4.8-2-.4.1-.9.5-1.4 1 .4 2.3 1.3 4.4 2.5 6.2.7-.1 1.3-.2 1.7-.3 1.8-.9 2.7-3.1 2-4.9zm4.8 4.8c-1.9-.8-4 .1-4.8 2-.1.4-.3 1-.3 1.7 1.8 1.3 3.9 2.2 6.2 2.5.5-.6.8-1.1 1-1.4.6-1.9-.2-4-2.1-4.8zm6.8 0c-1.9.8-2.8 2.9-2 4.8.1.4.5.9 1 1.4 2.3-.4 4.4-1.3 6.2-2.5-.1-.7-.2-1.3-.3-1.7-.9-1.9-3-2.8-4.9-2zm9.6-6.8c-1.9-.8-4 .1-4.8 2-.8 1.9.1 4 2 4.8.4.1 1 .3 1.7.3 1.3-1.8 2.2-3.9 2.5-6.2-.5-.4-1-.8-1.4-.9zm-4.8-4.9c.8 1.9 2.9 2.8 4.8 2 .4-.1.9-.5 1.4-1-.4-2.3-1.3-4.4-2.5-6.2-.7.1-1.3.2-1.7.3-1.8.9-2.7 3.1-2 4.9zM27.4 15c1.9.8 4-.1 4.8-2 .1-.4.3-1 .3-1.7-1.8-1.3-3.9-2.2-6.2-2.5-.5.6-.8 1.1-1 1.4-.6 1.9.2 4 2.1 4.8z" fill="#EBCB00"/>
  <path class="st10" d="M22.6 10.2c.8 1.9-.1 4-2 4.8s-4-.1-4.8-2c-.6-1.5-.6-7.3-.5-9.7 0-.4.5-.6.8-.3 1.7 1.6 5.9 5.7 6.5 7.2zM13.8 15c1.9.8 2.8 2.9 2 4.8s-2.9 2.8-4.8 2c-1.5-.6-5.6-4.8-7.2-6.5-.3-.3-.1-.8.3-.8 2.4 0 8.2-.1 9.7.5zM11 24.7c1.9-.8 4 .1 4.8 2s-.1 4-2 4.8c-1.5.6-7.3.6-9.7.5-.4 0-.6-.5-.3-.8 1.6-1.8 5.7-5.9 7.2-6.5zm4.8 8.8c.8-1.9 2.9-2.8 4.8-2s2.8 2.9 2 4.8c-.6 1.5-4.8 5.6-6.5 7.2-.3.3-.8.1-.8-.3-.1-2.4-.1-8.3.5-9.7zm9.6 2.8c-.8-1.9.1-4 2-4.8s4 .1 4.8 2c.6 1.5.6 7.3.5 9.7 0 .4-.5.6-.8.3-1.7-1.7-5.9-5.7-6.5-7.2zm8.8-4.9c-1.9-.8-2.8-2.9-2-4.8.8-1.9 2.9-2.8 4.8-2 1.5.6 5.6 4.8 7.2 6.5.3.3.1.8-.3.8-2.4.1-8.2.2-9.7-.5zm2.8-9.6c-1.9.8-4-.1-4.8-2-.8-1.9.1-4 2-4.8 1.5-.6 7.3-.6 9.7-.5.4 0 .6.5.3.8-1.6 1.7-5.7 5.9-7.2 6.5zM32.2 13c-.8 1.9-2.9 2.8-4.8 2s-2.8-2.9-2-4.8c.6-1.5 4.8-5.6 6.5-7.2.3-.3.8-.1.8.3.1 2.4.1 8.2-.5 9.7z" fill="none" stroke="#45413C" stroke-linecap="round" stroke-linejoin="round" stroke-miterlimit="10"/>
  <path class="st11" d="M17.7 11.7c1.4 1.4 1.4 3.8 0 5.2s-3.8 1.4-5.2 0c-1.1-1.1-3.3-6.5-4.2-8.8-.1-.3.2-.7.6-.5 2.2.8 7.7 3 8.8 4.1zm-6.3 7.9c2 0 3.7 1.6 3.7 3.7S13.5 27 11.4 27c-1.6 0-7-2.3-9.2-3.3-.4-.2-.4-.7 0-.8 2.2-1 7.6-3.3 9.2-3.3zm1.1 9.9c1.4-1.4 3.8-1.4 5.2 0s1.4 3.8 0 5.2c-1.1 1.1-6.5 3.3-8.8 4.2-.4.1-.7-.2-.6-.6.9-2.2 3.1-7.6 4.2-8.8zm7.8 6.3c0-2 1.6-3.7 3.7-3.7s3.7 1.6 3.7 3.7c0 1.6-2.3 7-3.3 9.2-.2.4-.7.4-.8 0-1-2.2-3.3-7.6-3.3-9.2zm10-1.1c-1.4-1.4-1.4-3.8 0-5.2s3.8-1.4 5.2 0c1.1 1.1 3.3 6.5 4.2 8.8.1.4-.2.7-.6.6-2.2-.9-7.7-3-8.8-4.2zm6.3-7.8c-2 0-3.7-1.6-3.7-3.7s1.6-3.7 3.7-3.7c1.6 0 7 2.3 9.2 3.3.4.2.4.7 0 .8-2.2 1-7.6 3.3-9.2 3.3zm-1.1-10c-1.4 1.4-3.8 1.4-5.2 0s-1.4-3.8 0-5.2c1.1-1.1 6.5-3.3 8.8-4.2.4-.1.7.2.6.6-.9 2.3-3.1 7.7-4.2 8.8zm-7.8-6.3c0 2-1.6 3.7-3.7 3.7s-3.7-1.6-3.7-3.7c0-1.6 2.3-7 3.3-9.2.2-.4.7-.4.8 0 1 2.3 3.3 7.6 3.3 9.2z" fill="#FFE500"/>
  <path class="st12" d="M17.7 16.9c1.4-1.4 1.4-3.8 0-5.2-.3-.3-.8-.6-1.4-1-1.9 1.2-3.5 2.8-4.7 4.7.4.7.7 1.2 1 1.4 1.3 1.6 3.7 1.6 5.1.1zm-2.6 6.3c0-2-1.6-3.7-3.7-3.7-.4 0-1 .1-1.7.3-.2 1.1-.4 2.2-.4 3.3 0 1.1.1 2.3.4 3.3.7.2 1.3.3 1.7.3 2 .2 3.7-1.4 3.7-3.5zm2.6 6.3c-1.4-1.4-3.8-1.4-5.2 0-.3.3-.6.8-1 1.4 1.2 1.9 2.8 3.5 4.7 4.7.7-.4 1.2-.7 1.4-1 1.5-1.3 1.5-3.6.1-5.1zm6.3 2.7c-2 0-3.7 1.6-3.7 3.7 0 .4.1 1 .3 1.7 1.1.2 2.2.4 3.3.4 1.1 0 2.3-.1 3.3-.4.2-.7.3-1.3.3-1.7.2-2.1-1.5-3.7-3.5-3.7zm6.3-2.7c-1.4 1.4-1.4 3.8 0 5.2.3.3.8.6 1.4 1 1.9-1.2 3.5-2.8 4.7-4.7-.4-.7-.7-1.2-1-1.4-1.3-1.5-3.7-1.5-5.1-.1zm8-9.6c-.7-.2-1.3-.3-1.7-.3-2 0-3.7 1.6-3.7 3.7 0 2 1.6 3.7 3.7 3.7.4 0 1-.1 1.7-.3.2-1.1.4-2.2.4-3.3 0-1.3-.2-2.4-.4-3.5zm-8-3c1.4 1.4 3.8 1.4 5.2 0 .3-.3.6-.8 1-1.4-1.2-1.9-2.8-3.5-4.7-4.7-.7.4-1.2.7-1.4 1-1.5 1.4-1.5 3.7-.1 5.1zM24 14.3c2 0 3.7-1.6 3.7-3.7 0-.4-.1-1-.3-1.7-1.1-.2-2.2-.4-3.3-.4-1.1 0-2.3.1-3.3.4-.2.7-.3 1.3-.3 1.7-.2 2.1 1.5 3.7 3.5 3.7z" fill="#EBCB00"/>
  <path class="st10" d="M17.7 11.7c1.4 1.4 1.4 3.8 0 5.2s-3.8 1.4-5.2 0c-1.1-1.1-3.3-6.5-4.2-8.8-.1-.3.2-.7.6-.5 2.2.8 7.7 3 8.8 4.1zm-6.3 7.9c2 0 3.7 1.6 3.7 3.7S13.5 27 11.4 27c-1.6 0-7-2.3-9.2-3.3-.4-.2-.4-.7 0-.8 2.2-1 7.6-3.3 9.2-3.3zm1.1 9.9c1.4-1.4 3.8-1.4 5.2 0s1.4 3.8 0 5.2c-1.1 1.1-6.5 3.3-8.8 4.2-.4.1-.7-.2-.6-.6.9-2.2 3.1-7.6 4.2-8.8zm7.8 6.3c0-2 1.6-3.7 3.7-3.7s3.7 1.6 3.7 3.7c0 1.6-2.3 7-3.3 9.2-.2.4-.7.4-.8 0-1-2.2-3.3-7.6-3.3-9.2zm10-1.1c-1.4-1.4-1.4-3.8 0-5.2s3.8-1.4 5.2 0c1.1 1.1 3.3 6.5 4.2 8.8.1.4-.2.7-.6.6-2.2-.9-7.7-3-8.8-4.2zm6.3-7.8c-2 0-3.7-1.6-3.7-3.7s1.6-3.7 3.7-3.7c1.6 0 7 2.3 9.2 3.3.4.2.4.7 0 .8-2.2 1-7.6 3.3-9.2 3.3zm-1.1-10c-1.4 1.4-3.8 1.4-5.2 0s-1.4-3.8 0-5.2c1.1-1.1 6.5-3.3 8.8-4.2.4-.1.7.2.6.6-.9 2.3-3.1 7.7-4.2 8.8zm-7.8-6.3c0 2-1.6 3.7-3.7 3.7s-3.7-1.6-3.7-3.7c0-1.6 2.3-7 3.3-9.2.2-.4.7-.4.8 0 1 2.3 3.3 7.6 3.3 9.2z" fill="none" stroke="#45413C" stroke-linecap="round" stroke-linejoin="round" stroke-miterlimit="10"/>
  <circle cx="24" cy="23.2" r="12.7" fill="#ffaa54"/>
  <path class="st49" d="M25.2 10.6c5.8.6 10.4 5.5 10.4 11.5 0 6.4-5.2 11.6-11.6 11.6s-11.6-5.2-11.6-11.6c0-6 4.6-10.9 10.4-11.5-6.5.6-11.6 6-11.6 12.7C11.3 30.3 17 36 24 36s12.7-5.7 12.7-12.7c0-6.7-5-12.2-11.5-12.7z" fill="#FF8A14"/>
  <circle class="st10" cx="24" cy="23.2" r="12.7" fill="none" stroke="#45413C" stroke-linecap="round" stroke-linejoin="round" stroke-miterlimit="10"/>
  <ellipse class="st49" cx="17.4" cy="25.6" rx="1.2" ry=".8" fill="#FF8A14"/>
  <g stroke="#45413c" stroke-linecap="round" stroke-linejoin="round" stroke-miterlimit="10">
    <path d="M27 27.5c.5 0 .9.5.8 1-.4 1.7-1.9 2.9-3.7 2.9-1.8 0-3.3-1.2-3.7-2.9-.1-.5.2-1 .8-1H27z" fill="#ffb0ca"/>
    <path d="M24 31.4c1.2 0 2.3-.6 3-1.5-.8-.5-1.8-.8-3-.8s-2.3.3-3 .8c.7.9 1.8 1.5 3 1.5z" fill="#ff87af"/>
  </g>
  <path class="st10" d="M17 24c0-.6.5-1.2 1.2-1.2s1.2.5 1.2 1.2" fill="none" stroke="#45413C" stroke-linecap="round" stroke-linejoin="round" stroke-miterlimit="10"/>
  <ellipse class="st49" cx="30.6" cy="25.6" rx="1.2" ry=".8" fill="#FF8A14"/>
  <path class="st10" d="M31 24c0-.6-.5-1.2-1.2-1.2s-1.2.5-1.2 1.2" fill="none" stroke="#45413C" stroke-linecap="round" stroke-linejoin="round" stroke-miterlimit="10"/>
  <ellipse cx="24" cy="15.1" rx="3.1" ry=".8" fill="#fc9"/>
</svg>
