<svg viewBox="0 0 24 24" xmlns="http://www.w3.org/2000/svg" focusable="false">
  <g fill="none" fill-rule="evenodd">
    <path d="M0 0h24v24H0z"/>
    <path d="M20 10.067a2.01 2.01 0 01-2 2.017V8.051h2v2.016zm-8 6.05c-2.206 0-4-1.808-4-4.033V4.017h8v8.067c0 2.225-1.794 4.034-4 4.034zm-8-6.05V8.051h2v4.033c-1.103 0-2-.904-2-2.017zm17-4.033h-3V3.008C18 2.451 17.552 2 17 2H7c-.552 0-1 .45-1 1.008v3.026H3c-.552 0-1 .45-1 1.008v3.025c0 2.225 1.794 4.034 4 4.034h.35c.738 2.095 2.586 3.659 4.829 3.97-.002.022-.012.042-.012.064v2.017c0 .06.021.112.033.168H8a.837.837 0 00-.833.84c0 .464.373.84.833.84h8c.46 0 .833-.376.833-.84a.837.837 0 00-.833-.84h-3.2c.012-.056.033-.108.033-.168v-2.017c0-.022-.01-.042-.012-.064 2.243-.311 4.091-1.875 4.829-3.97H18c2.206 0 4-1.81 4-4.034V7.042c0-.558-.448-1.008-1-1.008z" fill="#404040"/>
  </g>
</svg>
