<svg viewBox="0 0 24 24" xmlns="http://www.w3.org/2000/svg" focusable="false">
  <path d="M19.436 5.774c2.493 3.72 2.5 8.63 0 12.358m-2.447-9.915a7.74 7.74 0 010 7.472M2.682 11.953c-.002 1.246 0 2.708 1.03 3.582 1.03.874 1.846.513 3.178.952 1.332.439 3.199 3.146 5.26 1.923 1.115-.792 1.64-2.286 1.64-6.457 0-4.171-.501-5.65-1.64-6.457-2.06-1.222-3.928 1.484-5.26 1.923-1.332.44-2.149.078-3.179.952-1.029.874-1.031 2.336-1.029 3.582z" stroke="#000" stroke-width="1.5" fill="none" stroke-linecap="round" stroke-linejoin="round"/>
</svg>
