<svg xmlns="http://www.w3.org/2000/svg" viewBox="0 0 32 32" focusable="false">
  <path d="M27.88 4.983H3.798a1.023 1.023 0 110-2.048H27.88a1.023 1.023 0 110 2.048zm-9.547-1.591h-4.992a1.023 1.023 0 110-2.048h4.992a1.023 1.023 0 110 2.048zm7.208 27.748H6.136a1.023 1.023 0 01-1.024-1.024V8.972a1.023 1.023 0 112.048 0v20.12h17.357V8.972a1.023 1.023 0 112.048 0v21.144c0 .566-.458 1.024-1.024 1.024zm-14.689-5.568a1.023 1.023 0 01-1.024-1.024V13.121a1.023 1.023 0 112.048 0v11.427c0 .566-.458 1.024-1.024 1.024zm5.207 0a1.023 1.023 0 01-1.024-1.024V13.121a1.023 1.023 0 112.048 0v11.427c0 .566-.458 1.024-1.024 1.024zm4.773 0a1.023 1.023 0 01-1.024-1.024V13.121a1.023 1.023 0 112.048 0v11.427c0 .566-.458 1.024-1.024 1.024z"/>
</svg>
