<svg xmlns="http://www.w3.org/2000/svg" viewBox="0 0 48 48" focusable="false">
  <ellipse cx="25.2" cy="41.3" rx="10.6" ry="1.5" fill="#45413c" opacity=".15"/>
  <path d="M41.9 11.5c.1-.6.6-1 1.2-1.2l2.4-.5c.1 0 .2-.1.2-.2s-.1-.2-.2-.2l-2.4-.5c-.6-.1-1-.6-1.2-1.2l-.5-2.4c0-.1-.1-.2-.2-.2s-.2.1-.2.2l-.5 2.4c-.1.6-.6 1-1.2 1.2l-2.4.5c-.1 0-.2.1-.2.2s.1.2.2.2l2.4.5c.6.1 1 .6 1.2 1.2l.5 2.4c0 .1.1.2.2.2s.2-.1.2-.2l.5-2.4zm-34.8 29l2.1-.7c.1 0 .1-.1.1-.2s-.1-.2-.1-.2l-1.7-.6c-.3 0-.5-.2-.5-.4l-.6-1.7c0-.1-.1-.1-.2-.1s-.2.1-.2.1l-.6 1.7c-.1.2-.3.4-.5.5l-1.7.6c-.1 0-.1.1-.1.2s.1.2.1.2l1.8.5c.2.1.4.3.5.5l.5 1.7c0 .1.1.1.2.1s.2-.1.2-.1l.7-2.1z" fill="#FFF" stroke="#45413C" stroke-linecap="round" stroke-linejoin="round" stroke-miterlimit="10"/>
  <path d="M23.7 23.5c.5 0 .9.4.9.8.2 1.7.8 5.5 2.8 8.2 2.6 3.6 10.7 2.8 12.6 0s3-6.6 3-6.6l.8-.2c.4-.1.8-.4.8-.9l.4-3.9c0-.5-.3-.9-.7-1.1-1.6-.4-5.4-1.3-10.3-1.3-4.7 0-7.6 1-8.8 1.5-.5.2-1 .3-1.5.3s-1.1-.1-1.5-.3c-1.2-.5-4.1-1.5-8.8-1.5-4.9 0-8.7.9-10.3 1.3-.5.2-.8.7-.7 1.2l.4 3.9c0 .4.4.8.8.9l.8.2s1.1 3.8 3 6.6 10 3.6 12.6 0c2-2.7 2.6-6.5 2.8-8.2 0-.6.4-.9.9-.9z" fill="#525252"/>
  <path d="M2.5 22.4c.1-.2.3-.4.6-.4 1.6-.4 5.4-1.3 10.3-1.3 4.7 0 7.6 1 8.8 1.5.5.2 1 .3 1.5.3s1.1-.1 1.5-.3c1.2-.5 4.1-1.5 8.8-1.5 4.9 0 8.7.9 10.3 1.3.3.1.5.2.6.5l.1-1.4c0-.5-.3-.9-.7-1.1-1.6-.4-5.4-1.3-10.3-1.3-4.7 0-7.6 1-8.8 1.5-.5.2-1 .3-1.5.3s-1.1-.1-1.5-.3c-1.2-.5-4.1-1.5-8.8-1.5-4.9 0-8.7.9-10.3 1.3-.5 0-.8.5-.7 1l.1 1.4z" fill="#656769"/>
  <path d="M23.7 23.5c.5 0 .9.4.9.8.2 1.7.8 5.5 2.8 8.2 2.6 3.6 10.7 2.8 12.6 0s3-6.6 3-6.6l.8-.2c.4-.1.8-.4.8-.9l.4-3.9c0-.5-.3-.9-.7-1.1-1.6-.4-5.4-1.3-10.3-1.3-4.7 0-7.6 1-8.8 1.5-.5.2-1 .3-1.5.3s-1.1-.1-1.5-.3c-1.2-.5-4.1-1.5-8.8-1.5-4.9 0-8.7.9-10.3 1.3-.5.2-.8.7-.7 1.2l.4 3.9c0 .4.4.8.8.9l.8.2s1.1 3.8 3 6.6 10 3.6 12.6 0c2-2.7 2.6-6.5 2.8-8.2 0-.6.4-.9.9-.9z" fill="none" stroke="#45413C" stroke-linecap="round" stroke-linejoin="round" stroke-miterlimit="10"/>
  <path d="M6.4 22.3C5.3 24 7.5 30 9.8 31.8c2.3 1.8 7.6 1.2 8.8-.9 1.7-3 2.4-7.2 1.3-8.5s-2.7-1.8-6.6-1.8c-3.7 0-6.2.6-6.9 1.7z" fill="#656769"/>
  <path d="M18.5 31c1.7-3 2.4-7.2 1.3-8.5-.9-1.1-2.3-1.7-5.3-1.8l-6.9 8.4c.6 1.2 1.3 2.2 2 2.7 2.5 1.8 7.8 1.2 8.9-.8z" fill="#87898C"/>
  <path d="M41 22.3c1.1 1.7-1.1 7.7-3.4 9.5-2.3 1.8-7.6 1.2-8.8-.9-1.7-3-2.4-7.2-1.3-8.5s2.7-1.8 6.6-1.8c3.8 0 6.2.6 6.9 1.7z" fill="#656769"/>
  <path d="M41 22.3c-.6-1-2.7-1.6-5.9-1.7l-7 8.6c.2.6.5 1.2.8 1.7 1.1 2.1 6.4 2.6 8.8.9 2.3-1.7 4.4-7.8 3.3-9.5z" fill="#87898C"/>
  <path d="M6.4 22.3C5.3 24 7.5 30 9.8 31.8c2.3 1.8 7.6 1.2 8.8-.9 1.7-3 2.4-7.2 1.3-8.5s-2.7-1.8-6.6-1.8c-3.7 0-6.2.6-6.9 1.7zm34.6 0c1.1 1.7-1.1 7.7-3.4 9.5-2.3 1.8-7.6 1.2-8.8-.9-1.7-3-2.4-7.2-1.3-8.5s2.7-1.8 6.6-1.8c3.8 0 6.2.6 6.9 1.7z" fill="none" stroke="#45413C" stroke-linecap="round" stroke-linejoin="round" stroke-miterlimit="10"/>
</svg>
