<svg xmlns="http://www.w3.org/2000/svg" viewBox="0 0 32 32">
  <path fill="#8b8891" d="M28.457 31.5h-25a2 2 0 01-2-2v-2.9A7 7 0 017.5 19.667l8.457-1.166 8.456 1.166a7 7 0 016.044 6.935V29.5a2 2 0 01-2 2z"/>
  <path fill="#2c2b2d" d="M28.456 32h-25a2.503 2.503 0 01-2.5-2.5v-2.9a7.53 7.53 0 016.476-7.429l8.456-1.166a.459.459 0 01.136 0l8.457 1.166a7.529 7.529 0 016.475 7.43V29.5a2.503 2.503 0 01-2.5 2.5zm-12.5-12.995l-8.388 1.157A6.526 6.526 0 001.956 26.6v2.9a1.502 1.502 0 001.5 1.5h25a1.502 1.502 0 001.5-1.5v-2.9a6.526 6.526 0 00-5.611-6.438z"/>
  <path fill="#8b8891" d="M24.357 8.298c.212 2.068 0 4.144.094 6.215a13.371 13.371 0 00.473 3.134 14.024 14.024 0 01.936 2.914c.253 4.144-5.579 5.118-9.559 5.164a19.627 19.627 0 01-7.149-.92c-2.898-1.12-3.281-3.174-2.752-5.543a42.719 42.719 0 00.883-5.761 45.714 45.714 0 01.346-5.115c.52-2.629 1.762-5.569 4.76-6.986a8.96 8.96 0 017.627-.06c3.063 1.523 4.055 4.173 4.341 6.958z"/>
  <path fill="#2c2b2d" d="M15.676 26.229a18.934 18.934 0 01-6.704-.957c-2.743-1.06-3.743-3.062-3.06-6.12a42.498 42.498 0 00.873-5.693c.052-.621.067-1.245.082-1.87a19.208 19.208 0 01.272-3.3c.717-3.63 2.412-6.1 5.036-7.341a9.443 9.443 0 018.063-.056c2.776 1.38 4.243 3.717 4.616 7.354a30.955 30.955 0 01.086 3.664c-.014.848-.029 1.726.01 2.58a12.75 12.75 0 00.454 3.018 9.581 9.581 0 00.377 1.01 6.225 6.225 0 01.577 2.013 3.967 3.967 0 01-1.079 3.053c-2.075 2.232-6.511 2.612-8.971 2.64q-.312.004-.632.005zm.673-25.216a8.807 8.807 0 00-3.746.839c-2.323 1.097-3.83 3.328-4.484 6.63a18.251 18.251 0 00-.253 3.132 32.479 32.479 0 01-.085 1.928 43.537 43.537 0 01-.892 5.83c-.581 2.595.149 4.08 2.444 4.967a19.227 19.227 0 006.963.886c1.851-.021 6.362-.29 8.25-2.322a2.96 2.96 0 00.814-2.311 5.42 5.42 0 00-.503-1.691 10.868 10.868 0 01-.414-1.114 13.69 13.69 0 01-.49-3.251c-.042-.886-.027-1.78-.013-2.643a30.262 30.262 0 00-.08-3.544C23.524 5.085 22.232 3 19.793 1.787a7.751 7.751 0 00-3.444-.774z"/>
  <circle cx="16" cy="27.707" r=".5" fill="#2c2b2d"/>
  <circle cx="16" cy="29.707" r=".5" fill="#2c2b2d"/>
  <path fill="#2c2b2d" d="M13.201 21.888a8.87 8.87 0 01-6.716-3.06.5.5 0 11.754-.656 7.88 7.88 0 006.713 2.68.5.5 0 11.096.995q-.422.041-.847.04zm4.571-3.143a8.727 8.727 0 01-2.607-.4.5.5 0 11.299-.954 7.657 7.657 0 003.522.255 7.461 7.461 0 002.062-.665.5.5 0 11.441.897 8.467 8.467 0 01-2.339.754 8.373 8.373 0 01-1.378.113z"/>
  <path fill="#ffdaa7" d="M21.704 11c.217 2.973-2.274 6.924-5.704 6.924-3.337 0-5.922-3.9-5.704-6.924.125-1.743 1.17-3.025 2.296-4.406 1.084-1.33 2.056-2.522 3.408-2.518 1.322.005 2.244 1.179 3.36 2.477A7.884 7.884 0 0121.703 11z"/>
  <path fill="#2c2b2d" d="M16 18.424a5.663 5.663 0 01-4.103-1.956 7.736 7.736 0 01-2.1-5.504c.137-1.9 1.24-3.254 2.407-4.686 1.132-1.39 2.202-2.702 3.788-2.702h.01c1.474.005 2.478 1.18 3.542 2.424l.194.227a8.31 8.31 0 012.465 4.737 7.749 7.749 0 01-2.09 5.518A5.658 5.658 0 0116 18.424zm-.007-13.848c-1.112 0-1.993 1.082-3.014 2.334-1.11 1.363-2.07 2.54-2.184 4.126a6.694 6.694 0 001.835 4.75A4.678 4.678 0 0016 17.425a4.673 4.673 0 003.38-1.622 6.702 6.702 0 001.825-4.766 7.413 7.413 0 00-2.225-4.158l-.196-.228c-.99-1.157-1.77-2.07-2.786-2.074z"/>
  <path fill="#2c2b2d" d="M21.704 11.5a.5.5 0 01-.425-.764 4.414 4.414 0 00.671-2.22 4.492 4.492 0 00-.855-2.723.5.5 0 01.81-.586A5.512 5.512 0 0122.95 8.54a5.429 5.429 0 01-.821 2.723.5.5 0 01-.425.236z"/>
</svg>
