<svg xmlns="http://www.w3.org/2000/svg" viewBox="0 0 32 40" focusable="false" fill="currentColor">
  <path d="M22.234 14.793a.96.96 0 00-.957.96v18.083c0 .527.43.957.957.957.528 0 .957-.43.957-.957V15.754a.96.96 0 00-.957-.961zm-11.289 0a.96.96 0 00-.957.96v18.083a.956.956 0 101.914 0V15.754a.957.957 0 00-.957-.961zm0 0"/>
  <path d="M2.719 12.164v23.574a5.26 5.26 0 001.402 3.64 4.699 4.699 0 003.418 1.477h18.102a4.699 4.699 0 003.418-1.476 5.277 5.277 0 001.402-3.64V12.163a3.66 3.66 0 002.73-4.02 3.662 3.662 0 00-3.668-3.183h-4.898V3.78A3.77 3.77 0 0023.52 1.1 3.75 3.75 0 0020.836.005H12.34A3.757 3.757 0 008.543 3.78v1.196h-4.89A3.652 3.652 0 00-.013 8.16a3.65 3.65 0 002.727 4.016zM25.64 38.937H7.539a3.028 3.028 0 01-2.91-3.199V12.246h23.914v23.492a3.028 3.028 0 01-2.91 3.2zM10.465 3.782a1.86 1.86 0 01.543-1.328 1.832 1.832 0 011.324-.539h8.504a1.84 1.84 0 011.867 1.867v1.196H10.465zm-6.813 3.11H29.52c.953 0 1.722.77 1.722 1.722a1.72 1.72 0 01-1.722 1.723H3.652a1.723 1.723 0 010-3.445zm0 0"/>
  <path d="M16.59 14.793a.96.96 0 00-.957.96v18.083c0 .527.43.957.957.957.527 0 .957-.43.957-.957V15.754a.96.96 0 00-.957-.961zm0 0"/>
</svg>
