<svg data-name="Layer 1" xmlns="http://www.w3.org/2000/svg" viewBox="0 0 24 24" focusable="false">
  <path fill="none" d="M0 0h24v24H0z"/>
  <path d="M5.418 21.721l-2.87.277a.5.5 0 01-.546-.546l.277-2.87a4.889 4.889 0 011.41-2.988L16.305 2.977a3.336 3.336 0 014.717 0 3.336 3.336 0 010 4.717L8.406 20.312a4.889 4.889 0 01-2.988 1.41z" fill="#0a3f2e" opacity=".1"/>
  <path d="M5.418 21.721l-2.87.277a.5.5 0 01-.546-.546l.277-2.87a4.889 4.889 0 011.41-2.988L16.305 2.977a3.336 3.336 0 014.717 0h0a3.336 3.336 0 010 4.717L8.406 20.312a4.889 4.889 0 01-2.988 1.41z" stroke-miterlimit="10" stroke="#0a3f2e" stroke-linecap="round" stroke-width="1.5" fill="none"/>
  <path stroke-linejoin="round" stroke="#0a3f2e" stroke-linecap="round" stroke-width="1.5" fill="none" d="M18.515 5.485l-1.733 1.733"/>
</svg>
