<svg viewBox="0 0 24 24" xmlns="http://www.w3.org/2000/svg" focusable="false">
  <path d="M11.887 14.414h.365c1.93.014 6.343.209 6.343 3.199 0 2.97-4.258 3.164-6.313 3.177h-.76c-1.932-.013-6.344-.207-6.344-3.194 0-2.974 4.412-3.168 6.343-3.181l.253-.001h.113zm0 1.5c-2.376 0-5.21.292-5.21 1.682 0 1.359 2.665 1.676 4.993 1.694l.217.001c2.376 0 5.208-.291 5.208-1.678 0-1.404-2.832-1.699-5.208-1.699zm7.953-1.906c2.423.363 2.932 1.501 2.932 2.392 0 .544-.214 1.537-1.644 2.082a.75.75 0 01-.534-1.402c.678-.258.678-.543.678-.68 0-.438-.557-.744-1.655-.908a.752.752 0 01-.63-.854.755.755 0 01.853-.63zm-15.054.63a.752.752 0 01-.63.854c-1.099.164-1.656.47-1.656.908 0 .137 0 .421.68.68a.75.75 0 11-.535 1.402C1.215 17.936 1 16.943 1 16.4c0-.89.51-2.029 2.933-2.392a.755.755 0 01.853.63zM11.886 4c2.52 0 4.57 2.05 4.57 4.569a4.574 4.574 0 01-4.57 4.569h-.026a4.52 4.52 0 01-3.22-1.346 4.519 4.519 0 01-1.32-3.226A4.573 4.573 0 0111.887 4zm0 1.5A3.072 3.072 0 008.82 8.569c-.003.82.31 1.587.886 2.166.575.579 1.34.9 2.157.903l.025.75v-.75a3.072 3.072 0 003.069-3.069 3.073 3.073 0 00-3.07-3.069zm6.19-.52a3.611 3.611 0 013.035 3.575 3.642 3.642 0 01-3.12 3.585.75.75 0 01-.207-1.486 2.133 2.133 0 001.827-2.1 2.115 2.115 0 00-1.78-2.095.75.75 0 01.245-1.48zM6.56 5.596a.75.75 0 01-.618.862 2.116 2.116 0 00-1.78 2.097 2.132 2.132 0 001.827 2.098.75.75 0 11-.207 1.486 3.641 3.641 0 01-3.12-3.583A3.612 3.612 0 015.699 4.98a.746.746 0 01.862.618z" fill-rule="evenodd"/>
</svg>
