<svg viewBox="0 0 24 24" xmlns="http://www.w3.org/2000/svg" focusable="false">
  <g fill="none" fill-rule="evenodd">
    <path d="M0 0h24v24H0z"/>
    <path d="M4.32 2.922l14.857 18.01a.706.706 0 01-.097.995.71.71 0 01-.998-.097l-2.671-3.238-10.303.001v.5c0 .832-.694 1.503-1.554 1.503-.812 0-1.476-.599-1.548-1.365L2 19.094v-7.169c0-.172.023-.34.066-.5l.048-.16 2.04-5.677a1.53 1.53 0 01.21-.386L3.224 3.82a.706.706 0 01.096-.993l.002-.001a.71.71 0 01.997.097zM18.373 4.37c.635 0 1.18.363 1.421.887l.05.124 2.041 5.677c.054.158.091.327.106.494l.008.167v7.168c0 .774-.611 1.41-1.382 1.493l-8.42-10.003h7.73l-1.316-3.824a1.046 1.046 0 00-.864-.674l-.12-.007-9.223-.001L7.141 4.37h11.232zM5.626 12.586c-.86 0-1.554.67-1.554 1.502 0 .83.694 1.502 1.554 1.502.86 0 1.554-.671 1.554-1.502s-.694-1.502-1.554-1.502zm12.748-.205c-.86 0-1.554.67-1.554 1.501 0 .831.694 1.502 1.554 1.502.86 0 1.554-.67 1.554-1.502 0-.83-.694-1.501-1.554-1.501zM5.485 6.56l.056-.078a1.014 1.014 0 00-.112.179l-.041.098-1.316 3.825 4.731-.002L5.485 6.56z" fill="currentColor" fill-rule="nonzero"/>
  </g>
</svg>
