<svg viewBox="0 0 24 24" xmlns="http://www.w3.org/2000/svg" focusable="false">
  <path d="M20.129 2.735a.803.803 0 111.136 1.14L3.924 21.264a.8.8 0 01-1.136 0 .809.809 0 010-1.14L13.692 9.192c-.011-1.31-.039-1.513-.084-1.83l-.088-.741c-.046-.43-.093-.873-.185-1.232-.138-.458-.48-.78-.848-.78h-.02c-.15.006-.52.152-.748.345l-3.766 3.09a.8.8 0 01-.508.183H5.308c-.673 0-.993.573-1.068 1.111-.18 1.452-.18 3.964 0 5.26a.804.804 0 11-1.59.222c-.22-1.58-.178-4.27-.002-5.692.206-1.485 1.299-2.512 2.66-2.512h1.85l3.533-2.9c.427-.361 1.175-.693 1.772-.717 1.068.016 2.06.753 2.418 1.956.13.504.184 1.007.236 1.495l.082.683c.023.162.041.301.056.491zm-5.626 10.816a.804.804 0 01.791.817c-.018 1.292-.06 2.188-.129 2.742l-.049.457c-.045.462-.092.942-.23 1.454-.357 1.202-1.314 1.981-2.398 1.981h-.107c-.598 0-1.25-.361-1.62-.675L9.359 19.18a.804.804 0 011.015-1.248l1.412 1.155c.237.2.538.302.634.302.008.004.016.002.025.002.41 0 .751-.324.898-.809.094-.362.134-.759.175-1.175.016-.164.033-.329.053-.494.06-.492.1-1.355.119-2.57.005-.443.339-.79.813-.793z"/>
</svg>
