<svg viewBox="0 0 24 24" xmlns="http://www.w3.org/2000/svg" focusable="false">
  <path d="M7.423 18.909c.835 0 1.514.694 1.514 1.546 0 .852-.68 1.545-1.514 1.545-.835 0-1.515-.693-1.515-1.545s.68-1.546 1.515-1.546zm11.252 0c.835 0 1.515.694 1.515 1.546 0 .852-.68 1.545-1.515 1.545-.835 0-1.514-.693-1.514-1.545s.679-1.546 1.514-1.546zM2.775 2l.103.01 2.08.369a.76.76 0 01.62.69l.963 11.707c.046.561.497.985 1.05.985H18.5c.52 0 .969-.396 1.044-.92l.948-6.694a.606.606 0 00-.138-.481.581.581 0 00-.447-.209H9.164a.758.758 0 01-.75-.765c0-.422.336-.765.75-.765h10.744c.607 0 1.184.27 1.581.737a2.17 2.17 0 01.49 1.703l-.95 6.693c-.18 1.272-1.266 2.232-2.527 2.232H7.59c-1.34 0-2.433-1.027-2.545-2.388L4.132 3.786l-1.51-.267a.765.765 0 01-.611-.884.752.752 0 01.867-.625zM16.9 9.7c.414 0 .75.343.75.765a.758.758 0 01-.75.766h-2.773a.757.757 0 01-.75-.766c0-.422.335-.765.75-.765z"/>
</svg>
