<svg xmlns="http://www.w3.org/2000/svg" viewBox="0 0 24 24">
  <path fill="#200E32" d="M22.207 12.083l-.01.01a.724.724 0 01.692.326.7.7 0 010 .756.724.724 0 01-.691.327h-1.076v2.81c-.005 2.587-2.134 4.683-4.762 4.688h-.785a.715.715 0 01-.72-.71c0-.391.322-.709.72-.709h.785a3.348 3.348 0 002.363-.944 3.246 3.246 0 00.986-2.317v-2.818H4.283v2.763c0 1.803 1.482 3.265 3.312 3.27h.814c.398 0 .72.318.72.71a.715.715 0 01-.72.709h-.786c-2.626-.005-4.752-2.103-4.752-4.689v-2.763H1.72a.715.715 0 01-.721-.71c0-.391.322-.71.72-.71h20.487zm-8.363 3.316l.098.007a.713.713 0 01.622.703.715.715 0 01-.72.709H9.821a.715.715 0 01-.72-.71.724.724 0 01.73-.709h4.013zM16.36 3a4.8 4.8 0 013.385 1.364 4.653 4.653 0 011.405 3.325v1.06l-.007.096a.717.717 0 01-.713.613.715.715 0 01-.72-.71v-1.06c0-.871-.354-1.707-.983-2.321a3.348 3.348 0 00-2.367-.948h-.776a.715.715 0 01-.72-.71c0-.391.322-.709.72-.709zM8.39 3c.398 0 .72.318.72.71a.715.715 0 01-.72.709h-.786c-1.834 0-3.32 1.464-3.32 3.27v1.06l-.01.11a.697.697 0 01-.202.388.717.717 0 01-.509.201.715.715 0 01-.692-.7v-1.06C2.866 5.109 4.984 3.01 7.604 3zm1.34 4.893l.102.008h4.004a.713.713 0 01.638.704.714.714 0 01-.638.705h-4.06a.723.723 0 01-.674-.355.7.7 0 01.03-.752.725.725 0 01.7-.302z"/>
</svg>
