<svg xmlns="http://www.w3.org/2000/svg" viewBox="0 0 48 48" focusable="false">
  <ellipse cx="23.1" cy="44.2" rx="11.5" ry="1.5" fill="#45413c" opacity=".15"/>
  <circle cx="22.8" cy="19.8" r="14" fill="#e5feff"/>
  <path d="M22.8 8.4c7.3 0 13.3 5.6 13.9 12.7 0-.4.1-.9.1-1.3 0-7.7-6.3-14-14-14s-14 6.3-14 14c0 .5 0 .9.1 1.3.6-7.1 6.6-12.7 13.9-12.7z" fill="#FFF"/>
  <circle cx="22.8" cy="19.8" r="14" fill="none" stroke="#45413C" stroke-linecap="round" stroke-linejoin="round" stroke-miterlimit="10"/>
  <path d="M22.8 5.8c-6 0-11.1 3.8-13.1 9.1.7.9 1.8 1.9 3.6 1.9 4.3 0 3.5-3.7 7-4.5 3.3-.8 3.6 1.5 7.5 1.5 2.9 0 4.7-1.3 5.7-3-2.6-3.1-6.4-5-10.7-5z" fill="#ff87af"/>
  <path d="M10.5 15.8c2.4-4.4 7-7.4 12.3-7.4 3.7 0 7 1.4 9.5 3.7.5-.4.9-.9 1.2-1.4-2.6-3-6.4-5-10.7-5-6 0-11.1 3.8-13.1 9.1.2.4.4.7.8 1z" fill="#ffb0ca"/>
  <path d="M22.8 5.8c-6 0-11.1 3.8-13.1 9.1.7.9 1.8 1.9 3.6 1.9 4.3 0 3.5-3.7 7-4.5 3.3-.8 3.6 1.5 7.5 1.5 2.9 0 4.7-1.3 5.7-3-2.6-3.1-6.4-5-10.7-5z" fill="none" stroke="#45413C" stroke-linecap="round" stroke-linejoin="round" stroke-miterlimit="10"/>
  <path d="M28.1 23.2L34 8.1c.7-1.9 2.6-3.2 4.6-3.2 1.3 0 2.3 1.2 1.9 2.5-.2.9-1 1.5-1.9 1.5-1.2 0-2.2.7-2.6 1.8l-4.9 12.5h-3z" fill="#daedf7"/>
  <path d="M34.3 10.2c.7-2 2.6-3.3 4.7-3.3.7 0 1.2.3 1.6.8 0-.1.1-.2.1-.3.3-1.2-.7-2.5-2-2.5-2.1 0-3.9 1.3-4.6 3.2l-5.9 15.1h1l5.1-13z" fill="#FFF"/>
  <path d="M28.1 23.2L34 8.1c.7-1.9 2.6-3.2 4.6-3.2 1.3 0 2.3 1.2 1.9 2.5-.2.9-1 1.5-1.9 1.5-1.2 0-2.2.7-2.6 1.8l-4.9 12.5h-3z" fill="none" stroke="#45413C" stroke-linecap="round" stroke-linejoin="round" stroke-miterlimit="10"/>
  <path d="M37.5 19.8s-1.9 3-14.3 3-15.1-3-15.1-3c-.4 0-.8.4-.8.8.4 7.3 5.8 13.2 12.8 14.4.4.1.7.4.7.8V39c0 .2-.1.4-.2.5-1 1.2-2.3 2-3.8 2.4-1.4.4-1 2.4.4 2.4h11.2c1.4 0 1.7-2 .4-2.4-1.5-.4-2.8-1.2-3.8-2.4-.1-.1-.2-.3-.2-.5v-3.2c0-.4.3-.7.7-.8 7-1.2 12.4-7.2 12.8-14.4 0-.5-.4-.8-.8-.8z" fill="#b8ecff"/>
  <path d="M37.5 19.8s-1.9 3-14.3 3-15.1-3-15.1-3c-.4 0-.8.4-.8.8v.1c2 4.4 8.3 7.6 15.8 7.6 6.6 0 12.3-2.5 14.9-6.1.1-.5.2-1.1.2-1.6.1-.5-.3-.8-.7-.8z" fill="#e5f8ff"/>
  <path d="M37.5 19.8s-1.9 3-14.3 3-15.1-3-15.1-3c-.4 0-.8.4-.8.8.4 7.3 5.8 13.2 12.8 14.4.4.1.7.4.7.8V39c0 .2-.1.4-.2.5-1 1.2-2.3 2-3.8 2.4-1.4.4-1 2.4.4 2.4h11.2c1.4 0 1.7-2 .4-2.4-1.5-.4-2.8-1.2-3.8-2.4-.1-.1-.2-.3-.2-.5v-3.2c0-.4.3-.7.7-.8 7-1.2 12.4-7.2 12.8-14.4 0-.5-.4-.8-.8-.8z" fill="none" stroke="#45413C" stroke-linecap="round" stroke-linejoin="round" stroke-miterlimit="10"/>
  <circle cx="24.1" cy="4.8" r="2.5" fill="#ff6242"/>
  <path d="M24.1 3.8c1.1 0 2.1.7 2.4 1.7.1-.2.1-.5.1-.8 0-1.4-1.1-2.5-2.5-2.5s-2.5 1.1-2.5 2.5c0 .3.1.5.1.8.4-1 1.3-1.7 2.4-1.7z" fill="#ff866e"/>
  <circle cx="24.1" cy="4.8" r="2.5" fill="none" stroke="#45413C" stroke-linecap="round" stroke-linejoin="round" stroke-miterlimit="10"/>
</svg>
