<svg xmlns="http://www.w3.org/2000/svg" viewBox="0 0 24 24" focusable="false" fill-rule="evenodd" stroke="currentColor" stroke-linecap="round" stroke-linejoin="round" stroke-width="1.5">
  <g transform="translate(2 2)">
    <path d="M10.057 0A10.02 10.02 0 001.46 4.8a9.986 9.986 0 00-.323 9.829l.2.39c.164.307.198.667.095 1a19.67 19.67 0 00-.715 2.324c0 .4.114.628.544.619.76-.168 1.509-.384 2.241-.648a1.48 1.48 0 01.954.057c.277.134.84.477.859.477a10.03 10.03 0 0011.284-1.34 9.99 9.99 0 002.768-11.004A10.016 10.016 0 0010.057 0h0z"/>
    <circle cx="5.287" cy="10" r="1"/>
    <circle cx="10.057" cy="10" r="1"/>
    <circle cx="14.826" cy="10" r="1"/>
  </g>
</svg>
