<svg viewBox="0 0 24 24" xmlns="http://www.w3.org/2000/svg" focusable="false">
  <g fill="none" fill-rule="evenodd">
    <path d="M0 0h24v24H0z"/>
    <path d="M19.689 4.136A1.662 1.662 0 0018.11 3H5.89c-.733 0-1.345.473-1.578 1.136l-2.189 6.379a2.362 2.362 0 00-.122.742v8.056A1.674 1.674 0 003.667 21c.922 0 1.666-.754 1.666-1.688v-.562h13.334v.563c0 .922.744 1.687 1.666 1.687.911 0 1.667-.754 1.667-1.688v-8.055c0-.247-.044-.506-.122-.742l-2.19-6.379zm-13.8 11.239a1.675 1.675 0 01-1.667-1.688c0-.933.745-1.687 1.667-1.687s1.667.754 1.667 1.688c0 .933-.745 1.687-1.667 1.687zm12.222 0a1.675 1.675 0 01-1.667-1.688c0-.933.745-1.687 1.667-1.687s1.667.754 1.667 1.688c0 .933-.745 1.687-1.667 1.687zM4.222 9.75l1.411-4.298c.156-.45.578-.764 1.056-.764H17.31c.478 0 .9.315 1.056.764l1.41 4.298H4.223z" fill="#404040"/>
  </g>
</svg>
