<svg viewBox="0 0 24 24" xmlns="http://www.w3.org/2000/svg" focusable="false">
  <path d="M14.35 3c.97.01 1.76.51 2.22 1.408.119.238.284.584.458.95l.21.442.102.217.1.22c.04.07.11.12.2.12 2.4 0 4.36 1.957 4.36 4.354v5.934A4.368 4.368 0 0117.64 21H6.36A4.361 4.361 0 012 16.645V10.71a4.361 4.361 0 014.36-4.355c.08 0 .16-.04.19-.12l.06-.12c.28-.589.62-1.308.82-1.708C7.89 3.51 8.67 3.01 9.64 3zM12 9.403c-1.05 0-2.04.41-2.79 1.159a3.864 3.864 0 00-1.14 2.767A3.922 3.922 0 0012 17.254c1.08 0 2.06-.44 2.77-1.149a3.958 3.958 0 001.16-2.776c0-1.04-.41-2.028-1.15-2.777A3.913 3.913 0 0012 9.402zm0 1.498c.65 0 1.26.25 1.72.71.46.459.71 1.068.71 1.718A2.438 2.438 0 0112 15.756c-.65 0-1.26-.25-1.72-.71a2.408 2.408 0 01-.71-1.717v-.01c-.01-.63.24-1.24.7-1.699a2.42 2.42 0 011.73-.719zm5.61-1.738c-.5 0-.9.41-.9.91 0 .499.4.898.9.898s.91-.4.91-.899c0-.5-.41-.909-.91-.909z"/>
</svg>
