<svg viewBox="0 0 24 24" xmlns="http://www.w3.org/2000/svg" focusable="false">
  <g fill="none" fill-rule="evenodd">
    <path d="M0 0h24v24H0z"/>
    <path d="M4.9 4.9v4.2h4.2V4.9H4.9zM4 3.1h6a.9.9 0 01.9.9v6a.9.9 0 01-.9.9H4a.9.9 0 01-.9-.9V4a.9.9 0 01.9-.9zm10.9 6h4.2V4.9h-4.2v4.2zm-.9-6h6a.9.9 0 01.9.9v6a.9.9 0 01-.9.9h-6a.9.9 0 01-.9-.9V4a.9.9 0 01.9-.9zm.9 16h4.2v-4.2h-4.2v4.2zm-.9-6h6a.9.9 0 01.9.9v6a.9.9 0 01-.9.9h-6a.9.9 0 01-.9-.9v-6a.9.9 0 01.9-.9zm-9.1 6h4.2v-4.2H4.9v4.2zm-.9-6h6a.9.9 0 01.9.9v6a.9.9 0 01-.9.9H4a.9.9 0 01-.9-.9v-6a.9.9 0 01.9-.9z" fill="currentColor" fill-rule="nonzero"/>
  </g>
</svg>
