<svg xmlns="http://www.w3.org/2000/svg" viewBox="0 0 16 14.063" style="width:15px;height:15px">
  <path d="M5.155 9.375h8.5a.469.469 0 00.451-.34l1.875-6.563a.469.469 0 00-.451-.6H4.074L3.739.367A.469.469 0 003.281 0H.469a.469.469 0 000 .938h2.436L4.6 8.553a1.406 1.406 0 00.559 2.7h8.5a.469.469 0 100-.937h-8.5a.469.469 0 010-.937zm9.755-6.562L13.3 8.438H5.532l-1.25-5.625zm0 0"/>
  <path d="M4.688 12.656a1.406 1.406 0 101.406-1.406 1.408 1.408 0 00-1.406 1.406zm1.406-.469a.469.469 0 11-.469.469.469.469 0 01.469-.469zm5.218.469a1.406 1.406 0 101.406-1.406 1.408 1.408 0 00-1.406 1.406zm1.406-.469a.469.469 0 11-.469.469.469.469 0 01.469-.469zm0 0"/>
</svg>
