<svg data-name="Layer 1" xmlns="http://www.w3.org/2000/svg" viewBox="0 0 24 24" focusable="false">
  <g fill="none" stroke="#030835" stroke-linecap="round" stroke-miterlimit="10">
    <path d="M4.84 13.764v2.072a2.632 2.632 0 001.725 2.47l4.527 1.665a2.632 2.632 0 001.816 0l4.527-1.664a2.632 2.632 0 001.724-2.47v-2.075"/>
    <path d="M11.996 13.132a3.322 3.322 0 01-1.093-.184L3.16 10.264a1.726 1.726 0 010-3.262l7.75-2.685a3.332 3.332 0 012.183 0l7.747 2.685a1.726 1.726 0 010 3.261l-7.753 2.686a3.335 3.335 0 01-1.091.183z" stroke-width="1.5"/>
  </g>
</svg>
