<svg viewBox="0 0 24 24" xmlns="http://www.w3.org/2000/svg" focusable="false">
  <path d="M4.37 17.279a2.986 2.986 0 002.983 2.982h1.236a.75.75 0 010 1.5H7.353a4.488 4.488 0 01-4.483-4.482l-.001-3.325-1.119.001a.75.75 0 010-1.5l1.856-.001h17.288l1.856.001a.75.75 0 010 1.5h-1.12v3.324a4.488 4.488 0 01-4.483 4.482h-1.205a.75.75 0 010-1.5h1.205a2.986 2.986 0 002.983-2.982v-3.325H4.369v3.325zM17.147 3a4.488 4.488 0 014.483 4.481v1.514a.75.75 0 01-1.5 0V7.481a2.986 2.986 0 00-2.983-2.98h-1.205a.75.75 0 010-1.5h1.205zM8.589 3a.75.75 0 010 1.5H7.353A2.986 2.986 0 004.37 7.481v1.514a.75.75 0 01-1.5 0V7.481a4.488 4.488 0 014.483-4.48H8.59z" fill-rule="evenodd"/>
</svg>
