<svg xmlns="http://www.w3.org/2000/svg" viewBox="0 0 24 24" focusable="false">
  <path fill="none" d="M0 0h24v24H0z"/>
  <path d="M19.48 4.685l-6-2.4a4.011 4.011 0 00-2.97 0l-6 2.4A4 4 0 002 8.405v7.2a3.997 3.997 0 002.51 3.71l6 2.4a4.011 4.011 0 002.97 0l6-2.4a4.006 4.006 0 002.52-3.71v-7.2a4.01 4.01 0 00-2.52-3.72zm-.76 3.66l-4.32 1.73a2.604 2.604 0 00-1.65 2.44v5.44a.75.75 0 01-1.5 0v-5.44a4.076 4.076 0 01.41-1.81 4.209 4.209 0 01-1.2-.29l-5.19-2.07a.75.75 0 01.56-1.39l5.19 2.07a2.629 2.629 0 001.95 0l5.19-2.07a.74.74 0 01.97.41.748.748 0 01-.41.98z" fill="#030835"/>
</svg>
