<svg viewBox="0 0 24 24" xmlns="http://www.w3.org/2000/svg" focusable="false">
  <g fill="none" fill-rule="evenodd">
    <path d="M0 0h24v24H0z"/>
    <path d="M19 4a3 3 0 013 3v10a3 3 0 01-3 3H9a1 1 0 01-.76-.35l-6-7a1 1 0 010-1.3l6-7A1 1 0 019 4h10zM9.46 18H19a1 1 0 001-1V7a1 1 0 00-1-1H9.46l-5.143 6 5.143 6zm5.783-6.172l2.121 2.122a1 1 0 11-1.414 1.414l-2.122-2.121-2.12 2.121a1 1 0 01-1.415-1.414l2.121-2.122-2.121-2.12a1 1 0 011.414-1.415l2.121 2.121 2.122-2.121a1 1 0 111.414 1.414l-2.121 2.121z" fill="#404040" fill-rule="nonzero"/>
  </g>
</svg>
