<svg xmlns="http://www.w3.org/2000/svg" viewBox="0 0 32 32" focusable="false" fill="currentColor">
  <path d="M5.786 30.414a5.272 5.272 0 115.272-5.272 5.277 5.277 0 01-5.272 5.272zm0-8.495a3.224 3.224 0 103.224 3.224 3.226 3.226 0 00-3.224-3.224zm9.001-2.377H8.815a1.023 1.023 0 110-2.048h5.974c1.341 0 2.474-.785 2.474-1.713s-1.133-1.713-2.474-1.713h-3.584a1.023 1.023 0 110-2.048h3.584c2.493 0 4.522 1.687 4.522 3.761s-2.03 3.761-4.524 3.761zm-5.035-4.773H6.594a1.023 1.023 0 01-1.024-1.024v-.016.001l.061-3.608a1.025 1.025 0 011.024-1.009h.017a1.025 1.025 0 011.008 1.024v.018-.001l-.04 2.568h2.112a1.023 1.023 0 110 2.048zm18.024 4.175H17.518a1.023 1.023 0 110-2.048h10.258c.849 0 1.439-.484 1.439-.918s-.591-.918-1.439-.918H17.774a1.023 1.023 0 110-2.048h10.002c1.92 0 3.487 1.33 3.487 2.966s-1.567 2.966-3.487 2.966zm-1.641 11.47a5.272 5.272 0 115.272-5.272 5.277 5.277 0 01-5.272 5.272zm0-8.495a3.224 3.224 0 103.224 3.224 3.226 3.226 0 00-3.224-3.224zM5.786 26.167a1.024 1.024 0 01-.962-1.377l-.002.007 5.967-16.694c.146-.399.522-.679.964-.68h4.992a1.023 1.023 0 110 2.048h-4.27L6.75 25.486a1.028 1.028 0 01-.964.68zm20.35.009c-.452 0-.835-.293-.971-.699l-.002-.007-2.134-6.55a1.025 1.025 0 011.945-.648l.002.007 2.134 6.552a1.023 1.023 0 01-.974 1.341h-.001z"/>
</svg>
