<svg xmlns="http://www.w3.org/2000/svg" viewBox="0 0 48 48">
  <ellipse cx="24" cy="45.5" rx="10" ry="1.5" fill="#45413c" opacity=".15"/>
  <path class="st48" d="M32.2 37.6s-2.4 5.5-3.7 6.5c-1.2 1-3 .8-4-.5-1-1.2-.8-3 .5-4 1.3-.9 7.2-2 7.2-2z" fill="#6DD627" stroke="#45413C" stroke-linecap="round" stroke-linejoin="round" stroke-miterlimit="10"/>
  <path class="st48" d="M15.8 36s2.4 5.5 3.7 6.5c1.2 1 3 .8 4-.5 1-1.2.8-3-.5-4s-7.2-2-7.2-2z" fill="#6DD627" stroke="#45413C" stroke-linecap="round" stroke-linejoin="round" stroke-miterlimit="10"/>
  <path class="st48" fill="#6DD627" stroke="#45413C" stroke-linecap="round" stroke-linejoin="round" stroke-miterlimit="10" d="M22.8 28.5h2.4v17h-2.4z"/>
  <path class="st11" d="M22.9 8.3c.6 1.4-.1 3.1-1.5 3.7-1.4.6-3.1-.1-3.7-1.5-.6-1.4-.3-8.2-.3-8.2s4.9 4.6 5.5 6zm-6.8 3.8c1.4.6 2.1 2.3 1.5 3.7-.6 1.4-2.3 2.1-3.7 1.5-1.4-.6-6-5.6-6-5.6s6.8-.2 8.2.4zm-2.2 7.4c1.4-.6 3.1.1 3.7 1.5.6 1.4-.1 3.1-1.5 3.7-1.4.6-8.2.3-8.2.3s4.6-4.9 6-5.5zm3.8 6.8c.6-1.4 2.3-2.1 3.7-1.5 1.4.6 2.1 2.3 1.5 3.7-.6 1.4-5.6 6-5.6 6s-.2-6.8.4-8.2zm7.4 2.2c-.6-1.4.1-3.1 1.5-3.7 1.4-.6 3.1.1 3.7 1.5.6 1.4.3 8.2.3 8.2s-4.9-4.6-5.5-6zm6.8-3.8c-1.4-.6-2.1-2.3-1.5-3.7.6-1.4 2.3-2.1 3.7-1.5 1.4.6 6 5.6 6 5.6s-6.8.2-8.2-.4zm2.2-7.4c-1.4.6-3.1-.1-3.7-1.5s.1-3.1 1.5-3.7c1.4-.6 8.2-.3 8.2-.3s-4.6 4.9-6 5.5zm-3.8-6.8c-.6 1.4-2.3 2.1-3.7 1.5-1.4-.6-2.1-2.3-1.5-3.7.6-1.4 5.6-6 5.6-6s.2 6.8-.4 8.2z" fill="#FFE500"/>
  <path class="st12" d="M21.4 12c1.4-.6 2.1-2.3 1.5-3.7-2 .2-3.8 1-5.2 2.2.6 1.5 2.2 2.1 3.7 1.5zm-3.8 3.8c.6-1.4-.1-3.1-1.5-3.7-1.2 1.5-2 3.3-2.2 5.2 1.5.6 3.1-.1 3.7-1.5zm0 5.2c-.6-1.4-2.3-2.1-3.7-1.5.2 2 1 3.8 2.2 5.2 1.5-.6 2.1-2.2 1.5-3.7zm3.8 3.7c-1.4-.6-3.1.1-3.7 1.5 1.5 1.2 3.3 2 5.2 2.2.6-1.4-.1-3.1-1.5-3.7zm5.2 0c-1.4.6-2.1 2.3-1.5 3.7 2-.2 3.8-1 5.2-2.2-.6-1.4-2.2-2-3.7-1.5zm3.8-3.7c-.6 1.4.1 3.1 1.5 3.7 1.2-1.5 2-3.3 2.2-5.2-1.5-.6-3.1.1-3.7 1.5zm0-5.2c.6 1.4 2.3 2.1 3.7 1.5-.2-2-1-3.8-2.2-5.2-1.5.6-2.1 2.2-1.5 3.7zM26.6 12c1.4.6 3.1-.1 3.7-1.5-1.5-1.2-3.3-2-5.2-2.2-.6 1.5.1 3.1 1.5 3.7z" fill="#EBCB00"/>
  <path class="st10" d="M22.9 8.3c.6 1.4-.1 3.1-1.5 3.7-1.4.6-3.1-.1-3.7-1.5-.6-1.4-.3-8.2-.3-8.2s4.9 4.6 5.5 6zm-6.8 3.8c1.4.6 2.1 2.3 1.5 3.7-.6 1.4-2.3 2.1-3.7 1.5-1.4-.6-6-5.6-6-5.6s6.8-.2 8.2.4zm-2.2 7.4c1.4-.6 3.1.1 3.7 1.5.6 1.4-.1 3.1-1.5 3.7-1.4.6-8.2.3-8.2.3s4.6-4.9 6-5.5zm3.8 6.8c.6-1.4 2.3-2.1 3.7-1.5 1.4.6 2.1 2.3 1.5 3.7-.6 1.4-5.6 6-5.6 6s-.2-6.8.4-8.2zm7.4 2.2c-.6-1.4.1-3.1 1.5-3.7 1.4-.6 3.1.1 3.7 1.5.6 1.4.3 8.2.3 8.2s-4.9-4.6-5.5-6zm6.8-3.8c-1.4-.6-2.1-2.3-1.5-3.7.6-1.4 2.3-2.1 3.7-1.5 1.4.6 6 5.6 6 5.6s-6.8.2-8.2-.4zm2.2-7.4c-1.4.6-3.1-.1-3.7-1.5s.1-3.1 1.5-3.7c1.4-.6 8.2-.3 8.2-.3s-4.6 4.9-6 5.5zm-3.8-6.8c-.6 1.4-2.3 2.1-3.7 1.5-1.4-.6-2.1-2.3-1.5-3.7.6-1.4 5.6-6 5.6-6s.2 6.8-.4 8.2z" fill="none" stroke="#45413C" stroke-linecap="round" stroke-linejoin="round" stroke-miterlimit="10"/>
  <path class="st11" d="M26.8 8.7c0 1.6-1.3 2.8-2.8 2.8s-2.8-1.3-2.8-2.8S24 1 24 1s2.8 6.1 2.8 7.7zm-7.7.8c1.1 1.1 1.1 2.9 0 4s-2.9 1.1-4 0-3.4-7.4-3.4-7.4 6.3 2.3 7.4 3.4zm-4.8 6.1c1.6 0 2.8 1.3 2.8 2.8 0 1.6-1.3 2.8-2.8 2.8s-7.7-2.8-7.7-2.8 6.1-2.8 7.7-2.8zm.8 7.7c1.1-1.1 2.9-1.1 4 0s1.1 2.9 0 4-7.4 3.4-7.4 3.4 2.3-6.3 3.4-7.4zm6.1 4.8c0-1.6 1.3-2.8 2.8-2.8s2.8 1.3 2.8 2.8-2.8 7.7-2.8 7.7-2.8-6.1-2.8-7.7zm7.7-.8c-1.1-1.1-1.1-2.9 0-4s2.9-1.1 4 0 3.4 7.4 3.4 7.4-6.3-2.3-7.4-3.4zm4.8-6.1c-1.6 0-2.8-1.3-2.8-2.8 0-1.6 1.3-2.8 2.8-2.8s7.7 2.8 7.7 2.8-6.1 2.8-7.7 2.8zm-.8-7.7c-1.1 1.1-2.9 1.1-4 0s-1.1-2.9 0-4 7.4-3.4 7.4-3.4-2.3 6.3-3.4 7.4z" fill="#FFE500"/>
  <path class="st12" d="M24 11.5c1.6 0 2.8-1.3 2.8-2.8-.9-.3-1.8-.4-2.8-.4-1 0-1.9.1-2.8.4 0 1.6 1.2 2.8 2.8 2.8zm-4.9 2c1.1-1.1 1.1-2.9 0-4-1.7.9-3.1 2.3-4 4 1.1 1.1 2.9 1.1 4 0zm-2 4.9c0-1.6-1.3-2.8-2.8-2.8-.3.9-.4 1.8-.4 2.8 0 1 .1 1.9.4 2.8 1.6 0 2.8-1.2 2.8-2.8zm2 4.9c-1.1-1.1-2.9-1.1-4 0 .9 1.7 2.3 3.1 4 4 1.1-1.1 1.1-2.9 0-4zm4.9 2c-1.6 0-2.8 1.3-2.8 2.8.9.3 1.8.4 2.8.4 1 0 1.9-.1 2.8-.4 0-1.6-1.2-2.8-2.8-2.8zm8.9-2c-1.1-1.1-2.9-1.1-4 0s-1.1 2.9 0 4c1.6-1 3-2.4 4-4zm-2-4.9c0 1.6 1.3 2.8 2.8 2.8.3-.9.4-1.8.4-2.8 0-1-.1-1.9-.4-2.8-1.6 0-2.8 1.2-2.8 2.8zm-2-4.9c1.1 1.1 2.9 1.1 4 0-.9-1.7-2.3-3.1-4-4-1.1 1.1-1.1 2.9 0 4z" fill="#EBCB00"/>
  <path class="st10" d="M26.8 8.7c0 1.6-1.3 2.8-2.8 2.8s-2.8-1.3-2.8-2.8S24 1 24 1s2.8 6.1 2.8 7.7zm-7.7.8c1.1 1.1 1.1 2.9 0 4s-2.9 1.1-4 0-3.4-7.4-3.4-7.4 6.3 2.3 7.4 3.4zm-4.8 6.1c1.6 0 2.8 1.3 2.8 2.8 0 1.6-1.3 2.8-2.8 2.8s-7.7-2.8-7.7-2.8 6.1-2.8 7.7-2.8zm.8 7.7c1.1-1.1 2.9-1.1 4 0s1.1 2.9 0 4-7.4 3.4-7.4 3.4 2.3-6.3 3.4-7.4zm6.1 4.8c0-1.6 1.3-2.8 2.8-2.8s2.8 1.3 2.8 2.8-2.8 7.7-2.8 7.7-2.8-6.1-2.8-7.7zm7.7-.8c-1.1-1.1-1.1-2.9 0-4s2.9-1.1 4 0 3.4 7.4 3.4 7.4-6.3-2.3-7.4-3.4zm4.8-6.1c-1.6 0-2.8-1.3-2.8-2.8 0-1.6 1.3-2.8 2.8-2.8s7.7 2.8 7.7 2.8-6.1 2.8-7.7 2.8zm-.8-7.7c-1.1 1.1-2.9 1.1-4 0s-1.1-2.9 0-4 7.4-3.4 7.4-3.4-2.3 6.3-3.4 7.4z" fill="none" stroke="#45413C" stroke-linecap="round" stroke-linejoin="round" stroke-miterlimit="10"/>
  <circle cx="24" cy="18.4" r="8.5" fill="#ffaa54"/>
  <path d="M24 9.9c-4.7 0-8.5 3.8-8.5 8.5s3.8 8.5 8.5 8.5 8.5-3.8 8.5-8.5-3.8-8.5-8.5-8.5zm0 15.8c-4.2 0-7.7-3.4-7.7-7.7s3.4-7.7 7.7-7.7 7.7 3.4 7.7 7.7-3.5 7.7-7.7 7.7z" fill="#ff8a14"/>
  <circle class="st10" cx="24" cy="18.4" r="8.5" fill="none" stroke="#45413C" stroke-linecap="round" stroke-linejoin="round" stroke-miterlimit="10"/>
</svg>
