<svg viewBox="0 0 24 24" xmlns="http://www.w3.org/2000/svg" focusable="false">
  <g fill="none" fill-rule="evenodd">
    <path d="M0 0h24v24H0z"/>
    <path d="M8 13a1 1 0 010 2H6v6a1 1 0 01-2 0v-6H2a1 1 0 010-2h6zm4-2a1 1 0 011 1v9a1 1 0 01-2 0v-9a1 1 0 011-1zm10 4a1 1 0 010 2h-2v4a1 1 0 01-2 0v-4h-2a1 1 0 010-2h6zM19 2a1 1 0 011 1v9a1 1 0 01-2 0V3a1 1 0 011-1zM5 2a1 1 0 011 1v7a1 1 0 01-2 0V3a1 1 0 011-1zm7 0a1 1 0 011 1v4h2a1 1 0 010 2H9a1 1 0 110-2h2V3a1 1 0 011-1z" fill="#404040" fill-rule="nonzero"/>
  </g>
</svg>
