<svg xmlns="http://www.w3.org/2000/svg" viewBox="0 0 24 24" focusable="false">
  <g fill="none" stroke-linecap="round" stroke-miterlimit="10" stroke-width="1.5">
    <path d="M19.503 8.435l-1.427-.243a2.804 2.804 0 01-2.294-2.294l-.242-1.426a3 3 0 00-2.958-2.498h-1.164A3 3 0 008.46 4.472l-.242 1.426a2.804 2.804 0 01-2.294 2.294l-1.427.243A3 3 0 002 11.392v1.165a3 3 0 002.497 2.957l1.427.242a2.804 2.804 0 012.294 2.295l.242 1.426a2.993 2.993 0 002.907 2.549l1.215-.052a3 3 0 002.958-2.497l.242-1.426a2.804 2.804 0 012.294-2.295l1.427-.242A3 3 0 0022 12.557v-1.165a3 3 0 00-2.497-2.957z" stroke="#030835"/>
    <circle cx="12" cy="11.974" r="1.75" stroke="#ffb531"/>
  </g>
</svg>
