<svg xmlns="http://www.w3.org/2000/svg" viewBox="0 0 48 48" focusable="false">
  <ellipse cx="24.1" cy="43.7" rx="20.2" ry="1.6" fill="#45413c" opacity=".15"/>
  <path d="M43.2 31.1V36c0 3.9-8.6 7.1-19.1 7.1S4.9 39.9 4.9 36v-4.9h38.3z" fill="#DEBB7E"/>
  <path d="M4.9 33.3c0 3.9 8.6 7.1 19.1 7.1s19.1-3.2 19.1-7.1v-2.2H4.9v2.2z" fill="#b89558"/>
  <path d="M43.2 31.1V36c0 3.9-8.6 7.1-19.1 7.1S4.9 39.9 4.9 36v-4.9h38.3z" fill="none" stroke="#45413C" stroke-linecap="round" stroke-linejoin="round" stroke-miterlimit="10"/>
  <path d="M24.1 37.7c23.6 0 23-7.7 20.2-12-2.7-3.8-9.1-7.1-20.2-7.1s-17.5 3.2-20.2 7C1.1 30 .5 37.7 24.1 37.7z" fill="#BF8256" stroke="#45413C" stroke-linecap="round" stroke-linejoin="round" stroke-miterlimit="10"/>
  <path d="M43.2 23.4s3.3 1.1 3.3 4.4-4.4.5-6 1.6-.4 3.6-2.7 4.4c-3.3 1.1-5-2.1-7.1-1.6-2.7.5-1.6 3.3-6.6 3.3s-3.8-2.7-6.6-3.3c-2.1-.4-3.8 2.7-7.1 1.6-2.3-.8-1.1-3.3-2.7-4.4s-6 1.6-6-1.6S5 23.4 5 23.4h38.2z" fill="#6DD627" stroke="#45413C" stroke-linecap="round" stroke-linejoin="round" stroke-miterlimit="10"/>
  <path d="M42.7 27.3h-9.3V30c0 1.2 1 2.2 2.2 2.2h1.1v2.5c0 1.1.9 1.9 1.9 1.9 1.1 0 1.9-.9 1.9-1.9v-4.1c1.2 0 2.2-1 2.2-2.2v-1.1z" fill="#FFE500" stroke="#45413C" stroke-linecap="round" stroke-linejoin="round" stroke-miterlimit="10"/>
  <path d="M24.1 30c23.6 0 23-7.7 20.2-12-2.7-3.8-9.1-7.1-20.2-7.1S6.6 14.1 3.9 18C1.1 22.3.5 30 24.1 30z" fill="#BF8256" stroke="#45413C" stroke-linecap="round" stroke-linejoin="round" stroke-miterlimit="10"/>
  <path d="M43.2 15.8s3.3 1.1 3.3 4.4-4.4.5-6 1.6-.4 3.6-2.7 4.4c-3.3 1.1-5-2.1-7.1-1.6-2.7.5-1.6 3.3-6.6 3.3s-3.8-2.7-6.6-3.3c-2.1-.4-3.8 2.7-7.1 1.6-2.3-.8-1.1-3.3-2.7-4.4s-6 1.6-6-1.6S5 15.8 5 15.8h38.2z" fill="#6DD627" stroke="#45413C" stroke-linecap="round" stroke-linejoin="round" stroke-miterlimit="10"/>
  <path d="M7.1 18s-1.8 3.8 2.2 4.9c3.8 1.1 7.7-2.2 10.9-2.2s6.3 4.8 10.4 3.8c4.4-1.1 2.2-3.3 4.9-4.4s12 2.7 6.6-3.8L7.1 18z" fill="#ff6242" stroke="#45413c" stroke-linecap="round" stroke-linejoin="round" stroke-miterlimit="10"/>
  <path d="M26.8 21.3h-9.3V24c0 1.2 1 2.2 2.2 2.2h1.1v2.5c0 1.1.9 1.9 1.9 1.9s1.9-.9 1.9-1.9v-4.1c1.2 0 2.2-1 2.2-2.2v-1.1z" fill="#FFE500" stroke="#45413C" stroke-linecap="round" stroke-linejoin="round" stroke-miterlimit="10"/>
  <path d="M43.2 15.2c0 3.9-8.6 7.1-19.1 7.1S4.9 19.2 4.9 15.2C4.9 15.2 6 2.6 24 2.6s19.2 12.6 19.2 12.6z" fill="#f0d5a8"/>
  <path d="M24.1 18.5c-9 0-16.6-2.3-18.6-5.5-.4 1.3-.5 2.2-.5 2.2 0 3.9 8.6 7.1 19.1 7.1s19.1-3.2 19.1-7.1c0 0-.1-.9-.5-2.2-2 3.2-9.6 5.5-18.6 5.5z" fill="#DEBB7E"/>
  <path d="M43.2 15.2c0 3.9-8.6 7.1-19.1 7.1S4.9 19.2 4.9 15.2C4.9 15.2 6 2.6 24 2.6s19.2 12.6 19.2 12.6z" fill="none" stroke="#45413C" stroke-linecap="round" stroke-linejoin="round" stroke-miterlimit="10"/>
  <path d="M12.9 8.5c-.6.2-.9.8-.8 1.3.2.6.8.9 1.3.8l1.1-.3c.6-.2.9-.8.8-1.3-.2-.6-.8-.9-1.3-.8l-1.1.3zm6.4 2.9c-.3.5 0 1.2.5 1.4.5.3 1.2 0 1.4-.5l.5-1c.3-.5 0-1.2-.5-1.4-.5-.3-1.2 0-1.4.5l-.5 1zm16-2.9c.6.2.9.8.8 1.3-.2.6-.8.9-1.3.8l-1.1-.3c-.6-.2-.9-.8-.8-1.3.2-.6.8-.9 1.3-.8l1.1.3zm-6.4 2.9c.3.5 0 1.2-.5 1.4-.5.3-1.2 0-1.4-.5l-.5-1c-.3-.5 0-1.2.5-1.4.5-.3 1.2 0 1.4.5l.5 1z" fill="#DEBB7E" stroke="#45413C" stroke-linecap="round" stroke-linejoin="round" stroke-miterlimit="10"/>
</svg>
