<svg xmlns="http://www.w3.org/2000/svg" viewBox="0 0 48 48">
  <style>
    .st1{fill:#ffc258}.st2{fill:#4f4b45}.st3{fill:#fabfa5}.st6{stroke:#45413c;stroke-linecap:round;stroke-linejoin:round;stroke-miterlimit:10}.st6,.st9{fill:#debb7e}.st10{fill:none}.st10,.st24,.st46,.st48{stroke:#45413c;stroke-linecap:round;stroke-linejoin:round;stroke-miterlimit:10}.st24{fill:#bf8256}.st46{fill:#ffe500}.st48{fill:#6dd627}
  </style>
  <symbol id="New_Symbol_14" viewBox="-6.5 -6.5 13 13">
    <path d="M0-6c2.2 0 4.1 1.5 4.7 3.5C6.3-2.5 6.4 0 5 0v1c0 2.8-2.2 5-5 5s-5-2.2-5-5V0c-1.4 0-1.3-2.5.2-2.5C-4.1-4.5-2.2-6 0-6z" fill="#ffd4c3" stroke="#504b46" stroke-linecap="round" stroke-linejoin="round" stroke-miterlimit="10"/>
    <circle class="st1" cx="-1.6" cy="-.1" r=".1" fill="#FFC258"/>
    <path class="st2" d="M-1.6.5c-.3 0-.6-.3-.6-.6s.2-.7.6-.7c.3 0 .6.3.6.7s-.3.6-.6.6z" fill="#4F4B45"/>
    <circle class="st1" cx="1.6" cy="-.1" r=".1" fill="#FFC258"/>
    <path class="st2" d="M1.6.5C1.3.5 1 .2 1-.1s.3-.6.6-.6.6.3.6.6-.2.6-.6.6z" fill="#4F4B45"/>
    <circle class="st3" cx="-3" cy="-1.5" r=".5" fill="#FABFA5"/>
    <circle class="st3" cx="3" cy="-1.5" r=".5" fill="#FABFA5"/>
    <path d="M-1.2-3c.8-.5 1.7-.5 2.5 0" fill="none" stroke="#504b46" stroke-linecap="round" stroke-linejoin="round" stroke-miterlimit="10"/>
  </symbol>
  <g id="Icons">
    <g id="XMLID_1430_">
      <ellipse id="XMLID_499_" cx="24.1" cy="43.7" rx="20.2" ry="1.6" fill="#45413c" opacity=".15"/>
      <g id="XMLID_446_">
        <path id="XMLID_450_" class="st9" d="M43.2 31.1V36c0 3.9-8.6 7.1-19.1 7.1S4.9 39.9 4.9 36v-4.9h38.3z" fill="#DEBB7E"/>
        <g id="XMLID_448_">
          <path id="XMLID_449_" d="M4.9 33.3c0 3.9 8.6 7.1 19.1 7.1s19.1-3.2 19.1-7.1v-2.2H4.9v2.2z" fill="#b89558"/>
        </g>
        <path id="XMLID_447_" class="st10" d="M43.2 31.1V36c0 3.9-8.6 7.1-19.1 7.1S4.9 39.9 4.9 36v-4.9h38.3z" fill="none" stroke="#45413C" stroke-linecap="round" stroke-linejoin="round" stroke-miterlimit="10"/>
      </g>
      <g id="XMLID_444_">
        <path id="XMLID_445_" class="st24" d="M24.1 37.7c23.6 0 23-7.7 20.2-12-2.7-3.8-9.1-7.1-20.2-7.1s-17.5 3.2-20.2 7C1.1 30 .5 37.7 24.1 37.7z" fill="#BF8256" stroke="#45413C" stroke-linecap="round" stroke-linejoin="round" stroke-miterlimit="10"/>
      </g>
      <path id="XMLID_443_" class="st48" d="M43.2 23.4s3.3 1.1 3.3 4.4-4.4.5-6 1.6-.4 3.6-2.7 4.4c-3.3 1.1-5-2.1-7.1-1.6-2.7.5-1.6 3.3-6.6 3.3s-3.8-2.7-6.6-3.3c-2.1-.4-3.8 2.7-7.1 1.6-2.3-.8-1.1-3.3-2.7-4.4s-6 1.6-6-1.6S5 23.4 5 23.4h38.2z" fill="#6DD627" stroke="#45413C" stroke-linecap="round" stroke-linejoin="round" stroke-miterlimit="10"/>
      <path id="XMLID_442_" class="st46" d="M42.7 27.3h-9.3V30c0 1.2 1 2.2 2.2 2.2h1.1v2.5c0 1.1.9 1.9 1.9 1.9 1.1 0 1.9-.9 1.9-1.9v-4.1c1.2 0 2.2-1 2.2-2.2v-1.1z" fill="#FFE500" stroke="#45413C" stroke-linecap="round" stroke-linejoin="round" stroke-miterlimit="10"/>
      <g id="XMLID_285_">
        <g id="XMLID_440_">
          <path id="XMLID_441_" class="st24" d="M24.1 30c23.6 0 23-7.7 20.2-12-2.7-3.8-9.1-7.1-20.2-7.1S6.6 14.1 3.9 18C1.1 22.3.5 30 24.1 30z" fill="#BF8256" stroke="#45413C" stroke-linecap="round" stroke-linejoin="round" stroke-miterlimit="10"/>
        </g>
        <path id="XMLID_439_" class="st48" d="M43.2 15.8s3.3 1.1 3.3 4.4-4.4.5-6 1.6-.4 3.6-2.7 4.4c-3.3 1.1-5-2.1-7.1-1.6-2.7.5-1.6 3.3-6.6 3.3s-3.8-2.7-6.6-3.3c-2.1-.4-3.8 2.7-7.1 1.6-2.3-.8-1.1-3.3-2.7-4.4s-6 1.6-6-1.6S5 15.8 5 15.8h38.2z" fill="#6DD627" stroke="#45413C" stroke-linecap="round" stroke-linejoin="round" stroke-miterlimit="10"/>
        <path id="XMLID_438_" d="M7.1 18s-1.8 3.8 2.2 4.9c3.8 1.1 7.7-2.2 10.9-2.2s6.3 4.8 10.4 3.8c4.4-1.1 2.2-3.3 4.9-4.4s12 2.7 6.6-3.8L7.1 18z" fill="#ff6242" stroke="#45413c" stroke-linecap="round" stroke-linejoin="round" stroke-miterlimit="10"/>
        <path id="XMLID_436_" class="st46" d="M26.8 21.3h-9.3V24c0 1.2 1 2.2 2.2 2.2h1.1v2.5c0 1.1.9 1.9 1.9 1.9s1.9-.9 1.9-1.9v-4.1c1.2 0 2.2-1 2.2-2.2v-1.1z" fill="#FFE500" stroke="#45413C" stroke-linecap="round" stroke-linejoin="round" stroke-miterlimit="10"/>
        <g id="XMLID_427_">
          <g id="XMLID_432_">
            <path id="XMLID_435_" d="M43.2 15.2c0 3.9-8.6 7.1-19.1 7.1S4.9 19.2 4.9 15.2C4.9 15.2 6 2.6 24 2.6s19.2 12.6 19.2 12.6z" fill="#f0d5a8"/>
            <path id="XMLID_434_" class="st9" d="M24.1 18.5c-9 0-16.6-2.3-18.6-5.5-.4 1.3-.5 2.2-.5 2.2 0 3.9 8.6 7.1 19.1 7.1s19.1-3.2 19.1-7.1c0 0-.1-.9-.5-2.2-2 3.2-9.6 5.5-18.6 5.5z" fill="#DEBB7E"/>
            <path id="XMLID_433_" class="st10" d="M43.2 15.2c0 3.9-8.6 7.1-19.1 7.1S4.9 19.2 4.9 15.2C4.9 15.2 6 2.6 24 2.6s19.2 12.6 19.2 12.6z" fill="none" stroke="#45413C" stroke-linecap="round" stroke-linejoin="round" stroke-miterlimit="10"/>
          </g>
          <path id="XMLID_431_" class="st6" d="M12.9 8.5c-.6.2-.9.8-.8 1.3.2.6.8.9 1.3.8l1.1-.3c.6-.2.9-.8.8-1.3-.2-.6-.8-.9-1.3-.8l-1.1.3z" fill="#DEBB7E" stroke="#45413C" stroke-linecap="round" stroke-linejoin="round" stroke-miterlimit="10"/>
          <path id="XMLID_430_" class="st6" d="M19.3 11.4c-.3.5 0 1.2.5 1.4.5.3 1.2 0 1.4-.5l.5-1c.3-.5 0-1.2-.5-1.4-.5-.3-1.2 0-1.4.5l-.5 1z" fill="#DEBB7E" stroke="#45413C" stroke-linecap="round" stroke-linejoin="round" stroke-miterlimit="10"/>
          <path id="XMLID_429_" class="st6" d="M35.3 8.5c.6.2.9.8.8 1.3-.2.6-.8.9-1.3.8l-1.1-.3c-.6-.2-.9-.8-.8-1.3.2-.6.8-.9 1.3-.8l1.1.3z" fill="#DEBB7E" stroke="#45413C" stroke-linecap="round" stroke-linejoin="round" stroke-miterlimit="10"/>
          <path id="XMLID_428_" class="st6" d="M28.9 11.4c.3.5 0 1.2-.5 1.4-.5.3-1.2 0-1.4-.5l-.5-1c-.3-.5 0-1.2.5-1.4.5-.3 1.2 0 1.4.5l.5 1z" fill="#DEBB7E" stroke="#45413C" stroke-linecap="round" stroke-linejoin="round" stroke-miterlimit="10"/>
        </g>
      </g>
    </g>
  </g>
</svg>
