<svg xmlns="http://www.w3.org/2000/svg" viewBox="0 0 48 48">
  <ellipse cx="24" cy="44.8" rx="12.1" ry="1.6" fill="#45413c" opacity=".15"/>
  <path d="M43 34.3c0 2.6-8.5 5.3-19 5.3S5 37.1 5 34.3c0-4.1 8.5-7.4 19-7.4s19 3.3 19 7.4z" fill="#6dd627"/>
  <path d="M24 30.1c8.8 0 16.1 2.3 18.3 5.5.4-.4.7-.8.7-1.3 0-4.1-8.5-7.4-19-7.4S5 30.2 5 34.3c0 .4.2.9.6 1.3 2.2-3.2 9.6-5.5 18.4-5.5z" fill="#9ceb60"/>
  <path d="M43 34.3c0 2.6-8.5 5.3-19 5.3S5 37.1 5 34.3c0-4.1 8.5-7.4 19-7.4s19 3.3 19 7.4z" fill="none" stroke="#45413c" stroke-linecap="round" stroke-linejoin="round" stroke-miterlimit="10"/>
  <ellipse cx="24" cy="28.5" rx="5.3" ry="1.6" fill="#46b000" stroke="#45413c" stroke-linecap="round" stroke-linejoin="round" stroke-miterlimit="10"/>
  <path d="M24 1.6c-.6 0-1.1.5-1.1 1.1v26.5c0 .5.4.9.9.9h.4c.5 0 .9-.4.9-.9V2.7c0-.6-.5-1.1-1.1-1.1z" fill="#daedf7" stroke="#45413c" stroke-linecap="round" stroke-linejoin="round" stroke-miterlimit="10"/>
  <path class="st14" d="M37.7 12.2l-5.2-2.4c-.9-.4-1.6-1.2-1.9-2.1 0-1.1-.7-2.2-1.8-2.6l-3.7-1.4v11.7l2.8-1c.9-.3 1.9-.2 2.7.3 1.1 1.2 3 1.5 4.3.5l2.9-2c.3-.3.3-.8-.1-1zm-7.1 2.4V7.7" fill="#FF6242" stroke="#45413C" stroke-linecap="round" stroke-linejoin="round" stroke-miterlimit="10"/>
</svg>
