<svg xmlns="http://www.w3.org/2000/svg" viewBox="0 0 48 48">
  <style>
    .st1{fill:#ffc258}.st2{fill:#4f4b45}.st3{fill:#fabfa5}.st14{fill:#ff6242;stroke:#45413c;stroke-linecap:round;stroke-linejoin:round;stroke-miterlimit:10}
  </style>
  <symbol id="New_Symbol_14" viewBox="-6.5 -6.5 13 13">
    <path d="M0-6c2.2 0 4.1 1.5 4.7 3.5C6.3-2.5 6.4 0 5 0v1c0 2.8-2.2 5-5 5s-5-2.2-5-5V0c-1.4 0-1.3-2.5.2-2.5C-4.1-4.5-2.2-6 0-6z" fill="#ffd4c3" stroke="#504b46" stroke-linecap="round" stroke-linejoin="round" stroke-miterlimit="10"/>
    <circle class="st1" cx="-1.6" cy="-.1" r=".1" fill="#FFC258"/>
    <path class="st2" d="M-1.6.5c-.3 0-.6-.3-.6-.6s.2-.7.6-.7c.3 0 .6.3.6.7s-.3.6-.6.6z" fill="#4F4B45"/>
    <circle class="st1" cx="1.6" cy="-.1" r=".1" fill="#FFC258"/>
    <path class="st2" d="M1.6.5C1.3.5 1 .2 1-.1s.3-.6.6-.6.6.3.6.6-.2.6-.6.6z" fill="#4F4B45"/>
    <circle class="st3" cx="-3" cy="-1.5" r=".5" fill="#FABFA5"/>
    <circle class="st3" cx="3" cy="-1.5" r=".5" fill="#FABFA5"/>
    <path d="M-1.2-3c.8-.5 1.7-.5 2.5 0" fill="none" stroke="#504b46" stroke-linecap="round" stroke-linejoin="round" stroke-miterlimit="10"/>
  </symbol>
  <g id="Icons">
    <g id="XMLID_1988_">
      <ellipse id="XMLID_2814_" cx="24" cy="44.8" rx="12.1" ry="1.6" fill="#45413c" opacity=".15"/>
      <path id="XMLID_2813_" d="M43 34.3c0 2.6-8.5 5.3-19 5.3S5 37.1 5 34.3c0-4.1 8.5-7.4 19-7.4s19 3.3 19 7.4z" fill="#6dd627"/>
      <path id="XMLID_2812_" d="M24 30.1c8.8 0 16.1 2.3 18.3 5.5.4-.4.7-.8.7-1.3 0-4.1-8.5-7.4-19-7.4S5 30.2 5 34.3c0 .4.2.9.6 1.3 2.2-3.2 9.6-5.5 18.4-5.5z" fill="#9ceb60"/>
      <path id="XMLID_2811_" d="M43 34.3c0 2.6-8.5 5.3-19 5.3S5 37.1 5 34.3c0-4.1 8.5-7.4 19-7.4s19 3.3 19 7.4z" fill="none" stroke="#45413c" stroke-linecap="round" stroke-linejoin="round" stroke-miterlimit="10"/>
      <ellipse id="XMLID_2810_" cx="24" cy="28.5" rx="5.3" ry="1.6" fill="#46b000" stroke="#45413c" stroke-linecap="round" stroke-linejoin="round" stroke-miterlimit="10"/>
      <path id="XMLID_2809_" d="M24 1.6c-.6 0-1.1.5-1.1 1.1v26.5c0 .5.4.9.9.9h.4c.5 0 .9-.4.9-.9V2.7c0-.6-.5-1.1-1.1-1.1z" fill="#daedf7" stroke="#45413c" stroke-linecap="round" stroke-linejoin="round" stroke-miterlimit="10"/>
      <path id="XMLID_2808_" class="st14" d="M37.7 12.2l-5.2-2.4c-.9-.4-1.6-1.2-1.9-2.1 0-1.1-.7-2.2-1.8-2.6l-3.7-1.4v11.7l2.8-1c.9-.3 1.9-.2 2.7.3 1.1 1.2 3 1.5 4.3.5l2.9-2c.3-.3.3-.8-.1-1z" fill="#FF6242" stroke="#45413C" stroke-linecap="round" stroke-linejoin="round" stroke-miterlimit="10"/>
      <path id="XMLID_2807_" class="st14" fill="#FF6242" stroke="#45413C" stroke-linecap="round" stroke-linejoin="round" stroke-miterlimit="10" d="M30.6 14.6V7.7"/>
    </g>
  </g>
</svg>
