<svg xmlns="http://www.w3.org/2000/svg" viewBox="0 0 48 48" focusable="false">
  <path d="M17.7 36.9a6.38 6.38 0 00-1.5 5.3c1.7.1 3.6-.7 5-2.3 1.4-1.6 1.8-3.6 1.5-5.3-1.8-.1-3.7.7-5 2.3z" fill="#6dd627"/>
  <path d="M22.6 34.6c-1.7-.1-3.6.7-5 2.3-.3.4-.6.8-.8 1.2.9.9 2.3 1.7 4.2 1.9l.2-.2c1.3-1.6 1.8-3.6 1.4-5.2z" fill="#46b000"/>
  <path d="M17.7 36.9a6.38 6.38 0 00-1.5 5.3c1.7.1 3.6-.7 5-2.3 1.4-1.6 1.8-3.6 1.5-5.3-1.8-.1-3.7.7-5 2.3z" fill="none" stroke="#45413C" stroke-linecap="round" stroke-linejoin="round" stroke-miterlimit="10"/>
  <path d="M34.7 3c-4.4.7-6.9 5.3-5.9 9.5s5.2 7.1 9.5 6.1l1.1-2s1.4 2.9 2.4 2c1-.9 1.4-4.8 1.4-4.8s1.4 3.7 2.2 1.7c.8-1.9.4-5.6-.8-7.8C42.5 3.9 39 2.3 34.7 3zM13.3 3c4.4.7 6.9 5.3 5.9 9.5s-5.2 7.1-9.5 6.1l-1.1-2s-1.4 2.9-2.4 2c-1-.9-1.4-4.8-1.4-4.8s-1.4 3.7-2.2 1.7c-.8-1.9-.4-5.6.8-7.8C5.6 3.9 9.1 2.3 13.3 3z" fill="#BDBEC0"/>
  <path d="M34.7 6.1c4.2-.7 7.7.9 9.9 4.7.6 1 1 2.3 1.1 3.6.4-2-.1-4.9-1.1-6.7C42.5 3.9 39 2.3 34.7 3c-4.2.7-6.8 5.1-6 9.1.7-2.9 2.9-5.5 6-6zM3.4 10.8C5.6 7 9.1 5.4 13.3 6.1c3.2.5 5.4 3.1 6 6 .8-4.1-1.7-8.5-6-9.1-4.2-.7-7.7.9-9.9 4.7-1.1 1.8-1.5 4.7-1.1 6.7.2-1.3.6-2.6 1.1-3.6z" fill="#E0E0E0"/>
  <path d="M34.7 3c-4.4.7-6.9 5.3-5.9 9.5s5.2 7.1 9.5 6.1l1.1-2s1.4 2.9 2.4 2c1-.9 1.4-4.8 1.4-4.8s1.4 3.7 2.2 1.7c.8-1.9.4-5.6-.8-7.8C42.5 3.9 39 2.3 34.7 3zM13.3 3c4.4.7 6.9 5.3 5.9 9.5s-5.2 7.1-9.5 6.1l-1.1-2s-1.4 2.9-2.4 2c-1-.9-1.4-4.8-1.4-4.8s-1.4 3.7-2.2 1.7c-.8-1.9-.4-5.6.8-7.8C5.6 3.9 9.1 2.3 13.3 3z" fill="none" stroke="#45413C" stroke-linecap="round" stroke-linejoin="round" stroke-miterlimit="10"/>
  <ellipse cx="23.9" cy="43.5" rx="12.8" ry="1.7" fill="#45413c" opacity=".15"/>
  <path d="M38.3 20.9V18c0-7.1-6.4-12.9-14.4-12.9C16 5.1 9.5 10.9 9.5 18v2.9c-1.1 1.5-1.8 3.3-1.8 5.2 0 5 4 9.1 9.6 9.1h.3c.8 0 1.6.3 2.3.7 1.1.6 2.4 1 4 1 1.5 0 2.9-.4 4-1 .7-.4 1.5-.7 2.3-.7h.3c5.6 0 9.6-4.1 9.6-9.1 0-1.9-.7-3.7-1.8-5.2z" fill="#BDBEC0"/>
  <path d="M38.3 20.9V18c0-7.1-6.4-12.9-14.4-12.9C16 5.1 9.5 10.9 9.5 18v3.6c0-7.1 6.4-12.9 14.4-12.9 7.9 0 14.4 5.8 14.4 12.9v-.7z" fill="#E0E0E0"/>
  <path d="M38.3 20.9V18c0-7.1-6.4-12.9-14.4-12.9C16 5.1 9.5 10.9 9.5 18v2.9c-1.1 1.5-1.8 3.3-1.8 5.2 0 5 4 9.1 9.6 9.1h.3c.8 0 1.6.3 2.3.7 1.1.6 2.4 1 4 1 1.5 0 2.9-.4 4-1 .7-.4 1.5-.7 2.3-.7h.3c5.6 0 9.6-4.1 9.6-9.1 0-1.9-.7-3.7-1.8-5.2z" fill="none" stroke="#45413C" stroke-linecap="round" stroke-linejoin="round" stroke-miterlimit="10"/>
  <path d="M27.8 27c0 3.4-1.7 4.4-3.9 4.4S20 30.4 20 27c0-3.4 1.7-6.8 3.9-6.8s3.9 3.4 3.9 6.8z" fill="#656769" stroke="#45413c" stroke-linecap="round" stroke-linejoin="round" stroke-miterlimit="10"/>
  <circle cx="31.7" cy="20.2" r="1.7" fill="#45413C" stroke="#45413C" stroke-linecap="round" stroke-linejoin="round" stroke-miterlimit="10"/>
  <circle cx="16.1" cy="20.2" r="1.7" fill="#45413C" stroke="#45413C" stroke-linecap="round" stroke-linejoin="round" stroke-miterlimit="10"/>
  <ellipse cx="35.8" cy="27.7" rx="2" ry="1" fill="#FCD"/>
  <ellipse cx="12" cy="27.7" rx="2" ry="1" fill="#FCD"/>
  <path d="M18.2 35.3s2.2-.1 3.6-.7m8.7.6s-1.6-.1-3.3-.6M15.1 7.9s-3.6-1.9-6.6.3m24.6-.3s3.6-1.9 6.6.3" fill="none" stroke="#45413C" stroke-linecap="round" stroke-linejoin="round" stroke-miterlimit="10"/>
</svg>
