<svg xmlns="http://www.w3.org/2000/svg" viewBox="0 0 32 32" focusable="false">
  <g transform="translate(-921.751 -1716.568)">
    <path fill="#ec7bb0" fill-rule="evenodd" d="M949.255 1722.54a3.343 3.343 0 00-4.725 0l-.787.784-.787-.784a3.343 3.343 0 00-4.726 0 3.313 3.313 0 000 4.708l5.508 5.128h.008l5.51-5.128c1.352-1.26 1.308-3.404 0-4.708z"/>
    <path fill="#fbdabb" fill-rule="evenodd" d="M943.507 1737.886l7.02-3.256s1.127-.38 1.618.782a1.327 1.327 0 01-.58 1.673l-.237.134-9.712 5.279c-.804.54-1.944.697-2.889.457l-9.988-3.382-.287-7.414h5.47c1.288 0 2.45.508 3.291 1.331a4.571 4.571 0 01.8 1.05c.071.129.136.233.195.37h4.74c.864 0 1.559.685 1.559 1.536 0 .852-.695 1.537-1.559 1.537h-6.954"/>
    <rect width="5.471" height="10.184" x="923.255" y="1730.819" fill="#65c5b4" rx="8.206" ry="0"/>
    <path fill="#62355c" style="line-height:normal;text-indent:0;text-align:start;text-decoration-line:none;text-decoration-style:solid;text-decoration-color:#000;text-transform:none;block-progression:tb;isolation:auto;mix-blend-mode:normal" d="M940.593 1721.066a3.84 3.84 0 00-2.717 1.121 3.823 3.823 0 000 5.417c.004 0 .01.01.014.011l5.508 5.127a.501.501 0 00.34.135h.008a.5.5 0 00.342-.135l5.507-5.127c1.514-1.409 1.484-3.76.121-5.265a.497.497 0 00-.107-.162 3.852 3.852 0 00-5.432 0l-.435.431-.434-.431a3.835 3.835 0 00-2.715-1.121zm0 .993c.726 0 1.45.278 2.01.836l.787.785a.5.5 0 00.705 0l.787-.785a2.834 2.834 0 014.02 0c1.118 1.114 1.153 2.925.012 3.988l-5.172 4.814-5.159-4.802a2.803 2.803 0 010-4 2.838 2.838 0 012.01-.836zm-17.338 8.127a.5.5 0 00-.5.5v10.316a.5.5 0 00.5.5h5.471a.5.5 0 00.5-.5v-.738l9.34 3.164c.013 0 .026.01.039.012 1.087.276 2.342.11 3.291-.528l9.672-5.255h.008l.236-.133a1.837 1.837 0 00.793-2.305c-.307-.725-.91-1.056-1.38-1.125-.472-.069-.858.062-.858.062-.017.01-.033.014-.049.022l-5.332 2.473c.007-.067.022-.133.022-.202 0-1.123-.931-2.037-2.06-2.037h-4.439c-.018-.033-.04-.08-.058-.11a5.079 5.079 0 00-.887-1.167 5.19 5.19 0 00-3.642-1.473h-4.696v-.974a.5.5 0 00-.5-.5h-2.736zm.5 1h4.471v9.316h-4.471zm5.471 1.474h4.695a4.18 4.18 0 013.448 1.787c.074.108.143.22.207.334.078.142.131.228.173.326l.13.303h5.069c.6 0 1.06.458 1.06 1.037 0 .427-.253.783-.624.944l-.03.014c-.124.049-.26.08-.405.08h-6.955v1h6.955c.2 0 .391-.04.576-.094a.427.427 0 00.193-.053l6.979-3.237c.008 0 .173-.054.383-.023.214.031.42.09.605.528a.817.817 0 01-.365 1.043l-.235.132-9.707 5.276c-.014.01-.027.016-.04.025-.66.443-1.684.59-2.485.387h-.002l-9.625-3.26z" color="#000" font-family="sans-serif" font-weight="400" overflow="visible"/>
  </g>
</svg>
