<svg viewBox="0 0 24 24" xmlns="http://www.w3.org/2000/svg" focusable="false">
  <path d="M12 9.403c1.05 0 2.04.41 2.78 1.149a3.939 3.939 0 011.15 2.777 3.958 3.958 0 01-1.16 2.776 3.93 3.93 0 01-5.55 0 3.922 3.922 0 01-1.15-2.776 3.864 3.864 0 011.14-2.767A3.921 3.921 0 0112 9.402zm0 1.498c-.65 0-1.26.25-1.73.72a2.344 2.344 0 00-.7 1.698v.01c0 .649.25 1.258.71 1.718.46.46 1.07.709 1.72.709 1.34 0 2.42-1.089 2.43-2.427 0-.65-.25-1.26-.71-1.719a2.411 2.411 0 00-1.72-.709zm5.61-1.738c.5 0 .91.41.91.91 0 .499-.41.898-.91.898s-.9-.4-.9-.899c0-.5.4-.909.9-.909z"/>
  <path d="M17.44 6.236l-.1-.22c-.27-.569-.58-1.228-.77-1.608C16.11 3.51 15.32 3.01 14.35 3H9.64c-.97.01-1.75.51-2.21 1.408-.2.4-.54 1.12-.82 1.709l-.06.12c-.03.08-.11.12-.19.12A4.361 4.361 0 002 10.71v5.934A4.361 4.361 0 006.36 21h11.28c2.4 0 4.36-1.958 4.36-4.355V10.71a4.368 4.368 0 00-4.36-4.355c-.09 0-.16-.05-.2-.12z" opacity=".4"/>
</svg>
