<svg viewBox="0 0 24 24" xmlns="http://www.w3.org/2000/svg" focusable="false">
  <path d="M12.36 2c5.714 0 10.362 4.648 10.362 10.361 0 5.713-4.648 10.361-10.361 10.361C6.648 22.722 2 18.074 2 12.361 2 6.648 6.648 2 12.36 2zm0 1.5c-4.885 0-8.86 3.976-8.86 8.861 0 4.886 3.975 8.861 8.86 8.861 4.887 0 8.862-3.975 8.862-8.861 0-4.885-3.975-8.861-8.861-8.861zm3.872 4.99a.75.75 0 01.185.754l-1.592 5.089a.75.75 0 01-.492.492l-5.089 1.593a.757.757 0 01-.755-.185.75.75 0 01-.185-.754l1.593-5.09a.746.746 0 01.491-.491l5.09-1.593a.748.748 0 01.754.185zm-1.674 1.674l-3.347 1.048-1.047 3.347 3.346-1.048 1.048-3.347z" fill-rule="evenodd"/>
</svg>
