<svg xmlns="http://www.w3.org/2000/svg" viewBox="0 0 24 24">
  <g fill="#200E32">
    <path d="M16.884 5.115h-2.943a2.43 2.43 0 01-1.894-.887l-.969-1.34A2.367 2.367 0 009.193 2h-2.08C3.378 2 2 4.192 2 7.92v4.028c-.005.443 19.996.443 19.997 0v-1.17c.018-3.728-1.325-5.662-5.113-5.662z" opacity=".4"/>
    <path d="M16.875 5.115a5.22 5.22 0 013.628 1.1c.119.1.229.21.33.328.32.375.566.805.728 1.27a8.54 8.54 0 01.436 2.963v5.253a9.352 9.352 0 01-.098 1.322 5.99 5.99 0 01-.8 2.183 4.438 4.438 0 01-.676.887 6 6 0 01-4.366 1.571H7.931a6.027 6.027 0 01-4.375-1.57 4.437 4.437 0 01-.667-.888 5.831 5.831 0 01-.782-2.183A8.223 8.223 0 012 16.03v-5.253c0-.439.024-.877.071-1.313.027-.204.09-.4.09-.595.09-.526.254-1.037.488-1.517.694-1.482 2.116-2.236 4.446-2.236zm.24 8.776H6.97a.826.826 0 100 1.65h10.083a.828.828 0 00.863-.799.744.744 0 00-.178-.532.783.783 0 00-.622-.32z"/>
  </g>
</svg>
