<svg viewBox="0 0 24 24" xmlns="http://www.w3.org/2000/svg" focusable="false">
  <path d="M12.398 14.127c2.064.013 6.342.206 6.342 3.178 0 2.987-4.432 3.181-6.372 3.194L12 20.5a.695.695 0 01-.692-.696c0-.384.31-.696.692-.696 2.443 0 5.355-.313 5.355-1.803 0-1.186-1.8-1.787-5.355-1.787-2.442 0-5.355.313-5.355 1.804 0 .332.097.76.853 1.132.31.153.703.281 1.167.38.374.08.613.451.533.827a.69.69 0 01-.821.535 6.534 6.534 0 01-1.488-.49c-1.346-.664-1.629-1.663-1.629-2.384 0-2.988 4.433-3.182 6.373-3.195zm6.671-.63c.513.035 1.028.11 1.534.223 1.127.224 1.87.686 2.194 1.368.27.57.27 1.224 0 1.795-.32.677-1.061 1.14-2.205 1.376a.694.694 0 01-.817-.541.696.696 0 01.539-.822c.944-.196 1.177-.493 1.233-.612a.697.697 0 000-.597c-.118-.25-.577-.475-1.229-.605a9.01 9.01 0 00-1.34-.196.694.694 0 01-.645-.741.698.698 0 01.736-.647zm-14.131-.014a.699.699 0 01.737.647.694.694 0 01-.644.742c-.445.03-.892.096-1.328.194-.67.133-1.131.36-1.25.61a.7.7 0 000 .6c.057.12.29.418 1.238.614a.695.695 0 01-.278 1.363c-1.146-.235-1.889-.7-2.21-1.379a2.09 2.09 0 010-1.796c.325-.686 1.07-1.149 2.214-1.375.489-.11 1.007-.185 1.52-.22zM12 3.5c2.518 0 4.567 2.06 4.567 4.593s-2.05 4.592-4.567 4.592a4.518 4.518 0 01-2.81-.964.698.698 0 01-.122-.976.689.689 0 01.972-.122c.56.438 1.239.67 1.96.67 1.755 0 3.183-1.436 3.183-3.2 0-1.765-1.428-3.2-3.183-3.2a3.196 3.196 0 00-3.184 3.2c0 .384-.31.696-.693.696a.695.695 0 01-.692-.696C7.432 5.56 9.482 3.5 12 3.5zm5.682.951c1.989 0 3.607 1.626 3.607 3.627 0 1.999-1.618 3.626-3.607 3.626a.695.695 0 01-.692-.696c0-.384.31-.696.692-.696a2.23 2.23 0 002.222-2.234 2.23 2.23 0 00-2.222-2.235.695.695 0 01-.692-.696c0-.385.31-.696.692-.696zM6.328 4.413c.383 0 .693.311.693.696 0 .384-.31.696-.693.696a2.24 2.24 0 00-2.23 2.242c0 1.237 1 2.242 2.23 2.242.383 0 .693.312.693.696 0 .384-.31.696-.693.696-1.993 0-3.615-1.63-3.615-3.634s1.622-3.634 3.615-3.634z"/>
</svg>
