<svg xmlns="http://www.w3.org/2000/svg" viewBox="0 0 24 24" fill="currentColor" focusable="false">
  <path d="M3.5 13.912v-.204a3.73 3.73 0 01.6-1.84 5.108 5.108 0 001.19-2.356c.044-.667 0-1.351.044-2.027C5.656 4.24 8.868 2 11.946 2h.09c3.13 0 6.262 2.24 6.602 5.485.063.667 0 1.36.054 2.027a5.01 5.01 0 001.19 2.356c.373.544.587 1.182.617 1.84v.204a3.658 3.658 0 01-.894 2.418 4.484 4.484 0 01-2.854 1.396 37.72 37.72 0 01-9.6 0 4.484 4.484 0 01-2.82-1.396 3.603 3.603 0 01-.831-2.418z"/>
  <path d="M13.163 19.095c-.636-.044-1.154 0-1.673 0a6.347 6.347 0 00-1.53.16c-.43.098-.895.33-.895.818.045.473.301.9.698 1.165a3.721 3.721 0 002.684.737 3.118 3.118 0 002.317-1.306.885.885 0 00-.152-1.236 3.328 3.328 0 00-1.45-.338z" opacity=".4"/>
</svg>
