<svg xmlns="http://www.w3.org/2000/svg" viewBox="0 0 32 32" focusable="false" fill="currentColor">
  <path d="M20.04 14.413l-5.627 5.627-2.787-2.8a1.385 1.385 0 00-1.947 0l-5.6 5.627a1.37 1.37 0 00-.001 1.946l3.733 3.747a6.071 6.071 0 004.453 1.667h-.012c3.627 0 8.2-2.32 11.933-6.04 2.667-2.667 4.627-5.76 5.52-8.693.973-3.227.573-5.96-1.147-7.667l-3.747-3.76a1.385 1.385 0 00-1.947 0l-5.613 5.627c-.246.248-.398.59-.398.967s.152.719.398.967zM1.373 16.04a1.37 1.37 0 001.373-1.373c0-3.187 1.24-6.173 3.493-8.427a11.802 11.802 0 018.398-3.493h.031-.002a1.373 1.373 0 000-2.746c-3.92 0-7.6 1.52-10.373 4.293A14.53 14.53 0 000 14.624v.046-.002c0 .76.613 1.373 1.373 1.373zm6.694-1.373a6.614 6.614 0 016.599-6.6h.001a1.373 1.373 0 000-2.746c-5.153.015-9.326 4.192-9.333 9.346v.001a1.373 1.373 0 002.746 0z"/>
</svg>
