<svg xmlns="http://www.w3.org/2000/svg" viewBox="0 0 32 32" focusable="false">
  <path fill="#f2f2f2" d="M15.43 8.146a1.985 2.48 45 01-3.157.35 1.985 2.48 45 01.351-3.157 1.985 2.48 45 013.158-.35 1.985 2.48 45 01-.351 3.157zm9.123 2.105a1.985 2.48 45 01-3.158.35 1.985 2.48 45 01.351-3.157 1.985 2.48 45 013.158-.351 1.985 2.48 45 01-.351 3.158zm2.105 9.121a1.985 2.48 45 01-3.158.351 1.985 2.48 45 01.351-3.157 1.985 2.48 45 013.158-.351 1.985 2.48 45 01-.351 3.157z"/>
  <path fill="#62355c" d="M14.762 4.008c-.852-.078-1.789.28-2.489.98-.982.983-1.29 2.43-.668 3.454-.995.94-1.642 1.306-2.158 1.528-.572.245-1.13.378-1.734.982-.342.342-.497.773-.483 1.148.014.375.15.679.258.932.108.253.19.462.203.583.014.122.024.145-.114.28-.742.722-2.243.841-4.425 3.023a.496.496 0 10.702.701c2.028-2.028 3.318-1.945 4.415-3.013.322-.314.448-.749.409-1.1-.039-.35-.176-.626-.28-.866-.102-.24-.17-.439-.175-.575-.005-.137.006-.227.191-.411.449-.448.767-.49 1.423-.772.596-.255 1.384-.715 2.465-1.736 1.026.642 2.489.341 3.48-.65 1.12-1.12 1.362-2.846.35-3.858-.38-.38-.86-.584-1.37-.63zm-.13.99c.315.023.597.14.798.341.538.538.467 1.639-.35 2.456-.803.803-1.877.883-2.425.376a.496.496 0 00-.004-.004.496.496 0 00-.048-.05c-.511-.547-.433-1.623.372-2.427.51-.51 1.131-.73 1.657-.692zm9.25 1.115c-.85-.078-1.788.28-2.488.98-.982.983-1.288 2.43-.667 3.454-.994.94-1.643 1.308-2.159 1.53-.572.245-1.13.376-1.734.98-.342.342-.495.774-.481 1.15.014.374.147.676.256.93.108.253.192.462.205.583.014.121.022.147-.116.281-.742.723-2.243.84-4.425 3.022a.496.496 0 10.702.701c2.028-2.028 3.32-1.945 4.417-3.014.322-.313.447-.748.409-1.099-.039-.35-.176-.626-.28-.866-.102-.24-.17-.439-.176-.575-.005-.137.005-.227.19-.411.448-.449.769-.49 1.425-.772.595-.255 1.383-.716 2.465-1.738 1.025.642 2.486.343 3.477-.648 1.12-1.12 1.363-2.846.35-3.858a2.18 2.18 0 00-1.37-.63zm-.13.99c.316.023.597.14.8.341.537.538.466 1.639-.352 2.456-.807.807-1.887.883-2.432.366a.496.496 0 00-.039-.04c-.516-.546-.44-1.624.367-2.431.51-.51 1.131-.73 1.657-.692zm2.235 8.132c-.851-.077-1.788.279-2.488.98-.983.982-1.288 2.429-.667 3.453-.995.94-1.643 1.308-2.159 1.53-.572.244-1.128.378-1.733.982-.341.342-.496.772-.482 1.147.013.375.147.68.256.932.108.254.192.46.205.582.013.121.024.147-.114.28-.743.723-2.245.84-4.427 3.022a.496.496 0 10.702.702c2.028-2.028 3.32-1.944 4.417-3.012.322-.313.447-.75.409-1.1-.039-.351-.177-.625-.28-.865-.103-.24-.17-.441-.176-.578-.005-.136.007-.224.192-.409.448-.448.767-.49 1.423-.771.595-.255 1.384-.716 2.467-1.738 1.025.641 2.484.34 3.475-.65 1.12-1.12 1.363-2.847.35-3.859a2.183 2.183 0 00-1.37-.628zm-.128.989c.316.023.595.14.797.341.538.538.466 1.639-.35 2.456-.802.8-1.871.882-2.42.378a.496.496 0 00-.002-.002.496.496 0 00-.06-.06c-.504-.55-.425-1.62.376-2.421.511-.511 1.134-.73 1.66-.692z" color="#000" />
</svg>
