<svg xmlns="http://www.w3.org/2000/svg" viewBox="0 0 32 32" focusable="false">
  <path fill="#37b678" d="M29.5 27.5h-15v-12h16v11a1 1 0 01-1 1z"/>
  <path fill="#2c2b2d" d="M29.5 28h-15a.5.5 0 01-.5-.5v-12a.5.5 0 01.5-.5h16a.5.5 0 01.5.5v11a1.502 1.502 0 01-1.5 1.5zM15 27h14.5a.5.5 0 00.5-.5V16H15z"/>
  <path fill="#37b678" d="M30.5 15.5h-17v-3h17a1 1 0 011 1v1a1 1 0 01-1 1z"/>
  <path fill="#2c2b2d" d="M30.5 16h-17a.5.5 0 01-.5-.5v-3a.5.5 0 01.5-.5h17a1.502 1.502 0 011.5 1.5v1a1.502 1.502 0 01-1.5 1.5zM14 15h16.5a.5.5 0 00.5-.5v-1a.5.5 0 00-.5-.5H14z"/>
  <path fill="#37b678" d="M15.375 27.5H1.625a1 1 0 01-.994-1.117l1.765-15a1 1 0 01.993-.883h10.222a1 1 0 01.993.883l1.765 15a1 1 0 01-.994 1.117z"/>
  <path fill="#2c2b2d" d="M15.375 28H1.625a1.5 1.5 0 01-1.49-1.675l1.765-15A1.498 1.498 0 013.39 10h10.22a1.5 1.5 0 011.49 1.326l1.764 14.999A1.5 1.5 0 0115.375 28zM3.39 11a.499.499 0 00-.496.44L1.128 26.443a.5.5 0 00.497.558h13.75a.5.5 0 00.497-.558l-1.765-15A.5.5 0 0013.61 11z"/>
  <path fill="#2c2b2d" d="M10.5 13a.5.5 0 01-.5-.5v-6a1.5 1.5 0 00-3 0v6a.5.5 0 01-1 0v-6a2.5 2.5 0 015 0v6a.5.5 0 01-.5.5z"/>
  <circle cx="6.5" cy="13.5" r="1" fill="#e0e0e2"/>
  <path fill="#2c2b2d" d="M6.5 15A1.5 1.5 0 118 13.5 1.502 1.502 0 016.5 15zm0-2a.5.5 0 10.5.5.5.5 0 00-.5-.5z"/>
  <circle cx="10.5" cy="13.5" r="1" fill="#e0e0e2"/>
  <path fill="#2c2b2d" d="M10.5 15a1.5 1.5 0 111.5-1.5 1.502 1.502 0 01-1.5 1.5zm0-2a.5.5 0 10.5.5.5.5 0 00-.5-.5z"/>
  <path fill="#e0e0e2" d="M21.5 15.5h3v12h-3z"/>
  <path fill="#2c2b2d" d="M24.5 28h-3a.5.5 0 01-.5-.5v-12a.5.5 0 01.5-.5h3a.5.5 0 01.5.5v12a.5.5 0 01-.5.5zM22 27h2V16h-2z"/>
  <path fill="#e0e0e2" d="M21.5 12.5h3v3h-3z"/>
  <path fill="#2c2b2d" d="M24.5 16h-3a.5.5 0 01-.5-.5v-3a.5.5 0 01.5-.5h3a.5.5 0 01.5.5v3a.5.5 0 01-.5.5zM22 15h2v-2h-2z"/>
  <path fill="#2c2b2d" d="M23 13h-2.5a3 3 0 113-3v2.5a.5.5 0 01-.5.5zm-2.5-5a2 2 0 000 4h2v-2a2.002 2.002 0 00-2-2z"/>
  <path fill="#2c2b2d" d="M25.5 13H23a.5.5 0 01-.5-.5V10a3 3 0 113 3zm-2-1h2a2 2 0 10-2-2z"/>
  <path fill="#e0e0e2" d="M7.395 20l.786-1.634.759 1.649 1.725.279-1.261 1.266.279 1.806-1.537-.866-1.553.837.311-1.801-1.239-1.289L7.395 20z"/>
  <path fill="#2c2b2d" d="M9.684 23.866a.5.5 0 01-.246-.064l-1.297-.731-1.31.706a.5.5 0 01-.731-.526l.268-1.55-1.063-1.108a.5.5 0 01.29-.842l1.465-.209.671-1.393a.469.469 0 01.455-.283.5.5 0 01.45.291l.646 1.407 1.463.237a.5.5 0 01.275.847l-1.082 1.086.24 1.556a.5.5 0 01-.494.576zM8.146 22a.497.497 0 01.245.064l.641.361-.122-.789a.5.5 0 01.14-.429l.573-.575-.764-.124a.5.5 0 01-.374-.284l-.314-.684-.326.677a.5.5 0 01-.38.278l-.763.109.563.585a.503.503 0 01.132.433l-.136.787.647-.349a.498.498 0 01.238-.06zm-.751-2z"/>
</svg>
