<svg xmlns="http://www.w3.org/2000/svg" viewBox="0 0 48 48">
  <style>
    .st1{fill:#ffc258}.st2{fill:#4f4b45}.st3{fill:#fabfa5}.st10{fill:none;stroke:#45413c;stroke-linecap:round;stroke-linejoin:round;stroke-miterlimit:10}.st17{fill:#fff}.st41,.st82{fill:#f0f0f0}.st82{stroke:#45413c;stroke-linecap:round;stroke-linejoin:round;stroke-miterlimit:10}
  </style>
  <symbol id="New_Symbol_14" viewBox="-6.5 -6.5 13 13">
    <path d="M0-6c2.2 0 4.1 1.5 4.7 3.5C6.3-2.5 6.4 0 5 0v1c0 2.8-2.2 5-5 5s-5-2.2-5-5V0c-1.4 0-1.3-2.5.2-2.5C-4.1-4.5-2.2-6 0-6z" fill="#ffd4c3" stroke="#504b46" stroke-linecap="round" stroke-linejoin="round" stroke-miterlimit="10"/>
    <circle class="st1" cx="-1.6" cy="-.1" r=".1" fill="#FFC258"/>
    <path class="st2" d="M-1.6.5c-.3 0-.6-.3-.6-.6s.2-.7.6-.7c.3 0 .6.3.6.7s-.3.6-.6.6z" fill="#4F4B45"/>
    <circle class="st1" cx="1.6" cy="-.1" r=".1" fill="#FFC258"/>
    <path class="st2" d="M1.6.5C1.3.5 1 .2 1-.1s.3-.6.6-.6.6.3.6.6-.2.6-.6.6z" fill="#4F4B45"/>
    <circle class="st3" cx="-3" cy="-1.5" r=".5" fill="#FABFA5"/>
    <circle class="st3" cx="3" cy="-1.5" r=".5" fill="#FABFA5"/>
    <path d="M-1.2-3c.8-.5 1.7-.5 2.5 0" fill="none" stroke="#504b46" stroke-linecap="round" stroke-linejoin="round" stroke-miterlimit="10"/>
  </symbol>
  <g id="Icons">
    <g id="XMLID_1896_">
      <ellipse id="XMLID_1853_" cx="25" cy="44.5" rx="19.7" ry="2" fill="#45413c" opacity=".15"/>
      <path id="XMLID_1839_" d="M44 4.7c-.2-.8-.9-1.5-1.7-1.7C31.2-.4 19.2 1.9 11 10 2.9 18.2.6 30.2 4 41.2c.2.8.9 1.5 1.7 1.7 11.1 3.4 23.1 1.2 31.2-7 8.2-8.1 10.5-20.1 7.1-31.2z" fill="#bf8256"/>
      <path id="XMLID_1838_" d="M11 17.1c8.2-8.2 20.2-10.4 31.2-7 .8.2 1.5.9 1.7 1.7.7 2.1 1.1 4.3 1.3 6.4.5-4.5 0-9.1-1.3-13.6-.2-.8-.9-1.5-1.7-1.7-11-3.3-23-1-31.2 7.1-6.6 6.6-9.3 15.7-8.3 24.8.7-6.6 3.5-12.8 8.3-17.7z" fill="#dea47a"/>
      <path id="XMLID_1837_" class="st10" d="M44 4.7c-.2-.8-.9-1.5-1.7-1.7C31.2-.4 19.2 1.9 11 10 2.9 18.2.6 30.2 4 41.2c.2.8.9 1.5 1.7 1.7 11.1 3.4 23.1 1.2 31.2-7 8.2-8.1 10.5-20.1 7.1-31.2z" fill="none" stroke="#45413C" stroke-linecap="round" stroke-linejoin="round" stroke-miterlimit="10"/>
      <path id="XMLID_1836_" d="M44 4.9v-.2c-.2-.8-.9-1.5-1.7-1.7h-.2L4 41.1v.2c.3.8.9 1.5 1.7 1.7h.2L44 4.9z" fill="#915e3a" stroke="#45413c" stroke-linecap="round" stroke-linejoin="round" stroke-miterlimit="10"/>
      <path id="XMLID_1835_" d="M16.8 31.2l-1-1c-.5-.5-.5-1.4 0-1.9l13.5-13.5c.5-.5 1.4-.5 1.9 0l1 1c.5.5.5 1.4 0 1.9L18.7 31.2c-.5.5-1.4.5-1.9 0z" fill="#e0e0e0" stroke="#45413c" stroke-linecap="round" stroke-linejoin="round" stroke-miterlimit="10"/>
      <path id="XMLID_1834_" class="st82" d="M25 25.9L21.1 22c-.5-.5-.5-1.4 0-1.9s1.4-.5 1.9 0l3.8 3.8c.5.5.5 1.4 0 1.9-.4.6-1.3.6-1.8.1z" fill="#F0F0F0" stroke="#45413C" stroke-linecap="round" stroke-linejoin="round" stroke-miterlimit="10"/>
      <path id="XMLID_1833_" class="st82" d="M20.6 30.2l-3.8-3.8c-.5-.5-.5-1.4 0-1.9s1.4-.5 1.9 0l3.8 3.8c.5.5.5 1.4 0 1.9s-1.3.5-1.9 0z" fill="#F0F0F0" stroke="#45413C" stroke-linecap="round" stroke-linejoin="round" stroke-miterlimit="10"/>
      <path id="XMLID_1832_" class="st82" d="M29.3 21.5l-3.8-3.8c-.5-.5-.5-1.4 0-1.9s1.4-.5 1.9 0l3.8 3.8c.5.5.5 1.4 0 1.9-.5.6-1.4.6-1.9 0z" fill="#F0F0F0" stroke="#45413C" stroke-linecap="round" stroke-linejoin="round" stroke-miterlimit="10"/>
      <path id="XMLID_1831_" class="st82" d="M45.5 14.7l-5.6-5.6-4.8 4.8 9.3 9.3c.7-2.8 1.1-5.6 1.1-8.5z" fill="#F0F0F0" stroke="#45413C" stroke-linecap="round" stroke-linejoin="round" stroke-miterlimit="10"/>
      <path id="XMLID_1830_" class="st82" d="M14.9 34l-4.8 4.8 5.6 5.6c2.9 0 5.7-.4 8.5-1.1L14.9 34z" fill="#F0F0F0" stroke="#45413C" stroke-linecap="round" stroke-linejoin="round" stroke-miterlimit="10"/>
      <path id="XMLID_1829_" class="st41" d="M2.5 31.3l5.6 5.6 4.8-4.8-9.3-9.3c-.7 2.7-1.1 5.6-1.1 8.5z" fill="#F0F0F0"/>
      <path id="XMLID_1828_" class="st17" d="M5.6 24.8c-1.1 2.3-1.9 4.7-2.4 7.2l-.7-.7c0-2.8.2-5.2 1.1-8.5l2 2z" fill="#FFF"/>
      <path id="XMLID_1827_" class="st41" d="M37.9 7.1l-4.8 4.8-9.3-9.3c2.7-.8 5.6-1.1 8.5-1.1l5.6 5.6z" fill="#F0F0F0"/>
      <path id="XMLID_1826_" class="st41" d="M37.9 7.1l-4.8 4.8-9.3-9.3c2.7-.8 5.6-1.1 8.5-1.1l5.6 5.6z" fill="#F0F0F0"/>
      <path id="XMLID_1825_" class="st17" d="M37.9 7.1l-1.7 1.7c-2.1-.2-4.2-.3-6.3-.2l-6.1-6.1c2.3-.6 5.3-1.1 8.5-1.1l5.6 5.7z" fill="#FFF"/>
      <path id="XMLID_1824_" class="st10" d="M37.9 7.1l-4.8 4.8-9.3-9.3c2.7-.8 5.6-1.1 8.5-1.1l5.6 5.6z" fill="none" stroke="#45413C" stroke-linecap="round" stroke-linejoin="round" stroke-miterlimit="10"/>
      <path id="XMLID_1823_" class="st10" d="M2.5 31.3l5.6 5.6 4.8-4.8-9.3-9.3c-.7 2.7-1.1 5.6-1.1 8.5z" fill="none" stroke="#45413C" stroke-linecap="round" stroke-linejoin="round" stroke-miterlimit="10"/>
    </g>
  </g>
</svg>
