<svg xmlns="http://www.w3.org/2000/svg" viewBox="0 0 48 48" focusable="false">
  <ellipse cx="25" cy="44.5" rx="19.7" ry="2" fill="#45413c" opacity=".15"/>
  <path d="M44 4.7c-.2-.8-.9-1.5-1.7-1.7C31.2-.4 19.2 1.9 11 10 2.9 18.2.6 30.2 4 41.2c.2.8.9 1.5 1.7 1.7 11.1 3.4 23.1 1.2 31.2-7 8.2-8.1 10.5-20.1 7.1-31.2z" fill="#bf8256"/>
  <path d="M11 17.1c8.2-8.2 20.2-10.4 31.2-7 .8.2 1.5.9 1.7 1.7.7 2.1 1.1 4.3 1.3 6.4.5-4.5 0-9.1-1.3-13.6-.2-.8-.9-1.5-1.7-1.7-11-3.3-23-1-31.2 7.1-6.6 6.6-9.3 15.7-8.3 24.8.7-6.6 3.5-12.8 8.3-17.7z" fill="#dea47a"/>
  <path d="M44 4.7c-.2-.8-.9-1.5-1.7-1.7C31.2-.4 19.2 1.9 11 10 2.9 18.2.6 30.2 4 41.2c.2.8.9 1.5 1.7 1.7 11.1 3.4 23.1 1.2 31.2-7 8.2-8.1 10.5-20.1 7.1-31.2z" fill="none" stroke="#45413C" stroke-linecap="round" stroke-linejoin="round" stroke-miterlimit="10"/>
  <path d="M44 4.9v-.2c-.2-.8-.9-1.5-1.7-1.7h-.2L4 41.1v.2c.3.8.9 1.5 1.7 1.7h.2L44 4.9z" fill="#915e3a" stroke="#45413c" stroke-linecap="round" stroke-linejoin="round" stroke-miterlimit="10"/>
  <path d="M16.8 31.2l-1-1c-.5-.5-.5-1.4 0-1.9l13.5-13.5c.5-.5 1.4-.5 1.9 0l1 1c.5.5.5 1.4 0 1.9L18.7 31.2c-.5.5-1.4.5-1.9 0z" fill="#e0e0e0" stroke="#45413c" stroke-linecap="round" stroke-linejoin="round" stroke-miterlimit="10"/>
  <path d="M25 25.9L21.1 22c-.5-.5-.5-1.4 0-1.9s1.4-.5 1.9 0l3.8 3.8c.5.5.5 1.4 0 1.9-.4.6-1.3.6-1.8.1zm-4.4 4.3l-3.8-3.8c-.5-.5-.5-1.4 0-1.9s1.4-.5 1.9 0l3.8 3.8c.5.5.5 1.4 0 1.9s-1.3.5-1.9 0zm8.7-8.7l-3.8-3.8c-.5-.5-.5-1.4 0-1.9s1.4-.5 1.9 0l3.8 3.8c.5.5.5 1.4 0 1.9-.5.6-1.4.6-1.9 0zm16.2-6.8l-5.6-5.6-4.8 4.8 9.3 9.3c.7-2.8 1.1-5.6 1.1-8.5zM14.9 34l-4.8 4.8 5.6 5.6c2.9 0 5.7-.4 8.5-1.1L14.9 34z" fill="#F0F0F0" stroke="#45413C" stroke-linecap="round" stroke-linejoin="round" stroke-miterlimit="10"/>
  <path d="M2.5 31.3l5.6 5.6 4.8-4.8-9.3-9.3c-.7 2.7-1.1 5.6-1.1 8.5z" fill="#F0F0F0"/>
  <path d="M5.6 24.8c-1.1 2.3-1.9 4.7-2.4 7.2l-.7-.7c0-2.8.2-5.2 1.1-8.5l2 2z" fill="#FFF"/>
  <path d="M37.9 7.1l-4.8 4.8-9.3-9.3c2.7-.8 5.6-1.1 8.5-1.1l5.6 5.6z" fill="#F0F0F0"/>
  <path d="M37.9 7.1l-4.8 4.8-9.3-9.3c2.7-.8 5.6-1.1 8.5-1.1l5.6 5.6z" fill="#F0F0F0"/>
  <path d="M37.9 7.1l-1.7 1.7c-2.1-.2-4.2-.3-6.3-.2l-6.1-6.1c2.3-.6 5.3-1.1 8.5-1.1l5.6 5.7z" fill="#FFF"/>
  <path d="M37.9 7.1l-4.8 4.8-9.3-9.3c2.7-.8 5.6-1.1 8.5-1.1l5.6 5.6zM2.5 31.3l5.6 5.6 4.8-4.8-9.3-9.3c-.7 2.7-1.1 5.6-1.1 8.5z" fill="none" stroke="#45413C" stroke-linecap="round" stroke-linejoin="round" stroke-miterlimit="10"/>
</svg>
