<svg viewBox="0 0 24 24" xmlns="http://www.w3.org/2000/svg" focusable="false">
  <path d="M16.333 22H7.666C4.276 22 2 19.623 2 16.084V7.917C2 4.378 4.277 2 7.666 2h8.668C19.724 2 22 4.378 22 7.917v8.167C22 19.623 19.723 22 16.333 22" opacity=".4"/>
  <path d="M15.428 13.09c.222-.291 1.046-1.201 2.111-.553.68.408 1.25.96 1.861 1.55.233.227.4.485.51.76.333.832.16 1.832-.196 2.656a3.638 3.638 0 01-2.248 2.046 4.578 4.578 0 01-1.399.207h-8.38c-.835 0-1.573-.194-2.178-.558-.379-.228-.446-.753-.165-1.095.47-.57.934-1.142 1.402-1.72.892-1.103 1.493-1.423 2.161-1.142.271.116.543.29.823.475.746.494 1.783 1.172 3.15.436.94-.514 1.482-1.396 1.956-2.16.194-.311.378-.621.592-.902zM8.76 6.189a2.489 2.489 0 012.485 2.486A2.488 2.488 0 018.76 11.16a2.487 2.487 0 01-2.485-2.485A2.488 2.488 0 018.76 6.189z"/>
</svg>
