<svg xmlns="http://www.w3.org/2000/svg" viewBox="0 0 48 48">
  <path d="M25.7 19.6c0 1.5.3 3 .9 4.5 1 2.5 3.2 4.3 5.9 4.7l6 .9c1.2.2 2.4 0 3.6-.5 2.2-1 3.7-3.1 3.7-5.5v-7.5h.5c.5 0 1-.4 1-.9v-1.9c0-.5-.4-.9-1-.9h-1.9l-12.9.8c-1.8.1-3.4.8-4.7 2.1-.6.6-1.5.9-2.4.9h-.7c-.9 0-1.7-.3-2.4-.9-1.3-1.2-2.9-2-4.7-2.1l-12.9-.9H1.8c-.5 0-1 .4-1 .9v1.9c0 .5.4.9 1 .9h.5v7.5c0 2.4 1.4 4.5 3.7 5.5 1.1.5 2.4.7 3.6.5l6-.9c2.7-.4 5-2.2 5.9-4.7.6-1.4.9-2.9.9-4.5 0-.3.2-.5.5-.5h2.3c.3.1.5.3.5.6z" fill="#87898c"/>
  <path d="M46.2 12.4h-1.9l-12.9.8c-1.8.1-3.4.8-4.7 2.1-.6.6-1.5.9-2.4.9h-.7c-.9 0-1.7-.3-2.4-.9-1.3-1.2-2.9-2-4.7-2.1l-12.8-.8H1.8c-.5 0-1 .4-1 .9v2c.1-.5.5-.8 1-.8h1.9l12.9.8c1.8.1 3.4.8 4.7 2.1.6.6 1.5.9 2.4.9h.7c.9 0 1.7-.3 2.4-.9 1.3-1.2 2.9-2 4.7-2.1l12.9-.8h1.9c.5 0 .9.4 1 .8v-2c-.1-.5-.6-.9-1.1-.9z" fill="#bdbec0"/>
  <path class="st10" d="M25.7 19.6c0 1.5.3 3 .9 4.5 1 2.5 3.2 4.3 5.9 4.7l6 .9c1.2.2 2.4 0 3.6-.5 2.2-1 3.7-3.1 3.7-5.5v-7.5h.5c.5 0 1-.4 1-.9v-1.9c0-.5-.4-.9-1-.9h-1.9l-12.9.8c-1.8.1-3.4.8-4.7 2.1-.6.6-1.5.9-2.4.9h-.7c-.9 0-1.7-.3-2.4-.9-1.3-1.2-2.9-2-4.7-2.1l-12.9-.9H1.8c-.5 0-1 .4-1 .9v1.9c0 .5.4.9 1 .9h.5v7.5c0 2.4 1.4 4.5 3.7 5.5 1.1.5 2.4.7 3.6.5l6-.9c2.7-.4 5-2.2 5.9-4.7.6-1.4.9-2.9.9-4.5 0-.3.2-.5.5-.5h2.3c.3.1.5.3.5.6z" fill="none" stroke="#45413C" stroke-linecap="round" stroke-linejoin="round" stroke-miterlimit="10"/>
  <ellipse cx="23.4" cy="34.1" rx="11.2" ry="1.5" fill="#45413c" opacity=".15"/>
  <path class="st35" d="M14.2 26.8l-4.6.6c-2.4.3-4.5-1.4-4.7-3.8l-.3-4.4c-.2-2.3 1.8-4.3 4.1-4.1l7.8.5c1.9.1 3.3 1.7 3.2 3.6l-.1 1.7c-.1 3-2.4 5.5-5.4 5.9z" fill="#00B8F0"/>
  <path class="st36" d="M16.5 15.6l-7.8-.5c-2.3-.1-4.3 1.8-4.1 4.1l.3 4.4c.2 2.4 2.3 4.1 4.7 3.8h.3l6.9-11.7c-.1 0-.2-.1-.3-.1z" fill="#4ACFFF"/>
  <path class="st35" d="M33.8 26.8l4.6.6c2.4.3 4.5-1.4 4.7-3.8l.3-4.4c.2-2.3-1.8-4.3-4.1-4.1l-7.8.5c-1.9.1-3.3 1.7-3.2 3.6l.1 1.7c.1 3 2.4 5.5 5.4 5.9z" fill="#00B8F0"/>
  <path class="st36" d="M39.3 15.1l-7.8.5c-1.9.1-3.3 1.7-3.2 3.6l.1 1.7c.1 3 2.4 5.5 5.4 5.9l2.1.3 6.4-10.8c-.8-.8-1.8-1.2-3-1.2z" fill="#4ACFFF"/>
  <path class="st10" d="M14.2 26.8l-4.6.6c-2.4.3-4.5-1.4-4.7-3.8l-.3-4.4c-.2-2.3 1.8-4.3 4.1-4.1l7.8.5c1.9.1 3.3 1.7 3.2 3.6l-.1 1.7c-.1 3-2.4 5.5-5.4 5.9zm19.6 0l4.6.6c2.4.3 4.5-1.4 4.7-3.8l.3-4.4c.2-2.3-1.8-4.3-4.1-4.1l-7.8.5c-1.9.1-3.3 1.7-3.2 3.6l.1 1.7c.1 3 2.4 5.5 5.4 5.9z" fill="none" stroke="#45413C" stroke-linecap="round" stroke-linejoin="round" stroke-miterlimit="10"/>
</svg>
