<?xml version="1.0" encoding="UTF-8"?>
<svg width="24px" height="24px" viewBox="0 0 24 24" version="1.1" xmlns="http://www.w3.org/2000/svg" xmlns:xlink="http://www.w3.org/1999/xlink">
    <title>Icons/24/TransactionIn</title>
    <g id="Icons/24/TransactionIn" stroke="none" stroke-width="1" fill="none" fill-rule="evenodd">
        <rect id="Container" fill-opacity="0" fill="#D8D8D8" fill-rule="nonzero" x="0" y="0" width="24" height="24"></rect>
        <path d="M18.7075416,6.70457241 L8.40914483,17.0029692 L15.8833136,17.0029692 C16.4347784,17.0029692 16.881829,17.4500198 16.881829,18.0014846 C16.881829,18.5529494 16.4347784,19 15.8833136,19 L5.9985154,19 C5.44705057,19 5,18.5529494 5,18.0014846 L5,8.11668644 C5,7.56522161 5.44705057,7.11817103 5.9985154,7.11817103 C6.54998023,7.11817103 6.9970308,7.56522161 6.9970308,8.11668644 L6.9970308,15.5908552 L17.2954276,5.29245839 C17.6853721,4.90251387 18.3175971,4.90251387 18.7075416,5.29245839 C19.0974861,5.68240291 19.0974861,6.31462789 18.7075416,6.70457241 Z" id="Path" fill="#BD272D"></path>
    </g>
</svg>