<svg viewBox="0 0 24 24" xmlns="http://www.w3.org/2000/svg" focusable="false">
  <path d="M13.252 2c.258 0 .456.21.456.46v3.22c0 1.83 1.495 3.33 3.307 3.34.752 0 1.346.01 1.802.01.307 0 .812-.01 1.237-.01.248 0 .446.2.446.45v8.04c0 2.48-1.99 4.49-4.455 4.49H8.173C5.6 22 3.5 19.89 3.5 17.29V6.51C3.5 4.03 5.5 2 7.965 2zm-1.435 7.77a.743.743 0 00-.743.74v1.73H9.371a.745.745 0 000 1.49h1.703v1.73c0 .41.337.74.743.74.406 0 .733-.33.733-.74v-1.73h1.712a.745.745 0 000-1.49H12.55v-1.73c0-.41-.327-.74-.733-.74zm3.333-6.864c0-.43.517-.645.813-.334 1.07 1.124 2.941 3.09 3.987 4.187a.477.477 0 01-.34.807c-.814.003-1.773 0-2.463-.007-1.095 0-1.997-.91-1.997-2.017z"/>
</svg>
