<svg xmlns="http://www.w3.org/2000/svg" viewBox="0 0 32 32" focusable="false">
  <circle cx="7.087" cy="2.163" r="1.5" fill="#f7991d"/>
  <path fill="#2c2b2d" d="M7.086 4.164a2 2 0 112-2 2.002 2.002 0 01-2 2zm0-3a1 1 0 101 1 1.001 1.001 0 00-1-1z"/>
  <circle cx="10.245" cy="2.453" r="1.5" fill="#f7991d"/>
  <path fill="#2c2b2d" d="M10.246 4.453a2 2 0 112-2 2.002 2.002 0 01-2 2zm0-3a1 1 0 101 1 1.001 1.001 0 00-1-1z"/>
  <circle cx="12.551" cy="4.39" r="1.5" fill="#f7991d"/>
  <path fill="#2c2b2d" d="M12.551 6.39a2 2 0 112-2 2.002 2.002 0 01-2 2zm0-3a1 1 0 101 1 1.001 1.001 0 00-1-1z"/>
  <circle cx="14.051" cy="7.145" r="1.5" fill="#f7991d"/>
  <path fill="#2c2b2d" d="M14.051 9.145a2 2 0 112-2 2.002 2.002 0 01-2 2zm0-3a1 1 0 101 1 1.001 1.001 0 00-1-1z"/>
  <circle cx="15.874" cy="9.645" r="1.5" fill="#f7991d"/>
  <path fill="#2c2b2d" d="M15.874 11.645a2 2 0 112-2 2.002 2.002 0 01-2 2zm0-3a1 1 0 101 1 1.001 1.001 0 00-1-1z"/>
  <circle cx="17.983" cy="11.9" r="1.5" fill="#f7991d"/>
  <path fill="#2c2b2d" d="M17.982 13.9a2 2 0 112-2 2.002 2.002 0 01-2 2zm0-3a1 1 0 101 1 1.001 1.001 0 00-1-1z"/>
  <circle cx="20.604" cy="13.4" r="1.5" fill="#f7991d"/>
  <path fill="#2c2b2d" d="M20.604 15.4a2 2 0 112-2 2.002 2.002 0 01-2 2zm0-3a1 1 0 101 1 1.001 1.001 0 00-1-1z"/>
  <circle cx="23.15" cy="15.097" r="1.5" fill="#f7991d"/>
  <path fill="#2c2b2d" d="M23.15 17.097a2 2 0 112-2 2.002 2.002 0 01-2 2zm0-3a1 1 0 101 1 1.001 1.001 0 00-1-1z"/>
  <circle cx="25.256" cy="17.233" r="1.5" fill="#f7991d"/>
  <path fill="#2c2b2d" d="M25.256 19.233a2 2 0 112-2 2.002 2.002 0 01-2 2zm0-3a1 1 0 101 1 1.001 1.001 0 00-1-1z"/>
  <circle cx="26.686" cy="20.046" r="1.5" fill="#f7991d"/>
  <path fill="#2c2b2d" d="M26.686 22.046a2 2 0 112-2 2.002 2.002 0 01-2 2zm0-3a1 1 0 101 1 1.001 1.001 0 00-1-1z"/>
  <circle cx="25.246" cy="22.754" r="1.5" fill="#f7991d"/>
  <path fill="#2c2b2d" d="M25.246 24.754a2 2 0 112-2 2.002 2.002 0 01-2 2zm0-3a1 1 0 101 1 1.001 1.001 0 00-1-1z"/>
  <circle cx="22.94" cy="24.691" r="1.5" fill="#f7991d"/>
  <path fill="#2c2b2d" d="M22.94 26.69a2 2 0 112-2 2.002 2.002 0 01-2 2zm0-3a1 1 0 101 1 1.001 1.001 0 00-1-1z"/>
  <circle cx="20.05" cy="25.46" r="1.5" fill="#f7991d"/>
  <path fill="#2c2b2d" d="M20.05 27.46a2 2 0 112-2 2.002 2.002 0 01-2 2zm0-3a1 1 0 101 1 1.001 1.001 0 00-1-1z"/>
  <circle cx="17.104" cy="24.636" r="1.5" fill="#f7991d"/>
  <path fill="#2c2b2d" d="M17.104 26.636a2 2 0 112-2 2.002 2.002 0 01-2 2zm0-3a1 1 0 101 1 1 1 0 00-1-1z"/>
  <circle cx="14.983" cy="22.515" r="1.5" fill="#f7991d"/>
  <path fill="#2c2b2d" d="M14.983 24.515a2 2 0 112-2 2.002 2.002 0 01-2 2zm0-3a1 1 0 101 1 1.001 1.001 0 00-1-1z"/>
  <circle cx="12.934" cy="20.046" r="1.5" fill="#f7991d"/>
  <path fill="#2c2b2d" d="M12.934 22.046a2 2 0 112-2 2.002 2.002 0 01-2 2zm0-3a1 1 0 101 1 1.001 1.001 0 00-1-1z"/>
  <circle cx="11.434" cy="17.233" r="1.5" fill="#f7991d"/>
  <path fill="#2c2b2d" d="M11.434 19.233a2 2 0 112-2 2.002 2.002 0 01-2 2zm0-3a1 1 0 101 1 1.001 1.001 0 00-1-1z"/>
  <circle cx="9.334" cy="14.645" r="1.5" fill="#f7991d"/>
  <path fill="#2c2b2d" d="M9.334 16.645a2 2 0 112-2 2.002 2.002 0 01-2 2zm0-3a1 1 0 101 1 1.001 1.001 0 00-1-1z"/>
  <circle cx="7.087" cy="12.535" r="1.5" fill="#f7991d"/>
  <path fill="#2c2b2d" d="M7.086 14.535a2 2 0 112-2 2.002 2.002 0 01-2 2zm0-3a1 1 0 101 1 1.001 1.001 0 00-1-1z"/>
  <circle cx="4.442" cy="11.035" r="1.5" fill="#f7991d"/>
  <path fill="#2c2b2d" d="M4.442 13.035a2 2 0 112-2 2.002 2.002 0 01-2 2zm0-3a1 1 0 101 1 1.001 1.001 0 00-1-1z"/>
  <circle cx="2.488" cy="8.576" r="1.5" fill="#f7991d"/>
  <path fill="#2c2b2d" d="M2.488 10.577a2 2 0 112-2 2.002 2.002 0 01-2 2zm0-3a1 1 0 101 1 1.001 1.001 0 00-1-1z"/>
  <circle cx="2.021" cy="5.453" r="1.5" fill="#f7991d"/>
  <path fill="#2c2b2d" d="M2.02 7.453a2 2 0 112-2 2.002 2.002 0 01-2 2zm0-3a1 1 0 101 1 1.001 1.001 0 00-1-1z"/>
  <circle cx="4.075" cy="2.89" r="1.5" fill="#f7991d"/>
  <path fill="#2c2b2d" d="M4.075 4.89a2 2 0 112-2 2.002 2.002 0 01-2 2zm0-3a1 1 0 101 1 1.001 1.001 0 00-1-1zm22.182 24.724a.498.498 0 01-.354-.146l-1.67-1.67a.5.5 0 01.707-.708l1.67 1.67a.5.5 0 01-.353.854z"/>
  <path fill="#e5303e" d="M26.257 26.114a8.036 8.036 0 012.861.518 9.21 9.21 0 011.972 1.23.997.997 0 01.095 1.498l-1.682 1.682a.997.997 0 01-1.498-.094 9.21 9.21 0 01-1.23-1.973 8.036 8.036 0 01-.518-2.861"/>
  <path fill="#2c2b2d" d="M28.793 31.837c-.034 0-.067-.002-.102-.004a1.488 1.488 0 01-1.084-.582 9.135 9.135 0 01-1.3-2.099 8.506 8.506 0 01-.55-3.04.518.518 0 01.524-.498 8.493 8.493 0 013.014.55 9.16 9.16 0 012.1 1.3 1.497 1.497 0 01.144 2.249l-1.683 1.683a1.504 1.504 0 01-1.063.44zm-2.02-5.207a7.508 7.508 0 00.47 2.169 8.391 8.391 0 001.16 1.845.481.481 0 00.356.191.494.494 0 00.39-.146l1.683-1.683a.506.506 0 00.146-.39.48.48 0 00-.19-.357A8.414 8.414 0 0028.94 27.1a7.486 7.486 0 00-2.169-.47z"/>
</svg>
