<svg viewBox="0 0 24 24" xmlns="http://www.w3.org/2000/svg" focusable="false">
  <g fill="none" fill-rule="evenodd">
    <path d="M0 0h24v24H0z"/>
    <path d="M13.414 12l2.122 2.121a1 1 0 01-1.415 1.415L12 13.414l-2.121 2.122a1 1 0 11-1.415-1.415L10.586 12 8.464 9.879A1 1 0 019.88 8.464L12 10.586l2.121-2.122a1 1 0 011.415 1.415L13.414 12zM4.93 19.071c-3.905-3.905-3.905-10.237 0-14.142 3.905-3.905 10.237-3.905 14.142 0 3.905 3.905 3.905 10.237 0 14.142-3.905 3.905-10.237 3.905-14.142 0zm1.414-1.414A8 8 0 1017.657 6.343 8 8 0 006.343 17.657z" fill="currentColor" fill-rule="nonzero"/>
  </g>
</svg>
