<svg xmlns="http://www.w3.org/2000/svg" viewBox="0 0 24 24">
  <g fill="#200E32" transform="translate(2 2)">
    <path d="M13.313 2a4.024 4.024 0 003.957 4.759c.245-.001.49-.025.73-.07v7.972C18 18.016 16.021 20 12.662 20H5.346C1.98 20 0 18.016 0 14.661V7.356C0 4.002 1.979 2 5.346 2zm.121 5.994l-.117.008a.73.73 0 00-.487.294l-2.41 3.1-2.743-2.16a.74.74 0 00-1.047.14l-2.954 3.81a.72.72 0 00-.159.457l.003.11a.738.738 0 001.36.32l2.471-3.196 2.744 2.151a.74.74 0 001.055-.131l2.858-3.688V9.19a.754.754 0 00-.14-1.045.73.73 0 00-.551-.144z"/>
    <circle cx="17.5" cy="2.5" r="2.5" opacity=".4"/>
  </g>
</svg>
