<svg data-name="Layer 1" xmlns="http://www.w3.org/2000/svg" viewBox="0 0 24 24" focusable="false">
  <path fill="none" d="M0 0h24v24H0z"/>
  <path d="M20 8.998v8a4.995 4.995 0 01-5 5H9a4.995 4.995 0 01-5-5v-8a5.003 5.003 0 014.55-4.98h.22a1.987 1.987 0 001.99 1.95h2.48a1.987 1.987 0 001.41-.58 1.948 1.948 0 00.58-1.35h.36A4.998 4.998 0 0120 8.998zM9.615 16.75h4.77M8 13.239h8"/>
  <path d="M15.592 4.038A5 5 0 0120 9.003v8a5 5 0 01-5 5H9a5 5 0 01-5-5v-8a5 5 0 014.554-4.98"/>
  <rect x="8.774" y="2.002" width="6.452" height="3.967" rx="1.984"/>
  <path d="M15.23 4.038a1.948 1.948 0 01-.58 1.35 1.987 1.987 0 01-1.41.58h-2.48a1.987 1.987 0 01-1.99-1.95z"/>
  <path d="M15.23 3.988v.05l-6.46-.02v-.03a1.98 1.98 0 011.99-1.99h2.48a1.989 1.989 0 011.99 1.99z"/>
</svg>
