<svg xmlns="http://www.w3.org/2000/svg" viewBox="0 0 32 32" focusable="false" fill="currentColor">
  <path d="M31.488 24.71L19.258 3.528A3.722 3.722 0 0016 1.645c-1.36 0-2.578.703-3.258 1.882L.512 24.711a3.706 3.706 0 000 3.762 3.722 3.722 0 003.258 1.882h24.46c1.36 0 2.579-.703 3.258-1.882a3.706 3.706 0 000-3.762zm-1.62 2.825a1.869 1.869 0 01-1.638.945H3.77a1.869 1.869 0 01-1.637-.945 1.873 1.873 0 010-1.887l12.23-21.183A1.869 1.869 0 0116 3.52c.684 0 1.293.351 1.637.945l12.23 21.183c.34.59.34 1.297 0 1.887zm0 0"/>
  <path d="M15.063 11h1.874v9.375h-1.875zM16 22.25c-.688 0-1.25.559-1.25 1.25 0 .688.563 1.25 1.25 1.25.688 0 1.25-.563 1.25-1.25 0-.691-.563-1.25-1.25-1.25zm0 0"/>
</svg>
