<svg data-name="Layer 1" xmlns="http://www.w3.org/2000/svg" viewBox="0 0 24 24" focusable="false">
  <path fill="none" d="M0 0h24v24H0z"/>
  <path d="M19.996 13.319A2.004 2.004 0 0122 15.323v2.673A2.004 2.004 0 0119.996 20a2.004 2.004 0 01-2.005-2.004v-2.673a2.004 2.004 0 012.005-2.004z"/>
  <rect x="2" y="13.319" width="4.009" height="6.681" rx="2.004"/>
  <path d="M13.692 9h-3.357M2 18.258v-7.592A6.667 6.667 0 018.667 4h6.666A6.667 6.667 0 0122 10.666v7.592"/>
  <path d="M19.996 13.319A2.004 2.004 0 0122 15.323v2.673A2.004 2.004 0 0119.996 20a2.004 2.004 0 01-2.005-2.004v-2.673a2.004 2.004 0 012.005-2.004zm-15.992 0a2.004 2.004 0 012.005 2.004v2.673A2.004 2.004 0 014.004 20 2.004 2.004 0 012 17.996v-2.673a2.004 2.004 0 012.004-2.004z"/>
</svg>
