<svg xmlns="http://www.w3.org/2000/svg" viewBox="0 0 44.139 32.046" focusable="false">
  <path d="M35.791 10.245h-2.76l.832-9.548V.646a.642.642 0 00-.387-.588h-.006l-.044-.016-.016-.006-.037-.01-.026-.006-.033-.005H20.08a.642.642 0 100 1.284h12.442l-1.278 14.659-.322 3.7H8.607l.373-3.853h4.249a.642.642 0 100-1.284H9.1l.788-8.134h6.762a.642.642 0 100-1.284h-6.633l.371-3.824h7.123a.642.642 0 100-1.284H9.8a.642.642 0 00-.627.507v.006c0 .016-.005.032-.008.049s0 .01 0 .015L8.726 5.1H.942a.642.642 0 100 1.284H8.6l-.788 8.134H5.523a.642.642 0 100 1.284H7.69l-.429 4.429-.661 6.858v.127c0 .006 0 .033.008.049s0 .01 0 .014l.009.036c.003.012 0 .017.007.025v.007a.642.642 0 00.153.251l.021.02a.636.636 0 00.149.1l.034.016h.011l.049.018.058.015h.008c.019 0 .037.007.057.008H10.1a4.888 4.888 0 009.692 0h10.3a4.888 4.888 0 009.692 0h2.935l.05-.008h.021l.038-.01.025-.008.031-.012.026-.011.028-.014.026-.014.026-.016.024-.016.026-.019.021-.017.026-.023.018-.017.026-.028.014-.016.027-.036.009-.012.029-.048a.56.56 0 00.027-.055l.006-.016.015-.04c.005-.013 0-.018.007-.027s.006-.021.008-.032 0-.02.005-.029 0-.017 0-.026c.027-.218.53-4.253.755-6.861v-.008c.065-.752.106-1.385.106-1.773a8.358 8.358 0 00-8.348-8.338zm-2.872 1.288h2.627l-.336 3.85h-2.627zM14.942 30.761a3.605 3.605 0 113.605-3.605 3.609 3.609 0 01-3.605 3.605zm19.992 0a3.605 3.605 0 113.605-3.605 3.609 3.609 0 01-3.605 3.605zm7.138-4.248H39.78a4.888 4.888 0 00-9.692 0h-10.3a4.888 4.888 0 00-9.692 0H7.943l.539-5.566h23.029a.631.631 0 00.064 0h.012l.05-.008.021-.005.038-.01.025-.009.032-.012.026-.012.028-.014.026-.015.026-.016.024-.017.025-.019.022-.018.024-.022.019-.019.023-.025.017-.02.021-.027.015-.021.018-.03.013-.023.015-.031.011-.025c0-.01.008-.02.011-.031s.007-.018.009-.028l.008-.03.007-.031c.002-.011 0-.02 0-.031v-.032l.322-3.695h3.327c1.968 0 2.855 1.019 3.794 2.1a5.27 5.27 0 003.116 2.121 261.467 261.467 0 01-.628 5.622zm.734-6.908a4.2 4.2 0 01-2.253-1.683 6.031 6.031 0 00-4.057-2.5l.332-3.814a7.074 7.074 0 016.026 6.987c.001.238-.017.589-.048 1.01z" fill="#2446f5"/>
  <path d="M14.943 24.801a2.355 2.355 0 102.355 2.355 2.357 2.357 0 00-2.355-2.355zm0 3.425a1.07 1.07 0 111.07-1.07 1.071 1.071 0 01-1.07 1.07zm19.991-3.425a2.355 2.355 0 102.355 2.355 2.357 2.357 0 00-2.355-2.355zm0 3.425a1.07 1.07 0 111.07-1.07 1.072 1.072 0 01-1.07 1.07z" fill="#07bc20"/>
  <path d="M6.38 10.246H3.24a.642.642 0 100 1.284h3.139a.642.642 0 100-1.284z" fill="#2446f5"/>
  <path fill="none" stroke="#07bc20" stroke-linecap="round" stroke-width="1.6" d="M16.8 5.65H.8m6 5.1h-4m11 4.45h-9"/>
</svg>
