<svg viewBox="0 0 24 24" xmlns="http://www.w3.org/2000/svg" focusable="false">
  <path d="M13.104 4.177l1.828 3.65c.179.36.524.608.925.665l4.088.589c1.01.145 1.412 1.37.681 2.07l-2.956 2.841c-.29.28-.423.681-.354 1.076l.698 4.01c.172.992-.884 1.749-1.787 1.28l-3.654-1.895a1.248 1.248 0 00-1.146 0l-3.654 1.894c-.903.47-1.959-.287-1.786-1.28l.697-4.01a1.203 1.203 0 00-.354-1.075l-2.956-2.84c-.731-.701-.33-1.926.68-2.071l4.089-.589c.4-.057.747-.306.926-.664l1.827-3.651c.452-.903 1.756-.903 2.208 0z" stroke="#000" stroke-width="1.5" fill="none" stroke-linecap="round" stroke-linejoin="round"/>
</svg>
