<svg viewBox="0 0 24 24" xmlns="http://www.w3.org/2000/svg" focusable="false">
  <path d="M16.334 2C19.724 2 22 4.378 22 7.916v8.168C22 19.622 19.723 22 16.332 22H7.664C4.276 22 2 19.622 2 16.084V7.916C2 4.378 4.276 2 7.664 2h8.67zm0 1.5h-8.67C5.135 3.5 3.5 5.233 3.5 7.916v8.168c0 2.683 1.635 4.416 4.164 4.416h8.668c2.532 0 4.168-1.733 4.168-4.416V7.916c0-2.683-1.636-4.416-4.166-4.416zM8.837 9.398a2.606 2.606 0 012.491 1.85l5.682.001a.75.75 0 01.75.75v1.853a.75.75 0 01-1.5 0V12.75h-1.33v1.103a.75.75 0 01-1.5 0V12.75l-2.102.001a2.607 2.607 0 01-2.492 1.852A2.605 2.605 0 016.235 12a2.605 2.605 0 012.602-2.602zm.002 1.5a1.103 1.103 0 00-.002 2.204c.607 0 1.102-.494 1.102-1.102 0-.607-.494-1.1-1.1-1.102z" fill-rule="evenodd"/>
</svg>
