<svg xmlns="http://www.w3.org/2000/svg" viewBox="0 0 24 24" focusable="false">
  <path fill="none" d="M0 0h24v24H0z"/>
  <circle cx="18.489" cy="5.494" r="3.511"/>
  <circle cx="18.489" cy="18.506" r="3.511"/>
  <path d="M8.65 11.165a.75.75 0 01-.335-1.42l3.88-1.94a.75.75 0 11.67 1.341l-3.88 1.94a.745.745 0 01-.334.08zm3.879 5.08a.745.745 0 01-.334-.079l-3.88-1.94a.75.75 0 11.67-1.341l3.88 1.94a.75.75 0 01-.336 1.42z"/>
  <path d="M9.02 11.986a3.427 3.427 0 01-.37 1.57 3.51 3.51 0 110-3.14 3.428 3.428 0 01.37 1.57z"/>
</svg>
