<svg xmlns="http://www.w3.org/2000/svg" viewBox="0 0 48 48">
  <style>
    .st1{fill:#ffc258}.st2{fill:#4f4b45}.st3{fill:#fabfa5}.st10{fill:none;stroke:#45413c;stroke-linecap:round;stroke-linejoin:round;stroke-miterlimit:10}.st17{fill:#fff}.st81{fill:#e0e0e0;stroke:#45413c;stroke-linecap:round;stroke-linejoin:round;stroke-miterlimit:10}
  </style>
  <symbol id="New_Symbol_14" viewBox="-6.5 -6.5 13 13">
    <path d="M0-6c2.2 0 4.1 1.5 4.7 3.5C6.3-2.5 6.4 0 5 0v1c0 2.8-2.2 5-5 5s-5-2.2-5-5V0c-1.4 0-1.3-2.5.2-2.5C-4.1-4.5-2.2-6 0-6z" fill="#ffd4c3" stroke="#504b46" stroke-linecap="round" stroke-linejoin="round" stroke-miterlimit="10"/>
    <circle class="st1" cx="-1.6" cy="-.1" r=".1" fill="#FFC258"/>
    <path class="st2" d="M-1.6.5c-.3 0-.6-.3-.6-.6s.2-.7.6-.7c.3 0 .6.3.6.7s-.3.6-.6.6z" fill="#4F4B45"/>
    <circle class="st1" cx="1.6" cy="-.1" r=".1" fill="#FFC258"/>
    <path class="st2" d="M1.6.5C1.3.5 1 .2 1-.1s.3-.6.6-.6.6.3.6.6-.2.6-.6.6z" fill="#4F4B45"/>
    <circle class="st3" cx="-3" cy="-1.5" r=".5" fill="#FABFA5"/>
    <circle class="st3" cx="3" cy="-1.5" r=".5" fill="#FABFA5"/>
    <path d="M-1.2-3c.8-.5 1.7-.5 2.5 0" fill="none" stroke="#504b46" stroke-linecap="round" stroke-linejoin="round" stroke-miterlimit="10"/>
  </symbol>
  <g id="Icons">
    <g id="XMLID_1841_">
      <path id="XMLID_1878_" class="st81" d="M36.9 22.2s1.6-1.9 2.1-4.3c.2-1 .4-1.7.4-2.2.1-.4.6-.6.9-.3 1 .9 2.4 2.7 1.9 5.2-.8 3.6-5.3 1.6-5.3 1.6z" fill="#E0E0E0" stroke="#45413C" stroke-linecap="round" stroke-linejoin="round" stroke-miterlimit="10"/>
      <path id="XMLID_1877_" class="st81" d="M6.1 19.8s-.8 3.2.5 4.8c1.3 1.6 1.9.7 2.7-1.6s-3.2-3.2-3.2-3.2z" fill="#E0E0E0" stroke="#45413C" stroke-linecap="round" stroke-linejoin="round" stroke-miterlimit="10"/>
      <path id="XMLID_999_" d="M18.4 6.8s.5-2.5 3.3-4c1.5-.8 2.9-1 4-.9.5 0 .7.7.2 1-.9.5-2.1 1.4-2.7 2.5-1.2 2.2-2 7.2-2 7.2l-2.8-5.8z" fill="#f0d5a8" stroke="#45413c" stroke-linecap="round" stroke-linejoin="round" stroke-miterlimit="10"/>
      <path id="XMLID_998_" d="M34.1 20H28c-3.3 0-5.3-2.2-5.3-5.3v-1.8c0-4.7-.7-6.2-2.1-7.2-1.1-.8-4-1.9-5.3-2.4-.3-.1-.7.1-.7.4-.1.8-.1 2 .7 3.3l-4.3.8c-5.1 1.5-8 4.9-8 9s3.3 4.8 7.4 4.8h2.7c2.2 0 4.2 3.5 4.2 7.4v11.5c0 1.5 1 3 2.6 3.2 2 .4 3.8-1.2 3.8-3.1v-6.3c.9.1 1.7.2 2.4.4 2.8.4 5.7.4 8.5 0 .7.6 1.5 1 2.4 1.2v4.8c0 1.8 1.4 3.2 3.2 3.2 1.8 0 3.2-1.4 3.2-3.2V29.3c0-5.1-4.2-9.3-9.3-9.3z" fill="#f0f0f0"/>
      <g id="XMLID_994_">
        <path id="XMLID_997_" class="st17" d="M15.1 6.6c0-.1-.1-.1-.1-.2 0 .1.1.1.1.2z" fill="#FFF"/>
        <path id="XMLID_996_" class="st17" d="M17.4 8.9L11 10.8c-4.4 1.3-7.2 4-7.8 7.4-.1-.4-.2-.8-.2-1.4 0-4.1 2.9-7.6 8-9l4.3-.8c.4.6 1.1 1.3 2.1 1.9z" fill="#FFF"/>
        <path id="XMLID_995_" class="st17" d="M34.1 20H28c-3.3 0-5.3-2.2-5.3-5.3v-1.8c0-4.7-.7-6.2-2.1-7.2-1.1-.8-4-1.9-5.3-2.4-.3-.1-.7.1-.7.4-.1.6-.1 1.5.3 2.5-.1-.2.1 0 .4.1 1.3.5 4.2 1.7 5.3 2.4 1.4 1 2.1 2.5 2.1 7.2v1.8c0 3.1 2 5.3 5.3 5.3h6.1c5.1 0 9.3 4.2 9.3 9.3v-3c0-5.1-4.2-9.3-9.3-9.3z" fill="#FFF"/>
      </g>
      <path id="XMLID_955_" class="st10" d="M34.1 20H28c-3.3 0-5.3-2.2-5.3-5.3v-1.8c0-4.7-.7-6.2-2.1-7.2-1.1-.8-4-1.9-5.3-2.4-.3-.1-.7.1-.7.4-.1.8-.1 2 .7 3.3l-4.3.8c-5.1 1.5-8 4.9-8 9s3.3 4.8 7.4 4.8h2.7c2.2 0 4.2 3.5 4.2 7.4v11.5c0 1.5 1 3 2.6 3.2 2 .4 3.8-1.2 3.8-3.1v-6.3c.9.1 1.7.2 2.4.4 2.8.4 5.7.4 8.5 0 .7.6 1.5 1 2.4 1.2v4.8c0 1.8 1.4 3.2 3.2 3.2 1.8 0 3.2-1.4 3.2-3.2V29.3c0-5.1-4.2-9.3-9.3-9.3z" fill="none" stroke="#45413C" stroke-linecap="round" stroke-linejoin="round" stroke-miterlimit="10"/>
      <ellipse id="XMLID_954_" cx="30.6" cy="44.5" rx="14.4" ry="1.6" fill="#45413c" opacity=".15"/>
      <path id="XMLID_953_" class="st10" d="M32.8 30.8c0 1.6.7 3 1.8 4" fill="none" stroke="#45413C" stroke-linecap="round" stroke-linejoin="round" stroke-miterlimit="10"/>
      <path id="XMLID_952_" class="st10" d="M15.3 7c.4.7 1.1 1.3 2 1.9" fill="none" stroke="#45413C" stroke-linecap="round" stroke-linejoin="round" stroke-miterlimit="10"/>
      <circle id="XMLID_949_" transform="matrix(.05447 -.9985 .9985 .05447 -.712 25.486)" cx="13.1" cy="13.1" fill="#45413c" stroke="#45413c" stroke-linecap="round" stroke-linejoin="round" stroke-miterlimit="10" r="1.1"/>
      <circle id="XMLID_947_" transform="rotate(-86.881 16.822 16.308) scale(.99998)" cx="16.8" cy="16.3" fill="#ffaa54" r="1.1"/>
    </g>
  </g>
</svg>
