<svg xmlns="http://www.w3.org/2000/svg" viewBox="0 0 24 24" focusable="false">
  <path d="M12.75 4.75V9.5h-1.5V4.75a.75.75 0 011.5 0zm2.56 8.39l-2.4 1.85a1.505 1.505 0 01-1.83 0l-2.39-1.84a.752.752 0 11.92-1.19l1.64 1.27V9.5h1.5v3.71l1.64-1.26a.762.762 0 011.06.14.749.749 0 01-.14 1.05z"/>
  <path d="M22 14.5v.5a5.002 5.002 0 01-5 5H7a4.995 4.995 0 01-5-5v-.5a4.995 4.995 0 015-5h4.25v3.73l-1.64-1.27a.752.752 0 10-.92 1.19l2.39 1.84a1.505 1.505 0 001.83 0l2.4-1.85a.749.749 0 00.14-1.05.762.762 0 00-1.06-.14l-1.64 1.26V9.5H17a5.002 5.002 0 015 5z" fill="#ffb531"/>
</svg>
