<svg xmlns="http://www.w3.org/2000/svg" viewBox="0 0 32 25">
  <path d="M32 3.418c-2.012.09-1.969.082-2.195.098L30.996.19s-3.723 1.336-4.664 1.579c-2.465-2.079-6.023-2.36-8.797-.692-2.18 1.25-3.344 3.68-2.926 6.117-4.136-.539-7.906-2.61-10.52-5.785L3.2.375l-.66 1.184a7.01 7.01 0 00-.777 4.812c.133.652.367 1.285.687 1.875l-.758-.289-.09 1.238a6.454 6.454 0 001.145 3.918c.262.387.563.746.895 1.075l-.391-.06.477 1.419a6.947 6.947 0 003.625 4.098c-1.692.699-3.055 1.148-5.297 1.867L0 22.172l1.895 1.015a20.32 20.32 0 005.8 2.063c5.614.86 11.93.16 16.18-3.578 3.586-3.152 4.758-7.633 4.516-12.297a2.867 2.867 0 01.554-1.895C29.742 6.441 32 3.422 32 3.418zm-4.55 2.957a4.675 4.675 0 00-.93 3.086c.246 4.707-1.063 8.351-3.895 10.844-3.309 2.906-8.645 4.05-14.637 3.133a14.804 14.804 0 01-3.136-.91 50.655 50.655 0 005.68-2.278l3.277-1.516-3.618-.222A5.16 5.16 0 016.13 16.25a6.86 6.86 0 001.379-.223l3.445-.937-3.476-.832a5.198 5.198 0 01-3.165-2.149 5.08 5.08 0 01-.683-1.476 9 9 0 001.406.219l3.219.312-2.547-1.941c-1.77-1.266-2.574-3.45-2.035-5.524C7.129 7.172 11.859 9.16 16.82 9.223c-.027-.524-.09-1.04-.191-1.551-.692-1.906.105-4.02 1.89-5.035a5.703 5.703 0 016.606.535c.41.379.988.527 1.535.402.43-.105.852-.23 1.27-.375l-.809 2.25h1.04zm0 0"/>
</svg>
