<svg xmlns="http://www.w3.org/2000/svg" viewBox="0 0 32 32" fill="currentColor" focusable="false">
  <path d="M23.578.238H8.902C4.122.246.246 4.121.242 8.902v14.676a8.667 8.667 0 008.66 8.66h14.676c4.781-.004 8.656-3.879 8.664-8.66V8.902A8.679 8.679 0 0023.578.238zm6.785 23.34a6.792 6.792 0 01-6.785 6.785H8.902a6.792 6.792 0 01-6.785-6.785V8.902a6.798 6.798 0 016.785-6.789h14.676a6.798 6.798 0 016.785 6.79zm0 0"/>
  <path d="M16.238 7.668a8.567 8.567 0 108.567 8.566 8.572 8.572 0 00-8.567-8.566zm0 15.297a6.73 6.73 0 01-6.726-6.73 6.728 6.728 0 1113.457 0 6.737 6.737 0 01-6.73 6.734zm8.785-18.477a2.649 2.649 0 00-2.652 2.649 2.652 2.652 0 002.652 2.652 2.65 2.65 0 000-5.3zm0 3.375a.729.729 0 11.727-.726.723.723 0 01-.727.734zm0 0"/>
</svg>
