<svg viewBox="0 0 24 24" xmlns="http://www.w3.org/2000/svg" focusable="false">
  <path d="M17.086 7c1.264 0 2.59.91 3.058 3.12l.77 6.195C21.478 20.354 19.207 22 16.157 22h-8.29c-3.057 0-5.4-1.137-4.763-5.685l.778-6.195C4.28 7.846 5.65 7 6.932 7zm-7.989 3.33a.897.897 0 00-.884.909c0 .502.396.91.884.91a.897.897 0 00.884-.91l-.007-.114a.893.893 0 00-.877-.796zm5.789 0a.897.897 0 00-.884.909c0 .502.396.91.884.91a.897.897 0 00.884-.91.897.897 0 00-.884-.91z"/>
  <path d="M16.974 6.774A.502.502 0 0116.93 7h-1.437a.649.649 0 01-.043-.226 3.478 3.478 0 00-3.484-3.472 3.478 3.478 0 00-3.484 3.472.649.649 0 010 .226H7.01a.649.649 0 010-.226A4.992 4.992 0 0112.005 2 4.992 4.992 0 0117 6.774h-.026z" opacity=".4"/>
</svg>
