<svg xmlns="http://www.w3.org/2000/svg" viewBox="0 0 24 24">
  <path fill="#200E32" d="M15.747 2C19.59 2 22 4.392 22 8.253v2.322l-.007.104a.765.765 0 01-.758.661h-.009l-.12-.01a.756.756 0 01-.636-.764V8.253c0-3.043-1.68-4.723-4.723-4.723H8.253c-3.052 0-4.723 1.68-4.723 4.723v7.502c0 3.044 1.68 4.715 4.723 4.715h7.494c3.052 0 4.723-1.68 4.723-4.715a.765.765 0 011.53 0C22 19.608 19.608 22 15.755 22H8.253C4.393 22 2 19.608 2 15.755V8.253C2 4.393 4.392 2 8.253 2zM7.752 9.555a.765.765 0 01.739.792v6.394a.766.766 0 01-1.53-.053v-6.403l.013-.12a.756.756 0 01.778-.61zm4.283-3c.423 0 .765.343.765.766v9.376a.765.765 0 11-1.53 0V7.32c0-.423.343-.765.765-.765zm4.24 6.377c.422 0 .765.343.765.765v2.99a.765.765 0 11-1.53 0v-2.99c0-.422.342-.765.764-.765z"/>
</svg>
