<svg xmlns="http://www.w3.org/2000/svg" viewBox="0 0 48 48" focusable="false">
  <path d="M36.6 28.4l-4.3 2.8c-5.1 3.2-11.4 3.2-16.5 0l-4.3-2.8c-1-.6-1.6-1.7-1.6-2.9v-6h28.3v6c-.1 1.2-.7 2.3-1.6 2.9z" fill="#656769"/>
  <path d="M38.1 19.5H9.9v4.6l10.7 6.2c2.1 1.3 4.8 1.3 6.9 0l10.7-6.2v-4.6z" fill="#525252"/>
  <path d="M36.6 28.4l-4.3 2.8c-5.1 3.2-11.4 3.2-16.5 0l-4.3-2.8c-1-.6-1.6-1.7-1.6-2.9v-6h28.3v6c-.1 1.2-.7 2.3-1.6 2.9z" fill="none" stroke="#45413C" stroke-linecap="round" stroke-linejoin="round" stroke-miterlimit="10"/>
  <ellipse cx="24" cy="44.1" rx="13" ry="1.7" fill="#45413c" opacity=".15"/>
  <path d="M5.7 18l14.8 8.7c2.1 1.3 4.8 1.3 6.9 0L42.3 18c2.8-1.6 2.7-5.7-.2-7.2L27.2 3c-2-1.1-4.4-1.1-6.4 0L5.9 10.9c-2.9 1.5-3 5.5-.2 7.1z" fill="#656769"/>
  <path d="M5.9 15.5l14.9-6c2-.8 4.4-.8 6.4 0l14.9 6a5 5 0 011.6 1.1c1.2-1.9.6-4.6-1.6-5.8L27.2 3c-2-1.1-4.4-1.1-6.4 0L5.9 10.9c-2.2 1.2-2.7 3.9-1.6 5.8.3-.5.9-.9 1.6-1.2z" fill="#87898c"/>
  <path d="M5.7 18l14.8 8.7c2.1 1.3 4.8 1.3 6.9 0L42.3 18c2.8-1.6 2.7-5.7-.2-7.2L27.2 3c-2-1.1-4.4-1.1-6.4 0L5.9 10.8c-2.9 1.5-3 5.6-.2 7.2z" fill="none" stroke="#45413C" stroke-linecap="round" stroke-linejoin="round" stroke-miterlimit="10"/>
  <path fill="none" stroke="#45413C" stroke-linecap="round" stroke-linejoin="round" stroke-miterlimit="10" d="M22.3 15l-10 6.5v14.4"/>
  <path d="M11.7 38l-1.8 5.3c-.2.6 0 1.2.5 1.5.5.3 1.2.7 2 .7s1.5-.3 2-.7c.5-.3.6-1 .5-1.5L13 38h-1.3z" fill="#FFE500" stroke="#45413C" stroke-linecap="round" stroke-linejoin="round" stroke-miterlimit="10"/>
  <circle cx="12.3" cy="38" r="2.1" fill="#FFE500" stroke="#45413C" stroke-linecap="round" stroke-linejoin="round" stroke-miterlimit="10"/>
  <ellipse cx="24" cy="13.9" rx="2.7" ry="1.4" fill="#FFE500" stroke="#45413C" stroke-linecap="round" stroke-linejoin="round" stroke-miterlimit="10"/>
</svg>
