<svg xmlns="http://www.w3.org/2000/svg" viewBox="0 0 48 48" focusable="false">
  <ellipse cx="25.5" cy="44" rx="20.5" ry="1.5" fill="#45413c" opacity=".15"/>
  <path d="M34 10.3h-5l1.2-5.4c.3-1.2-.6-2.4-1.8-2.4-3.3 0-6.6.9-9.4 2.6h-8.4C5.8 5.1 2 8.9 2 13.6v15c0 4.2 3 7.6 7 8.3.8.1 1.5-.5 1.5-1.3v-1c0-.4-.2-.9-.6-1.1-1.6-.9-2.6-2.6-2.6-4.5v-1.7c0-.8.5-1.5 1.2-1.7l5.1-2 .1.4c.4 2.5 1.8 4.7 3.6 6.2.3.3.5.6.5 1v11.2c0 .7.6 1.3 1.3 1.3h5.2c.7 0 1.3-.6 1.3-1.3v-8.5c0-.7.6-1.3 1.3-1.3H38v9.8c0 .7.6 1.3 1.3 1.3h5.2c.7 0 1.3-.6 1.3-1.3V22c-.1-6.5-5.4-11.7-11.8-11.7z" fill="#c0dceb"/>
  <path d="M10.6 8H19c2.8-1.7 6.1-2.6 9.4-2.6.7 0 1.2.3 1.5.8l.3-1.4c.3-1.2-.6-2.4-1.8-2.4-3.3 0-6.6.9-9.4 2.6h-8.4C5.8 5.1 2 8.9 2 13.6v2.9C2 11.8 5.8 8 10.6 8zM34 10.3h-5l-.7 2.9H34c6.5 0 11.7 5.2 11.7 11.7V22c0-6.5-5.3-11.7-11.7-11.7z" fill="#DAEDF7"/>
  <path d="M34 10.3h-5l1.2-5.4c.3-1.2-.6-2.4-1.8-2.4-3.3 0-6.6.9-9.4 2.6h-8.4C5.8 5.1 2 8.9 2 13.6v15c0 4.2 3 7.6 7 8.3.8.1 1.5-.5 1.5-1.3v-1c0-.4-.2-.9-.6-1.1-1.6-.9-2.6-2.6-2.6-4.5v-1.7c0-.8.5-1.5 1.2-1.7l5.1-2 .1.4c.4 2.5 1.8 4.7 3.6 6.2.3.3.5.6.5 1v11.2c0 .7.6 1.3 1.3 1.3h5.2c.7 0 1.3-.6 1.3-1.3v-8.5c0-.7.6-1.3 1.3-1.3H38v9.8c0 .7.6 1.3 1.3 1.3h5.2c.7 0 1.3-.6 1.3-1.3V22c-.1-6.5-5.4-11.7-11.8-11.7z" fill="none" stroke="#45413C" stroke-linecap="round" stroke-linejoin="round" stroke-miterlimit="10"/>
  <path d="M35.9 20.1c-1.2 3.2-.7 6.9 1.4 9.7.4.5.6 1.1.6 1.7v1M14.4 8.3l3-2.2c3.1-2.3 6.9-3.6 10.9-3.6 1.3 0 2.2 1.2 1.9 2.4l-2.5 11.5c-.5 2.2-2.4 3.8-4.7 3.8h-5.1c-1.9 0-3.4-1.5-3.4-3.4" fill="none" stroke="#45413C" stroke-linecap="round" stroke-linejoin="round" stroke-miterlimit="10"/>
  <path d="M17.8 20.1h5.1c2.2 0 4.2-1.6 4.7-3.8L29.7 7c-.4-.4-.9-.6-1.4-.6-3.9 0-7.7 1.3-10.9 3.6l-3 2.2v4.4c0 1.9 1.5 3.5 3.4 3.5z" fill="#fcd"/>
  <path d="M28.3 9.7c.3 0 .6.1.8.2l.6-2.9c-.4-.4-.9-.6-1.4-.6-3.9 0-7.7 1.3-10.9 3.6l-3 2.2v3.3l3-2.2c3.1-2.3 6.9-3.6 10.9-3.6z" fill="#FFB0CA"/>
  <path d="M17.8 20.1h5.1c2.2 0 4.2-1.6 4.7-3.8L29.7 7c-.4-.4-.9-.6-1.4-.6-3.9 0-7.7 1.3-10.9 3.6l-3 2.2v4.4c0 1.9 1.5 3.5 3.4 3.5zM2 20.7h2.6M2 23.3h2.6M2 25.9h2m9.5-2.5s3.2-1.2 2.9-3.7" fill="none" stroke="#45413C" stroke-linecap="round" stroke-linejoin="round" stroke-miterlimit="10"/>
  <circle transform="rotate(-76.798 7.886 16.159)" cx="7.9" cy="16.2" fill="#45413c" r="1.3"/>
  <path d="M13.1 19.6c-.2.5-.9.9-1.6.7-.7-.1-1.1-.7-1-1.2.2-.5.9-.9 1.6-.7.7.2 1.1.7 1 1.2z" fill="#FFB0CA"/>
</svg>
