<svg xmlns="http://www.w3.org/2000/svg" viewBox="0 0 48 48" focusable="false">
  <ellipse cx="24.7" cy="44.4" rx="11.5" ry="1.5" fill="#45413c" opacity=".15"/>
  <path d="M35 27.7c-.3-3.4 4-5.5 4-5.5v-5s-6.8-2.2-7-7c-.2-4.1 6.1-5.8 11.2-7.1.6-.1.5-1-.1-1-5.4.1-14.7.8-22.1 3.6-5.8 2.2-9 6-10.9 9.2-1.3 2.3-3.3 4-5.8 5l-1.7.6c-.3.1-.6.5-.6.9v1c0 .5.3.9.8 1l1.5.3c2.9.6 5.4 2.3 7.3 4.7 2.1 2.7 5.4 5.2 10.4 5.8 6.6.9 13.3-.8 16.1-1.6.4-.1.5-.7.1-.9-1.2-.6-3-1.8-3.2-4z" fill="#4aeff7"/>
  <path d="M2.8 23.4l1.5.3c.1 0 .2.1.4.1 2.3-.9 4.2-2.6 5.5-4.8 1.8-3.2 5.1-7 10.9-9.2 4-1.5 8.5-2.4 12.7-2.9 2-1.9 6-2.9 9.4-3.8.6-.1.5-1-.1-1-5.4.1-14.7.8-22.1 3.6-5.8 2.2-9 6-10.9 9.2-1.3 2.3-3.3 4-5.8 5l-1.7.6c-.3.1-.6.5-.6.9v1c0 .4.3.9.8 1zm29.7-11.2c-.4.6-.6 1.3-.5 2 .2 4.8 7 7 7 7v-4.1c0 .1-4.8-1.5-6.5-4.9z" fill="#A6FBFF"/>
  <path d="M35 27.7c-.3-3.4 4-5.5 4-5.5v-5s-6.8-2.2-7-7c-.2-4.1 6.1-5.8 11.2-7.1.6-.1.5-1-.1-1-5.4.1-14.7.8-22.1 3.6-5.8 2.2-9 6-10.9 9.2-1.3 2.3-3.3 4-5.8 5l-1.7.6c-.3.1-.6.5-.6.9v1c0 .5.3.9.8 1l1.5.3c2.9.6 5.4 2.3 7.3 4.7 2.1 2.7 5.4 5.2 10.4 5.8 6.6.9 13.3-.8 16.1-1.6.4-.1.5-.7.1-.9-1.2-.6-3-1.8-3.2-4z" fill="none" stroke="#45413C" stroke-linecap="round" stroke-linejoin="round" stroke-miterlimit="10"/>
  <path d="M30.9 34.1c-1.1-2.7-2.4-7.3-2.4-13.9 0-7.8 1.6-13.9 2.6-17.1-1.4.2-2.9.5-4.3.8-.9 3.1-2.3 9.2-2.3 16.2 0 5.9 1.2 11 2.1 14.2 1.5.1 3 0 4.3-.2z" fill="#f0f0f0"/>
  <path d="M31.1 3.1c-.4 1.1-.8 2.5-1.2 4.3-1.4.2-2.8.5-4.2.9.4-1.8.7-3.2 1-4.3 1.5-.4 3-.6 4.4-.9z" fill="#fff"/>
  <path d="M30.9 34.1c-1.1-2.7-2.4-7.3-2.4-13.9 0-7.8 1.6-13.9 2.6-17.1-1.4.2-2.9.5-4.3.8-.9 3.1-2.3 9.2-2.3 16.2 0 5.9 1.2 11 2.1 14.2 1.5.1 3 0 4.3-.2z" fill="none" stroke="#45413C" stroke-linecap="round" stroke-linejoin="round" stroke-miterlimit="10"/>
  <path d="M21.5 33.2c-1.2-5.9-1.5-8.4-1-15 .3-4.5.9-9.5 2.5-13.2-.7.2-1.4.4-2 .7-2 .8-3.7 1.7-5.1 2.8-.7 2.8-1.4 6.9-1.4 12.2 0 10 2 15.2 6 18 2.4 1.7 4.4 2.3 5.9 2.5.5.1.8-.6.3-.9-1.8-1.2-4.4-3.4-5.2-7.1z" fill="#FFE500"/>
  <path d="M23 5c-.6 1.4-1.1 2.9-1.4 4.6-.2.1-.4.1-.6.2-2.4.9-4.4 2.1-6 3.5.2-1.9.6-3.5.9-4.8 1.4-1.1 3.1-2 5.1-2.8.7-.3 1.3-.5 2-.7z" fill="#FFF48C"/>
  <path d="M21.5 33.2c-1.2-5.9-1.5-8.4-1-15 .3-4.5.9-9.5 2.5-13.2-.7.2-1.4.4-2 .7-2 .8-3.7 1.7-5.1 2.8-.7 2.8-1.4 6.9-1.4 12.2 0 10 2 15.2 6 18 2.4 1.7 4.4 2.3 5.9 2.5.5.1.8-.6.3-.9-1.8-1.2-4.4-3.4-5.2-7.1z" fill="none" stroke="#45413C" stroke-linecap="round" stroke-linejoin="round" stroke-miterlimit="10"/>
  <path d="M39 17.2c1.9.4 3.8-3.6 5-4 1.2-.4 2 2.3 2 6 0 2.8-.2 6.1-1.5 6-1.5-.1-2.7-4.3-5.5-3v-5z" fill="#FFE500"/>
  <path d="M45.3 15.3h.3c-.4-1.5-.9-2.3-1.6-2.1-1.2.4-3.1 4.4-5 4v2.1c2.4.4 4.8-3.6 6.3-4z" fill="#FFF48C"/>
  <path d="M39 17.2c1.9.4 3.8-3.6 5-4 1.2-.4 2 2.3 2 6 0 2.8-.2 6.1-1.5 6-1.5-.1-2.7-4.3-5.5-3v-5z" fill="none" stroke="#45413C" stroke-linecap="round" stroke-linejoin="round" stroke-miterlimit="10"/>
  <circle cx="12.1" cy="19.1" r="1.1" fill="#45413c"/>
  <circle cx="16.9" cy="23.1" r="1.3" fill="#fffacf"/>
  <path d="M42 18.2s2.1-.1 3.5-1m-3.5 3s2.2 0 3.5 1" fill="#FFE500" stroke="#45413C" stroke-linecap="round" stroke-linejoin="round" stroke-miterlimit="10"/>
</svg>
