<svg xmlns="http://www.w3.org/2000/svg" viewBox="0 0 48 48" focusable="false">
  <path d="M14.9 17.6s-2.9 3.3-6 8.7c-1.8 3.1-2.1 5 1.1 6.8 4.4 2.6 4.9-2.7 5.5-8 .6-5.2-.6-7.5-.6-7.5z" fill="#BDBEC0" stroke="#45413C" stroke-linecap="round" stroke-linejoin="round" stroke-miterlimit="10"/>
  <path d="M13.9 23.1s-3.8 4.5-3.5 6c.3 1.5 1.6 2.1 3 2 1.4-.1 2-4 2-4l-1.5-4z" fill="#FCD" stroke="#45413C" stroke-linecap="round" stroke-linejoin="round" stroke-miterlimit="10"/>
  <path d="M33.1 17.6s2.9 3.3 6 8.7c1.8 3.1 2.1 5-1.1 6.8-4.4 2.6-4.9-2.7-5.5-8-.6-5.2.6-7.5.6-7.5z" fill="#BDBEC0" stroke="#45413C" stroke-linecap="round" stroke-linejoin="round" stroke-miterlimit="10"/>
  <path d="M34.1 23.1s3.8 4.5 3.5 6c-.3 1.5-1.6 2.1-3 2-1.4-.1-2-4-2-4l1.5-4z" fill="#FCD" stroke="#45413C" stroke-linecap="round" stroke-linejoin="round" stroke-miterlimit="10"/>
  <path d="M7.6 19.2c-.1.4-.2.8-.2 1.2 0 2.3 1.9 4.2 4.2 4.2 2.3 0 4.2-1.9 4.2-4.2 0-.2 0-.3-.1-.5 1.1-.9 1.9-2.2 2.1-3.8 1.5-.1 2.9-.9 3.8-2.1.7.3 1.4.4 2.2.4s1.5-.2 2.2-.4c.9 1.2 2.2 2 3.8 2.1.2 1.5 1 2.8 2.1 3.8 0 .2-.1.3-.1.5 0 2.3 1.9 4.2 4.2 4.2 2.3 0 4.2-1.9 4.2-4.2 0-.4-.1-.8-.2-1.2.9-1 1.5-2.4 1.5-3.9 0-3.3-2.7-5.9-5.9-5.9h-.7c-.7-2-2.6-3.4-4.8-3.4h-.4c-.9-2.5-3.2-4.3-6-4.3S18.8 3.5 18 6h-.4c-2.2 0-4.1 1.4-4.8 3.4h-.7c-3.3 0-5.9 2.7-5.9 5.9 0 1.5.5 2.8 1.4 3.9z" fill="#E5FEFF"/>
  <path d="M12.1 12.6h.7c.7-2 2.6-3.4 4.8-3.4h.4c.8-2.5 3.2-4.2 6-4.2s5.1 1.8 6 4.3h.4c2.2 0 4.1 1.4 4.8 3.4h.7c2.7 0 5 1.8 5.7 4.3.1-.5.2-1 .2-1.6 0-3.3-2.7-5.9-5.9-5.9h-.7c-.7-2-2.6-3.4-4.8-3.4H30c-.9-2.5-3.2-4.3-6-4.3s-5.1 1.8-6 4.3h-.4c-2.2 0-4.1 1.4-4.8 3.4h-.7c-3.3 0-5.9 2.7-5.9 5.9 0 .5.1 1.1.2 1.6.7-2.6 3-4.4 5.7-4.4z" fill="#fff"/>
  <path d="M7.6 19.2c-.1.4-.2.8-.2 1.2 0 2.3 1.9 4.2 4.2 4.2 2.3 0 4.2-1.9 4.2-4.2 0-.2 0-.3-.1-.5 1.1-.9 1.9-2.2 2.1-3.8 1.5-.1 2.9-.9 3.8-2.1.7.3 1.4.4 2.2.4s1.5-.2 2.2-.4c.9 1.2 2.2 2 3.8 2.1.2 1.5 1 2.8 2.1 3.8 0 .2-.1.3-.1.5 0 2.3 1.9 4.2 4.2 4.2 2.3 0 4.2-1.9 4.2-4.2 0-.4-.1-.8-.2-1.2.9-1 1.5-2.4 1.5-3.9 0-3.3-2.7-5.9-5.9-5.9h-.7c-.7-2-2.6-3.4-4.8-3.4h-.4c-.9-2.5-3.2-4.3-6-4.3S18.8 3.5 18 6h-.4c-2.2 0-4.1 1.4-4.8 3.4h-.7c-3.3 0-5.9 2.7-5.9 5.9 0 1.5.5 2.8 1.4 3.9z" fill="none" stroke="#45413C" stroke-linecap="round" stroke-linejoin="round" stroke-miterlimit="10"/>
  <path d="M18.5 13.7c0-.3-1.7-5.8-7.5-5-5.8.8-5.5 6.9-4.5 8.8.9 1.9 3 2.2 3 2.2s-1.9-3.5 1.3-4.6c1.8-.6 2.6 1.9 2.6 1.9l5.1-3.3z" fill="#FFFACF"/>
  <path d="M11 10.7c3.8-.6 5.9 1.8 6.8 3.4l.7-.4c0-.3-1.7-5.8-7.5-5-4.5.7-5.3 4.5-5 7.1.3-2.2 1.6-4.6 5-5.1z" fill="#FFFCE5"/>
  <path d="M18.5 13.7c0-.3-1.7-5.8-7.5-5-5.8.8-5.5 6.9-4.5 8.8.9 1.9 3 2.2 3 2.2s-1.9-3.5 1.3-4.6c1.8-.6 2.6 1.9 2.6 1.9l5.1-3.3z" fill="none" stroke="#45413C" stroke-linecap="round" stroke-linejoin="round" stroke-miterlimit="10"/>
  <path d="M29.5 13.7c0-.3 1.7-5.8 7.5-5 5.8.8 5.5 6.9 4.5 8.8-.9 1.9-3 2.2-3 2.2s1.9-3.5-1.3-4.6c-1.8-.6-2.6 1.9-2.6 1.9l-5.1-3.3z" fill="#FFFACF"/>
  <path d="M37 10.6c3.5.5 4.7 2.9 5 5.1.3-2.5-.5-6.4-5-7-5.7-.8-7.5 4.8-7.5 5l.6.4C31 12.4 33 10 37 10.6z" fill="#FFFCE5"/>
  <path d="M29.5 13.7c0-.3 1.7-5.8 7.5-5 5.8.8 5.5 6.9 4.5 8.8-.9 1.9-3 2.2-3 2.2s1.9-3.5-1.3-4.6c-1.8-.6-2.6 1.9-2.6 1.9l-5.1-3.3z" fill="none" stroke="#45413C" stroke-linecap="round" stroke-linejoin="round" stroke-miterlimit="10"/>
  <ellipse cx="24.5" cy="44.7" rx="12.3" ry="1.6" fill="#45413c" opacity=".15"/>
  <path d="M34.9 24.2c0 9-5.2 16.3-10.9 16.3s-10.9-7.3-10.9-16.3 5.2-12 10.9-12 10.9 3 10.9 12z" fill="#bdbec0"/>
  <path d="M29.7 13c.7-.4 1.5-.7 2.4-.7 2.4 0 4.4 1.9 4.4 4.4 0 2.4-1.9 4.4-4.4 4.4-1.4 0-2.6-.7-3.4-1.7-.5 2.2-2.4 3.8-4.8 3.8-2.2 0-4-1.4-4.6-3.4-.8.7-1.8 1.2-3 1.2-2.4 0-4.3-2-4.3-4.4 0-2.4 1.9-4.4 4.4-4.4.7 0 1.3.2 1.9.4l2.5-1.9h6.4l2.5 2.3z" fill="#E5FEFF"/>
  <path d="M23.9 12.2c-5.5 0-10.4 2.7-10.8 10.9.4.1.8.1 1.2.1 1.5 0 2.8-.5 3.8-1.4.8 2.2 3.1 3.8 5.8 3.8 2.9 0 5.4-1.9 6-4.3 1 1.1 2.5 1.9 4.3 1.9.2 0 .4 0 .6-.1-.4-8.2-5.4-10.9-10.9-10.9z" fill="#87898c"/>
  <path d="M34.9 24.2c0 9-5.2 16.3-10.9 16.3s-10.9-7.3-10.9-16.3 5.2-12 10.9-12 10.9 3 10.9 12z" fill="none" stroke="#45413C" stroke-linecap="round" stroke-linejoin="round" stroke-miterlimit="10"/>
  <path d="M27.3 34.9c0 .9-1.5 2.7-3.3 2.7s-3.3-1.8-3.3-2.7c0-.9 1.5 0 3.3 0s3.3-.9 3.3 0z" fill="#87898c" stroke="#45413c" stroke-linecap="round" stroke-linejoin="round" stroke-miterlimit="10"/>
  <path d="M29.7 13c.7-.4 1.5-.7 2.4-.7 2.4 0 4.4 1.9 4.4 4.4 0 2.4-1.9 4.4-4.4 4.4-1.4 0-2.6-.7-3.4-1.7-.5 2.2-2.4 3.8-4.8 3.8-2.2 0-4-1.4-4.6-3.4-.8.7-1.8 1.2-3 1.2-2.4 0-4.3-2-4.3-4.4 0-2.4 1.9-4.4 4.4-4.4.7 0 1.3.2 1.9.4l2.5-1.9h6.4l2.5 2.3z" fill="#E5FEFF"/>
  <path d="M29.7 13c.7-.4 1.5-.7 2.4-.7 2.4 0 4.4 1.9 4.4 4.4 0 2.4-1.9 4.4-4.4 4.4-1.4 0-2.6-.7-3.4-1.7-.5 2.2-2.4 3.8-4.8 3.8-2.2 0-4-1.4-4.6-3.4-.8.7-1.8 1.2-3 1.2-2.4 0-4.3-2-4.3-4.4 0-2.4 1.9-4.4 4.4-4.4.7 0 1.3.2 1.9.4" fill="none" stroke="#45413C" stroke-linecap="round" stroke-linejoin="round" stroke-miterlimit="10"/>
  <circle cx="29" cy="27.7" r="1.5" fill="#45413C"/>
  <circle cx="19" cy="27.7" r="1.5" fill="#45413C"/>
  <ellipse cx="31" cy="32.2" rx="1" ry=".5" fill="#FCD"/>
  <ellipse cx="17" cy="32.2" rx="1" ry=".5" fill="#FCD"/>
  <path fill="none" stroke="#45413C" stroke-linecap="round" stroke-linejoin="round" stroke-miterlimit="10" d="M24 37.7v2.5m8.6-30.7l.9-.4s1.3-.5 3 1c2 1.7 1 5 1 5v.1m3.9-3.5l.1.4s.2 1.4-.5 2.5c-.9 1.4-2 1.5-2 1.5h-.3M15.4 9.5l-.9-.4s-1.3-.5-3 1c-2 1.7-1 5-1 5v.1m-3.9-3.5l-.1.4s-.2 1.4.5 2.5c1 1.4 2 1.6 2 1.6h.3"/>
</svg>
