<svg viewBox="0 0 24 24" xmlns="http://www.w3.org/2000/svg" focusable="false">
  <path d="M2 13.178c0-.417.339-.756.756-.756h.009v.017c.422 0 .764.342.765.764v2.544c0 3.053 1.67 4.723 4.714 4.723h7.5c3.046 0 4.726-1.68 4.726-4.723v-7.5c0-3.034-1.68-4.714-4.723-4.714h-7.5c-3.043 0-4.714 1.68-4.714 4.714a.766.766 0 01-1.53 0C2 4.392 4.392 2 8.243 2h7.504C19.607 2 22 4.392 22 8.244v7.5C22 19.607 19.608 22 15.747 22h-7.5C4.41 22 2 19.607 2 15.747zM7.164 12a.75.75 0 01.75-.75h8.172a.756.756 0 01.53.22c.009.008.01.017.018.024.059.066.11.138.144.22a.754.754 0 01.05.25c.002.014.008.023.008.036a.743.743 0 01-.22.53h-.001l-3.765 3.75a.749.749 0 11-1.058-1.062l2.477-2.467H7.914a.75.75 0 01-.75-.75zm4.629-3.217a.749.749 0 111.059-1.062l1.284 1.278a.751.751 0 01-1.06 1.062z"/>
</svg>
