<svg xmlns="http://www.w3.org/2000/svg" viewBox="0 0 32 32" focusable="false">
  <g transform="translate(269 -1615.32)">
    <path fill="#ec7bb0" d="M-241.5 1625.317c0 1.108-.807 2-1.81 2h-3.19v-4h3.19c1.003 0 1.81.892 1.81 2z" color="#000" overflow="visible"/>
    <path fill="#fbdabb" fill-rule="evenodd" d="M-247.244 1633.637l7.02-3.256s1.126-.38 1.618.782a1.327 1.327 0 01-.58 1.673l-.237.134-9.712 5.28c-.805.54-1.945.696-2.89.456l-9.988-3.382-.287-7.414h5.47c1.289 0 2.451.508 3.292 1.331a4.571 4.571 0 01.8 1.05c.07.129.136.234.195.37h4.739c.864 0 1.56.685 1.56 1.537 0 .85-.696 1.536-1.56 1.536h-6.953"/>
    <rect width="5.471" height="10.184" x="-267.497" y="1626.57" fill="#65c5b4" rx="8.206" ry="0"/>
    <path fill="#62355c" fill-rule="evenodd" d="M-239.527 1629.842c-.472-.07-.858.066-.858.066a.5.5 0 00-.049.019l-7.021 3.256a.5.5 0 10.422.906l6.974-3.234c.005 0 .176-.056.387-.025.215.03.42.09.606.527a.817.817 0 01-.366 1.043l-.234.133-9.707 5.277a.5.5 0 00-.041.024c-.66.443-1.683.59-2.484.387h-.002l-9.952-3.371a.5.5 0 10-.322.947l9.988 3.383a.5.5 0 00.04.012c1.087.275 2.342.11 3.29-.528l9.672-5.254a.5.5 0 00.008-.01l.237-.132a1.835 1.835 0 00.793-2.303c-.307-.726-.91-1.058-1.381-1.127z" color="#000" />
    <path fill="#92d9f7" d="M-246.5 1627.317h-3.19c-1.003 0-1.81-.892-1.81-2s.807-2 1.81-2h3.19z" color="#000" />
    <path fill="#62355c" d="M-249.69 1622.818c-1.299 0-2.31 1.149-2.31 2.5 0 1.35 1.011 2.5 2.31 2.5h6.38c1.299 0 2.31-1.15 2.31-2.5 0-1.351-1.011-2.5-2.31-2.5h-6.38zm0 1h2.69v3h-2.69c-.706 0-1.31-.635-1.31-1.5 0-.866.604-1.5 1.31-1.5zm3.69 0h2.69c.706 0 1.31.634 1.31 1.5 0 .865-.604 1.5-1.31 1.5H-246v-3zm-21.496 2.254a.5.5 0 00-.5.5v10.183a.5.5 0 00.5.5h5.471a.5.5 0 00.5-.5v-8.344h4.695a4.18 4.18 0 013.447 1.787c.074.108.144.222.207.336.078.141.132.227.174.325l.129.302h5.07c.6 0 1.059.458 1.059 1.037 0 .58-.46 1.038-1.059 1.038h-6.955v1h6.955c1.128 0 2.059-.914 2.059-2.038 0-1.123-.93-2.037-2.059-2.037h-4.44c-.018-.033-.04-.08-.058-.111a5.079 5.079 0 00-.887-1.166 5.19 5.19 0 00-3.642-1.473h-4.695v-.84a.5.5 0 00-.5-.5h-5.471zm.5 1h4.471v9.183h-4.471v-9.184z" color="#000" />
  </g>
</svg>
