<svg viewBox="0 0 24 24" xmlns="http://www.w3.org/2000/svg" focusable="false">
  <path d="M4.36 5.06c.002 0-.048.053-.111.115-.242.235-.743.724-.749 1.747-.008 1.43.933 4.088 5.464 8.618 4.51 4.508 7.163 5.46 8.598 5.46h.02c1.024-.005 1.512-.507 1.748-.748.072-.074.13-.128.17-.162.997-1.002 1.507-1.748 1.502-2.226-.007-.488-.614-1.065-1.453-1.863-.267-.254-.557-.53-.863-.836-.793-.791-1.186-.656-2.05-.352-1.195.419-2.835.989-5.383-1.56C8.7 10.703 9.272 9.065 9.69 7.87c.302-.864.44-1.258-.354-2.052-.311-.31-.59-.604-.847-.874-.793-.834-1.365-1.437-1.85-1.444H6.63c-.48 0-1.223.512-2.276 1.565l.005-.004zM17.563 22.5c-2.492 0-5.741-1.984-9.659-5.9C3.973 12.67 1.986 9.41 2 6.915c.01-1.65.875-2.495 1.2-2.812.016-.021.074-.078.094-.098C4.73 2.569 5.696 1.989 6.658 2c1.117.015 1.912.85 2.918 1.91.25.262.52.547.82.847 1.46 1.46 1.045 2.65.71 3.607-.364 1.043-.678 1.943 1.207 3.829 1.889 1.886 2.789 1.57 3.828 1.204.956-.334 2.144-.752 3.606.708.296.296.577.563.836.81 1.064 1.01 1.904 1.81 1.919 2.93.011.955-.569 1.928-2 3.36l-.635-.43.536.525c-.317.325-1.16 1.19-2.812 1.2h-.028z" fill-rule="evenodd"/>
</svg>
