<svg viewBox="0 0 24 24" xmlns="http://www.w3.org/2000/svg" focusable="false">
  <path d="M17.498 21.92a.67.67 0 01-.352-.09l-5.138-2.707-4.524 2.436c-.738.4-1.662.126-2.062-.613l-.015-.028a1.64 1.64 0 01-.158-1l.88-5.194L2.45 11a1.6 1.6 0 010-2.227c.234-.246.544-.405.88-.45l5.043-.767 2.243-4.673a1.515 1.515 0 012.754 0l2.253 4.69 5.06.774c.409.061.776.287 1.016.624.448.644.38 1.514-.162 2.081l-3.661 3.68.51 2.8a.782.782 0 01-.625.9.758.758 0 01-.88-.614l-.52-2.799a1.623 1.623 0 01.44-1.408l3.67-3.706-5.06-.785a1.52 1.52 0 01-1.152-.9l-2.252-4.669-2.28 4.743c-.205.478-.64.817-1.153.9l-5.043.766 3.643 3.7c.363.365.526.882.44 1.39l-.88 5.193 4.523-2.426a1.472 1.472 0 011.443 0l5.13 2.706a.788.788 0 01.388.88.77.77 0 01-.74.6l.019-.084z"/>
</svg>
