<svg viewBox="0 0 24 24" xmlns="http://www.w3.org/2000/svg" focusable="false">
  <g fill="none" fill-rule="evenodd">
    <path d="M0 0h24v24H0z"/>
    <path d="M2.293 2.293a.999.999 0 011.414 0L22.04 20.626a.999.999 0 11-1.414 1.414l-4.083-4.083A10.176 10.176 0 0112 19c-3.765 0-6.837-1.774-9.132-5.272a3.02 3.02 0 01.075-3.4c1.018-1.413 1.934-2.45 2.789-3.182L2.293 3.707a.999.999 0 010-1.414zm4.861 6.274c-.755.616-1.618 1.584-2.589 2.931a.993.993 0 00-.024 1.133C6.469 15.57 8.909 17 12 17a8.385 8.385 0 003.037-.549l-1.653-1.653a3.505 3.505 0 01-1.884.565c-1.93 0-3.5-1.57-3.5-3.5 0-.675.209-1.323.567-1.882zM12 5c3.783 0 6.867 1.791 9.165 5.324.646.993.646 2.277.002 3.27-.639.983-.866 1.285-.982 1.425a1.002 1.002 0 01-1.407.142 1 1 0 01-.141-1.407c.06-.073.263-.342.852-1.249.215-.332.215-.76-.001-1.091C17.556 8.444 15.106 7 12 7c-.297 0-.588.013-.875.04a.999.999 0 11-.189-1.99C11.284 5.017 11.638 5 12 5zm-1.942 6.473a1.502 1.502 0 00-.058.39c0 .827.673 1.5 1.5 1.5.133 0 .26-.03.385-.063z" fill="currentColor"/>
  </g>
</svg>
