<?xml version="1.0" encoding="UTF-8"?>
<svg width="24px" height="24px" viewBox="0 0 24 24" version="1.1" xmlns="http://www.w3.org/2000/svg" xmlns:xlink="http://www.w3.org/1999/xlink">
    <title>Icons/24/Discount</title>
    <g id="Icons/24/Discount" stroke="none" stroke-width="1" fill="none" fill-rule="evenodd">
        <circle id="Oval" fill="#FFFFFF" cx="12" cy="12" r="12"></circle>
        <path d="M12,1.5 C17.799045,1.5 22.5,6.200997 22.5,12 C22.5,17.799045 17.799045,22.5 12,22.5 C6.200997,22.5 1.5,17.799045 1.5,12 C1.5,6.200997 6.200997,1.5 12,1.5 Z M8.5,7.75 C8.08579,7.75 7.75,8.08579 7.75,8.5 C7.75,8.91421 8.08579,9.25 8.5,9.25 C8.91421,9.25 9.25,8.91421 9.25,8.5 C9.25,8.08579 8.91421,7.75 8.5,7.75 Z M14.75,15.5 C14.75,15.0858 15.0858,14.75 15.5,14.75 C15.9142,14.75 16.25,15.0858 16.25,15.5 C16.25,15.9142 15.9142,16.25 15.5,16.25 C15.0858,16.25 14.75,15.9142 14.75,15.5 Z M16.7071,8.70709 C17.0976,8.31659 17.0976,7.68341 16.7071,7.29291 C16.3166,6.90237 15.6834,6.90237 15.2929,7.29291 L7.29291,15.2929 C6.90237,15.6834 6.90237,16.3166 7.29291,16.7071 C7.68341,17.0976 8.31659,17.0976 8.70709,16.7071 L16.7071,8.70709 Z M6,8.5 C6,9.88071 7.11929,11 8.5,11 C9.88071,11 11,9.88071 11,8.5 C11,7.11929 9.88071,6 8.5,6 C7.11929,6 6,7.11929 6,8.5 Z M15.5,13 C14.1193,13 13,14.1193 13,15.5 C13,16.8807 14.1193,18 15.5,18 C16.8807,18 18,16.8807 18,15.5 C18,14.1193 16.8807,13 15.5,13 Z" id="Shape" fill="#001FBB" opacity="0.900000036"></path>
    </g>
</svg>