<svg viewBox="0 0 24 24" xmlns="http://www.w3.org/2000/svg" focusable="false">
  <g fill="none" fill-rule="evenodd">
    <circle fill="#FFF" cx="12" cy="12" r="12"/>
    <path d="M12 1.5c5.799 0 10.5 4.701 10.5 10.5S17.799 22.5 12 22.5 1.5 17.799 1.5 12 6.201 1.5 12 1.5zM8.5 7.75a.75.75 0 100 1.5.75.75 0 000-1.5zm6.25 7.75a.75.75 0 111.5 0 .75.75 0 01-1.5 0zm1.957-6.793a1 1 0 00-1.414-1.414l-8 8a1 1 0 101.414 1.414l8-8zM6 8.5a2.5 2.5 0 105 0 2.5 2.5 0 00-5 0zm9.5 4.5a2.5 2.5 0 100 5 2.5 2.5 0 000-5z" fill="currentColor" opacity=".9"/>
  </g>
</svg>
