<svg data-name="Layer 1" xmlns="http://www.w3.org/2000/svg" viewBox="0 0 24 24" focusable="false">
  <path fill="none" d="M0 0h24v24H0z"/>
  <path d="M10.269 13.428L3.009 9.58a1.866 1.866 0 010-3.297l7.26-3.848a3.732 3.732 0 013.496 0l7.26 3.848a1.866 1.866 0 010 3.297l-7.26 3.848a3.732 3.732 0 01-3.496 0z"/>
  <path d="M12 22a4.312 4.312 0 01-2.02-.501l-6.61-3.505a2.61 2.61 0 01-.001-4.613.91.91 0 11.854 1.608.79.79 0 000 1.395l6.61 3.505a2.486 2.486 0 002.332 0l6.611-3.505a.79.79 0 000-1.395.91.91 0 11.853-1.608 2.61 2.61 0 010 4.613l-6.611 3.505a4.312 4.312 0 01-2.019.501z"/>
</svg>
