<svg xmlns="http://www.w3.org/2000/svg" viewBox="0 0 48 48">
  <ellipse cx="24.6" cy="44.5" rx="12.5" ry="1.6" fill="#45413c" opacity=".15"/>
  <path d="M19.3 43.6l-8.1-4.4c-2.8-1.5-4-4.6-2.8-6.9L17.3 16c.7-1.2 1.7-2.2 2.9-2.9l16.1 8.8c.1 1.4-.2 2.8-.9 4l-8.9 16.3c-1.2 2.3-4.4 2.9-7.2 1.4z" fill="#e5f8ff"/>
  <path d="M34.7 27.4l-8.1 14.8c-1.2 2.3-4.5 2.9-7.3 1.4l-8.1-4.4c-2.8-1.5-4-4.6-2.8-6.9l2.7-4.9h23.6z" fill="#e5fff9"/>
  <path fill="#fff" d="M32.2 31.9l2.5-4.5H11.1l-2.5 4.5z"/>
  <path class="st95" d="M34.7 27.4l-8.1 14.8c-1.2 2.3-4.5 2.9-7.3 1.4l-8.1-4.4c-2.8-1.5-4-4.6-2.8-6.9l2.7-4.9h23.6z" fill="none" stroke="#45413C" stroke-linecap="round" stroke-linejoin="round" stroke-miterlimit="10" stroke-width="1.006"/>
  <path class="st95" d="M19.3 43.6l-8.1-4.4c-2.8-1.5-4-4.6-2.8-6.9L17.3 16c.7-1.2 1.7-2.2 2.9-2.9l16.1 8.8c.1 1.4-.2 2.8-.9 4l-8.9 16.3c-1.2 2.3-4.4 2.9-7.2 1.4z" fill="none" stroke="#45413C" stroke-linecap="round" stroke-linejoin="round" stroke-miterlimit="10" stroke-width="1.006"/>
  <path d="M36.4 21.9L20.1 13c-.5-.3-.7-.9-.4-1.4l2.1-3.9c.3-.5.9-.7 1.4-.4l16.3 8.9c.5.3.7.9.4 1.4l-2.1 3.9c-.2.5-.9.7-1.4.4z" fill="#4aeff7"/>
  <path d="M20.1 13l.5.3c.9-1.7 3-2.3 4.7-1.4L39 19.4l1-1.7c.3-.5.1-1.2-.4-1.4l-16.4-9c-.5-.3-1.2-.1-1.4.4l-2.1 3.9c-.3.5-.1 1.1.4 1.4z" fill="#a6fbff"/>
  <path class="st95" d="M36.4 21.9L20.1 13c-.5-.3-.7-.9-.4-1.4l2.1-3.9c.3-.5.9-.7 1.4-.4l16.3 8.9c.5.3.7.9.4 1.4l-2.1 3.9c-.2.5-.9.7-1.4.4z" fill="none" stroke="#45413C" stroke-linecap="round" stroke-linejoin="round" stroke-miterlimit="10" stroke-width="1.006"/>
  <path d="M37.6 10.4c-.7-1.1-.8-2.5-.4-3.8l.2-.7c.8-1.4.4-3.1-.9-3.7-1.2-.7-2.8-.1-3.6 1.3l-.3.5c-.9 1.1-2.1 1.7-3.4 1.7-1.7 0-3.3.9-4.5 2.3l13.4 7.3c.6-1.6.4-3.5-.5-4.9z" fill="#fff48c"/>
  <path d="M29.2 8.5c1.3 0 2.5-.7 3.4-1.7l.4-.6c.8-1.4 2.4-2 3.6-1.3.4.2.7.5.9.9.7-1.4.3-3-.9-3.6-1.2-.7-2.8-.1-3.6 1.3l-.4.5c-.9 1.1-2.1 1.7-3.4 1.7-1.7 0-3.3.9-4.5 2.3l1.9 1.1c.8-.4 1.7-.6 2.6-.6z" fill="#fffacf"/>
  <path class="st95" d="M37.6 10.4c-.7-1.1-.8-2.5-.4-3.8l.2-.7c.8-1.4.4-3.1-.9-3.7-1.2-.7-2.8-.1-3.6 1.3l-.3.5c-.9 1.1-2.1 1.7-3.4 1.7-1.7 0-3.3.9-4.5 2.3l13.4 7.3c.6-1.6.4-3.5-.5-4.9zm-20.2 5.5l3.7 2.1m-6.5 3.1l3.7 2m-6.6 3.2l3.8 2.1m-6.4 2.7l3.7 2.1" fill="none" stroke="#45413C" stroke-linecap="round" stroke-linejoin="round" stroke-miterlimit="10" stroke-width="1.006"/>
</svg>
