<svg xmlns="http://www.w3.org/2000/svg" viewBox="0 0 32 32" focusable="false">
  <path fill="#be6428" d="M28.314 4.974H14.686l2.356-3.548a2 2 0 012.3-.79l.257.086a6 6 0 003.802 0l.257-.086a2 2 0 012.3.79z"/>
  <path fill="#2c2b2d" d="M28.314 5.474H14.686a.5.5 0 01-.417-.777l2.357-3.548A2.506 2.506 0 0119.5.162l.258.086a5.537 5.537 0 003.484 0L23.5.162a2.504 2.504 0 012.874.988l2.356 3.547a.5.5 0 01-.416.777zm-12.695-1H27.38l-1.84-2.77a1.503 1.503 0 00-1.724-.594l-.258.086a6.538 6.538 0 01-4.118 0l-.257-.086a1.506 1.506 0 00-1.725.593z"/>
  <path fill="#b28966" d="M29.924 15.222C29.404 22.05 25.858 31.5 21.5 31.5s-7.903-9.45-8.424-16.278c-.406-5.32.771-11.884 3.61-12.66 1.245-.34 1.955.666 4.814.666s3.569-1.006 4.814-.666c2.839.776 4.016 7.34 3.61 12.66z"/>
  <path fill="#74563a" d="M28.06 4.01c-.09.04-.18.09-.29.15a14.157 14.157 0 01-1.87.81 12.942 12.942 0 01-4.09.74 13.386 13.386 0 01-4.7-.74 12.197 12.197 0 01-1.88-.81c-.11-.06-.2-.11-.29-.15a3.206 3.206 0 011.75-1.45c1.24-.34 1.95.67 4.81.67s3.57-1.01 4.81-.67a3.206 3.206 0 011.75 1.45z"/>
  <path fill="#2c2b2d" d="M21.5 32c-4.737 0-8.39-9.75-8.923-16.74-.375-4.919.611-12.26 3.977-13.18a3.308 3.308 0 011.983.18 9.135 9.135 0 002.963.468 9.135 9.135 0 002.963-.468 3.312 3.312 0 011.983-.18c3.366.92 4.352 8.261 3.977 13.18C29.89 22.25 26.237 32 21.5 32zM17.203 2.992a1.425 1.425 0 00-.385.052c-2.443.668-3.65 6.816-3.244 12.14C14.121 22.348 17.778 31 21.5 31s7.379-8.652 7.926-15.816c.406-5.324-.8-11.472-3.244-12.14a2.413 2.413 0 00-1.428.172 10.137 10.137 0 01-3.254.512 10.137 10.137 0 01-3.254-.512 3.726 3.726 0 00-1.043-.224zm12.721 12.23z"/>
  <path fill="#2c2b2d" d="M21.514 6.213a13.82 13.82 0 01-4.57-.77 12.67 12.67 0 01-1.949-.841c-.117-.064-.188-.104-.259-.136a.5.5 0 01.408-.913c.093.042.188.093.298.154a11.755 11.755 0 001.826.79 12.853 12.853 0 004.531.713 12.45 12.45 0 003.934-.711 13.635 13.635 0 001.806-.782c.13-.072.224-.122.317-.164a.5.5 0 01.408.913c-.071.032-.142.072-.226.117a14.635 14.635 0 01-1.973.859 13.437 13.437 0 01-4.246.768l-.305.003zm4.01 11.154a.493.493 0 01-.24-.063.5.5 0 01-.196-.68 5.627 5.627 0 00.826-3.681 5.276 5.276 0 00-.342-1.1 5.778 5.778 0 01-.445-1.62 6.336 6.336 0 01.631-3.45.5.5 0 01.905.426 5.356 5.356 0 00-.543 2.91 4.897 4.897 0 00.381 1.366 6.186 6.186 0 01.397 1.295 6.59 6.59 0 01-.935 4.34.502.502 0 01-.438.257zm-5.33-.514a.5.5 0 01-.44-.737 5.99 5.99 0 00.811-3.25 6.462 6.462 0 00-.194-1.097 7.606 7.606 0 01-.255-1.737 7.945 7.945 0 01.41-2.689.5.5 0 11.95.314 6.943 6.943 0 00-.36 2.35 6.556 6.556 0 00.227 1.529 7.296 7.296 0 01.22 1.26 6.962 6.962 0 01-.928 3.794.5.5 0 01-.441.263zm-.862 10.819a.5.5 0 01-.384-.82 3.322 3.322 0 00.887-2.143 2.818 2.818 0 00-.354-1.241 5.396 5.396 0 01-.442-1.232 5.594 5.594 0 01.785-3.866.5.5 0 11.875.485 4.64 4.64 0 00-.681 3.176 4.492 4.492 0 00.37 1.017 3.743 3.743 0 01.447 1.647 4.28 4.28 0 01-1.118 2.796.498.498 0 01-.385.18zm4.054 0a.5.5 0 01-.381-.823 2.994 2.994 0 00.886-2.106 2.635 2.635 0 00-.353-1.02 3.239 3.239 0 01-.456-1.592 3.464 3.464 0 01.855-2.158.5.5 0 01.778.629 2.493 2.493 0 00-.633 1.535 2.325 2.325 0 00.347 1.133 3.561 3.561 0 01.459 1.391 3.933 3.933 0 01-1.12 2.834.497.497 0 01-.382.177z"/>
  <path fill="#be6428" d="M16.314 4.974H2.686l2.356-3.548a2 2 0 012.3-.79l.257.086a6 6 0 003.802 0l.257-.086a2 2 0 012.3.79z"/>
  <path fill="#2c2b2d" d="M16.314 5.474H2.686a.5.5 0 01-.417-.777l2.357-3.548A2.506 2.506 0 017.5.162l.258.086a5.537 5.537 0 003.484 0L11.5.162a2.504 2.504 0 012.874.988l2.356 3.547a.5.5 0 01-.416.777zm-12.695-1H15.38l-1.84-2.77a1.503 1.503 0 00-1.724-.594l-.258.086a6.538 6.538 0 01-4.118 0l-.257-.086a1.505 1.505 0 00-1.725.593z"/>
  <path fill="#b28966" d="M17.92 15.22C17.4 22.05 13.86 31.5 9.5 31.5s-7.9-9.45-8.42-16.28c-.31-4.05.3-8.82 1.86-11.21a3.206 3.206 0 011.75-1.45c1.24-.34 1.95.67 4.81.67s3.57-1.01 4.81-.67a3.206 3.206 0 011.75 1.45c1.56 2.39 2.17 7.16 1.86 11.21z"/>
  <path fill="#74563a" d="M16.06 4.01c-.09.04-.18.09-.29.15a14.157 14.157 0 01-1.87.81 12.942 12.942 0 01-4.09.74 13.386 13.386 0 01-4.7-.74 12.197 12.197 0 01-1.88-.81c-.11-.06-.2-.11-.29-.15a3.206 3.206 0 011.75-1.45c1.24-.34 1.95.67 4.81.67s3.57-1.01 4.81-.67a3.206 3.206 0 011.75 1.45z"/>
  <path fill="#2c2b2d" d="M9.5 32C4.763 32 1.11 22.25.577 15.26.202 10.341 1.188 3 4.554 2.08a3.307 3.307 0 011.983.18 9.135 9.135 0 002.963.468 9.135 9.135 0 002.963-.468 3.313 3.313 0 011.983-.18c3.366.92 4.352 8.261 3.977 13.18C17.89 22.25 14.237 32 9.5 32zM5.203 2.992a1.425 1.425 0 00-.385.052c-2.443.668-3.65 6.816-3.244 12.14C2.121 22.348 5.778 31 9.5 31s7.379-8.652 7.926-15.816c.406-5.324-.8-11.472-3.244-12.14a2.413 2.413 0 00-1.428.172 10.137 10.137 0 01-3.254.512 10.137 10.137 0 01-3.254-.512 3.726 3.726 0 00-1.043-.224zm12.721 12.23z"/>
  <path fill="#2c2b2d" d="M9.514 6.213a13.82 13.82 0 01-4.57-.77 12.67 12.67 0 01-1.949-.841c-.117-.064-.188-.104-.259-.136a.5.5 0 01.408-.913c.093.042.188.093.298.154a11.755 11.755 0 001.826.79A12.858 12.858 0 009.8 5.21a12.45 12.45 0 003.934-.711 13.635 13.635 0 001.806-.782c.13-.072.224-.122.317-.164a.5.5 0 01.408.913c-.071.032-.142.072-.226.117a14.635 14.635 0 01-1.973.859 13.437 13.437 0 01-4.246.768l-.305.003zM5.168 23.195a.5.5 0 01-.473-.338 11.246 11.246 0 01-.398-6.86 14.814 14.814 0 01.79-2.003 7.14 7.14 0 00.905-3.615 6.522 6.522 0 00-.685-2.527.5.5 0 01.896-.443 7.503 7.503 0 01.787 2.914 8.136 8.136 0 01-.992 4.084 14.078 14.078 0 00-.74 1.87 10.27 10.27 0 00.384 6.256.5.5 0 01-.474.662zm9.44-2.95a.5.5 0 01-.437-.743 5.628 5.628 0 00.826-3.682 5.275 5.275 0 00-.342-1.098 5.787 5.787 0 01-.445-1.622 6.336 6.336 0 01.631-3.449.5.5 0 11.905.426 5.356 5.356 0 00-.543 2.91 4.905 4.905 0 00.382 1.366 6.141 6.141 0 01.397 1.294 6.592 6.592 0 01-.936 4.34.5.5 0 01-.438.257zM10.5 16.852a.5.5 0 01-.44-.737 5.99 5.99 0 00.811-3.25 6.473 6.473 0 00-.194-1.098 7.591 7.591 0 01-.256-1.736 7.973 7.973 0 01.41-2.689.5.5 0 01.95.314 6.946 6.946 0 00-.36 2.35 6.55 6.55 0 00.228 1.528 7.308 7.308 0 01.22 1.26 6.962 6.962 0 01-.929 3.795.5.5 0 01-.44.263zm-3.168 10.82a.5.5 0 01-.384-.82 3.322 3.322 0 00.887-2.143 2.818 2.818 0 00-.354-1.241 5.396 5.396 0 01-.442-1.232 5.594 5.594 0 01.785-3.866.5.5 0 11.875.485 4.64 4.64 0 00-.681 3.176 4.492 4.492 0 00.37 1.017 3.743 3.743 0 01.447 1.647 4.28 4.28 0 01-1.118 2.796.498.498 0 01-.385.18zm4.054 0a.5.5 0 01-.381-.823 2.994 2.994 0 00.886-2.106 2.635 2.635 0 00-.353-1.02 3.239 3.239 0 01-.456-1.592 3.464 3.464 0 01.855-2.158.5.5 0 01.778.629 2.493 2.493 0 00-.633 1.535 2.325 2.325 0 00.347 1.133 3.561 3.561 0 01.459 1.391 3.933 3.933 0 01-1.12 2.834.497.497 0 01-.382.177z"/>
</svg>
