<svg viewBox="0 0 24 24" xmlns="http://www.w3.org/2000/svg" focusable="false">
  <path d="M16.335 22C19.724 22 22 19.622 22 16.084V7.916C22 4.378 19.724 2 16.335 2H7.666C4.277 2 2 4.378 2 7.916v8.168C2 19.622 4.277 22 7.666 22h8.669zm0-1.5H7.666c-2.53 0-4.166-1.733-4.166-4.416V7.916C3.5 5.233 5.136 3.5 7.666 3.5h8.669c2.53 0 4.165 1.733 4.165 4.416v8.168c0 2.683-1.635 4.416-4.165 4.416zM12 16.836a.75.75 0 00.75-.75V9.73l2.467 2.477a.749.749 0 101.062-1.059l-3.748-3.764a.821.821 0 00-.077-.066l.077.066a.736.736 0 00-.13-.104l-.033-.02a.55.55 0 00-.067-.034l-.019-.007a.56.56 0 00-.072-.026l-.046-.01a.474.474 0 00-.057-.012l-.047-.005a.47.47 0 00-.06-.003l-.059.005-.043.003a.75.75 0 00-.006 0L12 7.164a.751.751 0 00-.164.018l-.046.013a.565.565 0 00-.073.024l-.017.009a.557.557 0 00-.069.033l-.032.02a.88.88 0 00-.137.111l-3.741 3.757a.75.75 0 001.062 1.06L11.25 9.73v6.356c0 .414.336.75.75.75z" fill-rule="evenodd"/>
</svg>
