<svg xmlns="http://www.w3.org/2000/svg" viewBox="0 0 48 48" focusable="false">
  <ellipse cx="15.5" cy="36.7" rx="3.8" ry="9.5" fill="#BDBEC0"/>
  <path d="M19.3 36.7c0-5.2-1.7-9.5-3.8-9.5s-3.8 4.2-3.8 9.5c0 1.4.1 2.7.3 3.9.5.1 1 .2 1.5.2.9 0 1.8-.2 2.6-.5.6.8 1.5 1.4 2.4 1.9.5-1.6.8-3.5.8-5.5z" fill="#87898C"/>
  <ellipse cx="32.5" cy="36.7" rx="3.8" ry="9.5" fill="#BDBEC0"/>
  <path d="M28.7 36.7c0-5.2 1.7-9.5 3.8-9.5 2.1 0 3.8 4.2 3.8 9.5 0 1.4-.1 2.7-.3 3.9-.5.1-1 .2-1.5.2-.9 0-1.8-.2-2.6-.5-.6.8-1.5 1.4-2.4 1.9-.5-1.6-.8-3.5-.8-5.5z" fill="#87898C"/>
  <ellipse cx="15.5" cy="36.7" rx="3.8" ry="9.5" fill="none" stroke="#45413C" stroke-linecap="round" stroke-linejoin="round" stroke-miterlimit="10"/>
  <ellipse cx="32.5" cy="36.7" rx="3.8" ry="9.5" fill="none" stroke="#45413C" stroke-linecap="round" stroke-linejoin="round" stroke-miterlimit="10"/>
  <path d="M24 23.7c-.8 0-1.7.2-2.5.4-.9-1.2-2.3-2.1-3.9-2.2-.2-1.6-1-3-2.2-3.9 0-.2.1-.3.1-.5 0-2.4-2-4.4-4.4-4.4-2.4 0-4.4 2-4.4 4.4 0 .4.1.8.2 1.2-.9 1.1-1.5 2.5-1.5 4.1 0 1.5.6 3 1.5 4C6 28 5.6 29.4 5.6 31c0 4.2 3.4 7.6 7.6 7.6 1 0 2-.2 2.9-.6 1.7 2.1 4.6 3.4 7.9 3.4s6.2-1.4 7.9-3.4c.9.4 1.9.6 2.9.6 4.2 0 7.6-3.4 7.6-7.6 0-1.5-.5-2.9-1.2-4.1.9-1.1 1.5-2.5 1.5-4 0-1.6-.6-3-1.5-4.1.1-.4.2-.8.2-1.2 0-2.4-2-4.4-4.4-4.4-2.4 0-4.4 2-4.4 4.4 0 .2 0 .3.1.5-1.2 1-2 2.3-2.2 3.9-1.6.1-3 .9-3.9 2.2-.9-.3-1.8-.5-2.6-.5z" fill="#E5FEFF"/>
  <path d="M5.8 25.3c.3-.6.6-1.1 1-1.6-.1-.4-.2-.8-.2-1.2 0-2.4 2-4.4 4.4-4.4 2.4 0 4.4 2 4.4 4.4 0 .2 0 .3-.1.5 1.2 1 2 2.3 2.2 3.9 1.6.1 3 .9 3.9 2.2.7-.3 1.6-.4 2.5-.4s1.7.2 2.5.4c.9-1.2 2.3-2.1 3.9-2.2.2-1.6 1-3 2.2-3.9 0-.2-.1-.3-.1-.5 0-2.4 2-4.4 4.4-4.4 2.4 0 4.4 2 4.4 4.4 0 .4-.1.8-.2 1.2.4.5.7 1 1 1.6.3-.8.5-1.6.5-2.5 0-1.6-.6-3-1.5-4.1.1-.4.2-.8.2-1.2 0-2.4-2-4.4-4.4-4.4-2.4 0-4.4 2-4.4 4.4 0 .2 0 .3.1.5-1.2 1-2 2.3-2.2 3.9-1.6.1-3 .9-3.9 2.2-.7-.3-1.6-.4-2.5-.4s-1.7.2-2.5.4c-.9-1.2-2.3-2.1-3.9-2.2-.2-1.6-1-3-2.2-3.9 0-.2.1-.3.1-.5 0-2.4-2-4.4-4.4-4.4-2.4 0-4.4 2-4.4 4.4 0 .4.1.8.2 1.2-.9 1.1-1.5 2.5-1.5 4.1 0 .9.2 1.7.5 2.5z" fill="#FFF"/>
  <path d="M24 23.7c-.8 0-1.7.2-2.5.4-.9-1.2-2.3-2.1-3.9-2.2-.2-1.6-1-3-2.2-3.9 0-.2.1-.3.1-.5 0-2.4-2-4.4-4.4-4.4-2.4 0-4.4 2-4.4 4.4 0 .4.1.8.2 1.2-.9 1.1-1.5 2.5-1.5 4.1 0 1.5.6 3 1.5 4C6 28 5.6 29.4 5.6 31c0 4.2 3.4 7.6 7.6 7.6 1 0 2-.2 2.9-.6 1.7 2.1 4.6 3.4 7.9 3.4s6.2-1.4 7.9-3.4c.9.4 1.9.6 2.9.6 4.2 0 7.6-3.4 7.6-7.6 0-1.5-.5-2.9-1.2-4.1.9-1.1 1.5-2.5 1.5-4 0-1.6-.6-3-1.5-4.1.1-.4.2-.8.2-1.2 0-2.4-2-4.4-4.4-4.4-2.4 0-4.4 2-4.4 4.4 0 .2 0 .3.1.5-1.2 1-2 2.3-2.2 3.9-1.6.1-3 .9-3.9 2.2-.9-.3-1.8-.5-2.6-.5z" fill="none" stroke="#45413C" stroke-linecap="round" stroke-linejoin="round" stroke-miterlimit="10"/>
  <path d="M19.2 5.7c0-.2-1.5-5.2-6.6-4.4C7.4 2 7.7 7.4 8.5 9c.8 1.7 2.7 2 2.7 2s-1.7-3.1 1.1-4.1c1.6-.5 2.3 1.6 2.3 1.6l4.6-2.8z" fill="#FFFACF"/>
  <path d="M12.5 2.7c3.6-.5 5.4 1.8 6.2 3.3l.5-.3c0-.2-1.5-5.2-6.6-4.4-4 .5-4.7 3.8-4.5 6 .2-2 1.3-4.2 4.4-4.6z" fill="#FFFCE5"/>
  <path d="M19.2 5.7c0-.2-1.5-5.2-6.6-4.4C7.4 2 7.7 7.4 8.5 9c.8 1.7 2.7 2 2.7 2s-1.7-3.1 1.1-4.1c1.6-.5 2.3 1.6 2.3 1.6l4.6-2.8z" fill="none" stroke="#45413C" stroke-linecap="round" stroke-linejoin="round" stroke-miterlimit="10"/>
  <path d="M28.8 5.7c0-.2 1.5-5.2 6.6-4.4 5.1.7 4.8 6.1 4 7.8-.8 1.7-2.7 2-2.7 2S38.4 8 35.6 7c-1.6-.5-2.3 1.6-2.3 1.6l-4.5-2.9z" fill="#FFFACF"/>
  <path d="M35.5 3.2c3 .4 4.2 2.5 4.4 4.4.3-2.3-.4-5.7-4.4-6.3-5.1-.7-6.6 4.2-6.6 4.4l.6.4c.8-1.5 2.6-3.4 6-2.9z" fill="#FFFCE5"/>
  <path d="M28.8 5.7c0-.2 1.5-5.2 6.6-4.4 5.1.7 4.8 6.1 4 7.8-.8 1.7-2.7 2-2.7 2S38.4 8 35.6 7c-1.6-.5-2.3 1.6-2.3 1.6l-4.5-2.9z" fill="none" stroke="#45413C" stroke-linecap="round" stroke-linejoin="round" stroke-miterlimit="10"/>
  <path d="M16 8.7s-2.6 2.9-5.3 7.7c-1.6 2.8-1.8 4.4.9 6 3.9 2.3 4.3-2.4 4.9-7 .6-4.6-.5-6.7-.5-6.7z" fill="#BDBEC0" stroke="#45413C" stroke-linecap="round" stroke-linejoin="round" stroke-miterlimit="10"/>
  <path d="M15.1 13.6s-3.4 4-3.1 5.3c.3 1.3 1.4 1.9 2.7 1.8 1.2-.1 1.8-3.5 1.8-3.5l-1.4-3.6z" fill="#FCD" stroke="#45413C" stroke-linecap="round" stroke-linejoin="round" stroke-miterlimit="10"/>
  <path d="M32.2 8.7s2.6 2.9 5.3 7.7c1.6 2.8 1.8 4.4-.9 6-3.9 2.3-4.3-2.4-4.9-7-.7-4.6.5-6.7.5-6.7z" fill="#BDBEC0" stroke="#45413C" stroke-linecap="round" stroke-linejoin="round" stroke-miterlimit="10"/>
  <path d="M33 13.6s3.4 4 3.1 5.3c-.3 1.3-1.4 1.9-2.7 1.8-1.2-.1-1.8-3.5-1.8-3.5l1.4-3.6z" fill="#FCD" stroke="#45413C" stroke-linecap="round" stroke-linejoin="round" stroke-miterlimit="10"/>
  <ellipse cx="24" cy="45.6" rx="14.2" ry="1.5" fill="#45413c" opacity=".15"/>
  <path d="M33.6 14.9c0 8-4.6 14.5-9.6 14.5-5.1 0-9.6-6.5-9.6-14.5S18.9 4.3 24 4.3c5 0 9.6 2.7 9.6 10.6z" fill="#BDBEC0"/>
  <path d="M24 4.3c-4.8 0-9.2 2.4-9.6 9.6.3.1.7.1 1 .1 1.3 0 2.5-.5 3.3-1.2.7 2 2.8 3.4 5.2 3.4 2.6 0 4.8-1.6 5.3-3.8.9 1 2.2 1.7 3.8 1.7h.5c-.3-7.3-4.7-9.8-9.5-9.8z" fill="#87898C"/>
  <path d="M33.6 14.9c0 8-4.6 14.5-9.6 14.5-5.1 0-9.6-6.5-9.6-14.5S18.9 4.3 24 4.3c5 0 9.6 2.7 9.6 10.6z" fill="none" stroke="#45413C" stroke-linecap="round" stroke-linejoin="round" stroke-miterlimit="10"/>
  <path d="M26.9 24.5c0 .8-1.3 2.4-2.9 2.4s-2.9-1.6-2.9-2.4c0-.8 1.3 0 2.9 0s2.9-.8 2.9 0z" fill="#87898c" stroke="#45413c" stroke-linecap="round" stroke-linejoin="round" stroke-miterlimit="10"/>
  <path d="M24 1c-2.5 0-4.6 1.7-5.1 4-.6-.4-1.3-.6-2.1-.6-2.1 0-3.9 1.7-3.9 3.9 0 2.1 1.7 3.9 3.9 3.9 1.2 0 2.3-.6 3-1.5.4 1.9 2.2 3.4 4.2 3.4s3.8-1.5 4.2-3.4c.7.9 1.8 1.5 3 1.5 2.1 0 3.9-1.7 3.9-3.9 0-2.1-1.7-3.9-3.9-3.9-.8 0-1.5.2-2.1.6-.5-2.3-2.6-4-5.1-4z" fill="#E5FEFF"/>
  <path d="M16.8 7.2c.8 0 1.5.2 2.1.6.6-2.3 2.7-4 5.1-4s4.6 1.7 5.1 4c.6-.4 1.3-.6 2.1-.6 1.6 0 3 1 3.6 2.5.2-.4.3-.9.3-1.4 0-2.1-1.7-3.9-3.9-3.9-.8 0-1.5.2-2.1.6-.6-2.3-2.7-4-5.1-4s-4.6 1.7-5.1 4c-.6-.4-1.3-.6-2.1-.6-2.1 0-3.9 1.7-3.9 3.9 0 .5.1.9.3 1.4.5-1.5 1.9-2.5 3.6-2.5z" fill="#FFF"/>
  <path d="M24 1c-2.5 0-4.6 1.7-5.1 4-.6-.4-1.3-.6-2.1-.6-2.1 0-3.9 1.7-3.9 3.9 0 2.1 1.7 3.9 3.9 3.9 1.2 0 2.3-.6 3-1.5.4 1.9 2.2 3.4 4.2 3.4s3.8-1.5 4.2-3.4c.7.9 1.8 1.5 3 1.5 2.1 0 3.9-1.7 3.9-3.9 0-2.1-1.7-3.9-3.9-3.9-.8 0-1.5.2-2.1.6-.5-2.3-2.6-4-5.1-4z" fill="none" stroke="#45413C" stroke-linecap="round" stroke-linejoin="round" stroke-miterlimit="10"/>
  <circle cx="28.4" cy="18" r="1.3" fill="#45413C"/>
  <circle cx="19.6" cy="18" r="1.3" fill="#45413C"/>
  <ellipse cx="30.2" cy="22" rx=".9" ry=".5" fill="#FCD"/>
  <ellipse cx="17.8" cy="22" rx=".9" ry=".5" fill="#FCD"/>
  <path fill="none" stroke="#45413C" stroke-linecap="round" stroke-linejoin="round" stroke-miterlimit="10" d="M24 26.9v2.5M16.4 2l-.8-.3s-1.1-.4-2.7.9c-1.7 1.5-.8 4.4-.8 4.4M8.6 3.9l-.1.4s-.2 1.2.4 2.2c.8 1.2 1.8 1.3 1.8 1.3h.3M31.6 2l.8-.3s1.1-.4 2.7.9c1.7 1.5.8 4.4.8 4.4m3.5-3.1l.1.4s.5 3-2.6 3.4"/>
  <path d="M15.5 42.8c-1.1 0-2-.1-2.7.5.7 1.7 1.6 2.8 2.7 2.8s2-1.1 2.7-2.8c-.7-.6-1.7-.5-2.7-.5z" fill="#FFFACF" stroke="#45413C" stroke-linecap="round" stroke-linejoin="round" stroke-miterlimit="10"/>
  <path fill="none" stroke="#45413C" stroke-linecap="round" stroke-linejoin="round" stroke-miterlimit="10" d="M15.5 42.8v3.3"/>
  <path d="M32.5 42.8c-1.1 0-2-.1-2.7.5.7 1.7 1.6 2.8 2.7 2.8 1 0 2-1.1 2.7-2.8-.7-.6-1.6-.5-2.7-.5z" fill="#FFFACF" stroke="#45413C" stroke-linecap="round" stroke-linejoin="round" stroke-miterlimit="10"/>
  <path fill="none" stroke="#45413C" stroke-linecap="round" stroke-linejoin="round" stroke-miterlimit="10" d="M32.5 42.8v3.3"/>
</svg>
