<svg viewBox="0 0 24 24" xmlns="http://www.w3.org/2000/svg" focusable="false">
  <path d="M18.858 2c1.7 0 3.085 1.358 3.126 3.05v-.001l.001 9.203a5.52 5.52 0 00-2.002-1.557l.001-4.586-.306.135-.595.001c-.075.006-.15.008-.225.008H4.876a1 1 0 00-.864.875l-.007.116v1.874h2.588a3.158 3.158 0 110 6.317l-2.588-.001v1.577a1 1 0 00.884.993l.116.007h7.702a5.52 5.52 0 001.578 2h-9.28a3 3 0 01-3-3V9.244a3 3 0 012.867-2.997V5a3 3 0 013-3h10.986zm-1.173 11.4a4.3 4.3 0 110 8.6 4.3 4.3 0 010-8.6zm.049 1.27a.6.6 0 00-.592.503l-.008.097v2.67l.008.098a.597.597 0 00.11.261l.062.07.063.075 1.313 1.322a.6.6 0 00.92-.763l-.069-.083-1.207-1.215V15.27l-.008-.097a.6.6 0 00-.592-.503zM4.005 12.617v3.316l2.588.002a1.658 1.658 0 00.143-3.31l-.143-.007-2.588-.001zm2.477.66a1 1 0 110 2 1 1 0 010-2zM18.858 4H7.873a1 1 0 00-.994.883L6.873 5 6.87 6.244l12.123.001c.518-.062.928-.476.984-.996l.007-.122c0-.581-.44-1.06-1.004-1.12L18.858 4z" fill="#404040" fill-rule="evenodd"/>
</svg>
