<svg xmlns="http://www.w3.org/2000/svg" viewBox="0 0 32 32">
  <path fill="#ffdaa7" d="M3.5 26.5v-1.86a2.184 2.184 0 00-.13-.72l-2.4-6.2a7.05 7.05 0 01-.47-2.53V10A1.498 1.498 0 012 8.5a1.468 1.468 0 011 .39V4a1.5 1.5 0 013 0V2a1.5 1.5 0 013 0v1a1.5 1.5 0 013 0v2a1.5 1.5 0 013 0v12.756a20 20 0 01-.302 3.462l-.943 5.364z"/>
  <path fill="#2c2b2d" d="M6 10a.5.5 0 01-.5-.5V4a1 1 0 00-2 0v4.89a.5.5 0 01-1 0V4a2 2 0 014 0v5.5a.5.5 0 01-.5.5z"/>
  <path fill="#2c2b2d" d="M9 10a.5.5 0 01-.5-.5V2a1 1 0 00-2 0v7.5a.5.5 0 01-1 0V2a2 2 0 014 0v7.5a.5.5 0 01-.5.5z"/>
  <path fill="#2c2b2d" d="M12 11a.5.5 0 01-.5-.5V3a1 1 0 00-2 0v7.5a.5.5 0 01-1 0V3a2 2 0 014 0v7.5a.5.5 0 01-.5.5z"/>
  <path fill="#2c2b2d" d="M15 13a.5.5 0 01-.5-.5V5a1 1 0 00-2 0v7.5a.5.5 0 01-1 0V5a2 2 0 014 0v7.5a.5.5 0 01-.5.5z"/>
  <path fill="#2c2b2d" d="M13.757 27.082a.534.534 0 01-.088-.008.5.5 0 01-.405-.579l.942-5.364a19.521 19.521 0 00.294-3.375V12.5a.5.5 0 011 0v5.256a20.542 20.542 0 01-.31 3.548l-.942 5.364a.499.499 0 01-.491.414zM3.5 27a.5.5 0 01-.5-.5v-1.86a1.49 1.49 0 00-.102-.541L.504 17.897A7.469 7.469 0 010 15.195V10a2 2 0 014 0v4.19l1.04.52A5.325 5.325 0 018 19.5a.5.5 0 01-1 0 4.331 4.331 0 00-2.407-3.895l-1.317-.658A.501.501 0 013 14.5V10a1 1 0 00-2 0v5.195a6.479 6.479 0 00.437 2.342l2.395 6.201A2.498 2.498 0 014 24.64v1.86a.5.5 0 01-.5.5z"/>
  <rect width="12" height="5" x="3" y="26.5" fill="#3f6db4" rx="1"/>
  <path fill="#2c2b2d" d="M14 32H4a1.502 1.502 0 01-1.5-1.5v-3A1.502 1.502 0 014 26h10a1.502 1.502 0 011.5 1.5v3A1.502 1.502 0 0114 32zM4 27a.5.5 0 00-.5.5v3a.5.5 0 00.5.5h10a.5.5 0 00.5-.5v-3a.5.5 0 00-.5-.5z"/>
  <path fill="#ffdaa7" d="M28.5 26.5v-1.86a2.184 2.184 0 01.13-.72l2.4-6.2a7.05 7.05 0 00.47-2.53V10A1.498 1.498 0 0030 8.5a1.468 1.468 0 00-1 .39V4a1.5 1.5 0 00-3 0V2a1.5 1.5 0 00-3 0v1a1.5 1.5 0 00-3 0v2a1.5 1.5 0 00-3 0v12.756a20 20 0 00.302 3.462l.943 5.364z"/>
  <path fill="#2c2b2d" d="M26 10a.5.5 0 00.5-.5V4a1 1 0 012 0v4.89a.5.5 0 101 0V4a2 2 0 00-4 0v5.5a.5.5 0 00.5.5z"/>
  <path fill="#2c2b2d" d="M23 10a.5.5 0 00.5-.5V2a1 1 0 012 0v7.5a.5.5 0 001 0V2a2 2 0 00-4 0v7.5a.5.5 0 00.5.5z"/>
  <path fill="#2c2b2d" d="M20 11a.5.5 0 00.5-.5V3a1 1 0 012 0v7.5a.5.5 0 001 0V3a2 2 0 00-4 0v7.5a.5.5 0 00.5.5z"/>
  <path fill="#2c2b2d" d="M17 13a.5.5 0 00.5-.5V5a1 1 0 012 0v7.5a.5.5 0 001 0V5a2 2 0 00-4 0v7.5a.5.5 0 00.5.5z"/>
  <path fill="#2c2b2d" d="M18.243 27.082a.534.534 0 00.088-.008.5.5 0 00.405-.579l-.942-5.364a19.521 19.521 0 01-.294-3.375V12.5a.5.5 0 00-1 0v5.256a20.542 20.542 0 00.31 3.548l.942 5.364a.499.499 0 00.491.414zM28.5 27a.5.5 0 00.5-.5v-1.86a1.49 1.49 0 01.102-.541l2.394-6.202A7.469 7.469 0 0032 15.195V10a2 2 0 00-4 0v4.19l-1.04.52A5.325 5.325 0 0024 19.5a.5.5 0 001 0 4.331 4.331 0 012.407-3.895l1.317-.658A.501.501 0 0029 14.5V10a1 1 0 012 0v5.195a6.479 6.479 0 01-.437 2.342l-2.395 6.201a2.498 2.498 0 00-.168.901V26.5a.5.5 0 00.5.5z"/>
  <rect width="12" height="5" x="17" y="26.5" fill="#3f6db4" rx="1" transform="rotate(180 23 29)"/>
  <path fill="#2c2b2d" d="M18 32h10a1.502 1.502 0 001.5-1.5v-3A1.502 1.502 0 0028 26H18a1.502 1.502 0 00-1.5 1.5v3A1.502 1.502 0 0018 32zm10-5a.5.5 0 01.5.5v3a.5.5 0 01-.5.5H18a.5.5 0 01-.5-.5v-3a.5.5 0 01.5-.5z"/>
</svg>
