<svg xmlns="http://www.w3.org/2000/svg" viewBox="0 0 24 24" stroke-width="2" stroke="currentColor" fill="none" stroke-linecap="round" stroke-linejoin="round" focusable="false">
  <path d="M0 0h24v24H0z" stroke="none"/>
  <path d="M7.038 4.5a9 9 0 00-2.495 2.47m-1.357 3.239a9 9 0 000 3.508M4.5 16.962a9 9 0 002.47 2.495m3.239 1.357a9 9 0 003.5 0m3.253-1.314a9 9 0 002.495-2.47m1.357-3.239a9 9 0 000-3.508M19.5 7.038a9 9 0 00-2.47-2.495m-3.239-1.357a9 9 0 00-3.508-.02M12 8l-2 4h4l-2 4m0 5a9 9 0 000-18"/>
</svg>
