<svg xmlns="http://www.w3.org/2000/svg" viewBox="0 0 32 32" focusable="false" fill="currentColor">
  <path d="M20.285 5.898H2.065a1.023 1.023 0 110-2.048h18.22a1.023 1.023 0 110 2.048zm0 10.805H2.065a1.023 1.023 0 110-2.048h18.22a1.023 1.023 0 110 2.048zm0 11.364H2.065a1.023 1.023 0 110-2.048h18.22a1.023 1.023 0 110 2.048zm6.82-19.647a3.546 3.546 0 113.546-3.546 3.55 3.55 0 01-3.545 3.546zm0-5.043a1.498 1.498 0 101.498 1.498 1.5 1.5 0 00-1.497-1.498zm0 15.987a3.546 3.546 0 113.546-3.546 3.55 3.55 0 01-3.545 3.546zm0-5.043a1.498 1.498 0 101.498 1.498 1.5 1.5 0 00-1.497-1.498zm0 16.271a3.546 3.546 0 113.546-3.546 3.55 3.55 0 01-3.545 3.546zm0-5.044a1.498 1.498 0 101.498 1.498 1.5 1.5 0 00-1.497-1.5z"/>
</svg>
