<?xml version="1.0" encoding="UTF-8"?>
<svg width="24px" height="24px" viewBox="0 0 24 24" version="1.1" xmlns="http://www.w3.org/2000/svg" xmlns:xlink="http://www.w3.org/1999/xlink">
    <title>Icons/24/Sort</title>
    <g id="Icons/24/Sort" stroke="none" stroke-width="1" fill="none" fill-rule="evenodd">
        <rect id="Container" fill-opacity="0" fill="#D8D8D8" fill-rule="nonzero" x="0" y="0" width="24" height="24"></rect>
        <g id="Group-3" transform="translate(1.000000, 4.000000)" fill="#404040">
            <g id="Group-2" transform="translate(5.000000, 0.000000)">
                <rect id="Rectangle" transform="translate(8.000000, 1.000000) rotate(-90.000000) translate(-8.000000, -1.000000) " x="7" y="-7" width="2" height="16" rx="1"></rect>
                <rect id="Rectangle-Copy" transform="translate(10.250000, 5.500000) rotate(-90.000000) translate(-10.250000, -5.500000) " x="9.25" y="-0.25" width="2" height="11.5" rx="1"></rect>
                <rect id="Rectangle-Copy-2" transform="translate(12.000000, 10.000000) rotate(-90.000000) translate(-12.000000, -10.000000) " x="11" y="6" width="2" height="8" rx="1"></rect>
                <rect id="Rectangle-Copy-3" transform="translate(13.250000, 14.500000) rotate(-90.000000) translate(-13.250000, -14.500000) " x="12.25" y="11.75" width="2" height="5.5" rx="1"></rect>
            </g>
            <g id="Group" transform="translate(0.000000, 4.000000)">
                <path d="M6,0 C6.55228475,-1.01453063e-16 7,0.44771525 7,1 L7,11 C7,11.5522847 6.55228475,12 6,12 C5.44771525,12 5,11.5522847 5,11 L5,1 C5,0.44771525 5.44771525,1.01453063e-16 6,0 Z" id="Rectangle-Copy-4" transform="translate(6.000000, 6.000000) rotate(-360.000000) translate(-6.000000, -6.000000) "></path>
                <path d="M8,5.85355339 C8.55228475,5.85355339 9,6.30126864 9,6.85355339 L9,11.8535534 C9,12.4058381 8.55228475,12.8535534 8,12.8535534 C7.44771525,12.8535534 7,12.4058381 7,11.8535534 L7,6.85355339 C7,6.30126864 7.44771525,5.85355339 8,5.85355339 Z" id="Rectangle-Copy-4" transform="translate(8.000000, 9.353553) rotate(-315.000000) translate(-8.000000, -9.353553) "></path>
                <path d="M4,5.85355339 C4.55228475,5.85355339 5,6.30126864 5,6.85355339 L5,11.8535534 C5,12.4058381 4.55228475,12.8535534 4,12.8535534 C3.44771525,12.8535534 3,12.4058381 3,11.8535534 L3,6.85355339 C3,6.30126864 3.44771525,5.85355339 4,5.85355339 Z" id="Rectangle-Copy-4" transform="translate(4.000000, 9.353553) scale(-1, 1) rotate(-315.000000) translate(-4.000000, -9.353553) "></path>
            </g>
        </g>
    </g>
</svg>