<svg viewBox="0 0 24 24" xmlns="http://www.w3.org/2000/svg" focusable="false">
  <g fill="none" fill-rule="evenodd">
    <path d="M0 0h24v24H0z"/>
    <g fill="#404040">
      <g transform="translate(6 4)">
        <rect transform="rotate(-90 8 1)" x="7" y="-7" width="2" height="16" rx="1"/>
        <rect transform="rotate(-90 10.25 5.5)" x="9.25" y="-.25" width="2" height="11.5" rx="1"/>
        <rect transform="rotate(-90 12 10)" x="11" y="6" width="2" height="8" rx="1"/>
        <rect transform="rotate(-90 13.25 14.5)" x="12.25" y="11.75" width="2" height="5.5" rx="1"/>
      </g>
      <path d="M7 8a1 1 0 011 1v10a1 1 0 01-2 0V9a1 1 0 011-1z"/>
      <path d="M11.475 14.879a1 1 0 010 1.414l-3.536 3.535a1 1 0 01-1.414-1.414l3.536-3.535a1 1 0 011.414 0z"/>
      <path d="M2.525 14.879a1 1 0 000 1.414l3.536 3.535a1 1 0 001.414-1.414L3.939 14.88a1 1 0 00-1.414 0z"/>
    </g>
  </g>
</svg>
