<svg xmlns="http://www.w3.org/2000/svg" viewBox="0 0 48 48" focusable="false">
  <circle cx="12.7" cy="10.6" r="9.4" fill="#E0E0E0"/>
  <circle cx="35.3" cy="10.6" r="9.4" fill="#E0E0E0"/>
  <path d="M12.7 3.5c4.8 0 8.8 3.6 9.4 8.3 0-.4.1-.8.1-1.2 0-5.2-4.2-9.4-9.4-9.4s-9.4 4.2-9.4 9.4c0 .4 0 .8.1 1.2.4-4.7 4.4-8.3 9.2-8.3zm22.6 0c4.8 0 8.8 3.6 9.4 8.3 0-.4.1-.8.1-1.2 0-5.2-4.2-9.4-9.4-9.4S26 5.4 26 10.6c0 .4 0 .8.1 1.2.4-4.7 4.4-8.3 9.2-8.3z" fill="#F0F0F0"/>
  <circle cx="12.7" cy="10.6" r="9.4" fill="none" stroke="#45413C" stroke-linecap="round" stroke-linejoin="round" stroke-miterlimit="10"/>
  <circle cx="35.3" cy="10.6" r="9.4" fill="none" stroke="#45413C" stroke-linecap="round" stroke-linejoin="round" stroke-miterlimit="10"/>
  <circle cx="12.7" cy="10.6" r="6.6" fill="#BDBEC0"/>
  <circle cx="35.3" cy="10.6" r="6.6" fill="#BDBEC0"/>
  <path d="M12.7 6.5c3.2 0 5.9 2.3 6.5 5.4.1-.4.1-.8.1-1.2 0-3.6-3-6.6-6.6-6.6C9 4 6.1 7 6.1 10.6c0 .4 0 .8.1 1.2.6-3 3.3-5.3 6.5-5.3zm22.6 0c3.2 0 5.9 2.3 6.5 5.4.1-.4.1-.8.1-1.2C41.9 7 39 4 35.3 4c-3.6 0-6.6 3-6.6 6.6 0 .4 0 .8.1 1.2.6-3 3.3-5.3 6.5-5.3z" fill="#87898C"/>
  <circle cx="12.7" cy="10.6" r="6.6" fill="none" stroke="#45413C" stroke-linecap="round" stroke-linejoin="round" stroke-miterlimit="10"/>
  <circle cx="35.3" cy="10.6" r="6.6" fill="none" stroke="#45413C" stroke-linecap="round" stroke-linejoin="round" stroke-miterlimit="10"/>
  <path d="M24 9.2c-6.4 0-11.6 5.2-12 11.7-2.7.9-4.7 3.5-4.7 6.6 0 2.9 2.6 4.7 4.9 5.8 2.5 1.1 3.9 2.7 5.8 4.7 1.6 1.8 2.7 3.5 6 3.5s4.3-1.7 6-3.5c1.9-2 3.3-3.6 5.8-4.7 2.3-1 4.9-2.9 4.9-5.8 0-3.1-2-5.7-4.7-6.6-.3-6.5-5.6-11.7-12-11.7z" fill="#E0E0E0"/>
  <path d="M12 23.6c.3-6.5 5.6-11.7 12-11.7s11.7 5.2 12 11.7c2.3.8 4 2.7 4.5 5.2.1-.4.2-.8.2-1.2 0-3.1-2-5.7-4.7-6.6-.3-6.5-5.6-11.7-12-11.7S12.4 14.5 12 21c-2.7.9-4.7 3.5-4.7 6.6 0 .4.1.8.2 1.2.5-2.5 2.3-4.4 4.5-5.2z" fill="#F0F0F0"/>
  <path d="M24 9.2c-6.4 0-11.6 5.2-12 11.7-2.7.9-4.7 3.5-4.7 6.6 0 2.9 2.6 4.7 4.9 5.8 2.5 1.1 3.9 2.7 5.8 4.7 1.6 1.8 2.7 3.5 6 3.5s4.3-1.7 6-3.5c1.9-2 3.3-3.6 5.8-4.7 2.3-1 4.9-2.9 4.9-5.8 0-3.1-2-5.7-4.7-6.6-.3-6.5-5.6-11.7-12-11.7z" fill="none" stroke="#45413C" stroke-linecap="round" stroke-linejoin="round" stroke-miterlimit="10"/>
  <ellipse cx="24" cy="45.3" rx="11.5" ry="1.5" fill="#45413c" opacity=".15"/>
  <path d="M26.8 34.3c0 .6-1.3 2.2-2.8 2.2-1.6 0-2.8-1.6-2.8-2.2 0-.6 1.3-1.1 2.8-1.1 1.6 0 2.8.5 2.8 1.1z" fill="#FFA694"/>
  <path d="M24 34.6c1 0 1.9.2 2.4.6.2-.3.4-.7.4-.9 0-.6-1.3-1.1-2.8-1.1s-2.8.5-2.8 1.1c0 .2.1.5.4.9.5-.4 1.4-.6 2.4-.6z" fill="#ffcabf"/>
  <path d="M26.8 34.3c0 .6-1.3 2.2-2.8 2.2-1.6 0-2.8-1.6-2.8-2.2 0-.6 1.3-1.1 2.8-1.1 1.6 0 2.8.5 2.8 1.1z" fill="none" stroke="#45413C" stroke-linecap="round" stroke-linejoin="round" stroke-miterlimit="10"/>
  <circle cx="30.2" cy="23.8" r="1.4" fill="#45413C" stroke="#45413C" stroke-linecap="round" stroke-linejoin="round" stroke-miterlimit="10"/>
  <circle cx="17.8" cy="23.8" r="1.4" fill="#45413C" stroke="#45413C" stroke-linecap="round" stroke-linejoin="round" stroke-miterlimit="10"/>
  <ellipse cx="36.2" cy="27.8" rx="1.7" ry="1" fill="#FFA694"/>
  <ellipse cx="11.8" cy="27.8" rx="1.7" ry="1" fill="#FFA694"/>
  <path d="M29.7 33.7s4.4-.9 8.5 2.8m-8.5-.9s4.3.5 6.1 4.2m-17.5-6.1s-4.4-.9-8.5 2.8m8.5-.9s-4.3.5-6.1 4.2" fill="none" stroke="#45413C" stroke-linecap="round" stroke-linejoin="round" stroke-miterlimit="10"/>
</svg>
