<svg data-name="Layer 1" xmlns="http://www.w3.org/2000/svg" viewBox="0 0 24 24" focusable="false">
  <path d="M17 2H7a5.002 5.002 0 00-5 5v10a5.002 5.002 0 005 5h10a5.002 5.002 0 005-5V7a5.002 5.002 0 00-5-5zm1.688 6.87a6.731 6.731 0 01-3.87 3.81 5.656 5.656 0 01-2.92.02 4.589 4.589 0 00-2.21-.02 5.458 5.458 0 00-3.04 3.11.748.748 0 01-.68.42.799.799 0 01-.33-.08.748.748 0 01-.34-1c1.04-2.1 2.37-3.41 3.95-3.88a5.77 5.77 0 012.92-.02 4.352 4.352 0 002.21.02 5.4 5.4 0 002.97-3.04.748.748 0 011-.34.74.74 0 01.34 1z" fill="#030835"/>
</svg>
