<svg viewBox="0 0 24 24" xmlns="http://www.w3.org/2000/svg" focusable="false">
  <path d="M9.5 15.015c4.067 0 7.5.67 7.5 3.254S13.545 21.5 9.5 21.5c-4.067 0-7.5-.67-7.5-3.254s3.454-3.23 7.5-3.23zM18.999 7.5c.496 0 .899.41.899.912v1.176H21.1c.495 0 .899.41.899.911a.907.907 0 01-.899.912h-1.203v1.177a.906.906 0 01-.899.912.907.907 0 01-.899-.912v-1.177h-1.201A.906.906 0 0116 10.5c0-.502.403-.911.899-.911H18.1V8.412c0-.503.404-.912.899-.912zM9.5 2.5c2.755 0 4.963 2.237 4.963 5.027s-2.208 5.027-4.963 5.027-4.963-2.237-4.963-5.027S6.745 2.5 9.5 2.5z"/>
</svg>
