<svg xmlns="http://www.w3.org/2000/svg" viewBox="0 0 24 24">
  <g fill="#200E32">
    <path d="M19.7 10.099a.664.664 0 01-.659-.662v-.966a3.116 3.116 0 00-.859-2.198 3.003 3.003 0 00-2.135-.932h-.702a.665.665 0 01-.658-.67c0-.37.294-.671.658-.671h.702c2.404.03 4.338 2.023 4.338 4.471v.957a.66.66 0 01-.182.473.635.635 0 01-.46.198H19.7zm-15.365 0a.644.644 0 01-.465-.19.668.668 0 01-.193-.472v-.966a4.461 4.461 0 011.251-3.158A4.298 4.298 0 018.014 4h.72c.364 0 .658.3.658.67a.664.664 0 01-.658.671h-.711a2.993 2.993 0 00-2.16.917 3.107 3.107 0 00-.87 2.213v.966a.665.665 0 01-.658.662z" opacity=".4"/>
    <path d="M20.358 14.06v2.513c-.028 2.418-1.937 4.375-4.31 4.418h-.712a.654.654 0 01-.633-.309.681.681 0 010-.715.654.654 0 01.633-.308h.711c1.675-.005 3.03-1.39 3.03-3.095V14.06h1.281zM9.392 20.33a.674.674 0 01-.658.67h-.72c-2.404-.03-4.337-2.023-4.337-4.471V14.06h1.317v2.513c0 1.702 1.35 3.085 3.02 3.095h.72a.644.644 0 01.465.19.668.668 0 01.193.471zM22 13.39c0 .37-.295.67-.658.67H2.658A.665.665 0 012 13.39c0-.37.295-.67.658-.67h18.657a.65.65 0 01.483.186c.13.126.202.301.202.484z"/>
    <path d="M16.574 11.1V9.947c0-.557-.217-1.092-.604-1.486a2.044 2.044 0 00-1.459-.616H9.489c-1.14 0-2.063.941-2.063 2.102V11.1a.257.257 0 00.246.25h8.656a.257.257 0 00.246-.25z" opacity=".4"/>
    <path d="M16.574 14.06v1.002c0 1.16-.924 2.102-2.063 2.102H9.489c-1.14 0-2.063-.941-2.063-2.102V14.06h9.148z"/>
  </g>
</svg>
