<svg xmlns="http://www.w3.org/2000/svg" viewBox="0 0 20 20">
  <path d="M9.5 14.993c-2.477 0-4.493-2.015-4.493-4.493S7.022 6.007 9.5 6.007s4.493 2.015 4.493 4.493-2.015 4.493-4.493 4.493zm0-7.986c-1.926 0-3.493 1.567-3.493 3.493s1.567 3.493 3.493 3.493 3.493-1.567 3.493-3.493S11.426 7.007 9.5 7.007zM9.5 5a.5.5 0 01-.5-.5v-3a.5.5 0 011 0v3a.5.5 0 01-.5.5zm0 15a.5.5 0 01-.5-.5v-3a.5.5 0 011 0v3a.5.5 0 01-.5.5zm-6-9h-3a.5.5 0 010-1h3a.5.5 0 010 1zm15 0h-3a.5.5 0 010-1h3a.5.5 0 010 1zm-14-5a.502.502 0 01-.354-.146l-2-2a.5.5 0 01.707-.707l2 2A.5.5 0 014.499 6zm-2 12a.5.5 0 01-.354-.853l2-2a.5.5 0 01.707.707l-2 2a.498.498 0 01-.354.146zm14 0a.502.502 0 01-.354-.146l-2-2a.5.5 0 01.707-.707l2 2a.5.5 0 01-.354.853zm-2-12a.5.5 0 01-.354-.853l2-2a.5.5 0 01.707.707l-2 2a.498.498 0 01-.354.146z"/>
</svg>
