<?xml version="1.0" encoding="UTF-8"?>
<svg width="24px" height="24px" viewBox="0 0 24 24" version="1.1" xmlns="http://www.w3.org/2000/svg" xmlns:xlink="http://www.w3.org/1999/xlink">
    <title>Icons/24/ArrowRight</title>
    <g id="Icons/24/ArrowRight" stroke="none" stroke-width="1" fill="none" fill-rule="evenodd">
        <rect id="Container" fill-opacity="0" fill="#D8D8D8" fill-rule="nonzero" x="0" y="0" width="24" height="24"></rect>
        <path d="M4,13 C3.44771525,13 3,12.5522847 3,12 C3,11.4477153 3.44771525,11 4,11 L18.5857864,11 L13.2928932,5.70710678 C12.9023689,5.31658249 12.9023689,4.68341751 13.2928932,4.29289322 C13.6834175,3.90236893 14.3165825,3.90236893 14.7071068,4.29289322 L21.7071068,11.2928932 C22.0976311,11.6834175 22.0976311,12.3165825 21.7071068,12.7071068 L14.7071068,19.7071068 C14.3165825,20.0976311 13.6834175,20.0976311 13.2928932,19.7071068 C12.9023689,19.3165825 12.9023689,18.6834175 13.2928932,18.2928932 L18.5857864,13 L4,13 Z" id="Path" fill="#404040" fill-rule="nonzero"></path>
    </g>
</svg>