<svg viewBox="0 0 24 24" xmlns="http://www.w3.org/2000/svg" focusable="false">
  <path d="M20.28 3.22a.749.749 0 010 1.06l-5.463 5.463a.756.756 0 01-.004.004l-6.819 6.82-.006.005-3.707 3.708a.744.744 0 01-.53.22.749.749 0 01-.53-1.28l2.66-2.66c-.68-.032-1.254-.12-1.909-.68-.882-.754-.967-2.251-.972-3.572v-.432l.001-.243v-.242L3 10.96c.005-1.321.09-2.819.973-3.572.74-.633 1.374-.657 2.175-.687.221-.009.47-.018.762-.04.251-.033.98-.633 1.462-1.029 1.406-1.159 3.333-2.745 5.135-1.677a.59.59 0 01.093.064c.864.703 1.205 1.78 1.349 3.473L19.22 3.22a.749.749 0 011.06 0zm-5.987 9.697a.75.75 0 01.74.76c-.038 2.955-.27 4.628-1.433 5.573a.79.79 0 01-.092.063 2.461 2.461 0 01-1.275.353c-1.01 0-1.97-.585-2.68-1.1a.749.749 0 11.879-1.214c1.313.949 1.905.886 2.264.698.582-.52.803-1.687.837-4.393.006-.414.309-.736.76-.74zM12.23 5.11c-.866 0-1.979.916-2.905 1.678-.89.732-1.592 1.31-2.297 1.366-.315.024-.585.035-.823.044-.739.027-.926.045-1.258.33-.453.386-.449 1.934-.447 2.858l.001.246v.247c-.003.924-.007 2.472.446 2.859.34.29.531.308 1.288.334.23.008.488.017.787.038.086.006.174.02.264.042l6.238-6.238c-.073-2.225-.298-3.223-.828-3.697a1.003 1.003 0 00-.466-.107z" fill-rule="evenodd"/>
</svg>
