<svg xmlns="http://www.w3.org/2000/svg" viewBox="0 0 32 32" focusable="false">
  <g transform="translate(-1062.751 -1579.592)">
    <path fill="#938993" d="M1083.251 1586.092h3.5c.831 0 1.5.669 1.5 1.5v21c0 .831-.669 1.5-1.5 1.5h-16c-.83 0-1.5-.669-1.5-1.5v-21c0-.831.67-1.5 1.5-1.5h3.5z"/>
    <circle cx="1078.751" cy="1584.092" r=".5" fill="#0572e4"/>
    <path fill="#f2f2f2" d="M1083.251 1588.092h2c.554 0 1 .446 1 1v18c0 .554-.446 1-1 1h-13c-.554 0-1-.446-1-1v-18c0-.554.446-1 1-1h2"/>
    <path fill="#cdcccd" d="M1081.001 1585.092h2.25v4h-9v-4h2.768a2 2 0 113.465 0z"/>
    <path fill="#62355c" d="M1078.751 1581.594c-.571 0-1.144.195-1.607.584-.72.604-.874 1.531-.69 2.414h-2.203a.5.5 0 00-.5.5v.5h-3c-1.099 0-2 .9-2 2v21c0 1.1.901 2 2 2h16c1.1 0 2-.9 2-2v-21c0-1.1-.9-2-2-2h-3v-.5a.5.5 0 00-.5-.5h-2.203c.185-.883.031-1.81-.69-2.414a2.497 2.497 0 00-1.607-.584zm0 .998c.343 0 .685.116.965.351.56.47.7 1.266.334 1.899a.5.5 0 00.434.75h2.267v.42a.5.5 0 000 .162v1.838a.5.5 0 000 .162v.418h-8v-.422a.5.5 0 000-.16v-1.84a.5.5 0 000-.16v-.418h2.268a.5.5 0 00.434-.75 1.494 1.494 0 01.334-1.899c.28-.235.622-.351.964-.351zm-8 4h3v1h-1.5c-.822 0-1.5.678-1.5 1.5v18c0 .822.678 1.5 1.5 1.5h13c.823 0 1.5-.678 1.5-1.5v-18c0-.822-.677-1.5-1.5-1.5h-1.5v-1h3c.563 0 1 .437 1 1v21c0 .563-.437 1-1 1h-16c-.562 0-1-.437-1-1v-21c0-.563.438-1 1-1zm1.5 2h1.5v.5a.5.5 0 00.5.5h9a.5.5 0 00.5-.5v-.5h1.5c.286 0 .5.214.5.5v18c0 .286-.214.5-.5.5h-13a.488.488 0 01-.5-.5v-18c0-.286.215-.5.5-.5zm1.008 3a.5.5 0 100 1h.985a.5.5 0 100-1h-.985zm2.998 0a.5.5 0 100 1h4.987a.5.5 0 100-1h-4.987zm-2.998 3a.5.5 0 100 1h.985a.5.5 0 100-1h-.985zm2.998 0a.5.5 0 100 1h4.987a.5.5 0 100-1h-4.987zm-2.998 3a.5.5 0 100 1h.985a.5.5 0 100-1h-.985zm2.998 0a.5.5 0 100 1h4.987a.5.5 0 100-1h-4.987zm2.994 5c-.294 0-.506.136-.67.27a2.46 2.46 0 00-.402.43c-.22.289-.363.57-.363.57a.5.5 0 10.887.462s.114-.22.273-.43a1.63 1.63 0 01.225-.242c.029.048.053.085.096.168.065.127.139.283.275.442.136.159.388.33.68.33.291 0 .543-.171.68-.33.136-.16.21-.313.275-.44.02-.039.027-.046.045-.078.018.032.025.04.045.078.065.127.139.28.275.44.137.159.388.33.68.33.291 0 .543-.171.68-.33.136-.16.21-.313.275-.44.044-.085.069-.124.098-.172.067.056.155.148.232.249.163.21.282.43.282.43a.5.5 0 10.88-.471s-.148-.281-.37-.57a2.472 2.472 0 00-.407-.429c-.165-.132-.375-.268-.67-.267-.294 0-.542.182-.672.34-.129.158-.198.31-.261.433-.03.057-.043.072-.066.114-.024-.041-.037-.058-.066-.116-.063-.123-.133-.273-.262-.431-.13-.158-.377-.34-.672-.34-.295 0-.543.182-.672.34-.13.158-.198.308-.262.431-.029.056-.043.072-.066.114-.024-.041-.037-.057-.066-.114-.063-.123-.132-.273-.261-.431-.13-.158-.377-.34-.672-.34zm-.992 3a.5.5 0 100 1h6a.5.5 0 100-1h-6z" color="#000" font-family="sans-serif" font-weight="400" overflow="visible" style="line-height:normal;text-indent:0;text-align:start;text-decoration-line:none;text-decoration-style:solid;text-decoration-color:#000;text-transform:none;block-progression:tb;isolation:auto;mix-blend-mode:normal"/>
  </g>
</svg>
