<svg viewBox="0 0 24 24" xmlns="http://www.w3.org/2000/svg" focusable="false">
  <path d="M22 12c0 5.524-4.477 10-10 10S2 17.524 2 12C2 6.478 6.477 2 12 2s10 4.478 10 10" opacity=".4"/>
  <path d="M7.521 10.803c.661 0 1.198.537 1.198 1.197a1.2 1.2 0 01-1.198 1.197A1.2 1.2 0 016.323 12c0-.66.537-1.197 1.198-1.197zm4.48 0c.66 0 1.197.537 1.197 1.197A1.2 1.2 0 0112 13.197 1.2 1.2 0 0110.802 12c0-.66.537-1.197 1.198-1.197zm4.479 0A1.2 1.2 0 0117.678 12a1.2 1.2 0 01-1.198 1.197A1.2 1.2 0 0115.282 12c0-.66.537-1.197 1.198-1.197z"/>
</svg>
