<svg xmlns="http://www.w3.org/2000/svg" viewBox="0 0 48 48" focusable="false">
  <ellipse cx="24" cy="38.2" rx="13.6" ry="1.9" fill="#45413c" opacity=".15"/>
  <path d="M45.8 20c0 3.7-8 12.1-21.8 12.1S2.2 23.8 2.2 20 10.1 8 24 8s21.8 8.3 21.8 12z" fill="#fff"/>
  <path d="M24 13.8c10.9 0 18.1 5.1 20.7 9.1.7-1.1 1.1-2.1 1.1-2.9 0-3.7-7.9-12-21.8-12S2.2 16.3 2.2 20c0 .8.4 1.8 1.1 2.9 2.6-3.9 9.8-9.1 20.7-9.1z" fill="#e0e0e0"/>
  <path d="M45.8 20c0 3.7-8 12.1-21.8 12.1S2.2 23.8 2.2 20 10.1 8 24 8s21.8 8.3 21.8 12z" fill="none" stroke="#45413C" stroke-linecap="round" stroke-linejoin="round" stroke-miterlimit="10"/>
  <path d="M24 10.8c13.1 0 20.7 8.2 20.8 12 .7-1.1 1-2 1-2.8 0-3.7-7.9-12-21.8-12S2.2 16.3 2.2 20c0 .8.3 1.7 1 2.8.1-3.7 7.7-12 20.8-12z" fill="#656769" stroke="#45413c" stroke-linecap="round" stroke-linejoin="round" stroke-miterlimit="10"/>
  <circle cx="24" cy="20" r="9" fill="#b89558"/>
  <path d="M30.2 13.6c1.1 1.4 1.8 3.2 1.8 5.1 0 4.4-3.6 8.1-8.1 8.1s-8.1-3.6-8.1-8.1c0-1.9.7-3.7 1.8-5.1-1.5 1.6-2.6 3.9-2.6 6.4 0 5 4 9 9 9s9-4 9-9c0-2.5-1.1-4.8-2.8-6.4z" fill="#947746"/>
  <circle cx="24" cy="20" r="9" fill="none" stroke="#45413C" stroke-linecap="round" stroke-linejoin="round" stroke-miterlimit="10"/>
  <circle cx="24" cy="20" r="4" fill="#525252" stroke="#45413c" stroke-linecap="round" stroke-linejoin="round" stroke-miterlimit="10"/>
  <circle cx="20.6" cy="15.8" r="3.1" fill="#fff" stroke="#45413c" stroke-linecap="round" stroke-linejoin="round" stroke-miterlimit="10"/>
</svg>
