<svg viewBox="0 0 24 24" xmlns="http://www.w3.org/2000/svg" focusable="false">
  <path d="M16.353 2C19.73 2 22 4.362 22 7.888v8.214c0 .151-.027.286-.035.432-.005.085-.004.17-.01.255-.005.038-.016.073-.02.111a6.805 6.805 0 01-.155.905c-.018.078-.039.153-.06.23-.08.281-.174.55-.287.807-.033.072-.069.141-.103.212-.122.245-.254.48-.407.698l-.148.192a5.073 5.073 0 01-.513.582c-.06.058-.13.108-.194.163a5.05 5.05 0 01-.607.461c-.078.05-.164.085-.244.13a5.316 5.316 0 01-.687.332c-.1.038-.21.058-.315.091-.239.074-.475.151-.732.195a2.48 2.48 0 01-.198.026l-.41.03c-.175.012-.34.046-.52.046H7.636a6.639 6.639 0 01-1.119-.1c-1.353-.234-2.476-.887-3.263-1.872-.009 0-.009-.01-.018-.019C2.447 19.013 2 17.674 2 16.102V7.888C2 4.362 4.27 2 7.637 2zm0 1.395H7.637c-2.577 0-4.242 1.767-4.242 4.493v8.214c0 .765.142 1.448.385 2.04.031-.038 1.968-2.4 1.977-2.408.692-.79 1.991-1.968 3.696-1.255.41.17.77.41 1.1.62.573.382.91.562 1.26.532.145-.02.281-.063.41-.143.558-.344 2.135-2.644 2.23-2.769 1.09-1.42 2.77-1.8 4.17-.96.094.056.478.32.894.616l.314.226c.312.227.606.448.773.59V7.887c0-2.726-1.665-4.493-4.25-4.493zM8.48 6c.697 0 1.33.293 1.782.761.454.452.739 1.075.739 1.754C11 9.87 9.866 11 8.505 11a2.52 2.52 0 01-2.446-2.006A2.409 2.409 0 016 8.469 2.472 2.472 0 018.479 6z"/>
</svg>
