<svg xmlns="http://www.w3.org/2000/svg" viewBox="0 0 48 48">
  <path d="M42 27.1s2.9.7 4.5 0c-.4 2.4-2.8 3.6-5 3.5s.5-3.5.5-3.5z" fill="#c8ffa1" stroke="#45413c" stroke-linecap="round" stroke-linejoin="round" stroke-miterlimit="10"/>
  <ellipse cx="26" cy="36.4" rx="19" ry="1.5" fill="#45413c" opacity=".15"/>
  <path class="st27" d="M17.5 17.6c0-4.1-3.4-7.5-7.5-7.5s-8.5 4.4-8.5 8.5 4.4 6.5 8.5 6.5h.5c0 3.9 3.1 7 7 7V18.6h-.1c.1-.3.1-.7.1-1z" fill="#C8FFA1"/>
  <path class="st64" d="M17.5 17.6c0-4.1-3.4-7.5-7.5-7.5s-8.5 4.4-8.5 8.5c0 .5.1.9.2 1.4.8-3.6 4.7-7 8.3-7 4.1 0 7.5 3.4 7.5 7.5v-1.8h-.1c.1-.4.1-.8.1-1.1zm0 3.8v-1 1z" fill="#E4FFD1"/>
  <path class="st10" d="M17.5 17.6c0-4.1-3.4-7.5-7.5-7.5s-8.5 4.4-8.5 8.5 4.4 6.5 8.5 6.5h.5c0 3.9 3.1 7 7 7V18.6h-.1c.1-.3.1-.7.1-1z" fill="none" stroke="#45413C" stroke-linecap="round" stroke-linejoin="round" stroke-miterlimit="10"/>
  <path d="M41.6 31.4c.3-1.5.5-3.2.4-4.8-.4-7.5-5.9-13.6-12.4-13.9-7.4-.4-13.6 6.5-13.6 15 0 1.3.1 2.6.4 3.8.1.4.4.8.8.8l1.6.4c6.7 1.6 13.6 1.6 20.3 0l1.6-.4c.5-.2.8-.5.9-.9z" fill="#ebcb00" stroke="#45413c" stroke-linecap="round" stroke-linejoin="round" stroke-miterlimit="10"/>
  <path d="M42 28.2v-1.6c-.4-7.5-5.9-13.6-12.4-13.9-7.4-.4-13.6 6.5-13.6 15v.2c2.2 1.2 6.4 2.8 13.4 2.8 6.2-.1 10.2-1.4 12.6-2.5z" fill="#46b000"/>
  <path d="M16.3 27.9c1.3-6.9 6.8-12 13.2-11.7 6 .3 11 5.4 12.2 12.1.1 0 .2-.1.2-.1v-1.6C41.5 19.1 36 13 29.5 12.7c-7.4-.4-13.6 6.5-13.6 15v.2c.2-.1.3 0 .4 0z" fill="#6dd627"/>
  <path class="st10" d="M42 28.2v-1.6c-.4-7.5-5.9-13.6-12.4-13.9-7.4-.4-13.6 6.5-13.6 15v.2c2.2 1.2 6.4 2.8 13.4 2.8 6.2-.1 10.2-1.4 12.6-2.5z" fill="none" stroke="#45413C" stroke-linecap="round" stroke-linejoin="round" stroke-miterlimit="10"/>
  <path class="st27" d="M21.6 36.1h-6c-.6 0-1-.5-1-1.1l.4-5.4c0-2.2 1.8-4 4-4s4 1.8 4 4l-.4 5.6c-.1.5-.5.9-1 .9zm20.8 0h-6c-.5 0-1-.4-1-.9l-.4-5.6c0-2.2 1.8-4 4-4s4 1.8 4 4l.4 5.4c.1.6-.4 1.1-1 1.1z" fill="#C8FFA1"/>
  <path class="st64" d="M15 32.8c0-2.2 1.8-4 4-4 1.8 0 3.4 1.2 3.8 2.9l.2-2.2c0-2.2-1.8-4-4-4s-4 1.8-4 4l-.4 5.5c0 .2.1.5.2.7l.2-2.9zm24-4c2.2 0 4 1.8 4 4l.2 2.8c.1-.2.2-.4.2-.7l-.4-5.3c0-2.2-1.8-4-4-4s-4 1.8-4 4l.2 2.2c.4-1.7 2-3 3.8-3z" fill="#E4FFD1"/>
  <path class="st10" d="M21.6 36.1h-6c-.6 0-1-.5-1-1.1l.4-5.4c0-2.2 1.8-4 4-4s4 1.8 4 4l-.4 5.6c-.1.5-.5.9-1 .9zm20.8 0h-6c-.5 0-1-.4-1-.9l-.4-5.6c0-2.2 1.8-4 4-4s4 1.8 4 4l.4 5.4c.1.6-.4 1.1-1 1.1z" fill="none" stroke="#45413C" stroke-linecap="round" stroke-linejoin="round" stroke-miterlimit="10"/>
  <circle cx="9.6" cy="15.5" r="1.1" fill="#45413c" stroke="#45413c" stroke-linecap="round" stroke-linejoin="round" stroke-miterlimit="10"/>
  <circle cx="13.2" cy="19.4" r="1.3" fill="#9ceb60"/>
  <path class="st10" d="M3.8 23.1s4 .6 5.2-2.5m11.9-4.8s2.3 3.8 3.6 3.9 2.7-1.9 4.5-1.9 3.8 3 4.9 2.8 4.4-3.4 4.4-3.4m-9.3.6v-5.2m-4.5 7.1s-2.1 3.3-2.4 7.4m11.8-6.5s1.4 2.5 1.9 6.7m-13.1.7s5.5 1.2 12.6.2" fill="none" stroke="#45413C" stroke-linecap="round" stroke-linejoin="round" stroke-miterlimit="10"/>
</svg>
