<svg data-name="Layer 1" xmlns="http://www.w3.org/2000/svg" viewBox="0 0 24 24" focusable="false">
  <path fill="none" d="M0 0h24v24H0z"/>
  <g opacity=".1">
    <path d="M14.078 11.932h6.41a1.521 1.521 0 011.491 1.798A10.081 10.081 0 1110.254 2.027a1.523 1.523 0 011.808 1.487v6.404a2.015 2.015 0 002.016 2.014z"/>
    <path d="M20.051 3.944a7.113 7.113 0 011.911 3.451 1.324 1.324 0 01-1.299 1.604H16.76a1.764 1.764 0 01-1.765-1.765V3.331a1.324 1.324 0 011.604-1.3 7.113 7.113 0 013.452 1.912z"/>
  </g>
  <path d="M14.078 11.932h6.41a1.521 1.521 0 011.491 1.798A10.081 10.081 0 1110.254 2.027a1.523 1.523 0 011.808 1.487v6.404a2.015 2.015 0 002.016 2.014z"/>
  <path d="M20.051 3.944a7.113 7.113 0 011.911 3.451 1.324 1.324 0 01-1.299 1.604H16.76a1.764 1.764 0 01-1.765-1.765V3.331a1.324 1.324 0 011.604-1.3 7.113 7.113 0 013.452 1.912z"/>
</svg>
