<svg viewBox="0 0 24 24" xmlns="http://www.w3.org/2000/svg" focusable="false">
  <g fill="none" fill-rule="evenodd">
    <path d="M0 0h24v24H0z"/>
    <path d="M12 1a2.818 2.818 0 012.818 2.818v.078c.001.2.12.38.313.462a.497.497 0 00.544-.092l.054-.055a2.818 2.818 0 113.987 3.987l-.047.047a.5.5 0 00-.1.551 1 1 0 01.06.18c.093.127.24.205.398.206h.155a2.818 2.818 0 010 5.636h-.078a.5.5 0 00-.458.303l-.004.01a.497.497 0 00.092.544l.055.054a2.818 2.818 0 11-3.987 3.987l-.047-.047a.504.504 0 00-.561-.095.499.499 0 00-.303.453v.155a2.818 2.818 0 01-5.636 0v-.059c-.005-.205-.135-.386-.386-.48a.497.497 0 00-.544.091l-.054.055a2.818 2.818 0 11-3.987-3.987l.047-.047a.504.504 0 00.095-.561.499.499 0 00-.453-.303h-.155a2.818 2.818 0 010-5.636h.059c.205-.005.386-.135.48-.386a.497.497 0 00-.091-.544l-.055-.054a2.818 2.818 0 113.987-3.987l.047.047a.5.5 0 00.551.1 1 1 0 01.18-.06.497.497 0 00.206-.398v-.155A2.818 2.818 0 0112 1zm0 2a.818.818 0 00-.818.818v.159a2.5 2.5 0 01-1.515 2.288 1 1 0 01-.255.07 2.504 2.504 0 01-2.574-.582l-.055-.055a.818.818 0 10-1.158 1.159l.063.062c.714.73.912 1.823.523 2.699A2.507 2.507 0 013.9 11.255h-.082a.818.818 0 100 1.636h.159c.996.004 1.895.6 2.283 1.505a2.504 2.504 0 01-.507 2.766l-.055.055a.818.818 0 101.159 1.158l.062-.063c.73-.714 1.823-.912 2.699-.523a2.507 2.507 0 011.637 2.311v.082a.818.818 0 101.636 0v-.159c.004-.996.6-1.895 1.505-2.283a2.504 2.504 0 012.766.507l.055.055a.818.818 0 101.158-1.159l-.063-.062a2.5 2.5 0 01-.502-2.753 2.501 2.501 0 012.29-1.51h.082a.818.818 0 000-1.636h-.159a2.5 2.5 0 01-2.288-1.515 1 1 0 01-.07-.255 2.505 2.505 0 01.582-2.574l.055-.055a.818.818 0 10-1.159-1.158l-.062.063a2.496 2.496 0 01-2.748.504A2.501 2.501 0 0112.818 3.9v-.082A.818.818 0 0012 3zm0 5a4 4 0 110 8 4 4 0 010-8zm0 2a2 2 0 100 4 2 2 0 000-4z" fill="currentColor" fill-rule="nonzero"/>
  </g>
</svg>
