<svg xmlns="http://www.w3.org/2000/svg" viewBox="0 0 24 24" fill="currentColor" focusable="false">
  <path d="M15.791 2a.712.712 0 01.661.735V3.77C19.461 4.062 21 5.725 21 8.714v8.27C21 20.312 19.104 22 15.374 22H8.626C4.896 22 3 20.31 3 16.985v-8.27c0-1.99.678-3.415 2.07-4.246l.097-.056a.685.685 0 01.635.029.71.71 0 01.35.655.707.707 0 01-.422.61c-.921.548-1.356 1.504-1.356 3.007v.266H17.06c.38 0 .687.313.687.699a.693.693 0 01-.687.698H4.374v6.608c0 2.538 1.235 3.59 4.252 3.609h6.748c2.974 0 4.243-1.08 4.243-3.618v-8.27c0-2.212-.965-3.282-3.165-3.538v.672a.699.699 0 01-.715.606.701.701 0 01-.667-.66V2.674l.012-.11a.702.702 0 01.21-.38.68.68 0 01.5-.182zm.396 14.197l.11.007c.19.024.369.111.506.25a.892.892 0 01.258.628c0 .489-.39.885-.87.885a.877.877 0 01-.87-.885c0-.488.39-.884.87-.884l-.004-.001zm-4.17 0l.11.007a.88.88 0 01.76.878c0 .489-.39.885-.87.885a.877.877 0 01-.87-.885c0-.488.39-.884.87-.884zm-4.169 0l.11.007c.19.024.369.111.506.25a.892.892 0 01.258.628c0 .489-.39.885-.87.885a.877.877 0 01-.87-.885c0-.488.39-.884.87-.884l-.004-.001zm8.339-3.582l.11.007c.19.024.369.11.506.25a.892.892 0 01.258.628c0 .488-.39.884-.87.884a.877.877 0 01-.87-.884c0-.489.39-.885.87-.885h-.004zm-4.17 0l.11.007a.88.88 0 01.76.878c0 .488-.39.884-.87.884a.877.877 0 01-.87-.884c0-.489.39-.885.87-.885zm-4.169 0l.11.007c.19.024.369.11.506.25a.892.892 0 01.258.628c0 .488-.39.884-.87.884a.877.877 0 01-.87-.884c0-.489.39-.885.87-.885h-.004zm.391-10.509a.7.7 0 01.691.63v.963h3.93c.38 0 .688.313.688.699a.693.693 0 01-.687.699H8.913v.699a.705.705 0 01-.204.497.68.68 0 01-.492.201l-.1-.01a.696.696 0 01-.57-.697V2.735l.02-.105a.698.698 0 01.672-.524z"/>
</svg>
