<svg data-name="Layer 1" xmlns="http://www.w3.org/2000/svg" viewBox="0 0 24 24" focusable="false">
  <path d="M10.015 20.723L8.156 21.74a2.049 2.049 0 01-3.018-2.107l.427-2.594a4.046 4.046 0 00-1.113-3.496l-1.867-1.897a2.03 2.03 0 011.16-3.432l2.32-.351A4.1 4.1 0 009.158 5.57l1.202-2.539a1.817 1.817 0 013.278 0L14.84 5.57a4.1 4.1 0 003.095 2.293l2.32.351a2.03 2.03 0 011.159 3.432l-1.867 1.897a4.046 4.046 0 00-1.113 3.496l.427 2.594a2.049 2.049 0 01-3.018 2.107l-1.859-1.018a4.135 4.135 0 00-3.97 0z" fill="#ffb531"/>
  <path d="M7.51 13.418a.498.498 0 01-.357-.149L6.042 12.14a1.707 1.707 0 01.972-2.886l1.38-.209a1.937 1.937 0 001.463-1.084l.715-1.51a1.582 1.582 0 012.855 0l.716 1.51a1.937 1.937 0 001.463 1.084.5.5 0 11-.15.989 2.935 2.935 0 01-2.218-1.645l-.715-1.51a.598.598 0 00-1.046 0l-.715 1.51a2.935 2.935 0 01-2.218 1.645l-1.38.209a.704.704 0 00-.576.48.693.693 0 00.167.716l1.111 1.129a.5.5 0 01-.356.85z" fill="#030835"/>
</svg>
