<svg viewBox="0 0 24 24" xmlns="http://www.w3.org/2000/svg" focusable="false">
  <g stroke="#000" stroke-width="1.5" fill="none" fill-rule="evenodd" stroke-linecap="round" stroke-linejoin="round">
    <path d="M19.325 9.468s-.543 6.735-.858 9.572c-.15 1.355-.987 2.15-2.358 2.174-2.61.047-5.221.05-7.83-.005-1.318-.027-2.141-.83-2.288-2.162-.317-2.862-.857-9.579-.857-9.579" opacity=".4"/>
    <path d="M20.708 6.24H3.75m13.69 0a1.648 1.648 0 01-1.614-1.324L15.583 3.7a1.28 1.28 0 00-1.237-.95h-4.233a1.28 1.28 0 00-1.237.95l-.243 1.216A1.648 1.648 0 017.018 6.24"/>
  </g>
</svg>
