<svg viewBox="0 0 24 24" xmlns="http://www.w3.org/2000/svg" focusable="false">
  <g stroke="#000" stroke-width="1.5" fill="none" fill-rule="evenodd" stroke-linecap="round" stroke-linejoin="round">
    <path d="M12 9.5a2.5 2.5 0 110 5 2.5 2.5 0 010-5z"/>
    <path d="M20.168 7.25h0a2.464 2.464 0 00-3.38-.911c-1.028.597-2.314-.15-2.314-1.347A2.484 2.484 0 0012 2.5h0a2.484 2.484 0 00-2.475 2.492c0 1.196-1.285 1.944-2.313 1.347a2.465 2.465 0 00-3.38.911 2.502 2.502 0 00.906 3.404c1.027.599 1.027 2.093 0 2.692a2.502 2.502 0 00-.906 3.404 2.465 2.465 0 003.379.912h.001c1.028-.598 2.313.15 2.313 1.346h0A2.484 2.484 0 0012 21.5h0a2.484 2.484 0 002.474-2.492h0c0-1.196 1.286-1.944 2.315-1.346a2.465 2.465 0 003.379-.912 2.502 2.502 0 00-.905-3.404h-.001c-1.028-.599-1.028-2.093 0-2.692a2.501 2.501 0 00.906-3.404z"/>
  </g>
</svg>
