<svg viewBox="0 0 24 24" xmlns="http://www.w3.org/2000/svg" focusable="false">
  <path d="M16.436 1C20.063 1 22.5 3.546 22.5 7.335v8.83c0 3.789-2.437 6.335-6.064 6.335H7.064C3.437 22.5 1 19.954 1 16.165v-8.83C1 3.546 3.437 1 7.064 1h9.372zm0 1.5H7.064C4.292 2.5 2.5 4.397 2.5 7.335v8.83C2.5 19.103 4.292 21 7.064 21h9.372C19.209 21 21 19.103 21 16.165v-8.83C21 4.397 19.209 2.5 16.436 2.5zM7.121 9.203a.75.75 0 01.75.75v6.86a.75.75 0 01-1.5 0v-6.86a.75.75 0 01.75-.75zm4.667-3.284a.75.75 0 01.75.75v10.143a.75.75 0 01-1.5 0V6.669a.75.75 0 01.75-.75zm4.59 6.909a.75.75 0 01.75.75v3.234a.75.75 0 01-1.5 0v-3.234a.75.75 0 01.75-.75z" fill-rule="evenodd"/>
</svg>
