<svg xmlns="http://www.w3.org/2000/svg" viewBox="0 0 24 24">
  <path d="M3.5 13.787v-.219a3.6 3.6 0 01.602-1.818 4.87 4.87 0 001.194-2.314c0-.666 0-1.342.058-2.009C5.654 4.218 8.827 2 11.96 2h.078c3.133 0 6.306 2.218 6.617 5.427.058.667 0 1.343.048 2.009a4.955 4.955 0 001.193 2.323c.365.538.573 1.164.602 1.81v.209a3.566 3.566 0 01-.844 2.39 4.505 4.505 0 01-2.853 1.37 45.04 45.04 0 01-9.614 0 4.554 4.554 0 01-2.853-1.37 3.604 3.604 0 01-.834-2.38zm6.055 7.065a3.088 3.088 0 004.288.505c.196-.146.372-.316.524-.505" fill="none" stroke="#200E32" stroke-linecap="round" stroke-linejoin="round" stroke-width="1.5"/>
</svg>
