<svg data-name="Layer 1" xmlns="http://www.w3.org/2000/svg" viewBox="0 0 24 24" focusable="false">
  <path fill="none" d="M0 0h24v24H0z"/>
  <path d="M16.008 22H7.992a5.99 5.99 0 01-5.887-7.091l.867-4.635A5.99 5.99 0 018.86 5.386h6.282a5.99 5.99 0 015.888 4.888l.867 4.635A5.99 5.99 0 0116.009 22z" fill="#20a8ed" opacity=".1"/>
  <path d="M16.008 22H7.992a5.99 5.99 0 01-5.887-7.091l.867-4.635A5.99 5.99 0 018.86 5.386h6.282a5.99 5.99 0 015.888 4.888l.867 4.635A5.99 5.99 0 0116.009 22zm-1.288-5.307H9.28m6.698-9.045L14.72 2M8.022 7.648L9.28 2"/>
</svg>
