<svg xmlns="http://www.w3.org/2000/svg" viewBox="0 0 32 32">
  <g transform="translate(-1109.751 -1580.092)">
    <rect width="19" height="13" x="1116.251" y="1587.593" fill="#c4def9" rx="0" ry="0"/>
    <rect width="23" height="21" x="1114.251" y="1585.593" fill="#cdcccd" rx="1.5" ry="1.658"/>
    <rect width="19" height="13" x="1116.251" y="1587.593" fill="#c4def9" rx="0" ry="0"/>
    <circle cx="1117.251" cy="1603.593" r=".5" fill="#c4def9"/>
    <circle cx="1119.251" cy="1603.593" r=".5" fill="#c4def9"/>
    <circle cx="1121.251" cy="1603.593" r=".5" fill="#c4def9"/>
    <circle cx="1134.251" cy="1603.593" r="1" fill="#c4def9"/>
    <circle cx="1130.251" cy="1603.593" r="1" fill="#c4def9"/>
    <path fill="#c4def9" fill-rule="evenodd" d="M1116.257 1594.762h3.275l1.633-2.554 1.641 5.108 1.633-2.554h1.806l1.469-3.831 2.62 7.662 1.641-3.831h3.27"/>
    <rect width="19" height="13" x="1116.251" y="1587.593" fill="#65c5b4" rx="0" ry="0"/>
    <circle cx="1134.251" cy="1603.593" r="1" fill="#938993"/>
    <circle cx="1130.251" cy="1603.593" r="1" fill="#938993"/>
    <path fill="#62355c" d="M1115.751 1585.092c-1.127 0-2 .997-2 2.158v17.686c0 1.16.873 2.156 2 2.156h20c1.128 0 2-.995 2-2.156v-17.686c0-1.161-.872-2.158-2-2.158h-20zm0 1h20c.535 0 1 .482 1 1.158v17.686c0 .675-.465 1.156-1 1.156h-20c-.534 0-1-.48-1-1.156v-17.686c0-.676.466-1.158 1-1.158zm.5 1a.5.5 0 00-.5.5v7.127a.5.5 0 000 .076v5.797a.5.5 0 00.5.5h19a.5.5 0 00.5-.5v-5.787a.5.5 0 000-.076v-7.137a.5.5 0 00-.5-.5h-19zm.5 1h18v6.17h-2.775a.5.5 0 00-.46.303l-1.13 2.636-2.199-6.431a.5.5 0 00-.502-.338.5.5 0 00-.437.32l-1.346 3.51h-1.463a.5.5 0 00-.422.23l-1.059 1.66-1.318-4.097a.5.5 0 00-.896-.117l-1.487 2.324h-2.506v-6.17zm10.936 4.304l2.174 6.358a.5.5 0 00.931.035l1.514-3.527h2.445v4.83h-18v-4.83h2.782a.5.5 0 00.42-.23l1.06-1.661 1.317 4.098a.5.5 0 00.898.117l1.484-2.324h1.534a.5.5 0 00.466-.32l.975-2.546zm2.564 9.696c-.822 0-1.5.677-1.5 1.5 0 .822.678 1.5 1.5 1.5.823 0 1.5-.678 1.5-1.5 0-.823-.677-1.5-1.5-1.5zm4 0c-.822 0-1.5.677-1.5 1.5 0 .822.678 1.5 1.5 1.5.823 0 1.5-.678 1.5-1.5 0-.823-.677-1.5-1.5-1.5zm-17 1a.5.5 0 00-.5.5.5.5 0 00.5.5.5.5 0 00.5-.5.5.5 0 00-.5-.5zm2 0a.5.5 0 00-.5.5.5.5 0 00.5.5.5.5 0 00.5-.5.5.5 0 00-.5-.5zm2 0a.5.5 0 00-.5.5.5.5 0 00.5.5.5.5 0 00.5-.5.5.5 0 00-.5-.5zm9 0c.283 0 .5.218.5.5 0 .282-.217.5-.5.5a.493.493 0 01-.5-.5c0-.282.218-.5.5-.5zm4 0c.283 0 .5.218.5.5 0 .282-.217.5-.5.5a.493.493 0 01-.5-.5c0-.282.218-.5.5-.5z" color="#000" font-family="sans-serif" font-weight="400" overflow="visible" style="line-height:normal;text-indent:0;text-align:start;text-decoration-line:none;text-decoration-style:solid;text-decoration-color:#000;text-transform:none;block-progression:tb;isolation:auto;mix-blend-mode:normal"/>
  </g>
</svg>
