<svg xmlns="http://www.w3.org/2000/svg" viewBox="0 0 48 48" focusable="false">
  <ellipse cx="25.6" cy="45.1" rx="15" ry="1.6" fill="#45413c" opacity=".15"/>
  <path d="M41.4 37.2c.5 0 .9.5.9 1-.8 5.9-7.4 6.9-17.1 6.9s-16.3-1-17.1-6.9c-.1-.5.3-1 .9-1h32.4z" fill="#bf8256"/>
  <path d="M8.6 39.9c.1-.1.3-.1.4-.1h32.4c.2 0 .3 0 .4.1.2-.5.4-1.1.4-1.7.1-.5-.3-1-.9-1H9c-.5 0-.9.5-.9 1 .1.6.2 1.2.5 1.7z" fill="#dea47a"/>
  <path d="M41.4 37.2c.5 0 .9.5.9 1-.8 5.9-7.4 6.9-17.1 6.9s-16.3-1-17.1-6.9c-.1-.5.3-1 .9-1h32.4z" fill="none" stroke="#45413C" stroke-linecap="round" stroke-linejoin="round" stroke-miterlimit="10"/>
  <path d="M27.6 4.8h-1.1v28H42c.8 0 1.2-.9.6-1.5C36.2 24 31.4 15.4 28.4 5.4c-.1-.3-.4-.6-.8-.6z" fill="#FF6242"/>
  <path d="M31 12.7c-1.5.7-3.1 1.2-4.5 1.7v5.9c2.1-.6 4.4-1.4 6.8-2.6-.8-1.7-1.6-3.3-2.3-5zm4.7 9.2c-3.2 1.8-6.6 2.9-9.2 3.5v5.9c3.2-.7 8-2.1 12.1-5-1-1.4-2-2.9-2.9-4.4z" fill="#FFE500"/>
  <path d="M27.6 4.8h-1.1v28H42c.8 0 1.2-.9.6-1.5C36.2 24 31.4 15.4 28.4 5.4c-.1-.3-.4-.6-.8-.6z" fill="none" stroke="#45413C" stroke-linecap="round" stroke-linejoin="round" stroke-miterlimit="10"/>
  <path d="M24.8 1.3v33.3H6c-.8 0-1.2-.9-.6-1.5 7.6-7.4 14-18.3 19.4-31.8z" fill="#FF6242"/>
  <path d="M24.8 11.1c-1.9.9-3.7 1.6-5.4 2.2-1.6 3-3.2 5.9-4.9 8.5 2.9-.8 6.5-1.9 10.3-3.7v-7zm-19.4 22c-.6.5-.2 1.5.6 1.5h7.3c3.6-1.2 7.6-2.9 11.5-5.3v-7c-5.4 3.3-11.1 5.3-15.4 6.4-1.3 1.6-2.7 3-4 4.4z" fill="#FFE500"/>
  <path d="M24.8 1.3v33.3H6c-.8 0-1.2-.9-.6-1.5 7.6-7.4 14-18.3 19.4-31.8z" fill="none" stroke="#45413C" stroke-linecap="round" stroke-linejoin="round" stroke-miterlimit="10"/>
  <path fill="#bf8256" stroke="#45413c" stroke-linecap="round" stroke-linejoin="round" stroke-miterlimit="10" d="M24.8 1.3h1.8v35.9h-1.8z"/>
</svg>
