<svg xmlns="http://www.w3.org/2000/svg" viewBox="0 0 48 48">
  <style>
    .st1{fill:#ffc258}.st2{fill:#4f4b45}.st3{fill:#fabfa5}.st10{fill:none;stroke:#45413c;stroke-linecap:round;stroke-linejoin:round;stroke-miterlimit:10}.st62{fill:#ff866e}
  </style>
  <symbol id="New_Symbol_14" viewBox="-6.5 -6.5 13 13">
    <path d="M0-6c2.2 0 4.1 1.5 4.7 3.5C6.3-2.5 6.4 0 5 0v1c0 2.8-2.2 5-5 5s-5-2.2-5-5V0c-1.4 0-1.3-2.5.2-2.5C-4.1-4.5-2.2-6 0-6z" fill="#ffd4c3" stroke="#504b46" stroke-linecap="round" stroke-linejoin="round" stroke-miterlimit="10"/>
    <circle class="st1" cx="-1.6" cy="-.1" r=".1" fill="#FFC258"/>
    <path class="st2" d="M-1.6.5c-.3 0-.6-.3-.6-.6s.2-.7.6-.7c.3 0 .6.3.6.7s-.3.6-.6.6z" fill="#4F4B45"/>
    <circle class="st1" cx="1.6" cy="-.1" r=".1" fill="#FFC258"/>
    <path class="st2" d="M1.6.5C1.3.5 1 .2 1-.1s.3-.6.6-.6.6.3.6.6-.2.6-.6.6z" fill="#4F4B45"/>
    <circle class="st3" cx="-3" cy="-1.5" r=".5" fill="#FABFA5"/>
    <circle class="st3" cx="3" cy="-1.5" r=".5" fill="#FABFA5"/>
    <path d="M-1.2-3c.8-.5 1.7-.5 2.5 0" fill="none" stroke="#504b46" stroke-linecap="round" stroke-linejoin="round" stroke-miterlimit="10"/>
  </symbol>
  <g id="Icons">
    <g id="XMLID_1866_">
      <path id="XMLID_1303_" class="st62" d="M39.6 4.9c-1.5-1.1-3.3-1.3-5-.4-.7-1.6-2.1-2.6-3.9-2.8-1.5-.2-2.9.3-3.9 1.3-1.4-1.3-3.2-1.6-5-.9-2.5 1-3.9 3.5-2.6 6.8 1.3 3.3 5.4 7.9 7.9 6.9l.6-.3c.5.5 1 .8 1.5.8.4 0 .9-.1 1.3-.3.2.4.4.7.7.9 2.2 1.6 7.3-1.9 9.3-4.8 2-2.9 1.3-5.7-.9-7.2z" fill="#FF866E"/>
      <path id="XMLID_1302_" d="M21.8 5c1.8-.7 3.6-.4 5 .9 1-1 2.4-1.5 3.9-1.4 1.8.2 3.2 1.2 3.9 2.8 1.6-.9 3.5-.7 5 .4.9.6 1.5 1.4 1.9 2.4.7-2.2-.1-4.1-1.9-5.3-1.5-1.1-3.3-1.3-5-.4-.7-1.6-2.1-2.6-3.9-2.8-1.5-.1-2.9.4-3.9 1.4-1.4-1.3-3.2-1.6-5-.9-2.3.9-3.6 3.1-2.9 5.9.4-1.4 1.5-2.4 2.9-3z" fill="#ffa694"/>
      <path id="XMLID_1299_" class="st10" d="M39.6 4.9c-1.5-1.1-3.3-1.3-5-.4-.7-1.6-2.1-2.6-3.9-2.8-1.5-.2-2.9.3-3.9 1.3-1.4-1.3-3.2-1.6-5-.9-2.5 1-3.9 3.5-2.6 6.8 1.3 3.3 5.4 7.9 7.9 6.9l.6-.3c.5.5 1 .8 1.5.8.4 0 .9-.1 1.3-.3.2.4.4.7.7.9 2.2 1.6 7.3-1.9 9.3-4.8 2-2.9 1.3-5.7-.9-7.2z" fill="none" stroke="#45413C" stroke-linecap="round" stroke-linejoin="round" stroke-miterlimit="10"/>
      <ellipse id="XMLID_1250_" cx="27.3" cy="44.8" rx="11.8" ry="1.5" fill="#45413c" opacity=".15"/>
      <circle id="XMLID_1249_" cx="27.8" cy="25" r="16" fill="#f0f0f0"/>
      <path id="XMLID_1248_" d="M27.8 13.4c8.1 0 14.7 6 15.8 13.8.1-.7.2-1.4.2-2.2 0-8.8-7.1-16-16-16s-16 7.1-16 16c0 .7.1 1.5.2 2.2 1.1-7.8 7.7-13.8 15.8-13.8z" fill="#fff"/>
      <circle id="XMLID_1247_" class="st10" cx="27.8" cy="25" r="16" fill="none" stroke="#45413C" stroke-linecap="round" stroke-linejoin="round" stroke-miterlimit="10"/>
      <path id="XMLID_1246_" class="st62" d="M18.5 37.9c0 3-1.8 4.5-4.1 4.5s-4.1-1.6-4.1-4.5c0-3 1.8-7.8 4.1-7.8s4.1 4.9 4.1 7.8z" fill="#FF866E"/>
      <path id="XMLID_1245_" d="M10.5 36c1.3.4 2.7.7 4.3.6 1.4-.1 2.5-.5 3.4-1.1-.6-2.6-2.1-5.3-3.8-5.3-1.8-.1-3.3 3-3.9 5.8z" fill="#ff6242"/>
      <path id="XMLID_1244_" class="st10" d="M18.5 37.9c0 3-1.8 4.5-4.1 4.5s-4.1-1.6-4.1-4.5c0-3 1.8-7.8 4.1-7.8s4.1 4.9 4.1 7.8z" fill="none" stroke="#45413C" stroke-linecap="round" stroke-linejoin="round" stroke-miterlimit="10"/>
      <path id="XMLID_1243_" d="M5.1 29.6s3.1 3.9 7.7 3.6C17.5 32.9 17 28 17 28L5.1 29.6z" fill="#ebcb00" stroke="#45413c" stroke-linecap="round" stroke-linejoin="round" stroke-miterlimit="10"/>
      <path id="XMLID_1229_" d="M12.9 19.4s-2.4 0-4.6 2.1c-2 1.8-3.5 4.9-4 7.4-.1.5.2 1 .7 1.2 2.8.9 7.2.5 10 .2 3.1-.3 3-2.1 2.1-3.6-1.1-1.7-4.8-2.5-4.2-7.3z" fill="#ffe500"/>
      <path id="XMLID_1215_" d="M4.9 30c.9-2 2.4-4.1 4.2-5.5 1.5-1.1 3-1.6 4.1-1.9-.4-.8-.6-1.9-.4-3.3 0 0-2.4 0-4.6 2.1-2 1.8-3.5 4.9-4 7.4 0 .5.2 1 .7 1.2z" fill="#fff48c"/>
      <path id="XMLID_1214_" class="st10" d="M12.9 19.4s-2.4 0-4.6 2.1c-2 1.8-3.5 4.9-4 7.4-.1.5.2 1 .7 1.2 2.8.9 7.2.5 10 .2 3.1-.3 3-2.1 2.1-3.6-1.1-1.7-4.8-2.5-4.2-7.3z" fill="none" stroke="#45413C" stroke-linecap="round" stroke-linejoin="round" stroke-miterlimit="10"/>
      <circle id="XMLID_1150_" cx="21.5" cy="20.2" r="1.4" fill="#45413c" stroke="#45413c" stroke-linecap="round" stroke-linejoin="round" stroke-miterlimit="10"/>
      <ellipse id="XMLID_1149_" cx="26.3" cy="26" rx="1.5" ry="1" fill="#fcd"/>
    </g>
  </g>
</svg>
