<svg xmlns="http://www.w3.org/2000/svg" viewBox="0 0 32 32" fill="currentColor" focusable="false">
  <path d="M13.498 18.376h.218c1.969-.029 3.568-.727 4.756-2.061 2.555-2.88 2.158-7.767 2.104-8.305-.17-3.588-1.872-5.29-3.273-6.095A7.366 7.366 0 0013.687.97h-.113c-.747 0-2.211.121-3.617.921-1.416.8-3.142 2.516-3.312 6.109-.053.548-.451 5.44 2.104 8.315 1.178 1.338 2.778 2.032 4.752 2.065zM8.601 8.155l.218-.01c.204-4.499 3.394-4.989 4.752-4.989h.073c1.697.039 4.558.737 4.752 4.975 0 .024 0 .058.015.097.029.31.369 4.465-1.561 6.642-.781.873-1.828 1.309-3.205 1.324h-.068c-1.382-.015-2.429-.446-3.2-1.329-1.964-2.196-1.595-6.419-1.571-6.642zm21.993 11.481h-4.267v-4.267a1.125 1.125 0 00-2.25 0v4.267H19.81a1.125 1.125 0 000 2.25h4.267v4.267a1.125 1.125 0 002.25 0v-4.267h4.267a1.125 1.125 0 000-2.25zM2.182 26.25v-.155c.049-1.484.208-2.967 1.581-3.462 2.928-.752 5.333-2.279 6.031-2.754a1.096 1.096 0 10-1.263-1.783l.002-.001a18.16 18.16 0 01-5.218 2.403l-.13.031-.078.024C.145 21.571.048 24.684.004 26.032v.179c-.005.034-.044 3.108.339 4.082.082.209.349.451.402.495l.058.049h21.968v-2.25H2.301a37.894 37.894 0 01-.125-2.284l-.001-.053z"/>
</svg>
