<svg xmlns="http://www.w3.org/2000/svg" viewBox="0 0 32 32">
  <path fill="#37b678" d="M5.5 2.5h21v27h-21z"/>
  <path fill="#2c2b2d" d="M26.5 30h-21a.5.5 0 01-.5-.5v-27a.5.5 0 01.5-.5h21a.5.5 0 01.5.5v27a.5.5 0 01-.5.5zM6 29h20V3H6z"/>
  <path fill="#2c2b2d" d="M23.5 27h-15a.5.5 0 01-.5-.5v-21a.5.5 0 01.5-.5h15a.5.5 0 01.5.5v21a.5.5 0 01-.5.5zM9 26h14V6H9zm-3.5 6a.5.5 0 01-.5-.5v-2a.5.5 0 011 0v2a.5.5 0 01-.5.5zm2.1 0a.5.5 0 01-.5-.5v-2a.5.5 0 111 0v2a.5.5 0 01-.5.5zm2.1 0a.5.5 0 01-.5-.5v-2a.5.5 0 011 0v2a.5.5 0 01-.5.5zm2.1 0a.5.5 0 01-.5-.5v-2a.5.5 0 011 0v2a.5.5 0 01-.5.5zm2.1 0a.5.5 0 01-.5-.5v-2a.5.5 0 111 0v2a.5.5 0 01-.5.5zm2.1 0a.5.5 0 01-.5-.5v-2a.5.5 0 011 0v2a.5.5 0 01-.5.5zm2.1 0a.5.5 0 01-.5-.5v-2a.5.5 0 011 0v2a.5.5 0 01-.5.5zm2.1 0a.5.5 0 01-.5-.5v-2a.5.5 0 011 0v2a.5.5 0 01-.5.5zm2.1 0a.5.5 0 01-.5-.5v-2a.5.5 0 011 0v2a.5.5 0 01-.5.5zm2.1 0a.5.5 0 01-.5-.5v-2a.5.5 0 011 0v2a.5.5 0 01-.5.5zm2.1 0a.5.5 0 01-.5-.5v-2a.5.5 0 011 0v2a.5.5 0 01-.5.5zM5.5 3a.5.5 0 01-.5-.5v-2a.5.5 0 011 0v2a.5.5 0 01-.5.5zm2.1 0a.5.5 0 01-.5-.5v-2a.5.5 0 111 0v2a.5.5 0 01-.5.5zm2.1 0a.5.5 0 01-.5-.5v-2a.5.5 0 011 0v2a.5.5 0 01-.5.5zm2.1 0a.5.5 0 01-.5-.5v-2a.5.5 0 011 0v2a.5.5 0 01-.5.5zm2.1 0a.5.5 0 01-.5-.5v-2a.5.5 0 011 0v2a.5.5 0 01-.5.5zM16 3a.5.5 0 01-.5-.5v-2a.5.5 0 011 0v2a.5.5 0 01-.5.5zm2.1 0a.5.5 0 01-.5-.5v-2a.5.5 0 011 0v2a.5.5 0 01-.5.5zm2.1 0a.5.5 0 01-.5-.5v-2a.5.5 0 011 0v2a.5.5 0 01-.5.5zm2.1 0a.5.5 0 01-.5-.5v-2a.5.5 0 011 0v2a.5.5 0 01-.5.5zm2.1 0a.5.5 0 01-.5-.5v-2a.5.5 0 011 0v2a.5.5 0 01-.5.5zm2.1 0a.5.5 0 01-.5-.5v-2a.5.5 0 011 0v2a.5.5 0 01-.5.5z"/>
  <path fill="#e0e0e2" d="M18.984 17.126l.938-.938a.265.265 0 000-.375l-.938-.94a.265.265 0 01-.078-.187V13.36a.265.265 0 00-.265-.265h-1.327a.265.265 0 01-.188-.078l-.939-.938a.265.265 0 00-.375 0l-.938.938a.265.265 0 01-.188.078H13.36a.265.265 0 00-.265.265v1.327a.265.265 0 01-.078.188l-.938.939a.265.265 0 000 .375l.938.938a.265.265 0 01.078.188v1.327a.265.265 0 00.265.265h1.327a.265.265 0 01.188.078l.939.938a.265.265 0 00.375 0l.938-.938a.265.265 0 01.188-.078h1.327a.265.265 0 00.265-.265v-1.327a.265.265 0 01.078-.188z"/>
  <path fill="#2c2b2d" d="M16 20.5a.76.76 0 01-.541-.224l-.87-.87h-1.23a.766.766 0 01-.765-.765v-1.23l-.87-.87a.765.765 0 010-1.082l.87-.87v-1.23a.766.766 0 01.765-.765h1.23l.87-.87a.783.783 0 011.082 0l.87.87h1.23a.766.766 0 01.765.765v1.23l.87.87a.763.763 0 01-.003 1.084l-.867.867v1.231a.766.766 0 01-.765.765h-1.23l-.87.87A.76.76 0 0116 20.5zm-2.406-2.094h1.093a.76.76 0 01.54.224l.773.773.772-.773a.76.76 0 01.541-.224h1.093v-1.093a.758.758 0 01.224-.54l.772-.773-.772-.772a.758.758 0 01-.224-.541v-1.093h-1.093a.76.76 0 01-.54-.224L16 12.597l-.772.773a.76.76 0 01-.541.224h-1.093v1.093a.76.76 0 01-.224.54l-.773.773.773.772a.76.76 0 01.224.541zm5.974-2.24l.002.001zm0-.332v.001z"/>
  <path fill="#e0e0e2" d="M11 10.5A2.5 2.5 0 018.5 8V5.5H11A2.5 2.5 0 0113.5 8a2.5 2.5 0 01-2.5 2.5z"/>
  <path fill="#2c2b2d" d="M11 11a3.003 3.003 0 01-3-3V5.5a.5.5 0 01.5-.5H11a3 3 0 010 6zM9 6v2a2 2 0 102-2z"/>
  <path fill="#e0e0e2" d="M21 5.5h2.5V8a2.5 2.5 0 01-2.5 2.5A2.5 2.5 0 0118.5 8 2.5 2.5 0 0121 5.5z"/>
  <path fill="#2c2b2d" d="M21 11a3 3 0 010-6h2.5a.5.5 0 01.5.5V8a3.003 3.003 0 01-3 3zm0-5a2 2 0 102 2V6z"/>
  <path fill="#e0e0e2" d="M11 26.5H8.5V24a2.5 2.5 0 012.5-2.5 2.5 2.5 0 012.5 2.5 2.5 2.5 0 01-2.5 2.5z"/>
  <path fill="#2c2b2d" d="M11 27H8.5a.5.5 0 01-.5-.5V24a3 3 0 113 3zm-2-1h2a2 2 0 10-2-2z"/>
  <path fill="#e0e0e2" d="M21 21.5a2.5 2.5 0 012.5 2.5v2.5H21a2.5 2.5 0 01-2.5-2.5 2.5 2.5 0 012.5-2.5z"/>
  <path fill="#2c2b2d" d="M23.5 27H21a3 3 0 113-3v2.5a.5.5 0 01-.5.5zM21 22a2 2 0 000 4h2v-2a2.002 2.002 0 00-2-2z"/>
  <circle cx="11" cy="24" r=".5" fill="#2c2b2d"/>
  <circle cx="21" cy="24" r=".5" fill="#2c2b2d"/>
  <circle cx="16" cy="16" r=".5" fill="#2c2b2d"/>
  <circle cx="11" cy="8" r=".5" fill="#2c2b2d"/>
  <circle cx="21" cy="8" r=".5" fill="#2c2b2d"/>
</svg>
