<svg xmlns="http://www.w3.org/2000/svg" viewBox="0 0 48 48" focusable="false">
  <ellipse cx="24.3" cy="41.7" rx="13.5" ry="1.5" fill="#45413c" opacity=".15"/>
  <path d="M42 24.9l-4.7-1.2c-1.1 1.3-2.9 1.9-4.7 1.5-1.1 1.1-2.8 1.6-4.4 1.1-1.5-.3-2.6-1.3-3.2-2.5-.4 0-.7 0-1.1-.1-2-.5-3.4-2.2-3.6-4.2L3.5 15.2c-.9-.2-1.8.4-2 1.3-1.9 11 5 21.7 16 24.5 11 2.8 22.1-3.4 25.7-14 .2-.9-.3-1.8-1.2-2.1z" fill="#9ceb60"/>
  <path d="M42.3 29.1l.9-2.1c.3-.9-.2-1.8-1.1-2.1l-4.7-1.2c-1.1 1.3-2.9 1.9-4.7 1.5-.5.5-1.1.8-1.7 1l11.3 2.9zM25.8 25c-.3-.3-.6-.7-.8-1.2-.4 0-.7 0-1.1-.1-2-.5-3.4-2.2-3.6-4.2L3.5 15.2c-.9-.2-1.8.4-2 1.3-.1.8-.2 1.5-.3 2.3L25.8 25z" fill="#C8FFA1"/>
  <path d="M42 24.9l-4.7-1.2c-1.1 1.3-2.9 1.9-4.7 1.5-1.1 1.1-2.8 1.6-4.4 1.1-1.5-.3-2.6-1.3-3.2-2.5-.4 0-.7 0-1.1-.1-2-.5-3.4-2.2-3.6-4.2L3.5 15.2c-.9-.2-1.8.4-2 1.3-1.9 11 5 21.7 16 24.5 11 2.8 22.1-3.4 25.7-14 .2-.9-.3-1.8-1.2-2.1z" fill="none" stroke="#45413C" stroke-linecap="round" stroke-linejoin="round" stroke-miterlimit="10"/>
  <path d="M37.3 23.8c-1.1 1.3-2.9 1.9-4.7 1.5-1.1 1.1-2.8 1.6-4.4 1.1-1.5-.4-2.6-1.4-3.2-2.6-.4 0-.7 0-1.1-.1-2-.5-3.4-2.2-3.6-4.2l-15.7-4c-2.5 10 3.5 20.2 13.6 22.8 10 2.5 20.2-3.5 22.8-13.6l-3.7-.9z" fill="#fffacf"/>
  <path d="M39.5 28.4c.6-1.2 1.1-2.4 1.4-3.8l-3.6-.9c-1.1 1.3-2.9 1.9-4.7 1.5-.5.5-1.1.8-1.7 1l8.6 2.2zM25.8 25c-.3-.3-.6-.7-.8-1.2-.4 0-.7 0-1.1-.1-2-.5-3.4-2.2-3.6-4.2l-15.7-4c-.3 1.3-.5 2.7-.6 4L25.8 25z" fill="#FFF"/>
  <path d="M37.3 23.8c-1.1 1.3-2.9 1.9-4.7 1.5-1.1 1.1-2.8 1.6-4.4 1.1-1.5-.4-2.6-1.4-3.2-2.6-.4 0-.7 0-1.1-.1-2-.5-3.4-2.2-3.6-4.2l-15.7-4c-2.5 10 3.5 20.2 13.6 22.8 10 2.5 20.2-3.5 22.8-13.6l-3.7-.9z" fill="none" stroke="#45413C" stroke-linecap="round" stroke-linejoin="round" stroke-miterlimit="10"/>
  <path d="M37.3 23.8c-1.1 1.3-2.9 1.9-4.7 1.5-1.1 1.1-2.8 1.6-4.4 1.1-1.5-.4-2.6-1.4-3.2-2.6-.4 0-.7 0-1.1-.1-2-.5-3.4-2.2-3.6-4.2L6.9 16.1C4.7 24.8 10 33.7 18.8 35.9c8.8 2.2 17.6-3.1 19.8-11.8l-1.3-.3z" fill="#ff87af"/>
  <path d="M37.1 27.8c.6-1.2 1.1-2.4 1.5-3.7l-1.3-.3c-1.1 1.3-2.9 1.9-4.7 1.5-.5.5-1.1.8-1.7 1l6.2 1.5zM25.8 25c-.3-.3-.6-.7-.8-1.2-.4 0-.7 0-1.1-.1-2-.5-3.4-2.2-3.6-4.2L6.9 16.1c-.3 1.3-.5 2.7-.5 4L25.8 25z" fill="#FFB0CA"/>
  <path d="M37.3 23.8c-1.1 1.3-2.9 1.9-4.7 1.5-1.1 1.1-2.8 1.6-4.4 1.1-1.5-.4-2.6-1.4-3.2-2.6-.4 0-.7 0-1.1-.1-2-.5-3.4-2.2-3.6-4.2L6.9 16.1C4.7 24.8 10 33.7 18.8 35.9c8.8 2.2 17.6-3.1 19.8-11.8l-1.3-.3z" fill="none" stroke="#45413C" stroke-linecap="round" stroke-linejoin="round" stroke-miterlimit="10"/>
  <path d="M9.8 20.9c-.1.4.2.9.6 1 .4.1.9-.2 1-.6l.2-.8c.1-.4-.2-.9-.6-1-.4-.1-.9.2-1 .6l-.2.8zm2.9 4.9c-.1.4.2.9.6 1 .4.1.9-.2 1-.6l.2-.8c.1-.4-.2-.9-.6-1-.4-.1-.9.2-1 .6l-.2.8zm4.8-2.9c-.1.4.2.9.6 1 .4.1.9-.2 1-.6l.2-.8c.1-.4-.2-.9-.6-1-.4-.1-.9.2-1 .6l-.2.8zm11.4 7c-.1.4-.5.7-1 .6-.4-.1-.7-.5-.6-1l.2-.8c.1-.4.5-.7 1-.6.4.1.7.5.6 1l-.2.8zm-13.3.7c-.1.4.2.9.6 1 .4.1.9-.2 1-.6l.2-.8c.1-.4-.2-.9-.6-1-.4-.1-.9.2-1 .6l-.2.8zm8.5 2.2c-.1.4-.5.7-1 .6-.4-.1-.7-.5-.6-1l.2-.8c.1-.4.5-.7 1-.6.4.1.7.5.6 1l-.2.8zM20 27.6c-.1.4.2.9.6 1 .4.1.9-.2 1-.6l.2-.8c.1-.4-.2-.9-.6-1-.4-.1-.9.2-1 .6l-.2.8z" fill="#FF6196" stroke="#45413C" stroke-linecap="round" stroke-linejoin="round" stroke-miterlimit="10"/>
  <path d="M34.1 7.1c.2-.9-.1-1.7-.8-1.9-.7-.2-1.4.4-1.6 1.2-.2.6 0 2.6.1 3.7 0 .3.3.3.4.1.6-.8 1.7-2.5 1.9-3.1z" fill="#FFF"/>
  <path d="M33 6.3c-.5-.1-1.1.2-1.4.7 0-.2 0-.4.1-.5.2-.9.9-1.4 1.6-1.2.7.2 1 1 .8 1.9 0 .1-.1.3-.2.5-.1-.7-.4-1.3-.9-1.4z" fill="#FFE5EE"/>
  <path d="M34.1 7.1c.2-.9-.1-1.7-.8-1.9-.7-.2-1.4.4-1.6 1.2-.2.6 0 2.6.1 3.7 0 .3.3.3.4.1.6-.8 1.7-2.5 1.9-3.1z" fill="none" stroke="#45413C" stroke-linecap="round" stroke-linejoin="round" stroke-miterlimit="10"/>
  <path d="M41 11.1c.5-.7.5-1.6 0-2-.5-.4-1.4-.2-2 .5-.4.5-1 2.4-1.4 3.4-.1.3.1.4.4.3.9-.6 2.6-1.7 3-2.2z" fill="#FFF"/>
  <path d="M40.3 9.9c-.4-.3-1.1-.2-1.6.1.1-.2.2-.4.3-.5.5-.7 1.4-.9 2-.5.5.4.5 1.3 0 2l-.4.4c.3-.5.2-1.1-.3-1.5z" fill="#FFE5EE"/>
  <path d="M41 11.1c.5-.7.5-1.6 0-2-.5-.4-1.4-.2-2 .5-.4.5-1 2.4-1.4 3.4-.1.3.1.4.4.3.9-.6 2.6-1.7 3-2.2z" fill="none" stroke="#45413C" stroke-linecap="round" stroke-linejoin="round" stroke-miterlimit="10"/>
  <path d="M45.9 17.5c.8-.4 1.1-1.3.8-1.9-.3-.6-1.2-.7-2-.3-.6.3-1.9 1.9-2.6 2.7-.2.2 0 .4.2.4 1-.2 3-.6 3.6-.9z" fill="#FFF"/>
  <path d="M45.7 16.1c-.3-.5-.9-.6-1.5-.5.2-.1.3-.3.4-.3.8-.4 1.7-.3 2 .3.3.6 0 1.4-.8 1.9-.1.1-.3.1-.5.2.5-.5.7-1.1.4-1.6z" fill="#FFE5EE"/>
  <path d="M45.9 17.5c.8-.4 1.1-1.3.8-1.9-.3-.6-1.2-.7-2-.3-.6.3-1.9 1.9-2.6 2.7-.2.2 0 .4.2.4 1-.2 3-.6 3.6-.9z" fill="none" stroke="#45413C" stroke-linecap="round" stroke-linejoin="round" stroke-miterlimit="10"/>
  <path d="M24.1 6.6c-.1-.9.3-1.7 1-1.8.7-.1 1.3.5 1.4 1.4.1.6-.3 2.6-.5 3.7-.1.3-.3.3-.4.1-.5-.9-1.4-2.8-1.5-3.4z" fill="#FFF"/>
  <path d="M25.3 5.9c.5-.1 1 .3 1.3.9v-.5c-.1-.9-.8-1.5-1.4-1.4-.7.1-1.1.9-1 1.8 0 .1.1.3.1.5.1-.7.5-1.2 1-1.3z" fill="#FFE5EE"/>
  <path d="M24.1 6.6c-.1-.9.3-1.7 1-1.8.7-.1 1.3.5 1.4 1.4.1.6-.3 2.6-.5 3.7-.1.3-.3.3-.4.1-.5-.9-1.4-2.8-1.5-3.4z" fill="none" stroke="#45413C" stroke-linecap="round" stroke-linejoin="round" stroke-miterlimit="10"/>
  <path d="M16.7 9.7c-.4-.8-.3-1.7.3-2 .6-.3 1.4 0 1.9.8.3.5.7 2.5.9 3.5 0 .3-.2.4-.4.2-.8-.6-2.3-2-2.7-2.5z" fill="#FFF"/>
  <path d="M17.5 8.6c.5-.3 1.1-.1 1.5.3 0-.2 0-.4-.1-.5-.4-.8-1.3-1.1-1.9-.8-.6.3-.7 1.2-.3 2 .1.1.2.3.3.4-.1-.5.1-1.1.5-1.4z" fill="#FFE5EE"/>
  <path d="M16.7 9.7c-.4-.8-.3-1.7.3-2 .6-.3 1.4 0 1.9.8.3.5.7 2.5.9 3.5 0 .3-.2.4-.4.2-.8-.6-2.3-2-2.7-2.5z" fill="none" stroke="#45413C" stroke-linecap="round" stroke-linejoin="round" stroke-miterlimit="10"/>
</svg>
