<svg xmlns="http://www.w3.org/2000/svg" viewBox="0 0 24 24" fill-rule="evenodd" stroke="currentColor" stroke-linecap="round" stroke-linejoin="round" stroke-width="1.5" focusable="false">
  <g transform="translate(2.5 1.5)">
    <path d="M18.307 6.124l-.623-1.08a1.913 1.913 0 00-2.608-.705h0a1.904 1.904 0 01-2.61-.678 1.83 1.83 0 01-.255-.915h0A1.913 1.913 0 0010.297.778H9.043A1.904 1.904 0 007.14 2.691h0a1.913 1.913 0 01-1.913 1.886 1.83 1.83 0 01-.916-.257h0a1.913 1.913 0 00-2.608.705l-.669 1.099a1.913 1.913 0 00.696 2.608h0a1.913 1.913 0 010 3.314h0a1.904 1.904 0 00-.696 2.6h0l.632 1.089a1.913 1.913 0 002.609.741h0a1.895 1.895 0 012.6.696c.164.277.252.593.255.915h0c0 1.057.857 1.913 1.913 1.913h1.254c1.053 0 1.908-.85 1.914-1.904h0a1.904 1.904 0 011.913-1.913c.321.009.636.097.915.256h0a1.913 1.913 0 002.609-.695h0l.659-1.099a1.904 1.904 0 00-.696-2.608h0a1.904 1.904 0 01-.696-2.61 1.88 1.88 0 01.696-.695h0a1.913 1.913 0 00.696-2.6h0v-.008z"/>
    <circle cx="9.675" cy="10.389" r="2.636"/>
  </g>
</svg>
