<svg viewBox="0 0 24 24" xmlns="http://www.w3.org/2000/svg" focusable="false">
  <path d="M18.809 9.021c-.452 0-1.05-.01-1.794-.01-1.816 0-3.31-1.503-3.31-3.336V2.459A.457.457 0 0013.253 2H7.964C5.496 2 3.5 4.026 3.5 6.509v10.775C3.5 19.889 5.591 22 8.17 22h7.876c2.46 0 4.454-2.013 4.454-4.498V9.471a.454.454 0 00-.453-.458c-.423.003-.93.008-1.238.008" opacity=".4"/>
  <path d="M16.084 2.567a.477.477 0 00-.82.334v2.637c0 1.106.91 2.016 2.015 2.016.698.008 1.666.01 2.488.008a.477.477 0 00.343-.808l-4.026-4.187" opacity=".4"/>
  <path d="M15.105 12.709a.745.745 0 00-1.054.002l-1.589 1.597V9.48a.746.746 0 00-1.49 0v4.827l-1.59-1.597a.744.744 0 10-1.056 1.05l2.863 2.877h.001a.745.745 0 001.053 0h.002l2.862-2.876a.744.744 0 00-.002-1.053"/>
</svg>
