<svg viewBox="0 0 24 24" xmlns="http://www.w3.org/2000/svg" focusable="false">
  <g fill="none" fill-rule="evenodd">
    <path d="M0 0h24v24H0z"/>
    <path d="M15 3a1 1 0 01.916.599l.738 1.686H19a3 3 0 012.995 2.824l.005.177V18a3 3 0 01-3 3H5a3 3 0 01-3-3V8.287a3 3 0 013-3.001l2.345-.001.739-1.686a1 1 0 01.785-.59l.13-.01zm-.655 2H9.654l-.737 1.687a1.001 1.001 0 01-.786.59L8 7.286H5a1 1 0 00-1 1V18a1 1 0 001 1h14a1 1 0 001-1V8.286a1 1 0 00-1-1h-3a1 1 0 01-.916-.6L14.344 5zM9.257 8.959a.203.203 0 01.235.019l.04.049.476.791a4 4 0 015.382 1.2l.105.169a4.006 4.006 0 01-2.252 5.889 3.962 3.962 0 01-3.966-.954c-.164-.166-.47-.586-.494-.616-.018-.026-.054-.076-.051-.077a1 1 0 01-.196-.571 1.02 1.02 0 011.016-1.023c.348 0 .652.18.835.451l.07.105c.066.1.162.24.215.293a2.003 2.003 0 003.11-2.467 2.001 2.001 0 00-2.614-.757l-.13.074.525.873a.197.197 0 01.027.085v.046a.198.198 0 01-.171.17h-.055l-3.118-.426a.2.2 0 01-.172-.215l.012-.052 1.088-2.954a.192.192 0 01.084-.102z" fill="#404040"/>
  </g>
</svg>
