<?xml version="1.0" encoding="UTF-8"?>
<svg width="24px" height="24px" viewBox="0 0 24 24" version="1.1" xmlns="http://www.w3.org/2000/svg" xmlns:xlink="http://www.w3.org/1999/xlink">
    <title>Icons/24/Gift</title>
    <g id="Icons/24/Gift" stroke="none" stroke-width="1" fill="none" fill-rule="evenodd">
        <rect id="Container" fill-opacity="0" fill="#D8D8D8" fill-rule="nonzero" x="0" y="0" width="24" height="24"></rect>
        <path d="M16,3 C17.7147803,3 19,4.32122175 19,6 C19,6.3522902 18.9434032,6.6888348 18.8381168,7.00072852 L20,7 C20.5522847,7 21,7.44771525 21,8 L21,8 L21,12 C21,12.5522847 20.5522847,13 20,13 L20,13 L19,13 L19,18 C19,19.5976809 17.75108,20.9036609 16.1762728,20.9949073 L16,21 L8,21 C6.40231912,21 5.09633912,19.75108 5.00509269,18.1762728 L5,18 L5,13 L4,13 C3.48716416,13 3.06449284,12.6139598 3.00672773,12.1166211 L3,12 L3,8 C3,7.44771525 3.44771525,7 4,7 L4,7 L5.16188318,7.00072852 C5.05659679,6.6888348 5,6.3522902 5,6 C5,4.32122175 6.28521968,3 8,3 C9.71245394,3 11.0265757,3.95572493 11.9729983,5.47000106 C11.9826243,5.48540264 11.9921792,5.50080002 12.0016635,5.51619183 L12.0270017,5.47000106 C12.9734243,3.95572493 14.2875461,3 16,3 Z M17,13 L7,13 L7,18 C7,18.5128358 7.38604019,18.9355072 7.88337887,18.9932723 L8,19 L16,19 C16.5128358,19 16.9355072,18.6139598 16.9932723,18.1166211 L17,18 L17,13 Z M19,9 L5,9 L5,11 L19,11 L19,9 Z M8,5 C7.40234385,5 7,5.41361446 7,6 C7,6.58638554 7.40234385,7 8,7 L8,7 L10.54,7 L10.4457047,6.81785544 L10.2770017,6.52999894 C9.66092428,5.54427507 8.91254606,5 8,5 Z M16,5 C15.0874539,5 14.3390757,5.54427507 13.7229983,6.52999894 C13.6642376,6.62401602 13.6080011,6.72014155 13.5542953,6.81785544 L13.5542953,6.81785544 L13.459,7 L16,7 C16.5549664,7 16.9415258,6.64336304 16.9939171,6.12292182 L16.9939171,6.12292182 L17,6 C17,5.41361446 16.5976562,5 16,5 Z" id="Combined-Shape" fill="#404040"></path>
    </g>
</svg>