<svg viewBox="0 0 24 24" xmlns="http://www.w3.org/2000/svg" focusable="false">
  <g fill="none" fill-rule="evenodd">
    <path d="M0 0h24v24H0z"/>
    <path d="M16 3c1.715 0 3 1.321 3 3 0 .352-.057.689-.162 1H20a1 1 0 011 1v4a1 1 0 01-1 1h-1v5a3 3 0 01-2.824 2.995L16 21H8a3 3 0 01-2.995-2.824L5 18v-5H4a1 1 0 01-.993-.883L3 12V8a1 1 0 011-1h1.162A3.123 3.123 0 015 6c0-1.679 1.285-3 3-3 1.712 0 3.027.956 3.973 2.47l.029.046.025-.046C12.973 3.956 14.287 3 16 3zm1 10H7v5a1 1 0 00.883.993L8 19h8a1 1 0 00.993-.883L17 18v-5zm2-4H5v2h14V9zM8 5c-.598 0-1 .414-1 1 0 .586.402 1 1 1h2.54l-.094-.182-.169-.288C9.661 5.544 8.913 5 8 5zm8 0c-.913 0-1.66.544-2.277 1.53-.059.094-.115.19-.169.288L13.46 7H16c.555 0 .942-.357.994-.877L17 6c0-.586-.402-1-1-1z" fill="#404040"/>
  </g>
</svg>
