<svg viewBox="0 0 24 24" xmlns="http://www.w3.org/2000/svg" focusable="false">
  <g fill="none" fill-rule="evenodd">
    <path d="M0 0h24v24H0z"/>
    <path d="M12 2c5.523 0 10 4.477 10 10s-4.477 10-10 10S2 17.523 2 12a1 1 0 012 0 8 8 0 103.397-6.544l.16.161 1.52 1.519a.73.73 0 01.218.522.73.73 0 01-.219.523.737.737 0 01-.406.208l-.118.009h-4.93a.743.743 0 01-.735-.64l-.006-.1V2.74c0-.408.334-.74.742-.74.106 0 .239.047.4.14l.125.077 1.815 1.81A9.964 9.964 0 0112 2zm-.283 5.845c.474 0 .864.356.918.815l.006.108v4.318l2.312 1.348a.924.924 0 01.381 1.167l-.049.096a.924.924 0 01-1.167.381l-.096-.049-2.77-1.616a.923.923 0 01-.452-.689l-.006-.108V8.768c0-.51.413-.923.923-.923z" fill="#404040"/>
  </g>
</svg>
