<svg viewBox="0 0 24 24" xmlns="http://www.w3.org/2000/svg" focusable="false">
  <path d="M10.822 2c.417 0 .756.339.756.756v.009h-.017a.765.765 0 01-.764.765H8.253C5.2 3.53 3.53 5.2 3.53 8.244v7.5c0 3.046 1.68 4.726 4.723 4.726h7.5c3.034 0 4.714-1.68 4.714-4.723v-7.5c0-3.043-1.68-4.714-4.714-4.714a.766.766 0 010-1.53C19.608 2 22 4.392 22 8.243v7.504C22 19.607 19.608 22 15.756 22h-7.5C4.393 22 2 19.608 2 15.747v-7.5C2 4.41 4.393 2 8.253 2zM12 7.164a.75.75 0 01.75.75v8.172a.756.756 0 01-.221.531c-.007.008-.016.01-.023.017a.782.782 0 01-.22.144.754.754 0 01-.251.051c-.013.001-.022.007-.035.007a.743.743 0 01-.53-.22l-.001-.001-3.748-3.764a.749.749 0 111.062-1.058l2.467 2.477V7.914a.75.75 0 01.75-.75zm3.217 4.629a.749.749 0 111.062 1.059L15 14.136a.751.751 0 01-1.062-1.06z"/>
</svg>
