<svg xmlns="http://www.w3.org/2000/svg" viewBox="0 0 24 24" fill="currentColor" focusable="false">
  <path d="M12 2a9.973 9.973 0 017.07 2.93 10 10 0 01-1.91 15.64 9.96 9.96 0 01-9.83.26H7.3c-.3-.12-.54-.33-.82-.47-.31-.13-.66-.15-.98-.049a21.99 21.99 0 01-2.26.649c-.4.01-.52-.23-.52-.62.18-.79.42-1.571.7-2.33.11-.33.08-.68-.09-.991l-.2-.389A9.83 9.83 0 012 12.061V12c0-2.65 1.05-5.2 2.93-7.07A9.991 9.991 0 0112 2zm4.61 8.73c-.7 0-1.28.57-1.28 1.28 0 .7.58 1.28 1.28 1.28.71 0 1.28-.58 1.28-1.28 0-.71-.57-1.28-1.28-1.28zm-4.61 0c-.71 0-1.28.57-1.28 1.28 0 .7.57 1.28 1.28 1.28.71 0 1.28-.58 1.28-1.28 0-.71-.57-1.28-1.28-1.28zm-4.61 0c-.71 0-1.28.57-1.28 1.28 0 .7.57 1.28 1.28 1.28.7 0 1.28-.58 1.28-1.28 0-.71-.58-1.28-1.28-1.28z"/>
</svg>
