<svg viewBox="0 0 24 24" xmlns="http://www.w3.org/2000/svg" focusable="false">
  <g stroke="#000" stroke-width="1.5" fill="none" fill-rule="evenodd" stroke-linecap="round" stroke-linejoin="round">
    <path d="M18.865 5.124c.437.153.73.565.73 1.028v6.773c0 1.893-.69 3.7-1.904 5.1-.612.705-1.384 1.254-2.205 1.698l-3.558 1.922-3.564-1.923c-.823-.444-1.596-.992-2.208-1.698A7.783 7.783 0 014.25 12.92V6.15c0-.462.292-.874.73-1.027l6.58-2.313a1.09 1.09 0 01.722 0l6.582 2.313z"/>
    <path d="M13.801 13.846l-3.758-3.758m0 3.758l3.758-3.758" opacity=".4"/>
  </g>
</svg>
