<svg viewBox="0 0 24 24" xmlns="http://www.w3.org/2000/svg" focusable="false">
  <path d="M16.05 18.09a.847.847 0 01-.82-.85.831.831 0 01.81-.849h.01c.465 0 .84.38.84.849 0 .47-.375.85-.84.85zm-4.03-3.68a.822.822 0 01-.85-.799c0-.46.356-.84.81-.861.445 0 .81.351.82.8a.822.822 0 01-.78.86zm0 3.63a.822.822 0 01-.85-.8c0-.46.356-.839.81-.86.445 0 .81.351.82.801.02.46-.336.84-.78.859zm-4.06-3.63a.822.822 0 01-.85-.799c0-.46.355-.84.81-.861.444 0 .81.351.82.8a.822.822 0 01-.78.86zm-.01 3.63a.822.822 0 01-.85-.8c0-.46.356-.839.81-.86.445 0 .81.351.82.801.02.46-.336.84-.78.859zm7.29-4.439c0-.46.356-.83.81-.84.445 0 .8.359.82.8a.82.82 0 01-.79.849.814.814 0 01-.84-.799v-.01zM3 9.257v7.613C3 20.03 4.996 22 8.127 22h7.736C19.024 22 21 20.07 21 16.931V9.257H3z"/>
  <path d="M3.003 9.257c.013-.587.063-1.752.155-2.127.475-2.11 2.085-3.45 4.387-3.64h8.91c2.283.2 3.913 1.55 4.387 3.64.092.365.142 1.539.154 2.127H3.003z" opacity=".4"/>
  <path d="M8.305 6.59c.435 0 .76-.329.76-.77V2.771A.748.748 0 008.306 2c-.435 0-.76.33-.76.771V5.82c0 .441.325.77.76.77m7.389 0c.425 0 .76-.329.76-.77V2.771a.754.754 0 00-.76-.771c-.435 0-.76.33-.76.771V5.82c0 .441.325.77.76.77"/>
</svg>
