<svg viewBox="0 0 24 24" xmlns="http://www.w3.org/2000/svg" focusable="false">
  <path d="M13.133 16.786l-4.22-6.848a.435.435 0 01.027-.494c.5-.65 1.009-1.232 1.436-1.62 0 0 .342-.334.559-.478A1.723 1.723 0 0111.994 7c.422 0 .82.123 1.14.368.057.056.308.268.513.468 1.276 1.169 3.384 4.219 4.023 5.823.103.233.318.856.33 1.18 0 .311-.068.612-.217.901a1.866 1.866 0 01-.9.79c-.262.101-1.048.257-1.071.257-.561.1-1.35.175-2.27.213a.463.463 0 01-.41-.214"/>
  <path d="M10.86 16.328c.187.302-.052.682-.41.667a23.853 23.853 0 01-2.137-.175c-.012-.012-.99-.167-1.322-.346A1.778 1.778 0 016 14.894v-.055c.011-.424.387-1.326.41-1.326.189-.454.509-1.047.894-1.685a.459.459 0 01.778-.007l2.778 4.507z" opacity=".4"/>
</svg>
