<svg viewBox="0 0 24 24" xmlns="http://www.w3.org/2000/svg" focusable="false">
  <path d="M12 2c5.514 0 10 4.486 10 10s-4.485 10-10 10C6.488 22 2 17.514 2 12a9.939 9.939 0 013.903-7.927.728.728 0 01.888 1.153A8.486 8.486 0 003.455 12c0 4.712 3.833 8.546 8.546 8.546 4.712 0 8.545-3.834 8.545-8.546S16.713 3.454 12 3.454a8.62 8.62 0 00-1.3.098.728.728 0 01-.22-1.438A10.1 10.1 0 0112.002 2zm-4 8.026a.749.749 0 011.06.002L12 12.981l2.94-2.953a.75.75 0 111.063 1.06l-3.472 3.485a.744.744 0 01-1.062 0l-3.471-3.486A.75.75 0 018 10.027z"/>
</svg>
