<svg xmlns="http://www.w3.org/2000/svg" viewBox="0 0 32 32" fill="currentColor" focusable="false">
  <path d="M2.104 30.57a1.024 1.024 0 01-1.012-1.182l-.001.006.756-5.028c.035-.227.14-.424.292-.575L20.156 5.952a1.023 1.023 0 011.446 0l4.339 4.339a1.022 1.022 0 010 1.452L7.92 29.586a1.017 1.017 0 01-.578.286l-.005.001-5.097.687a.929.929 0 01-.135.01zm1.719-5.563l-.503 3.342 3.404-.46 17.042-16.874-2.892-2.892zm24.849 5.147H15.043a1.023 1.023 0 110-2.048h13.629a1.023 1.023 0 110 2.048zm.695-22.259h-.001c-.283 0-.538-.114-.724-.3l-4.339-4.34a1.022 1.022 0 01.742-1.729c.274 0 .522.107.706.282l4.34 4.337a1.023 1.023 0 01-.724 1.748h-.001z"/>
</svg>
