<svg xmlns="http://www.w3.org/2000/svg" viewBox="0 0 24 24" focusable="false">
  <path d="M14.795 3.518a1.532 1.532 0 01-1.528 1.528h-2.543a1.523 1.523 0 110-3.046h2.543a1.53 1.53 0 011.528 1.518z"/>
  <path d="M20.205 8.668v8.204A5.13 5.13 0 0115.077 22H8.923a5.13 5.13 0 01-5.127-5.128V8.668a5.108 5.108 0 014.39-5.056 2.554 2.554 0 002.542 2.461h2.544a2.56 2.56 0 002.543-2.46 5.117 5.117 0 014.39 5.055z" fill="#ffb531"/>
  <path d="M15.208 16.616a.768.768 0 01-.77.768H9.547a.77.77 0 110-1.538h4.892a.762.762 0 01.769.77zm1.661-3.61a.768.768 0 01-.77.769H7.896a.77.77 0 110-1.539H16.1a.775.775 0 01.77.77z"/>
</svg>
