<svg xmlns="http://www.w3.org/2000/svg" viewBox="0 0 48 48">
  <ellipse cx="25.1" cy="44.5" rx="17.8" ry="2.3" fill="#45413c" opacity=".15"/>
  <path class="st25" d="M34.8 4.1c-.4-.2-.9-.1-1.1.3-2.2 4.4-2.7 10-.9 15.6 1.8 5.6 5.5 9.9 9.8 12.1.4.2.9 0 1.1-.4 2.1-4.7 2.6-10.2.9-15.6-1.7-5.3-5.3-9.5-9.8-12z" fill="#9CEB60"/>
  <path class="st27" d="M45.5 20.2c-2.9-5.1-7.7-9-13.5-10.6.3-1.9.9-3.6 1.7-5.2.2-.4.7-.5 1.1-.3 4.5 2.6 8.1 6.8 9.8 12.1.4 1.3.7 2.6.9 4z" fill="#C8FFA1"/>
  <path class="st95" d="M34.8 4.1c-.4-.2-.9-.1-1.1.3-2.2 4.4-2.7 10-.9 15.6 1.8 5.6 5.5 9.9 9.8 12.1.4.2.9 0 1.1-.4 2.1-4.7 2.6-10.2.9-15.6-1.7-5.3-5.3-9.5-9.8-12z" fill="none" stroke="#45413C" stroke-linecap="round" stroke-linejoin="round" stroke-miterlimit="10" stroke-width="1.006"/>
  <path class="st25" d="M30.5 4c.4-.9-.1-1.9-1-2.1-3.9-1-8-1-12.1.3S9.9 6 7.3 9c-.6.7-.4 1.8.4 2.3 4.6 2.7 8.5 7.4 10.4 13.4s1.6 12-.6 16.9c-.4.9.1 1.9 1 2.1 3.9 1 8 1 12.1-.3s7.5-3.7 10-6.8c.6-.7.4-1.8-.4-2.3-4.6-2.7-8.5-7.4-10.4-13.4s-1.5-12 .7-16.9z" fill="#9CEB60"/>
  <path class="st27" d="M30.5 4c-.7 1.6-1.2 3.2-1.5 5-1-.1-1.9-.2-2.9-.2-5.6 0-10.6 2-14.5 5.4-1.2-1.1-2.5-2.1-3.8-2.9-.8-.5-1-1.6-.4-2.3 2.5-3.1 5.9-5.5 10-6.8C21.5.9 25.6.9 29.5 1.9c.9.2 1.4 1.2 1 2.1z" fill="#C8FFA1"/>
  <path class="st95" d="M30.5 4c.4-.9-.1-1.9-1-2.1-3.9-1-8-1-12.1.3S9.9 6 7.3 9c-.6.7-.4 1.8.4 2.3 4.6 2.7 8.5 7.4 10.4 13.4s1.6 12-.6 16.9c-.4.9.1 1.9 1 2.1 3.9 1 8 1 12.1-.3s7.5-3.7 10-6.8c.6-.7.4-1.8-.4-2.3-4.6-2.7-8.5-7.4-10.4-13.4s-1.5-12 .7-16.9z" fill="none" stroke="#45413C" stroke-linecap="round" stroke-linejoin="round" stroke-miterlimit="10" stroke-width="1.006"/>
  <path class="st25" d="M5.3 13.6c-.4-.2-.9 0-1.1.4-2.1 4.7-2.6 10.2-.9 15.6 1.7 5.3 5.3 9.5 9.8 12.1.4.2.9.1 1.1-.3 2.2-4.4 2.7-10 .9-15.6-1.7-5.7-5.4-10-9.8-12.2z" fill="#9CEB60"/>
  <path class="st27" d="M9.3 16.4C6 20.2 3.9 25.1 3.8 30.6c-.1-.4-.3-.7-.4-1.1-1.7-5.3-1.3-10.8.9-15.6.2-.4.7-.6 1.1-.4 1.3.8 2.7 1.7 3.9 2.9z" fill="#C8FFA1"/>
  <path class="st95" d="M5.3 13.6c-.4-.2-.9 0-1.1.4-2.1 4.7-2.6 10.2-.9 15.6 1.7 5.3 5.3 9.5 9.8 12.1.4.2.9.1 1.1-.3 2.2-4.4 2.7-10 .9-15.6-1.7-5.7-5.4-10-9.8-12.2z" fill="none" stroke="#45413C" stroke-linecap="round" stroke-linejoin="round" stroke-miterlimit="10" stroke-width="1.006"/>
  <path class="st75" d="M42.8 32.2c-.5 1.1-1.1 2.1-1.8 3-.1-.3-.3-.6-.6-.8C35.8 31.7 31.9 27 30 21c-2-6-1.7-12.1.5-17 .1-.3.2-.7.1-1 1.1.4 2.2.8 3.2 1.3-2.2 4.4-2.7 10-.9 15.6 1.8 5.6 5.5 9.9 9.8 12.1 0 .1 0 .2.1.2z" fill="#E0E0E0"/>
  <path class="st17" d="M33.7 4.3c0 .1 0 .1 0 0-.8 1.5-1.3 3.2-1.7 5-1-.3-2-.5-3-.6.3-1.7.8-3.2 1.5-4.7.1-.3.2-.7.1-1 1.1.4 2.1.8 3.1 1.3z" fill="#FFF"/>
  <path class="st95" d="M42.8 32.2c-.5 1.1-1.1 2.1-1.8 3-.1-.3-.3-.6-.6-.8C35.8 31.7 31.9 27 30 21c-2-6-1.7-12.1.5-17 .1-.3.2-.7.1-1 1.1.4 2.2.8 3.2 1.3-2.2 4.4-2.7 10-.9 15.6 1.8 5.6 5.5 9.9 9.8 12.1 0 .1 0 .2.1.2z" fill="none" stroke="#45413C" stroke-linecap="round" stroke-linejoin="round" stroke-miterlimit="10" stroke-width="1.006"/>
  <path class="st75" d="M17.5 41.7c-.1.3-.2.7-.1 1-1.1-.4-2.2-.8-3.2-1.3 2.2-4.3 2.7-10 .9-15.6-1.8-5.6-5.5-9.9-9.8-12.1.5-1 1.1-2 1.8-2.9.1.3.3.5.6.7 4.6 2.7 8.5 7.4 10.4 13.4 1.9 5.8 1.6 11.9-.6 16.8z" fill="#E0E0E0"/>
  <path class="st17" d="M11.5 14.2c-.8.7-1.5 1.4-2.2 2.2-1.2-1.1-2.6-2.1-4-2.8.5-1 1.1-2 1.8-2.9.1.3.3.5.6.7 1.4.7 2.6 1.7 3.8 2.8z" fill="#FFF"/>
  <path class="st95" d="M17.5 41.7c-.1.3-.2.7-.1 1-1.1-.4-2.2-.8-3.2-1.3 2.2-4.3 2.7-10 .9-15.6-1.8-5.6-5.5-9.9-9.8-12.1.5-1 1.1-2 1.8-2.9.1.3.3.5.6.7 4.6 2.7 8.5 7.4 10.4 13.4 1.9 5.8 1.6 11.9-.6 16.8z" fill="none" stroke="#45413C" stroke-linecap="round" stroke-linejoin="round" stroke-miterlimit="10" stroke-width="1.006"/>
</svg>
