<svg xmlns="http://www.w3.org/2000/svg" viewBox="0 0 32 32" focusable="false">
  <g transform="translate(268.5 -1523.178)">
    <ellipse cx="1457.33" cy="557.468" fill="#f2f2f2" rx="3.001" ry="3.002" transform="matrix(-.5001 .86597 .86609 .4999 0 0)"/>
    <ellipse cx="-152.413" cy="1545.943" fill="#92d9f7" rx="4.001" ry="4" transform="matrix(-.96594 -.25875 -.25889 .9659 0 0)"/>
    <g fill="#70b6fe" stroke-width=".688">
      <path d="M-262.137 1538.489a2.86 2.86 0 00-.033 4.075l3.593 3.625 4.141-4.04-3.593-3.625a2.914 2.914 0 00-4.108-.035z"/>
      <path fill="#92d9f7" d="M-258.577 1546.189l3.593 3.625a2.914 2.914 0 004.107.035 2.86 2.86 0 00.034-4.076l-3.593-3.625z"/>
      <path fill-rule="evenodd" d="M-254.192 1541.883l-4.618 4.581"/>
    </g>
    <g stroke-width=".688">
      <path fill="#ec7bb0" d="M-262.137 1538.489a2.86 2.86 0 00-.033 4.075l3.593 3.625 4.141-4.04-3.593-3.625a2.914 2.914 0 00-4.108-.035z"/>
      <path fill="#62355c" style="line-height:normal;text-indent:0;text-align:start;text-decoration-line:none;text-decoration-style:solid;text-decoration-color:#000;text-transform:none;block-progression:tb;isolation:auto;mix-blend-mode:normal" d="M-252.737 1528.174a4.511 4.511 0 00-4.614 3.328 4.507 4.507 0 003.182 5.512 4.51 4.51 0 005.514-3.182 4.508 4.508 0 00-4.082-5.658zm-.063.998c.069.004.138.025.207.033l-1.785 6.666a3.48 3.48 0 01-2.006-4.109 3.491 3.491 0 013.584-2.59zm1.174.293a3.481 3.481 0 012.006 4.108 3.485 3.485 0 01-3.793 2.556l1.787-6.664zm-8.442 7.7a3.41 3.41 0 00-2.416.968 3.364 3.364 0 00-.043 4.777l7.188 7.25a3.43 3.43 0 004.818.041 3.366 3.366 0 00.04-4.779l-7.186-7.25a3.408 3.408 0 00-2.4-1.008zm13.825.011a3.505 3.505 0 00-2.791 1.74 3.507 3.507 0 001.283 4.781 3.51 3.51 0 004.783-1.28 3.509 3.509 0 00-1.281-4.784 3.48 3.48 0 00-1.994-.457zm-13.834.977a2.4 2.4 0 011.693.718l3.229 3.258-3.4 3.367-3.255-3.283a2.352 2.352 0 01.028-3.369 2.409 2.409 0 011.705-.691zm13.9.015c.48-.033.975.072 1.426.332a2.492 2.492 0 011.123 2.96l-4.248-2.454a2.495 2.495 0 011.7-.838zm-2.2 1.705l4.249 2.451a2.49 2.49 0 01-3.123.506 2.491 2.491 0 01-1.125-2.957zm-6.075 2.965l3.254 3.283c.94.948.927 2.44-.028 3.371a2.4 2.4 0 01-3.398-.029l-3.227-3.256 3.399-3.369z" color="#000" font-family="sans-serif" font-weight="400" overflow="visible"/>
    </g>
  </g>
</svg>
