<svg xmlns="http://www.w3.org/2000/svg" viewBox="0 0 32 32">
  <path fill="#58565d" d="M31.5 4.325v23.35a1 1 0 01-.81.982l-14.5 2.806a1 1 0 01-.38 0l-14.5-2.806a1 1 0 01-.81-.982V4.325a1 1 0 01.81-.982L15.81.537a1 1 0 01.38 0l14.5 2.806a1 1 0 01.81.982z"/>
  <path fill="#2c2b2d" d="M16 31.981a1.5 1.5 0 01-.284-.026L1.215 29.147A1.502 1.502 0 010 27.675V4.325a1.502 1.502 0 011.215-1.472l14.5-2.807a1.506 1.506 0 01.569 0l14.501 2.807A1.502 1.502 0 0132 4.325v23.35a1.502 1.502 0 01-1.215 1.472l-14.5 2.807a1.53 1.53 0 01-.285.027zM16 1.02a.499.499 0 00-.096.009L1.405 3.834A.501.501 0 001 4.325v23.35a.501.501 0 00.405.491l14.5 2.807a.512.512 0 00.191 0l14.499-2.807a.501.501 0 00.405-.491V4.325a.501.501 0 00-.405-.491l-14.5-2.807A.505.505 0 0016 1.02z"/>
  <path fill="#fdd402" d="M31.5 10.5L16 8.5l-15.5 2v-3l15.5-2 15.5 2v3z"/>
  <path fill="#2c2b2d" d="M31.5 11a.56.56 0 01-.064-.004L16 9.004.564 10.996a.513.513 0 01-.394-.12A.5.5 0 010 10.5v-3a.5.5 0 01.436-.496l15.5-2a.56.56 0 01.128 0l15.5 2A.5.5 0 0132 7.5v3a.5.5 0 01-.5.5zM16 8a.553.553 0 01.064.004L31 9.93V7.94L16 6.004 1 7.939v1.992l14.936-1.927A.553.553 0 0116 8z"/>
  <path fill="#8b8891" d="M.5 25.5l15.5 3 15.5-3v2.175a1 1 0 01-.81.982l-14.5 2.806a1 1 0 01-.38 0l-14.5-2.806a1 1 0 01-.81-.982z"/>
  <path fill="#2c2b2d" d="M16 32a.5.5 0 01-.5-.5V.5a.5.5 0 011 0v31a.5.5 0 01-.5.5z"/>
  <path fill="#fdd402" d="M4.5 15.5l9.5-1v-3l-9.5 1v3z"/>
  <path fill="#2c2b2d" d="M4.5 16a.5.5 0 01-.5-.5v-3a.5.5 0 01.448-.497l9.5-1a.5.5 0 01.552.497v3a.5.5 0 01-.448.497l-9.5 1A.47.47 0 014.5 16zm.5-3.05v1.995l8.5-.895v-1.995z"/>
  <path fill="#fdd402" d="M.5 12.92l2-.21v3l-2 .21v-3z"/>
  <path fill="#2c2b2d" d="M.5 16.42a.5.5 0 01-.5-.5v-3a.5.5 0 01.448-.497l2-.21A.5.5 0 013 12.71v3a.5.5 0 01-.448.497l-2 .21a.473.473 0 01-.052.003zm.5-3.05v1.995l1-.105v-1.995z"/>
  <path fill="#afaeb3" d="M24.5 26.855V12.206L18 11.5v16.61"/>
  <path fill="#2c2b2d" d="M18 28.61a.5.5 0 01-.5-.5V11.5a.5.5 0 01.166-.372.485.485 0 01.388-.125l6.5.706a.5.5 0 01.446.497v14.649a.5.5 0 01-1 0v-14.2l-5.5-.598V28.11a.5.5 0 01-.5.5z"/>
  <path fill="#fdd402" d="M26.5 12.39v3l5 .53v-3l-5-.53z"/>
  <path fill="#2c2b2d" d="M31.5 16.42a.475.475 0 01-.053-.003l-5-.53A.5.5 0 0126 15.39v-3a.5.5 0 01.166-.371.505.505 0 01.387-.126l5 .53a.5.5 0 01.447.497v3a.5.5 0 01-.5.5zM27 14.94l4 .424V13.37l-4-.424zM16 31.981a1.5 1.5 0 01-.284-.026L1.215 29.147A1.502 1.502 0 010 27.675V25.5a.5.5 0 01.595-.49L16 27.99l15.405-2.98a.5.5 0 01.595.49v2.175a1.502 1.502 0 01-1.215 1.472l-14.5 2.807a1.53 1.53 0 01-.285.027zM1 26.106v1.569a.501.501 0 00.405.491l14.5 2.807a.512.512 0 00.191 0l14.499-2.807a.501.501 0 00.405-.491v-1.569l-14.905 2.885a.48.48 0 01-.19 0z"/>
</svg>
