<svg xmlns="http://www.w3.org/2000/svg" viewBox="0 0 48 48" focusable="false">
  <path d="M38.1 5.2c-.7.2-1.4.3-2.2.3h-9.6c-.6 0-1.2-.3-1.5-.8-.3-.5-.9-.8-1.5-.8h-7v5.3h7c.6 0 1.2-.3 1.5-.8.3-.5.9-.8 1.5-.8h9.6c.7 0 1.5.1 2.2.3.7.2 1.4.3 2.2.3h4.3c.9 0 1.6-.7 1.6-1.6 0-.9-.7-1.6-1.6-1.6h-4.3c-.8 0-1.5.1-2.2.2z" fill="#e8f4fa"/>
  <path d="M24.8 6.1c.3.4.9.6 1.5.6h9.6c.7 0 1.5-.1 2.2-.2.7-.1 1.4-.2 2.2-.2h4.3c.7 0 1.3.3 1.5.8.1-.2.1-.3.1-.5 0-.9-.7-1.6-1.6-1.6h-4.3c-.7 0-1.5.1-2.2.3-.7.2-1.4.3-2.2.3h-9.6c-.6 0-1.2-.3-1.5-.8s-.9-.8-1.5-.8h-7v1.6h7c.6-.1 1.2.1 1.5.5z" fill="#FFF"/>
  <path d="M38.1 5.2c-.7.2-1.4.3-2.2.3h-9.6c-.6 0-1.2-.3-1.5-.8-.3-.5-.9-.8-1.5-.8h-7v5.3h7c.6 0 1.2-.3 1.5-.8.3-.5.9-.8 1.5-.8h9.6c.7 0 1.5.1 2.2.3.7.2 1.4.3 2.2.3h4.3c.9 0 1.6-.7 1.6-1.6 0-.9-.7-1.6-1.6-1.6h-4.3c-.8 0-1.5.1-2.2.2z" fill="none" stroke="#45413C" stroke-linecap="round" stroke-linejoin="round" stroke-miterlimit="10"/>
  <path d="M16.8 15.1c-.6 0-1.1-.5-1.1-1.1V9.2c0-.6.5-1.1 1.1-1.1.6 0 1.1.5 1.1 1.1V14c0 .6-.5 1.1-1.1 1.1z" fill="#FFE500"/>
  <path d="M17.9 12.7h-2.1V9.2c0-.6.5-1.1 1.1-1.1.6 0 1.1.5 1.1 1.1v3.5z" fill="#EBCB00"/>
  <path fill="#FFE500" d="M17.9 8.2H20v13.3h-2.1z"/>
  <path fill="#EBCB00" d="M17.9 8.2H20v4.3h-2.1z"/>
  <path d="M16.8 15.1c-.6 0-1.1-.5-1.1-1.1V9.2c0-.6.5-1.1 1.1-1.1.6 0 1.1.5 1.1 1.1V14c0 .6-.5 1.1-1.1 1.1z" fill="none" stroke="#45413C" stroke-linecap="round" stroke-linejoin="round" stroke-miterlimit="10"/>
  <path fill="none" stroke="#45413C" stroke-linecap="round" stroke-linejoin="round" stroke-miterlimit="10" d="M17.9 8.2H20v13.3h-2.1z"/>
  <ellipse cx="22.7" cy="43.6" rx="12.2" ry="1.6" fill="#45413c" opacity=".15"/>
  <path d="M43.4 29.7c0 6-9.3 10.9-20.8 10.9S1.8 35.7 1.8 29.7s9.3-10.4 20.8-10.4 20.8 4.4 20.8 10.4z" fill="#f0f0f0"/>
  <path d="M22.7 22.7c10.4 0 18.9 3.6 20.5 8.7.2-.6.3-1.1.3-1.7 0-6-9.3-10.4-20.8-10.4S1.9 23.7 1.9 29.7c0 .6.1 1.1.3 1.7 1.5-5.1 10.1-8.7 20.5-8.7z" fill="#FFF"/>
  <path d="M43.4 29.7c0 6-9.3 10.9-20.8 10.9S1.8 35.7 1.8 29.7s9.3-10.4 20.8-10.4 20.8 4.4 20.8 10.4z" fill="none" stroke="#45413C" stroke-linecap="round" stroke-linejoin="round" stroke-miterlimit="10"/>
  <path d="M37 27.4c0 4.3-6.4 7.9-14.4 7.9S8.3 31.8 8.3 27.4s6.4-9.7 14.4-9.7S37 23.1 37 27.4z" fill="#FFE500"/>
  <path d="M22.7 20.4c7.1 0 13 4.3 14.2 8.3.1-.4.2-.9.2-1.3 0-4.4-6.4-9.7-14.4-9.7S8.3 23.1 8.3 27.4c0 .4.1.9.2 1.3 1.2-4 7-8.3 14.2-8.3z" fill="#FFF48C"/>
  <path d="M37 27.4c0 4.3-6.4 7.9-14.4 7.9S8.3 31.8 8.3 27.4s6.4-9.7 14.4-9.7S37 23.1 37 27.4z" fill="none" stroke="#45413C" stroke-linecap="round" stroke-linejoin="round" stroke-miterlimit="10"/>
  <path d="M10 31.1l-.1-.6s-.7-5 3.7-7.5" fill="#ffe500" stroke="#45413c" stroke-linecap="round" stroke-linejoin="round" stroke-miterlimit="10"/>
  <path d="M12 32.7c0-.1-1.2-5.6 3.2-8.1 0 0-2 6.1 2.4 7.6" fill="none" stroke="#45413C" stroke-linecap="round" stroke-linejoin="round" stroke-miterlimit="10"/>
  <path d="M14.2 33.7s3.4.4 4.8-3.7-1.1-7.5-1.1-7.5m0 12.3s3.5-.6 4.8-4.8-.5-8.5-.5-8.5m1 5.8s2.3 2.6 6.2 2.7" fill="none" stroke="#45413C" stroke-linecap="round" stroke-linejoin="round" stroke-miterlimit="10"/>
  <path d="M34.9 31.6s1-2.2 0-4.8-3.7-3.2-3.7-3.2c2 3.1 1.5 10.6-3.7 11.2-5.2.5-4.8-4.3-4.8-4.3 2.1 2.9 6 2.4 6.9-1.1.9-3.4-1.1-5.3-1.1-5.3" fill="none" stroke="#45413C" stroke-linecap="round" stroke-linejoin="round" stroke-miterlimit="10"/>
  <path d="M23.2 16.7c-8.1 0-10.9 3.5-11.2 5.9s1.9 3.7 4.3 3.2 2.8 3.5 8 3.2c5.2-.3 4.1-3.2 7.5-4.3 2.1-.7 3.9-2.7 1.1-4.8-2.1-1.5-4.5-3.2-9.7-3.2z" fill="#ff6242"/>
  <path d="M23.2 18.8c5.2 0 7.6 1.8 9.6 3.2.5.4.9.8 1.1 1.1.6-.9.5-2.1-1.1-3.3-1.9-1.4-4.3-3.2-9.6-3.2-8.1 0-10.9 3.5-11.2 5.9-.1.5 0 1 .2 1.5.7-2.3 3.7-5.2 11-5.2z" fill="#ff866e"/>
  <path d="M23.2 16.7c-8.1 0-10.9 3.5-11.2 5.9s1.9 3.7 4.3 3.2 2.8 3.5 8 3.2c5.2-.3 4.1-3.2 7.5-4.3 2.1-.7 3.9-2.7 1.1-4.8-2.1-1.5-4.5-3.2-9.7-3.2z" fill="none" stroke="#45413C" stroke-linecap="round" stroke-linejoin="round" stroke-miterlimit="10"/>
  <path d="M16.3 10.3c-.6 0-1.1-.5-1.1-1.1V4.4c0-.6.5-1.1 1.1-1.1.6 0 1.1.5 1.1 1.1v4.8c-.1.6-.5 1.1-1.1 1.1z" fill="#FFE500"/>
  <path d="M18.4 10.3c-.6 0-1.1-.5-1.1-1.1V4.4c0-.6.5-1.1 1.1-1.1.6 0 1.1.5 1.1 1.1v4.8c0 .6-.5 1.1-1.1 1.1z" fill="#FFE500"/>
  <path d="M20.5 10.3c-.6 0-1.1-.5-1.1-1.1V3.9c0-.6.5-1.1 1.1-1.1.6 0 1.1.5 1.1 1.1v5.3c0 .6-.5 1.1-1.1 1.1zm-6.2-.5H14c-.5 0-.9-.4-.9-.9v-4c0-.5.4-.9.9-.9h.2c.5 0 .9.4.9.9v4c.1.4-.3.9-.8.9z" fill="#FFE500"/>
  <path d="M16.3 3.4c-.6 0-1.1.5-1.1 1.1v2.1c0-.6.5-1.1 1.1-1.1.6 0 1.1.5 1.1 1.1V4.4c-.1-.6-.5-1-1.1-1z" fill="#FFF48C"/>
  <path d="M18.4 3.4c-.6 0-1.1.5-1.1 1.1v2.1c0-.6.5-1.1 1.1-1.1s1.1.5 1.1 1.1V4.4c0-.6-.5-1-1.1-1z" fill="#FFF48C"/>
  <path d="M20.5 2.8c-.6 0-1.1.5-1.1 1.1V6c0-.6.5-1.1 1.1-1.1s1.1.5 1.1 1.1V3.9c0-.6-.5-1.1-1.1-1.1zm-6.2 1.1H14c-.5 0-.9.4-.9.9v2.1c0-.5.4-.9.9-.9h.2c.5 0 .9.4.9.9V4.8c.1-.5-.3-.9-.8-.9z" fill="#FFF48C"/>
  <path d="M16.3 10.3c-.6 0-1.1-.5-1.1-1.1V4.4c0-.6.5-1.1 1.1-1.1.6 0 1.1.5 1.1 1.1v4.8c-.1.6-.5 1.1-1.1 1.1z" fill="none" stroke="#45413C" stroke-linecap="round" stroke-linejoin="round" stroke-miterlimit="10"/>
  <path d="M18.4 10.3c-.6 0-1.1-.5-1.1-1.1V4.4c0-.6.5-1.1 1.1-1.1.6 0 1.1.5 1.1 1.1v4.8c0 .6-.5 1.1-1.1 1.1z" fill="none" stroke="#45413C" stroke-linecap="round" stroke-linejoin="round" stroke-miterlimit="10"/>
  <path d="M20.5 10.3c-.6 0-1.1-.5-1.1-1.1V3.9c0-.6.5-1.1 1.1-1.1.6 0 1.1.5 1.1 1.1v5.3c0 .6-.5 1.1-1.1 1.1zm-6.2-.5H14c-.5 0-.9-.4-.9-.9v-4c0-.5.4-.9.9-.9h.2c.5 0 .9.4.9.9v4c.1.4-.3.9-.8.9z" fill="none" stroke="#45413C" stroke-linecap="round" stroke-linejoin="round" stroke-miterlimit="10"/>
  <path d="M19.8 22.7l-2.1-.4c-.3 0-.5-.3-.4-.6l.3-1.6c0-.3.3-.5.6-.4l2.1.4c.3 0 .5.3.4.6l-.3 1.6c-.1.3-.3.4-.6.4z" fill="#BF8256"/>
  <path d="M17.4 22.2l.1-.7c0-.3.3-.5.6-.4l2.1.4c.1 0 .2.1.3.2l.1-.9c0-.3-.1-.6-.4-.6l-2.1-.4c-.3 0-.6.1-.6.4l-.3 1.6c0 .1.1.3.2.4z" fill="#DEA47A"/>
  <path d="M19.8 22.7l-2.1-.4c-.3 0-.5-.3-.4-.6l.3-1.6c0-.3.3-.5.6-.4l2.1.4c.3 0 .5.3.4.6l-.3 1.6c-.1.3-.3.4-.6.4z" fill="none" stroke="#45413C" stroke-linecap="round" stroke-linejoin="round" stroke-miterlimit="10"/>
  <path d="M27.6 24.3l-2 .8c-.3.1-.6 0-.7-.3l-.6-1.5c-.1-.3 0-.6.3-.7l2-.8c.3-.1.6 0 .7.3l.6 1.5c.1.3 0 .6-.3.7z" fill="#BF8256"/>
  <path d="M24.7 24.3l1.9-.8c.3-.1.6 0 .7.3l.3.6h.1c.3-.1.4-.4.3-.7l-.6-1.5c-.1-.3-.4-.4-.7-.3l-2 .8c-.3.1-.4.4-.3.7l.3.9z" fill="#DEA47A"/>
  <path d="M27.6 24.3l-2 .8c-.3.1-.6 0-.7-.3l-.6-1.5c-.1-.3 0-.6.3-.7l2-.8c.3-.1.6 0 .7.3l.6 1.5c.1.3 0 .6-.3.7z" fill="none" stroke="#45413C" stroke-linecap="round" stroke-linejoin="round" stroke-miterlimit="10"/>
  <path d="M25.1 19.1l-1.3-1.7c-.2-.2-.1-.6.1-.7l1.3-1c.2-.2.6-.1.7.1l1.3 1.7c.2.2.1.6-.1.7l-1.3 1c-.2.2-.5.2-.7-.1z" fill="#BF8256"/>
  <path d="M24.3 18l.9-.7c.2-.2.6-.1.7.1l.8 1.1.3-.3c.2-.2.3-.5.1-.7L26 15.8c-.2-.2-.5-.3-.7-.1l-1.3 1c-.2.2-.3.5-.1.7l.4.6z" fill="#DEA47A"/>
  <path d="M25.1 19.1l-1.3-1.7c-.2-.2-.1-.6.1-.7l1.3-1c.2-.2.6-.1.7.1l1.3 1.7c.2.2.1.6-.1.7l-1.3 1c-.2.2-.5.2-.7-.1z" fill="none" stroke="#45413C" stroke-linecap="round" stroke-linejoin="round" stroke-miterlimit="10"/>
</svg>
