<svg xmlns="http://www.w3.org/2000/svg" viewBox="0 0 24 24" focusable="false">
  <path fill="none" d="M0 0h24v24H0z"/>
  <path d="M15.83 8.889a.724.724 0 01-.705-.565L13.913 2.88a.723.723 0 011.412-.315l1.212 5.444a.724.724 0 01-.707.88zm-7.666 0a.724.724 0 01-.707-.88L8.67 2.565a.723.723 0 011.412.315L8.869 8.324a.723.723 0 01-.705.565z"/>
  <path d="M21.538 15.166l-.84-4.472a5.762 5.762 0 00-4.597-4.607 5.698 5.698 0 00-1.08-.106H8.969a5.699 5.699 0 00-1.08.106 5.774 5.774 0 00-4.597 4.607l-.83 4.472A5.769 5.769 0 008.13 22h7.73a5.775 5.775 0 005.677-6.834zm-6.844 2.439H9.451a.723.723 0 010-1.446h5.243a.723.723 0 010 1.446z"/>
</svg>
