<svg viewBox="0 0 24 24" xmlns="http://www.w3.org/2000/svg" focusable="false">
  <path d="M12.375 2a5.305 5.305 0 015.009 3.567.75.75 0 11-1.418.49A3.805 3.805 0 0012.372 3.5h-.014a3.806 3.806 0 00-3.805 3.784l-.001 1.342 7.632.001a4.548 4.548 0 014.542 4.543v4.288a4.548 4.548 0 01-4.542 4.543H8.542A4.547 4.547 0 014 17.458V13.17a4.55 4.55 0 013.052-4.292V7.3C7.066 4.362 9.442 2 12.355 2h.02zm3.809 8.127H8.542A3.045 3.045 0 005.5 13.17v4.288a3.045 3.045 0 003.042 3.043h7.642a3.046 3.046 0 003.042-3.043V13.17a3.046 3.046 0 00-3.042-3.043zm-3.82 3.326a.75.75 0 01.75.75v2.222a.75.75 0 01-1.5 0v-2.222a.75.75 0 01.75-.75z" fill-rule="evenodd"/>
</svg>
