<svg viewBox="0 0 24 24" xmlns="http://www.w3.org/2000/svg" focusable="false">
  <g fill="none" fill-rule="evenodd">
    <path d="M16.335 2.75h-8.67c-3.02 0-4.914 2.14-4.914 5.166v8.168c0 3.027 1.884 5.166 4.915 5.166h8.668c3.03 0 4.917-2.139 4.917-5.166V7.916c0-3.027-1.886-5.166-4.916-5.166z" stroke="#000" stroke-width="1.5" stroke-linecap="round" stroke-linejoin="round"/>
    <path d="M7.52 13.197a1.199 1.199 0 010-2.395 1.199 1.199 0 010 2.395m4.48 0a1.199 1.199 0 010-2.395 1.199 1.199 0 010 2.395m4.48 0a1.199 1.199 0 010-2.395 1.199 1.199 0 010 2.395" fill="#000" fill-rule="nonzero" opacity=".4"/>
  </g>
</svg>
