<svg viewBox="0 0 24 24" xmlns="http://www.w3.org/2000/svg" focusable="false">
  <path d="M4.794 16.195a.75.75 0 01.75.75c0 .834.677 1.51 1.511 1.51h1.028a3 3 0 012.122.877l.721.722c.292.291.671.448 1.073.448.41.016.786-.158 1.072-.447a.752.752 0 011.061-.003.753.753 0 01.002 1.063A3.002 3.002 0 0112 22a3 3 0 01-2.123-.874l-.73-.73a1.509 1.509 0 00-1.065-.44H7.055a3.014 3.014 0 01-3.01-3.01.75.75 0 01.75-.75zm12.15-12.154c1.66 0 3.01 1.35 3.01 3.012V8.08c.002.401.158.78.44 1.065l.719.719A2.99 2.99 0 0122 11.989a2.994 2.994 0 01-.876 2.133l-.73.73a1.53 1.53 0 00-.44 1.065v1.027a3.015 3.015 0 01-3.01 3.012.75.75 0 010-1.5c.834 0 1.51-.679 1.51-1.512v-1.028a2.99 2.99 0 01.878-2.123l.72-.721a1.508 1.508 0 00.002-2.146l-.721-.721a3 3 0 01-.878-2.124v-1.03a1.51 1.51 0 00-1.511-1.51.75.75 0 010-1.501zm-2.374 9.663a.869.869 0 11-.002 1.737.869.869 0 01.002-1.737zm-.53-4.807a.749.749 0 111.06 1.061L9.96 15.1a.751.751 0 01-1.06-1.06zM9.865 2.882a3.009 3.009 0 014.14-.11c.04.03.08.06.12.1a.75.75 0 01-1.05 1.07l-.02-.02a1.53 1.53 0 00-2.13.02l-.72.72c-.57.57-1.32.88-2.12.88h-1.03c-.83 0-1.51.68-1.51 1.51v1.031a2.97 2.97 0 01-.88 2.12l-.72.722c-.59.6-.59 1.56 0 2.15.29.29.29.76 0 1.06a.77.77 0 01-.53.22c-.19 0-.38-.07-.53-.22a3.018 3.018 0 01-.01-4.261l.73-.73c.28-.28.44-.66.44-1.061v-1.03c0-1.66 1.35-3.011 3.01-3.011h1.03c.4 0 .78-.16 1.06-.44zM9.42 8.575a.869.869 0 11-.002 1.737.869.869 0 01.002-1.737z"/>
</svg>
