<svg viewBox="0 0 24 24" xmlns="http://www.w3.org/2000/svg" focusable="false">
  <g fill="none" fill-rule="evenodd">
    <path d="M0 0h24v24H0z"/>
    <path d="M15.028 5.65a3 3 0 013 3v7.189a3 3 0 01-3 3H7.839a3 3 0 01-3-3V8.65a3 3 0 013-3h7.189zm-1.039 2.039H8.878a2 2 0 00-1.995 1.85l-.005.15V14.8a2 2 0 001.85 1.995l.15.005h5.111a2 2 0 001.995-1.85l.005-.15V9.69a2 2 0 00-2-2zM16.028 2a5.65 5.65 0 015.646 5.433l.004.217-.001.288H22a1 1 0 01.721 1.693l-.959.998a1 1 0 01-1.414.028l-.015-.014-.996-.998a1 1 0 01.707-1.707h.333V7.65a4.35 4.35 0 00-4.138-4.345l-.211-.005h-1a.65.65 0 01-.096-1.293L15.028 2h1z" fill="currentColor"/>
  </g>
</svg>
