<svg xmlns="http://www.w3.org/2000/svg" viewBox="0 0 48 48">
  <ellipse cx="27.5" cy="43" rx="13.5" ry="1.5" fill="#45413c" opacity=".15"/>
  <path class="st17" d="M47 17.1c0-7.6-6.1-13.7-13.7-13.7-5.1 0-9.6 2.8-11.9 7-1.6-1-3.6-1.6-5.7-1.6-5.9 0-10.8 4.8-10.8 10.8C4.9 25.3 9.3 30 15 30.3c1.5 3.7 5.2 6.4 9.5 6.4 4.1 0 7.6-2.4 9.3-5.9 7.3-.2 13.2-6.3 13.2-13.7z" fill="#FFF"/>
  <path class="st41" d="M34.1 26.6c-1.7 3.6-5.4 6.2-9.7 6.2-4.5 0-8.3-2.8-9.9-6.7-4.3-.3-7.9-2.9-9.5-6.6v.1C5 25.3 9.4 30 15.1 30.3c1.5 3.7 5.2 6.4 9.5 6.4 4.1 0 7.6-2.4 9.3-5.9 7.2-.2 13-6 13.2-13.3-2.2 5.2-7.1 8.9-13 9.1z" fill="#F0F0F0"/>
  <path class="st10" d="M47 17.1c0-7.6-6.1-13.7-13.7-13.7-5.1 0-9.6 2.8-11.9 7-1.6-1-3.6-1.6-5.7-1.6-5.9 0-10.8 4.8-10.8 10.8C4.9 25.3 9.3 30 15 30.3c1.5 3.7 5.2 6.4 9.5 6.4 4.1 0 7.6-2.4 9.3-5.9 7.3-.2 13.2-6.3 13.2-13.7z" fill="none" stroke="#45413C" stroke-linecap="round" stroke-linejoin="round" stroke-miterlimit="10"/>
  <circle cx="3" cy="40.6" r="2" fill="#fff" stroke="#45413c" stroke-linecap="round" stroke-linejoin="round" stroke-miterlimit="10"/>
  <circle class="st17" cx="11.3" cy="37.2" r="3.4" fill="#FFF"/>
  <path class="st41" d="M11.3 39.1c-1.4 0-2.6-.6-3.4-1.6.2 1.7 1.6 3.1 3.4 3.1s3.2-1.4 3.4-3.1c-.8 1-2 1.6-3.4 1.6z" fill="#F0F0F0"/>
  <circle class="st10" cx="11.3" cy="37.2" r="3.4" fill="none" stroke="#45413C" stroke-linecap="round" stroke-linejoin="round" stroke-miterlimit="10"/>
</svg>
