<svg data-name="Layer 1" xmlns="http://www.w3.org/2000/svg" viewBox="0 0 24 24" focusable="false">
  <path fill="none" d="M0 0h24v24H0z"/>
  <path d="M19.5 8.46l-1.42-.25a2.805 2.805 0 01-2.3-2.29l-.24-1.43A2.989 2.989 0 0012.58 2h-1.16a3.004 3.004 0 00-2.96 2.49l-.24 1.43a2.805 2.805 0 01-2.3 2.29l-1.42.25A2.995 2.995 0 002 11.41v1.17a3.013 3.013 0 002.5 2.96l1.42.24a2.805 2.805 0 012.3 2.29l.24 1.43a3.013 3.013 0 002.96 2.5h1.16a2.997 2.997 0 002.96-2.5l.24-1.43a2.805 2.805 0 012.3-2.29l1.42-.24a3.004 3.004 0 002.5-2.96v-1.17a2.986 2.986 0 00-2.5-2.95zM12 13.75A1.75 1.75 0 1113.75 12 1.752 1.752 0 0112 13.75z" fill="#030835"/>
</svg>
