<svg xmlns="http://www.w3.org/2000/svg" viewBox="0 0 32 32" focusable="false">
  <g stroke="#0572e4">
    <path fill="#f6b577" d="M12.716 6.315a2.775 2.775 0 012.785 2.8v13.106a2.78 2.78 0 01-2.422 2.76 2.777 2.777 0 01-2.86-1.53c.064-.013.127-.02.19-.037.645-.173.386-1.14-.26-.967a2.793 2.793 0 01-2.648-.68 2.77 2.77 0 01-.85-1.952c.245.115.499.217.766.289.664.207.937-.814.258-.965a3.6 3.6 0 01-1.664-5.977c.182.39.427.754.742 1.069.472.49 1.198-.237.707-.707A2.78 2.78 0 018.956 8.82c-.007.092-.028.18-.028.275 0 .667 1.002.667 1.002 0a2.775 2.775 0 012.786-2.781zm6.57 0a2.775 2.775 0 012.785 2.78c0 .668 1.002.668 1.002 0 0-.093-.02-.182-.027-.275a2.78 2.78 0 011.496 4.704c-.472.472.237 1.179.709.707.315-.315.557-.68.74-1.069a3.597 3.597 0 01-1.664 5.977c-.68.15-.406 1.172.258.965a4.6 4.6 0 00.765-.29 2.77 2.77 0 01-.85 1.954 2.792 2.792 0 01-2.648.68c-.645-.174-.905.793-.26.966.063.017.127.024.19.037a2.777 2.777 0 01-2.86 1.53 2.779 2.779 0 01-2.421-2.793V9.095a2.775 2.775 0 012.785-2.78z" color="#000"  stroke="none"/>
    <path fill="none" stroke-linecap="round" stroke-linejoin="round" stroke-width="1.218" d="M16.5 1029.862v16" transform="matrix(.82142 0 0 .8204 2.447 -835.801)"/>
    <path fill="#62355c" d="M12.716 5.315c-1.627 0-3.007 1.04-3.541 2.482a3.78 3.78 0 00-3.24 2.303 3.761 3.761 0 00-.243 2.006 4.595 4.595 0 00-1.605 4.441 4.6 4.6 0 001.603 2.672 3.774 3.774 0 001.117 3.27c.652.624 1.497.98 2.373 1.039a3.78 3.78 0 004.03 2.443A3.78 3.78 0 0016 24.084a3.78 3.78 0 002.792 1.887 3.78 3.78 0 004.029-2.443 3.786 3.786 0 002.373-1.04 3.774 3.774 0 001.117-3.27 4.6 4.6 0 001.604-2.671 4.595 4.595 0 00-1.606-4.441 3.763 3.763 0 00-.242-2.006 3.78 3.78 0 00-3.24-2.303c-.534-1.443-1.915-2.482-3.541-2.482-1.413 0-2.635.79-3.285 1.941-.65-1.151-1.872-1.941-3.285-1.941zm0 1a2.775 2.775 0 012.785 2.78.5.5 0 000 .02v13.073a.5.5 0 000 .033 2.78 2.78 0 01-2.422 2.76 2.777 2.777 0 01-2.86-1.53c.064-.013.127-.02.19-.037a.501.5 0 10-.26-.967 2.793 2.793 0 01-2.648-.68 2.77 2.77 0 01-.85-1.952c.245.115.499.217.766.289a.5.5 0 10.258-.965 3.6 3.6 0 01-1.664-5.977c.182.39.427.754.742 1.069a.5.5 0 10.707-.707A2.78 2.78 0 018.956 8.82c-.007.092-.028.18-.028.275a.501.5 0 001.002 0 2.775 2.775 0 012.786-2.781zm6.57 0a2.775 2.775 0 012.785 2.78.501.5 0 001.002 0c0-.093-.02-.182-.027-.275a2.78 2.78 0 011.496 4.704.5.5 0 00.709.707c.315-.315.557-.68.74-1.069a3.597 3.597 0 01-1.664 5.977.5.5 0 10.258.965 4.6 4.6 0 00.765-.29 2.77 2.77 0 01-.85 1.954 2.792 2.792 0 01-2.648.68.501.5 0 10-.26.966c.063.017.127.024.19.037a2.777 2.777 0 01-2.86 1.53 2.779 2.779 0 01-2.421-2.76.5.5 0 000-.033V9.095a2.775 2.775 0 012.785-2.78zm-6.621.642a.5.5 0 00.05.998c.638 0 1.143.505 1.143 1.14a.5.5 0 001 0 2.147 2.147 0 00-2.142-2.138.5.5 0 00-.051 0zm6.62 0a2.147 2.147 0 00-2.142 2.139.5.5 0 001 0c0-.636.506-1.14 1.143-1.14a.5.5 0 100-.999zm-9.614 3.156a.5.5 0 00-.479.659c.069.205.155.401.256.59a4.611 4.611 0 00-1.268.039.5.5 0 10.18.982 3.617 3.617 0 012.457.426.5.5 0 00.031.015.5.5 0 00.034.016.5.5 0 00.039.014.5.5 0 00.013.006.5.5 0 00.024.006.5.5 0 00.02.004.5.5 0 00.013.002.5.5 0 00.086.008.5.5 0 00.015-.002.5.5 0 00.034-.002.5.5 0 00.017-.002.5.5 0 00.016-.004.5.5 0 00.033-.006.5.5 0 00.031-.008.5.5 0 00.018-.006.5.5 0 00.117-.06.5.5 0 00.014-.01.5.5 0 00.062-.056.5.5 0 00.012-.011.5.5 0 00.082-.545.5.5 0 00-.006-.014.5.5 0 00-.193-.205l-.006-.004a.5.5 0 00-.006-.004 2.785 2.785 0 01-1.176-1.486.5.5 0 00-.47-.342zm12.66 0a.5.5 0 00-.47.342 2.786 2.786 0 01-1.188 1.494.5.5 0 00-.194.205.5.5 0 00-.006.014.5.5 0 00.082.545.5.5 0 00.012.012.5.5 0 00.062.054.5.5 0 00.014.01.5.5 0 00.125.063.5.5 0 00.01.004.5.5 0 00.031.008.5.5 0 00.034.006.5.5 0 00.015.004.5.5 0 00.018.002.5.5 0 00.033.002.5.5 0 00.016.002.5.5 0 00.033-.002.5.5 0 00.004 0 .5.5 0 00.049-.006.5.5 0 00.013-.002.5.5 0 00.035-.008.5.5 0 00.014-.004.5.5 0 00.008-.004.5.5 0 00.04-.014.5.5 0 00.032-.015.5.5 0 00.032-.016 3.616 3.616 0 012.457-.426.5.5 0 10.18-.982 4.615 4.615 0 00-1.268-.04c.1-.188.187-.384.256-.59a.5.5 0 00-.479-.657zm-9.201 1.555a.5.5 0 00-.412.754 2.366 2.366 0 01-.377 2.863.5.5 0 10.709.707 3.37 3.37 0 00.535-4.068.5.5 0 00-.455-.256zm5.693 0a.5.5 0 00-.406.256 3.37 3.37 0 00.535 4.068.5.5 0 10.709-.707 2.366 2.366 0 01-.377-2.863.5.5 0 00-.412-.754.5.5 0 00-.049 0zM6.202 15.486a.5.5 0 00-.443.635c.153.572.454 1.093.873 1.512a.5.5 0 10.707-.707 2.365 2.365 0 01-.614-1.063.5.5 0 00-.474-.377.5.5 0 00-.049 0zm19.547 0a.5.5 0 00-.473.377 2.365 2.365 0 01-.613 1.063.5.5 0 10.707.707c.419-.419.72-.94.873-1.512a.5.5 0 00-.492-.635.5.5 0 01-.002 0zm-13.85 3.774a.5.5 0 00-.088.008.5.5 0 00-.002 0 .5.5 0 00-.01.002.5.5 0 00-.037.008.5.5 0 00-.011.004.5.5 0 00-.082.033.5.5 0 00-.01.006.5.5 0 00-.02.01 3.614 3.614 0 01-2.457.424.5.5 0 10-.18.984c.422.078.847.08 1.268.04a3.8 3.8 0 00-.258.587.502.501 0 00.951.319 2.785 2.785 0 011.176-1.487.5.5 0 00.008-.006c.001 0 .003 0 .004-.002a.5.5 0 00.031-.02.5.5 0 00.01-.007.5.5 0 00.03-.024.5.5 0 00.01-.008.5.5 0 00.025-.025.5.5 0 00.01-.01.5.5 0 00.023-.03.5.5 0 00.008-.01.5.5 0 00.022-.03.5.5 0 00.006-.01.5.5 0 00.017-.034.5.5 0 00.006-.011.5.5 0 00.002-.004.5.5 0 00.018-.043.5.5 0 00.01-.036.5.5 0 00.004-.011.5.5 0 00.008-.037.5.5 0 00.002-.012.5.5 0 00.004-.037.5.5 0 00-.008-.113.5.5 0 00-.006-.036.5.5 0 00-.04-.105.5.5 0 00-.017-.033.5.5 0 00-.008-.012.5.5 0 00-.02-.03.5.5 0 00-.01-.011.5.5 0 00-.023-.027.5.5 0 00-.01-.01.5.5 0 00-.025-.026.5.5 0 00-.01-.008.5.5 0 00-.03-.023.5.5 0 00-.01-.008.5.5 0 00-.075-.043.5.5 0 00-.012-.006.5.5 0 00-.035-.014.5.5 0 00-.012-.004.5.5 0 00-.01-.002.5.5 0 00-.04-.01.5.5 0 00-.034-.006.5.5 0 00-.014-.002.5.5 0 00-.006 0 .5.5 0 00-.031-.004.5.5 0 00-.012 0zm8.192 0a.5.5 0 00-.038.004.5.5 0 00-.048.008.5.5 0 00-.04.01.5.5 0 00-.015.004.5.5 0 00-.018.006.5.5 0 00-.023.01.5.5 0 00-.012.006.5.5 0 00-.076.043.5.5 0 00-.01.008.5.5 0 00-.03.023.5.5 0 00-.01.008.5.5 0 00-.025.026.5.5 0 00-.029.033.5.5 0 00-.006.006.5.5 0 00-.008.01.5.5 0 00-.02.03.5.5 0 00-.007.01.5.5 0 00-.018.034.5.5 0 00-.04.106.5.5 0 00-.005.035.5.5 0 00-.004.137.5.5 0 00.002.019.5.5 0 00.002.016.5.5 0 00.006.027.5.5 0 00.004.012.5.5 0 00.01.035.5.5 0 00.017.043.5.5 0 00.006.01.5.5 0 00.008.017.5.5 0 00.016.026.5.5 0 00.012.02.5.5 0 00.011.017.5.5 0 00.008.01.5.5 0 00.024.03.5.5 0 00.01.01.5.5 0 00.025.025.5.5 0 00.01.008.5.5 0 00.03.023.5.5 0 00.01.008.5.5 0 00.03.02.5.5 0 00.012.008c.554.342.97.869 1.176 1.486a.502.501 0 00.951-.319 3.78 3.78 0 00-.257-.587 4.6 4.6 0 001.267-.04.5.5 0 00-.18-.984 3.615 3.615 0 01-2.457-.424.5.5 0 00-.029-.015.5.5 0 00-.082-.034.5.5 0 00-.012-.004.5.5 0 00-.037-.008.5.5 0 00-.011-.002.5.5 0 01-.002 0 .5.5 0 00-.05-.006.5.5 0 00-.048-.002zm-5.74 2.455a.5.5 0 00-.493.506c0 .636-.505 1.142-1.142 1.142a.5.5 0 100 .999 2.149 2.149 0 002.142-2.141.5.5 0 00-.508-.506zm3.3 0a.5.5 0 00-.508.506c0 1.176.965 2.14 2.143 2.14a.5.5 0 100-.998 1.136 1.136 0 01-1.143-1.142.5.5 0 00-.492-.506z" color="#000" font-family="sans-serif" font-weight="400" overflow="visible" stroke="none"/>
  </g>
</svg>
