<svg viewBox="0 0 24 24" xmlns="http://www.w3.org/2000/svg" focusable="false">
  <path d="M4.265 10.705a.734.734 0 011.024.192c2.546 3.725 7.201 7.922 10.164 9.164 1.2.56 2.092.594 2.755.115.516-.316 1.987-1.787 1.96-2.552-.008-.09-.11-.26-.284-.44-.566-.583-2.463-2.029-2.86-2.18-.316-.063-.638.124-1.134.438l-.255.16a.735.735 0 01-1.01-.253.745.745 0 01.25-1.019l.23-.143c.55-.348 1.305-.822 2.262-.623.751.156 3.118 2.117 3.57 2.584.425.437.662.904.702 1.389.064 1.82-2.36 3.725-2.637 3.885-.53.384-1.149.578-1.845.578-.693 0-1.463-.192-2.297-.582-3.207-1.343-8.058-5.691-10.784-9.682a.745.745 0 01.189-1.031zM6.217 2.21l.182.003c.505.041.969.28 1.405.708.462.454 2.41 2.838 2.566 3.596.168.812-.195 1.446-.459 1.909-.26.456-.35.65-.26.897.657 1.62 1.672 2.942 3.007 3.902.331.24.408.702.171 1.036a.734.734 0 01-1.027.172c-1.565-1.126-2.751-2.665-3.527-4.577-.34-.945.064-1.653.36-2.17.222-.388.344-.62.292-.866-.137-.357-1.574-2.27-2.152-2.837-.18-.177-.347-.28-.472-.29-.662-.031-2.14 1.384-2.467 1.928-.505.7-.47 1.598.073 2.8a.744.744 0 01-.365.982.734.734 0 01-.975-.368c-.772-1.708-.759-3.134.043-4.236.169-.287 2.038-2.702 3.787-2.586zm8.174 3.297l.099.01a5.082 5.082 0 014.018 4.047.742.742 0 01-.725.883.738.738 0 01-.721-.6 3.607 3.607 0 00-2.854-2.873.743.743 0 01-.583-.87.749.749 0 01.865-.586zM14.331 2l.1.006c4.004.447 7.115 3.576 7.564 7.608a.74.74 0 01-.732.825.739.739 0 01-.731-.659c-.373-3.338-2.948-5.93-6.265-6.3a.74.74 0 01-.65-.82.734.734 0 01.813-.654z"/>
</svg>
