<svg viewBox="0 0 24 24" xmlns="http://www.w3.org/2000/svg" focusable="false">
  <path d="M12 3.882h-.01c-4.127 0-7.844 2.924-9.931 7.827a.75.75 0 000 .58c.673 1.585 1.521 2.964 2.497 4.106l3.61-3.643a4.635 4.635 0 01-.068-.748c0-2.176 1.746-3.938 3.902-3.938.254 0 .507.03.741.069L16 4.845a8.858 8.858 0 00-4-.963m9.941 7.827c-.897-2.107-2.097-3.86-3.512-5.16l-3.21 3.24a4 4 0 01.674 2.215c0 2.166-1.747 3.928-3.893 3.928-.81 0-1.57-.257-2.195-.679l-3.093 3.12c1.59 1.133 3.395 1.753 5.278 1.753H12c4.137 0 7.854-2.934 9.941-7.836a.75.75 0 000-.581" opacity=".4"/>
  <path d="M20.205 3.714a.73.73 0 010 1.044L18.43 6.55l-3.21 3.239-1.413 1.426.35-.353c.176.335.274.729.274 1.142 0 1.349-1.093 2.452-2.43 2.452a2.4 2.4 0 01-1.13-.276l-6.05 6.104a.723.723 0 01-.517.216.707.707 0 01-.517-.216.738.738 0 01-.088-.926l.029-.04L14.195 8.757l3.093-3.121.868-.877c.02-.02.04-.04.05-.06.019-.02.038-.039.048-.058l.917-.926a.731.731 0 011.034 0z"/>
</svg>
