<svg xmlns="http://www.w3.org/2000/svg" viewBox="0 0 48 48" focusable="false">
  <ellipse cx="24" cy="41.6" rx="13.5" ry="1.5" fill="#45413c" opacity=".15"/>
  <path d="M46.9 20.7c0-2.2-1.6-4-3.6-4.5 0-.2.1-.4.1-.6 0-2.5-2.1-4.6-4.6-4.6-1 0-1.8.3-2.6.8v-.3c0-2.5-2.1-4.6-4.6-4.6-1.3 0-2.4.5-3.2 1.3-.5-1.9-2.3-3.4-4.4-3.4s-3.9 1.4-4.4 3.4c-.8-.8-2-1.3-3.2-1.3-2.5 0-4.6 2.1-4.6 4.6v.3c-.7-.5-1.6-.8-2.6-.8-2.5 0-4.6 2.1-4.6 4.6 0 .2 0 .4.1.6-2.1.4-3.6 2.3-3.6 4.5 0 2.3 1.7 4.2 3.9 4.5-.2.5-.3 1-.3 1.6 0 2.5 2.1 4.6 4.6 4.6 1 0 1.8-.3 2.6-.8v.3c0 2.5 2.1 4.6 4.6 4.6 1.4 0 2.6-.6 3.5-1.6.7 1.6 2.3 2.7 4.1 2.7s3.4-1.1 4.1-2.7c.8 1 2.1 1.6 3.5 1.6 2.5 0 4.6-2.1 4.6-4.6v-.3c.7.5 1.6.8 2.6.8 2.5 0 4.6-2.1 4.6-4.6 0-.6-.1-1.1-.3-1.6 2-.3 3.7-2.2 3.7-4.5z" fill="#fff"/>
  <path d="M44.3 18.9c.2.5.3 1.1.3 1.7 0 2.7-2.2 4.9-4.9 4.9-1 0-2-.3-2.7-.8v.3c0 2.7-2.2 4.9-4.9 4.9-1.5 0-2.8-.7-3.7-1.8-.8 1.7-2.5 2.8-4.4 2.8s-3.6-1.2-4.4-2.8c-.9 1.1-2.2 1.8-3.7 1.8-2.7 0-4.9-2.2-4.9-4.9v-.3c-.8.5-1.7.8-2.7.8-2.7 0-4.9-2.2-4.9-4.9 0-.6.1-1.2.3-1.7-.7-.1-1.3-.4-1.8-.7-.5.7-.8 1.6-.8 2.5 0 2.3 1.7 4.2 3.9 4.5-.2.5-.3 1-.3 1.6 0 2.5 2.1 4.6 4.6 4.6 1 0 1.8-.3 2.6-.8v.3c0 2.5 2.1 4.6 4.6 4.6 1.4 0 2.6-.6 3.5-1.6.7 1.6 2.3 2.7 4.1 2.7s3.4-1.1 4.1-2.7c.8 1 2.1 1.6 3.5 1.6 2.5 0 4.6-2.1 4.6-4.6v-.3c.7.5 1.6.8 2.6.8 2.5 0 4.6-2.1 4.6-4.6 0-.6-.1-1.1-.3-1.6 2.2-.3 3.9-2.2 3.9-4.5 0-.9-.3-1.8-.8-2.5-.7.3-1.3.6-2 .7z" fill="#f0f0f0"/>
  <path d="M46.9 20.7c0-2.2-1.6-4-3.6-4.5 0-.2.1-.4.1-.6 0-2.5-2.1-4.6-4.6-4.6-1 0-1.8.3-2.6.8v-.3c0-2.5-2.1-4.6-4.6-4.6-1.3 0-2.4.5-3.2 1.3-.5-1.9-2.3-3.4-4.4-3.4s-3.9 1.4-4.4 3.4c-.8-.8-2-1.3-3.2-1.3-2.5 0-4.6 2.1-4.6 4.6v.3c-.7-.5-1.6-.8-2.6-.8-2.5 0-4.6 2.1-4.6 4.6 0 .2 0 .4.1.6-2.1.4-3.6 2.3-3.6 4.5 0 2.3 1.7 4.2 3.9 4.5-.2.5-.3 1-.3 1.6 0 2.5 2.1 4.6 4.6 4.6 1 0 1.8-.3 2.6-.8v.3c0 2.5 2.1 4.6 4.6 4.6 1.4 0 2.6-.6 3.5-1.6.7 1.6 2.3 2.7 4.1 2.7s3.4-1.1 4.1-2.7c.8 1 2.1 1.6 3.5 1.6 2.5 0 4.6-2.1 4.6-4.6v-.3c.7.5 1.6.8 2.6.8 2.5 0 4.6-2.1 4.6-4.6 0-.6-.1-1.1-.3-1.6 2-.3 3.7-2.2 3.7-4.5z" fill="none" stroke="#45413C" stroke-linecap="round" stroke-linejoin="round" stroke-miterlimit="10"/>
  <ellipse cx="17.1" cy="22.7" rx="1.2" ry=".8" fill="#FFB0CA"/>
  <g stroke="#45413c" stroke-linecap="round" stroke-linejoin="round" stroke-miterlimit="10">
    <path d="M27.1 24.7c.5 0 .9.5.8 1-.4 1.7-2 3-3.9 3s-3.5-1.3-3.9-3c-.1-.5.3-1 .8-1h6.2z" fill="#ffb0ca"/>
    <path d="M24 28.8c1.3 0 2.4-.6 3.2-1.6-.8-.5-1.9-.9-3.2-.9s-2.4.3-3.2.9c.8 1 1.9 1.6 3.2 1.6z" fill="#ff87af"/>
  </g>
  <path d="M16.7 21.1c0-.7.5-1.2 1.2-1.2s1.2.5 1.2 1.2" fill="none" stroke="#45413C" stroke-linecap="round" stroke-linejoin="round" stroke-miterlimit="10"/>
  <ellipse cx="30.9" cy="22.7" rx="1.2" ry=".8" fill="#FFB0CA"/>
  <path d="M31.3 21.1c0-.7-.5-1.2-1.2-1.2s-1.2.5-1.2 1.2" fill="none" stroke="#45413C" stroke-linecap="round" stroke-linejoin="round" stroke-miterlimit="10"/>
</svg>
