<svg viewBox="0 0 24 24" xmlns="http://www.w3.org/2000/svg" focusable="false">
  <path d="M17.053 2a4.43 4.43 0 014.425 4.425v11.139A4.442 4.442 0 0117.042 22h-4.885a4.43 4.43 0 01-4.424-4.425v-.942a.75.75 0 011.5 0v.942a2.929 2.929 0 002.924 2.925h4.885a2.939 2.939 0 002.936-2.936V6.425A2.93 2.93 0 0017.053 3.5h-4.885a2.938 2.938 0 00-2.935 2.934v.933a.75.75 0 01-1.5 0v-.933A4.44 4.44 0 0112.168 2h4.885zm-3.66 6.553l2.928 2.917a.809.809 0 01.067.076l-.067-.077c.04.04.075.083.105.13l.02.034a.454.454 0 01.03.056l.015.042a.45.45 0 01.021.058l.011.047a.597.597 0 01.014.085.521.521 0 01.005.079l-.007.079v.023l-.002.005.01-.107a.75.75 0 01-.019.164l-.013.047a.446.446 0 01-.019.058l-.018.041a.453.453 0 01-.028.058l-.021.033a.467.467 0 01-.037.055l-.027.031a.47.47 0 01-.04.044l-2.929 2.915a.747.747 0 01-1.06-.002.749.749 0 01.002-1.06l1.641-1.634H3.75a.75.75 0 010-1.5h10.225l-1.64-1.635a.749.749 0 111.057-1.062z" fill-rule="evenodd"/>
</svg>
