<svg viewBox="0 0 24 24" xmlns="http://www.w3.org/2000/svg" focusable="false">
  <path d="M12 2c5.512 0 10 4.486 10 10.006C22 17.514 17.512 22 12 22S2 17.514 2 12.006C2 6.486 6.488 2 12 2zm-1.139 6.03c-.212 0-.415.048-.608.145a1.251 1.251 0 00-.54.598c-.068.173-.174.694-.174.704-.107.57-.164 1.496-.164 2.518 0 .976.057 1.862.144 2.441.01.01.116.656.232.878.212.405.627.656 1.071.656h.039c.29-.01.898-.26.898-.27 1.023-.425 3.04-1.746 3.851-2.624l.058-.058c.106-.106.241-.27.27-.309.155-.202.232-.453.232-.703 0-.281-.087-.541-.251-.754-.039-.038-.183-.202-.319-.337-.791-.85-2.857-2.239-3.938-2.663-.164-.067-.579-.212-.801-.222z"/>
</svg>
