<svg xmlns="http://www.w3.org/2000/svg" viewBox="0 0 24 24" fill="currentColor" focusable="false">
  <path d="M16.076 2h3.385A2.549 2.549 0 0122 4.56v3.415a2.549 2.549 0 01-2.539 2.56h-3.385a2.549 2.549 0 01-2.539-2.56V4.56A2.549 2.549 0 0116.076 2" opacity=".4"/>
  <path d="M7.924 13.466a2.549 2.549 0 012.539 2.56v3.414A2.55 2.55 0 017.924 22H4.54A2.55 2.55 0 012 19.44v-3.415a2.549 2.549 0 012.539-2.56h3.385zm11.537 0A2.549 2.549 0 0122 16.026v3.414A2.55 2.55 0 0119.461 22h-3.385a2.55 2.55 0 01-2.539-2.56v-3.415a2.549 2.549 0 012.539-2.56h3.385zM7.924 2a2.549 2.549 0 012.539 2.56v3.415a2.549 2.549 0 01-2.539 2.56H4.54A2.549 2.549 0 012 7.974V4.56A2.549 2.549 0 014.539 2h3.385z"/>
</svg>
