<svg viewBox="0 0 24 24" xmlns="http://www.w3.org/2000/svg" focusable="false">
  <path d="M12.375 2.002a5.306 5.306 0 015.298 5.301V8.88a4.55 4.55 0 013.052 4.29v4.29a4.546 4.546 0 01-4.542 4.542H8.542A4.546 4.546 0 014 17.46v-4.29a4.55 4.55 0 013.051-4.29V7.303A5.278 5.278 0 018.62 3.538c1.006-.997 2.334-1.574 3.755-1.536zm3.808 8.127H8.542A3.045 3.045 0 005.5 13.17v4.289a3.045 3.045 0 003.042 3.042h7.641a3.045 3.045 0 003.042-3.042v-4.29a3.045 3.045 0 00-3.042-3.041zm-3.82 3.326a.75.75 0 01.75.75v2.22a.75.75 0 01-1.5 0v-2.22a.75.75 0 01.75-.75zm.009-9.953h-.016a3.78 3.78 0 00-2.68 1.101 3.768 3.768 0 00-1.124 2.683L8.55 8.628h7.621V7.303a3.805 3.805 0 00-3.8-3.801z" fill-rule="evenodd"/>
</svg>
