<svg xmlns="http://www.w3.org/2000/svg" viewBox="0 0 32 32" fill="currentColor" focusable="false">
  <path d="M29.316 1.441a4.909 4.909 0 00-6.949 0L2.883 20.926a1.09 1.09 0 00-.281.48l-2.563 9.25A1.091 1.091 0 001.383 32l9.25-2.563a1.09 1.09 0 00.48-.28L30.598 9.671a4.916 4.916 0 000-6.95zM5.262 21.633L21.207 5.688l5.145 5.14-15.946 15.95zm-1.028 2.062l4.11 4.11-5.684 1.574zM29.054 8.13l-1.156 1.156-5.144-5.144 1.156-1.157a2.732 2.732 0 013.863 0l1.282 1.282a2.732 2.732 0 010 3.863zm0 0"/>
</svg>
