<svg viewBox="0 0 24 24" xmlns="http://www.w3.org/2000/svg" focusable="false">
  <path d="M15.753 2C19.59 2 22 4.392 22 8.253v2.569a.757.757 0 01-.756.756h-.009v-.018a.765.765 0 01-.765-.763V8.253c0-3.053-1.67-4.723-4.714-4.723h-7.5C5.21 3.53 3.53 5.21 3.53 8.253v7.5c0 3.034 1.68 4.714 4.723 4.714h7.5c3.043 0 4.714-1.68 4.714-4.714a.765.765 0 111.53 0C22 19.608 19.608 22 15.757 22H8.252C4.393 22 2 19.608 2 15.756v-7.5C2 4.392 4.392 2 8.253 2zM9.815 13.145a.766.766 0 011.044 1.12l-.681.68a.764.764 0 01-1.063-.018l-.022-.016a.773.773 0 01.038-1.082zm-.573-4.254a.755.755 0 011.077-.006l1.865 1.866 1.697-1.698a.783.783 0 011.088.007c.054.054.1.115.135.183a.767.767 0 01-.122.925l-1.69 1.69 1.838 1.838a.77.77 0 01.028 1.091c-.004.006-.01.01-.015.016a.767.767 0 01-1.07.012l-.038-.037L9.255 10a.817.817 0 01-.013-1.108z"/>
</svg>
