<svg xmlns="http://www.w3.org/2000/svg" viewBox="0 0 48 48" focusable="false">
  <path d="M29.2 21.2s7.1-4.2 8.5-3.5c1.4.8-.6 8.2-5 10-4.5 1.9-3.5-6.5-3.5-6.5zm-10.2 0s-7.1-4.2-8.5-3.5c-1.4.8.6 8.2 5 10 4.4 1.9 3.5-6.5 3.5-6.5z" fill="#FFE500"/>
  <path d="M29.2 23.7s7.1-4.2 8.5-3.5l.3.3c.3-1.4.3-2.5-.3-2.8-1.4-.8-8.5 3.5-8.5 3.5s-.2 1.4 0 2.9c-.1-.2 0-.4 0-.4zm-18.7-3.5c1.4-.8 8.5 3.5 8.5 3.5v.4c.1-1.5 0-2.9 0-2.9s-7.1-4.2-8.5-3.5c-.5.3-.6 1.4-.3 2.8l.3-.3z" fill="#FFF48C"/>
  <path d="M29.2 21.2s7.1-4.2 8.5-3.5c1.4.8-.6 8.2-5 10-4.5 1.9-3.5-6.5-3.5-6.5zm-10.2 0s-7.1-4.2-8.5-3.5c-1.4.8.6 8.2 5 10 4.4 1.9 3.5-6.5 3.5-6.5z" fill="none" stroke="#45413C" stroke-linecap="round" stroke-linejoin="round" stroke-miterlimit="10"/>
  <ellipse cx="24.1" cy="44.7" rx="11.5" ry="1.5" fill="#45413c" opacity=".15"/>
  <ellipse cx="24.1" cy="30.2" rx="10.5" ry="12.5" fill="#FFE500"/>
  <path d="M32.3 22.4c-1.9 2.4-4.9 4-8.2 4s-6.3-1.6-8.2-4c1.9-2.9 4.9-4.8 8.2-4.8s6.3 1.9 8.2 4.8z" fill="#EBCB00"/>
  <ellipse cx="24.1" cy="30.2" rx="10.5" ry="12.5" fill="none" stroke="#45413C" stroke-linecap="round" stroke-linejoin="round" stroke-miterlimit="10"/>
  <circle cx="24.1" cy="12.2" r="10.5" fill="#FFE500"/>
  <path d="M24.1 4.6c5.3 0 9.7 3.9 10.4 9 .1-.5.1-1 .1-1.5 0-5.8-4.7-10.5-10.5-10.5S13.6 6.4 13.6 12.2c0 .5 0 1 .1 1.5.7-5.2 5.1-9.1 10.4-9.1z" fill="#FFF48C"/>
  <circle cx="24.1" cy="12.2" r="10.5" fill="none" stroke="#45413C" stroke-linecap="round" stroke-linejoin="round" stroke-miterlimit="10"/>
  <path d="M39.2 27.7L35.9 31c-.3.3-.9.3-1.2 0l-4.4-4.4c-.3-.3-.9-.3-1.2 0L24.7 31c-.3.3-.9.3-1.2 0l-4.4-4.4c-.3-.3-.9-.3-1.2 0L13.5 31c-.3.3-.9.3-1.2 0L9 27.7c-.3-.3-.8-.1-.7.3.7 11.1 7.5 16.7 15.8 16.7S39.2 39.1 39.9 28c0-.3-.5-.6-.7-.3z" fill="#f0f0f0"/>
  <path d="M9 30.9l3.3 2.9c.3.3.9.3 1.2 0l4.4-3.8c.3-.3.9-.3 1.2 0l4.4 3.8c.3.3.9.3 1.2 0l4.4-3.8c.3-.3.9-.3 1.2 0l4.4 3.8c.3.3.9.3 1.2 0l3.3-2.9c.1-.1.3-.1.4-.1.1-.9.3-1.8.3-2.7 0-.4-.5-.6-.7-.3L35.9 31c-.3.3-.9.3-1.2 0l-4.4-4.4c-.3-.3-.9-.3-1.2 0L24.7 31c-.3.3-.9.3-1.2 0l-4.4-4.4c-.3-.3-.9-.3-1.2 0L13.5 31c-.3.3-.9.3-1.2 0L9 27.7c-.3-.3-.8-.1-.7.3.1 1 .2 1.9.3 2.7.1 0 .3.1.4.2z" fill="#fff"/>
  <path d="M39.2 27.7L35.9 31c-.3.3-.9.3-1.2 0l-4.4-4.4c-.3-.3-.9-.3-1.2 0L24.7 31c-.3.3-.9.3-1.2 0l-4.4-4.4c-.3-.3-.9-.3-1.2 0L13.5 31c-.3.3-.9.3-1.2 0L9 27.7c-.3-.3-.8-.1-.7.3.7 11.1 7.5 16.7 15.8 16.7S39.2 39.1 39.9 28c0-.3-.5-.6-.7-.3z" fill="none" stroke="#45413C" stroke-linecap="round" stroke-linejoin="round" stroke-miterlimit="10"/>
  <path d="M22.9 14.3l-2 1.5c-.4.3-.5.9-.2 1.4l1.4 1.9c1 1.4 3 1.4 4 0l1.4-1.9c.3-.4.2-1.1-.2-1.4l-2-1.5c-.7-.5-1.7-.5-2.4 0z" fill="#ff8a14"/>
  <path d="M20.8 17.4c0-.1 0-.1 0 0l2.1-1.2c.7-.4 1.6-.4 2.3 0l2 1.2.1.1.1-.2c.3-.4.2-1.1-.2-1.4l-2-1.5c-.7-.5-1.6-.5-2.3 0l-2 1.5c-.4.3-.5.9-.2 1.4l.1.1z" fill="#ffaa54"/>
  <path d="M22.9 14.3l-2 1.5c-.4.3-.5.9-.2 1.4l1.4 1.9c1 1.4 3 1.4 4 0l1.4-1.9c.3-.4.2-1.1-.2-1.4l-2-1.5c-.7-.5-1.7-.5-2.4 0z" fill="none" stroke="#45413C" stroke-linecap="round" stroke-linejoin="round" stroke-miterlimit="10"/>
  <path d="M20.5 16.6h.1s2.6 1 3.5 1 3.5-1 3.5-1h.1" fill="none" stroke="#45413C" stroke-linecap="round" stroke-linejoin="round" stroke-miterlimit="10"/>
  <circle cx="29.4" cy="10.8" r="1.4" fill="#45413C" stroke="#45413C" stroke-linecap="round" stroke-linejoin="round" stroke-miterlimit="10"/>
  <circle cx="18.7" cy="10.8" r="1.4" fill="#45413C" stroke="#45413C" stroke-linecap="round" stroke-linejoin="round" stroke-miterlimit="10"/>
  <ellipse cx="31.2" cy="14.8" rx="1.6" ry="1" fill="#EBCB00"/>
  <ellipse cx="16.9" cy="14.8" rx="1.6" ry="1" fill="#EBCB00"/>
</svg>
