<svg xmlns="http://www.w3.org/2000/svg" viewBox="0 0 32 32" focusable="false">
  <path fill="#fdc475" d="M12.5 16.5h7v15h-7z"/>
  <path fill="#2c2b2d" d="M19.5 32h-7a.5.5 0 01-.5-.5v-15a.5.5 0 01.5-.5h7a.5.5 0 01.5.5v15a.5.5 0 01-.5.5zM13 31h6V17h-6z"/>
  <path fill="#ffdaa7" d="M19.5 31.5h-7v-8.36A4.826 4.826 0 0116 18.5a4.826 4.826 0 013.5 4.64z"/>
  <path fill="#2c2b2d" d="M19.5 32h-7a.5.5 0 01-.5-.5v-8.36a5.349 5.349 0 013.863-5.121.504.504 0 01.274 0A5.349 5.349 0 0120 23.14v8.36a.5.5 0 01-.5.5zM13 31h6v-7.86a4.345 4.345 0 00-3-4.118 4.345 4.345 0 00-3 4.118z"/>
  <path fill="#fdc475" d="M19.5 22.5h8.397v9H19.5z"/>
  <path fill="#2c2b2d" d="M27.897 32H19.5a.5.5 0 01-.5-.5v-9a.5.5 0 01.5-.5h8.397a.5.5 0 01.5.5v9a.5.5 0 01-.5.5zM20 31h7.397v-8H20z"/>
  <path fill="#fdc475" d="M4 22.5h8.5v9H4z"/>
  <path fill="#2c2b2d" d="M12.5 32H4a.5.5 0 01-.5-.5v-9A.5.5 0 014 22h8.5a.5.5 0 01.5.5v9a.5.5 0 01-.5.5zm-8-1H12v-8H4.5z"/>
  <path fill="#f7991d" d="M19.5 16.5h-7l-.592-2.37a2 2 0 011.128-2.312L16 10.5l2.964 1.318a2 2 0 011.128 2.312z"/>
  <path fill="#2c2b2d" d="M19.5 17h-7a.5.5 0 01-.485-.379l-.592-2.37a2.496 2.496 0 011.41-2.89l2.964-1.318a.499.499 0 01.406 0l2.964 1.317a2.496 2.496 0 011.41 2.891l-.592 2.37A.5.5 0 0119.5 17zm-6.61-1h6.22l.497-1.99a1.497 1.497 0 00-.846-1.736L16 11.047l-2.761 1.227a1.497 1.497 0 00-.846 1.735z"/>
  <path fill="#f7991d" d="M28 22.5h-8.5v-2.096a3 3 0 011.723-2.715L23.75 16.5l2.527 1.19A3 3 0 0128 20.403z"/>
  <path fill="#2c2b2d" d="M28 23h-8.5a.5.5 0 01-.5-.5v-2.096a3.514 3.514 0 012.01-3.167l2.527-1.19a.5.5 0 01.426 0l2.527 1.19a3.514 3.514 0 012.01 3.167V22.5a.5.5 0 01-.5.5zm-8-1h7.5v-1.596a2.51 2.51 0 00-1.436-2.262l-2.314-1.09-2.314 1.09A2.51 2.51 0 0020 20.404z"/>
  <path fill="#f7991d" d="M12.5 22.5H4v-2.096a3 3 0 011.723-2.715L8.25 16.5l2.527 1.19a3 3 0 011.723 2.714z"/>
  <path fill="#2c2b2d" d="M12.5 23H4a.5.5 0 01-.5-.5v-2.096a3.514 3.514 0 012.01-3.167l2.527-1.19a.5.5 0 01.426 0l2.527 1.19A3.514 3.514 0 0113 20.404V22.5a.5.5 0 01-.5.5zm-8-1H12v-1.596a2.51 2.51 0 00-1.436-2.262l-2.314-1.09-2.314 1.09A2.51 2.51 0 004.5 20.404zM16 11a.5.5 0 01-.5-.5v-1a.5.5 0 011 0v1a.5.5 0 01-.5.5z"/>
  <path fill="#2c2b2d" d="M8.25 17a.5.5 0 01-.5-.5v-1a.5.5 0 011 0v1a.5.5 0 01-.5.5zm15.5 0a.5.5 0 01-.5-.5v-1a.5.5 0 011 0v1a.5.5 0 01-.5.5z"/>
  <path fill="#ffdaa7" d="M26 31.5h-4.5v-4.7a2 2 0 011.188-1.828l1.062-.472 1.062.472A2 2 0 0126 26.8z"/>
  <path fill="#2c2b2d" d="M26 32h-4.5a.5.5 0 01-.5-.5v-4.7a2.502 2.502 0 011.484-2.285l1.063-.472a.499.499 0 01.406 0l1.063.472A2.502 2.502 0 0126.5 26.8v4.7a.5.5 0 01-.5.5zm-4-1h3.5v-4.2a1.5 1.5 0 00-.89-1.37l-.86-.383-.86.382A1.5 1.5 0 0022 26.8z"/>
  <path fill="#ffdaa7" d="M10.5 31.5H6v-4.7a2 2 0 011.188-1.828L8.25 24.5l1.062.472A2 2 0 0110.5 26.8z"/>
  <path fill="#2c2b2d" d="M10.5 32H6a.5.5 0 01-.5-.5v-4.7a2.502 2.502 0 011.484-2.285l1.063-.472a.499.499 0 01.406 0l1.063.472A2.502 2.502 0 0111 26.8v4.7a.5.5 0 01-.5.5zm-4-1H10v-4.2a1.5 1.5 0 00-.89-1.37l-.86-.383-.86.382a1.5 1.5 0 00-.89 1.37z"/>
  <path fill="#f7991d" d="M30.5 8.5h-3l-.638-1.277a1 1 0 01.27-1.228L29 4.5l1.869 1.495a1 1 0 01.27 1.228z"/>
  <path fill="#2c2b2d" d="M30.5 9h-3a.5.5 0 01-.447-.276l-.639-1.277a1.509 1.509 0 01.405-1.843l1.869-1.495a.502.502 0 01.625 0l1.868 1.495a1.508 1.508 0 01.405 1.842l-.639 1.278A.5.5 0 0130.5 9zm-2.69-1h2.38l.501-1a.502.502 0 00-.135-.614L29 5.14l-1.556 1.246a.503.503 0 00-.135.614z"/>
  <path fill="#2c2b2d" d="M31.5 9h-5a.5.5 0 010-1h5a.5.5 0 010 1zM29 5a.5.5 0 01-.5-.5v-1a.5.5 0 011 0v1a.5.5 0 01-.5.5z"/>
  <path fill="#fdc475" d="M28 8.5h2v23h-2z"/>
  <path fill="#2c2b2d" d="M30 32h-2a.5.5 0 01-.5-.5v-23A.5.5 0 0128 8h2a.5.5 0 01.5.5v23a.5.5 0 01-.5.5zm-1.5-1h1V9h-1z"/>
  <path fill="#f7991d" d="M4.5 8.5h-3L.862 7.223a1 1 0 01.27-1.228L3 4.5l1.869 1.495a1 1 0 01.27 1.228z"/>
  <path fill="#2c2b2d" d="M4.5 9h-3a.5.5 0 01-.447-.276L.414 7.447A1.509 1.509 0 01.82 5.604L2.688 4.11a.502.502 0 01.624 0l1.87 1.495a1.508 1.508 0 01.404 1.842l-.639 1.278A.5.5 0 014.5 9zM1.81 8h2.38l.501-1a.502.502 0 00-.135-.614L3 5.14 1.444 6.386A.503.503 0 001.309 7z"/>
  <path fill="#2c2b2d" d="M5.5 9h-5a.5.5 0 010-1h5a.5.5 0 010 1zM3 5a.5.5 0 01-.5-.5v-1a.5.5 0 011 0v1A.5.5 0 013 5z"/>
  <path fill="#fdc475" d="M2 8.5h2v23H2z"/>
  <path fill="#2c2b2d" d="M4 32H2a.5.5 0 01-.5-.5v-23A.5.5 0 012 8h2a.5.5 0 01.5.5v23a.5.5 0 01-.5.5zm-1.5-1h1V9h-1z"/>
  <path fill="#e0e0e2" d="M19.433 4.228A3.491 3.491 0 0119.59.5a3.495 3.495 0 102.026 6.51 3.467 3.467 0 001.124-1.054 3.491 3.491 0 01-3.307-1.728z"/>
  <path fill="#2c2b2d" d="M19.873 7.98a4.026 4.026 0 01-1.042-.138 4 4 0 01-2.829-4.9 3.962 3.962 0 013.549-2.94.49.49 0 01.472.248.5.5 0 01-.021.533 2.981 2.981 0 002.7 4.675.492.492 0 01.471.249.5.5 0 01-.02.533 3.956 3.956 0 01-3.28 1.74zM18.67 1.228a2.82 2.82 0 00-.305.152 3 3 0 103 5.196 2.75 2.75 0 00.284-.188 3.981 3.981 0 01-2.979-5.16z"/>
</svg>
