<svg xmlns="http://www.w3.org/2000/svg" viewBox="0 0 24 24" focusable="false">
  <path fill="none" d="M0 0h24v24H0z"/>
  <ellipse cx="18.489" cy="5.505" rx="3.511" ry="3.505"/>
  <ellipse cx="18.489" cy="18.495" rx="3.511" ry="3.505"/>
  <path d="M9.02 11.986a3.417 3.417 0 01-.37 1.568 3.504 3.504 0 110-3.135 3.417 3.417 0 01.37 1.567z"/>
  <ellipse cx="18.489" cy="5.505" rx="3.511" ry="3.505"/>
  <ellipse cx="18.489" cy="18.495" rx="3.511" ry="3.505"/>
  <path d="M12.53 8.482l-3.88 1.937m3.88 5.071l-3.88-1.937m.37-1.567a3.417 3.417 0 01-.37 1.568 3.504 3.504 0 110-3.135 3.417 3.417 0 01.37 1.567z"/>
</svg>
