<svg xmlns="http://www.w3.org/2000/svg" viewBox="0 0 32 32" focusable="false" fill="currentColor">
  <path d="M27.014 30.354H4.998a1.023 1.023 0 01-1.024-1.024V17.92a1.02 1.02 0 01.351-.767l.001-.001 10.592-9.216a1.026 1.026 0 011.317-.023l-.002-.002 11.424 9.216c.234.189.383.476.384.797v11.41a1.024 1.024 0 01-1.024 1.019h-.003zM6.022 28.306H25.99V18.41l-10.374-8.37-9.592 8.346zm14.135 1.08a1.023 1.023 0 01-1.024-1.024v-8.384h-6.461v8.384a1.023 1.023 0 11-2.048 0v-9.408c0-.566.458-1.024 1.024-1.024h8.509c.566 0 1.024.458 1.024 1.024v9.408c0 .566-.458 1.024-1.024 1.024zm8.131-15.562a1.02 1.02 0 01-.653-.236l.002.001-12.02-9.938-11.219 9.916a1.023 1.023 0 01-1.703-.768c0-.305.133-.579.345-.767l.001-.001L14.913 1.535a1.02 1.02 0 011.332-.02l-.002-.001L28.947 12.01a1.023 1.023 0 01-.652 1.814h-.006z"/>
</svg>
