<svg viewBox="0 0 24 24" xmlns="http://www.w3.org/2000/svg" focusable="false">
  <path d="M12.014 3a2.78 2.78 0 012.439 1.415l7.186 12.564c.503.879.5 1.928-.01 2.805a2.783 2.783 0 01-2.43 1.402H4.816a2.783 2.783 0 01-2.432-1.402 2.781 2.781 0 01-.01-2.805l7.2-12.566A2.777 2.777 0 0112.014 3zm-.001 1.5c-.476 0-.9.246-1.138.659L3.677 17.724a1.3 1.3 0 00.005 1.308c.237.409.66.654 1.134.654h14.383c.472 0 .896-.245 1.133-.654.238-.409.24-.898.004-1.308L13.15 5.159a1.296 1.296 0 00-1.138-.659zm-.007 10.999a1 1 0 110 2 1.003 1.003 0 01-1.005-1c0-.553.443-1 .995-1h.01zm-.002-5.935a.75.75 0 01.75.75v3.1a.75.75 0 01-1.5 0v-3.1a.75.75 0 01.75-.75z" fill-rule="evenodd"/>
</svg>
