<svg viewBox="0 0 24 24" xmlns="http://www.w3.org/2000/svg" focusable="false">
  <path d="M8.09 5.001l.47.001h.243l.5.001 3.156.006.39.001h.177c2.25-.157 4.281 1.513 4.462 3.754.002.023.003.153.005.39l2.076-1.7a1.983 1.983 0 012.122-.259 1.982 1.982 0 011.142 1.807l-.012 7.35a1.981 1.981 0 01-1.145 1.803 1.987 1.987 0 01-2.121-.262l-2.058-1.707v.087a3.976 3.976 0 01-1.06 2.863 4.222 4.222 0 01-2.96 1.36 8.89 8.89 0 01-.31.004h-1.993l-.482-.002-3.448-.007h-.41l-.369-.001a4.224 4.224 0 01-.318.012c-2.114 0-3.958-1.62-4.132-3.744v-.023l-.001-.007v-.046l-.002-.058v-.119l-.001-.039v-.14l-.002-.181v-.407l-.002-.316v-.817l-.002-.897V9.223A3.954 3.954 0 013.06 6.37a4.225 4.225 0 013.17-1.369h.215L6.576 5H8.09zm4.99 1.508l-4.123-.006H6.076a2.728 2.728 0 00-1.91.88 2.489 2.489 0 00-.663 1.806l.001 3.863v.254l.001 1.194v.632l.001.192.001.515c.001.464.003.765.004.823.114 1.385 1.412 2.444 2.898 2.33h.484l.503.001 1.309.002.528.001.779.001.501.001h.244l.468.001h1.989l.21-.001a2.726 2.726 0 001.908-.877 2.486 2.486 0 00.666-1.8v-5.086l-.002-.855v-.706l-.002-.405v-.2l-.003-.213c-.113-1.392-1.417-2.464-2.91-2.347zm7.438 2.106l-3.021 2.466v2.89l3.01 2.763c.22.18.443.106.529.064a.482.482 0 00.285-.449L21.333 9a.483.483 0 00-.285-.45.487.487 0 00-.53.065z" fill-rule="evenodd"/>
</svg>
