<svg viewBox="0 0 24 24" xmlns="http://www.w3.org/2000/svg" focusable="false">
  <path d="M12.267 2c.716 0 1.412.294 1.911.805.498.514.773 1.22.752 1.934.002.161.055.347.151.51a1.157 1.157 0 001.583.415 2.67 2.67 0 013.64.977l.623 1.08a.85.85 0 01.042.085 2.673 2.673 0 01-1.01 3.545 1.142 1.142 0 00-.424.421 1.174 1.174 0 00-.12.883c.08.3.271.55.54.703a2.67 2.67 0 011.241 1.616 2.674 2.674 0 01-.27 2.021l-.665 1.107a2.665 2.665 0 01-3.627.959 1.19 1.19 0 00-.558-.155h-.006c-.289 0-.586.123-.802.338a1.143 1.143 0 00-.337.82 2.67 2.67 0 01-2.664 2.657h-1.253a2.666 2.666 0 01-2.664-2.663 1.076 1.076 0 00-.15-.532 1.158 1.158 0 00-.705-.547 1.157 1.157 0 00-.872.117 2.706 2.706 0 01-2.043.244 2.681 2.681 0 01-1.6-1.27l-.625-1.077a2.658 2.658 0 01.97-3.625 1.164 1.164 0 000-2.015 2.668 2.668 0 01-.97-3.633l.677-1.113c.721-1.254 2.351-1.696 3.622-.966.173.103.361.155.552.157.623 0 1.144-.514 1.154-1.146a2.63 2.63 0 01.772-1.87A2.64 2.64 0 0111.014 2h1.253zm0 1.5h-1.253A1.153 1.153 0 009.86 4.66a2.677 2.677 0 01-2.663 2.638 2.58 2.58 0 01-1.299-.362 1.165 1.165 0 00-1.576.436l-.677 1.113a1.16 1.16 0 00.432 1.57 2.674 2.674 0 011.33 2.306 2.67 2.67 0 01-1.332 2.306 1.155 1.155 0 00-.42 1.575l.63 1.088c.156.282.411.485.706.568.294.082.618.047.888-.104a2.625 2.625 0 011.323-.354 2.633 2.633 0 012.293 1.33c.226.381.351.826.355 1.28 0 .65.522 1.171 1.164 1.171h1.253c.64 0 1.161-.518 1.164-1.157a2.628 2.628 0 01.777-1.881c.498-.498 1.194-.797 1.89-.777.456.01.895.134 1.282.354a1.17 1.17 0 001.59-.422l.664-1.107a1.157 1.157 0 00-.426-1.572 2.637 2.637 0 01-1.242-1.618 2.67 2.67 0 01.271-2.018c.23-.4.567-.737.971-.97a1.166 1.166 0 00.417-1.578.558.558 0 01-.035-.068l-.586-1.016a1.165 1.165 0 00-1.586-.43 2.616 2.616 0 01-2.006.278 2.63 2.63 0 01-1.622-1.227 2.554 2.554 0 01-.359-1.286 1.193 1.193 0 00-.329-.874 1.168 1.168 0 00-.835-.351zm-.622 5.475a3.39 3.39 0 013.386 3.387 3.389 3.389 0 01-3.386 3.385 3.389 3.389 0 01-3.386-3.385 3.39 3.39 0 013.386-3.387zm0 1.5a1.887 1.887 0 101.886 1.887c0-1.04-.846-1.887-1.886-1.887z" fill-rule="evenodd"/>
</svg>
