<svg viewBox="0 0 24 24" xmlns="http://www.w3.org/2000/svg" focusable="false">
  <path d="M12.823 3c1.062.018 2.035.754 2.388 1.957.13.503.183 1.007.233 1.495l.048.44c.183 1.478.183 8.737 0 10.218l-.048.455c-.045.463-.092.943-.228 1.454C14.866 20.22 13.921 21 12.85 21c-.033-.001-.066-.002-.1-.001-.593 0-1.238-.361-1.602-.675L7.378 17.2a.813.813 0 01-.115-1.132.784.784 0 011.115-.116l3.78 3.135c.238.202.55.327.633.3.39.03.757-.312.902-.807.096-.361.135-.757.175-1.173.016-.166.032-.328.052-.495.164-1.334.164-8.492 0-9.822l-.05-.47c-.046-.428-.092-.869-.184-1.23-.138-.467-.51-.821-.855-.779-.148.005-.513.15-.738.345L8.38 8.046a.783.783 0 01-.502.182H5.77c-.664 0-.98.573-1.053 1.11-.178 1.453-.179 3.965 0 5.259a.805.805 0 01-.675.91.802.802 0 01-.894-.688c-.218-1.581-.176-4.269 0-5.692.202-1.482 1.28-2.508 2.622-2.508h1.825l3.484-2.899c.419-.362 1.182-.715 1.744-.72zm5.4 2.964a.785.785 0 011.101.2C20.405 7.746 21 9.816 21 12c0 2.183-.595 4.255-1.676 5.835a.787.787 0 01-1.102.2.812.812 0 01-.197-1.12c.897-1.312 1.392-3.058 1.392-4.915 0-1.858-.495-3.603-1.392-4.914a.815.815 0 01.197-1.122z"/>
</svg>
