<svg viewBox="0 0 24 24" xmlns="http://www.w3.org/2000/svg" focusable="false">
  <path d="M12.086 22a.778.778 0 01-.358-.086L8.126 20.05c-1.023-.53-1.822-1.124-2.445-1.816a8.243 8.243 0 01-2.14-5.474L3.5 6.124a1.812 1.812 0 011.227-1.712l6.613-2.305c.394-.14.832-.142 1.23-.007l6.638 2.227a1.81 1.81 0 011.25 1.695l.042 6.64a8.241 8.241 0 01-2.065 5.496c-.618.702-1.41 1.305-2.421 1.845l-3.57 1.906a.768.768 0 01-.358.091" opacity=".4"/>
  <path d="M13.068 11.725l1.358-1.323a.721.721 0 000-1.04.77.77 0 00-1.068 0L12 10.685l-1.358-1.321a.77.77 0 00-1.068 0 .721.721 0 000 1.04l1.358 1.322-1.358 1.323a.721.721 0 000 1.04.764.764 0 00.535.215.763.763 0 00.533-.216L12 12.765l1.358 1.322a.764.764 0 001.068 0 .721.721 0 000-1.04l-1.358-1.322z"/>
</svg>
