<svg viewBox="0 0 24 24" xmlns="http://www.w3.org/2000/svg" focusable="false">
  <g stroke="#000" stroke-width="1.5" fill="none" fill-rule="evenodd" stroke-linecap="round" stroke-linejoin="round">
    <path d="M16.303 2.75H7.65c-3.012 0-4.901 2.134-4.901 5.154v8.146c0 3.02 1.88 5.154 4.9 5.154h8.648c3.025 0 4.905-2.134 4.905-5.154V7.904c.004-3.02-1.877-5.154-4.9-5.154z"/>
    <path d="M10.703 8.785a1.845 1.845 0 11-3.69.001 1.845 1.845 0 013.69-.001zm10.504 6.166c-.923-.95-2.698-2.869-4.628-2.869-1.931 0-3.044 4.233-4.901 4.233-1.857 0-3.544-1.914-5.032-.687-1.488 1.226-2.896 3.733-2.896 3.733" opacity=".4"/>
  </g>
</svg>
