<svg viewBox="0 0 24 24" xmlns="http://www.w3.org/2000/svg" focusable="false">
  <path d="M16.334 2C19.724 2 22 4.378 22 7.917v8.166C22 19.622 19.723 22 16.333 22H7.666C4.276 22 2 19.622 2 16.083V7.917C2 4.378 4.277 2 7.666 2h8.668zm1.103 10.55c-1.072-.669-1.9.27-2.123.57-.215.29-.4.61-.595.93-.477.79-1.023 1.7-1.968 2.23-1.374.76-2.417.06-3.167-.45-.282-.19-.555-.37-.828-.49-.671-.29-1.276.04-2.173 1.18-.47.596-.937 1.186-1.41 1.774-.282.352-.215.895.167 1.13.608.375 1.35.576 2.189.576h8.427a4.51 4.51 0 001.407-.214c1.024-.334 1.836-1.1 2.26-2.111.359-.85.533-1.882.198-2.741a2.256 2.256 0 00-.513-.783c-.614-.61-1.189-1.18-1.871-1.6zM8.499 6A2.502 2.502 0 006 8.5C6 9.878 7.12 11 8.499 11a2.503 2.503 0 002.499-2.5c0-1.378-1.122-2.5-2.5-2.5z"/>
</svg>
