<svg data-name="Layer 1" xmlns="http://www.w3.org/2000/svg" viewBox="0 0 24 24" focusable="false">
  <path fill="none" d="M0 0h24v24H0z"/>
  <g opacity=".1">
    <path d="M9.989 13.007a5.026 5.026 0 007.583.544l3.017-3.02a5.031 5.031 0 00-7.11-7.118l-7.05 7.037"/>
    <path d="M14.012 10.994a5.026 5.026 0 00-7.583-.544l-3.017 3.02a5.031 5.031 0 007.11 7.117l7.05-7.036"/>
  </g>
  <path d="M9.989 13.007a5.026 5.026 0 007.583.544l3.017-3.02a5.031 5.031 0 00-7.11-7.118l-1.73 1.722"/>
  <path d="M14.012 10.994a5.026 5.026 0 00-7.583-.544l-3.017 3.02a5.031 5.031 0 007.11 7.117l1.72-1.721"/>
</svg>
