<svg xmlns="http://www.w3.org/2000/svg" viewBox="0 0 48 48">
  <ellipse cx="24" cy="44.3" rx="9.5" ry="1.6" fill="#45413c" opacity=".15"/>
  <path d="M22.3 29.1c1 4.2.7 11.2.7 11.2 0 .4-.3.7-.6.7-2.9.2-5.1.9-5.5 1.7-.1.2 0 .4.2.4.7.3 2.8 1.3 7 1.3s6.4-.9 7-1.3c.2-.1.2-.3.2-.4-.4-.8-2.6-1.5-5.5-1.7-.4 0-.6-.3-.6-.7 0 0-.3-7 .7-11.2h-3.6z" fill="#00b8f0" stroke="#45413c" stroke-linecap="round" stroke-linejoin="round" stroke-miterlimit="10"/>
  <path class="st35" d="M17.4 3.4c.7-1 3-1.4 6.6-1.4s5.9.3 6.6 1.4c1.5 1.8 3.5 14.4 3.5 17 0 5.6-4.5 10.1-10.1 10.1S13.9 26 13.9 20.4c0-2.5 2-15.2 3.5-17z" fill="#00B8F0"/>
  <path d="M16.9 27.6c9.3-4.3 13.4-13.5 15.2-19.8-.5-2.1-1-3.8-1.5-4.3-.7-1-3-1.4-6.6-1.4s-5.9.3-6.6 1.4c-1.5 1.8-3.5 14.4-3.5 17 0 2.7 1.2 5.2 3 7.1z" fill="#4acfff"/>
  <path class="st35" d="M24 4.8c3.6 0 6.6-.6 6.6-1.4-.7-1-3-1.4-6.6-1.4s-5.9.3-6.6 1.4c0 .8 3 1.4 6.6 1.4z" fill="#00B8F0"/>
  <path class="st10" d="M17.4 3.4c.7-1 3-1.4 6.6-1.4s5.9.3 6.6 1.4c1.5 1.8 3.5 14.4 3.5 17 0 5.6-4.5 10.1-10.1 10.1S13.9 26 13.9 20.4c0-2.5 2-15.2 3.5-17z" fill="none" stroke="#45413C" stroke-linecap="round" stroke-linejoin="round" stroke-miterlimit="10"/>
  <path class="st10" d="M30.6 3.4c0 .8-3 1.4-6.6 1.4s-6.6-.6-6.6-1.4" fill="none" stroke="#45413C" stroke-linecap="round" stroke-linejoin="round" stroke-miterlimit="10"/>
  <path class="st45" d="M16.7 21.8s.7-2.8 4.5-2.8 4.9 2.8 4.9 2.8h-9.4z" fill="#FFF48C"/>
  <path class="st45" d="M32.3 20.4c0 4.6-3.7 8.3-8.3 8.3s-8.3-3.7-8.3-8.3c0 0 2.8 1.4 4.9 1.4s4.9-2.8 6.9-2.8 4.8 1.4 4.8 1.4z" fill="#FFF48C"/>
  <path d="M18.6 26.7c3.6-2 6.3-4.7 8.3-7.6-2 .4-4.5 2.7-6.4 2.7-2.1 0-4.9-1.4-4.9-1.4.1 2.5 1.2 4.8 3 6.3z" fill="#fffacf"/>
  <circle class="st16" cx="19.8" cy="8.6" r="1.4" fill="#E5F8FF"/>
  <circle class="st16" cx="17.8" cy="10.7" r=".7" fill="#E5F8FF"/>
</svg>
