<svg viewBox="0 0 24 24" xmlns="http://www.w3.org/2000/svg" focusable="false">
  <path d="M7.426 18.908c.83 0 1.51.694 1.51 1.551 0 .847-.68 1.541-1.51 1.541a1.533 1.533 0 01-1.519-1.541c0-.857.68-1.551 1.52-1.551zm11.242 0c.829 0 1.508.694 1.508 1.551 0 .847-.68 1.541-1.508 1.541-.84 0-1.52-.694-1.52-1.541 0-.857.68-1.551 1.52-1.551zM2.778 2l.102.009 2.383.366c.34.062.59.347.62.694l.19 2.286c.03.328.29.572.61.572h13.494c.61 0 1.009.215 1.408.684.4.47.47 1.143.38 1.754l-.95 6.695c-.179 1.287-1.258 2.235-2.527 2.235H7.586c-1.329 0-2.428-1.04-2.538-2.387L4.13 3.783l-1.51-.265a.767.767 0 01.26-1.51zM16.89 9.702h-2.768a.75.75 0 00-.75.766c0 .418.33.765.75.765h2.768c.42 0 .75-.347.75-.765a.75.75 0 00-.75-.766z"/>
</svg>
