<svg viewBox="0 0 24 24" xmlns="http://www.w3.org/2000/svg" focusable="false">
  <g fill="none" fill-rule="evenodd">
    <path d="M0 0h24v24H0z"/>
    <path d="M17.333 2C18.806 2 20 3.28 20 4.857v14.286C20 20.72 18.806 22 17.333 22H6.667C5.194 22 4 20.72 4 19.143V4.857C4 3.28 5.194 2 6.667 2h10.666zM17 4H7c-.51 0-.93.42-.992.965L6 5.103v13.794c0 .562.381 1.026.875 1.094L7 20h10c.51 0 .93-.42.992-.965l.008-.138V5.103c0-.562-.381-1.026-.875-1.094L17 4zm-1 13a1 1 0 01-1 1H9a1 1 0 010-2h6a1 1 0 011 1zm0-4a1 1 0 01-1 1h-2a1 1 0 010-2h2a1 1 0 011 1zm-3.732-6.24a2.668 2.668 0 010 3.673l-1.326 1.377a.609.609 0 01-.884 0l-1.326-1.377a2.668 2.668 0 010-3.672 2.435 2.435 0 013.536 0zm-1.768.748a1 1 0 100 2 1 1 0 000-2z" fill="currentColor"/>
  </g>
</svg>
