<svg viewBox="0 0 24 24" xmlns="http://www.w3.org/2000/svg" focusable="false">
  <g fill="none" fill-rule="evenodd">
    <path d="M0 0h24v24H0z"/>
    <path d="M6 7.496h1a1 1 0 011 1v11a1 1 0 01-1 1H6a1 1 0 01-1-1v-11a1 1 0 011-1zm5 3h1a1 1 0 011 1v8a1 1 0 01-1 1h-1a1 1 0 01-1-1v-8a1 1 0 011-1zm5 3h1a1 1 0 011 1v5a1 1 0 01-1 1h-1a1 1 0 01-1-1v-5a1 1 0 011-1zM7.17 3.168c3.06 2.614 5.667 3.774 9.839 4.49l-1.032-1.737a.778.778 0 01.159-.985l.068-.05a.692.692 0 01.937.167l.048.072 1.895 3.186c.194.326.12.75-.16.984l-.068.051-3.078 2.022a.695.695 0 01-.985-.24.778.778 0 01.159-.984l.068-.05 1.515-.996c-4.312-.78-7.068-2.032-10.267-4.763a.778.778 0 01-.104-1.057.692.692 0 011.006-.11z" fill="#242933"/>
  </g>
</svg>
