<svg data-name="Layer 1" xmlns="http://www.w3.org/2000/svg" viewBox="0 0 24 24" focusable="false">
  <path d="M20.593 8.697H3.407a.996.996 0 01-.92-1.397A4.998 4.998 0 017 4.447h10A4.997 4.997 0 0121.515 7.3a.996.996 0 01-.922 1.397zM22 10.75V17a5 5 0 01-5 5H7a5 5 0 01-5-5v-6.25a1 1 0 011-1h18a1 1 0 011 1z"/>
  <path d="M16.242 6.893a.769.769 0 01-.77-.769V2.769a.769.769 0 011.538 0v3.356a.769.769 0 01-.768.768zm-8.483 0a.769.769 0 01-.768-.769V2.769a.769.769 0 011.537 0v3.356a.769.769 0 01-.769.768z"/>
</svg>
