<svg xmlns="http://www.w3.org/2000/svg" viewBox="0 0 24 24" stroke-width="2" stroke="currentColor" fill="none" stroke-linecap="round" stroke-linejoin="round" focusable="false">
  <path d="M0 0h24v24H0z" stroke="none"/>
  <path d="M10 5h4V3a1 1 0 00-1-1h-2a1 1 0 00-1 1v2z"/>
  <path d="M14 3.5c0 1.626.507 3.212 1.45 4.537l.05.07a8.093 8.093 0 011.5 4.694V19a2 2 0 01-2 2H9a2 2 0 01-2-2v-6.2c0-1.682.524-3.322 1.5-4.693l.05-.07A7.823 7.823 0 0010 3.5"/>
  <path d="M7.003 14.803A2.4 2.4 0 008 14a2.4 2.4 0 012-1 2.4 2.4 0 012 1 2.4 2.4 0 002 1 2.4 2.4 0 002-1 2.4 2.4 0 011-.805"/>
</svg>
