<svg xmlns="http://www.w3.org/2000/svg" viewBox="0 0 32 32" focusable="false" fill="currentColor">
  <path d="M3.875 2.098c-.684.187-1.355.77-1.676 1.449l-.168.36v8.75l.184.374c.234.48.773 1.02 1.254 1.254l.375.184h8.75l.36-.168c.417-.196.976-.7 1.202-1.086.344-.59.348-.652.332-5.133l-.02-4.113-.198-.422a2.866 2.866 0 00-1.317-1.317l-.422-.199-4.156-.011c-3.512-.012-4.21 0-4.5.078m15.426.02a2.797 2.797 0 00-1.602 1.429l-.168.36v8.75l.184.374c.234.48.773 1.02 1.254 1.254l.375.184 4.281.015c4.77.02 4.57.036 5.242-.41.399-.261.828-.816.988-1.277.106-.305.114-.621.114-4.578v-4.25l-.2-.422a2.866 2.866 0 00-1.316-1.317l-.422-.199-4.187-.011c-3.907-.016-4.211-.008-4.543.097M12.16 4.34l.152.156v3.77c0 3.683-.004 3.777-.126 3.906-.19.207-.285.21-4.14.191l-3.606-.02-.144-.14-.14-.144-.02-3.606c-.02-3.812-.012-3.953.18-4.144.117-.118.242-.122 3.906-.122h3.78l.157.153m15.5 0l.152.156v3.777c0 3.625-.003 3.782-.12 3.922l-.118.149H19.94l-.144-.14-.14-.145-.02-3.606c-.02-3.812-.012-3.953.18-4.144.117-.118.242-.122 3.906-.122h3.78l.157.153M3.8 17.617a2.797 2.797 0 00-1.6 1.43l-.169.36v8.75l.184.374c.234.48.773 1.02 1.254 1.254l.375.184h8.75l.36-.168c.417-.196.976-.7 1.202-1.086.344-.59.348-.652.332-5.133l-.02-4.113-.198-.422a2.866 2.866 0 00-1.317-1.317l-.422-.199-4.187-.011c-3.906-.016-4.211-.008-4.543.097m15.5 0a2.797 2.797 0 00-1.602 1.43l-.168.36v8.75l.184.374c.234.48.773 1.02 1.254 1.254l.375.184 4.281.015c4.77.02 4.57.036 5.242-.41.399-.262.828-.816.988-1.277.106-.305.114-.621.114-4.578v-4.25l-.2-.422a2.866 2.866 0 00-1.316-1.317l-.422-.199-4.187-.011c-3.907-.016-4.211-.008-4.543.097m-7.14 2.223l.152.156v3.77c0 3.683-.004 3.777-.126 3.906-.19.207-.285.21-4.14.191l-3.606-.02-.144-.14-.14-.144-.02-3.606c-.02-3.812-.012-3.953.18-4.144.117-.118.242-.122 3.906-.122h3.78l.157.153m15.5 0l.152.156v3.777c0 3.625-.003 3.782-.12 3.922l-.118.149h-7.633l-.144-.14-.14-.145-.02-3.606c-.02-3.812-.012-3.953.18-4.144.117-.118.242-.122 3.906-.122h3.78l.157.153"/>
</svg>
