<svg xmlns="http://www.w3.org/2000/svg" viewBox="0 0 32 32" focusable="false">
  <path fill="#fdc475" d="M11.61 13.55a5.413 5.413 0 01-4.378-.644 6.034 6.034 0 01-2.035-3.611 6.436 6.436 0 00-.415-2.059c-.306-.5-1.042-.454-1.553-.697a2.136 2.136 0 00-.536-.193 1.729 1.729 0 00-.463-.018c-.53.048-.623.285-.905.266a1.099 1.099 0 01-.822-1.018 1.3 1.3 0 01.421-.978 2.62 2.62 0 01.98-.515c.637-.249.634-.223.967-.335.94-.315.933-.948 1.652-1.013.401-.036.465.156.897.066.438-.091.545-.325.893-.299a.805.805 0 01.652.4c.157.332-.162.585-.22 1.07-.078.628.377.859.763 1.754a6.839 6.839 0 01.44 2.124c.236 1.288 1.157 2.469 2.596 1.708 1.244-.657 1.642-2.294 2.812-3.075 1.185-.792 2.586-.693 3.626-1.762.963-.988 2.022-1.9 3.463-1.213 1.265.603 1.607 2.098 2.721 2.868a15.86 15.86 0 011.786 1.075A14.863 14.863 0 0126.37 9.18c.745.917.55 1.168 1.119 2.132a9.515 9.515 0 001.886 2.412c1.2 1.067 2.115 1.182 2.126 1.812.008.425-1.652 1.102-2.924.133a12.25 12.25 0 01-2.817-3.056 16.826 16.826 0 001.114 4.18 22.353 22.353 0 002.292 3.906 1.98 1.98 0 01.367 1.154V29.5h-2.83l.944-1.878.155-1.786-2.156-7.183.392 6.2q-.259 1.348-.587 2.77-.223.96-.462 1.877h-3.473l1.437-1.878a14.041 14.041 0 00.81-3.302 17.297 17.297 0 00-.06-3.975 27.457 27.457 0 00-.514-3.27 6.204 6.204 0 01-.309-2.037c.024-1.196.403-2 .17-2.12-.226-.12-.563.598-1.548 1.128a5.732 5.732 0 01-2.276.567c-.536.053-1.265.187-2.151.256l1.557 7.727a2 2 0 01.035.537l-.453 6.367h-2.83l1.004-1.605a1 1 0 00.149-.612l-.683-8.344-1.413-3.512-.685 4.24a3 3 0 00-.032.662l.217 3.543a3 3 0 01-.087.922l-.263 1.039a3 3 0 00-.093.738V29.5h-2.83l.837-1.666a1 1 0 00.107-.449z"/>
  <path fill="#2c2b2d" d="M29.532 30h-2.83a.5.5 0 01-.447-.725l.9-1.792.14-1.595-.876-2.918.117 1.851a.497.497 0 01-.008.126q-.26 1.357-.59 2.788-.225.967-.466 1.891a.498.498 0 01-.484.374h-3.473a.5.5 0 01-.398-.804l1.393-1.819a13.618 13.618 0 00.757-3.115 16.007 16.007 0 00-.04-3.634l-.024-.235a27.2 27.2 0 00-.504-3.21 6.539 6.539 0 01-.32-2.155 7.461 7.461 0 01.1-1.04 4.557 4.557 0 01-.742.498 6.17 6.17 0 01-2.463.623c-.197.02-.421.052-.67.086-.28.04-.592.082-.931.12l1.45 7.182a2.543 2.543 0 01.042.671l-.452 6.367a.5.5 0 01-.499.465h-2.83a.5.5 0 01-.424-.765l1.003-1.605a.499.499 0 00.075-.306l-.678-8.268-.713-1.774-.398 2.464a2.477 2.477 0 00-.027.552l.217 3.544a3.527 3.527 0 01-.101 1.075l-.264 1.039a2.517 2.517 0 00-.077.615V29.5a.5.5 0 01-.5.5h-2.829a.5.5 0 01-.447-.725l.836-1.666a.493.493 0 00.053-.223V14.162a5.535 5.535 0 01-4.178-.856 6.488 6.488 0 01-2.227-3.92 8.863 8.863 0 01-.083-.662 3.298 3.298 0 00-.267-1.227c-.085-.14-.307-.203-.662-.29a3.425 3.425 0 01-.678-.218 1.704 1.704 0 00-.413-.152 1.268 1.268 0 00-.327-.01.905.905 0 00-.391.12 1.163 1.163 0 01-.593.146A1.571 1.571 0 01.004 5.61a1.74 1.74 0 01.56-1.36 2.985 2.985 0 011.159-.634c.46-.18.602-.222.76-.27l.228-.073a1.638 1.638 0 00.708-.472 1.597 1.597 0 011.059-.565 1.428 1.428 0 01.583.06.44.44 0 00.257.015 1.048 1.048 0 00.307-.124 1.272 1.272 0 01.727-.185 1.309 1.309 0 011.064.684 1.105 1.105 0 01-.058.978 1.332 1.332 0 00-.118.367c-.023.195.04.305.243.62a5.604 5.604 0 01.484.875 3.76 3.76 0 01.356 1.376c.02.211.045.468.116.858a1.988 1.988 0 00.87 1.453 1.07 1.07 0 001.003-.099 4.095 4.095 0 001.319-1.427 5.59 5.59 0 011.448-1.622 6.566 6.566 0 011.718-.748 4.12 4.12 0 001.827-.945c.807-.83 2.155-2.217 4.036-1.316a4.511 4.511 0 011.72 1.692 4.61 4.61 0 001.07 1.216 6.029 6.029 0 00.697.393 5.03 5.03 0 011.14.721 8.18 8.18 0 011.05 1.235c.14.189.278.375.42.55a4.073 4.073 0 01.762 1.336 4.792 4.792 0 00.399.858 9.003 9.003 0 001.787 2.293 8.354 8.354 0 001.244.895c.535.33 1.04.642 1.051 1.281.004.192-.077.558-.656.851a2.999 2.999 0 01-3.07-.312 12.207 12.207 0 01-1.616-1.481 16.223 16.223 0 00.678 2.019 21.853 21.853 0 002.236 3.805 2.47 2.47 0 01.46 1.445V29.5a.5.5 0 01-.5.5zm-2.02-1h1.52v-7.146a1.479 1.479 0 00-.274-.865 22.812 22.812 0 01-2.348-4.007 17.341 17.341 0 01-1.146-4.304.5.5 0 01.914-.34 11.857 11.857 0 002.7 2.933 1.978 1.978 0 002.07.188 3.47 3.47 0 00-.524-.362 9.357 9.357 0 01-1.383-.998 10.023 10.023 0 01-1.981-2.529 5.76 5.76 0 01-.478-1.02 3.086 3.086 0 00-.602-1.055c-.15-.186-.297-.385-.446-.585a7.458 7.458 0 00-.917-1.089 4.215 4.215 0 00-.924-.572 7.004 7.004 0 01-.811-.462A5.403 5.403 0 0121.56 5.32a3.704 3.704 0 00-1.33-1.361c-1.035-.493-1.816.008-2.89 1.111a4.96 4.96 0 01-2.236 1.2 5.694 5.694 0 00-1.47.628 4.767 4.767 0 00-1.176 1.352 4.905 4.905 0 01-1.68 1.75 2.03 2.03 0 01-1.905.113 2.934 2.934 0 01-1.418-2.172c-.078-.428-.105-.71-.128-.942a2.8 2.8 0 00-.278-1.075 4.619 4.619 0 00-.405-.729 1.796 1.796 0 01-.396-1.284 2.288 2.288 0 01.19-.64 1.086 1.086 0 00.07-.186.577.577 0 00-.233-.084c-.04-.007-.05-.001-.174.066a2.018 2.018 0 01-.579.224 1.378 1.378 0 01-.726-.03.505.505 0 00-.229-.028c-.174.016-.245.079-.441.275a2.61 2.61 0 01-1.096.714l-.257.082a7.555 7.555 0 00-.687.245 2.942 2.942 0 00-.807.4.802.802 0 00-.277.591.672.672 0 00.357.555 1.98 1.98 0 01.826-.265 2.161 2.161 0 01.601.024 2.614 2.614 0 01.656.232 2.74 2.74 0 00.489.15 1.864 1.864 0 011.277.739 3.932 3.932 0 01.41 1.649c.02.206.038.405.071.58a5.529 5.529 0 001.842 3.3 4.93 4.93 0 003.958.561.496.496 0 01.429.091.501.501 0 01.192.395v13.835a1.508 1.508 0 01-.16.675l-.47.939h1.518v-2.429a3.478 3.478 0 01.108-.862l.264-1.038a2.514 2.514 0 00.072-.769l-.217-3.543a3.473 3.473 0 01.039-.774l.684-4.238a.5.5 0 01.438-.417.505.505 0 01.52.31l1.411 3.513a.502.502 0 01.035.145l.683 8.344a1.49 1.49 0 01-.223.918l-.525.84h1.462l.419-5.902a1.52 1.52 0 00-.025-.405l-1.559-7.726a.501.501 0 01.452-.598c.54-.04 1.02-.107 1.432-.164.262-.037.499-.07.708-.09a5.3 5.3 0 002.089-.51 4.165 4.165 0 00.989-.766c.267-.263.599-.587 1.028-.365.451.237.358.733.259 1.26a7.506 7.506 0 00-.16 1.314 5.669 5.669 0 00.283 1.873 27.908 27.908 0 01.536 3.376l.023.233a16.799 16.799 0 01.037 3.849 14.569 14.569 0 01-.84 3.419.526.526 0 01-.07.128L22.528 29h2.074q.186-.731.362-1.491c.214-.918.402-1.816.571-2.689l-.388-6.135a.501.501 0 01.41-.524.507.507 0 01.567.349l2.157 7.182a.483.483 0 01.02.187l-.156 1.786a.51.51 0 01-.051.182z"/>
</svg>
