<svg viewBox="0 0 24 24" xmlns="http://www.w3.org/2000/svg" focusable="false">
  <path d="M22 14.702v1.384c0 .23-.01.461-.03.69-.28 3.16-2.475 5.224-5.641 5.224H7.67c-1.603 0-2.956-.52-3.928-1.464-.38-.35-.701-.76-.952-1.232.331-.402.702-.842 1.063-1.283a98.76 98.76 0 001.573-1.925c.55-.682 2.004-2.476 4.018-1.634.41.17.771.41 1.102.621.812.542 1.152.702 1.723.391.632-.34 1.043-1.012 1.473-1.714.23-.372.461-.732.712-1.063 1.092-1.423 2.775-1.804 4.178-.962.702.42 1.303.952 1.864 1.493.12.12.24.231.35.341.15.15.652.652 1.153 1.133"/>
  <path d="M16.339 2H7.67C4.275 2 2 4.376 2 7.914v8.172c0 1.232.28 2.326.792 3.218.33-.402.701-.842 1.062-1.284a96.165 96.165 0 001.573-1.924c.551-.682 2.004-2.476 4.018-1.634.41.17.771.41 1.102.621.812.542 1.152.702 1.724.39.63-.34 1.042-1.011 1.472-1.714.23-.37.461-.73.712-1.062 1.092-1.423 2.775-1.804 4.178-.962.702.42 1.303.952 1.864 1.493.12.12.24.231.35.342.151.149.652.65 1.153 1.132V7.914C22 4.376 19.725 2 16.339 2" opacity=".4"/>
  <path d="M11.454 8.797a2.604 2.604 0 01-2.58 2.581c-1.408 0-2.58-1.173-2.58-2.581s1.172-2.582 2.58-2.582c1.407 0 2.58 1.174 2.58 2.582"/>
</svg>
