<svg viewBox="0 0 24 24" xmlns="http://www.w3.org/2000/svg" focusable="false">
  <g stroke="#000" stroke-width="1.5" fill="none" fill-rule="evenodd" stroke-linecap="round" stroke-linejoin="round">
    <path d="M21.44 13.994c-2.661 0-2.661-4.114 0-4.114 0-4.768 0-6.47-9.395-6.47S2.65 5.113 2.65 9.88c2.66 0 2.66 4.114 0 4.114 0 4.768 0 6.47 9.395 6.47s9.395-1.702 9.395-6.47z"/>
    <path d="M12.045 9.171c-.683 0-.748 1.09-1.154 1.475-.407.385-1.67-.055-1.846.628-.175.684.962.916 1.103 1.503.14.586-.554 1.41.039 1.822.594.409 1.233-.519 1.858-.519s1.264.928 1.858.519c.594-.412-.101-1.236.039-1.822.14-.587 1.278-.819 1.103-1.503-.176-.683-1.44-.243-1.846-.628-.406-.385-.471-1.475-1.154-1.475z"/>
  </g>
</svg>
