<svg viewBox="0 0 24 24" xmlns="http://www.w3.org/2000/svg" focusable="false">
  <path d="M10.147 5.204c.433.34.682.847.682 1.39 0 4.385.148 5.565.753 6.014.397.293.941.29 2.774.24.852-.026 1.943-.058 3.372-.058.57 0 1.107.245 1.471.67.338.394.486.91.408 1.418-.668 4.325-4.348 7.466-8.75 7.466C5.973 22.345 2 18.372 2 13.489c0-3.871 2.928-7.743 6.527-8.63a1.913 1.913 0 011.62.346zm-1.165 1.1a.395.395 0 00-.096.011c-2.97.731-5.386 3.95-5.386 7.173 0 4.056 3.3 7.357 7.357 7.357 3.657 0 6.713-2.605 7.267-6.195.004-.03.018-.117-.064-.215a.44.44 0 00-.332-.145c-1.41 0-2.488.033-3.329.057-2.036.06-2.878.084-3.71-.534-1.19-.88-1.346-2.363-1.359-6.52v-.699a.256.256 0 00-.109-.21.386.386 0 00-.239-.08zm11.069-2.57c1.758 1.757 2.874 4.066 2.842 5.883a1.44 1.44 0 01-1.223 1.406c-1.358.205-2.948.267-4.355.267a56.02 56.02 0 01-3.126-.091 1.645 1.645 0 01-1.546-1.548c-.078-1.322-.247-4.681-.127-7.28a1.425 1.425 0 011.389-1.368c2.137-.062 4.342.93 6.146 2.73zm-6.018-1.232h-.022c-.11 2.519.053 5.773.129 7.062a.14.14 0 00.136.137c1.028.059 4.57.223 7.117-.152.006-1.404-.955-3.308-2.402-4.754-1.484-1.482-3.24-2.293-4.958-2.293z" fill-rule="evenodd"/>
</svg>
