<svg xmlns="http://www.w3.org/2000/svg" viewBox="0 0 24 24" fill="currentColor" focusable="false">
  <path d="M17.501 21.919a.682.682 0 01-.352-.09l-5.14-2.706-4.523 2.435a1.521 1.521 0 01-2.077-.64 1.64 1.64 0 01-.158-1.001l.88-5.194-3.678-3.724A1.589 1.589 0 012 9.885c0-.418.163-.819.453-1.113.235-.248.545-.406.88-.451l5.042-.767 2.244-4.67A1.528 1.528 0 0111.996 2a1.53 1.53 0 011.378.883l2.253 4.69 5.06.775c.406.06.772.284 1.016.624.243.339.343.764.277 1.18a1.61 1.61 0 01-.44.9l-3.66 3.68.51 2.795a.783.783 0 01-.625.902.758.758 0 01-.88-.613l-.52-2.795a1.621 1.621 0 01.44-1.407l3.67-3.706-5.06-.785a1.52 1.52 0 01-1.152-.901L12.01 3.55 9.73 8.294a1.52 1.52 0 01-1.152.901l-5.043.767 3.643 3.697c.361.36.526.88.44 1.389l-.88 5.194 4.524-2.426c.45-.252.993-.252 1.443 0l5.13 2.705c.311.168.471.53.388.88a.77.77 0 01-.74.599l.018-.081z"/>
</svg>
