<svg viewBox="0 0 24 24" xmlns="http://www.w3.org/2000/svg" focusable="false">
  <path d="M7.01 4c.4 0 .725.316.725.704a.715.715 0 01-.725.705H5.784c-1.286 0-2.333 1.016-2.333 2.265V9.43C4.614 9.74 5.47 10.774 5.47 12c0 1.214-.843 2.208-2.018 2.5v1.827c0 1.249 1.048 2.265 2.334 2.265h7.241v-1.197c0-.39.325-.705.726-.705.4 0 .725.316.725.705v1.197h3.736c1.287 0 2.334-1.016 2.334-2.265l.001-1.757c-1.163-.31-2.019-1.344-2.019-2.57 0-1.226.856-2.26 2.019-2.57V7.674c0-1.249-1.047-2.265-2.333-2.265h-3.738v1.57a.715.715 0 01-.725.704.715.715 0 01-.726-.705v-1.57h-1.963a.715.715 0 01-.726-.704c0-.388.325-.704.726-.704h7.152C20.302 4 22 5.648 22 7.674v2.364a.715.715 0 01-.725.705c-.713 0-1.294.564-1.294 1.257 0 .692.58 1.255 1.294 1.255a.73.73 0 01.512.207.693.693 0 01.213.498l-.001 2.366c0 2.027-1.698 3.674-3.785 3.674H5.786c-2.086 0-3.784-1.647-3.784-3.674L2 13.884c0-.186.076-.367.213-.5a.738.738 0 01.512-.205c.738 0 1.294-.507 1.294-1.18 0-.692-.58-1.256-1.294-1.256A.715.715 0 012 10.038V7.674C2 5.648 3.698 4 5.784 4zm6.743 5.706c.4 0 .725.316.725.705v3.757a.715.715 0 01-.725.704.715.715 0 01-.726-.704V10.41c0-.389.325-.705.726-.705z"/>
</svg>
