<svg viewBox="0 0 24 24" xmlns="http://www.w3.org/2000/svg" focusable="false">
  <path d="M20.22 19.425c.431 0 .78.353.78.788a.784.784 0 01-.78.787h-6.624a.783.783 0 01-.779-.787c0-.435.348-.788.78-.788zM12.106 4.038c.979-1.264 2.693-1.388 4.073-.295l1.444 1.145c.63.5 1.062 1.157 1.213 1.852.168.776-.018 1.563-.523 2.214L9.702 20.06c-.436.562-1.09.89-1.798.899L4.582 21a.783.783 0 01-.769-.61l-.752-3.269a2.354 2.354 0 01.434-1.979l1.13-1.458a.772.772 0 011.094-.134.793.793 0 01.132 1.106l-1.13 1.458a.771.771 0 00-.142.65l.61 2.653 2.695-.034a.756.756 0 00.59-.295l8.611-11.105c.22-.283.296-.588.228-.907-.074-.337-.305-.674-.652-.948l-1.444-1.146c-.559-.44-1.347-.667-1.885.029l-1.138 1.466L14 7.94c.335.271.39.768.12 1.106a.772.772 0 01-1.095.123l-1.792-1.452-2.946 3.8a.772.772 0 01-1.095.133.795.795 0 01-.131-1.106z"/>
</svg>
