<svg xmlns="http://www.w3.org/2000/svg" viewBox="0 0 32 32" focusable="false">
  <path fill="#f2f2f2" d="M23.962 13.346L12.905 24.404a1.872 1.872 0 01-2.654 0L7.597 21.75a1.872 1.872 0 010-2.654L18.655 8.04"/>
  <path fill="#cdcccd" d="M26.616 7.154l-9.46 9.594-1.77-1.77 9.46-9.593"/>
  <path fill="#92d9f7" d="M9.8 23.97l-1.76 1.76-1.77-1.769 1.76-1.76m10.404-3.326l-5.53 5.529a1.872 1.872 0 01-2.653 0L7.597 21.75a1.872 1.872 0 010-2.654l5.53-5.529"/>
  <path fill="#62355c" style="line-height:normal;text-indent:0;text-align:start;text-decoration-line:none;text-decoration-style:solid;text-decoration-color:#000;text-transform:none;block-progression:tb;isolation:auto;mix-blend-mode:normal" d="M13.699 12.995l-.22.219 4.648 4.647.219-.22-4.646-4.645z" color="#000" font-family="sans-serif" font-weight="400" overflow="visible"/>
  <path fill="#62355c" d="M23.963 3.989a.5.5 0 00-.351.869l.53.53-3.694 3.738-1.375-1.375-.064-.076-.064-.053-1.264-1.264c-.47-.526-1.232.238-.705.707l.973.973-1.319 1.318-.195.195-1.572 1.57-.198.2-1.57 1.568-.2.201-1.568 1.569-.2.2-1.57 1.571-.2.2-1.559 1.556-.219.219-.332.332a2.385 2.385 0 000 3.363l.088.088-1.416 1.414a.5.5 0 000 .71l.532.53-2.295 2.293c-.473.473.236 1.182.709.71l2.293-2.296.531.532a.5.5 0 00.709 0l1.414-1.416.088.088a2.385 2.385 0 003.363 0L23.966 14.05l.973.972c.471.491 1.198-.236.707-.707l-1.3-1.3-1.417-1.417 3.694-3.736.523.524c.471.49 1.198-.236.707-.708l-.857-.859s-1.179-1.176-1.766-1.764l-.088-.088-.82-.82a.5.5 0 00-.356-.162zm.887 2.107l1.06 1.06-3.693 3.737-1.06-1.06zm-6.195 2.649l1.09 1.09-1.057 1.07-1.096-1.098zm-1.77 1.77l1.102 1.1-2.974 2.98.707.707 4.734-4.758 1.06 1.06-4.732 4.76.707.708 4.734-4.759 1.033 1.033L12.551 24.05a1.362 1.362 0 01-1.947 0L7.95 21.395a1.365 1.365 0 010-1.947l.088-.088.523.523c.471.491 1.198-.235.707-.707l-.523-.523 1.062-1.063L11.215 19c.472.49 1.198-.236.707-.707l-1.408-1.409 1.063-1.062.523.523c.471.49 1.198-.236.707-.707l-.523-.523 1.062-1.063 1.408 1.408c.472.491 1.198-.235.707-.707l-1.41-1.408 1.063-1.062.525.523c.47.527 1.233-.234.707-.705l-.525-.525 1.062-1.063zM8.04 22.898l1.063 1.063-1.063 1.062-.466-.467a.508.508 0 00-.121-.12l-.475-.475 1.063-1.063z" color="#000" font-family="sans-serif" font-weight="400" overflow="visible" style="line-height:normal;text-indent:0;text-align:start;text-decoration-line:none;text-decoration-style:solid;text-decoration-color:#000;text-transform:none;block-progression:tb;isolation:auto;mix-blend-mode:normal"/>
</svg>
