<svg viewBox="0 0 24 24" xmlns="http://www.w3.org/2000/svg" focusable="false">
  <path d="M15.434 7.48a.746.746 0 011.06 0 .758.758 0 010 1.068l-5.404 5.44 3.794 6.282a.44.44 0 00.445.216.443.443 0 00.377-.322l2.322-7.815c.12-.4.537-.628.934-.507.397.12.623.54.504.94l-2.322 7.814a1.934 1.934 0 01-1.624 1.387 1.924 1.924 0 01-1.918-.929l-4.1-6.79a.759.759 0 01.11-.925zm4.07-5.403a1.944 1.944 0 011.93.506c.503.51.689 1.257.484 1.947l-1.249 4.202a.749.749 0 11-1.437-.432l1.249-4.203a.446.446 0 00-.112-.452.444.444 0 00-.448-.117L3.829 8.207a.443.443 0 00-.324.377.446.446 0 00.213.45l3.386 2.084a.758.758 0 01.248 1.039.749.749 0 01-1.03.25l-3.386-2.085a1.945 1.945 0 01-.918-1.94 1.939 1.939 0 011.395-1.627z"/>
</svg>
