<svg xmlns="http://www.w3.org/2000/svg" viewBox="0 0 48 48">
  <path class="st47" d="M31.4 32.9s3.1 1.1 5.5 0 3.1-3.4 3.3-5c.2-1.6 2.5-2.3 3.3 0 .8 2.3.6 6.9-3.3 9.4s-9.2 2.1-12.2.6c-2.9-1.5 3.4-5 3.4-5zm-14.8 0s-3.1 1.1-5.5 0-3.1-3.4-3.3-5c-.2-1.6-2.5-2.3-3.3 0-.8 2.3-.6 6.9 3.3 9.4s9.2 2.1 12.2.6c2.9-1.5-3.4-5-3.4-5z" fill="#FFAA54"/>
  <path class="st50" d="M28.1 37.9c.1.1.3.1.4.2 1.2-1.1 2.9-2.1 2.9-2.1s3.1 1.1 5.5 0 3.1-3.4 3.3-5c.2-1.6 2.5-2.3 3.3 0 .1.3.2.6.2.9.3-1.5.1-3-.2-4-.8-2.3-3.1-1.6-3.3 0-.2 1.6-.9 3.9-3.3 5s-5.5 0-5.5 0-6.3 3.5-3.3 5zM4.4 31c.8-2.3 3.1-1.6 3.3 0 .2 1.6.9 3.9 3.3 5s5.5 0 5.5 0 1.7.9 2.9 2.1c.1-.1.3-.1.4-.2 3-1.5-3.3-5-3.3-5s-3.1 1.1-5.5 0-3.1-3.4-3.3-5c-.2-1.6-2.5-2.3-3.3 0-.4 1-.5 2.5-.2 4 0-.3.1-.6.2-.9z" fill="#FC9"/>
  <path class="st10" d="M31.4 32.9s3.1 1.1 5.5 0 3.1-3.4 3.3-5c.2-1.6 2.5-2.3 3.3 0 .8 2.3.6 6.9-3.3 9.4s-9.2 2.1-12.2.6c-2.9-1.5 3.4-5 3.4-5zm-14.8 0s-3.1 1.1-5.5 0-3.1-3.4-3.3-5c-.2-1.6-2.5-2.3-3.3 0-.8 2.3-.6 6.9 3.3 9.4s9.2 2.1 12.2.6c2.9-1.5-3.4-5-3.4-5z" fill="none" stroke="#45413C" stroke-linecap="round" stroke-linejoin="round" stroke-miterlimit="10"/>
  <path class="st47" d="M36.7 27.6c0 7-5.7 12.7-12.7 12.7s-12.7-5.7-12.7-12.7c0-8.7 5.7-13.8 12.7-13.8s12.7 5 12.7 13.8z" fill="#FFAA54"/>
  <path class="st50" d="M24 18.1c6.3 0 11.6 4.2 12.6 11.4.1-.7.2-1.3.2-2 0-8.7-5.7-13.8-12.7-13.8s-12.7 5.1-12.7 13.8c0 .7.1 1.3.2 2 .8-7.2 6-11.4 12.4-11.4z" fill="#FC9"/>
  <path class="st10" d="M36.7 27.6c0 7-5.7 12.7-12.7 12.7s-12.7-5.7-12.7-12.7c0-8.7 5.7-13.8 12.7-13.8s12.7 5 12.7 13.8z" fill="none" stroke="#45413C" stroke-linecap="round" stroke-linejoin="round" stroke-miterlimit="10"/>
  <path d="M24 36.4c-3.5 0-4.6-2.4-6.6-2.2-1.3.1-2.2 1.2-2.7 2 2.3 2.5 5.6 4.1 9.4 4.1 3.9 0 7.3-1.7 9.6-4.4-.5-.6-1.3-1.2-2.4-1.7-2.5-1-3.9 2.2-7.3 2.2z" fill="#eb6d00" stroke="#45413c" stroke-linecap="round" stroke-linejoin="round" stroke-miterlimit="10"/>
  <path class="st47" d="M25.6 39.9s1 4.2 7.2 4.2 8.7-4.1 8.9-6.4c.2-2.3-2.4-3.9-4.2-1.7-2.7 3.2-4.9 2.8-6.4.8-1.4-1.8-5.5 3.1-5.5 3.1zm-3.2 0s-1 4.2-7.2 4.2c-6.3 0-8.7-4.1-8.9-6.4-.2-2.3 2.4-3.9 4.2-1.7 2.7 3.2 4.9 2.8 6.4.8 1.5-1.8 5.5 3.1 5.5 3.1z" fill="#FFAA54"/>
  <path class="st50" d="M29.1 39c2.7 2 6.7 2.4 11.6-.8.4-.2.7-.4 1.1-.6 0-2.2-2.4-3.7-4.2-1.5-2.7 3.2-4.9 2.8-6.4.8-1-1.3-3 .4-4.3 1.7.8-.1 1.6 0 2.2.4zM6.3 38c.1.1.2.1.3.2 5.4 3.2 9.8 2.8 12.8.8.5-.3 1.1-.4 1.7-.5-1.3-1.3-3.4-2.9-4.3-1.7-1.5 2-3.7 2.4-6.4-.8-1.9-2.2-4.4-.6-4.2 1.7.1.2.1.2.1.3z" fill="#FC9"/>
  <path class="st10" d="M25.6 39.9s1 4.2 7.2 4.2 8.7-4.1 8.9-6.4c.2-2.3-2.4-3.9-4.2-1.7-2.7 3.2-4.9 2.8-6.4.8-1.4-1.8-5.5 3.1-5.5 3.1zm-3.2 0s-1 4.2-7.2 4.2c-6.3 0-8.7-4.1-8.9-6.4-.2-2.3 2.4-3.9 4.2-1.7 2.7 3.2 4.9 2.8 6.4.8 1.5-1.8 5.5 3.1 5.5 3.1z" fill="none" stroke="#45413C" stroke-linecap="round" stroke-linejoin="round" stroke-miterlimit="10"/>
  <circle class="st78" cx="20.1" cy="28.7" r="1.1" fill="#45413C" stroke="#45413C" stroke-linecap="round" stroke-linejoin="round" stroke-miterlimit="10"/>
  <circle class="st78" cx="27.9" cy="28.7" r="1.1" fill="#45413C" stroke="#45413C" stroke-linecap="round" stroke-linejoin="round" stroke-miterlimit="10"/>
  <ellipse class="st98" cx="32.3" cy="31.4" rx="1.7" ry="1" fill="#EB6D00"/>
  <ellipse class="st98" cx="15.7" cy="31.4" rx="1.7" ry="1" fill="#EB6D00"/>
  <circle class="st54" cx="20.4" cy="19.5" r="1.9" fill="#FF8A14" stroke="#45413C" stroke-linecap="round" stroke-linejoin="round" stroke-miterlimit="10"/>
  <circle class="st15" cx="39.8" cy="3.2" r="1.9" fill="#FFF" stroke="#45413C" stroke-linecap="round" stroke-linejoin="round" stroke-miterlimit="10"/>
  <circle class="st15" cx="9.3" cy="8.4" r="1.9" fill="#FFF" stroke="#45413C" stroke-linecap="round" stroke-linejoin="round" stroke-miterlimit="10"/>
  <circle class="st54" cx="26.2" cy="17" r="1.1" fill="#FF8A14" stroke="#45413C" stroke-linecap="round" stroke-linejoin="round" stroke-miterlimit="10"/>
  <circle class="st15" cx="42.9" cy="12.6" r="1.1" fill="#FFF" stroke="#45413C" stroke-linecap="round" stroke-linejoin="round" stroke-miterlimit="10"/>
  <circle class="st15" cx="7.4" cy="18.1" r="1.1" fill="#FFF" stroke="#45413C" stroke-linecap="round" stroke-linejoin="round" stroke-miterlimit="10"/>
  <circle class="st54" cx="30.6" cy="19.8" r="1.1" fill="#FF8A14" stroke="#45413C" stroke-linecap="round" stroke-linejoin="round" stroke-miterlimit="10"/>
  <circle class="st15" cx="39" cy="17" r="1.1" fill="#FFF" stroke="#45413C" stroke-linecap="round" stroke-linejoin="round" stroke-miterlimit="10"/>
  <ellipse cx="24" cy="45.1" rx="12.7" ry="1.7" fill="#45413c" opacity=".15"/>
</svg>
