<svg xmlns="http://www.w3.org/2000/svg" viewBox="0 0 32 32" focusable="false">
  <g fill-rule="evenodd">
    <path fill="#ec7bb0" d="M24.887 9.524a5.379 5.379 0 00-7.633 0l-1.27 1.273-1.272-1.273a5.38 5.38 0 00-7.632 0 5.4 5.4 0 000 7.646l8.897 8.328h.014l8.897-8.328c2.184-2.045 2.114-5.528 0-7.646z"/>
    <path fill="#62355c" style="line-height:normal;text-indent:0;text-align:start;text-decoration-line:none;text-decoration-style:solid;text-decoration-color:#000;text-transform:none;block-progression:tb;isolation:auto;mix-blend-mode:normal" d="M10.896 7.44c-1.51 0-3.018.577-4.17 1.731a5.888 5.888 0 00-1.713 4.51c-1.015.303-1.797.641-2.324 1.059-.299.236-.532.507-.637.847-.105.34-.04.73.15 1.034.381.607 1.108.994 2.116 1.359 1.006.364 2.311.672 3.87.914l7.446 6.97a.5.5 0 00.342.135h.014a.5.5 0 00.342-.134l7.449-6.973c1.383-.216 2.629-.485 3.625-.818.835-.28 1.466-.58 1.916-.942.45-.36.75-.86.66-1.388-.09-.528-.486-.916-1.021-1.246-.493-.304-1.16-.57-1.975-.815a6.001 6.001 0 00-1.744-4.512.5.5 0 00-.16-.107.5.5 0 00-.006 0c-2.313-2.163-5.921-2.15-8.176.11l-.916.92-.918-.92a5.873 5.873 0 00-4.17-1.731zm0 .991c1.25 0 2.5.482 3.463 1.445l1.271 1.274a.5.5 0 00.707 0l1.272-1.274a4.867 4.867 0 016.924 0 .5.5 0 00.002 0 .5.5 0 00.002 0c1.92 1.928 1.982 5.078.01 6.924l-1.213 1.137c-3.108.452-7.035.626-10.807.4a.5.5 0 10-.059.998c3.299.197 6.681.108 9.602-.216l-6.086 5.697-8.55-8.004H7.43a4.892 4.892 0 01.002-6.937 4.877 4.877 0 013.463-1.446zm-5.738 6.252a5.877 5.877 0 001.568 2.84.5.5 0 00.012.014l.082.076c-.83-.176-1.585-.365-2.162-.574-.916-.332-1.47-.73-1.608-.95-.069-.11-.064-.137-.043-.207.022-.07.104-.202.303-.359.333-.264.974-.564 1.848-.84zm21.693.01c.679.215 1.234.44 1.584.656.412.254.546.476.56.563.015.087-.002.204-.298.441-.296.238-.839.514-1.608.772-.555.186-1.229.347-1.95.498l.09-.086a5.537 5.537 0 001.622-2.844z" color="#000" font-family="sans-serif" font-weight="400" overflow="visible"/>
  </g>
</svg>
