<svg viewBox="0 0 24 24" xmlns="http://www.w3.org/2000/svg" focusable="false">
  <g fill="none" fill-rule="evenodd">
    <path d="M0 0h24v24H0z"/>
    <path d="M0 0h24v24H0z"/>
    <path d="M15.615 14.65c.026.947.114 1.878.352 2.796.247.948.616 1.858.982 2.763.32.79-.95 1.129-1.265.351-.325-.802-.65-1.608-.892-2.44-.45 1.088-1.38 2.32-2.704 1.594a2.645 2.645 0 01-.68-.55c-.602.701-1.463.74-2.312.738l-.362-.001c-1.367-.002-2.734-.005-4.1-.009-.844-.002-.846-1.323 0-1.32a3161.304 3161.304 0 004.728.009c.719 0 1.203-.145 1.364-.94.136-.674 1.081-.583 1.265 0 .454 1.438 1.205.874 1.625-.094.42-.965.527-2.045.71-3.073.135-.755 1.27-.543 1.289.176zm-.902-9.317l2.954 2.954L8.954 17H6v-2.954l8.713-8.713zm2.075-2.1a.79.79 0 011.12 0l1.86 1.859c.31.31.31.81 0 1.12l-1.455 1.455-2.98-2.98z" fill="#333"/>
  </g>
</svg>
