<svg xmlns="http://www.w3.org/2000/svg" viewBox="0 0 24 24">
  <path d="M16.286 2h3.266A2.46 2.46 0 0122 4.47v3.294c0 1.363-1.096 2.47-2.448 2.47h-3.266a2.46 2.46 0 01-2.45-2.47V4.47A2.46 2.46 0 0116.287 2zM4.449 2h3.265a2.46 2.46 0 012.45 2.47v3.294a2.46 2.46 0 01-2.45 2.47H4.45A2.46 2.46 0 012 7.764V4.47A2.46 2.46 0 014.449 2zm0 11.766h3.265a2.46 2.46 0 012.45 2.47v3.294A2.46 2.46 0 017.713 22H4.45A2.46 2.46 0 012 19.53v-3.293a2.46 2.46 0 012.449-2.471zm11.837 0h3.266A2.46 2.46 0 0122 16.236v3.294A2.46 2.46 0 0119.552 22h-3.266a2.46 2.46 0 01-2.45-2.47v-3.293a2.46 2.46 0 012.45-2.471z" fill="none" stroke="#200E32" stroke-linecap="round" stroke-linejoin="round" stroke-width="1.5"/>
</svg>
