<svg viewBox="0 0 24 24" xmlns="http://www.w3.org/2000/svg" focusable="false">
  <path d="M10.307 14.64c2.254.013 7.536.217 7.536 3.69 0 3.289-4.52 3.67-7.922 3.67-.342 0-.68-.005-1.012-.013a.717.717 0 01-.693-.74c.01-.396.352-.694.735-.697.318.01.642.014.97.014 4.307 0 6.491-.751 6.491-2.234 0-1.496-2.184-2.254-6.49-2.254-4.307 0-6.491.752-6.491 2.234 0 .485.171 1.188 1.659 1.694a.718.718 0 01-.46 1.36C2.457 20.625 2 19.295 2 18.31c0-3.29 4.52-3.67 7.921-3.67zm8.907-6.606c.413 0 .747.336.747.75v1.254h1.292a.749.749 0 010 1.5H19.96v1.255c0 .414-.334.75-.747.75a.749.749 0 01-.747-.75v-1.255h-1.29a.749.749 0 010-1.5h1.29V8.784c0-.414.335-.75.747-.75zM9.921 2c2.942 0 5.334 2.402 5.334 5.354s-2.392 5.354-5.334 5.354c-2.941 0-5.333-2.402-5.333-5.354S6.98 2 9.92 2zm0 1.437c-2.152 0-3.902 1.757-3.902 3.917s1.75 3.917 3.902 3.917c2.153 0 3.903-1.757 3.903-3.917s-1.75-3.917-3.903-3.917z"/>
</svg>
