<svg xmlns="http://www.w3.org/2000/svg" viewBox="0 0 48 48" focusable="false">
  <ellipse cx="22.8" cy="42.8" rx="14" ry="1.5" fill="#45413c" opacity=".15"/>
  <circle cx="22.8" cy="22.3" r="15.3" fill="#bf8df2"/>
  <path d="M22.8 7C14.4 7 7.6 13.8 7.6 22.3c0 8.4 6.8 15.3 15.3 15.3s15.3-6.8 15.3-15.3C38.1 13.8 31.3 7 22.8 7zm0 25c-6.8 0-12.3-5.5-12.3-12.3 0-6.8 5.5-12.3 12.3-12.3s12.3 5.5 12.3 12.3c.1 6.8-5.5 12.3-12.3 12.3z" fill="#9f5ae5"/>
  <circle cx="22.8" cy="22.3" r="15.3" fill="none" stroke="#45413C" stroke-linecap="round" stroke-linejoin="round" stroke-miterlimit="10"/>
  <circle cx="28.8" cy="17.1" r="3.7" fill="#DABFF5"/>
  <circle cx="21.7" cy="18.9" r="1.1" fill="#DABFF5"/>
  <circle cx="22.5" cy="13" r="1.9" fill="#DABFF5"/>
  <path d="M35.3 38.7c.3.7.1 1.5-.6 1.9-1.8 1.1-5.7 2.9-11.9 2.9s-10.2-1.8-11.9-2.9c-.7-.4-.9-1.2-.6-1.9l2.4-4.8s4.5 2.2 10.1 2.2 10.1-2.2 10.1-2.2l2.4 4.8z" fill="#bf8256"/>
  <path d="M22.8 38.8c4.8 0 9-1.2 11.5-2.1l-1.4-2.9S28.4 36 22.8 36s-10.1-2.2-10.1-2.2l-1.4 2.9c2.6.9 6.8 2.1 11.5 2.1z" fill="#915e3a"/>
  <path d="M35.3 38.7c.3.7.1 1.5-.6 1.9-1.8 1.1-5.7 2.9-11.9 2.9s-10.2-1.8-11.9-2.9c-.7-.4-.9-1.2-.6-1.9l2.4-4.8s4.5 2.2 10.1 2.2 10.1-2.2 10.1-2.2l2.4 4.8z" fill="none" stroke="#45413C" stroke-linecap="round" stroke-linejoin="round" stroke-miterlimit="10"/>
  <path d="M11.9 14.6c.2-.7.7-1.2 1.3-1.3l2.7-.6c.1 0 .2-.1.2-.2s-.1-.2-.2-.2l-2.7-.6c-.7-.2-1.2-.7-1.3-1.3l-.6-2.7c0-.1-.1-.2-.2-.2s-.2.1-.2.2l-.6 2.7c-.2.7-.7 1.2-1.3 1.3l-2.7.6c-.1 0-.2.1-.2.2s.1.2.2.2l2.7.6c.7.2 1.2.7 1.3 1.3l.6 2.7c0 .1.1.2.2.2s.2-.1.2-.2l.6-2.7zm23.6-6.9l2.1-.7c.1 0 .1-.1.1-.2s-.1-.2-.1-.2L35.9 6c-.2-.1-.4-.3-.5-.5l-.6-1.7c0-.1-.1-.1-.2-.1s-.2.1-.2.1l-.6 1.7c-.1.2-.3.4-.5.5l-1.7.6c-.1 0-.1.1-.1.2s.1.2.1.2l1.7.6c.2.1.4.3.5.5l.6 1.7c0 .1.1.1.2.1s.2-.1.2-.1l.7-2.1zm9.7 21.7l2.1-.7c.1 0 .1-.1.1-.2s-.1-.2-.1-.2l-1.7-.6c-.2-.1-.4-.3-.5-.5l-.6-1.7c0-.1-.1-.1-.2-.1s-.2.1-.2.1l-.6 1.7c-.1.2-.3.4-.5.5l-1.7.6c-.1 0-.1.1-.1.2s.1.2.1.2l1.7.6c.2.1.4.3.5.5l.6 1.7c0 .1.1.1.2.1s.2-.1.2-.1l.7-2.1zM4.6 33.8l2.1-.7c.1 0 .1-.1.1-.2s-.1-.2-.1-.2L5 32.1c-.2-.1-.4-.3-.5-.5l-.6-1.7c0-.1-.1-.1-.2-.1s-.2.1-.2.1l-.6 1.7c-.1.2-.3.4-.5.5l-1.7.6c-.1 0-.1.1-.1.2s.1.2.1.2l1.7.6c.2.1.4.3.5.5l.6 1.7c0 .1.1.1.2.1s.2-.1.2-.1l.7-2.1z" fill="#FFF" stroke="#45413C" stroke-linecap="round" stroke-linejoin="round" stroke-miterlimit="10"/>
</svg>
