<svg xmlns="http://www.w3.org/2000/svg" viewBox="0 0 32 32" focusable="false">
  <path fill="#65c5b4" d="M14.406 5.503l1.56 1.56c2.485 2.486 2.502 6.47.037 8.935-2.464 2.465-6.449 2.448-8.934-.037l-1.56-1.56"/>
  <path fill="#92d9f7" d="M26.498 17.596l-1.56-1.56c-2.485-2.486-6.47-2.502-8.935-.038-2.464 2.465-2.447 6.45.038 8.935l1.56 1.56"/>
  <path fill="#62355c" fill-rule="evenodd" d="M14.4 4.999a.5.5 0 00-.348.86l.351.35-6.943 6.944a.5.5 0 00.707.707l6.943-6.943.502.502a6 6 0 01.53.617l-6.19 6.188a.5.5 0 00.709.707l6.031-6.034c.263.51.448 1.047.551 1.596l-4.084 4.086a.5.5 0 10.705.707l3.469-3.469a5.74 5.74 0 01-1.684 3.83c-2.273 2.274-5.93 2.258-8.226-.039l-1.56-1.558a.5.5 0 10-.708.707l1.559 1.56a6.836 6.836 0 007.492 1.479 6.83 6.83 0 00.535 6.305.5.5 0 00.092.148c.246.367.53.715.853 1.04l1.561 1.56a.5.5 0 10.707-.707l-.354-.354 6.934-6.934a.5.5 0 00-.363-.857.5.5 0 00-.342.15l-6.936 6.936-.5-.502a6.012 6.012 0 01-.529-.617l6.178-6.178a.5.5 0 00-.363-.86.5.5 0 00-.344.153l-6.022 6.022a5.82 5.82 0 01-.55-1.596l4.074-4.074a.5.5 0 00-.363-.86.5.5 0 00-.342.15l-3.46 3.458a5.741 5.741 0 011.684-3.826c2.274-2.274 5.932-2.26 8.229.037l1.558 1.562a.5.5 0 00.708-.709l-1.56-1.558a6.853 6.853 0 00-4.827-2.018 6.749 6.749 0 00-2.662.535 6.84 6.84 0 00-1.483-7.49l-1.56-1.56a.5.5 0 00-.36-.153z" color="#000" font-family="sans-serif" style="line-height:normal;text-indent:0;text-align:start;text-decoration-line:none;text-decoration-style:solid;text-decoration-color:#000;text-transform:none;block-progression:tb;isolation:auto;mix-blend-mode:normal" font-weight="400" overflow="visible"/>
</svg>
