<svg xmlns="http://www.w3.org/2000/svg" viewBox="0 0 48 48">
  <style>
    .st1{fill:#ffc258}.st2{fill:#4f4b45}.st3{fill:#fabfa5}.st6{stroke:#45413c;stroke-linecap:round;stroke-linejoin:round;stroke-miterlimit:10}.st6,.st9{fill:#debb7e}.st10{fill:none;stroke:#45413c;stroke-linecap:round;stroke-linejoin:round;stroke-miterlimit:10}
  </style>
  <symbol id="New_Symbol_14" viewBox="-6.5 -6.5 13 13">
    <path d="M0-6c2.2 0 4.1 1.5 4.7 3.5C6.3-2.5 6.4 0 5 0v1c0 2.8-2.2 5-5 5s-5-2.2-5-5V0c-1.4 0-1.3-2.5.2-2.5C-4.1-4.5-2.2-6 0-6z" fill="#ffd4c3" stroke="#504b46" stroke-linecap="round" stroke-linejoin="round" stroke-miterlimit="10"/>
    <circle class="st1" cx="-1.6" cy="-.1" r=".1" fill="#FFC258"/>
    <path class="st2" d="M-1.6.5c-.3 0-.6-.3-.6-.6s.2-.7.6-.7c.3 0 .6.3.6.7s-.3.6-.6.6z" fill="#4F4B45"/>
    <circle class="st1" cx="1.6" cy="-.1" r=".1" fill="#FFC258"/>
    <path class="st2" d="M1.6.5C1.3.5 1 .2 1-.1s.3-.6.6-.6.6.3.6.6-.2.6-.6.6z" fill="#4F4B45"/>
    <circle class="st3" cx="-3" cy="-1.5" r=".5" fill="#FABFA5"/>
    <circle class="st3" cx="3" cy="-1.5" r=".5" fill="#FABFA5"/>
    <path d="M-1.2-3c.8-.5 1.7-.5 2.5 0" fill="none" stroke="#504b46" stroke-linecap="round" stroke-linejoin="round" stroke-miterlimit="10"/>
  </symbol>
  <g id="Icons">
    <g id="XMLID_1577_">
      <ellipse id="XMLID_318_" cx="24" cy="40.7" rx="21.4" ry="1.7" fill="#45413c" opacity=".15"/>
      <g id="XMLID_259_">
        <g id="XMLID_298_">
          <path id="XMLID_303_" class="st9" d="M44.2 27.6v5.2c0 4.2-9.1 7.5-20.2 7.5S3.8 36.9 3.8 32.8v-5.2h40.4z" fill="#DEBB7E"/>
          <g id="XMLID_301_">
            <path id="XMLID_302_" d="M3.8 29.9c0 4.2 9.1 7.5 20.2 7.5s20.2-3.4 20.2-7.5v-2.3H3.8v2.3z" fill="#b89558"/>
          </g>
          <path id="XMLID_300_" class="st10" d="M44.2 27.6v5.2c0 4.2-9.1 7.5-20.2 7.5S3.8 36.9 3.8 32.8v-5.2h40.4z" fill="none" stroke="#45413C" stroke-linecap="round" stroke-linejoin="round" stroke-miterlimit="10"/>
        </g>
        <g id="XMLID_295_" stroke-linecap="round" stroke-linejoin="round" stroke-miterlimit="10">
          <path id="XMLID_297_" d="M24 34.5c24.9 0 24.3-8.1 21.4-12.7-2.9-4-9.6-7.5-21.4-7.5-11.8 0-18.5 3.5-21.4 7.5C-.3 26.4-.9 34.5 24 34.5z" fill="#bf8256" stroke="#45413c"/>
          <path id="XMLID_296_" d="M41.9 25.9C38.1 28 31.5 29.3 24 29.3S9.9 28 6.1 25.9" fill="none" stroke="#915e3a"/>
        </g>
        <g id="XMLID_260_">
          <g id="XMLID_265_">
            <path id="XMLID_294_" d="M44.2 18.9c0 4.2-9.1 7.5-20.2 7.5S3.8 23.1 3.8 18.9C3.8 18.9 5 5.6 24 5.6s20.2 13.3 20.2 13.3z" fill="#f0d5a8"/>
            <path id="XMLID_293_" class="st9" d="M24 22.4c-9.6 0-17.6-2.5-19.7-5.8-.5 1.4-.6 2.3-.6 2.3 0 4.2 9.1 7.5 20.2 7.5s20.2-3.4 20.2-7.5c0 0-.1-.9-.6-2.3-1.9 3.3-9.9 5.8-19.5 5.8z" fill="#DEBB7E"/>
            <path id="XMLID_292_" class="st10" d="M44.2 18.9c0 4.2-9.1 7.5-20.2 7.5S3.8 23.1 3.8 18.9C3.8 18.9 5 5.6 24 5.6s20.2 13.3 20.2 13.3z" fill="none" stroke="#45413C" stroke-linecap="round" stroke-linejoin="round" stroke-miterlimit="10"/>
          </g>
          <path id="XMLID_264_" class="st6" d="M12.1 11.7c-.6.2-1 .8-.8 1.4.2.6.8 1 1.4.8l1.1-.3c.6-.2 1-.8.8-1.4-.2-.6-.8-1-1.4-.8l-1.1.3z" fill="#DEBB7E" stroke="#45413C" stroke-linecap="round" stroke-linejoin="round" stroke-miterlimit="10"/>
          <path id="XMLID_263_" class="st6" d="M18.9 14.8c-.3.6 0 1.3.6 1.5.6.3 1.3 0 1.5-.6l.5-1.1c.3-.6 0-1.3-.6-1.5-.6-.3-1.3 0-1.5.6l-.5 1.1z" fill="#DEBB7E" stroke="#45413C" stroke-linecap="round" stroke-linejoin="round" stroke-miterlimit="10"/>
          <path id="XMLID_262_" class="st6" d="M35.9 11.7c.6.2 1 .8.8 1.4-.2.6-.8 1-1.4.8l-1.1-.3c-.6-.2-1-.8-.8-1.4s.8-1 1.4-.8l1.1.3z" fill="#DEBB7E" stroke="#45413C" stroke-linecap="round" stroke-linejoin="round" stroke-miterlimit="10"/>
          <path id="XMLID_261_" class="st6" d="M29.1 14.8c.3.6 0 1.3-.6 1.5-.6.3-1.3 0-1.5-.6l-.5-1.1c-.3-.6 0-1.3.6-1.5.6-.3 1.3 0 1.5.6l.5 1.1z" fill="#DEBB7E" stroke="#45413C" stroke-linecap="round" stroke-linejoin="round" stroke-miterlimit="10"/>
        </g>
      </g>
    </g>
  </g>
</svg>
