<svg xmlns="http://www.w3.org/2000/svg" viewBox="0 0 48 48">
  <ellipse cx="24" cy="40.7" rx="21.4" ry="1.7" fill="#45413c" opacity=".15"/>
  <path class="st9" d="M44.2 27.6v5.2c0 4.2-9.1 7.5-20.2 7.5S3.8 36.9 3.8 32.8v-5.2h40.4z" fill="#DEBB7E"/>
  <path d="M3.8 29.9c0 4.2 9.1 7.5 20.2 7.5s20.2-3.4 20.2-7.5v-2.3H3.8v2.3z" fill="#b89558"/>
  <path class="st10" d="M44.2 27.6v5.2c0 4.2-9.1 7.5-20.2 7.5S3.8 36.9 3.8 32.8v-5.2h40.4z" fill="none" stroke="#45413C" stroke-linecap="round" stroke-linejoin="round" stroke-miterlimit="10"/>
  <g stroke-linecap="round" stroke-linejoin="round" stroke-miterlimit="10">
    <path d="M24 34.5c24.9 0 24.3-8.1 21.4-12.7-2.9-4-9.6-7.5-21.4-7.5-11.8 0-18.5 3.5-21.4 7.5C-.3 26.4-.9 34.5 24 34.5z" fill="#bf8256" stroke="#45413c"/>
    <path d="M41.9 25.9C38.1 28 31.5 29.3 24 29.3S9.9 28 6.1 25.9" fill="none" stroke="#915e3a"/>
  </g>
  <path d="M44.2 18.9c0 4.2-9.1 7.5-20.2 7.5S3.8 23.1 3.8 18.9C3.8 18.9 5 5.6 24 5.6s20.2 13.3 20.2 13.3z" fill="#f0d5a8"/>
  <path class="st9" d="M24 22.4c-9.6 0-17.6-2.5-19.7-5.8-.5 1.4-.6 2.3-.6 2.3 0 4.2 9.1 7.5 20.2 7.5s20.2-3.4 20.2-7.5c0 0-.1-.9-.6-2.3-1.9 3.3-9.9 5.8-19.5 5.8z" fill="#DEBB7E"/>
  <path class="st10" d="M44.2 18.9c0 4.2-9.1 7.5-20.2 7.5S3.8 23.1 3.8 18.9C3.8 18.9 5 5.6 24 5.6s20.2 13.3 20.2 13.3z" fill="none" stroke="#45413C" stroke-linecap="round" stroke-linejoin="round" stroke-miterlimit="10"/>
  <path class="st6" d="M12.1 11.7c-.6.2-1 .8-.8 1.4.2.6.8 1 1.4.8l1.1-.3c.6-.2 1-.8.8-1.4-.2-.6-.8-1-1.4-.8l-1.1.3zm6.8 3.1c-.3.6 0 1.3.6 1.5.6.3 1.3 0 1.5-.6l.5-1.1c.3-.6 0-1.3-.6-1.5-.6-.3-1.3 0-1.5.6l-.5 1.1zm17-3.1c.6.2 1 .8.8 1.4-.2.6-.8 1-1.4.8l-1.1-.3c-.6-.2-1-.8-.8-1.4s.8-1 1.4-.8l1.1.3zm-6.8 3.1c.3.6 0 1.3-.6 1.5-.6.3-1.3 0-1.5-.6l-.5-1.1c-.3-.6 0-1.3.6-1.5.6-.3 1.3 0 1.5.6l.5 1.1z" fill="#DEBB7E" stroke="#45413C" stroke-linecap="round" stroke-linejoin="round" stroke-miterlimit="10"/>
</svg>
