<svg xmlns="http://www.w3.org/2000/svg" viewBox="0 0 48 48">
  <style>
    .st1{fill:#ffc258}.st2{fill:#4f4b45}.st3{fill:#fabfa5}.st10{fill:none;stroke:#45413c;stroke-linecap:round;stroke-linejoin:round;stroke-miterlimit:10}.st25{fill:#9ceb60}.st26{fill:#6dd627}
  </style>
  <symbol id="New_Symbol_14" viewBox="-6.5 -6.5 13 13">
    <path d="M0-6c2.2 0 4.1 1.5 4.7 3.5C6.3-2.5 6.4 0 5 0v1c0 2.8-2.2 5-5 5s-5-2.2-5-5V0c-1.4 0-1.3-2.5.2-2.5C-4.1-4.5-2.2-6 0-6z" fill="#ffd4c3" stroke="#504b46" stroke-linecap="round" stroke-linejoin="round" stroke-miterlimit="10"/>
    <circle class="st1" cx="-1.6" cy="-.1" r=".1" fill="#FFC258"/>
    <path class="st2" d="M-1.6.5c-.3 0-.6-.3-.6-.6s.2-.7.6-.7c.3 0 .6.3.6.7s-.3.6-.6.6z" fill="#4F4B45"/>
    <circle class="st1" cx="1.6" cy="-.1" r=".1" fill="#FFC258"/>
    <path class="st2" d="M1.6.5C1.3.5 1 .2 1-.1s.3-.6.6-.6.6.3.6.6-.2.6-.6.6z" fill="#4F4B45"/>
    <circle class="st3" cx="-3" cy="-1.5" r=".5" fill="#FABFA5"/>
    <circle class="st3" cx="3" cy="-1.5" r=".5" fill="#FABFA5"/>
    <path d="M-1.2-3c.8-.5 1.7-.5 2.5 0" fill="none" stroke="#504b46" stroke-linecap="round" stroke-linejoin="round" stroke-miterlimit="10"/>
  </symbol>
  <g id="Icons">
    <g id="XMLID_1926_">
      <ellipse id="XMLID_1982_" cx="23.8" cy="44.8" rx="19.7" ry="2" fill="#45413c" opacity=".15"/>
      <path id="XMLID_1968_" class="st26" d="M22.9 12.7s-.5-3.6 1.4-7.5c2.2-4.7 5.3-5.4 6.8-1.4s-1 .8-3.4 3.4c-2 2.2-2 5.4-2 5.4h-2.8z" fill="#6DD627"/>
      <path id="XMLID_1967_" class="st25" d="M25.5 7.6c1.8-3.9 4.2-5 5.8-3.1-.1-.2-.1-.4-.2-.6-1.5-4.1-4.5-3.4-6.8 1.4-1.8 3.8-1.4 7.5-1.4 7.5h1.2c.1-1.5.5-3.3 1.4-5.2z" fill="#9CEB60"/>
      <path id="XMLID_1966_" class="st10" d="M22.9 12.7s-.5-3.6 1.4-7.5c2.2-4.7 5.3-5.4 6.8-1.4s-1 .8-3.4 3.4c-2 2.2-2 5.4-2 5.4h-2.8z" fill="none" stroke="#45413C" stroke-linecap="round" stroke-linejoin="round" stroke-miterlimit="10"/>
      <path id="XMLID_1965_" d="M36.6 10.6c-3.3-1-6.8-.9-9.8 1.2-1.7 1.2-4 1.2-5.7 0-3-2.1-6.6-2.2-9.8-1.2C5 12.4 2.1 21.5 4.9 30.9 7.6 40.2 15 46.3 21.3 44.4c.5-.1 1-.3 1.4-.6.8-.4 1.8-.4 2.6 0 .5.2.9.4 1.4.6 6.3 1.8 13.6-4.2 16.4-13.6 2.7-9.3-.2-18.4-6.5-20.2z" fill="#ff6242"/>
      <path id="XMLID_1964_" d="M11.4 15c3.3-.9 6.8-.8 9.8 1.1 1.7 1.1 4 1.1 5.7 0 3-1.9 6.6-2 9.8-1.1 4.3 1.1 7 5.3 7.4 10.5.5-7.2-2.3-13.4-7.4-14.9-3.3-1-6.8-.9-9.8 1.2-1.7 1.2-4 1.2-5.7 0-3-2.1-6.6-2.2-9.8-1.2-5.1 1.5-7.9 7.7-7.4 14.9.4-5.2 3.1-9.4 7.4-10.5z" fill="#ff866e"/>
      <path id="XMLID_1963_" class="st10" d="M36.6 10.6c-3.3-1-6.8-.9-9.8 1.2-1.7 1.2-4 1.2-5.7 0-3-2.1-6.6-2.2-9.8-1.2C5 12.4 2.1 21.5 4.9 30.9 7.6 40.2 15 46.3 21.3 44.4c.5-.1 1-.3 1.4-.6.8-.4 1.8-.4 2.6 0 .5.2.9.4 1.4.6 6.3 1.8 13.6-4.2 16.4-13.6 2.7-9.3-.2-18.4-6.5-20.2z" fill="none" stroke="#45413C" stroke-linecap="round" stroke-linejoin="round" stroke-miterlimit="10"/>
      <path id="XMLID_1962_" class="st26" d="M22.9 12.6s1.5-5.7-3.4-8.1c-2.7-1.4-6.3-.1-7.6.4-.3.1-.5.5-.4.8.4 1.6 1.8 6 6 6.2 5.2.3 5.4.7 5.4.7z" fill="#6DD627"/>
      <path id="XMLID_1961_" class="st25" d="M12.1 7.5c1.4-.6 4.8-1.7 7.4-.4 2.4 1.2 3.2 3.2 3.5 4.9.2-1.5.4-5.6-3.5-7.6-2.7-1.4-6.3-.1-7.6.4-.3.1-.5.5-.4.8.1.5.3 1.2.6 1.9z" fill="#9CEB60"/>
      <path id="XMLID_1960_" class="st10" d="M22.9 12.6s1.5-5.7-3.4-8.1c-2.7-1.4-6.3-.1-7.6.4-.3.1-.5.5-.4.8.4 1.6 1.8 6 6 6.2 5.2.3 5.4.7 5.4.7z" fill="none" stroke="#45413C" stroke-linecap="round" stroke-linejoin="round" stroke-miterlimit="10"/>
      <path id="XMLID_1959_" d="M22.9 12.6s-1-3.5-4.7-5.4" fill="#6dd627" stroke="#45413c" stroke-linecap="round" stroke-linejoin="round" stroke-miterlimit="10"/>
    </g>
  </g>
</svg>
