<svg xmlns="http://www.w3.org/2000/svg" viewBox="0 0 48 48" focusable="false">
  <ellipse cx="23.8" cy="44.8" rx="19.7" ry="2" fill="#45413c" opacity=".15"/>
  <path d="M22.9 12.7s-.5-3.6 1.4-7.5c2.2-4.7 5.3-5.4 6.8-1.4s-1 .8-3.4 3.4c-2 2.2-2 5.4-2 5.4h-2.8z" fill="#6DD627"/>
  <path d="M25.5 7.6c1.8-3.9 4.2-5 5.8-3.1-.1-.2-.1-.4-.2-.6-1.5-4.1-4.5-3.4-6.8 1.4-1.8 3.8-1.4 7.5-1.4 7.5h1.2c.1-1.5.5-3.3 1.4-5.2z" fill="#9CEB60"/>
  <path d="M22.9 12.7s-.5-3.6 1.4-7.5c2.2-4.7 5.3-5.4 6.8-1.4s-1 .8-3.4 3.4c-2 2.2-2 5.4-2 5.4h-2.8z" fill="none" stroke="#45413C" stroke-linecap="round" stroke-linejoin="round" stroke-miterlimit="10"/>
  <path d="M36.6 10.6c-3.3-1-6.8-.9-9.8 1.2-1.7 1.2-4 1.2-5.7 0-3-2.1-6.6-2.2-9.8-1.2C5 12.4 2.1 21.5 4.9 30.9 7.6 40.2 15 46.3 21.3 44.4c.5-.1 1-.3 1.4-.6.8-.4 1.8-.4 2.6 0 .5.2.9.4 1.4.6 6.3 1.8 13.6-4.2 16.4-13.6 2.7-9.3-.2-18.4-6.5-20.2z" fill="#ff6242"/>
  <path d="M11.4 15c3.3-.9 6.8-.8 9.8 1.1 1.7 1.1 4 1.1 5.7 0 3-1.9 6.6-2 9.8-1.1 4.3 1.1 7 5.3 7.4 10.5.5-7.2-2.3-13.4-7.4-14.9-3.3-1-6.8-.9-9.8 1.2-1.7 1.2-4 1.2-5.7 0-3-2.1-6.6-2.2-9.8-1.2-5.1 1.5-7.9 7.7-7.4 14.9.4-5.2 3.1-9.4 7.4-10.5z" fill="#ff866e"/>
  <path d="M36.6 10.6c-3.3-1-6.8-.9-9.8 1.2-1.7 1.2-4 1.2-5.7 0-3-2.1-6.6-2.2-9.8-1.2C5 12.4 2.1 21.5 4.9 30.9 7.6 40.2 15 46.3 21.3 44.4c.5-.1 1-.3 1.4-.6.8-.4 1.8-.4 2.6 0 .5.2.9.4 1.4.6 6.3 1.8 13.6-4.2 16.4-13.6 2.7-9.3-.2-18.4-6.5-20.2z" fill="none" stroke="#45413C" stroke-linecap="round" stroke-linejoin="round" stroke-miterlimit="10"/>
  <path d="M22.9 12.6s1.5-5.7-3.4-8.1c-2.7-1.4-6.3-.1-7.6.4-.3.1-.5.5-.4.8.4 1.6 1.8 6 6 6.2 5.2.3 5.4.7 5.4.7z" fill="#6DD627"/>
  <path d="M12.1 7.5c1.4-.6 4.8-1.7 7.4-.4 2.4 1.2 3.2 3.2 3.5 4.9.2-1.5.4-5.6-3.5-7.6-2.7-1.4-6.3-.1-7.6.4-.3.1-.5.5-.4.8.1.5.3 1.2.6 1.9z" fill="#9CEB60"/>
  <path d="M22.9 12.6s1.5-5.7-3.4-8.1c-2.7-1.4-6.3-.1-7.6.4-.3.1-.5.5-.4.8.4 1.6 1.8 6 6 6.2 5.2.3 5.4.7 5.4.7z" fill="none" stroke="#45413C" stroke-linecap="round" stroke-linejoin="round" stroke-miterlimit="10"/>
  <path d="M22.9 12.6s-1-3.5-4.7-5.4" fill="#6dd627" stroke="#45413c" stroke-linecap="round" stroke-linejoin="round" stroke-miterlimit="10"/>
</svg>
