<svg xmlns="http://www.w3.org/2000/svg" viewBox="0 0 32 32" focusable="false">
  <path fill="#e5303e" d="M25.569 31.5H19.43a1 1 0 01-.997-.929L17.5 17.5h10l-.934 13.071a1 1 0 01-.997.929z"/>
  <path fill="#e0e0e2" d="M27.5 17.5l-.216 3h-9.568l-.216-3h10z"/>
  <path fill="#2c2b2d" d="M25.569 32H19.43a1.506 1.506 0 01-1.496-1.393L17 17.535a.5.5 0 01.5-.535h10a.5.5 0 01.499.535l-.934 13.071A1.506 1.506 0 0125.569 32zm-7.532-14l.895 12.536a.502.502 0 00.5.464h6.137a.502.502 0 00.499-.465L26.963 18z"/>
  <path fill="#e5303e" d="M12.146 31.5H6.854a2 2 0 01-1.857-1.257l-.354-.885a2 2 0 01-.143-.743V13.81a2 2 0 01.094-.607L8 2.5h3l3.406 10.704a2 2 0 01.094.607v14.804a2 2 0 01-.143.743l-.354.885a2 2 0 01-1.857 1.257z"/>
  <path fill="#e0e0e2" d="M7.045 5.5L8 2.5h3l.955 3h-4.91z"/>
  <path fill="#2c2b2d" d="M12.146 32H6.854a2.488 2.488 0 01-2.321-1.571l-.354-.886A2.483 2.483 0 014 28.615V13.811a2.492 2.492 0 01.118-.758L7.523 2.349A.5.5 0 018 2h3a.5.5 0 01.477.349l3.405 10.704a2.492 2.492 0 01.118.758v14.804a2.474 2.474 0 01-.18.928l-.353.886A2.488 2.488 0 0112.146 32zM8.366 3L5.07 13.355a1.502 1.502 0 00-.071.456v14.804a1.499 1.499 0 00.107.557l.354.886A1.493 1.493 0 006.854 31h5.292a1.493 1.493 0 001.393-.942l.354-.886a1.49 1.49 0 00.107-.557V13.811a1.502 1.502 0 00-.07-.456L10.633 3z"/>
  <path fill="#8b8891" d="M7.5.5h4v2h-4z"/>
  <path fill="#2c2b2d" d="M11.5 3h-4a.5.5 0 01-.5-.5v-2a.5.5 0 01.5-.5h4a.5.5 0 01.5.5v2a.5.5 0 01-.5.5zM8 2h3V1H8z"/>
  <path fill="#8b8891" d="M4.5 13.5h10v15h-10z"/>
  <path fill="#2c2b2d" d="M14.5 29h-10a.5.5 0 01-.5-.5v-15a.5.5 0 01.5-.5h10a.5.5 0 01.5.5v15a.5.5 0 01-.5.5zM5 28h9V14H5zm22.79-7.5a.501.501 0 01-.5.5h-9.58a.5.5 0 01-.03-1h9.64a.503.503 0 01.47.5zM12.4 5.5a.485.485 0 01-.3.46.447.447 0 01-.2.04H7.1a.447.447 0 01-.2-.04.485.485 0 01-.3-.46.495.495 0 01.5-.5h4.8a.495.495 0 01.5.5z"/>
</svg>
