<svg xmlns="http://www.w3.org/2000/svg" viewBox="0 0 48 48" focusable="false">
  <ellipse cx="21.8" cy="45.3" rx="11.5" ry="1.5" fill="#45413c" opacity=".15"/>
  <path d="M36.7 19c-.5-4.6-3-8.6-6.6-11.2C31.5 3 34 2.5 31.6 1.4c-2.1-.9-6.3 2-8.3 3.6-.3-.1-.6-.1-.9-.1-.6-.1-1.2-.1-1.7-.1C13.4 4.8 8.3 9 7 13.7c-2.8 1.2-6.1 4.5-4.9 6.4C3.2 22 5.9 21.6 9 21.4c2.1 1.2 4 .8 8.6 1.3 6.5.6 7.5 4.2 7.7 6 .2 2.4-.5 4.1-1.6 5.6-.6-.9-2-2.6-4-2.6h-3.6c-.4 0-.6.3-.5.7.6 1.6 2.3 5.3 5.1 5.3-.7 4 3.8 6.3 5.6 7.1.3.1.7-.1.7-.4 0-.7.1-1.8.4-3.6.3-2.5-.6-3.8-1.6-4.4C32.8 34 37.7 27 36.7 19z" fill="#00b8f0"/>
  <path d="M36.8 19.7c0-.2 0-.5-.1-.7-.5-4.6-3-8.6-6.6-11.2 0 0 .4 2.4 0 4.1 1.8.6 6.1 4.4 6.7 7.8zm-29-3c1.3-4.8 6.4-9 13.6-9 .6 0 1.2 0 1.7.1.3 0 .6.1.9.1 1.9-1.4 5.5-3.9 7.7-3.7.9-1.6 1.5-2.1-.1-2.8-2.1-.9-6.3 2-8.3 3.6-.3-.1-.6-.1-.9-.1-.6-.1-1.2-.1-1.7-.1C13.4 4.8 8.3 9 7 13.7c-2.8 1.2-6.1 4.5-4.9 6.4.2.3.5.6.8.8.8-1.6 2.9-3.4 4.9-4.2z" fill="#4ACFFF"/>
  <path d="M36.7 19c-.5-4.6-3-8.6-6.6-11.2C31.5 3 34 2.5 31.6 1.4c-2.1-.9-6.3 2-8.3 3.6-.3-.1-.6-.1-.9-.1-.6-.1-1.2-.1-1.7-.1C13.4 4.8 8.3 9 7 13.7c-2.8 1.2-6.1 4.5-4.9 6.4C3.2 22 5.9 21.6 9 21.4c2.1 1.2 4 .8 8.6 1.3 6.5.6 7.5 4.2 7.7 6 .2 2.4-.5 4.1-1.6 5.6-.6-.9-2-2.6-4-2.6h-3.6c-.4 0-.6.3-.5.7.6 1.6 2.3 5.3 5.1 5.3-.7 4 3.8 6.3 5.6 7.1.3.1.7-.1.7-.4 0-.7.1-1.8.4-3.6.3-2.5-.6-3.8-1.6-4.4C32.8 34 37.7 27 36.7 19z" fill="none" stroke="#45413C" stroke-linecap="round" stroke-linejoin="round" stroke-miterlimit="10"/>
  <path d="M23.1 21.3c-4.7-1.4-10.1 0-13.5-2.5-2.3 1.2-5.8.9-7.7.6 0 .3.1.5.2.8C3.2 22 5.9 21.6 9 21.4c2.1 1.2 4 .8 8.6 1.3 6.5.6 7.5 4.2 7.7 6 .2 2.4-.5 4.1-1.6 5.6-.6-.9-2-2.6-4-2.6h-3.6c-.4 0-.6.3-.5.7.6 1.6 2.3 5.3 5.1 5.3-.7 4 3.8 6.3 5.6 7.1.3.1.7-.1.7-.4 0-.7.1-1.8.4-3.6.3-2.5-.6-3.8-1.6-4.4.6-.2 1.2-.5 1.8-.8.7-.8 1.5-2.1 1.9-3.9 1.2-4.8-1.7-9-6.4-10.4z" fill="#FFF" stroke="#45413C" stroke-linecap="round" stroke-linejoin="round" stroke-miterlimit="10"/>
  <path d="M20.6 18.3s-3.2 2.1-2.5 6c.4 2.2 1.9 4 3.1 4.7.8.4 1.8 0 1.9-.9.1-.7.4-1.5 1-2.3 1.4-1.8 1.5-6 1.5-6" fill="#00b8f0" stroke="#45413c" stroke-linecap="round" stroke-linejoin="round" stroke-miterlimit="10"/>
  <circle transform="matrix(.05448 -.9985 .9985 .05448 -1.351 26.08)" cx="13.1" cy="13.8" fill="#45413c" stroke="#45413c" stroke-linecap="round" stroke-linejoin="round" stroke-miterlimit="10" r="1"/>
  <circle transform="matrix(.05445 -.9985 .9985 .05445 -2.948 31.387)" cx="15.1" cy="17.3" fill="#b8ecff" r="1"/>
  <path d="M23.7 34.4s-.5.9-1.3 1.9" fill="#FFF" stroke="#45413C" stroke-linecap="round" stroke-linejoin="round" stroke-miterlimit="10"/>
  <path d="M34.6 37.7s1.9-5.5 5.6-8.6c3.8-3.1 6.9-.1 5.6 2.6-1.2 2.6-6.5.2-11.2 6z" fill="#00DFEB"/>
  <path d="M37.2 35.3c.8-1.2 1.8-2.5 3.1-3.5 2.5-2.1 4.7-1.4 5.5 0l.1-.1c1.2-2.7-1.8-5.7-5.6-2.6s-5.6 8.6-5.6 8.6c.8-1.1 1.6-1.8 2.5-2.4z" fill="#4CF4FC"/>
  <path d="M34.6 37.7s1.9-5.5 5.6-8.6c3.8-3.1 6.9-.1 5.6 2.6-1.2 2.6-6.5.2-11.2 6z" fill="none" stroke="#45413C" stroke-linecap="round" stroke-linejoin="round" stroke-miterlimit="10"/>
  <path d="M16.1 43.8s-2.2-6.6-6.5-8c-3.7-1.2-6.2 2-4 4.5 2.7 3 7.3-.2 10.5 3.5z" fill="#00DFEB"/>
  <path d="M9.6 38.3c1.9.6 3.4 2.3 4.5 3.9.7.3 1.4.7 2 1.5 0 0-2.2-6.6-6.5-8-3.4-1.1-5.7 1.5-4.5 3.8.7-1.1 2.4-1.8 4.5-1.2z" fill="#4CF4FC"/>
  <path d="M16.1 43.8s-2.2-6.6-6.5-8c-3.7-1.2-6.2 2-4 4.5 2.7 3 7.3-.2 10.5 3.5z" fill="none" stroke="#45413C" stroke-linecap="round" stroke-linejoin="round" stroke-miterlimit="10"/>
  <path d="M34.1 42.8s1.8-3.7 4.5-3.5c2.8.2 2 3.5-.5 3-1.6-.3-4 .5-4 .5z" fill="#00DFEB"/>
  <path d="M38.6 40.7c.8 0 1.3.4 1.5.7.5-.9.1-2.1-1.5-2.2-2.8-.2-4.5 3.5-4.5 3.5s.5-.2 1.2-.3c.8-.9 1.9-1.8 3.3-1.7z" fill="#4CF4FC"/>
  <path d="M34.1 42.8s1.8-3.7 4.5-3.5c2.8.2 2 3.5-.5 3-1.6-.3-4 .5-4 .5z" fill="none" stroke="#45413C" stroke-linecap="round" stroke-linejoin="round" stroke-miterlimit="10"/>
</svg>
