<svg xmlns="http://www.w3.org/2000/svg" viewBox="0 0 48 48" focusable="false">
  <ellipse cx="24" cy="44.9" rx="10" ry="1.5" fill="#45413c" opacity=".15"/>
  <path d="M22.2 29.6c1.1 4.3.7 11.6.7 11.6 0 .4-.3.7-.7.7-3 .2-5.3.9-5.7 1.8-.1.2 0 .4.2.5.7.4 2.9 1.3 7.3 1.3s6.6-.9 7.3-1.3c.2-.1.3-.3.2-.5-.5-.9-2.7-1.6-5.7-1.8-.4 0-.7-.3-.7-.7 0 0-.4-7.3.7-11.6h-3.6z" fill="#00b8f0" stroke="#45413c" stroke-linecap="round" stroke-linejoin="round" stroke-miterlimit="10"/>
  <path d="M17.2 3c.7-1.1 3.1-1.4 6.8-1.4s6.1.4 6.8 1.4c1.6 1.8 3.6 15 3.6 17.6C34.4 26.3 29.8 31 24 31s-10.4-4.7-10.4-10.4c0-2.6 2-15.8 3.6-17.6z" fill="#00B8F0"/>
  <path d="M16.7 28c9.7-4.5 13.9-14 15.7-20.6-.5-2.2-1.1-3.9-1.6-4.5-.7-1.1-3.1-1.4-6.8-1.4s-6.1.4-6.8 1.5c-1.6 1.8-3.6 15-3.6 17.6 0 2.9 1.2 5.5 3.1 7.4z" fill="#4acfff"/>
  <path d="M24 4.4c3.8 0 6.8-.6 6.8-1.4-.7-1.1-3.1-1.4-6.8-1.4s-6.1.3-6.8 1.4c0 .8 3 1.4 6.8 1.4z" fill="#00B8F0"/>
  <path d="M17.2 3c.7-1.1 3.1-1.4 6.8-1.4s6.1.4 6.8 1.4c1.6 1.8 3.6 15 3.6 17.6C34.4 26.3 29.8 31 24 31s-10.4-4.7-10.4-10.4c0-2.6 2-15.8 3.6-17.6z" fill="none" stroke="#45413C" stroke-linecap="round" stroke-linejoin="round" stroke-miterlimit="10"/>
  <path d="M30.8 3c0 .8-3.1 1.4-6.8 1.4s-6.8-.6-6.8-1.4" fill="none" stroke="#45413C" stroke-linecap="round" stroke-linejoin="round" stroke-miterlimit="10"/>
  <path d="M16.4 22s.7-2.9 4.7-2.9 5 2.9 5 2.9h-9.7z" fill="#E04122"/>
  <path d="M32.6 20.6c0 4.8-3.9 8.6-8.6 8.6s-8.6-3.9-8.6-8.6c0 0 2.9 1.4 5 1.4s5-2.9 7.2-2.9 5 1.5 5 1.5z" fill="#E04122"/>
  <path d="M18.4 27.1c3.7-2.1 6.5-4.9 8.6-7.9-2 .4-4.6 2.8-6.6 2.8-2.2 0-5-1.4-5-1.4 0 2.6 1.1 5 3 6.5z" fill="#ff6242"/>
  <circle cx="19.7" cy="8.4" r="1.4" fill="#E5F8FF"/>
  <circle cx="17.5" cy="10.5" r=".7" fill="#E5F8FF"/>
</svg>
