<svg viewBox="0 0 24 24" xmlns="http://www.w3.org/2000/svg" focusable="false">
  <path d="M9.591 14.418c3.26 0 7.591.366 7.591 3.531 0 3.338-5.049 3.538-7.213 3.55l-.378.001a.748.748 0 110-1.495c2.78 0 6.091-.356 6.091-2.056 0-1.35-2.049-2.036-6.09-2.036-2.78 0-6.092.356-6.092 2.056 0 .381.112.873.984 1.3.354.173.8.317 1.328.429A.747.747 0 115.5 21.16a7.354 7.354 0 01-1.676-.548C2.317 19.874 2 18.767 2 17.969c0-3.551 5.714-3.551 7.591-3.551zm7.996-.705c.579.04 1.16.123 1.727.249 1.265.248 2.098.758 2.46 1.516a2.292 2.292 0 010 1.984c-.357.75-1.189 1.263-2.472 1.526a.748.748 0 11-.301-1.464c.763-.156 1.28-.412 1.418-.703a.813.813 0 00.001-.7c-.14-.293-.656-.547-1.414-.696a10.143 10.143 0 00-1.522-.22.747.747 0 01-.696-.797.758.758 0 01.799-.695zM9.592 2.5c2.83 0 5.133 2.297 5.133 5.118 0 2.822-2.303 5.119-5.133 5.119a5.102 5.102 0 01-3.16-1.076.746.746 0 01-.13-1.05.752.752 0 011.052-.13 3.61 3.61 0 002.238.76 3.633 3.633 0 003.633-3.623 3.633 3.633 0 00-3.633-3.623 3.633 3.633 0 00-3.635 3.623.749.749 0 01-1.5 0C4.457 4.797 6.76 2.5 9.592 2.5zm6.427 1.067A4.045 4.045 0 0120.066 7.6a4.044 4.044 0 01-4.047 4.034.749.749 0 01-.75-.748c0-.412.336-.747.75-.747a2.546 2.546 0 002.547-2.54 2.545 2.545 0 00-2.547-2.538.749.749 0 01-.75-.748c0-.412.336-.747.75-.747z"/>
</svg>
