<svg viewBox="0 0 24 24" xmlns="http://www.w3.org/2000/svg" focusable="false">
  <path d="M2 11.078c.05 2.338.19 6.338.21 6.778.071.943.432 1.896.994 2.568.782.943 1.745 1.364 3.088 1.364 1.856.01 3.902.01 5.89.01 1.994 0 3.93 0 5.565-.01 1.324 0 2.317-.432 3.09-1.364.561-.672.922-1.635.973-2.568.02-.37.12-4.712.18-6.778H2z" opacity=".4"/>
  <path d="M11.245 15.384v1.294a.75.75 0 001.5 0v-1.294a.75.75 0 00-1.5 0"/>
  <path d="M13.286 2a2.953 2.953 0 012.92 2.581h1.977A3.812 3.812 0 0121.99 8.39v3.466a.753.753 0 01-.336.626c-2.062 1.365-4.51 2.274-7.078 2.63a.75.75 0 01-.83-.558A1.805 1.805 0 0011.99 13.2c-.842 0-1.557.545-1.779 1.357a.75.75 0 01-.827.545c-2.55-.356-4.989-1.26-7.047-2.62A.747.747 0 012 11.855V8.39c0-2.1 1.712-3.808 3.817-3.808h1.967a2.953 2.953 0 012.92-2.58zm0 1.5h-2.582c-.673 0-1.235.46-1.403 1.081h5.387a1.456 1.456 0 00-1.402-1.08z"/>
</svg>
