<svg xmlns="http://www.w3.org/2000/svg" viewBox="0 0 48 48">
  <ellipse cx="23.9" cy="45.1" rx="10" ry="1.5" fill="#45413c" opacity=".15"/>
  <path class="st26" d="M20.2 22.1c1.6 1.9 2.5 4.3 2.5 6.8v15.4c0 .4.4.8.8.8h.9c.4 0 .8-.4.8-.8V28.9c0-2.5.9-4.9 2.5-6.8h-7.5z" fill="#6DD627"/>
  <path d="M25.4 27.4c.3-1.9 1.1-3.7 2.4-5.2h-7.5c1.3 1.5 2.1 3.3 2.4 5.2h2.7z" fill="#46b000"/>
  <path class="st10" d="M20.2 22.1c1.6 1.9 2.5 4.3 2.5 6.8v15.4c0 .4.4.8.8.8h.9c.4 0 .8-.4.8-.8V28.9c0-2.5.9-4.9 2.5-6.8h-7.5z" fill="none" stroke="#45413C" stroke-linecap="round" stroke-linejoin="round" stroke-miterlimit="10"/>
  <path class="st29" d="M31.3 12.5c0 6.2-3.3 11.3-7.3 11.3s-7.3-5.1-7.3-11.3c0-5.2 5.1-9.6 6.8-10.9.3-.2.7-.2 1 0 1.7 1.3 6.8 5.7 6.8 10.9z" fill="#FF87AF"/>
  <path class="st30" d="M23.5 5.6c.3-.2.7-.2 1 0 1.5 1.2 5.8 4.8 6.6 9.3.1-.8.2-1.6.2-2.4 0-5.2-5.1-9.6-6.8-10.9-.3-.2-.7-.2-1 0-1.7 1.3-6.8 5.7-6.8 10.9 0 .8.1 1.6.2 2.4.8-4.5 5.1-8.2 6.6-9.3z" fill="#FFB0CA"/>
  <path class="st10" d="M31.3 12.5c0 6.2-3.3 11.3-7.3 11.3s-7.3-5.1-7.3-11.3c0-5.2 5.1-9.6 6.8-10.9.3-.2.7-.2 1 0 1.7 1.3 6.8 5.7 6.8 10.9z" fill="none" stroke="#45413C" stroke-linecap="round" stroke-linejoin="round" stroke-miterlimit="10"/>
  <path class="st29" d="M32 11.8c0-1.9-.3-3.7-.8-5.3-.1-.4-.6-.6-1-.5-3.5.9-6.2 5.9-6.2 11.8 0 2.1.3 4.2 1 5.9 3.9-.7 7-5.7 7-11.9zm-16 0c0 6.1 3.1 11.2 7 11.9.6-1.7 1-3.7 1-5.9 0-6-2.7-10.9-6.2-11.8-.4-.1-.9.1-1 .5-.5 1.6-.8 3.4-.8 5.3z" fill="#FF87AF"/>
  <path class="st30" d="M30 9.8c.5-.2 1.1.2 1.2.7.3 1 .5 2.1.7 3.2.1-.6.1-1.3.1-1.9 0-1.9-.3-3.7-.8-5.3-.1-.4-.6-.6-1-.5-3.5.9-6.2 5.9-6.2 11.8 0 .6 0 1.3.1 1.9.5-5 2.9-9 5.9-9.9zm-13.2.7c.2-.5.7-.8 1.2-.7 3 .9 5.4 4.9 5.9 9.9.1-.6.1-1.2.1-1.9 0-6-2.7-10.9-6.1-11.8-.4-.1-.9.1-1 .5-.6 1.6-.9 3.4-.9 5.3 0 .6 0 1.3.1 1.9.1-1.1.4-2.2.7-3.2z" fill="#FFB0CA"/>
  <path class="st10" d="M32 11.8c0-1.9-.3-3.7-.8-5.3-.1-.4-.6-.6-1-.5-3.5.9-6.2 5.9-6.2 11.8 0 2.1.3 4.2 1 5.9 3.9-.7 7-5.7 7-11.9zm-16 0c0 6.1 3.1 11.2 7 11.9.6-1.7 1-3.7 1-5.9 0-6-2.7-10.9-6.2-11.8-.4-.1-.9.1-1 .5-.5 1.6-.8 3.4-.8 5.3zm8 6V6.5" fill="none" stroke="#45413C" stroke-linecap="round" stroke-linejoin="round" stroke-miterlimit="10"/>
  <path class="st26" d="M23.7 45.2c-.5 0-.9-.5-.8-.9.4-2.6 2-9.7 6.6-15.4 4.2-5.2 10.8-7.8 13.8-8.7.7-.2 1.3.5 1 1.1-1.1 2.5-3.8 7.5-8.6 11-6.4 4.7-10.1 6.3-10.5 12.2 0 .4-.4.8-.8.8h-.7z" fill="#6DD627"/>
  <path class="st25" d="M23.3 45.1c.8-3.3 2.5-8.8 6.1-13.3 4.2-5.2 10.8-7.8 13.8-8.7h.1c.4-.7.7-1.3.9-1.8.3-.7-.3-1.4-1-1.1-3.1 1-9.6 3.5-13.8 8.7-4.6 5.6-6.1 12.8-6.6 15.4 0 .3.2.6.5.8z" fill="#9CEB60"/>
  <path class="st10" d="M23.7 45.2c-.5 0-.9-.5-.8-.9.4-2.6 2-9.7 6.6-15.4 4.2-5.2 10.8-7.8 13.8-8.7.7-.2 1.3.5 1 1.1-1.1 2.5-3.8 7.5-8.6 11-6.4 4.7-10.1 6.3-10.5 12.2 0 .4-.4.8-.8.8h-.7z" fill="none" stroke="#45413C" stroke-linecap="round" stroke-linejoin="round" stroke-miterlimit="10"/>
  <path class="st26" d="M24.3 45.2c.5 0 .9-.5.8-.9-.4-2.6-2-9.7-6.6-15.4-4.2-5.2-10.8-7.8-13.8-8.7-.7-.2-1.3.5-1 1.1 1.1 2.5 3.8 7.5 8.6 11 6.4 4.7 10.1 6.3 10.5 12.2 0 .4.4.8.8.8h.7z" fill="#6DD627"/>
  <path class="st25" d="M4.8 23.5c3.1 1 9.5 3.6 13.7 8.7 3.5 4.3 5.2 9.6 6 12.9.3-.1.6-.5.5-.9-.4-2.6-2-9.7-6.6-15.4-4.2-5.2-10.8-7.8-13.8-8.7-.7-.2-1.3.5-1 1.1.4.7.8 1.4 1.2 2.3z" fill="#9CEB60"/>
  <path class="st10" d="M24.3 45.2c.5 0 .9-.5.8-.9-.4-2.6-2-9.7-6.6-15.4-4.2-5.2-10.8-7.8-13.8-8.7-.7-.2-1.3.5-1 1.1 1.1 2.5 3.8 7.5 8.6 11 6.4 4.7 10.1 6.3 10.5 12.2 0 .4.4.8.8.8h.7z" fill="none" stroke="#45413C" stroke-linecap="round" stroke-linejoin="round" stroke-miterlimit="10"/>
</svg>
