<?xml version="1.0" encoding="UTF-8"?>
<svg width="24px" height="24px" viewBox="0 0 24 24" version="1.1" xmlns="http://www.w3.org/2000/svg" xmlns:xlink="http://www.w3.org/1999/xlink">
    <title>Icons/24/Key</title>
    <g id="Icons/24/Key" stroke="none" stroke-width="1" fill="none" fill-rule="evenodd">
        <rect id="Container" fill-opacity="0" fill="#D8D8D8" fill-rule="nonzero" x="0" y="0" width="24" height="24"></rect>
        <path d="M13.9899,18.5763 L12.4039,16.9903 L13.9899,15.4043 L15.5759,16.9903 L13.9899,18.5763 Z M8.7479,10.8893 C7.7039,11.1653 6.5869,10.8603 5.8359,10.1003 C4.7009,8.9253 4.7179,7.0283 5.8729,5.8733 C6.4569,5.2893 7.2309,4.9963 8.0049,4.9963 C8.7599,4.9963 9.5149,5.2743 10.0959,5.8333 C10.8619,6.5903 11.1649,7.7073 10.8889,8.7493 C10.6119,9.7933 9.7919,10.6123 8.7479,10.8893 L8.7479,10.8893 Z M19.6969,18.2833 L12.1489,10.7353 C12.4449,10.2873 12.6799,9.7963 12.8219,9.2633 C13.2819,7.5263 12.7749,5.6653 11.4969,4.4053 C11.4939,4.4023 11.4909,4.4003 11.4889,4.3973 C9.5329,2.5103 6.3799,2.5383 4.4589,4.4593 C2.5369,6.3813 2.5099,9.5353 4.4049,11.4973 C5.3579,12.4643 6.6539,12.9893 7.9789,12.9893 C8.4069,12.9893 8.8379,12.9343 9.2609,12.8223 C9.7949,12.6803 10.2869,12.4453 10.7349,12.1493 L12.5759,13.9903 L10.2829,16.2833 C9.8919,16.6743 9.8919,17.3063 10.2829,17.6973 L13.2829,20.6973 C13.4779,20.8923 13.7339,20.9903 13.9899,20.9903 C14.2459,20.9903 14.5019,20.8923 14.6969,20.6973 L16.9899,18.4043 L18.2829,19.6973 C18.4779,19.8923 18.7339,19.9903 18.9899,19.9903 C19.2459,19.9903 19.5019,19.8923 19.6969,19.6973 C20.0879,19.3063 20.0879,18.6743 19.6969,18.2833 L19.6969,18.2833 Z" id="Fill-1" fill="#404040" transform="translate(11.495257, 11.995200) scale(-1, 1) translate(-11.495257, -11.995200) "></path>
    </g>
</svg>