<svg viewBox="0 0 24 24" xmlns="http://www.w3.org/2000/svg" fill="currentColor" focusable="false">
  <path d="M9 18.576l1.587-1.586L9 15.404 7.415 16.99 9 18.576zm5.243-7.687a3.02 3.02 0 002.912-.789 3.03 3.03 0 00-.037-4.227 3.007 3.007 0 00-2.132-.877c-.755 0-1.51.278-2.091.837a3.02 3.02 0 00-.793 2.916 3.02 3.02 0 002.14 2.14zm-10.95 7.394l7.549-7.548a5.011 5.011 0 01-.673-1.472 5.028 5.028 0 011.325-4.858l.008-.008c1.956-1.887 5.109-1.859 7.03.062 1.922 1.922 1.949 5.076.054 7.038a5.022 5.022 0 01-4.856 1.325 5.01 5.01 0 01-1.474-.673l-1.841 1.841 2.293 2.293a.999.999 0 010 1.414l-3 3a.997.997 0 01-1.414 0L6 18.404l-1.293 1.293a.997.997 0 01-1.414 0 .999.999 0 010-1.414z" fill="none"/>
</svg>
