<svg viewBox="0 0 24 24" xmlns="http://www.w3.org/2000/svg" focusable="false">
  <path d="M18.561 14.02c1.9 0 3.439 1.513 3.439 3.38 0 1.865-1.539 3.378-3.439 3.378-1.899 0-3.439-1.513-3.439-3.379s1.54-3.38 3.44-3.38zm-8.478 1.938c.833 0 1.508.664 1.508 1.481 0 .817-.675 1.482-1.508 1.482H3.508C2.676 18.92 2 18.256 2 17.439s.676-1.481 1.508-1.481zM5.44 3c1.9 0 3.439 1.513 3.439 3.379s-1.54 3.38-3.44 3.38C3.54 9.758 2 8.244 2 6.378 2 4.513 3.54 3 5.439 3zm15.054 1.898c.831 0 1.507.664 1.507 1.48 0 .818-.676 1.482-1.507 1.482h-6.575c-.832 0-1.508-.664-1.508-1.481 0-.817.676-1.48 1.508-1.48z"/>
</svg>
