<svg xmlns="http://www.w3.org/2000/svg" viewBox="0 0 32 32" fill="currentColor" focusable="false">
  <path d="M23.326 25.211a2.892 2.892 0 00.005 5.784h.005a2.892 2.892 0 00-.005-5.784h-.005zM30.981.827a1.147 1.147 0 00-1.615 0L.664 29.524a1.144 1.144 0 001.62 1.615L30.981 2.442a1.147 1.147 0 000-1.615zM4.382 9.388l.891 9.797c0 .935.281 1.807.758 2.54l1.634-1.639a2.457 2.457 0 01-.177-.924v-.002l-.871-8.684h10.658l2.215-2.215H6.592v-2.55L1.31.97 0 2.565l4.382 3.81zm23.212-1.122l-2.215 2.215h3.5l-3.072 8.63-.005.02c-.418 1.669-1.25 2.511-2.476 2.511h-9.108l-2.215 2.215h11.323c2.27 0 3.84-1.556 4.667-4.608l3.658-10.983zm-17.251 17.25l-3.87 3.87a2.894 2.894 0 002.592 1.613 2.89 2.89 0 001.294-5.475l-.017-.008z"/>
</svg>
