<svg xmlns="http://www.w3.org/2000/svg" viewBox="0 0 48 48">
  <style>
    .st1{fill:#ffc258}.st2{fill:#4f4b45}.st3{fill:#fabfa5}.st10{fill:none}.st10,.st15{stroke:#45413c;stroke-linecap:round;stroke-linejoin:round;stroke-miterlimit:10}.st15,.st17{fill:#fff}.st18{fill:#e8f4fa}
  </style>
  <symbol id="New_Symbol_14" viewBox="-6.5 -6.5 13 13">
    <path d="M0-6c2.2 0 4.1 1.5 4.7 3.5C6.3-2.5 6.4 0 5 0v1c0 2.8-2.2 5-5 5s-5-2.2-5-5V0c-1.4 0-1.3-2.5.2-2.5C-4.1-4.5-2.2-6 0-6z" fill="#ffd4c3" stroke="#504b46" stroke-linecap="round" stroke-linejoin="round" stroke-miterlimit="10"/>
    <circle class="st1" cx="-1.6" cy="-.1" r=".1" fill="#FFC258"/>
    <path class="st2" d="M-1.6.5c-.3 0-.6-.3-.6-.6s.2-.7.6-.7c.3 0 .6.3.6.7s-.3.6-.6.6z" fill="#4F4B45"/>
    <circle class="st1" cx="1.6" cy="-.1" r=".1" fill="#FFC258"/>
    <path class="st2" d="M1.6.5C1.3.5 1 .2 1-.1s.3-.6.6-.6.6.3.6.6-.2.6-.6.6z" fill="#4F4B45"/>
    <circle class="st3" cx="-3" cy="-1.5" r=".5" fill="#FABFA5"/>
    <circle class="st3" cx="3" cy="-1.5" r=".5" fill="#FABFA5"/>
    <path d="M-1.2-3c.8-.5 1.7-.5 2.5 0" fill="none" stroke="#504b46" stroke-linecap="round" stroke-linejoin="round" stroke-miterlimit="10"/>
  </symbol>
  <g id="Icons">
    <g id="XMLID_1000_">
      <ellipse id="XMLID_1268_" cx="21.8" cy="45.7" rx="16.8" ry="1.6" fill="#45413c" opacity=".15"/>
      <g id="XMLID_809_">
        <g id="XMLID_868_">
          <path id="XMLID_1233_" d="M38.6 39.6c0 8.2-33.5 8.2-33.5 0h33.5z" fill="#e5f8ff" stroke="#45413c" stroke-linecap="round" stroke-linejoin="round" stroke-miterlimit="10"/>
          <g id="XMLID_869_">
            <ellipse id="XMLID_1232_" class="st18" cx="21.8" cy="39.6" rx="16.7" ry="4.4" fill="#E8F4FA"/>
            <path id="XMLID_1231_" class="st17" d="M6.2 41.1c2.4-1.7 8.5-2.9 15.7-2.9s13.3 1.2 15.7 2.9c.7-.5 1.1-1 1.1-1.5 0-2.4-7.5-4.4-16.7-4.4s-16.7 2-16.7 4.4c-.2.5.2 1 .9 1.5z" fill="#FFF"/>
            <ellipse id="XMLID_1230_" class="st10" cx="21.8" cy="39.6" rx="16.7" ry="4.4" fill="none" stroke="#45413C" stroke-linecap="round" stroke-linejoin="round" stroke-miterlimit="10"/>
            <ellipse id="XMLID_1228_" cx="21.8" cy="40" rx="9.7" ry="2.2" fill="#e8f4fa" stroke="#45413c" stroke-linecap="round" stroke-linejoin="round" stroke-miterlimit="10"/>
          </g>
        </g>
        <g id="XMLID_817_">
          <g id="XMLID_861_">
            <path id="XMLID_864_" class="st18" d="M36.8 33.4c3.4 0 6.2-2.8 6.2-6.2S40.2 21 36.8 21h-2.6v3.5h2.6c1.5 0 2.6 1.2 2.6 2.6 0 1.5-1.2 2.6-2.6 2.6h-4.4v3.5h4.4z" fill="#E8F4FA"/>
            <path id="XMLID_863_" class="st17" d="M35.9 22.4c3.4 0 6.2 2.8 6.2 6.2 0 1-.2 1.9-.6 2.7.9-1.1 1.5-2.5 1.5-4.1 0-3.4-2.8-6.2-6.2-6.2h-2.6v1.3h1.7z" fill="#FFF"/>
            <path id="XMLID_862_" class="st10" d="M36.8 33.4c3.4 0 6.2-2.8 6.2-6.2S40.2 21 36.8 21h-2.6v3.5h2.6c1.5 0 2.6 1.2 2.6 2.6 0 1.5-1.2 2.6-2.6 2.6h-4.4v3.5h4.4z" fill="none" stroke="#45413C" stroke-linecap="round" stroke-linejoin="round" stroke-miterlimit="10"/>
          </g>
          <g id="XMLID_824_">
            <path id="XMLID_860_" class="st17" d="M35.9 17.1c0-1.7-6.5-3.1-14.5-3.1S6.9 15.4 6.9 17.1v8.8c0 8 6.5 14.5 14.5 14.5s14.5-6.5 14.5-14.5v-8.8z" fill="#FFF"/>
            <path id="XMLID_859_" class="st18" d="M21.4 36.9c-6 0-11.2-3.2-14.2-7.9 1.4 6.5 7.2 11.4 14.2 11.4S34.2 35.6 35.6 29c-3 4.8-8.2 7.9-14.2 7.9z" fill="#E8F4FA"/>
            <path id="XMLID_839_" class="st10" d="M35.9 17.1c0-1.7-6.5-3.1-14.5-3.1S6.9 15.4 6.9 17.1v8.8c0 8 6.5 14.5 14.5 14.5s14.5-6.5 14.5-14.5v-8.8z" fill="none" stroke="#45413C" stroke-linecap="round" stroke-linejoin="round" stroke-miterlimit="10"/>
          </g>
          <g id="XMLID_818_">
            <path id="XMLID_823_" d="M32.2 19.3c-2.7-1.1-6.5-1.8-10.8-1.8s-8.1.7-10.8 1.8c2.7 1.1 6.6 1.8 10.8 1.8s8.1-.7 10.8-1.8z" fill="#bf8256" stroke="#45413c" stroke-linecap="round" stroke-linejoin="round" stroke-miterlimit="10"/>
            <path id="XMLID_819_" class="st10" d="M8.6 18.3C11.2 19.9 16 21 21.4 21s10.1-1.1 12.8-2.7" fill="none" stroke="#45413C" stroke-linecap="round" stroke-linejoin="round" stroke-miterlimit="10"/>
          </g>
        </g>
        <circle id="XMLID_816_" class="st15" cx="17.4" cy="4.3" r="1.8" fill="#FFF" stroke="#45413C" stroke-linecap="round" stroke-linejoin="round" stroke-miterlimit="10"/>
        <path id="XMLID_810_" class="st15" d="M12.3 7c.5-.6.7-1.4.7-2.3 0-2.2-1.8-4-4-4s-4 1.8-4 4 1.8 4 4 4c.2 0 .3 0 .5-.1 0 .2-.1.3-.1.5 0 1.2 1 2.2 2.2 2.2s2.2-1 2.2-2.2c.1-1-.6-1.8-1.5-2.1z" fill="#FFF" stroke="#45413C" stroke-linecap="round" stroke-linejoin="round" stroke-miterlimit="10"/>
      </g>
    </g>
  </g>
</svg>
