<svg viewBox="0 0 24 24" xmlns="http://www.w3.org/2000/svg" focusable="false">
  <path d="M10.805 14.818l3.657 5.933a.5.5 0 00.51.243.508.508 0 00.433-.371l4.573-15.445a.522.522 0 00-.133-.525.512.512 0 00-.512-.132L3.877 9.047a.51.51 0 00-.371.433.515.515 0 00.24.52l6.002 3.754 5.302-5.358a.751.751 0 011.067 1.055l-5.312 5.367zm4.09 7.682a1.997 1.997 0 01-1.71-.962l-3.877-6.291-6.356-3.975a2.004 2.004 0 01-.932-1.996 2 2 0 011.435-1.668L18.91 3.082a2.02 2.02 0 012.504 2.522l-4.573 15.444a1.997 1.997 0 01-1.67 1.433 2.173 2.173 0 01-.277.019z" fill-rule="evenodd"/>
</svg>
