<svg viewBox="0 0 24 24" xmlns="http://www.w3.org/2000/svg" focusable="false">
  <path d="M12 22C6.486 22 2 17.514 2 12S6.488 2 12 2c5.515 0 10 4.486 10 10a9.939 9.939 0 01-3.901 7.927.728.728 0 01-.888-1.153A8.486 8.486 0 0020.547 12c0-4.712-3.833-8.546-8.546-8.546-4.712 0-8.545 3.834-8.545 8.546S7.289 20.546 12 20.546a8.62 8.62 0 001.299-.098.728.728 0 01.22 1.438A10.1 10.1 0 0112 22zm4.001-8.026a.749.749 0 01-1.06-.002l-2.94-2.953-2.94 2.953a.75.75 0 11-1.063-1.06l3.472-3.485a.744.744 0 011.062 0l3.471 3.486a.75.75 0 01-.002 1.06z"/>
</svg>
