<svg xmlns="http://www.w3.org/2000/svg" viewBox="0 0 48 48">
  <style>
    .st1{fill:#ffc258}.st2{fill:#4f4b45}.st3{fill:#fabfa5}.st10{fill:none;stroke:#45413c;stroke-linecap:round;stroke-linejoin:round;stroke-miterlimit:10}.st17{fill:#fff}.st41{fill:#f0f0f0}
  </style>
  <symbol id="New_Symbol_14" viewBox="-6.5 -6.5 13 13">
    <path d="M0-6c2.2 0 4.1 1.5 4.7 3.5C6.3-2.5 6.4 0 5 0v1c0 2.8-2.2 5-5 5s-5-2.2-5-5V0c-1.4 0-1.3-2.5.2-2.5C-4.1-4.5-2.2-6 0-6z" fill="#ffd4c3" stroke="#504b46" stroke-linecap="round" stroke-linejoin="round" stroke-miterlimit="10"/>
    <circle class="st1" cx="-1.6" cy="-.1" r=".1" fill="#FFC258"/>
    <path class="st2" d="M-1.6.5c-.3 0-.6-.3-.6-.6s.2-.7.6-.7c.3 0 .6.3.6.7s-.3.6-.6.6z" fill="#4F4B45"/>
    <circle class="st1" cx="1.6" cy="-.1" r=".1" fill="#FFC258"/>
    <path class="st2" d="M1.6.5C1.3.5 1 .2 1-.1s.3-.6.6-.6.6.3.6.6-.2.6-.6.6z" fill="#4F4B45"/>
    <circle class="st3" cx="-3" cy="-1.5" r=".5" fill="#FABFA5"/>
    <circle class="st3" cx="3" cy="-1.5" r=".5" fill="#FABFA5"/>
    <path d="M-1.2-3c.8-.5 1.7-.5 2.5 0" fill="none" stroke="#504b46" stroke-linecap="round" stroke-linejoin="round" stroke-miterlimit="10"/>
  </symbol>
  <g id="Icons">
    <g id="XMLID_1072_">
      <ellipse id="XMLID_252_" cx="26.1" cy="42.5" rx="13.5" ry="1.5" fill="#45413c" opacity=".15"/>
      <g id="XMLID_212_">
        <circle id="XMLID_237_" cx="2.2" cy="38.3" r="1.4" fill="#fff" stroke="#45413c" stroke-linecap="round" stroke-linejoin="round" stroke-miterlimit="10"/>
        <g id="XMLID_233_">
          <path id="XMLID_236_" class="st17" d="M13 34.1c0-1.3-1.1-2.3-2.3-2.3-.8 0-1.4.4-1.9.9-1.3 0-2.3 1.1-2.3 2.3 0 1.3 1.1 2.3 2.3 2.3.4.6 1.1.9 1.9.9 1.3 0 2.3-1.1 2.3-2.3 0-.3-.1-.7-.2-.9.1-.2.2-.6.2-.9z" fill="#FFF"/>
          <path id="XMLID_235_" class="st41" d="M9.8 36.3s-.1 0 0 0c-1.5 0-2.7-.9-3.2-2.2-.1.3-.2.6-.2 1 0 1.3 1.1 2.3 2.3 2.3.4.6 1.1.9 1.9.9.7 0 1.3-.3 1.7-.7-1 0-2-.5-2.5-1.3z" fill="#F0F0F0"/>
          <path id="XMLID_234_" class="st10" d="M13 34.1c0-1.3-1.1-2.3-2.3-2.3-.8 0-1.4.4-1.9.9-1.3 0-2.3 1.1-2.3 2.3 0 1.3 1.1 2.3 2.3 2.3.4.6 1.1.9 1.9.9 1.3 0 2.3-1.1 2.3-2.3 0-.3-.1-.7-.2-.9.1-.2.2-.6.2-.9z" fill="none" stroke="#45413C" stroke-linecap="round" stroke-linejoin="round" stroke-miterlimit="10"/>
        </g>
        <g id="XMLID_213_">
          <path id="XMLID_230_" class="st17" d="M47.2 18.6c0-2-1.4-3.7-3.3-4.1 0-.2.1-.4.1-.6 0-2.3-1.9-4.2-4.2-4.2-.9 0-1.7.3-2.4.7v-.3c0-2.3-1.9-4.2-4.2-4.2-1.2 0-2.2.5-3 1.2-.5-1.8-2.1-3.1-4.1-3.1S22.5 5.3 22 7.1c-.8-.8-1.8-1.2-3-1.2-2.3 0-4.2 1.9-4.2 4.2v.3c-.7-.5-1.5-.7-2.4-.7-2.3 0-4.2 1.9-4.2 4.2 0 .2 0 .4.1.6-1.9.4-3.3 2.1-3.3 4.1 0 2.1 1.5 3.8 3.6 4.2-.2.5-.3 1-.3 1.5 0 2.3 1.9 4.2 4.2 4.2.9 0 1.7-.3 2.4-.7v.3c0 2.3 1.9 4.2 4.2 4.2 1.3 0 2.4-.6 3.2-1.5.7 1.4 2.1 2.5 3.8 2.5 1.7 0 3.2-1 3.8-2.5.8.9 1.9 1.5 3.2 1.5 2.3 0 4.2-1.9 4.2-4.2v-.3c.7.5 1.5.7 2.4.7 2.3 0 4.2-1.9 4.2-4.2 0-.5-.1-1-.3-1.5 2.1-.3 3.6-2.1 3.6-4.2z" fill="#FFF"/>
          <path id="XMLID_216_" class="st41" d="M44.9 17c.2.5.3 1 .3 1.6 0 2.5-2 4.5-4.5 4.5-.9 0-1.8-.3-2.5-.8v.3c0 2.5-2 4.5-4.5 4.5-1.4 0-2.6-.6-3.4-1.6-.7 1.5-2.3 2.6-4.1 2.6S22.7 27 22 25.4c-.8 1-2 1.6-3.4 1.6-2.5 0-4.5-2-4.5-4.5v-.3c-.7.5-1.6.8-2.5.8-2.5 0-4.5-2-4.5-4.5 0-.6.1-1.1.3-1.6-.6-.1-1.2-.3-1.7-.7-.5.8-.7 1.6-.7 2.4 0 2.1 1.5 3.8 3.6 4.2-.2.5-.3 1-.3 1.5 0 2.3 1.9 4.2 4.2 4.2.9 0 1.7-.3 2.4-.7v.3c0 2.3 1.9 4.2 4.2 4.2 1.3 0 2.4-.6 3.2-1.5.7 1.4 2.1 2.5 3.8 2.5 1.7 0 3.2-1 3.8-2.5.8.9 1.9 1.5 3.2 1.5 2.3 0 4.2-1.9 4.2-4.2v-.3c.7.5 1.5.7 2.4.7 2.3 0 4.2-1.9 4.2-4.2 0-.5-.1-1-.3-1.5 2-.3 3.6-2.1 3.6-4.2 0-.8-.3-1.6-.7-2.3-.5.3-1 .6-1.6.7z" fill="#F0F0F0"/>
          <path id="XMLID_214_" class="st10" d="M47.2 18.6c0-2-1.4-3.7-3.3-4.1 0-.2.1-.4.1-.6 0-2.3-1.9-4.2-4.2-4.2-.9 0-1.7.3-2.4.7v-.3c0-2.3-1.9-4.2-4.2-4.2-1.2 0-2.2.5-3 1.2-.5-1.8-2.1-3.1-4.1-3.1S22.5 5.3 22 7.1c-.8-.8-1.8-1.2-3-1.2-2.3 0-4.2 1.9-4.2 4.2v.3c-.7-.5-1.5-.7-2.4-.7-2.3 0-4.2 1.9-4.2 4.2 0 .2 0 .4.1.6-1.9.4-3.3 2.1-3.3 4.1 0 2.1 1.5 3.8 3.6 4.2-.2.5-.3 1-.3 1.5 0 2.3 1.9 4.2 4.2 4.2.9 0 1.7-.3 2.4-.7v.3c0 2.3 1.9 4.2 4.2 4.2 1.3 0 2.4-.6 3.2-1.5.7 1.4 2.1 2.5 3.8 2.5 1.7 0 3.2-1 3.8-2.5.8.9 1.9 1.5 3.2 1.5 2.3 0 4.2-1.9 4.2-4.2v-.3c.7.5 1.5.7 2.4.7 2.3 0 4.2-1.9 4.2-4.2 0-.5-.1-1-.3-1.5 2.1-.3 3.6-2.1 3.6-4.2z" fill="none" stroke="#45413C" stroke-linecap="round" stroke-linejoin="round" stroke-miterlimit="10"/>
        </g>
      </g>
    </g>
  </g>
</svg>
