<svg viewBox="0 0 24 24" xmlns="http://www.w3.org/2000/svg" focusable="false">
  <path d="M13.974 2c.043 0 .085.004.126.011h.136c.204 0 .4.084.541.23l5.066 5.28a.75.75 0 01.209.519v9.3a4.532 4.532 0 01-4.471 4.526H7.543a4.51 4.51 0 01-3.192-1.312A4.52 4.52 0 013 17.344V6.49a4.484 4.484 0 014.479-4.48h6.369a.754.754 0 01.126-.01zm-.75 1.511H7.478a2.983 2.983 0 00-2.98 2.98V17.34c.006.81.328 1.575.907 2.148.578.57 1.375.899 2.16.879h.062l7.944-.001a3.027 3.027 0 002.98-3.025V8.983l-2.011.001a3.33 3.33 0 01-3.317-3.325V3.511zm-3.085 7.141l1.203 1.204 1.204-1.204a.749.749 0 111.06 1.06l-1.204 1.204 1.203 1.202a.749.749 0 11-1.06 1.06l-1.203-1.202-1.202 1.202a.744.744 0 01-.53.22.749.749 0 01-.53-1.28l1.202-1.202-1.203-1.204a.749.749 0 111.06-1.06zm4.584-6.3V5.66c0 1.004.817 1.822 1.82 1.825h1.185l-3.005-3.132z" fill-rule="evenodd"/>
</svg>
