<svg xmlns="http://www.w3.org/2000/svg" viewBox="0 0 48 48" focusable="false">
  <ellipse cx="23.8" cy="44.6" rx="13.5" ry="1.5" fill="#45413c" opacity=".15"/>
  <circle transform="rotate(-14.76 14.132 15.181)" cx="14.1" cy="15.2" fill="#ffe500" r="8.2"/>
  <path d="M12.8 7.1c3.8-.6 7.5 1.8 8.5 5.6 1.1 4.1-1.4 8.2-5.4 9.3-4.1 1.1-8.2-1.4-9.3-5.4-1-3.8 1.1-7.7 4.7-9-3.9 1.4-6.2 5.7-5.1 9.8 1.2 4.4 5.6 7 10 5.8s7-5.6 5.8-10c-1-4.2-5.1-6.8-9.2-6.1z" fill="#ebcb00"/>
  <circle transform="rotate(-14.76 14.132 15.181)" cx="14.1" cy="15.2" fill="none" stroke="#45413C" stroke-linecap="round" stroke-linejoin="round" stroke-miterlimit="10" r="8.2"/>
  <ellipse transform="rotate(-14.76 12.508 9.015)" cx="12.5" cy="9" rx="2.4" ry=".6" fill="#fff48c"/>
  <path d="M11.8 2.6c-.1-.5-.6-.8-1.1-.6s-.8.6-.7 1.1l.5 1.8c.1.5.6.8 1.1.6.5-.1.8-.6.6-1.1l-.4-1.8zM3.6 8c-.4-.3-1-.1-1.2.3-.3.4-.1 1 .3 1.2l1.6.9c.4.3 1 .1 1.2-.3.3-.4.1-1-.3-1.2L3.6 8zm-2 9.5c-.5.1-.8.6-.6 1.1s.6.8 1.1.6l1.8-.5c.5-.1.8-.6.6-1.1a.8.8 0 00-1.1-.6l-1.8.5zm5.3 8.2c-.3.4-.1 1 .3 1.2.4.3 1 .1 1.2-.3l.9-1.6c.3-.4.1-1-.3-1.2-.4-.3-1-.1-1.2.3l-.9 1.6zm9.6 2c.1.5.6.8 1.1.6.5-.1.8-.6.6-1.1l-.5-1.8a.8.8 0 00-1.1-.6c-.4.2-.7.7-.6 1.2l.5 1.7zm8.2-5.3c.4.3 1 .1 1.2-.3.3-.4.1-1-.3-1.2l-1.6-1c-.4-.3-1-.1-1.2.3-.3.4-.1 1 .3 1.2l1.6 1zm2-9.6c.5-.1.8-.6.6-1.1a.8.8 0 00-1.1-.6l-1.8.5c-.5.1-.8.6-.6 1.1.1.5.6.8 1.1.6l1.8-.5zm-5.4-8.2c.3-.4.1-1-.3-1.2-.4-.3-1-.1-1.2.3l-.9 1.6c-.3.4-.1 1 .3 1.2.4.3 1 .1 1.2-.3l.9-1.6z" fill="#FFE500" stroke="#45413C" stroke-linecap="round" stroke-linejoin="round" stroke-miterlimit="10"/>
  <ellipse transform="rotate(-14.76 9.14 16.495)" cx="9.1" cy="16.5" rx=".9" ry=".6" fill="#FFAA54"/>
  <path d="M16.8 16c.4-.1.8.2.8.6 0 1.4-.9 2.6-2.3 3-1.4.4-2.8-.3-3.4-1.5-.2-.3 0-.8.4-.9l4.5-1.2z" fill="#FFB0CA" stroke="#45413C" stroke-linecap="round" stroke-linejoin="round" stroke-miterlimit="10"/>
  <path d="M15.3 19.6c.9-.2 1.7-.9 2-1.7-.7-.2-1.6-.3-2.5 0s-1.7.7-2.1 1.2c.7.5 1.6.7 2.6.5z" fill="#FF87AF" stroke="#45413C" stroke-linecap="round" stroke-linejoin="round" stroke-miterlimit="10"/>
  <path d="M8.5 15.4c-.1-.5.2-1 .6-1.1.5-.1 1 .2 1.1.6" fill="none" stroke="#45413C" stroke-linecap="round" stroke-linejoin="round" stroke-miterlimit="10"/>
  <ellipse transform="rotate(-14.76 19.122 13.866)" cx="19.1" cy="13.9" rx=".9" ry=".6" fill="#FFAA54"/>
  <path d="M19.1 12.6A.8.8 0 0018 12c-.5.1-.8.6-.6 1.1" fill="none" stroke="#45413C" stroke-linecap="round" stroke-linejoin="round" stroke-miterlimit="10"/>
  <path d="M47.1 26.4c0-1.7-1.2-3-2.7-3.4v-.5c0-1.9-1.5-3.4-3.4-3.4-.7 0-1.4.2-1.9.6v-.2c0-1.9-1.5-3.4-3.4-3.4-.9 0-1.8.4-2.4 1-.4-1.5-1.7-2.5-3.3-2.5-1.6 0-2.9 1.1-3.3 2.5-.6-.6-1.5-1-2.4-1-1.9 0-3.4 1.5-3.4 3.4v.2c-.6-.4-1.2-.6-1.9-.6-1.9 0-3.4 1.5-3.4 3.4v.5c-1.6.3-2.7 1.7-2.7 3.4s1.3 3.1 2.9 3.4c-.1.4-.2.8-.2 1.2 0 1.9 1.5 3.4 3.4 3.4.7 0 1.4-.2 1.9-.6v.2c0 1.9 1.5 3.4 3.4 3.4 1.1 0 2-.5 2.6-1.2.5 1.2 1.7 2 3.1 2 1.4 0 2.6-.8 3.1-2 .6.7 1.6 1.2 2.6 1.2 1.9 0 3.4-1.5 3.4-3.4v-.2c.6.4 1.2.6 1.9.6 1.9 0 3.4-1.5 3.4-3.4 0-.4-.1-.8-.2-1.2 1.7-.3 2.9-1.7 2.9-3.4z" fill="#fff"/>
  <path d="M45.2 25.1c.1.4.2.8.2 1.3 0 2-1.6 3.7-3.7 3.7-.8 0-1.5-.2-2.1-.6v.2c0 2-1.6 3.7-3.7 3.7-1.1 0-2.1-.5-2.8-1.3-.6 1.3-1.8 2.1-3.3 2.1-1.5 0-2.7-.9-3.3-2.1-.7.8-1.7 1.3-2.8 1.3-2 0-3.7-1.6-3.7-3.7v-.2c-.6.4-1.3.6-2.1.6-2 0-3.7-1.6-3.7-3.7 0-.5.1-.9.2-1.3-.5-.1-1-.3-1.4-.5-.4.5-.6 1.2-.6 1.9 0 1.7 1.3 3.1 2.9 3.4-.1.4-.2.8-.2 1.2 0 1.9 1.5 3.4 3.4 3.4.7 0 1.4-.2 1.9-.6v.2c0 1.9 1.5 3.4 3.4 3.4 1.1 0 2-.5 2.6-1.2.5 1.2 1.7 2 3.1 2 1.4 0 2.6-.8 3.1-2 .6.7 1.6 1.2 2.6 1.2 1.9 0 3.4-1.5 3.4-3.4v-.2c.6.4 1.2.6 1.9.6 1.9 0 3.4-1.5 3.4-3.4 0-.4-.1-.8-.2-1.2 1.6-.3 2.9-1.7 2.9-3.4 0-.7-.2-1.3-.6-1.9.1.2-.3.4-.8.5z" fill="#f0f0f0"/>
  <path d="M47.1 26.4c0-1.7-1.2-3-2.7-3.4v-.5c0-1.9-1.5-3.4-3.4-3.4-.7 0-1.4.2-1.9.6v-.2c0-1.9-1.5-3.4-3.4-3.4-.9 0-1.8.4-2.4 1-.4-1.5-1.7-2.5-3.3-2.5-1.6 0-2.9 1.1-3.3 2.5-.6-.6-1.5-1-2.4-1-1.9 0-3.4 1.5-3.4 3.4v.2c-.6-.4-1.2-.6-1.9-.6-1.9 0-3.4 1.5-3.4 3.4v.5c-1.6.3-2.7 1.7-2.7 3.4s1.3 3.1 2.9 3.4c-.1.4-.2.8-.2 1.2 0 1.9 1.5 3.4 3.4 3.4.7 0 1.4-.2 1.9-.6v.2c0 1.9 1.5 3.4 3.4 3.4 1.1 0 2-.5 2.6-1.2.5 1.2 1.7 2 3.1 2 1.4 0 2.6-.8 3.1-2 .6.7 1.6 1.2 2.6 1.2 1.9 0 3.4-1.5 3.4-3.4v-.2c.6.4 1.2.6 1.9.6 1.9 0 3.4-1.5 3.4-3.4 0-.4-.1-.8-.2-1.2 1.7-.3 2.9-1.7 2.9-3.4z" fill="none" stroke="#45413C" stroke-linecap="round" stroke-linejoin="round" stroke-miterlimit="10"/>
  <ellipse cx="24.8" cy="27.9" rx=".9" ry=".6" fill="#FFB0CA"/>
  <path d="M32.3 29.5c.4 0 .7.4.6.8-.3 1.3-1.5 2.3-2.9 2.3s-2.6-1-2.9-2.3c-.1-.4.2-.8.6-.8h4.6z" fill="#FFB0CA" stroke="#45413C" stroke-linecap="round" stroke-linejoin="round" stroke-miterlimit="10"/>
  <path d="M29.9 32.5c1 0 1.8-.5 2.4-1.2-.6-.4-1.5-.6-2.4-.6s-1.8.2-2.4.6c.6.7 1.4 1.2 2.4 1.2z" fill="#FF87AF" stroke="#45413C" stroke-linecap="round" stroke-linejoin="round" stroke-miterlimit="10"/>
  <path d="M24.5 26.7c0-.5.4-.9.9-.9s.9.4.9.9" fill="none" stroke="#45413C" stroke-linecap="round" stroke-linejoin="round" stroke-miterlimit="10"/>
  <ellipse cx="35.1" cy="27.9" rx=".9" ry=".6" fill="#FFB0CA"/>
  <path d="M35.4 26.7c0-.5-.4-.9-.9-.9s-.9.4-.9.9" fill="none" stroke="#45413C" stroke-linecap="round" stroke-linejoin="round" stroke-miterlimit="10"/>
</svg>
