<svg xmlns="http://www.w3.org/2000/svg" viewBox="0 0 32 32" focusable="false">
  <path fill="#92d9f7" d="M9.019 14.51v-4.003l3.497-2.002 3.497 2.002v4.003l-3.497 2.002zm7 0v-4.003l3.497-2.002 3.497 2.002v4.003l-3.497 2.002z"/>
  <path fill="#92d9f7" d="M12.519 20.51v-4.003l3.497-2.002 3.497 2.002v4.003l-3.497 2.002z"/>
  <path fill="#62355c" d="M5.468 8a.5.5 0 00-.209.938l3.252 1.861v3.711a.502.498 0 00.252.432l3.248 1.857v3.416l-3.246 1.858a.5.5 0 10.496.867l3.246-1.858 3.252 1.86a.502.498 0 00.502 0l3.254-1.86 3.244 1.858a.5.5 0 10.498-.867l-3.246-1.858V16.8l3.248-1.857a.502.498 0 00.252-.432V10.8l3.252-1.862A.5.5 0 0026.49 8a.5.5 0 00-.223.07L23.01 9.933l-3.25-1.86a.502.498 0 00-.502 0l-3.248 1.86-3.25-1.86a.502.498 0 00-.502 0L9.01 9.933 5.754 8.072A.5.5 0 005.468 8zm7.043 1.08l2.994 1.713v3.426l-2.996 1.715-2.994-1.711v-3.43L12.51 9.08zm7 0l2.994 1.713v3.43l-2.992 1.71-2.998-1.716v-3.424L19.51 9.08zm-7 2.428c-.546 0-1 .454-1 1 0 .547.454 1 1 1s1-.453 1-1c0-.546-.454-1-1-1zm7 0c-.546 0-1 .454-1 1 0 .547.454 1 1 1s1-.453 1-1c0-.546-.454-1-1-1zm-3.5 3.576l2.994 1.713v3.426l-2.994 1.713-2.996-1.713v-3.426l2.996-1.713zm0 2.424c-.546 0-1 .454-1 1 0 .547.454 1 1 1s1-.453 1-1c0-.546-.454-1-1-1z" color="#000" font-family="sans-serif" font-weight="400" overflow="visible"/>
</svg>
