<svg xmlns="http://www.w3.org/2000/svg" viewBox="0 0 48 48">
  <path class="st26" d="M45.4 9.6c-1.5-.8-4.2-1.9-7.2-1.6-3.9.3-6.3 4.2-4.9 7.1-.6.5-1.1 1.1-1.7 1.8-3.9 4.9-4.2 10.7-4.2 10.7l1.9 3.7s.4-7.1 3.3-12.1c.6-1 1.2-1.9 1.8-2.7 2.7 2.6 6.2.1 8-2 1.5-1.7 2.5-2.7 3.2-3.4.5-.4.4-1.2-.2-1.5z" fill="#6DD627"/>
  <path class="st25" d="M38.2 10.1c2.8-.2 5.4.7 7 1.5.2-.2.3-.3.5-.4.5-.4.4-1.2-.2-1.5-1.5-.8-4.2-1.9-7.2-1.6-3.6.3-5.9 3.5-5.2 6.3.4-2.2 2.4-4.1 5.1-4.3zm-6.5 8.8c.5-.7 1.1-1.3 1.7-1.8-.3-.5-.4-1.1-.4-1.7-.4.4-.8.8-1.2 1.4-3.9 4.9-4.2 10.7-4.2 10.7l.2.4c.3-1.9 1.3-5.7 3.9-9z" fill="#9CEB60"/>
  <path class="st10" d="M45.4 9.6c-1.5-.8-4.2-1.9-7.2-1.6-3.9.3-6.3 4.2-4.9 7.1-.6.5-1.1 1.1-1.7 1.8-3.9 4.9-4.2 10.7-4.2 10.7l1.9 3.7s.4-7.1 3.3-12.1c.6-1 1.2-1.9 1.8-2.7 2.7 2.6 6.2.1 8-2 1.5-1.7 2.5-2.7 3.2-3.4.5-.4.4-1.2-.2-1.5z" fill="none" stroke="#45413C" stroke-linecap="round" stroke-linejoin="round" stroke-miterlimit="10"/>
  <ellipse cx="28.5" cy="44.9" rx="10.7" ry="1.5" fill="#45413c" opacity=".15"/>
  <path class="st26" d="M27.5 22.5c-1.7-4.3-4.6-7.7-7.3-10.1.3-2 .6-7.4-5-9.7C10 .5 4.9 2.2 2.7 3.3c-.6.3-.8 1-.3 1.5 1 1.1 2.8 3.2 4.4 6 2.9 5.1 9 8.1 12.9 2.9 2 2.3 3.9 5.4 5.1 9.7 3.3 12.1 1.6 17.2.8 19.2-.2.6 0 1.3.5 1.6.5.3 1.3.6 2.3.7 2.2.1 2.3-1.4 2.3-1.4s1.1-10.2-3.2-21z" fill="#6DD627"/>
  <path class="st25" d="M20.2 14.4c.5.7 1.1 1.4 1.6 2.2 2.2 2.2 4.3 5.1 5.7 8.5 2.6 6.4 3.3 12.6 3.4 16.6.1-3.3-.1-11.1-3.4-19.3-1.7-4.3-4.5-7.6-7.2-10 0 .8 0 1.5-.1 2zm-17-8.7c2.5-1 7.2-2.3 11.9-.4 3.6 1.5 4.8 4.2 5 6.6.3-2.3.2-7.2-5-9.3C10 .5 4.9 2.2 2.7 3.3c-.6.3-.8 1-.3 1.5.2.2.5.5.8.9z" fill="#9CEB60"/>
  <path class="st10" d="M27.5 22.5c-1.7-4.3-4.6-7.7-7.3-10.1.3-2 .6-7.4-5-9.7C10 .5 4.9 2.2 2.7 3.3c-.6.3-.8 1-.3 1.5 1 1.1 2.8 3.2 4.4 6 2.9 5.1 9 8.1 12.9 2.9 2 2.3 3.9 5.4 5.1 9.7 3.3 12.1 1.6 17.2.8 19.2-.2.6 0 1.3.5 1.6.5.3 1.3.6 2.3.7 2.2.1 2.3-1.4 2.3-1.4s1.1-10.2-3.2-21z" fill="none" stroke="#45413C" stroke-linecap="round" stroke-linejoin="round" stroke-miterlimit="10"/>
  <path class="st48" d="M34.2 14.7s.9-4.3 6.5-4.2m-22.3.9c-.3-5-7-6.1-7-6.1" fill="#6DD627" stroke="#45413C" stroke-linecap="round" stroke-linejoin="round" stroke-miterlimit="10"/>
</svg>
