<svg xmlns="http://www.w3.org/2000/svg" viewBox="0 0 25.78 35.114" style="width:15px;height:15px">
  <path d="M10.357 9.647l-2.15-4.91-.731-1.674-.375-.856a2.883 2.883 0 00-3.8-1.484l-1.1.48a2.883 2.883 0 00-1.484 3.8l3.5 8c.509.482.891 1.1 1.863 1.1 1.6 0 1.6-1.666 3.2-1.666a1.911 1.911 0 01.465.055 2.807 2.807 0 01-.031-.413 6.173 6.173 0 01.631-2.425zm0 0" fill="#10e02c"/>
  <path d="M10.358 9.647l-2.15-4.91-.733-1.674-.375-.856A2.883 2.883 0 003.3.723l-1.1.48a2.883 2.883 0 00-1.726 2.71 2.876 2.876 0 01.957-.68l1.1-.48a2.883 2.883 0 013.8 1.484l.375.856.732 1.672 2.15 4.91a7.261 7.261 0 00-.306.753h.009a1.923 1.923 0 01.465.055 2.807 2.807 0 01-.031-.412 6.173 6.173 0 01.631-2.425zm10.897-.932l-.653.653a1.479 1.479 0 01-2.091 0l-.653-.653.653-.653a1.479 1.479 0 012.091 0zm0 0" fill="#07bc20"/>
  <path d="M12.494 14.095c1.429 0 1.584-1.326 2.739-1.611a2.768 2.768 0 00.031-.412c0-1.529-1.24-4.408-2.769-4.408s-2.769 2.879-2.769 4.408a2.771 2.771 0 00.031.413c1.155.285 1.31 1.61 2.737 1.61zm0 0" fill="#10e02c"/>
  <path d="M12.496 7.663a2.3 2.3 0 00-1.725 1.243 1.331 1.331 0 01.522-.111c1.529 0 2.769 2.879 2.769 4.409v.1a2.438 2.438 0 011.174-.817 2.806 2.806 0 00.031-.412c-.002-1.533-1.242-4.412-2.771-4.412zm0 0" fill="#07bc20"/>
  <path d="M20.507 9.453a1.478 1.478 0 01-2-.086l-.653-.653.344-.344a3.888 3.888 0 00-.243-.009 3.522 3.522 0 00-3.092 1.833 5.671 5.671 0 01.4 1.877 2.8 2.8 0 01-.03.412 1.913 1.913 0 01.464-.054c1.6 0 1.6 1.666 3.2 1.666 1.323 0 1.553-1.137 2.5-1.532l.017-.006a3.52 3.52 0 00-.909-3.1zm0 0" fill="#10e02c"/>
  <path d="M20.508 9.456a1.478 1.478 0 01-2-.086l-.031.086a3.51 3.51 0 01.974 2.43v.007a1.376 1.376 0 01-.481 1.033c-.326.283-.774.66-1.083.87a1.722 1.722 0 001.013.3c1.323 0 1.553-1.136 2.5-1.532l.017-.006a3.52 3.52 0 00-.909-3.1zm0 0" fill="#07bc20"/>
  <path d="M14.867 10.194a3.522 3.522 0 013.092-1.833h.159c-.259-1.575-1.375-3.778-2.712-3.778-1.16 0-2.153 1.656-2.565 3.124a3.942 3.942 0 012.031 2.493zm0 0" fill="#10e02c"/>
  <path d="M15.407 4.588a1.833 1.833 0 00-1.3.693 1.241 1.241 0 01.211-.018c1.195 0 2.213 1.758 2.6 3.256a3.519 3.519 0 011.042-.157h.159c-.259-1.575-1.375-3.778-2.712-3.778zm0 0" fill="#07bc20"/>
  <path d="M21.399 12.563c-.943.4-1.173 1.532-2.5 1.532-1.6 0-1.6-1.666-3.2-1.666s-1.6 1.666-3.2 1.666-1.6-1.666-3.2-1.666-1.6 1.666-3.2 1.666c-1.323 0-1.553-1.136-2.5-1.532a.509.509 0 00-.707.467v17.32a1.906 1.906 0 001.906 1.906h15.403a1.906 1.906 0 001.906-1.906V13.03a.508.508 0 00-.708-.467zm0 0" fill="#2446f5"/>
  <path d="M21.398 12.563c-.578.242-.888.763-1.346 1.13v14.6a1.906 1.906 0 01-1.906 1.906H2.887v.148a1.906 1.906 0 001.906 1.906H20.2a1.906 1.906 0 001.906-1.906v-17.32a.508.508 0 00-.707-.467zm0 0" fill="#0a2cdc"/>
  <path d="M21.955 12.11a3.978 3.978 0 00-.792-2.623l.432-.432a.48.48 0 000-.68l-.653-.653a1.962 1.962 0 00-2.04-.461c.043-.047.088-.094.137-.14a.481.481 0 00-.655-.7 3.324 3.324 0 00-.26.271c-1.568-3.766-4.36-3.238-5.622.493a2.716 2.716 0 00-2.089 1.389L8.649 4.543a.48.48 0 00-.88.386L9.83 9.636a6.655 6.655 0 00-.58 2.314c-1.761.028-1.89 1.665-3.159 1.665-.705 0-.962-.4-1.461-.9l-.524-1.2a4.051 4.051 0 012.63-1.034.48.48 0 10-.035-.96 5.04 5.04 0 00-3 1.079l-.626-1.43a4.055 4.055 0 012.63-1.034.48.48 0 10-.035-.96 5.041 5.041 0 00-3 1.079l-.619-1.422A4.054 4.054 0 014.681 5.8a.48.48 0 00-.035-.96 5.04 5.04 0 00-3 1.079l-.482-1.111a2.4 2.4 0 011.237-3.164C3.15 1.4 4.03.617 5.335 1.127c1.27.5 1.426 1.658 1.7 2.13a.48.48 0 10.88-.385l-.374-.856A3.361 3.361 0 003.111.284C2.518.633.921.86.233 2.62a3.342 3.342 0 00.051 2.574l3 6.856a.987.987 0 00-.88.981V21a.48.48 0 00.961 0c.022-8.407-.041-8.025.041-7.991.789.331 1.129 1.57 2.681 1.57 1.968 0 1.983-2.012 3.552-1.625.107.06.251-.035.906.646a2.427 2.427 0 003.9 0 1.607 1.607 0 011.256-.69c1.309 0 1.442 1.794 3.387 1.659 1.351-.093 1.73-1.191 2.443-1.536.151-.073.1-1.356.1 17.317a1.427 1.427 0 01-1.43 1.426H4.793a1.427 1.427 0 01-1.425-1.425v-7.56a.481.481 0 00-.961 0v7.56a2.389 2.389 0 002.386 2.386h15.408a2.389 2.389 0 002.386-2.386V13.03a.984.984 0 00-.632-.921zm-2.4-4c.574 0 .807.435 1.019.606-.327.325-.3.309-.373.368a1 1 0 01-1.281.01c-.066-.055-.08-.076-.384-.377.217-.176.446-.608 1.021-.608zm-4.154-3.041c.812 0 1.717 1.4 2.1 2.772l-.019.069a4 4 0 00-2.521 1.315 4.27 4.27 0 00-1.539-1.782c.43-1.225 1.229-2.373 1.976-2.373zm-2.69 3.105c1.122.313 2.1 2.721 2.072 3.957-1.068.469-1.223 1.484-2.287 1.484-.9 0-1.113-.692-1.85-1.231a2.191 2.191 0 00-.435-.252c-.035-1.349 1.218-4.315 2.5-3.957zm6.192 5.44c-1.3 0-1.369-1.636-3.159-1.665a6.231 6.231 0 00-.344-1.707A3.037 3.037 0 0117.378 8.9a3.448 3.448 0 00.121.851.48.48 0 00.86.123 1.961 1.961 0 002.052.212 3.029 3.029 0 01.569 2.15c-.86.49-1.113 1.38-2.078 1.38zm0 0"/>
  <path d="M25.308 28.862a5.681 5.681 0 11-5.681-5.683 5.681 5.681 0 015.681 5.683z" fill="#10e02c"/>
  <path d="M18.549 31.202a.631.631 0 00.893 0l3.787-3.787a.631.631 0 10-.893-.893l-3.341 3.341-.816-.816a.631.631 0 00-.893.893z"/>
  <g fill="none" stroke="#000" transform="translate(13.671 23.004)">
    <circle cx="6.055" cy="6.055" r="6.055" stroke="none"/>
    <circle cx="6.055" cy="6.055" r="5.555"/>
  </g>
</svg>
