<svg viewBox="0 0 24 24" xmlns="http://www.w3.org/2000/svg" focusable="false">
  <path d="M3 6.5C3 3.875 3.028 3 6.5 3s3.5.875 3.5 3.5.011 3.5-3.5 3.5S3 9.125 3 6.5zm11 0c0-2.625.028-3.5 3.5-3.5s3.5.875 3.5 3.5.011 3.5-3.5 3.5S14 9.125 14 6.5zm-11 11c0-2.625.028-3.5 3.5-3.5s3.5.875 3.5 3.5.011 3.5-3.5 3.5S3 20.125 3 17.5zm11 0c0-2.625.028-3.5 3.5-3.5s3.5.875 3.5 3.5.011 3.5-3.5 3.5-3.5-.875-3.5-3.5z" stroke="#000" stroke-width="1.5" fill="none" stroke-linecap="round" stroke-linejoin="round"/>
</svg>
