<svg xmlns="http://www.w3.org/2000/svg" viewBox="0 0 48 48">
  <style>
    .st1{fill:#ffc258}.st2{fill:#4f4b45}.st3{fill:#fabfa5}
  </style>
  <symbol id="New_Symbol_14" viewBox="-6.5 -6.5 13 13">
    <path d="M0-6c2.2 0 4.1 1.5 4.7 3.5C6.3-2.5 6.4 0 5 0v1c0 2.8-2.2 5-5 5s-5-2.2-5-5V0c-1.4 0-1.3-2.5.2-2.5C-4.1-4.5-2.2-6 0-6z" fill="#ffd4c3" stroke="#504b46" stroke-linecap="round" stroke-linejoin="round" stroke-miterlimit="10"/>
    <circle class="st1" cx="-1.6" cy="-.1" r=".1" fill="#FFC258"/>
    <path class="st2" d="M-1.6.5c-.3 0-.6-.3-.6-.6s.2-.7.6-.7c.3 0 .6.3.6.7s-.3.6-.6.6z" fill="#4F4B45"/>
    <circle class="st1" cx="1.6" cy="-.1" r=".1" fill="#FFC258"/>
    <path class="st2" d="M1.6.5C1.3.5 1 .2 1-.1s.3-.6.6-.6.6.3.6.6-.2.6-.6.6z" fill="#4F4B45"/>
    <circle class="st3" cx="-3" cy="-1.5" r=".5" fill="#FABFA5"/>
    <circle class="st3" cx="3" cy="-1.5" r=".5" fill="#FABFA5"/>
    <path d="M-1.2-3c.8-.5 1.7-.5 2.5 0" fill="none" stroke="#504b46" stroke-linecap="round" stroke-linejoin="round" stroke-miterlimit="10"/>
  </symbol>
  <g id="Icons">
    <g id="XMLID_1927_">
      <ellipse id="XMLID_1216_" cx="24" cy="45.6" rx="9.1" ry="1.2" fill="#45413c" opacity=".15"/>
      <path id="XMLID_1998_" d="M23.5 1.5L14 28c-1.4 3.9-.4 8.2 2.5 11.1 4.2 4.2 10.9 4.2 15.1 0 2.9-2.9 3.9-7.3 2.5-11.1L24.5 1.5c-.2-.5-.8-.5-1 0z" fill="#00dfeb"/>
      <path id="XMLID_1997_" d="M21.5 42c-.4-.2-.8-.5-1.1-.8-3.7-2.9-4.9-7.3-3.2-11.3L27 8.4l-2.5-6.9c-.2-.5-.8-.5-1 0L14 28c-1.4 3.9-.4 8.2 2.5 11.1 1.4 1.5 3.2 2.5 5 2.9z" fill="#4aeff7"/>
      <path id="XMLID_1996_" d="M23.5 1.5L14 28c-1.4 3.9-.4 8.2 2.5 11.1 4.2 4.2 10.9 4.2 15.1 0 2.9-2.9 3.9-7.3 2.5-11.1L24.5 1.5c-.2-.5-.8-.5-1 0z" fill="none" stroke="#45413c" stroke-linecap="round" stroke-linejoin="round" stroke-miterlimit="10"/>
    </g>
  </g>
</svg>
