<svg xmlns="http://www.w3.org/2000/svg" viewBox="0 0 48 48">
  <ellipse cx="24" cy="45.6" rx="9.1" ry="1.2" fill="#45413c" opacity=".15"/>
  <path d="M23.5 1.5L14 28c-1.4 3.9-.4 8.2 2.5 11.1 4.2 4.2 10.9 4.2 15.1 0 2.9-2.9 3.9-7.3 2.5-11.1L24.5 1.5c-.2-.5-.8-.5-1 0z" fill="#00dfeb"/>
  <path d="M21.5 42c-.4-.2-.8-.5-1.1-.8-3.7-2.9-4.9-7.3-3.2-11.3L27 8.4l-2.5-6.9c-.2-.5-.8-.5-1 0L14 28c-1.4 3.9-.4 8.2 2.5 11.1 1.4 1.5 3.2 2.5 5 2.9z" fill="#4aeff7"/>
  <path d="M23.5 1.5L14 28c-1.4 3.9-.4 8.2 2.5 11.1 4.2 4.2 10.9 4.2 15.1 0 2.9-2.9 3.9-7.3 2.5-11.1L24.5 1.5c-.2-.5-.8-.5-1 0z" fill="none" stroke="#45413c" stroke-linecap="round" stroke-linejoin="round" stroke-miterlimit="10"/>
</svg>
