<svg xmlns="http://www.w3.org/2000/svg" viewBox="0 0 48 48" focusable="false">
  <path d="M30.9 25.3c-.7-.1-1.2-.7-1.3-1.3l-.7-10.5c-.2-2.4 2.2-4.2 4.8-3.7 2.6.5 4.2 3 3.2 5.1l-4.3 9.6c-.3.6-1 .9-1.7.8z" fill="#E5FEFF"/>
  <path d="M29 15.4c.5-1.7 2.5-2.9 4.6-2.5 1.4.3 2.5 1.1 3.1 2.2l.1-.3c1-2.2-.6-4.7-3.2-5.1s-4.9 1.4-4.8 3.7l.2 2z" fill="#FFF"/>
  <path d="M30.9 25.3c-.7-.1-1.2-.7-1.3-1.3l-.7-10.5c-.2-2.4 2.2-4.2 4.8-3.7 2.6.5 4.2 3 3.2 5.1l-4.3 9.6c-.3.6-1 .9-1.7.8zM13.5 10.9S12.1 4.5 6 5.1" fill="none" stroke="#45413C" stroke-linecap="round" stroke-linejoin="round" stroke-miterlimit="10"/>
  <path d="M38.6 34.8l1.7 4c.1.3-.1.6-.4.6l-4.4-.4 3.1-4.2z" fill="#656769" stroke="#45413c" stroke-linecap="round" stroke-linejoin="round" stroke-miterlimit="10"/>
  <ellipse cx="24.6" cy="45.3" rx="11.5" ry="1.5" fill="#45413c" opacity=".15"/>
  <ellipse transform="rotate(-53.372 28.246 30.686)" cx="28.2" cy="30.7" rx="8.4" ry="11.6" fill="#FFE500"/>
  <path d="M18.9 27.6c2.8-3.7 9.2-3.6 14.3.2 2.9 2.1 4.7 4.9 5.4 7.7 1-3.6-1.1-8.4-5.4-11.5-5.2-3.8-11.6-3.9-14.3-.2-1.2 1.7-1.5 3.8-1 6 .2-.8.5-1.5 1-2.2z" fill="#fff48c"/>
  <ellipse transform="rotate(-53.372 28.246 30.686)" cx="28.2" cy="30.7" rx="8.4" ry="11.6" fill="none" stroke="#45413C" stroke-linecap="round" stroke-linejoin="round" stroke-miterlimit="10"/>
  <circle transform="rotate(-76.603 16.618 16.53)" cx="16.6" cy="16.5" fill="#656769" r="9.7"/>
  <path d="M7.2 17.9c1.2-5.2 6.4-8.4 11.6-7.2 3.8.9 6.5 4 7.2 7.6.9-5-2.2-10-7.2-11.2-5.2-1.2-10.4 2-11.6 7.2-.3 1.4-.3 2.7-.1 4 .1-.1.1-.3.1-.4z" fill="#87898C"/>
  <path d="M31.2 22.7c-.6 2.4-1.8 5.1-3.7 7.6-1.8 2.4-3.9 4.3-6 5.6-1.3-1.2-2.2-2.6-2.9-4 1.6-1.2 3.2-2.8 4.6-4.7 1.5-2 2.6-4.1 3.2-6 1.7.1 3.3.7 4.8 1.5z" fill="#656769"/>
  <circle transform="rotate(-76.603 16.618 16.53)" cx="16.6" cy="16.5" fill="none" stroke="#45413C" stroke-linecap="round" stroke-linejoin="round" stroke-miterlimit="10" r="9.7"/>
  <path d="M30 26c.5-1.1.9-2.3 1.2-3.3-1.5-.8-3.1-1.3-4.7-1.5-.4 1.2-1 2.5-1.8 3.8 1.7-.1 3.5.2 5.3 1z" fill="#87898C"/>
  <path d="M31.2 22.7c-.6 2.4-1.8 5.1-3.7 7.6-1.8 2.4-3.9 4.3-6 5.6-1.3-1.2-2.2-2.6-2.9-4 1.6-1.2 3.2-2.8 4.6-4.7 1.5-2 2.6-4.1 3.2-6 1.7.1 3.3.7 4.8 1.5z" fill="none" stroke="#45413C" stroke-linecap="round" stroke-linejoin="round" stroke-miterlimit="10"/>
  <path d="M38 29.9c-.7 1.9-1.8 3.9-3.2 5.9-1.4 1.8-2.9 3.3-4.4 4.5-1.9-.2-3.9-.9-5.9-2 2.1-1.2 4.2-3.2 6.1-5.6 1.9-2.6 3.2-5.3 3.8-7.7 1.7 1.4 2.9 3.2 3.6 4.9z" fill="#656769"/>
  <path d="M37.1 32c.3-.7.7-1.4.9-2.1-.7-1.8-2-3.5-3.6-5-.2 1-.6 2-1 3 1.5 1.3 2.8 2.7 3.7 4.1z" fill="#87898C"/>
  <path d="M38 29.9c-.7 1.9-1.8 3.9-3.2 5.9-1.4 1.8-2.9 3.3-4.4 4.5-1.9-.2-3.9-.9-5.9-2 2.1-1.2 4.2-3.2 6.1-5.6 1.9-2.6 3.2-5.3 3.8-7.7 1.7 1.4 2.9 3.2 3.6 4.9z" fill="none" stroke="#45413C" stroke-linecap="round" stroke-linejoin="round" stroke-miterlimit="10"/>
  <circle cx="15.6" cy="14.2" r="1.5" fill="#fff" stroke="#45413c" stroke-linecap="round" stroke-linejoin="round" stroke-miterlimit="10"/>
  <ellipse cx="20.9" cy="18.9" rx="1.8" ry="1" fill="#FFE500"/>
  <path d="M16.2 9.5s1.4-6.4-4.4-8.3" fill="none" stroke="#45413C" stroke-linecap="round" stroke-linejoin="round" stroke-miterlimit="10"/>
  <path d="M30.9 25.4c-.6-.4-.8-1.1-.6-1.7l3.9-9.8c.9-2.2 3.7-2.9 5.9-1.3 2.2 1.5 2.5 4.5.7 6l-8 6.9c-.6.3-1.3.3-1.9-.1z" fill="#E5FEFF"/>
  <path d="M30.9 25.4l3.3-8.3c.9-2.2 3.7-2.9 5.9-1.3.7.5 1.1 1.1 1.4 1.7.8-1.6.3-3.8-1.4-5-2.2-1.5-5-.9-5.9 1.3l-3.9 9.8c-.2.7 0 1.4.6 1.8z" fill="#FFF"/>
  <path d="M30.9 25.4c-.6-.4-.8-1.1-.6-1.7l3.9-9.8c.9-2.2 3.7-2.9 5.9-1.3 2.2 1.5 2.5 4.5.7 6l-8 6.9c-.6.3-1.3.3-1.9-.1zm-11.3 8.2c-.4 0-3.6-.1-5.2 4.4m7-2.2s-2.9 1.7-2.6 5.7m8.2-2c-.4.6-1.8 3-.8 6.5m2.4-6c-.2.6-.6 3 1.7 5.4" fill="none" stroke="#45413C" stroke-linecap="round" stroke-linejoin="round" stroke-miterlimit="10"/>
</svg>
