<svg viewBox="0 0 24 24" xmlns="http://www.w3.org/2000/svg" focusable="false">
  <path d="M21.215 14.725c.413 0 .748.335.748.748 0 .022-.141 1.79-.173 2.333-.057.938-.421 1.895-.974 2.561-.77.928-1.751 1.362-3.085 1.365h-.668l-.166.001-2.76.001H11.53a.75.75 0 11.001-1.5h2.635l2.726-.001h.836c.902-.003 1.444-.234 1.933-.824.347-.417.595-1.082.632-1.693.032-.552.186-2.3.186-2.3a.741.741 0 01.736-.69zm-18.44 0c.393 0 .705.306.736.691 0 0 .154 1.75.187 2.3.037.611.284 1.276.631 1.692.49.592 1.032.822 1.933.824l.441.001h.694c.414 0 .753.336.753.75s-.34.75-.755.75H6.261c-1.336-.004-2.317-.438-3.087-1.367-.552-.665-.917-1.622-.973-2.56-.033-.544-.174-2.31-.174-2.333 0-.413.335-.748.748-.748zm9.22-.092a.75.75 0 01.75.75v1.294a.75.75 0 01-1.5 0v-1.294a.75.75 0 01.75-.75zM13.286 2a2.963 2.963 0 012.934 2.581h1.963a3.812 3.812 0 013.807 3.807v3.467a.752.752 0 01-.336.626c-2.062 1.364-4.51 2.274-7.078 2.629a.75.75 0 01-.83-.559 1.804 1.804 0 00-1.756-1.352c-.841 0-1.556.545-1.779 1.356a.743.743 0 01-.827.545c-2.551-.355-4.988-1.26-7.047-2.619A.749.749 0 012 11.855V8.388a3.816 3.816 0 013.817-3.807L7.77 4.58A2.962 2.962 0 0110.704 2zm0 1.5h-2.582a1.46 1.46 0 00-1.459 1.458l.001.37a.75.75 0 01-.75.751l-2.678.002A2.315 2.315 0 003.5 8.388v3.057c1.641 1.018 3.529 1.729 5.511 2.078a3.355 3.355 0 012.979-1.824c1.281 0 2.421.726 2.969 1.833 1.994-.351 3.888-1.066 5.531-2.087V8.388a2.31 2.31 0 00-2.307-2.307h-6.188a.75.75 0 010-1.5h2.7A1.462 1.462 0 0013.286 3.5z"/>
</svg>
