<svg viewBox="0 0 24 24" xmlns="http://www.w3.org/2000/svg" focusable="false">
  <path d="M16.62 6.474h-.206C16.387 4.003 14.424 2 12.012 2c-1.215.017-2.289.46-3.125 1.311-.825.838-1.283 1.954-1.3 3.163H7.38c-2.69 0-4.88 2.245-4.88 5.005v5.516C2.5 19.755 4.69 22 7.38 22a.741.741 0 00.731-.75.741.741 0 00-.731-.75c-1.884 0-3.417-1.572-3.417-3.505v-5.516c0-1.933 1.533-3.505 3.417-3.505h.202v1.581c0 .414.327.75.73.75a.741.741 0 00.732-.75V6.509a3.043 3.043 0 01.872-2.134c.56-.567 1.309-.83 2.093-.875 1.608 0 2.916 1.33 2.942 2.974h-3.2a.741.741 0 00-.731.75c0 .414.328.75.731.75h3.205v1.581c0 .414.327.75.731.75a.741.741 0 00.731-.75V7.974h.202c1.884 0 3.417 1.572 3.417 3.505v5.516c0 1.933-1.533 3.505-3.417 3.505h-5.257a.741.741 0 00-.731.75c0 .414.328.75.731.75h5.257c2.69 0 4.88-2.245 4.88-5.005v-5.516c0-2.76-2.19-5.005-4.88-5.005"/>
</svg>
