<svg viewBox="0 0 24 24" xmlns="http://www.w3.org/2000/svg" focusable="false">
  <path d="M18.426 13.994c.268 0 .536.03.798.088.451.1.735.545.632.99a.84.84 0 01-1.003.623c-1.163-.262-2.325.652-2.325 1.827 0 1.033.85 1.873 1.898 1.873 1.046 0 1.898-.84 1.898-1.873 0-.106-.01-.21-.026-.311a.83.83 0 01.688-.953.838.838 0 01.965.68c.032.19.049.385.049.584 0 1.945-1.604 3.528-3.574 3.528-1.972 0-3.574-1.583-3.574-3.528 0-1.946 1.602-3.528 3.574-3.528zm-7.714 2.7c.462 0 .838.371.838.828a.833.833 0 01-.838.827H3.838A.833.833 0 013 17.522c0-.457.376-.828.838-.828h6.874zM6.575 3c1.971 0 3.574 1.582 3.574 3.528 0 1.945-1.603 3.528-3.574 3.528C4.603 10.056 3 8.473 3 6.528c0-.199.017-.394.05-.584a.837.837 0 01.964-.68.83.83 0 01.688.953c-.016.1-.025.205-.025.311 0 1.033.85 1.873 1.898 1.873 1.047 0 1.897-.84 1.897-1.873 0-1.034-.85-1.873-1.897-1.873a1.91 1.91 0 00-.423.046.836.836 0 01-1.007-.618.826.826 0 01.627-.993c.262-.06.53-.09.803-.09zm14.587 2.7c.462 0 .838.37.838.828a.833.833 0 01-.838.827h-6.873a.833.833 0 01-.838-.827c0-.457.376-.828.838-.828h6.873z"/>
</svg>
