<svg viewBox="0 0 24 24" xmlns="http://www.w3.org/2000/svg" focusable="false">
  <path d="M14.648 15.66c.414 0 .75.328.75.732v.894c0 2.323-1.938 4.214-4.321 4.214H6.33C3.943 21.5 2 19.605 2 17.275a.74.74 0 01.75-.73.74.74 0 01.75.73c0 1.524 1.27 2.762 2.83 2.762h4.747c1.556 0 2.821-1.234 2.821-2.751v-.894c0-.404.336-.732.75-.732zm6.602-4.392a.75.75 0 01.693.453.72.72 0 01-.163.798l-2.846 2.764a.763.763 0 01-1.06-.002.718.718 0 01.001-1.035l1.56-1.514H9.548A.742.742 0 018.8 12c0-.404.336-.732.75-.732zM11.067 2.5c2.389 0 4.332 1.895 4.332 4.225v.884c0 .403-.337.73-.75.73a.741.741 0 01-.75-.73v-.884c0-1.524-1.27-2.762-2.832-2.762H6.322C4.765 3.963 3.5 5.198 3.5 6.714v7.235a.741.741 0 01-.75.731.741.741 0 01-.75-.731V6.714C2 4.391 3.938 2.5 6.322 2.5zm6.804 6.223a.761.761 0 011.06-.006l.718.692a.718.718 0 01.006 1.034.76.76 0 01-1.061.006l-.718-.693a.718.718 0 01-.005-1.033z"/>
</svg>
