<svg viewBox="0 0 24 24" xmlns="http://www.w3.org/2000/svg" focusable="false">
  <path d="M12.484 2c1.133 0 7.079 2.041 7.865 2.828.656.656.646 1.186.6 3.729-.018 1.018-.043 2.405-.043 4.322 0 6.882-7.87 9.344-8.205 9.445a.731.731 0 01-.434 0c-.335-.101-8.205-2.563-8.205-9.445 0-1.92-.025-3.307-.043-4.325A112.18 112.18 0 014 7.374v-.381c.008-1.252.125-1.673.617-2.165C5.405 4.041 11.35 2 12.484 2zm0 1.5c-.848 0-6.2 1.884-6.816 2.399-.119.119-.163.296-.168 1v.27c0 .343.007.784.018 1.357.019 1.026.044 2.421.044 4.353 0 5.201 5.722 7.51 6.92 7.935 1.199-.427 6.924-2.749 6.924-7.935 0-1.93.025-3.324.043-4.35.01-.573.017-1.015.018-1.359V6.9c-.006-.705-.053-.885-.18-1.011-.605-.505-5.955-2.389-6.803-2.389zm-1.35 6.037l1.35 1.35 1.349-1.35a.749.749 0 111.06 1.06l-1.35 1.35 1.35 1.348a.749.749 0 11-1.06 1.06l-1.35-1.348-1.348 1.348a.744.744 0 01-.53.22.749.749 0 01-.53-1.28l1.349-1.348-1.35-1.35a.749.749 0 111.06-1.06z" fill-rule="evenodd"/>
</svg>
