<svg viewBox="0 0 24 24" xmlns="http://www.w3.org/2000/svg" focusable="false">
  <path d="M9.865 2.886a3.018 3.018 0 014.262-.009l.73.729c.28.28.66.441 1.06.441h1.03a3.013 3.013 0 013.012 3.009v1.031c0 .399.16.779.44 1.059l.72.72c.57.56.88 1.32.88 2.12.01.8-.3 1.561-.86 2.13l-.74.74a1.5 1.5 0 00-.44 1.061v1.029c0 1.66-1.35 3.011-3.011 3.011h-1.03c-.4 0-.78.159-1.06.439l-.721.72c-.59.591-1.36.88-2.131.88a3.03 3.03 0 01-2.13-.869l-.731-.731c-.28-.28-.66-.439-1.06-.439h-1.03a3.014 3.014 0 01-3.012-3.011v-1.029c0-.401-.16-.781-.44-1.071l-.72-.71a3.022 3.022 0 01-.01-4.259l.73-.731c.28-.28.44-.66.44-1.07v-1.02c0-1.66 1.35-3.009 3.011-3.009h1.03c.4 0 .78-.161 1.061-.441zm4.712 10.81a.875.875 0 10-.01 1.75.875.875 0 00.01-1.75zm.61-4.89a.871.871 0 00-1.23 0l-5.142 5.14c-.34.34-.34.9 0 1.24.16.17.38.26.61.26.24 0 .46-.09.62-.26l5.142-5.139a.882.882 0 000-1.241zm-5.752-.25a.88.88 0 00-.88.87c0 .491.4.88.88.88s.87-.389.87-.88a.87.87 0 00-.87-.87z"/>
</svg>
