<svg viewBox="0 0 24 24" xmlns="http://www.w3.org/2000/svg" focusable="false">
  <path d="M11.754 2a4.528 4.528 0 014.519 4.474h.219A5.012 5.012 0 0121.5 11.48v5.516A5.011 5.011 0 0116.492 22H7.008A5.012 5.012 0 012 16.996V11.48a5.012 5.012 0 015.008-5.005l.204-.001.006-.195A4.488 4.488 0 018.55 3.311C9.408 2.46 10.56 2.035 11.754 2zm4.738 5.975l-.22-.001v1.582a.75.75 0 01-1.5 0V7.974h-6.06v1.582a.75.75 0 01-1.5 0V7.974h-.203A3.51 3.51 0 003.5 11.48v5.516A3.51 3.51 0 007.008 20.5h9.484A3.51 3.51 0 0020 16.996V11.48a3.51 3.51 0 00-3.508-3.505zM11.75 3.5c-.811.028-1.571.308-2.145.876a2.999 2.999 0 00-.895 2.098h6.06l-.003-.128A3.027 3.027 0 0011.75 3.5z" fill-rule="evenodd"/>
</svg>
