<svg xmlns="http://www.w3.org/2000/svg" viewBox="0 0 32 32">
  <g transform="translate(-874.261 -1535.186)">
    <rect width="10" height="26" x="885.735" y="1537.686" fill="#ec7bb0" rx="0" ry="0"/>
    <path fill="#92d9f7" d="M876.762 1542.686h9v21h-9zm18.986 0h9v21h-9z"/>
    <path fill="#cdcccd" fill-rule="evenodd" d="M892.748 1563.678v-8.838h-4v8.838"/>
    <path fill="#f2f2f2" d="M889.748 1542.686v2h-2v2h2v2h2v-2h2v-2h-2v-2h-2z"/>
    <path fill="#62355c" fill-rule="evenodd" d="M895.754 1551.185a.5.5 0 100 1h9a.5.5 0 100-1h-9z" color="#000" font-family="sans-serif" font-weight="400" overflow="visible" style="line-height:normal;text-indent:0;text-align:start;text-decoration-line:none;text-decoration-style:solid;text-decoration-color:#000;text-transform:none;block-progression:tb;isolation:auto;mix-blend-mode:normal"/>
    <path fill="#62355c" d="M885.734 1537.186a.5.5 0 00-.5.5v4.5h-8.473a.5.5 0 00-.5.5v20.999a.5.5 0 00.5.5h27.987a.5.5 0 00.5-.5v-20.998a.5.5 0 00-.5-.5h-8.514v-4.5a.5.5 0 00-.5-.5h-10zm.5 1h9v25h-1.986v-8h.466c.676.01.676-1.01 0-1h-5.96c-.677-.01-.677 1.01 0 1h.494v8h-1.987v-20.5a.495.495 0 00-.027-.164v-4.336zm3.514 4a.5.5 0 00-.5.5v1.5h-1.5a.5.5 0 00-.5.5v2a.5.5 0 00.5.5h1.5v1.5a.5.5 0 00.5.5h2a.5.5 0 00.5-.5v-1.5h1.5a.5.5 0 00.5-.5v-2a.5.5 0 00-.5-.5h-1.5v-1.5a.5.5 0 00-.5-.5zm-12.487 1h1.987v2h-1.987zm2.987 0h2v2h-2zm3 0h1.986v2h-1.986zm7 0h1v1.5a.5.5 0 00.5.5h1.5v1h-1.5a.5.5 0 00-.5.5v1.5h-1v-1.5a.5.5 0 00-.5-.5h-1.5v-1h1.5a.5.5 0 00.5-.5zm6 0h2v2h-2zm3 0h2v2h-2zm3 0h2v2h-2zm-24.987 3h1.987v2h-1.987zm2.987 0h2v2h-2zm3 0h1.986v2h-1.986zm13 0h2v2h-2zm3 0h2v2h-2zm3 0h2v2h-2zm-24.987 3h1.987v2h-1.987zm2.987 0h2v2h-2zm3 0h1.986v2h-1.986zm13 0h2v5h-2zm3 0h2v5h-2zm3 0h2v5h-2zm-24.987 3h1.987v2h-1.987zm2.987 0h2v2h-2zm3 0h1.986v2h-1.986zm-5.987 3h1.987v2h-1.987zm2.987 0h2v2h-2zm3 0h1.986v2h-1.986zm6 0h3v8h-3zm7 0h2v2h-2zm3 0h2v2h-2zm3 0h2v2h-2zm-24.987 3h1.987v2h-1.987zm2.987 0h2v2h-2zm3 0h1.986v2h-1.986zm13 0h2v2h-2zm3 0h2v2h-2zm3 0h2v2h-2zm-24.987 3h1.987v2h-1.987zm2.987 0h2v2h-2zm3 0h1.986v2h-1.986zm13 0h2v2h-2zm3 0h2v2h-2zm3 0h2v2h-2z" color="#000" font-family="sans-serif" font-weight="400" overflow="visible" style="line-height:normal;text-indent:0;text-align:start;text-decoration-line:none;text-decoration-style:solid;text-decoration-color:#000;text-transform:none;block-progression:tb;isolation:auto;mix-blend-mode:normal"/>
  </g>
</svg>
