<svg data-name="Layer 1" xmlns="http://www.w3.org/2000/svg" viewBox="0 0 24 24" focusable="false">
  <g fill="none" stroke-linecap="round" stroke-miterlimit="10" stroke-width="1.5">
    <path d="M20.935 5.592a5.814 5.814 0 00-8.347-1.415.977.977 0 01-1.176 0 5.814 5.814 0 00-8.347 1.415 6.844 6.844 0 00.137 7.532C5.136 16.104 8.802 21 12 21s6.864-4.897 8.798-7.876a6.844 6.844 0 00.137-7.532z" stroke="#030835"/>
    <path d="M20.935 5.592a5.814 5.814 0 00-8.347-1.415.977.977 0 01-1.176 0 5.814 5.814 0 00-8.347 1.415 6.844 6.844 0 00.137 7.532" stroke="#ffb531"/>
  </g>
</svg>
