<svg xmlns="http://www.w3.org/2000/svg" viewBox="0 0 24 24">
  <path fill="#200E32" d="M17.92 14.32a1.1 1.1 0 00-.32.97l.89 4.92c.07.42-.1.84-.45 1.08a1.1 1.1 0 01-1.17.08l-4.43-2.31a1.136 1.136 0 00-.5-.13h-.27a.811.811 0 00-.27.09l-4.43 2.32c-.22.11-.47.15-.71.11a1.11 1.11 0 01-.89-1.27l.89-4.92a1.12 1.12 0 00-.32-.98l-3.61-3.5c-.3-.3-.41-.73-.27-1.13.13-.39.47-.68.89-.75l4.97-.72c.38-.04.71-.27.88-.61l2.19-4.49c.05-.1.12-.19.2-.27l.09-.07c.04-.05.1-.09.16-.13l.11-.04.17-.07h.42c.38.04.71.27.88.6l2.22 4.47c.16.33.47.55.83.61l4.97.72c.42.06.77.35.91.75.13.4.02.84-.29 1.13l-3.74 3.54z"/>
</svg>
