<svg xmlns="http://www.w3.org/2000/svg" viewBox="0 0 48 48">
  <path class="st46" d="M21.5 42.5l2-.6.8-5.6 3 .4-.8 5.6.8.6c.5.3.7 1.1.3 1.6-.3.5-1 .6-1.5.3l-1-.6c-.2-.1-.5-.2-.8-.1l-2.2.6c-.6.2-1.2-.2-1.4-.7-.2-.7.1-1.3.8-1.5zm8.8.9l1.8-1.1-.8-5.6 3-.4.8 5.6.9.3c.6.2 1 .8.8 1.4-.2.6-.8.9-1.4.7l-1.1-.3c-.3-.1-.5 0-.8.1l-2 1.2c-.5.4-1.2.2-1.5-.3-.4-.5-.2-1.2.3-1.6z" fill="#FFE500" stroke="#45413C" stroke-linecap="round" stroke-linejoin="round" stroke-miterlimit="10"/>
  <ellipse cx="29.8" cy="45" rx="11.5" ry="1.5" fill="#45413c" opacity=".15"/>
  <path d="M44 12.3c-.6-.4-1.4-.2-1.6.5-.4 1.3-1.2 3.3-2.4 4.8-2.2 2.6-5.5 4.3-9.2 4.3h-.2c-2.7 0-4.4-2.7-3.5-5.2.6-1.7.9-3.5.6-5.4-.7-5-4.8-9.1-9.8-9.6-6.8-.9-12.5 4.4-12.5 11 0 5.3 3.7 9.8 8.7 10.9.5.1.8.6.7 1.1 0 .4-.1.8-.1 1.2 0 7.7 6.3 14 14 14s14-6.3 14-14v-.4c1.4-.9 2.7-2.5 3.5-4.9 1.5-4.5-.7-7.1-2.2-8.3z" fill="#00dfeb"/>
  <path class="st87" d="M27.1 20.9c-1 2.5.8 5.2 3.5 5.2h.2c3.7 0 7-1.7 9.2-4.3 1.2-1.5 2-3.5 2.4-4.8.2-.7 1-.9 1.6-.5.8.7 1.9 1.8 2.4 3.5 1.1-4.1-1-6.6-2.4-7.7-.6-.4-1.4-.2-1.6.5-.4 1.3-1.2 3.3-2.4 4.8-2.2 2.6-5.5 4.3-9.2 4.3h-.2c-1.4 0-2.6-.8-3.2-1.9l-.3.9zM17.9 5.8c4.8.5 8.8 4.2 9.7 8.9.2-1.1.3-2.3.1-3.6-.7-5-4.8-9.1-9.8-9.6C11.1.8 5.4 6.1 5.4 12.7c0 .7.1 1.4.2 2.1 1.1-5.5 6.3-9.6 12.3-9z" fill="#4AEFF7"/>
  <path class="st10" d="M44 12.3c-.6-.4-1.4-.2-1.6.5-.4 1.3-1.2 3.3-2.4 4.8-2.2 2.6-5.5 4.3-9.2 4.3h-.2c-2.7 0-4.4-2.7-3.5-5.2.6-1.7.9-3.5.6-5.4-.7-5-4.8-9.1-9.8-9.6-6.8-.9-12.5 4.4-12.5 11 0 5.3 3.7 9.8 8.7 10.9.5.1.8.6.7 1.1 0 .4-.1.8-.1 1.2 0 7.7 6.3 14 14 14s14-6.3 14-14v-.4c1.4-.9 2.7-2.5 3.5-4.9 1.5-4.5-.7-7.1-2.2-8.3z" fill="none" stroke="#45413C" stroke-linecap="round" stroke-linejoin="round" stroke-miterlimit="10"/>
  <path d="M8.4 15.7s0 2.3-1.2 2.9-4.2.9-4.7-1.8 4.4-3.3 5.9-1.1z" fill="#ebcb00" stroke="#45413c" stroke-linecap="round" stroke-linejoin="round" stroke-miterlimit="10"/>
  <path d="M5.4 12.1s-1.5-.4-2.9 1.2c-1.3 1.4-1.2 4.1-1.2 4.1s3.1.1 4.7-.6 2.4-1.2 2.4-1.2-1.1-2.7-3-3.5z" fill="#ffe500"/>
  <path d="M1.5 17.4c.2-.8.7-1.6 1.5-2.2C5.2 13.6 7.4 14 7.4 14h.1c-.5-.8-1.2-1.6-2.1-2 0 0-1.5-.4-2.9 1.2-1.3 1.4-1.2 4.1-1.2 4.1s.1.1.2.1z" fill="#fff48c"/>
  <path class="st10" d="M5.4 12.1s-1.5-.4-2.9 1.2c-1.3 1.4-1.2 4.1-1.2 4.1s3.1.1 4.7-.6 2.4-1.2 2.4-1.2-1.1-2.7-3-3.5zm15.9 15.4s1 9 8 10c4.8.7 5.8-3.6 6-5.6 0-.5-.3-.9-.8-1.1-.7-.2-1.8-.6-2.7-1.4" fill="none" stroke="#45413C" stroke-linecap="round" stroke-linejoin="round" stroke-miterlimit="10"/>
  <circle transform="rotate(-76.798 14.24 10.947)" cx="14.2" cy="10.9" fill="#45413c" r="1.8"/>
  <path d="M20.7 14.6c-.2.5-1.2.9-2.1.7-.9-.1-1.5-.7-1.3-1.2.2-.5 1.2-.9 2.1-.7.9.1 1.5.6 1.3 1.2z" fill="#d9fdff"/>
</svg>
