<svg xmlns="http://www.w3.org/2000/svg" viewBox="0 0 48 48" focusable="false">
  <path d="M39.7 41.7c-3.7 0-3.7-4.3-3.7-8 0-4.6-2-5.9-3.2-5.9-.6 0-1.1-.5-1.1-1.1 0-.6.5-1.1 1.1-1.1 2 0 5.3 1.7 5.3 8 0 4.6.4 5.9 1.6 5.9 1.2 0 1.6-1.5 1.6-5.3V22.5c0-.6.5-1.1 1.1-1.1.6 0 1.1.5 1.1 1.1v11.7c0 2.7 0 7.5-3.8 7.5z" fill="#87898C" stroke="#45413C" stroke-linecap="round" stroke-linejoin="round" stroke-miterlimit="10"/>
  <path d="M36.5 5.5l.9.5c2.2 1.3 3.7 3.5 4.3 5.9l.8 3c.3 1.1.4 2.2.4 3.4V22h-2.7v-4c0-.6-.1-1.1-.2-1.6l-.8-3.5c-.4-1.7-1.4-3.2-2.7-4.2V5.5z" fill="#daedf7" stroke="#45413c" stroke-linecap="round" stroke-linejoin="round" stroke-miterlimit="10"/>
  <path fill="#87898C" stroke="#45413C" stroke-linecap="round" stroke-linejoin="round" stroke-miterlimit="10" d="M34.9 18.8h5.3v2.1h-5.3z"/>
  <path d="M33.3 22.5H9.9c-1.8 0-3.2-1.4-3.2-3.2V4.4c0-1.8 1.4-3.2 3.2-3.2h23.5c1.8 0 3.2 1.4 3.2 3.2v14.9c-.1 1.8-1.5 3.2-3.3 3.2z" fill="#daedf7"/>
  <path d="M33.3 1.2H9.9c-1.8 0-3.2 1.4-3.2 3.2v3.2c0-1.8 1.4-3.2 3.2-3.2h23.5c1.8 0 3.2 1.4 3.2 3.2V4.4c-.1-1.8-1.5-3.2-3.3-3.2z" fill="#FFF"/>
  <path d="M33.3 22.5H9.9c-1.8 0-3.2-1.4-3.2-3.2V4.4c0-1.8 1.4-3.2 3.2-3.2h23.5c1.8 0 3.2 1.4 3.2 3.2v14.9c-.1 1.8-1.5 3.2-3.3 3.2z" fill="none" stroke="#45413C" stroke-linecap="round" stroke-linejoin="round" stroke-miterlimit="10"/>
  <ellipse cx="21.6" cy="45.2" rx="17.6" ry="1.6" fill="#45413c" opacity=".15"/>
  <path d="M32.3 19.3H10.9c-.6 0-1.1-.5-1.1-1.1v-9h23.5v9.1c0 .6-.4 1-1 1z" fill="#ff6242" stroke="#45413c" stroke-linecap="round" stroke-linejoin="round" stroke-miterlimit="10"/>
  <path fill="#FF6242" d="M32.3 41.7H10.9l-.5-19.2h22.4z"/>
  <path fill="#e04122" d="M32.7 25.2l.1-2.7H10.4l.1 2.7z"/>
  <path fill="none" stroke="#45413C" stroke-linecap="round" stroke-linejoin="round" stroke-miterlimit="10" d="M32.3 41.7H10.9l-.5-19.2h22.4z"/>
  <path d="M33.3 9.2H9.9V5.5c0-.6.5-1.1 1.1-1.1h21.3c.6 0 1.1.5 1.1 1.1v3.7z" fill="#FFF"/>
  <path d="M32.3 4.4H10.9c-.6 0-1.1.5-1.1 1.1v2.4c0-.6.5-1.1 1.1-1.1h21.3c.6 0 1.1.5 1.1 1.1V5.5c0-.6-.4-1.1-1-1.1z" fill="#e0e0e0"/>
  <path d="M33.3 9.2H9.9V5.5c0-.6.5-1.1 1.1-1.1h21.3c.6 0 1.1.5 1.1 1.1v3.7z" fill="none" stroke="#45413C" stroke-linecap="round" stroke-linejoin="round" stroke-miterlimit="10"/>
  <path d="M33.3 44.4H9.9v-1.6c0-.6.5-1.1 1.1-1.1h21.3c.6 0 1.1.5 1.1 1.1v1.6z" fill="#87898C" stroke="#45413C" stroke-linecap="round" stroke-linejoin="round" stroke-miterlimit="10"/>
  <path d="M29.6 15.6h-5.9c-.6 0-1.1-.5-1.1-1.1v-1.6c0-.6.5-1.1 1.1-1.1h5.9c.6 0 1.1.5 1.1 1.1v1.6c0 .6-.5 1.1-1.1 1.1z" fill="#9ceb60"/>
  <path d="M22.7 12.9v.8h8v-.8c0-.6-.5-1.1-1.1-1.1h-5.9c-.6.1-1 .5-1 1.1z" fill="#6dd627"/>
  <path d="M29.6 15.6h-5.9c-.6 0-1.1-.5-1.1-1.1v-1.6c0-.6.5-1.1 1.1-1.1h5.9c.6 0 1.1.5 1.1 1.1v1.6c0 .6-.5 1.1-1.1 1.1z" fill="none" stroke="#45413C" stroke-linecap="round" stroke-linejoin="round" stroke-miterlimit="10"/>
  <path d="M42.9 12.9l-.6-1.9c-.2-.6-1-.9-1.6-.6l-4.2 2.5v3.7l1.9-1.1c.6-.4 1.4 0 1.6.7.2.6.3 1.3.3 2v3.2c0 .6.5 1.1 1.1 1.1H43c.6 0 1.1-.5 1.1-1.1v-2.7c-.1-2-.5-3.8-1.2-5.8z" fill="#FF6242"/>
  <path d="M42.9 12.9l-.6-1.9c-.2-.6-1-.9-1.6-.6l-4.2 2.5v2.4l4.2-2.5c.6-.4 1.3-.1 1.6.6l.6 1.9c.7 2 1.1 3.7 1.1 5.9v-2.4c0-2.1-.4-3.9-1.1-5.9z" fill="#ff866e"/>
  <path d="M42.9 12.9l-.6-1.9c-.2-.6-1-.9-1.6-.6l-4.2 2.5v3.7l1.9-1.1c.6-.4 1.4 0 1.6.7.2.6.3 1.3.3 2v3.2c0 .6.5 1.1 1.1 1.1H43c.6 0 1.1-.5 1.1-1.1v-2.7c-.1-2-.5-3.8-1.2-5.8z" fill="none" stroke="#45413C" stroke-linecap="round" stroke-linejoin="round" stroke-miterlimit="10"/>
  <circle cx="21.6" cy="32.7" r="6.4" fill="#f0f0f0"/>
  <path d="M21.6 28.2c3.2 0 5.9 2.4 6.3 5.5 0-.3.1-.6.1-.9 0-3.5-2.9-6.4-6.4-6.4s-6.4 2.9-6.4 6.4c0 .3 0 .6.1.9.4-3.1 3.1-5.5 6.3-5.5z" fill="#FFF"/>
  <circle cx="21.6" cy="32.7" r="6.4" fill="none" stroke="#45413C" stroke-linecap="round" stroke-linejoin="round" stroke-miterlimit="10"/>
  <path d="M21 29.8l-1.5 3.1c-.4.8-.2 1.8.5 2.4.9.8 2.4.8 3.3 0 .7-.6.9-1.6.5-2.4l-1.5-3.1c-.3-.5-1.1-.5-1.3 0z" fill="#87898C" stroke="#45413C" stroke-linecap="round" stroke-linejoin="round" stroke-miterlimit="10"/>
</svg>
