<svg xmlns="http://www.w3.org/2000/svg" viewBox="0 0 15 18" focusable="false" fill="currentColor">
  <path d="M13.699 4.115h-2.027C11.408 1.8 9.495 0 7.182 0c-2.314 0-4.226 1.8-4.49 4.115H.664A.676.676 0 000 4.8v12.07c0 .379.298.686.665.686h13.034a.676.676 0 00.665-.686V4.8a.676.676 0 00-.665-.685zM7.182 1.372c1.579 0 2.893 1.188 3.147 2.743H4.034C4.29 2.56 5.603 1.372 7.182 1.372zm5.852 14.812H1.33V5.486h1.33v2.057c0 .38.298.686.665.686a.676.676 0 00.665-.686V5.486h6.384v2.057c0 .38.297.686.665.686a.676.676 0 00.665-.686V5.486h1.33v10.698z"/>
</svg>
