<svg xmlns="http://www.w3.org/2000/svg" viewBox="0 0 24 24" stroke-width="2" stroke="currentColor" fill="none" stroke-linecap="round" stroke-linejoin="round" focusable="false">
  <path d="M0 0h24v24H0z" stroke="none"/>
  <path d="M14 14h-4v-4m0 0L6.5 6.5m3.457-.55A3.503 3.503 0 007.04 3.04m-3.02.989A3.5 3.5 0 006 9.965M14 10l3.5-3.5m.5 3.465A3.5 3.5 0 1014.034 6M14 14l3.5 3.5m-3.465.5a3.5 3.5 0 005.936 1.98m.987-3.026a3.503 3.503 0 00-2.918-2.913M10 14l-3.5 3.5M6 14.035A3.5 3.5 0 109.966 18M3 3l18 18"/>
</svg>
