<svg xmlns="http://www.w3.org/2000/svg" viewBox="0 0 48 48">
  <ellipse class="st5" cx="13.2" cy="45" rx="9" ry="1.5" fill="#45413C" opacity=".15"/>
  <ellipse class="st5" cx="34.2" cy="45" rx="9" ry="1.5" fill="#45413C" opacity=".15"/>
  <path class="st61" d="M12.2 30.6c.1 3.9-1.5 10.1-1.5 10.1-.1.3-.4.5-.7.5-2.6-.4-4.7-.2-5.3.5-.1.1-.1.3.1.4.5.4 2.3 1.7 6 2.5s5.9.4 6.5.2c.2 0 .3-.2.2-.4-.2-.8-2.1-1.9-4.6-2.6-.3-.1-.5-.4-.4-.7 0 0 1-6.3 2.8-9.8l-3.1-.7z" fill="#00B8F0" stroke="#45413C" stroke-linecap="round" stroke-linejoin="round" stroke-miterlimit="10"/>
  <path class="st35" d="M22.3 25.9c-.8 3.9-4.9 7.1-8.8 6.2-3.9-.8-6.3-5.3-5.4-9.3L14 1.7l11.8 2.5-3.5 21.7z" fill="#00B8F0"/>
  <path class="st36" d="M24 15.1l1.7-10.8-11.8-2.5-5.9 21c-.2.9-.2 1.9-.1 2.8 6.2-2.2 11.9-5.8 16.1-10.5z" fill="#4ACFFF"/>
  <path class="st10" d="M22.3 25.9c-.8 3.9-4.9 7.1-8.8 6.2-3.9-.8-6.3-5.3-5.4-9.3L14 1.7l11.8 2.5-3.5 21.7z" fill="none" stroke="#45413C" stroke-linecap="round" stroke-linejoin="round" stroke-miterlimit="10"/>
  <ellipse transform="rotate(-77.801 19.768 3.026)" class="st61" cx="19.8" cy="3" rx="1.3" ry="6" fill="#00B8F0" stroke="#45413C" stroke-linecap="round" stroke-linejoin="round" stroke-miterlimit="10"/>
  <path class="st11" d="M11.5 18.7s1-1.4 2.8-1c2.2.5 3.1 2.3 3.1 2.3l-5.9-1.3z" fill="#FFE500"/>
  <path class="st11" d="M20.9 25c-.7 3.1-4 6.3-7 5.6-3.1-.7-4.8-4.9-4.1-8l1.4-4.9s.4 1.1 2.6 1.5c2.2.5 3.2-1.3 5.4-.8s2.6 1.5 2.6 1.5l-.9 5.1z" fill="#FFE500"/>
  <path class="st45" d="M20.2 18.8c-.3-.1-.7-.3-1.1-.4-2.2-.5-3.2 1.3-5.4.8s-2.6-1.5-2.6-1.5l-1.4 4.9c-.2.8-.2 1.6-.1 2.5 3.9-1.6 7.5-3.7 10.6-6.3z" fill="#FFF48C"/>
  <circle transform="rotate(-77.801 16.598 7.202)" class="st16" cx="16.6" cy="7.2" fill="#E5F8FF" r="1.3"/>
  <circle transform="rotate(-77.807 14.338 8.658)" class="st16" cx="14.3" cy="8.7" fill="#E5F8FF" r=".6"/>
  <path class="st61" d="M33 31.2c1.8 3.5 2.9 9.8 2.9 9.8.1.3-.1.6-.4.7-2.5.8-4.3 1.8-4.6 2.6 0 .2.1.3.2.4.7.2 2.8.5 6.5-.3s5.5-2.1 6-2.5c.1-.1.2-.3.1-.4-.6-.7-2.7-.8-5.3-.4-.3.1-.6-.2-.7-.5 0 0-1.7-6.2-1.6-10.1l-3.1.7z" fill="#00B8F0" stroke="#45413C" stroke-linecap="round" stroke-linejoin="round" stroke-miterlimit="10"/>
  <path class="st35" d="M40.2 22.7c.9 3.9-1.4 8.4-5.4 9.3-3.9.9-8-2.2-8.9-6.1L22.4 4.3l11.7-2.7 6.1 21.1z" fill="#00B8F0"/>
  <path class="st36" d="M37.2 12.2l-3-10.5-11.8 2.6L26 25.9c.2.9.6 1.8 1.1 2.6 4.6-4.6 8.3-10.3 10.1-16.3z" fill="#4ACFFF"/>
  <path class="st10" d="M40.2 22.7c.9 3.9-1.4 8.4-5.4 9.3-3.9.9-8-2.2-8.9-6.1L22.4 4.3l11.7-2.7 6.1 21.1z" fill="none" stroke="#45413C" stroke-linecap="round" stroke-linejoin="round" stroke-miterlimit="10"/>
  <ellipse transform="rotate(-12.767 28.287 3.012)" class="st61" cx="28.3" cy="3" rx="6" ry="1.3" fill="#00B8F0" stroke="#45413C" stroke-linecap="round" stroke-linejoin="round" stroke-miterlimit="10"/>
  <path class="st11" d="M27.4 20.7s.3-1.7 2.1-2.1c2.2-.5 3.7.8 3.7.8l-5.8 1.3z" fill="#FFE500"/>
  <path class="st11" d="M38.5 22.4c.7 3.1-.9 7.4-4 8.1-3.1.7-6.4-2.5-7.1-5.5l-.8-5s.8.8 3 .3 2.4-2.5 4.5-3c2.2-.5 3 .3 3 .3l1.4 4.8z" fill="#FFE500"/>
  <path class="st45" d="M35.3 17.1c-.3 0-.7.1-1.2.2-2.2.5-2.4 2.5-4.5 3-2.2.5-3-.3-3-.3l.8 5c.2.8.5 1.5 1 2.3 2.8-3.1 5.2-6.5 6.9-10.2z" fill="#FFF48C"/>
  <circle transform="rotate(-12.767 27.177 8.136)" class="st16" cx="27.2" cy="8.1" fill="#E5F8FF" r="1.3"/>
  <circle transform="rotate(-12.767 25.74 10.409)" class="st16" cx="25.7" cy="10.4" fill="#E5F8FF" r=".6"/>
</svg>
