<svg viewBox="0 0 24 24" xmlns="http://www.w3.org/2000/svg" focusable="false">
  <path d="M16.231 8.714c2.358 0 4.269 1.869 4.269 4.174v4.937c0 2.306-1.911 4.175-4.269 4.175H7.77c-2.36 0-4.27-1.87-4.27-4.175v-4.937c0-2.305 1.911-4.174 4.269-4.174zm-4.236 4.67a.875.875 0 00-.884.865v2.206c0 .487.396.874.884.874a.88.88 0 00.894-.874v-2.206a.877.877 0 00-.894-.865z"/>
  <path d="M17.523 7.396v1.47a4.172 4.172 0 00-1.118-.148h-.66V7.396c0-2.017-1.677-3.657-3.74-3.657s-3.74 1.63-3.75 3.637v1.342h-.65c-.396 0-.772.05-1.128.159V7.396C6.487 4.415 8.957 2 11.985 2c3.069 0 5.538 2.415 5.538 5.396" opacity=".4"/>
</svg>
