<svg viewBox="0 0 24 24" xmlns="http://www.w3.org/2000/svg" focusable="false">
  <g stroke="#000" fill="none" fill-rule="evenodd" stroke-linecap="round" stroke-linejoin="round">
    <path d="M4.795 7.056a2.262 2.262 0 012.26-2.262h1.03c.597 0 1.169-.237 1.593-.657l.719-.72a2.262 2.262 0 013.199-.009v.001l.01.008.72.72a2.26 2.26 0 001.593.657h1.028a2.262 2.262 0 012.262 2.262v1.027c0 .597.236 1.17.657 1.594l.72.72c.886.881.89 2.313.01 3.199l-.001.001-.01.009-.72.72a2.256 2.256 0 00-.656 1.592v1.029a2.26 2.26 0 01-2.261 2.261h-1.031a2.26 2.26 0 00-1.593.658l-.72.719a2.261 2.261 0 01-3.2.009l-.01-.009-.718-.719a2.263 2.263 0 00-1.593-.658H7.056a2.26 2.26 0 01-2.261-2.261v-1.031c0-.597-.237-1.169-.658-1.592l-.72-.72a2.26 2.26 0 01-.008-3.2l.009-.009.719-.72c.42-.424.658-.996.658-1.594V7.056m4.637 7.516l5.14-5.14" stroke-width="1.5"/>
    <path stroke-width="2" d="M14.495 14.5h.01m-5.01-5h.01"/>
  </g>
</svg>
