<svg xmlns="http://www.w3.org/2000/svg" viewBox="0 0 48 48">
  <style>
    .st1{fill:#ffc258}.st2{fill:#4f4b45}.st3{fill:#fabfa5}.st11{fill:#ffe500}.st16{fill:#e5f8ff}.st45{fill:#fff48c}.st61{fill:#00b8f0;stroke:#45413c;stroke-linecap:round;stroke-linejoin:round;stroke-miterlimit:10}
  </style>
  <symbol id="New_Symbol_14" viewBox="-6.5 -6.5 13 13">
    <path d="M0-6c2.2 0 4.1 1.5 4.7 3.5C6.3-2.5 6.4 0 5 0v1c0 2.8-2.2 5-5 5s-5-2.2-5-5V0c-1.4 0-1.3-2.5.2-2.5C-4.1-4.5-2.2-6 0-6z" fill="#ffd4c3" stroke="#504b46" stroke-linecap="round" stroke-linejoin="round" stroke-miterlimit="10"/>
    <circle class="st1" cx="-1.6" cy="-.1" r=".1" fill="#FFC258"/>
    <path class="st2" d="M-1.6.5c-.3 0-.6-.3-.6-.6s.2-.7.6-.7c.3 0 .6.3.6.7s-.3.6-.6.6z" fill="#4F4B45"/>
    <circle class="st1" cx="1.6" cy="-.1" r=".1" fill="#FFC258"/>
    <path class="st2" d="M1.6.5C1.3.5 1 .2 1-.1s.3-.6.6-.6.6.3.6.6-.2.6-.6.6z" fill="#4F4B45"/>
    <circle class="st3" cx="-3" cy="-1.5" r=".5" fill="#FABFA5"/>
    <circle class="st3" cx="3" cy="-1.5" r=".5" fill="#FABFA5"/>
    <path d="M-1.2-3c.8-.5 1.7-.5 2.5 0" fill="none" stroke="#504b46" stroke-linecap="round" stroke-linejoin="round" stroke-miterlimit="10"/>
  </symbol>
  <g id="Icons">
    <g id="XMLID_1893_">
      <ellipse id="XMLID_1153_" cx="24" cy="44.5" rx="9" ry="1.5" fill="#45413c" opacity=".15"/>
      <g id="XMLID_1151_">
        <path id="XMLID_1095_" class="st61" d="M22.4 31.2c.9 3.7.6 10 .6 10 0 .3-.3.6-.6.6-2.6.2-4.5.8-4.9 1.5-.1.1 0 .3.1.4.6.3 2.5 1.1 6.3 1.1s5.7-.8 6.3-1.1c.1-.1.2-.3.1-.4-.4-.8-2.4-1.4-4.9-1.5-.3 0-.6-.3-.6-.6 0 0-.3-6.3.6-10h-3z" fill="#00B8F0" stroke="#45413C" stroke-linecap="round" stroke-linejoin="round" stroke-miterlimit="10"/>
        <g id="XMLID_1482_">
          <path id="XMLID_1094_" d="M31.1 24.7c0 3.9-3.2 7.8-7.1 7.8s-7.1-3.8-7.1-7.8l1.2-21.4h11.8l1.2 21.4z" fill="#00b8f0"/>
          <path id="XMLID_1093_" d="M30.5 14l-.6-10.8H18.1l-1.2 21.4c0 .9.2 1.9.5 2.7 5.4-3.3 10.1-8 13.1-13.3z" fill="#4acfff"/>
          <path id="XMLID_1092_" d="M31.1 24.7c0 3.9-3.2 7.8-7.1 7.8s-7.1-3.8-7.1-7.8l1.2-21.4h11.8l1.2 21.4z" fill="none" stroke="#45413c" stroke-linecap="round" stroke-linejoin="round" stroke-miterlimit="10"/>
          <ellipse id="XMLID_1091_" class="st61" cx="24" cy="3.2" rx="5.9" ry="1.2" fill="#00B8F0" stroke="#45413C" stroke-linecap="round" stroke-linejoin="round" stroke-miterlimit="10"/>
        </g>
        <g id="XMLID_1155_">
          <path id="XMLID_1090_" class="st11" d="M19.3 20s.6-1.6 2.5-1.6c2.2 0 3.4 1.6 3.4 1.6h-5.9z" fill="#FFE500"/>
          <path id="XMLID_1089_" class="st11" d="M29.6 24c0 3.1-2.5 6.8-5.6 6.8s-5.6-3.7-5.6-6.8l.3-5s.6.9 2.8.9 2.8-1.9 5-1.9 2.8.9 2.8.9l.3 5.1z" fill="#FFE500"/>
          <path id="XMLID_1087_" class="st45" d="M27.7 18.2c-.3-.1-.7-.1-1.2-.1-2.2 0-2.8 1.9-5 1.9s-2.8-.9-2.8-.9l-.3 5c0 .8.2 1.6.4 2.4 3.4-2.4 6.4-5.1 8.9-8.3z" fill="#FFF48C"/>
          <circle id="XMLID_1086_" class="st11" cx="27.1" cy="15.3" r=".6" fill="#FFE500"/>
          <circle id="XMLID_1052_" class="st45" cx="27.7" cy="22.5" r=".6" fill="#FFF48C"/>
          <circle id="XMLID_1051_" class="st45" cx="22.4" cy="27.5" r=".6" fill="#FFF48C"/>
          <circle id="XMLID_1050_" class="st45" cx="24.3" cy="24" r=".6" fill="#FFF48C"/>
          <circle id="XMLID_1049_" class="st45" cx="26.5" cy="27.5" r=".6" fill="#FFF48C"/>
          <circle id="XMLID_1048_" class="st11" cx="20.9" cy="16.6" r=".6" fill="#FFE500"/>
          <circle id="XMLID_1047_" cx="20.9" cy="22.2" r=".6" fill="#fffacf"/>
          <circle id="XMLID_1046_" class="st11" cx="24" cy="13.5" r=".6" fill="#FFE500"/>
        </g>
        <g id="XMLID_1152_">
          <circle id="XMLID_1044_" class="st16" cx="21.8" cy="7.9" r="1.2" fill="#E5F8FF"/>
          <circle id="XMLID_1043_" class="st16" cx="20" cy="9.8" r=".6" fill="#E5F8FF"/>
        </g>
      </g>
    </g>
  </g>
</svg>
