<svg viewBox="0 0 24 24" xmlns="http://www.w3.org/2000/svg" focusable="false">
  <path d="M16.34 2H7.67C4.28 2 2 4.38 2 7.92v8.17C2 19.62 4.28 22 7.67 22h8.67c3.39 0 5.66-2.38 5.66-5.91V7.92C22 4.38 19.73 2 16.34 2" opacity=".4"/>
  <path d="M7.521 10.803c.661 0 1.198.537 1.198 1.196a1.2 1.2 0 01-1.198 1.198A1.2 1.2 0 016.323 12c0-.66.537-1.197 1.198-1.197zm4.48 0c.66 0 1.197.537 1.197 1.196A1.2 1.2 0 0112 13.197 1.2 1.2 0 0110.802 12c0-.66.537-1.197 1.198-1.197zm4.479 0c.66 0 1.198.537 1.198 1.196a1.2 1.2 0 01-1.198 1.198A1.2 1.2 0 0115.282 12c0-.66.537-1.197 1.198-1.197z"/>
</svg>
