<svg viewBox="0 0 24 24" xmlns="http://www.w3.org/2000/svg" focusable="false">
  <path d="M13.252 2c.248 0 .456.21.456.46v3.22c0 1.83 1.485 3.33 3.307 3.34.742 0 1.336.01 1.792.01.307 0 .812-.01 1.238-.01.247 0 .455.2.455.45v8.04c0 2.48-2 4.49-4.455 4.49H8.173C5.59 22 3.5 19.89 3.5 17.29V6.51C3.5 4.03 5.49 2 7.965 2zM11.64 8.74a.768.768 0 00-.525.22l-2.832 2.88a.748.748 0 000 1.05.73.73 0 001.04 0l1.574-1.6v4.83a.737.737 0 101.475 0v-4.83l1.575 1.6a.73.73 0 001.04 0 .739.739 0 00.009-1.05l-2.842-2.88a.768.768 0 00-.514-.22zm3.506-5.834c0-.431.517-.645.813-.334l3.987 4.187a.477.477 0 01-.34.807c-.814.003-1.773 0-2.463-.007-1.095 0-1.997-.911-1.997-2.017z"/>
</svg>
