<svg viewBox="0 0 24 24" xmlns="http://www.w3.org/2000/svg" focusable="false">
  <path d="M14.348 3c.977.007 1.763.507 2.221 1.409.209.411.557 1.147.841 1.75.071.149.146.196.228.196A4.365 4.365 0 0122 10.713v5.93A4.365 4.365 0 0117.638 21H10.58a.75.75 0 110-1.498h7.058a2.864 2.864 0 002.862-2.86v-5.93a2.864 2.864 0 00-2.862-2.858 1.72 1.72 0 01-1.548-.98 91.935 91.935 0 00-.859-1.788c-.205-.403-.479-.585-.889-.588H9.653c-.404.003-.679.185-.884.589-.124.244-.298.606-.478.985l-.216.456-.105.222-.059.125a1.72 1.72 0 01-1.548.979A2.864 2.864 0 003.5 10.713v5.93a2.864 2.864 0 002.863 2.859h.745a.75.75 0 110 1.498h-.745A4.365 4.365 0 012 16.643v-5.93a4.365 4.365 0 014.363-4.358.211.211 0 00.192-.12l.059-.124a76.13 76.13 0 01.817-1.701C7.889 3.507 8.676 3.007 9.646 3zm-2.347 6.396a3.9 3.9 0 012.774 1.152 3.9 3.9 0 011.154 2.78 3.854 3.854 0 01-1.14 2.761A3.907 3.907 0 0112 17.254a3.904 3.904 0 01-2.781-1.156 3.903 3.903 0 01-1.148-2.779c0-.403.063-.8.185-1.186a.75.75 0 011.43.455 2.412 2.412 0 00.596 2.452 2.42 2.42 0 003.442-.007 2.376 2.376 0 00.704-1.7 2.411 2.411 0 00-.715-1.725A2.41 2.41 0 0012 10.895c-.18 0-.357.019-.53.057a.748.748 0 11-.327-1.46c.279-.065.567-.096.855-.096zm5.17.137a.8.8 0 01.57 0c.09.04.18.1.24.161.07.07.13.16.17.25a.718.718 0 01-.17.808c-.07.07-.15.13-.24.17a.71.71 0 01-.29.05.747.747 0 01-.75-.75c0-.09.02-.19.06-.278.04-.09.1-.18.16-.25.07-.06.16-.12.25-.16z"/>
</svg>
