<svg viewBox="0 0 24 24" xmlns="http://www.w3.org/2000/svg" focusable="false">
  <g fill="none" fill-rule="evenodd">
    <path d="M0 0h24v24H0z"/>
    <path d="M9 16a3 3 0 00-3 3v2a1 1 0 01-2 0v-2a5 5 0 015-5h.593A3.705 3.705 0 009 16zm8.027-4c.124 0 .236.09.247.21l.195 1.32c.318.12.605.29.872.49l1.272-.5c.124-.04.257 0 .319.11l1.026 1.73c.061.11.03.24-.062.32l-1.088.83c.031.16.041.32.041.49 0 .17-.02.33-.04.49l1.097.83c.093.08.124.21.062.32l-1.026 1.73c-.072.11-.205.15-.318.11l-1.283-.5c-.257.2-.554.36-.862.49l-.195 1.32a.262.262 0 01-.257.21h-2.052a.254.254 0 01-.256-.21l-.195-1.32a3.534 3.534 0 01-.873-.49l-1.272.5c-.123.04-.257 0-.318-.11l-1.026-1.73a.255.255 0 01.061-.32l1.088-.83a3.81 3.81 0 010-.98l-1.088-.83a.243.243 0 01-.061-.32l1.026-1.73c.072-.11.205-.15.318-.11l1.272.5c.267-.2.565-.36.873-.49l.195-1.32a.26.26 0 01.256-.21zM16 15c-1.107 0-2 .893-2 2s.893 2 2 2 2-.893 2-2-.893-2-2-2zM12 2a5 5 0 110 10 5 5 0 010-10zm0 2a3 3 0 100 6 3 3 0 000-6z" fill="currentColor"/>
  </g>
</svg>
