<svg viewBox="0 0 24 24" xmlns="http://www.w3.org/2000/svg" focusable="false">
  <path d="M9.35 14.858c3.985 0 7.349.633 7.349 3.082 0 2.448-3.386 3.06-7.35 3.06l-.27-.001C5.213 20.97 2 20.311 2 17.917c0-2.447 3.386-3.06 7.35-3.06zm6.22-1.475c1.515-.029 3.146.176 3.747.32 1.276.244 2.115.741 2.462 1.466a2.107 2.107 0 010 1.878c-.531 1.124-2.245 1.485-2.912 1.578a.207.207 0 01-.234-.232c.34-3.112-2.367-4.588-3.067-4.927-.03-.017-.036-.04-.033-.055.001-.01.014-.025.037-.028zM9.35 3c2.699 0 4.862 2.119 4.862 4.762 0 2.644-2.163 4.763-4.863 4.763-2.698 0-4.863-2.119-4.863-4.763C4.486 5.12 6.651 3 9.35 3zm6.484.795c2.608 0 4.654 2.402 3.957 5.076-.47 1.803-2.174 3-4.073 2.95a3.968 3.968 0 01-.56-.051c-.13-.023-.197-.168-.122-.275a6.368 6.368 0 001.137-3.646c0-1.407-.45-2.717-1.233-3.793-.026-.033-.044-.084-.019-.124.02-.03.059-.047.095-.055.264-.053.535-.082.818-.082z"/>
</svg>
