<svg xmlns="http://www.w3.org/2000/svg" viewBox="0 0 32 32" focusable="false">
  <g transform="translate(0 -1021.362)">
    <rect width="23" height="17" x="4.5" y="1030.862" fill="#92d9f7" rx="1.438" ry="1.5"/>
    <path fill="#c4def9" d="M15 1036.362v2h-2v2h2v2h2v-2h2v-2h-2v-2h-2z"/>
    <path fill="#62355c" d="M14 1027.362c-1.1 0-2 .901-2 2v1H5.937c-1.076 0-1.937.912-1.937 2v14c0 1.089.861 2 1.938 2h20.125c1.076 0 1.937-.911 1.937-2v-14c0-1.088-.861-2-1.938-2H20v-1c0-1.099-.9-2-2-2h-4zm0 1h4c.563 0 1 .438 1 1v1h-6v-1c0-.562.437-1 1-1zm-8.063 3h6.487a.5.5 0 00.146 0h6.854a.5.5 0 00.146 0h6.493c.516 0 .937.427.937 1v14c0 .574-.421 1-.938 1H5.938c-.516 0-.937-.426-.937-1v-14c0-.573.421-1 .938-1zm1.518 2a.5.5 0 00.05 1h16.99a.5.5 0 100-1H7.504a.5.5 0 00-.05 0zm7.545 2.5a.5.5 0 00-.5.5v1.5H13a.5.5 0 00-.5.5v2a.5.5 0 00.5.5h1.5v1.5a.5.5 0 00.5.5h2a.5.5 0 00.5-.5v-1.5H19a.5.5 0 00.5-.5v-2a.5.5 0 00-.5-.5h-1.5v-1.5a.5.5 0 00-.5-.5h-2zm.5 1h1v1.5a.5.5 0 00.5.5h1.5v1H17a.5.5 0 00-.5.5v1.5h-1v-1.5a.5.5 0 00-.5-.5h-1.5v-1H15a.5.5 0 00.5-.5v-1.5zm-8.045 7.5a.5.5 0 00.05 1h16.99a.5.5 0 100-1H7.504a.5.5 0 00-.05 0z" color="#000" />
  </g>
</svg>
