<svg viewBox="0 0 24 24" xmlns="http://www.w3.org/2000/svg" focusable="false">
  <path d="M15.853 2C19.067 2 20.991 3.951 21 7.21v9.58c0 3.26-1.916 5.21-5.138 5.21h-2.856a.73.73 0 01-.644-.728.73.73 0 01.644-.729h2.847c2.456 0 3.693-1.263 3.693-3.753V7.21c0-2.49-1.237-3.753-3.693-3.753H8.138c-2.456 0-3.701 1.263-3.701 3.753v9.58c0 2.49 1.245 3.753 3.7 3.753a.73.73 0 01.644.729.73.73 0 01-.643.728C4.925 22 3 20.049 3 16.79V7.21C3 3.943 4.925 2 8.138 2zm-.26 13.51a.72.72 0 01.713.724c0 .4-.32.724-.714.724h-7.21a.72.72 0 01-.714-.724c0-.4.32-.724.714-.724zm0-4.238a.72.72 0 01.69.339.742.742 0 010 .778.72.72 0 01-.69.34H8.381A.73.73 0 017.738 12a.73.73 0 01.644-.728zm-4.46-4.23a.73.73 0 01.644.728.73.73 0 01-.643.729H8.39a.73.73 0 01-.643-.729.73.73 0 01.643-.728z"/>
</svg>
