<svg xmlns="http://www.w3.org/2000/svg" viewBox="0 0 24 24" fill="currentColor" focusable="false">
  <g transform="translate(2.5 2)">
    <path d="M17.978 11.716a1.954 1.954 0 01-.739-2.667c.176-.303.43-.554.74-.729a1.99 1.99 0 00.951-1.204 1.942 1.942 0 00-.203-1.507l-.667-1.165a2.029 2.029 0 00-1.236-.927 2.083 2.083 0 00-1.547.199 2.092 2.092 0 01-1.551.198 2.038 2.038 0 01-1.242-.927 1.995 1.995 0 01-.273-.996 1.956 1.956 0 00-.593-1.407A2.063 2.063 0 0010.175 0H8.834c-1.126 0-2.04.886-2.045 1.982a1.972 1.972 0 01-1.015 1.726 2.082 2.082 0 01-2.042-.001 2.082 2.082 0 00-1.57-.212 2.028 2.028 0 00-1.25.95l-.639 1.12a1.963 1.963 0 00.749 2.71 1.963 1.963 0 01.739 2.72c-.173.303-.43.552-.74.72A1.99 1.99 0 00.07 12.92c-.14.508-.067 1.05.203 1.507l.64 1.137c.567.95 1.816 1.272 2.792.72.976-.538 2.216-.214 2.783.73.18.301.275.645.274.995 0 .531.218 1.04.605 1.414.388.374.912.582 1.458.577h1.341c1.13 0 2.045-.892 2.045-1.991a1.955 1.955 0 01.586-1.42c.382-.377.904-.59 1.449-.59a2.04 2.04 0 011.022.268c.976.543 2.22.218 2.783-.73l.676-1.137a1.954 1.954 0 00-.749-2.684z" opacity=".4"/>
    <circle cx="9.5" cy="10" r="2.5"/>
  </g>
</svg>
