<svg viewBox="0 0 24 24" xmlns="http://www.w3.org/2000/svg" focusable="false">
  <path d="M16.36 2C19.732 2 22 4.368 22 7.893v2.37a.699.699 0 01-1.396 0v-2.37c0-2.733-1.666-4.497-4.245-4.497H7.641c-2.579 0-4.246 1.764-4.246 4.497v8.214c0 2.733 1.667 4.497 4.246 4.497h8.717c2.58 0 4.246-1.764 4.246-4.497v-1.085c-.152-.126-.307-.261-.464-.397-1.1-.951-2.235-1.933-3.476-1.646-.867.201-1.35.916-1.91 1.743-.484.714-.984 1.452-1.79 1.952-1.206.746-2.478.19-3.408-.216l-.154-.067c-1.158-.506-1.936-.404-2.683.349a.696.696 0 01-.986.004.699.699 0 01-.004-.987c1.161-1.17 2.544-1.381 4.23-.647l.157.07c.924.404 1.57.645 2.113.307.553-.341.95-.927 1.37-1.548.632-.934 1.35-1.995 2.75-2.32 1.931-.45 3.468.882 4.704 1.95.234.203.462.401.684.578a.697.697 0 01.262.545L22 16.107C22 19.632 19.732 22 16.358 22H7.641c-3.374 0-5.64-2.368-5.64-5.893V7.893C2 4.368 4.266 2 7.64 2h8.718zM8.853 6.222a2.56 2.56 0 012.558 2.558 2.561 2.561 0 01-2.558 2.56 2.561 2.561 0 01-2.558-2.56 2.56 2.56 0 012.558-2.558zm0 1.396c-.641 0-1.163.521-1.163 1.162a1.164 1.164 0 002.326 0c0-.64-.521-1.162-1.163-1.162z"/>
</svg>
