<svg viewBox="0 0 24 24" xmlns="http://www.w3.org/2000/svg" focusable="false">
  <path d="M19.385 8.72a.751.751 0 01.688.808c-.006.068-.548 6.779-.86 9.594-.194 1.747-1.348 2.81-3.09 2.842a192.273 192.273 0 01-7.859-.006c-1.672-.033-2.83-1.117-3.018-2.829-.315-2.84-.854-9.534-.86-9.601a.75.75 0 01.688-.808c.407-.011.775.275.808.687.003.043.223 2.777.463 5.482l.048.54c.121 1.344.244 2.636.344 3.535.107.973.632 1.475 1.558 1.494 2.5.053 5.05.056 7.8.006.985-.019 1.517-.511 1.627-1.507.31-2.794.85-9.482.856-9.55.033-.412.398-.7.807-.687zM14.345 2c.918 0 1.725.62 1.962 1.506l.254 1.261a.9.9 0 00.865.722h3.282a.75.75 0 010 1.5H3.75a.75.75 0 010-1.5h3.281l.101-.007a.902.902 0 00.765-.715l.243-1.216c.247-.932 1.054-1.55 1.972-1.55h4.233zm0 1.5h-4.233a.53.53 0 00-.512.392l-.233 1.17a2.38 2.38 0 01-.128.428h5.98a2.386 2.386 0 01-.129-.428l-.243-1.216c-.05-.185-.262-.346-.502-.346z" fill-rule="evenodd"/>
</svg>
