<svg xmlns="http://www.w3.org/2000/svg" viewBox="0 0 48 48" focusable="false">
  <ellipse cx="24" cy="44.9" rx="14" ry="1.5" fill="#45413c" opacity=".15"/>
  <path d="M34 36s-4.4 2.2-10 2.2S14 36 14 36s4.4-.7 10-.7 10 .7 10 .7z" fill="#915e3a" stroke="#45413c" stroke-linecap="round" stroke-linejoin="round" stroke-miterlimit="10"/>
  <path d="M36.4 40.8c.3.7.1 1.5-.6 1.9-1.8 1.1-5.6 2.9-11.8 2.9s-10.1-1.8-11.8-2.9c-.7-.4-.9-1.2-.6-1.9L14 36s4.4 2.2 10 2.2S34 36 34 36l2.4 4.8z" fill="#dea47a"/>
  <path d="M24 40.9c4.7 0 8.9-1.2 11.4-2.1L34 36s-4.4 2.2-10 2.2S14 36 14 36l-1.4 2.8c2.5 1 6.7 2.1 11.4 2.1z" fill="#bf8256"/>
  <path d="M36.4 40.8c.3.7.1 1.5-.6 1.9-1.8 1.1-5.6 2.9-11.8 2.9s-10.1-1.8-11.8-2.9c-.7-.4-.9-1.2-.6-1.9L14 36s4.4 2.2 10 2.2S34 36 34 36l2.4 4.8z" fill="none" stroke="#45413C" stroke-linecap="round" stroke-linejoin="round" stroke-miterlimit="10"/>
  <circle cx="24" cy="20.9" r="15.1" fill="#bf8df2"/>
  <path d="M24 5.7c-8.4 0-15.1 6.8-15.1 15.1C8.9 29.2 15.6 36 24 36s15.1-6.8 15.1-15.1c0-8.4-6.7-15.2-15.1-15.2zm0 24.8c-6.7 0-12.2-5.5-12.2-12.2 0-6.7 5.5-12.2 12.2-12.2s12.2 5.5 12.2 12.2c0 6.7-5.5 12.2-12.2 12.2z" fill="#9f5ae5"/>
  <circle cx="24" cy="20.9" r="15.1" fill="none" stroke="#45413C" stroke-linecap="round" stroke-linejoin="round" stroke-miterlimit="10"/>
  <circle cx="29.9" cy="15.7" r="3.7" fill="#DABFF5"/>
  <circle cx="22.9" cy="17.5" r="1.1" fill="#DABFF5"/>
  <circle cx="23.6" cy="11.6" r="1.8" fill="#DABFF5"/>
  <path d="M40.6 28.6s-.4 3-3 4.4m-.7 2.3s2.6-.4 3.7-2.2m-34.7-17s.7-3.7 3-5.2m-4.5 2.2s-.7 3 0 5.2" fill="none" stroke="#45413C" stroke-linecap="round" stroke-linejoin="round" stroke-miterlimit="10"/>
  <path d="M42 8.8c.2-.7.7-1.2 1.3-1.3l2.7-.7c.1 0 .2-.1.2-.2s-.1-.2-.2-.2l-2.7-.6c-.7-.2-1.2-.7-1.3-1.3l-.6-2.7c0-.1-.1-.2-.2-.2s-.2.1-.2.2l-.6 2.7c-.2.7-.7 1.2-1.3 1.3l-2.7.6c-.1 0-.2.1-.2.2s.1.2.2.2l2.6.7c.7.2 1.2.7 1.3 1.3l.6 2.7c0 .1.1.2.2.2s.2-.1.2-.2l.7-2.7zM5.8 32.7l2.1-.7c.1 0 .1-.1.1-.2s-.1-.2-.1-.2L6.2 31c-.2 0-.4-.2-.5-.5l-.6-1.7c0-.1-.1-.1-.2-.1s-.2.1-.2.1l-.6 1.7c0 .3-.2.5-.4.5l-1.7.6c-.1 0-.1.1-.1.2-.1.1 0 .2.1.2l1.7.6c.2.1.4.3.5.5l.6 1.7c0 .1.1.1.2.1s.2-.1.2-.1l.6-2.1z" fill="#FFF" stroke="#45413C" stroke-linecap="round" stroke-linejoin="round" stroke-miterlimit="10"/>
</svg>
