<svg viewBox="0 0 24 24" xmlns="http://www.w3.org/2000/svg" focusable="false">
  <path d="M14.533 9.467l-6.82 6.82c-.177-.103-.345-.168-.494-.177-1.297-.094-1.8.056-2.51-.55-.764-.654-.708-2.398-.708-3.677 0-1.278-.056-3.022.709-3.675.709-.607 1.212-.448 2.51-.55 1.296-.103 4.038-4.06 6.156-2.809.858.7 1.092 2.006 1.157 4.618zm0 4.45c-.037 2.874-.261 4.273-1.157 5-.98.58-2.09.047-3.134-.708M4.001 20l3.713-3.713 6.82-6.82L20 4" stroke="#000" stroke-width="1.5" fill="none" stroke-linecap="round" stroke-linejoin="round"/>
</svg>
