<svg xmlns="http://www.w3.org/2000/svg" viewBox="0 0 38 32" focusable="false">
  <path d="M34.705 3.148A10.408 10.408 0 0027.24.005a10.408 10.408 0 00-7.382 3.058l-1.019 1.019-1.019-1.019A10.403 10.403 0 0010.518.084C4.753.084.08 4.757.08 10.522c0 2.843 1.136 5.42 2.979 7.302l-.002-.002 13.047 13.047c.7.699 1.666 1.131 2.734 1.131s2.034-.432 2.734-1.131l12.965-12.963a10.506 10.506 0 003.101-7.465c0-2.833-1.118-5.405-2.937-7.299l.003.004zm-1.533 13.393L20.207 29.497c-.35.349-.833.565-1.367.565s-1.017-.216-1.367-.565L4.426 16.457A8.507 8.507 0 1116.457 4.426l1.019 1.019-1.562 1.562a.967.967 0 101.367 1.367l3.945-3.948a8.477 8.477 0 016.015-2.492 8.48 8.48 0 016.083 2.561l.002.002a8.567 8.567 0 012.387 5.945 8.57 8.57 0 01-2.539 6.1h-.001zm.559-4.91a8.227 8.227 0 00-5.92-7.385l-.058-.014a1.125 1.125 0 00-.611 2.165l.008.002c2.411.694 4.174 2.806 4.337 5.354l.001.018c.038.59.526 1.054 1.122 1.054h.071a1.125 1.125 0 001.049-1.196v.003z"/>
</svg>
