<svg xmlns="http://www.w3.org/2000/svg" viewBox="0 0 45.181 45.181" focusable="false" fill="currentColor">
  <path d="M38.565 6.617a22.59 22.59 0 100 31.947 22.59 22.59 0 000-31.947zm-.941 31.011A21.273 21.273 0 017.552 7.553a21.273 21.273 0 0130.077 30.075zm0 0"/>
  <path d="M35.581 14.01a.753.753 0 00-.926.531 3.726 3.726 0 01-6.455 0 .756.756 0 10-1.46.395 5.175 5.175 0 009.373 0 .753.753 0 00-.533-.926zm-17.74 0a.753.753 0 00-.926.531 3.725 3.725 0 01-6.455 0 .756.756 0 10-1.46.395 5.175 5.175 0 009.373 0 .753.753 0 00-.533-.926zm-.609 17.443s6.327-4.552 11.495-3.837"/>
</svg>
