<svg viewBox="0 0 24 24" xmlns="http://www.w3.org/2000/svg" focusable="false">
  <path d="M13.976 2a.88.88 0 01.126.01l.136.002c.204 0 .4.083.541.23l5.065 5.277a.75.75 0 01.21.519v9.166a4.617 4.617 0 01-4.45 4.66l-8.019.002h-.109a4.586 4.586 0 01-4.474-4.463V6.49c.057-2.481 2.106-4.48 4.57-4.48h6.277a.754.754 0 01.126-.01zm-.75 1.511H7.572A3.087 3.087 0 004.501 6.51v10.695a3.087 3.087 0 003.01 3.162h8.063a3.121 3.121 0 002.98-3.156V8.983l-2.01.001a3.332 3.332 0 01-3.319-3.325V3.511zm.563 11.097a.75.75 0 010 1.5h-5.4a.75.75 0 010-1.5h5.4zm-2.045-3.752a.75.75 0 010 1.5H8.388a.75.75 0 010-1.5h3.356zm2.981-6.504V5.66c0 1.004.818 1.822 1.82 1.825h1.186l-3.006-3.132z" fill-rule="evenodd"/>
</svg>
