<svg xmlns="http://www.w3.org/2000/svg" viewBox="0 0 32 32" focusable="false">
  <path fill="#37b678" d="M28.258 6.934h-1.915l-.408-.815a.638.638 0 01.172-.784L27.3 4.38l1.194.955a.638.638 0 01.172.784z"/>
  <path fill="#2c2b2d" d="M28.258 7.434h-1.915a.5.5 0 01-.447-.276l-.408-.815a1.145 1.145 0 01.307-1.399l1.193-.954a.502.502 0 01.625 0l1.194.954a1.146 1.146 0 01.306 1.399l-.408.815a.5.5 0 01-.447.276zm-1.606-1h1.297l.27-.539a.139.139 0 00-.037-.17l-.881-.704-.881.705a.137.137 0 00-.037.17z"/>
  <path fill="#2c2b2d" d="M28.896 7.434h-3.192a.5.5 0 010-1h3.192a.5.5 0 010 1zm0 2.554h-3.192a.5.5 0 010-1h3.192a.5.5 0 010 1zM27.301 4.88a.5.5 0 01-.5-.5v-.638a.5.5 0 111 0v.638a.5.5 0 01-.5.5z"/>
  <path fill="#8b8891" d="M26.343 9.488h1.915v13.77h-1.915z"/>
  <path fill="#2c2b2d" d="M28.258 23.758h-1.915a.5.5 0 01-.5-.5V9.488a.5.5 0 01.5-.5h1.915a.5.5 0 01.5.5v13.77a.5.5 0 01-.5.5zm-1.415-1h.915V9.988h-.915z"/>
  <path fill="#2c2b2d" d="M26.343 9.988a.5.5 0 01-.5-.5V6.934a.5.5 0 011 0v2.554a.5.5 0 01-.5.5zm1.915 0a.5.5 0 01-.5-.5V6.934a.5.5 0 011 0v2.554a.5.5 0 01-.5.5z"/>
  <path fill="#37b678" d="M11.657 6.934H9.742l-.408-.815a.638.638 0 01.172-.784L10.7 4.38l1.193.955a.638.638 0 01.172.784z"/>
  <path fill="#2c2b2d" d="M11.657 7.434H9.742a.5.5 0 01-.447-.276l-.408-.815a1.146 1.146 0 01.306-1.398l1.194-.955a.502.502 0 01.625 0l1.193.954a1.145 1.145 0 01.307 1.399l-.407.815a.5.5 0 01-.448.276zm-1.606-1h1.297l.27-.538a.137.137 0 00-.038-.17l-.88-.705-.882.705a.138.138 0 00-.037.17z"/>
  <path fill="#2c2b2d" d="M12.296 7.434H9.104a.5.5 0 010-1h3.192a.5.5 0 010 1zm0 2.554H9.104a.5.5 0 010-1h3.192a.5.5 0 010 1zM10.699 4.88a.5.5 0 01-.5-.5v-.638a.5.5 0 011 0v.638a.5.5 0 01-.5.5z"/>
  <path fill="#8b8891" d="M9.742 9.488h1.915v13.77H9.742z"/>
  <path fill="#2c2b2d" d="M11.657 23.758H9.742a.5.5 0 01-.5-.5V9.488a.5.5 0 01.5-.5h1.915a.5.5 0 01.5.5v13.77a.5.5 0 01-.5.5zm-1.415-1h.915V9.988h-.915z"/>
  <path fill="#2c2b2d" d="M9.742 9.988a.5.5 0 01-.5-.5V6.934a.5.5 0 011 0v2.554a.5.5 0 01-.5.5zm1.915 0a.5.5 0 01-.5-.5V6.934a.5.5 0 011 0v2.554a.5.5 0 01-.5.5z"/>
  <path fill="#3f6db4" d="M21.235 23.258h-4.47V17.92A3.081 3.081 0 0119 14.958a3.081 3.081 0 012.235 2.962z"/>
  <path d="M21.234 23.758h-4.468a.5.5 0 01-.5-.5V17.92a3.597 3.597 0 012.596-3.443.507.507 0 01.276 0 3.597 3.597 0 012.596 3.443v5.338a.5.5 0 01-.5.5zm-3.968-1h3.468V17.92A2.592 2.592 0 0019 15.482a2.592 2.592 0 00-1.734 2.438z"/>
  <path fill="#afaeb3" d="M16.765 12.681h4.47v10.577h-4.47z"/>
  <path fill="#2c2b2d" d="M21.234 23.758h-4.468a.5.5 0 01-.5-.5V12.681a.5.5 0 01.5-.5h4.468a.5.5 0 01.5.5v10.577a.5.5 0 01-.5.5zm-3.968-1h3.468v-9.577h-3.468z"/>
  <path fill="#afaeb3" d="M21.235 17.512h5.108v5.746h-5.108z"/>
  <path fill="#2c2b2d" d="M26.343 23.758h-5.109a.5.5 0 01-.5-.5v-5.746a.5.5 0 01.5-.5h5.109a.5.5 0 01.5.5v5.746a.5.5 0 01-.5.5zm-4.609-1h4.109v-4.746h-4.109z"/>
  <path fill="#afaeb3" d="M11.657 17.512h5.108v5.746h-5.108z"/>
  <path fill="#2c2b2d" d="M16.766 23.758h-5.109a.5.5 0 01-.5-.5v-5.746a.5.5 0 01.5-.5h5.109a.5.5 0 01.5.5v5.746a.5.5 0 01-.5.5zm-4.609-1h4.109v-4.746h-4.109z"/>
  <path fill="#37b678" d="M21.235 12.68h-4.47l-.378-1.512a1.277 1.277 0 01.72-1.477L19 8.85l1.893.841a1.277 1.277 0 01.72 1.477z"/>
  <path fill="#2c2b2d" d="M21.234 13.18h-4.468a.5.5 0 01-.486-.378l-.379-1.513a1.774 1.774 0 011.003-2.055l1.893-.841a.499.499 0 01.406 0l1.893.84a1.773 1.773 0 011.003 2.056l-.38 1.513a.5.5 0 01-.485.379zm-4.078-1h3.688l.284-1.134a.775.775 0 00-.439-.898L19 9.397l-1.69.751a.775.775 0 00-.438.898z"/>
  <path fill="#37b678" d="M26.343 17.512h-5.108a4.132 4.132 0 012.284-3.696l.27-.135.27.135a4.132 4.132 0 012.284 3.696z"/>
  <path fill="#2c2b2d" d="M26.343 18.012h-5.109a.5.5 0 01-.5-.5 4.608 4.608 0 012.562-4.144l.27-.135a.5.5 0 01.447 0l.27.135a4.61 4.61 0 012.56 4.144.5.5 0 01-.5.5zm-4.574-1h4.04a3.611 3.611 0 00-1.974-2.75l-.046-.022-.046.023a3.61 3.61 0 00-1.974 2.749z"/>
  <path fill="#37b678" d="M16.765 17.512h-5.108a4.132 4.132 0 012.285-3.696l.27-.135.269.135a4.132 4.132 0 012.284 3.696z"/>
  <path fill="#2c2b2d" d="M16.766 18.012h-5.109a.5.5 0 01-.5-.5 4.61 4.61 0 012.56-4.144l.27-.135a.5.5 0 01.448 0l.27.135a4.608 4.608 0 012.56 4.144.5.5 0 01-.5.5zm-4.575-1h4.04a3.61 3.61 0 00-1.974-2.75l-.046-.022-.046.023a3.611 3.611 0 00-1.974 2.749zM19 9.35a.5.5 0 01-.5-.5v-.64a.5.5 0 011 0v.639a.5.5 0 01-.5.5z"/>
  <path fill="#2c2b2d" d="M14.21 14.18a.5.5 0 01-.5-.5v-.638a.5.5 0 111 0v.639a.5.5 0 01-.5.5zm9.58 0a.5.5 0 01-.5-.5v-.638a.5.5 0 111 0v.639a.5.5 0 01-.5.5z"/>
  <path fill="#d9d8da" d="M24.636 23.258h-1.694v-2.594a1.532 1.532 0 01.847-1.37 1.532 1.532 0 01.847 1.37z"/>
  <path fill="#2c2b2d" d="M24.636 23.758H22.94a.5.5 0 01-.5-.5v-2.594a2.02 2.02 0 011.124-1.818.5.5 0 01.448 0 2.022 2.022 0 011.123 1.818v2.594a.5.5 0 01-.5.5zm-1.195-1h.695v-2.094a1.029 1.029 0 00-.347-.773 1.026 1.026 0 00-.348.773z"/>
  <path fill="#d9d8da" d="M15.058 23.258h-1.694v-2.594a1.532 1.532 0 01.847-1.37 1.532 1.532 0 01.847 1.37z"/>
  <path fill="#2c2b2d" d="M15.059 23.758h-1.695a.5.5 0 01-.5-.5v-2.594a2.022 2.022 0 011.123-1.818.5.5 0 01.448 0 2.02 2.02 0 011.124 1.818v2.594a.5.5 0 01-.5.5zm-1.195-1h.695v-2.094a1.026 1.026 0 00-.348-.773 1.029 1.029 0 00-.347.773z"/>
  <path fill="#e0e0e2" d="M2.696 6.783A15.386 15.386 0 016.125 2.45a.448.448 0 01.721.47 15.833 15.833 0 0023.185 18.166.448.448 0 01.63.585 15.42 15.42 0 01-4.465 5.251 15.835 15.835 0 01-23.5-20.138z"/>
  <path fill="#2c2b2d" d="M16.57 30.613A16.163 16.163 0 011.39 20.051a16.533 16.533 0 01.866-13.503 15.936 15.936 0 013.539-4.474.934.934 0 011.13-.088.947.947 0 01.402 1.075 15.333 15.333 0 0022.452 17.592.949.949 0 011.142.134.932.932 0 01.184 1.115 15.932 15.932 0 01-4.609 5.419 16.583 16.583 0 01-9.925 3.292zM3.138 7.018a15.529 15.529 0 00-.812 12.685 15.027 15.027 0 008.74 8.884 15.513 15.513 0 0014.83-2.066 14.93 14.93 0 004.234-4.916A16.333 16.333 0 016.318 2.947a14.913 14.913 0 00-3.18 4.071z"/>
</svg>
