<svg xmlns="http://www.w3.org/2000/svg" viewBox="0 0 32 32">
  <path d="M16 1.46C7.973 1.46 1.46 7.974 1.46 16S7.974 30.54 16 30.54 30.54 24.026 30.54 16 24.026 1.46 16 1.46zm3.027 22.536c-.75.293-1.343.52-1.793.672-.445.152-.96.23-1.55.23-.907 0-1.614-.218-2.118-.664-.5-.437-.75-1-.75-1.68 0-.265.02-.534.059-.808a9.23 9.23 0 01.18-.937l.937-3.309c.078-.316.153-.617.211-.898.055-.286.082-.543.082-.782 0-.418-.09-.715-.262-.879-.175-.168-.507-.25-1-.25-.238 0-.488.04-.746.114a10.73 10.73 0 00-.652.215l.25-1.02c.61-.25 1.195-.46 1.758-.64a5.343 5.343 0 011.59-.27c.898 0 1.593.223 2.082.656.484.434.73 1 .73 1.691 0 .145-.015.399-.05.758a4.785 4.785 0 01-.188 1l-.93 3.301a8.954 8.954 0 00-.207.902c-.058.336-.09.598-.09.77 0 .437.098.742.297.898.192.16.531.239 1.016.239.226 0 .484-.04.77-.117.285-.083.492-.149.62-.211zm-.168-13.39c-.43.402-.957.605-1.566.605a2.26 2.26 0 01-1.578-.606 1.919 1.919 0 01-.652-1.464c0-.575.222-1.07.652-1.477.437-.41.969-.61 1.578-.61.61 0 1.137.2 1.566.61.438.406.657.902.657 1.477 0 .57-.22 1.062-.657 1.464zm0 0"/>
</svg>
