<svg xmlns="http://www.w3.org/2000/svg" viewBox="0 0 48 48">
  <path class="st45" d="M18.7 7.4s-2.3-.4-4.2-2.1c-1-.9-2-2.2-2.7-3.2-.5-.7-1.6-.6-1.9.2-.5 1.4-1 3.4-.7 5.6.4 3.1 3.2 5.3 3.2 5.3l6.3-5.8zm10.5 0s2.3-.4 4.2-2.1c1-.9 2-2.2 2.7-3.2.5-.7 1.6-.6 1.9.2.5 1.4 1 3.4.7 5.6-.4 3.1-3.2 5.3-3.2 5.3l-6.3-5.8z" fill="#FFF48C"/>
  <path class="st28" d="M9.3 8.3c.2-.9.4-1.7.7-2.4.3-.8 1.4-.9 1.9-.2.7 1 1.7 2.3 2.7 3.2.5.4 1 .8 1.5 1l2.8-2.5s-2.3-.4-4.2-2.1c-1-.9-2-2.2-2.7-3.2-.5-.7-1.6-.6-1.9.2-.5 1.4-1 3.4-.7 5.6-.2.2-.2.3-.1.4zm24.1.6c1-.9 2-2.2 2.7-3.2.5-.7 1.6-.6 1.9.2.3.7.5 1.5.7 2.4 0-.1.1-.3.1-.4.2-2.2-.3-4.2-.8-5.6-.3-.8-1.4-.9-1.9-.2-.7 1-1.7 2.3-2.7 3.2-1.9 1.7-4.2 2.1-4.2 2.1L32 9.9c.4-.3 1-.6 1.4-1z" fill="#FFFACF"/>
  <path class="st10" d="M18.7 7.4s-2.3-.4-4.2-2.1c-1-.9-2-2.2-2.7-3.2-.5-.7-1.6-.6-1.9.2-.5 1.4-1 3.4-.7 5.6.4 3.1 3.2 5.3 3.2 5.3l6.3-5.8zm10.5 0s2.3-.4 4.2-2.1c1-.9 2-2.2 2.7-3.2.5-.7 1.6-.6 1.9.2.5 1.4 1 3.4.7 5.6-.4 3.1-3.2 5.3-3.2 5.3l-6.3-5.8z" fill="none" stroke="#45413C" stroke-linecap="round" stroke-linejoin="round" stroke-miterlimit="10"/>
  <path class="st41" d="M12.8 11.1s-7 .9-10 9c-1.9 5.1 10 2.6 10 2.6V11.1z" fill="#F0F0F0"/>
  <path class="st17" d="M2.7 20c-.4 1.1-.2 1.9.5 2.4 3.2-7.1 9.6-7.9 9.6-7.9v-3.4S5.8 12 2.7 20z" fill="#FFF"/>
  <path class="st10" d="M12.8 11.1s-7 .9-10 9c-1.9 5.1 10 2.6 10 2.6V11.1z" fill="none" stroke="#45413C" stroke-linecap="round" stroke-linejoin="round" stroke-miterlimit="10"/>
  <path class="st41" d="M35.2 11.1s7 .9 10 9c1.9 5.1-10 2.6-10 2.6V11.1z" fill="#F0F0F0"/>
  <path class="st17" d="M45.3 20c.4 1.1.2 1.9-.5 2.4-3.2-7.1-9.6-7.9-9.6-7.9v-3.4s7 .9 10.1 8.9z" fill="#FFF"/>
  <path class="st10" d="M35.2 11.1s7 .9 10 9c1.9 5.1-10 2.6-10 2.6V11.1z" fill="none" stroke="#45413C" stroke-linecap="round" stroke-linejoin="round" stroke-miterlimit="10"/>
  <ellipse cx="24" cy="44.8" rx="12.2" ry="1.6" fill="#45413c" opacity=".15"/>
  <path class="st41" d="M37.2 31.2H10.8V16.4c0-5.3 4.3-9.5 9.5-9.5h7.3c5.3 0 9.5 4.3 9.5 9.5v14.8z" fill="#F0F0F0"/>
  <path class="st17" d="M27.7 6.9h-7.3c-5.3 0-9.5 4.3-9.5 9.5v3.8c0-5.3 4.3-9.5 9.5-9.5h7.3c5.3 0 9.5 4.3 9.5 9.5v-3.8c0-5.3-4.3-9.5-9.5-9.5z" fill="#FFF"/>
  <path class="st10" d="M37.2 31.2H10.8V16.4c0-5.3 4.3-9.5 9.5-9.5h7.3c5.3 0 9.5 4.3 9.5 9.5v14.8z" fill="none" stroke="#45413C" stroke-linecap="round" stroke-linejoin="round" stroke-miterlimit="10"/>
  <path class="st20" d="M39.3 31.2c0 5.5-3.5 10-15.3 10s-15.3-4.5-15.3-10 1.9-10 15.3-10 15.3 4.4 15.3 10z" fill="#FCD"/>
  <path d="M24 24.8c11.7 0 14.6 3.4 15.2 7.9.1-.5.1-1.1.1-1.6 0-5.5-1.9-10-15.3-10s-15.3 4.5-15.3 10c0 .5 0 1.1.1 1.6.6-4.5 3.5-7.9 15.2-7.9z" fill="#ffe5ee"/>
  <path class="st10" d="M39.3 31.2c0 5.5-3.5 10-15.3 10s-15.3-4.5-15.3-10 1.9-10 15.3-10 15.3 4.4 15.3 10z" fill="none" stroke="#45413C" stroke-linecap="round" stroke-linejoin="round" stroke-miterlimit="10"/>
  <circle class="st22" cx="17.7" cy="32.2" r="1.6" fill="#FF87AF" stroke="#45413C" stroke-linecap="round" stroke-linejoin="round" stroke-miterlimit="10"/>
  <circle class="st22" cx="30.3" cy="32.2" r="1.6" fill="#FF87AF" stroke="#45413C" stroke-linecap="round" stroke-linejoin="round" stroke-miterlimit="10"/>
  <circle class="st78" cx="30.7" cy="17.3" r="1.4" fill="#45413C" stroke="#45413C" stroke-linecap="round" stroke-linejoin="round" stroke-miterlimit="10"/>
  <circle class="st78" cx="17.3" cy="17.3" r="1.4" fill="#45413C" stroke="#45413C" stroke-linecap="round" stroke-linejoin="round" stroke-miterlimit="10"/>
  <ellipse class="st20" cx="34.6" cy="20.1" rx="1.6" ry="1" fill="#FCD"/>
  <ellipse class="st20" cx="13.4" cy="20.1" rx="1.6" ry="1" fill="#FCD"/>
</svg>
