<svg viewBox="0 0 24 24" xmlns="http://www.w3.org/2000/svg" focusable="false">
  <g fill="none" fill-rule="evenodd">
    <path d="M0 0h24v24H0z"/>
    <path d="M0 0h24v24H0z"/>
    <path d="M20 15a1 1 0 011 1v2a3 3 0 01-2.824 2.995L18 21h-2a1 1 0 010-2h2a1 1 0 00.993-.883L19 18v-2a1 1 0 011-1zM4 15a1 1 0 011 1v2a1 1 0 00.883.993L6 19h2a1 1 0 010 2H6a3 3 0 01-2.995-2.824L3 18v-2a1 1 0 011-1zm11.334-1.965c.023.75.101 1.368.264 1.95l.079.265c.096.307.212.612.387 1.03l.28.652c.167.384-.054.722-.438.82-.362.09-.748-.057-.902-.409l-.261-.608c-.05-.118-.094-.226-.135-.328l-.145-.378c-.517.853-1.266.871-2.132.43l-.152-.085c-.05-.032-.099.312-.147.275l-.132-.109-.059.051c-.39.308-.875.4-1.633.402l-2.521-.007A.66.66 0 017 16.313c0-.372.275-.671.688-.67l2.637.006c.56 0 .766-.112.853-.514.147-.675 1.15-.637 1.358-.022.133.392.271.514.396.482.146-.037.336-.252.484-.569.159-.339.26-.691.362-1.21l.169-.938c.149-.775 1.365-.595 1.387.157zM13.5 7.333l1.688 1.688L10.209 14H8.521v-1.688L13.5 7.333zM8 3a1 1 0 110 2H6a1 1 0 00-.993.883L5 6v2a1 1 0 11-2 0V6a3 3 0 012.824-2.995L6 3h2zm10 0a3 3 0 012.995 2.824L21 6v2a1 1 0 01-2 0V6a1 1 0 00-.883-.993L18 5h-2a1 1 0 010-2h2zm-2.745 3.075l.07.058 1.063 1.062a.452.452 0 01.058.57l-.058.07-.83.832-1.703-1.703.83-.831a.452.452 0 01.57-.058z" fill="currentColor"/>
  </g>
</svg>
