<svg xmlns="http://www.w3.org/2000/svg" viewBox="0 0 32 32">
  <rect width="31" height="27" x=".5" y="4.5" fill="#e0e0e2" rx="2"/>
  <path fill="#2c2b2d" d="M29.5 32h-27A2.503 2.503 0 010 29.5v-23A2.503 2.503 0 012.5 4h27A2.503 2.503 0 0132 6.5v23a2.503 2.503 0 01-2.5 2.5zM2.5 5A1.502 1.502 0 001 6.5v23A1.502 1.502 0 002.5 31h27a1.502 1.502 0 001.5-1.5v-23A1.502 1.502 0 0029.5 5z"/>
  <path fill="#2c2b2d" d="M11 20a.5.5 0 01-.5-.5v-4a.5.5 0 01.5-.5h2a.5.5 0 010 1h-1.5v3.5a.5.5 0 01-.5.5z"/>
  <path fill="#2c2b2d" d="M13 20h-2a.5.5 0 010-1h2a.5.5 0 010 1zm0-2h-2a.5.5 0 010-1h2a.5.5 0 010 1zm4-2h-2a.5.5 0 010-1h2a.5.5 0 010 1zm0 4h-2a.5.5 0 010-1h2a.5.5 0 010 1zm3 0h-1a.5.5 0 01-.5-.5v-4a.5.5 0 01.5-.5h1a1.502 1.502 0 011.5 1.5v2A1.502 1.502 0 0120 20zm-.5-1h.5a.5.5 0 00.5-.5v-2a.5.5 0 00-.5-.5h-.5z"/>
  <path fill="#2c2b2d" d="M16 20a.5.5 0 01-.5-.5v-4a.5.5 0 011 0v4a.5.5 0 01-.5.5zM5 26a.5.5 0 01-.5-.5v-1.882l-.053.106a.521.521 0 01-.894 0l-.053-.106V25.5a.5.5 0 01-1 0v-4a.5.5 0 01.947-.224L4 22.382l.553-1.106a.494.494 0 01.562-.262.5.5 0 01.385.486v4a.5.5 0 01-.5.5zm4 0H7a.5.5 0 01-.5-.5v-4a.5.5 0 011 0V25h1v-3.5a.5.5 0 011 0v4a.5.5 0 01-.5.5zm2 0a.5.5 0 01-.5-.5v-4a.5.5 0 011 0v4a.5.5 0 01-.5.5z"/>
  <path fill="#2c2b2d" d="M12 26h-1a.5.5 0 010-1h1a.5.5 0 000-1h-1a.5.5 0 010-1h1a1.5 1.5 0 010 3z"/>
  <path fill="#2c2b2d" d="M12 24h-1a.5.5 0 010-1h1a.5.5 0 000-1h-1a.5.5 0 010-1h1a1.5 1.5 0 010 3zm7 2a.5.5 0 01-.5-.5v-4a.5.5 0 011 0v4a.5.5 0 01-.5.5z"/>
  <path fill="#2c2b2d" d="M20 24h-1a.5.5 0 010-1h1a.5.5 0 000-1h-1a.5.5 0 010-1h1a1.5 1.5 0 010 3zm-3 2a.5.5 0 01-.5-.5V22h-1v3.5a.5.5 0 01-1 0v-4a.5.5 0 01.5-.5h2a.5.5 0 01.5.5v4a.5.5 0 01-.5.5z"/>
  <path fill="#2c2b2d" d="M17 24h-2a.5.5 0 010-1h2a.5.5 0 010 1zm8 2a.5.5 0 01-.5-.5V22h-1v3.5a.5.5 0 01-1 0v-4a.5.5 0 01.5-.5h2a.5.5 0 01.5.5v4a.5.5 0 01-.5.5z"/>
  <path fill="#2c2b2d" d="M25 24h-2a.5.5 0 010-1h2a.5.5 0 010 1zm-4 2a.501.501 0 01-.447-.276l-1-2a.5.5 0 11.894-.448l1 2a.5.5 0 01-.223.671A.494.494 0 0121 26zm6 0a.5.5 0 01-.5-.5v-4a.5.5 0 011 0v4a.5.5 0 01-.5.5z"/>
  <path fill="#2c2b2d" d="M29 26a.501.501 0 01-.447-.276l-1.25-2.498a.5.5 0 11.895-.448l1.25 2.498a.5.5 0 01-.224.671A.494.494 0 0129 26z"/>
  <path fill="#2c2b2d" d="M27 24.405a.5.5 0 01-.384-.82l2-2.404a.5.5 0 11.768.638l-2 2.406a.498.498 0 01-.384.18z"/>
  <path fill="#e5303e" d="M2.5 4.5h27a2 2 0 012 2v3H.5v-3a2 2 0 012-2z"/>
  <path fill="#2c2b2d" d="M31.5 10H.5a.5.5 0 01-.5-.5v-3A2.503 2.503 0 012.5 4h27A2.503 2.503 0 0132 6.5v3a.5.5 0 01-.5.5zM1 9h30V6.5A1.502 1.502 0 0029.5 5h-27A1.502 1.502 0 001 6.5z"/>
  <path fill="#f7991d" d="M5.239 16.134l.787-1.634.758 1.648 1.726.28-1.262 1.266.28 1.806-1.538-.866-1.552.836.31-1.8-1.238-1.29 1.729-.246z"/>
  <path fill="#2c2b2d" d="M7.528 20a.502.502 0 01-.246-.064l-1.297-.73-1.31.705a.5.5 0 01-.73-.525l.268-1.552-1.064-1.107a.5.5 0 01.29-.842l1.465-.209.671-1.393A.457.457 0 016.03 14a.5.5 0 01.45.291l.647 1.406 1.463.238a.5.5 0 01.274.846L7.78 17.867l.241 1.557a.5.5 0 01-.494.576zM5.99 18.134a.5.5 0 01.246.064l.64.362-.122-.79a.498.498 0 01.14-.43l.573-.574-.763-.124a.5.5 0 01-.374-.285l-.314-.683-.326.677a.5.5 0 01-.38.278l-.764.109.563.585a.501.501 0 01.132.432l-.136.788.648-.35a.499.499 0 01.237-.06zm-.75-2z"/>
  <path fill="#f7991d" d="M25.25 16.134l.787-1.634.758 1.648 1.725.28-1.261 1.266.279 1.806-1.537-.866-1.553.836.311-1.8-1.239-1.29 1.73-.246z"/>
  <path fill="#2c2b2d" d="M27.539 20a.502.502 0 01-.246-.064l-1.297-.73-1.31.705a.5.5 0 01-.73-.525l.268-1.552-1.064-1.107a.5.5 0 01.29-.842l1.465-.209.67-1.393a.488.488 0 01.456-.283.5.5 0 01.45.291l.647 1.407 1.462.237a.5.5 0 01.274.846l-1.082 1.086.24 1.557a.5.5 0 01-.493.576zM26 18.134a.5.5 0 01.246.064l.64.362-.122-.79a.498.498 0 01.14-.43l.573-.574-.763-.124a.5.5 0 01-.374-.285l-.315-.683-.325.677a.5.5 0 01-.38.278l-.764.109.563.585a.501.501 0 01.132.432l-.136.788.648-.35a.499.499 0 01.237-.06zm-.751-2z"/>
  <rect width="3" height="7" x="4.5" y=".5" fill="#e0e0e2" rx="1.5"/>
  <path fill="#2c2b2d" d="M6 8a2.002 2.002 0 01-2-2V2a2 2 0 014 0v4a2.002 2.002 0 01-2 2zm0-7a1.001 1.001 0 00-1 1v4a1 1 0 002 0V2a1.001 1.001 0 00-1-1z"/>
  <rect width="3" height="7" x="24.5" y=".5" fill="#e0e0e2" rx="1.5"/>
  <path fill="#2c2b2d" d="M26 8a2.002 2.002 0 01-2-2V2a2 2 0 014 0v4a2.002 2.002 0 01-2 2zm0-7a1.001 1.001 0 00-1 1v4a1 1 0 002 0V2a1.001 1.001 0 00-1-1z"/>
</svg>
