<svg viewBox="0 0 24 24" xmlns="http://www.w3.org/2000/svg" xmlns:xlink="http://www.w3.org/1999/xlink" focusable="false">
  <defs>
    <path id="a" d="M0 .834h20V19H0z"/>
  </defs>
  <g fill="none" fill-rule="evenodd">
    <g transform="translate(2 2.167)">
      <mask id="b" fill="#fff">
        <use xlink:href="#a"/>
      </mask>
      <path d="M1.5 12.813v2.044c0 .707.274 1.37.773 1.869a2.626 2.626 0 001.868.774h11.716a2.646 2.646 0 002.643-2.64v-2.048a2.996 2.996 0 01-2.24-2.893c0-1.39.953-2.56 2.239-2.895L18.5 4.98a2.645 2.645 0 00-2.639-2.646H4.144A2.647 2.647 0 001.5 4.976v2.117c.486.115.937.354 1.312.705.569.53.897 1.25.925 2.028.003 1.466-.95 2.65-2.237 2.986M15.857 19H4.142a4.115 4.115 0 01-2.93-1.213A4.117 4.117 0 010 14.857v-2.7a.75.75 0 01.75-.75 1.49 1.49 0 001.489-1.489 1.427 1.427 0 00-.45-1.023 1.36 1.36 0 00-1.013-.378.766.766 0 01-.547-.21.753.753 0 01-.229-.54v-2.79A4.15 4.15 0 014.144.832h11.712A4.148 4.148 0 0120 4.98v2.7a.75.75 0 01-.75.75c-.821 0-1.49.668-1.49 1.488.001.822.669 1.49 1.49 1.49a.75.75 0 01.75.75v2.7A4.149 4.149 0 0115.857 19" fill="#000" mask="url(#b)"/>
    </g>
    <path d="M10.104 11.382l.509.495c.276.271.4.657.335 1.034l-.12.699.629-.332c.339-.18.746-.18 1.088.002l.625.329-.12-.7a1.17 1.17 0 01.336-1.032l.509-.495-.705-.102a1.16 1.16 0 01-.875-.638L12 10.005l-.315.637a1.162 1.162 0 01-.877.638l-.704.102zm3.514 4.005a1.16 1.16 0 01-.544-.136L12 14.688l-1.075.564a1.16 1.16 0 01-1.227-.088 1.16 1.16 0 01-.463-1.139l.205-1.196-.87-.847a1.158 1.158 0 01-.295-1.191 1.16 1.16 0 01.939-.795l1.204-.175.537-1.09c.197-.4.597-.648 1.045-.648.446 0 .847.248 1.044.65l.538 1.087 1.202.176c.442.064.803.37.94.794.137.424.024.881-.296 1.193l-.87.847.206 1.195a1.164 1.164 0 01-1.146 1.362z" fill="#000"/>
  </g>
</svg>
