<svg viewBox="0 0 24 24" xmlns="http://www.w3.org/2000/svg" focusable="false">
  <path d="M9.592 13.957c3.259 0 7.592.367 7.592 3.542 0 3.345-5.05 3.545-7.215 3.557h-.786C6.873 21.044 2 20.845 2 17.52c0-3.348 5.049-3.55 7.214-3.561l.26-.001h.118zm0 1.5c-2.78 0-6.092.357-6.092 2.062 0 1.352 2.05 2.038 6.092 2.038s6.092-.693 6.092-2.058c0-1.355-2.05-2.042-6.092-2.042zm9.114-1.967c2.707.405 3.274 1.658 3.274 2.637 0 .729-.316 1.716-1.819 2.285a.75.75 0 11-.532-1.402c.85-.322.85-.715.85-.883 0-.567-.67-.955-1.994-1.152a.752.752 0 01-.631-.853.762.762 0 01.852-.632zM9.592 2a5.141 5.141 0 015.135 5.135 5.077 5.077 0 01-1.487 3.622 5.081 5.081 0 01-3.614 1.513h-.034a5.142 5.142 0 01-5.136-5.135A5.142 5.142 0 019.592 2zm7.087 1.124A4.033 4.033 0 0120.07 7.12a4.069 4.069 0 01-3.483 4.005.75.75 0 01-.209-1.486 2.559 2.559 0 002.192-2.52 2.538 2.538 0 00-2.133-2.514.75.75 0 01.242-1.481zM9.592 3.5a3.64 3.64 0 00-3.636 3.635 3.64 3.64 0 003.636 3.635h.03a3.594 3.594 0 002.554-1.07 3.587 3.587 0 001.05-2.562A3.64 3.64 0 009.593 3.5z" fill-rule="evenodd"/>
</svg>
