<svg viewBox="0 0 24 24" xmlns="http://www.w3.org/2000/svg" focusable="false">
  <path d="M13.974 2c.043 0 .085.004.126.011h.136c.204 0 .399.084.54.23l5.067 5.28a.75.75 0 01.209.519v9.3a4.533 4.533 0 01-4.471 4.526H7.399A4.472 4.472 0 013 17.327V6.492c.057-2.481 2.105-4.48 4.568-4.48h6.278a.754.754 0 01.127-.01zm-.75 1.511H7.571A3.086 3.086 0 004.5 6.51v10.83a2.969 2.969 0 002.912 3.028l.148-.001h8.012a3.028 3.028 0 002.979-3.025V8.983l-2.01.001a3.332 3.332 0 01-3.318-3.325V3.511zm.569 9.486a.75.75 0 010 1.5h-4.9a.75.75 0 010-1.5h4.9zm.93-8.645V5.66a1.83 1.83 0 001.822 1.825h1.183l-3.005-3.132z" fill-rule="evenodd"/>
</svg>
