<svg xmlns="http://www.w3.org/2000/svg" viewBox="0 0 32 32" focusable="false">
  <g color="#000">
    <path fill="#f6b577" style="isolation:auto;mix-blend-mode:normal" d="M13.5 6.004c.164.089.503.314.5.5v1.977c0 .833.65 1.487 1.48 1.498h6.02c.677-.01.677 1.01 0 1h-11c-.84 0-1.5.66-1.5 1.5s.66 1.5 1.5 1.5h11c.677-.01.677 1.01 0 1h-11c-.84 0-1.5.66-1.5 1.5s.66 1.5 1.5 1.5h11c.677-.01.677 1.01 0 1h-11c-.84 0-1.5.66-1.5 1.5s.66 1.5 1.5 1.5h5c.823 0 1.5.677 1.5 1.5v2.017c.002.146-.39.411-.5.508h2c-.128-.096-.502-.374-.5-.533v-2.99c0-.84-.66-1.5-1.5-1.5h-6c-.676.01-.676-1.01 0-1h11c.84 0 1.5-.66 1.5-1.5s-.66-1.5-1.5-1.5h-11c-.676.01-.676-1.01 0-1h11c.84 0 1.5-.66 1.5-1.5s-.66-1.5-1.5-1.5h-11c-.676.01-.676-1.01 0-1h11c.84 0 1.5-.66 1.5-1.5s-.66-1.5-1.5-1.5h-4.999c-.823 0-1.5-.678-1.5-1.5v-.989c-.004-.173.353-.39.5-.483z" overflow="visible"/>
    <path fill="#62355c" style="line-height:normal;text-indent:0;text-align:start;text-decoration-line:none;text-decoration-style:solid;text-decoration-color:#000;text-transform:none;block-progression:tb;isolation:auto;mix-blend-mode:normal" d="M15.493 5.998a.498.498 0 00-.493.508v.969c0 .822.678 1.5 1.5 1.5h5.001c.84 0 1.5.66 1.5 1.5s-.66 1.5-1.5 1.5H10.5c-.676-.01-.676 1.01 0 1h11c.84 0 1.5.66 1.5 1.5s-.66 1.5-1.5 1.5h-11c-.676-.01-.676 1.01 0 1h11c.84 0 1.5.66 1.5 1.5s-.66 1.5-1.5 1.5h-11c-.676-.01-.676 1.01 0 1h6c.84 0 1.5.66 1.5 1.5v3.023c-.01.676 1.01.676 1 0v-3.023c0-.565-.196-1.082-.515-1.502H21.5c1.377 0 2.5-1.124 2.5-2.5 0-.82-.404-1.544-1.017-2a2.49 2.49 0 001.017-2c0-.821-.404-1.548-1.019-2.004a2.489 2.489 0 001.02-2c0-1.376-1.124-2.5-2.5-2.5h-5a.493.493 0 01-.5-.5v-.968a.5.5 0 00-.508-.509zm-2 .01a.498.498 0 00-.493.508v1.969c0 .564.196 1.079.514 1.498H10.5a2.506 2.506 0 00-2.5 2.5c0 .82.404 1.544 1.018 2a2.492 2.492 0 00-1.018 2c0 .82.404 1.544 1.018 2a2.492 2.492 0 00-1.018 2c0 1.376 1.124 2.5 2.5 2.5h5c.283 0 .5.218.5.5v2.018c-.01.676 1.01.676 1 0v-2.018c0-.823-.677-1.5-1.5-1.5h-5c-.84 0-1.5-.66-1.5-1.5s.66-1.5 1.5-1.5h11c.677.01.677-1.01 0-1h-11c-.84 0-1.5-.66-1.5-1.5s.66-1.5 1.5-1.5h11c.677.01.677-1.01 0-1h-11c-.84 0-1.5-.66-1.5-1.5s.66-1.5 1.5-1.5h11c.677.01.677-1.01 0-1h-6.02A1.485 1.485 0 0114 8.485V6.516c0-.348-.25-.508-.507-.508z" font-family="sans-serif" font-weight="400" overflow="visible"/>
  </g>
</svg>
