<svg data-name="Layer 1" xmlns="http://www.w3.org/2000/svg" viewBox="0 0 24 24" focusable="false">
  <path fill="none" d="M0 0h24v24H0z"/>
  <path d="M14.341 3.509H9.68a7.666 7.666 0 00-7.658 7.658v4.43a1.975 1.975 0 00-.022.222v2.67a2.002 2.002 0 104.004 0v-2.67a2.001 2.001 0 00-1.984-2v-2.652a5.666 5.666 0 015.66-5.66h4.661a5.667 5.667 0 015.66 5.66v2.65h-.003a2.002 2.002 0 00-2.003 2.002v2.67a2.002 2.002 0 104.005 0v-7.322a7.667 7.667 0 00-7.659-7.658z"/>
  <path d="M13.603 10.252h-3.354a.75.75 0 010-1.498h3.354a.75.75 0 010 1.498z"/>
</svg>
