<svg xmlns="http://www.w3.org/2000/svg" viewBox="0 0 24 24" fill="currentColor" focusable="false">
  <path d="M8.393 3.634a4.918 4.918 0 018.548 2.725l.148.003c1.443.058 3.092.964 3.56 3.513l.755 5.872c.29 2.04-.088 3.613-.967 4.659-.878 1.046-2.319 1.556-4.392 1.556H8.042a4.927 4.927 0 01-4.347-1.675 4.933 4.933 0 01-1.012-4.549l.022-.102a.768.768 0 011.498.322 4.063 4.063 0 00.659 3.323 4.198 4.198 0 003.17 1.142h8.013c1.59 0 2.688-.334 3.26-1.028.57-.695.799-1.855.57-3.437l-.747-5.81c-.263-1.407-1.08-2.286-2.187-2.286H7.137c-1.054 0-1.871.88-2.196 2.347l-.211 1.292a.773.773 0 01-1.52-.263l.22-1.319c.58-2.681 2.292-3.56 3.707-3.56h8.24a3.438 3.438 0 00-1.09-2.022 3.372 3.372 0 00-4.76.264v.088l-.087.08a.774.774 0 01-1.047-1.135zm6.545 6.69l.114.017c.115.026.225.071.325.132.09.07.17.154.237.246a.352.352 0 01.08.15.572.572 0 01.053.343.739.739 0 01-.071.333.703.703 0 01-.21.29.878.878 0 01-.616.264 1.08 1.08 0 01-.342-.07.879.879 0 01-.387-.484.73.73 0 01-.062-.334.58.58 0 010-.176v-.167l.088-.15a.387.387 0 01.106-.13l.132-.115a.668.668 0 01.158-.08.615.615 0 01.167-.052.755.755 0 01.342 0zm-5.613.008l.114.018a.527.527 0 01.166.052.492.492 0 01.15.08c.052.03.1.069.14.114a.39.39 0 01.106.132.88.88 0 01.088.15l.052.166c.005.059.005.117 0 .176a.879.879 0 01-.878.879.878.878 0 01-.598-.264.88.88 0 01-.193-.29.88.88 0 01-.061-.334.572.572 0 01.052-.343.492.492 0 01.08-.15.387.387 0 01.105-.13.571.571 0 01.132-.106.492.492 0 01.149-.08.527.527 0 01.167-.052.755.755 0 01.343 0z"/>
</svg>
