<svg viewBox="0 0 24 24" xmlns="http://www.w3.org/2000/svg" focusable="false">
  <path d="M6.25 13c4.069 0 4.25 1.38 4.25 4.25 0 1.438 0 2.461-.604 3.21-.695.863-1.96 1.04-3.646 1.04s-2.951-.177-3.646-1.04C2 19.711 2 18.689 2 17.275l.75-.025H2C2 14.38 2.181 13 6.25 13zm11 0c4.069 0 4.25 1.38 4.25 4.25 0 1.438 0 2.461-.604 3.21-.695.863-1.96 1.04-3.646 1.04s-2.951-.177-3.646-1.04C13 19.711 13 18.689 13 17.275l.75-.025H13c0-2.87.181-4.25 4.25-4.25zM6.456 14.5H6.25c-2.609 0-2.743.187-2.75 2.377v.853c.006.871.039 1.5.271 1.79.265.328 1.052.48 2.479.48s2.214-.153 2.479-.481C9 19.182 9 18.382 9 17.274c0-2.5 0-2.762-2.544-2.774zm11 0h-.206c-2.609 0-2.743.187-2.75 2.377v.853c.006.871.039 1.5.271 1.79.265.328 1.052.48 2.479.48s2.214-.153 2.479-.481c.271-.337.271-1.137.271-2.245 0-2.5 0-2.762-2.544-2.774zM6.25 2c4.069 0 4.25 1.38 4.25 4.25 0 1.438 0 2.461-.604 3.21-.695.863-1.96 1.04-3.646 1.04s-2.951-.177-3.646-1.04C2 8.711 2 7.689 2 6.275l.75-.025H2C2 3.38 2.181 2 6.25 2zm11 0c4.069 0 4.25 1.38 4.25 4.25 0 1.438 0 2.461-.604 3.21-.695.863-1.96 1.04-3.646 1.04s-2.951-.177-3.646-1.04C13 8.711 13 7.689 13 6.275l.75-.025H13C13 3.38 13.181 2 17.25 2zM6.456 3.5H6.25c-2.609 0-2.743.187-2.75 2.377v.853c.006.871.039 1.5.271 1.79.265.328 1.052.48 2.479.48s2.214-.153 2.479-.481C9 8.182 9 7.382 9 6.274c0-2.5 0-2.762-2.544-2.774zm11 0h-.206c-2.609 0-2.743.187-2.75 2.377v.853c.006.871.039 1.5.271 1.79.265.328 1.052.48 2.479.48s2.214-.153 2.479-.481C20 8.182 20 7.382 20 6.274c0-2.5 0-2.762-2.544-2.774z" fill-rule="evenodd"/>
</svg>
