<svg viewBox="0 0 24 24" xmlns="http://www.w3.org/2000/svg" focusable="false">
  <path d="M16.197 3c3.201.01 5.793 2.621 5.803 5.846v1.46l-.006.098a.71.71 0 01-.702.616l-.008-.018-.112-.009a.716.716 0 01-.596-.704V8.846c-.024-2.426-1.97-4.387-4.379-4.411H7.803c-2.408.024-4.355 1.985-4.379 4.41v6.31c.024 2.425 1.97 4.386 4.379 4.41h8.394c2.408-.024 4.355-1.985 4.379-4.41a.718.718 0 01.712-.642c.365 0 .672.276.712.641-.01 3.225-2.602 5.836-5.803 5.846H7.803C4.6 20.995 2.005 18.38 2 15.154V8.846C2 5.617 4.598 3 7.803 3zM6.294 8.387a.695.695 0 01.518.156l4.157 3.314c.52.41 1.25.41 1.77 0l4.113-3.314h.009l.086-.06a.713.713 0 01.913.167.717.717 0 01-.115 1.006l-4.113 3.324a2.84 2.84 0 01-3.582 0L5.927 9.656l-.076-.072a.726.726 0 01-.03-.934.697.697 0 01.473-.263z"/>
</svg>
