<svg xmlns="http://www.w3.org/2000/svg" viewBox="0 0 32 32" fill="currentColor" focusable="false">
  <path fill="#20DF39" d="M22.566 6.34a5.706 5.706 0 11-11.41-.005 5.706 5.706 0 0111.41.005zm0 0"/>
  <path fill="#1447FF" d="M22.395 4.953L21.293 9.93l6.344 2.113 4.183-4.184zm-10.93-.469L.637 7.855 4.82 12.04l7.356-2.445zm0 0"/>
  <path d="M15.781 8.688c.25.25.649.25.899 0l3.8-3.801a.634.634 0 00-.895-.898L16.23 7.343l-.82-.82a.639.639 0 00-.898 0 .639.639 0 000 .898zm0 0"/>
  <path fill="#D5DEFF" d="M21.363 10.227l-5.14 1.816-4.059-1.953-7.344 1.953 11.407 3.805 11.41-3.805zm0 0"/>
  <path fill="#1447FF" d="M16.23 15.848l3.375 4.218 12.22-3.84-4.188-4.183zm-14.085.656l11.41 3.8 2.672-4.452-11.41-3.809zm0 0"/>
  <path fill="#1447FF" d="M27.633 17.543l-11.406-1.695-10.141 1.964V28.02l10.144 3.8 11.407-3.8V17.559zm0 0"/>
  <path d="M9.89 24.719a.633.633 0 100-1.266.634.634 0 100 1.266zm2.169.801l1.41.527a.635.635 0 00.445-1.188l-1.41-.527a.635.635 0 00-.445 1.188zm1.855 2.05l-3.805-1.43a.637.637 0 00-.867.7.64.64 0 00.422.488l3.805 1.426a.633.633 0 10.445-1.184zm0 0"/>
  <path d="M4.02 12.14l-2.418 4.032a.632.632 0 00-.051.543.62.62 0 00.39.387l3.504 1.168v9.753c0 .262.164.5.414.594l10.153 3.805c.129.047.273.05.406.008h.004l11.41-3.805a.635.635 0 00.434-.602V18.008l3.738-1.176a.624.624 0 00.426-.453.636.636 0 00-.164-.602l-3.739-3.734 3.743-3.734a.645.645 0 00.167-.602.636.636 0 00-.43-.453L22.915 4.44A6.343 6.343 0 0017.117.004a6.347 6.347 0 00-6.133 3.96L.445 7.255A.632.632 0 00.187 8.31zm1.082.665l10.18 3.394-2.005 3.34-10.183-3.394zm6.843-2.47a6.329 6.329 0 009.551.33l4.137 1.378-9.406 3.137-9.407-3.137zM6.72 18.692c6.984 2.313 6.644 2.247 6.836 2.247.222 0 .43-.118.543-.31l1.496-2.495v12.77L6.72 27.579zm20.285 8.872l-10.14 3.378V17.656l2.245 2.813a.633.633 0 00.684.207l7.21-2.266zm3.629-11.625l-10.805 3.39-2.539-3.168 10.176-3.394zm-3.168-4.622l-5.168-1.718a6.337 6.337 0 00.883-3.743l7.449 2.301zM16.863 1.266a5.07 5.07 0 015.07 5.074 5.07 5.07 0 01-5.07 5.07 5.067 5.067 0 01-4.453-2.515 5.065 5.065 0 010-5.11 5.067 5.067 0 014.453-2.515zM10.59 5.418a6.609 6.609 0 00-.067.922 6.266 6.266 0 00.704 2.902l-6.239 2.074-3.164-3.164zm0 0"/>
</svg>
