<?xml version="1.0" encoding="UTF-8"?>
<svg width="24px" height="24px" viewBox="0 0 24 24" version="1.1" xmlns="http://www.w3.org/2000/svg" xmlns:xlink="http://www.w3.org/1999/xlink">
    <title>Icons/24/Lock</title>
    <g id="Icons/24/Lock" stroke="none" stroke-width="1" fill="none" fill-rule="evenodd">
        <rect id="Container" fill-opacity="0" fill="#D8D8D8" fill-rule="nonzero" x="0" y="0" width="24" height="24"></rect>
        <path d="M12,2 C14.757,2 17,4.243 17,7 L17,7 L17,10 C18.654,10 20,11.346 20,13 L20,13 L20,19 C20,20.654 18.654,22 17,22 L17,22 L7,22 C5.346,22 4,20.654 4,19 L4,19 L4,13 C4,11.346 5.346,10 7,10 L7,10 L7,7 C7,4.243 9.243,2 12,2 Z M17,12 L7,12 C6.449,12 6,12.448 6,13 L6,13 L6,19 C6,19.552 6.449,20 7,20 L7,20 L17,20 C17.551,20 18,19.552 18,19 L18,19 L18,13 C18,12.448 17.551,12 17,12 L17,12 Z M12,14.5 C12.552,14.5 13,14.947 13,15.5 L13,15.5 L13,16.5 C13,17.053 12.552,17.5 12,17.5 C11.448,17.5 11,17.053 11,16.5 L11,16.5 L11,15.5 C11,14.947 11.448,14.5 12,14.5 Z M12,4 C10.346,4 9,5.346 9,7 L9,7 L9,10 L15,10 L15,7 C15,5.346 13.654,4 12,4 Z" id="Combined-Shape" fill="#404040"></path>
    </g>
</svg>