<svg viewBox="0 0 24 24" xmlns="http://www.w3.org/2000/svg" focusable="false">
  <g fill="none" fill-rule="evenodd">
    <path d="M0 0h24v24H0z"/>
    <path d="M12 2c2.757 0 5 2.243 5 5v3c1.654 0 3 1.346 3 3v6c0 1.654-1.346 3-3 3H7c-1.654 0-3-1.346-3-3v-6c0-1.654 1.346-3 3-3V7c0-2.757 2.243-5 5-5zm5 10H7c-.551 0-1 .448-1 1v6c0 .552.449 1 1 1h10c.551 0 1-.448 1-1v-6c0-.552-.449-1-1-1zm-5 2.5a1 1 0 011 1v1a1 1 0 11-2 0v-1a1 1 0 011-1zM12 4c-1.654 0-3 1.346-3 3v3h6V7c0-1.654-1.346-3-3-3z" fill="currentColor"/>
  </g>
</svg>
