<svg xmlns="http://www.w3.org/2000/svg" viewBox="0 0 24 24">
  <path fill="#200E32" d="M11.996 2a9.71 9.71 0 012.175.246 9.97 9.97 0 016.283 4.41 9.992 9.992 0 011.293 7.574l-.027.105a.78.78 0 11-1.481-.492 8.412 8.412 0 00-5.474-9.794A8.397 8.397 0 004.44 8.423a8.416 8.416 0 003.21 10.753 8.394 8.394 0 0011.027-2.014l.089-.071a.78.78 0 011.121 1.028A9.98 9.98 0 017.741 21.05a10.003 10.003 0 01-5.5-11.233A9.99 9.99 0 0111.997 2zm2.973 6.058a.674.674 0 01.456 0 .763.763 0 01.508.965l-1.56 4.89a.772.772 0 01-.395.466l-.877.439-.104.03a.78.78 0 01-.563-1.435l.588-.29.982-3.143-3.069.966-1.403 4.486-.038.098a.771.771 0 01-.927.412l-.114-.046a.772.772 0 01-.394-.929l1.526-4.881a.78.78 0 01.508-.5z"/>
</svg>
