<svg xmlns="http://www.w3.org/2000/svg" viewBox="0 0 48 48">
  <path class="st45" d="M30.6 26s2.9-4.2 8.8-5.4c5.7-1.2 7.8 2.3 7 5.2-.7 1.9-3.9 3.7-15.8.2z" fill="#FFF48C"/>
  <path class="st28" d="M39.4 22.8c4.1-.8 6.4.8 7 2.8.8-2.9-1.3-6.3-7-5.1-5.9 1.2-8.8 5.4-8.8 5.4.6.2 1.1.3 1.7.5 1.4-1.3 3.8-2.9 7.1-3.6z" fill="#FFFACF"/>
  <path class="st10" d="M30.6 26s2.9-4.2 8.8-5.4c5.7-1.2 7.8 2.3 7 5.2-.7 1.9-3.9 3.7-15.8.2z" fill="none" stroke="#45413C" stroke-linecap="round" stroke-linejoin="round" stroke-miterlimit="10"/>
  <path class="st45" d="M30.6 26s.1 5.1 4.4 9.4c4.1 4.1 7.8 2.3 8.7-.6.5-2-1.2-5.3-13.1-8.8z" fill="#FFF48C"/>
  <path class="st11" d="M36 32.3c3.2 3.2 6.1 2.8 7.7 1.2-.4-1.9-3.1-4.3-11.3-7 .5 1.7 1.6 3.9 3.6 5.8z" fill="#FFE500"/>
  <path class="st10" d="M30.6 26s.1 5.1 4.4 9.4c4.1 4.1 7.8 2.3 8.7-.6.5-2-1.2-5.3-13.1-8.8z" fill="none" stroke="#45413C" stroke-linecap="round" stroke-linejoin="round" stroke-miterlimit="10"/>
  <path class="st29" d="M30.6 26s9.3-.8 13.4.4c4.2 1.2 2.4 7.9-2 6.6-4.3-1.3-11.4-7-11.4-7z" fill="#FF87AF"/>
  <path class="st30" d="M44 28.8c1.1.3 1.8 1.1 2.1 2 .6-1.7 0-3.8-2.1-4.4-4.2-1.3-13.4-.4-13.4-.4s1.3 1 3 2.3c3.1-.2 7.8-.3 10.4.5z" fill="#FFB0CA"/>
  <path class="st10" d="M30.6 26s9.3-.8 13.4.4c4.2 1.2 2.4 7.9-2 6.6-4.3-1.3-11.4-7-11.4-7z" fill="none" stroke="#45413C" stroke-linecap="round" stroke-linejoin="round" stroke-miterlimit="10"/>
  <path class="st45" d="M17.4 22s-.1-5.1-4.4-9.4c-4.1-4.1-7.8-2.3-8.7.6-.5 2 1.2 5.3 13.1 8.8z" fill="#FFF48C"/>
  <path class="st28" d="M13 15.1c2.3 2.3 3.4 4.9 3.9 6.8.2 0 .3.1.4.1 0 0-.1-5.1-4.4-9.4-4.1-4.1-7.8-2.3-8.7.6-.2.5-.1 1.2.2 1.9 1.3-2.5 4.8-3.8 8.6 0z" fill="#FFFACF"/>
  <path class="st10" d="M17.4 22s-.1-5.1-4.4-9.4c-4.1-4.1-7.8-2.3-8.7.6-.5 2 1.2 5.3 13.1 8.8z" fill="none" stroke="#45413C" stroke-linecap="round" stroke-linejoin="round" stroke-miterlimit="10"/>
  <path class="st45" d="M17.4 22s-2.9 4.2-8.8 5.4c-5.7 1.2-7.8-2.3-7-5.2.7-1.9 3.9-3.7 15.8-.2z" fill="#FFF48C"/>
  <path class="st11" d="M2.2 21.4c.5 2.2 2.7 4 7 3.1 2.7-.6 4.8-1.8 6.3-2.9-8.6-2.4-12-1.7-13.3-.2z" fill="#FFE500"/>
  <path class="st10" d="M17.4 22s-2.9 4.2-8.8 5.4c-5.7 1.2-7.8-2.3-7-5.2.7-1.9 3.9-3.7 15.8-.2z" fill="none" stroke="#45413C" stroke-linecap="round" stroke-linejoin="round" stroke-miterlimit="10"/>
  <path class="st29" d="M17.4 22s-7.3-5.8-11.5-7c-4.2-1.2-6.3 5.3-2 6.6 4.4 1.3 13.5.4 13.5.4z" fill="#FF87AF"/>
  <path class="st30" d="M6 17.3c2.5.7 6.2 3.1 8.7 4.9 1.7-.1 2.8-.2 2.8-.2S10.2 16.2 6 15c-3-.9-4.9 2.3-4.1 4.6.4-1.6 2-2.9 4.1-2.3z" fill="#FFB0CA"/>
  <path class="st10" d="M17.4 22s-7.3-5.8-11.5-7c-4.2-1.2-6.3 5.3-2 6.6 4.4 1.3 13.5.4 13.5.4z" fill="none" stroke="#45413C" stroke-linecap="round" stroke-linejoin="round" stroke-miterlimit="10"/>
  <ellipse cx="23.5" cy="35.7" rx="12.6" ry="1.6" fill="#45413c" opacity=".15"/>
  <circle transform="rotate(-73.43 24 24)" class="st29" cx="24" cy="24" fill="#FF87AF" r="10.7"/>
  <path class="st30" d="M13.7 24.7c1.7-5.7 7.7-8.9 13.3-7.2 4 1.2 6.8 4.5 7.5 8.4 1-5.3-2.2-10.6-7.5-12.2-5.7-1.7-11.6 1.5-13.3 7.2-.5 1.7-.6 3.4-.3 5l.3-1.2z" fill="#FFB0CA"/>
  <circle transform="rotate(-73.43 24 24)" class="st10" cx="24" cy="24" fill="none" stroke="#45413C" stroke-linecap="round" stroke-linejoin="round" stroke-miterlimit="10" r="10.7"/>
  <path class="st30" d="M29.7 15s-.1 0-.1-.1c.1 0 .1 0 .1.1zm.7.4c-.2-.2-.5-.3-.7-.5.3.2.5.4.7.5zm.8.6c-.2-.2-.5-.4-.7-.6.2.2.4.4.7.6z" fill="#FFB0CA"/>
  <path class="st45" d="M33.3 18.6c-2.3.3-5.4 1-9.6 2.5-4.8 1.8-8 3.5-10.1 5-.3-1.5-.3-3 .1-4.6 2.2-1.6 5-3.3 8.4-4.5 3-1.1 5.5-1.7 7.7-2.1 1.4.9 2.6 2.2 3.5 3.7z" fill="#FFF48C"/>
  <path class="st45" d="M33.3 18.6c-.8.1-1.8.3-2.9.5-1.8.4-4.1 1.1-6.7 2-4.8 1.8-8 3.5-10.1 5V26c-.1-.3-.1-.6-.2-.9-.1-.6-.1-1.1 0-1.7v-.3c0-.2 0-.4.1-.6 0-.2.1-.4.1-.5 0-.1 0-.3.1-.4 2.2-1.6 5-3.3 8.4-4.5 3-1.1 5.5-1.7 7.7-2.1.5.3.9.6 1.4 1 .2.1.3.3.4.4l.4.4c.4.4.8.9 1.1 1.4-.1 0 0 .2.2.4z" fill="#FFF48C"/>
  <path class="st28" d="M30.8 15.7s-.1-.1 0 0c-.4-.3-.8-.6-1.1-.8-2.1.4-4.7 1-7.7 2.1-3.4 1.2-6.2 2.9-8.4 4.5 0 .1 0 .1-.1.2-.1.4-.1.8-.2 1.2-.1.7-.1 1.6 0 2.4 0 .2.1.4.1.6l.3-1.2c1.7-5.7 7.7-8.9 13.3-7.2.2.1.3.1.5.2h.1c1 .3 1.9.8 2.7 1.4 1.1-.2 2.1-.4 2.9-.5-.4-.7-.9-1.4-1.4-1.9-.3-.4-.6-.7-1-1z" fill="#FFFACF"/>
  <path class="st10" d="M33.3 18.6c-2.3.3-5.4 1-9.6 2.5-4.8 1.8-8 3.5-10.1 5-.3-1.5-.3-3 .1-4.6 2.2-1.6 5-3.3 8.4-4.5 3-1.1 5.5-1.7 7.7-2.1 1.4.9 2.6 2.2 3.5 3.7z" fill="none" stroke="#45413C" stroke-linecap="round" stroke-linejoin="round" stroke-miterlimit="10"/>
  <path d="M34.4 26.6c-1.9.4-4.2 1.1-6.9 2.1-4.2 1.5-7.1 3-9.2 4.4-1.1-.7-2-1.5-2.7-2.5 2.4-2.1 5.8-4.4 10.3-6 3.5-1.3 6.4-2 8.8-2.3.1 1.4.1 2.9-.3 4.3z" fill="#fff48c" stroke="#45413c" stroke-linecap="round" stroke-linejoin="round" stroke-miterlimit="10"/>
</svg>
