<svg xmlns="http://www.w3.org/2000/svg" viewBox="0 0 32.448 24.462" focusable="false">
  <path d="M24.782 2.22h-3.741a.949.949 0 00-.949.949v1.145a.949.949 0 00.949.949h3.741a.949.949 0 00.949-.949V3.168a.949.949 0 00-.949-.948zm0 0" fill="#20df39"/>
  <path d="M18.062 3.234h2.03v2.028h-2.03a1.014 1.014 0 010-2.028zm10.203 1.75h-1.268a1.268 1.268 0 010-2.535h1.268zm0 0" fill="#d5deff"/>
  <path d="M5.957.63h4.088a1.267 1.267 0 011.268 1.268V9.25a1.268 1.268 0 01-1.268 1.268H1.902A1.268 1.268 0 01.634 9.253v-3.3A5.322 5.322 0 015.957.63zm0 0" fill="#20df39"/>
  <path d="M14.893 10.521H12.58a1.268 1.268 0 110-2.535h2.313a1.268 1.268 0 110 2.535zm0 0" fill="#d5deff"/>
  <path d="M21.957 10.34a.634.634 0 100-1.267.634.634 0 100 1.267zm0 0"/>
  <path d="M31.823 18.756h-8.982a2.492 2.492 0 01-2.172 1.269H.642v-.48a9.025 9.025 0 019.025-9.025h4.5a1.277 1.277 0 011.277 1.277v5.692h3.37a3.146 3.146 0 003.145-3.144l.009-9.087h2.246l1.753 7.921h.278a5.574 5.574 0 015.574 5.574zm0 0" fill="#1447ff"/>
  <path d="M12.549 20.025a4.692 4.692 0 00-7.586-3.692 4.683 4.683 0 00-1.8 3.692zm0 0" fill="#1447ff"/>
  <path d="M13.85 23.192a.634.634 0 10.448.186.638.638 0 00-.448-.186zm0 0"/>
  <path d="M26.472 12.553L25 5.88a1.582 1.582 0 001-.55 1.89 1.89 0 001 .289h1.268a.634.634 0 00.634-.634V2.45a.634.634 0 00-.634-.634H27a1.889 1.889 0 00-1.031.305 1.579 1.579 0 00-1.185-.535H21.04a1.585 1.585 0 00-1.476 1.015h-1.5a1.65 1.65 0 100 3.3h3.262v1.272a.634.634 0 001.268 0V5.895H23.7l1.591 7.188-3.011 5.363a1.861 1.861 0 01-1.62.946h-7.515a5.332 5.332 0 00-5.287-4.691 5.272 5.272 0 00-3.286 1.135 5.293 5.293 0 00-2 3.554h-1.3a8.4 8.4 0 018.39-8.237h4.5a.645.645 0 01.644.644v5.694a.634.634 0 00.634.634h3.36a3.78 3.78 0 003.78-3.776v-2.105a.634.634 0 00-.633-.635.634.634 0 00-.634.633v2.106a2.512 2.512 0 01-2.512 2.51h-2.736v-5.057a1.9 1.9 0 00-.225-.9 1.9 1.9 0 00-.948-3.549H12.58a1.892 1.892 0 00-.634.109v-5.56a1.9 1.9 0 00-1.9-1.9h-4.09A5.966 5.966 0 00.075 5.015a.634.634 0 00-.03.186v.011A5.985 5.985 0 000 5.957v3.3a1.9 1.9 0 001.618 1.88l1.4 1.4A9.633 9.633 0 000 19.547v.479a.634.634 0 00.634.634H4.2a.647.647 0 00-.013.127 3.658 3.658 0 00.9 2.406H.634a.634.634 0 000 1.268h7.224a3.68 3.68 0 003.676-3.676.647.647 0 00-.013-.127h9.139a3.131 3.131 0 002.515-1.269h.8a3.665 3.665 0 00.625 3.8h-8.216a.634.634 0 100 1.267h10.989a3.674 3.674 0 003.4-5.072h1.037a.634.634 0 00.634-.634 6.216 6.216 0 00-5.976-6.2zM12.58 8.62h2.313a.634.634 0 010 1.268H12.58a.634.634 0 010-1.268zM1.267 5.957V5.84h6.938a.634.634 0 100-1.268H1.476a4.7 4.7 0 014.48-3.3h4.088a.634.634 0 01.634.634v7.347a.634.634 0 01-.634.634H1.9a.634.634 0 01-.634-.634zm2.164 5.2h1.45a9.652 9.652 0 00-.881.567zm6.835 9.632a2.411 2.411 0 01-2.384 2.408h-.1a2.411 2.411 0 01-2.332-2.411.647.647 0 00-.013-.127h4.842a.647.647 0 00-.013.127zm-6.417-1.397a4.032 4.032 0 011.5-2.558h.006a4.016 4.016 0 012.5-.862 4.064 4.064 0 014.008 3.424zM27 3.084h.634v1.267H27a.634.634 0 110-1.268zm-9.319 1.164a.381.381 0 01.38-.38h1.4v.446a1.589 1.589 0 00.031.315h-1.43a.381.381 0 01-.38-.38zm4.276.38h-.917a.315.315 0 01-.315-.315V3.168a.315.315 0 01.315-.315h3.741a.315.315 0 01.315.315v1.145a.315.315 0 01-.315.315zm7.829 16.159a2.411 2.411 0 01-2.386 2.407h-.1a2.408 2.408 0 01-1.889-3.8h3.929a2.4 2.4 0 01.446 1.4zm-5.871-2.664l2.417-4.3a4.947 4.947 0 014.808 4.3zm0 0"/>
</svg>
