<svg viewBox="0 0 24 24" xmlns="http://www.w3.org/2000/svg" fill="currentColor" focusable="false">
  <path d="M9.099 4.748c-2.95 1.189-4.976 4.126-4.872 7.455.126 4.1 3.435 7.41 7.534 7.535 3.343.145 6.266-1.921 7.456-4.874a7.977 7.977 0 01-8.15-1.967c-2.2-2.2-2.89-5.346-1.968-8.15m2.903 17.217c-.102 0-.205-.002-.309-.004-5.27-.162-9.525-4.418-9.689-9.689C1.844 7 5.83 2.492 11.08 2.007c.433-.05.856.178 1.07.56.214.383.186.855-.074 1.207a5.765 5.765 0 00.564 7.551 5.766 5.766 0 007.55.564 1.113 1.113 0 011.768.996c-.475 5.147-4.82 9.08-9.956 9.08" fill="none"/>
</svg>
