<svg xmlns="http://www.w3.org/2000/svg" viewBox="0 0 32 32" focusable="false">
  <path d="M27.627 27.267c.68 0 1.28-.227 1.787-.667l-8.613-8.613-.6.427c-.64.48-1.173.853-1.573 1.12s-.933.533-1.6.8c-.667.28-1.293.427-1.867.427h-.027c-.587 0-1.2-.133-1.867-.413s-1.2-.547-1.6-.813a39.538 39.538 0 01-2.27-1.618l.096.071L.88 26.601c.507.44 1.093.667 1.773.667zM1.667 12.573a9.166 9.166 0 01-1.713-1.472l-.007-.008V24.2l7.6-7.6c-1.533-1.067-3.48-2.4-5.88-4.027zm26.986 0a513.844 513.844 0 00-5.893 4.04l7.6 7.587V11.093a9.615 9.615 0 01-1.707 1.467zm-1.026-9.186H2.667c-.88 0-1.547.293-2.013.88S-.053 5.6-.053 6.48c0 .707.307 1.467.933 2.307a8.476 8.476 0 001.96 1.942l.026.018 3.467 2.427 2.747 1.893 1.707 1.2.253.173c.845.584 1.296.909 1.746 1.236l-.359-.249.88.547c.347.2.667.36.973.453.253.095.545.153.85.16h.03c.267 0 .547-.053.853-.16.307-.093.627-.253.973-.453a18.382 18.382 0 002.304-1.562l-.037.029.267-.173 1.707-1.2 6.213-4.32a8.15 8.15 0 002.063-2.053l.017-.027c.547-.813.827-1.667.827-2.56 0-.747-.267-1.387-.8-1.92s-1.173-.8-1.92-.8z"/>
</svg>
