<svg viewBox="0 0 24 24" xmlns="http://www.w3.org/2000/svg" focusable="false">
  <path d="M12 2c5.514 0 10 4.485 10 10 0 5.514-4.486 10-10 10a9.94 9.94 0 01-7.927-3.902.727.727 0 011.152-.888A8.493 8.493 0 0012 20.546c4.712 0 8.546-3.833 8.546-8.546 0-4.712-3.834-8.546-8.546-8.546S3.455 7.288 3.455 12c0 .438.032.873.097 1.299a.728.728 0 01-1.437.22A10.1 10.1 0 012 11.999C2 6.486 6.486 2 12 2zm-.34 5.11c.402 0 .728.325.728.727v4.446l3.424 2.042a.727.727 0 01-.744 1.25l-3.78-2.255a.73.73 0 01-.354-.625V7.837c0-.402.326-.728.727-.728z"/>
</svg>
