<svg viewBox="0 0 24 24" xmlns="http://www.w3.org/2000/svg" focusable="false">
  <path d="M16.786 10.867l-6.848 4.22a.435.435 0 01-.494-.027c-.65-.5-1.232-1.009-1.62-1.436 0 0-.334-.342-.478-.559A1.723 1.723 0 017 12.006c0-.422.123-.82.368-1.14.056-.057.268-.308.468-.513C9.005 9.077 12.055 6.97 13.66 6.33c.233-.103.856-.318 1.18-.33.311 0 .612.068.901.217.356.205.634.523.79.9.101.262.257 1.048.257 1.071.1.561.175 1.35.213 2.27a.463.463 0 01-.214.41"/>
  <path d="M16.328 13.14c.302-.187.682.052.667.41a23.853 23.853 0 01-.175 2.137c-.012.012-.167.99-.346 1.322a1.778 1.778 0 01-1.58.991h-.055c-.424-.011-1.326-.387-1.326-.41-.454-.189-1.047-.509-1.685-.894a.459.459 0 01-.007-.778l4.507-2.778z" opacity=".4"/>
</svg>
