<svg xmlns="http://www.w3.org/2000/svg" viewBox="0 0 32 32" focusable="false">
  <g transform="translate(-1063.251 -1534.686)">
    <path fill="#ec7bb0" d="M1086.751 1547.186c0 4.418-8 15-8 15s-8-10.582-8-15a8 8 0 1116 0z"/>
    <circle cx="1078.751" cy="1547.186" r="5" fill="#f2f2f2"/>
    <path fill="#62355c" style="line-height:normal;text-indent:0;text-align:start;text-decoration-line:none;text-decoration-style:solid;text-decoration-color:#000;text-transform:none;block-progression:tb;isolation:auto;mix-blend-mode:normal" d="M1078.751 1538.686c-4.688 0-8.5 3.811-8.5 8.5 0 1.255.534 2.777 1.297 4.42.764 1.643 1.773 3.394 2.78 5.003a90.37 90.37 0 004.025 5.88.5.5 0 00.797 0s2.012-2.66 4.025-5.88c1.007-1.61 2.016-3.36 2.78-5.003.763-1.643 1.296-3.165 1.296-4.42 0-4.689-3.811-8.5-8.5-8.5zm0 1c4.149 0 7.5 3.352 7.5 7.5 0 .953-.466 2.414-1.203 3.998-.736 1.583-1.727 3.306-2.72 4.894-1.788 2.858-3.236 4.77-3.577 5.225-.34-.456-1.789-2.367-3.576-5.225-.993-1.588-1.984-3.31-2.72-4.894-.737-1.584-1.204-3.045-1.204-3.998 0-4.148 3.352-7.5 7.5-7.5zm0 2a5.508 5.508 0 00-5.5 5.5c0 3.031 2.469 5.5 5.5 5.5 3.032 0 5.5-2.469 5.5-5.5 0-3.032-2.468-5.5-5.5-5.5zm0 1c2.492 0 4.5 2.008 4.5 4.5 0 2.49-2.008 4.5-4.5 4.5a4.492 4.492 0 01-4.5-4.5c0-2.492 2.01-4.5 4.5-4.5zm-.01.994a.5.5 0 00-.492.506v2.5h-2.5a.5.5 0 100 1h2.5v2.5a.5.5 0 101 0v-2.5h2.5a.5.5 0 100-1h-2.5v-2.5a.5.5 0 00-.508-.506z" color="#000" font-family="sans-serif" font-weight="400" overflow="visible"/>
  </g>
</svg>
