<svg xmlns="http://www.w3.org/2000/svg" viewBox="0 0 48 48" focusable="false">
  <path d="M24 7.3L5 8.2c-1.1.1-1.9.9-1.9 2v27c0 1.2 1 2.1 2.1 2l13.4-.8c.4 0 .8.2.9.5.3.7 1 .9 1.9.9h5c.9 0 1.6-.3 1.9-.9.1-.4.6-.6.9-.5l13.4.8c1.2.1 2.1-.8 2.1-2v-27c0-1.1-.8-1.9-1.9-2L24 7.3z" fill="#00b8f0"/>
  <path d="M43 8.2l-19-.9-19 .9c-1.1.1-1.9.9-1.9 2v3.5c0-1.1.8-1.9 1.9-2l19-.9 19 .9c1.1.1 1.9.9 1.9 2v-3.5c0-1-.8-1.9-1.9-2z" fill="#4acfff"/>
  <path d="M24 7.3L5 8.2c-1.1.1-1.9.9-1.9 2v27c0 1.2 1 2.1 2.1 2l13.4-.8c.4 0 .8.2.9.5.3.7 1 .9 1.9.9h5c.9 0 1.6-.3 1.9-.9.1-.4.6-.6.9-.5l13.4.8c1.2.1 2.1-.8 2.1-2v-27c0-1.1-.8-1.9-1.9-2L24 7.3z" fill="none" stroke="#45413C" stroke-linecap="round" stroke-linejoin="round" stroke-miterlimit="10"/>
  <path d="M25.5 37.3h-2.9c-.8 0-1.5-.7-1.5-1.5v-2h6v2c-.1.8-.8 1.5-1.6 1.5z" fill="#627b8c" stroke="#45413c" stroke-linecap="round" stroke-linejoin="round" stroke-miterlimit="10"/>
  <ellipse cx="23.9" cy="41.3" rx="17" ry="1.5" fill="#45413c" opacity=".15"/>
  <path d="M8.6 7.3L6.4 10c-.2.3-.3.7-.3 1.1v25.6L8.6 33V7.3zm30.8 0l2.2 2.7c.2.3.3.7.3 1.1v25.6L39.4 33V7.3z" fill="#FFFEF2"/>
  <path d="M6.4 10.1c-.2.3-.3.7-.3 1.1v3.5c0-.4.1-.8.3-1.1l2.2-2.7V7.3l-2.2 2.8zm35.2 0l-2.2-2.7v3.5l2.2 2.7c.2.3.3.7.3 1.1v-3.5c0-.4-.1-.8-.3-1.1z" fill="#FFF"/>
  <path d="M8.6 7.3L6.4 10c-.2.3-.3.7-.3 1.1v25.6L8.6 33V7.3zm30.8 0l2.2 2.7c.2.3.3.7.3 1.1v25.6L39.4 33V7.3z" fill="none" stroke="#45413C" stroke-linecap="round" stroke-linejoin="round" stroke-miterlimit="10"/>
  <path d="M24 34.8v-26c0-1.7-1.3-3-3-3l-11.5 1c-.5 0-.9.5-.9.5v29l12.6-.4c.5-.6 1.5-1.1 2.8-1.1zm3-29c-1.7 0-3 1.3-3 3v26c1.3 0 2.3.5 2.8 1.1l12.6.4v-29s-.4-.5-.9-.6L27 5.8z" fill="#FFFEF2"/>
  <path d="M21 5.8l-11.5 1c-.5 0-.9.5-.9.5v2.9c0-.5.4-1 .9-1L21 8.3c1.7 0 3 1.3 3 3V8.8c0-1.6-1.3-3-3-3zm17.5 1L27 5.8c-1.7 0-3 1.3-3 3v2.5c0-1.7 1.3-3 3-3l11.5.9c.5 0 .9.5.9 1V7.3s-.4-.5-.9-.5z" fill="#FFF"/>
  <path d="M24 34.8v-26c0-1.7-1.3-3-3-3l-11.5 1c-.5 0-.9.5-.9.5v29l12.6-.4c.5-.6 1.5-1.1 2.8-1.1zm3-29c-1.7 0-3 1.3-3 3v26c1.3 0 2.3.5 2.8 1.1l12.6.4v-29s-.4-.5-.9-.6L27 5.8z" fill="none" stroke="#45413C" stroke-linecap="round" stroke-linejoin="round" stroke-miterlimit="10"/>
  <path d="M24 34.8c-.2-1.4-1.5-2.5-3-2.5l-12.4.9-2.5 3.7 15.1-.9c.4-.7 1.5-1.1 2.8-1.2zm2.8 1.2l15.1.8-2.5-3.7-12.4-.8c-1.5 0-2.7 1.1-3 2.5 1.3.1 2.4.5 2.8 1.2z" fill="#FFFCE5" stroke="#45413C" stroke-linecap="round" stroke-linejoin="round" stroke-miterlimit="10"/>
  <path fill="none" stroke="#45413C" stroke-linecap="round" stroke-linejoin="round" stroke-miterlimit="10" d="M28 9.3l9 .9m-9 3l9 .8m-9 3l9 .8m-9 3l9 .9m-9 2.9l9 .9m-9 3l9 .8m-16.5-20l-9 .9m9 3l-9 .8m9 3l-9 .8m9 3l-9 .9m9 2.9l-9 .9m9 3l-9 .8"/>
</svg>
