<svg xmlns="http://www.w3.org/2000/svg" viewBox="0 0 24 24">
  <path fill="#200E32" d="M15.755 2C19.59 2 22 4.392 22 8.253v2.568a.756.756 0 01-.765.757v-.018a.765.765 0 01-.765-.765V8.253c0-3.052-1.671-4.723-4.715-4.723H8.253C5.21 3.53 3.53 5.21 3.53 8.253v7.502c0 3.035 1.68 4.715 4.723 4.715h7.502c3.044 0 4.715-1.68 4.715-4.715a.765.765 0 011.53 0C22 19.608 19.608 22 15.755 22H8.253C4.393 22 2 19.608 2 15.755V8.253C2 4.393 4.392 2 8.253 2zM12.07 13.645a.756.756 0 01.74.791v.968l-.014.12a.765.765 0 01-.778.618.774.774 0 01-.74-.791v-.968a.765.765 0 01.792-.738zm-.035-5.796c.085 0 .169.014.248.041a.765.765 0 01.544.733l-.001 2.391 2.604.001a.756.756 0 01.255.041.759.759 0 01.537.733.765.765 0 01-.748.765H8.658a.775.775 0 01-.206-.033.773.773 0 01-.586-.74.757.757 0 01.757-.766h2.638V8.614a.783.783 0 01.774-.765z"/>
</svg>
