<svg viewBox="0 0 24 24" xmlns="http://www.w3.org/2000/svg" fill="currentColor" focusable="false">
  <path d="M9.987 15.06c2.138 0 3.884 1.667 3.988 3.762l.005.198v.99c0 .547-.447.99-.998.99a.996.996 0 01-.992-.875l-.007-.115v-.99a1.987 1.987 0 00-1.847-1.975l-.15-.005H5.994a1.99 1.99 0 00-1.99 1.832l-.006.148v.99c0 .547-.447.99-.999.99a.996.996 0 01-.991-.875L2 20.01v-.99c0-2.12 1.681-3.852 3.794-3.955l.2-.005h3.993zm9.736-11.701c2.895 3.47 3.024 8.515.419 12.29a1.004 1.004 0 01-1.388.258.985.985 0 01-.26-1.376c2.111-3.06 2.007-7.133-.31-9.91a.984.984 0 01.133-1.394 1.004 1.004 0 011.406.132zM7.99 5.159c2.412 0 4.368 1.94 4.368 4.332s-1.956 4.331-4.368 4.331c-2.412 0-4.368-1.939-4.368-4.331 0-2.392 1.956-4.332 4.368-4.332zm8.307 1.959c1.073 1.568 1.07 3.628.02 5.225-.302.458-.92.587-1.383.288a.985.985 0 01-.29-1.37c.616-.935.618-2.13.001-3.031a.985.985 0 01.265-1.375 1.004 1.004 0 011.387.263zM7.99 7.14a2.361 2.361 0 00-2.371 2.35 2.361 2.361 0 002.37 2.352 2.361 2.361 0 002.372-2.351A2.361 2.361 0 007.99 7.14z" fill="none"/>
</svg>
