<svg xmlns="http://www.w3.org/2000/svg" viewBox="0 0 32 32" focusable="false">
  <path fill="#f2f2f2" d="M9.863 26.405l-1.5 2.598a.998.998 0 01-1.366.366.998.998 0 01-.366-1.366l1.5-2.598c.75-1.3-1.349-3.665-.599-4.965l9.521-16.49c1.097-1.9 3.524-2.536 5.444-1.428 1.919 1.108 2.581 3.529 1.485 5.428l-9.521 16.49c-.75 1.3-3.848.666-4.598 1.965z"/>
  <path fill="#62355c" fill-rule="evenodd" d="M20.19 1.49a4.443 4.443 0 00-3.57 2.21l-2.962 5.13a.5.5 0 00-.115.202l-1.883 3.262a.5.5 0 00-.12.203l-1.882 3.261a.5.5 0 00-.115.2l-1.887 3.267a.5.5 0 00-.113.197l-.444.768c-.27.47-.267.998-.176 1.484.092.487.271.962.44 1.42.168.458.326.899.394 1.262s.046.618-.058.799l-1.5 2.598a1.508 1.508 0 00.549 2.048 1.508 1.508 0 002.049-.548l1.5-2.598c.104-.18.313-.329.662-.451.348-.123.808-.206 1.289-.29.48-.082.982-.165 1.449-.33.467-.164.926-.425 1.197-.894L24.416 8.2c1.232-2.134.48-4.87-1.668-6.112a4.509 4.509 0 00-2.559-.597zm.062.991a3.531 3.531 0 011.996.473c1.689.975 2.261 3.082 1.3 4.746l-9.52 16.49c-.103.18-.313.328-.661.451-.349.123-.81.206-1.291.29-.481.082-.983.167-1.45.331-.466.165-.926.424-1.197.893l-1.5 2.598a.486.486 0 01-.681.181.487.487 0 01-.184-.681l1.5-2.598c.27-.47.267-.996.176-1.483-.091-.486-.271-.963-.44-1.421-.168-.459-.326-.899-.394-1.262s-.044-.619.06-.799l.25-.434.426.247a.5.5 0 10.5-.866l-.426-.246.5-.867 1.293.746a.5.5 0 10.5-.865l-1.293-.746.5-.865.426.246a.5.5 0 10.5-.868l-.426-.246.5-.865 1.293.746a.5.5 0 10.5-.867l-1.293-.746.5-.865.426.246a.5.5 0 10.5-.865l-.426-.247.5-.867 1.293.746a.5.5 0 10.5-.865l-1.293-.746.5-.867.426.246a.5.5 0 10.5-.865l-.426-.246.5-.866 1.293.746a.5.5 0 10.5-.867l-1.293-.746 1.77-3.066a3.433 3.433 0 012.766-1.719zm.236 3.025a.5.5 0 00-.44.258L10.08 23.028a.5.5 0 10.865.5l9.969-17.264a.5.5 0 00-.186-.693.5.5 0 00-.24-.065z" color="#000" font-family="sans-serif" style="line-height:normal;text-indent:0;text-align:start;text-decoration-line:none;text-decoration-style:solid;text-decoration-color:#000;text-transform:none;block-progression:tb;isolation:auto;mix-blend-mode:normal" font-weight="400" overflow="visible"/>
</svg>
