<?xml version="1.0" encoding="UTF-8"?>
<svg width="24px" height="24px" viewBox="0 0 24 24" version="1.1" xmlns="http://www.w3.org/2000/svg" xmlns:xlink="http://www.w3.org/1999/xlink">
    <title>Icons/24/Copy</title>
    <g id="Icons/24/Copy" stroke="none" stroke-width="1" fill="none" fill-rule="evenodd">
        <rect id="Container" fill-opacity="0" fill="#D8D8D8" fill-rule="nonzero" x="0" y="0" width="24" height="24"></rect>
        <g id="copy" transform="translate(4.000000, 3.000000)" fill="#404040" fill-rule="nonzero">
            <path d="M6,4 L15,4 C16.1045695,4 17,4.8954305 17,6 L17,17 C17,18.1045695 16.1045695,19 15,19 L6,19 C4.8954305,19 4,18.1045695 4,17 L4,6 C4,4.8954305 4.8954305,4 6,4 Z M6,6 L6,17 L15,17 L15,6 L6,6 Z M2,13 C2,13.5522847 1.55228475,14 1,14 C0.44771525,14 0,13.5522847 0,13 L0,3 C0,1.34314575 1.34314575,0 3,0 L11,0 C11.5522847,0 12,0.44771525 12,1 C12,1.55228475 11.5522847,2 11,2 L3,2 C2.44771525,2 2,2.44771525 2,3 L2,13 Z" id="Shape"></path>
        </g>
    </g>
</svg>