<svg xmlns="http://www.w3.org/2000/svg" viewBox="0 0 24 24" fill="currentColor" focusable="false">
  <g transform="translate(2 3)">
    <path d="M14.514 0c3.446 0 5.482 1.979 5.482 5.338v.037h-4.234c-1.97.004-3.567 1.56-3.57 3.482-.004 1.925 1.595 3.489 3.57 3.491H20v.306C20 16.014 17.964 18 14.517 18H5.484C2.036 18 0 16.014 0 12.654V5.338C0 1.978 2.036 0 5.484 0zm-4.13 3.875H4.74a.756.756 0 00-.762.744.756.756 0 00.762.748h5.65a.756.756 0 00.762-.75.757.757 0 00-.769-.742z"/>
    <path d="M14.037 9.297c.21.95 1.043 1.62 1.996 1.603h3.25a.726.726 0 00.717-.734V7.634a.728.728 0 00-.717-.734h-3.327c-1.083.003-1.958.902-1.956 2.01 0 .13.013.26.037.387" opacity=".4"/>
    <circle cx="16" cy="8.9" r="1"/>
  </g>
</svg>
