<svg viewBox="0 0 24 24" xmlns="http://www.w3.org/2000/svg" focusable="false">
  <path d="M16.302 2c1.608 0 2.995.537 4.01 1.554 1.061 1.062 1.643 2.607 1.641 4.351l.002 6.996a.756.756 0 010 .081l-.002 1.068c0 3.531-2.273 5.904-5.656 5.904H7.651c-3.38 0-5.65-2.373-5.65-5.904V7.904C2 4.373 4.27 2 7.65 2h8.651zm.277 10.832c-.588 0-1.278.973-1.889 1.832-.838 1.18-1.705 2.401-3.011 2.401-.883 0-1.692-.34-2.405-.64-1.134-.479-1.648-.632-2.151-.218-1.007.83-2.002 2.34-2.459 3.084.722.744 1.747 1.163 2.987 1.163h8.646c2.525 0 4.156-1.728 4.156-4.404v-.799l-.023-.024c-.875-.902-2.387-2.395-3.851-2.395zM16.302 3.5h-8.65C5.13 3.5 3.5 5.229 3.5 7.904v8.146c0 .669.102 1.278.294 1.816.579-.874 1.453-2.057 2.376-2.817 1.252-1.03 2.6-.464 3.686-.007.639.27 1.243.523 1.823.523.532 0 1.199-.94 1.789-1.769.819-1.156 1.749-2.464 3.111-2.464 1.495 0 2.849.919 3.875 1.83V7.904c.001-1.363-.415-2.501-1.203-3.29-.728-.729-1.747-1.114-2.949-1.114zM8.857 6.19a2.6 2.6 0 012.596 2.595 2.598 2.598 0 01-2.596 2.596 2.598 2.598 0 01-2.596-2.595A2.598 2.598 0 018.857 6.19zm0 1.5a1.096 1.096 0 10.002 2.192 1.096 1.096 0 00-.003-2.193z" fill-rule="evenodd"/>
</svg>
