<svg viewBox="0 0 24 24" xmlns="http://www.w3.org/2000/svg" focusable="false">
  <path d="M14.44 2c.02 0 .037.01.057.012h.205c.203 0 .398.084.54.233l5.05 5.311a.76.76 0 01.208.524v9.363c0 2.512-2.003 4.557-4.466 4.557H8.07c-2.606 0-4.57-1.96-4.57-4.557v-2.522c0-.417.335-.755.748-.755.412 0 .747.338.747.755v2.522c0 1.765 1.293 3.047 3.075 3.047h7.964c1.639 0 2.97-1.367 2.97-3.047v-9.06l-3.817-4.014v1.317a1.83 1.83 0 001.816 1.836c.412.001.746.34.745.757a.751.751 0 01-.747.753c-1.825-.004-3.31-1.505-3.31-3.346V3.522H8.07c-1.667 0-3.075 1.373-3.075 3v4.294a.752.752 0 01-.747.755.752.752 0 01-.748-.755V6.521c0-2.444 2.093-4.509 4.57-4.509h6.312c.02-.002.038-.012.058-.012zm-2.622 7.766c.412 0 .747.339.747.755v1.713h1.696c.413 0 .748.338.748.755a.752.752 0 01-.748.755h-1.696v1.711a.752.752 0 01-.747.756.752.752 0 01-.748-.756v-1.711H9.375a.752.752 0 01-.748-.755c0-.417.335-.755.748-.755h1.695V10.52c0-.416.335-.755.748-.755z"/>
</svg>
