<svg viewBox="0 0 24 24" xmlns="http://www.w3.org/2000/svg" focusable="false">
  <path d="M14.44 2c.02 0 .037.01.057.012h.205c.203 0 .398.084.54.233l5.05 5.311a.76.76 0 01.208.524v9.363c0 2.512-2.003 4.557-4.466 4.557h-7.86C5.555 22 3.5 19.999 3.5 17.443v-2.522c0-.417.335-.755.748-.755.412 0 .747.338.747.755v2.522c0 1.737 1.367 3.047 3.18 3.047h7.859c1.639 0 2.97-1.367 2.97-3.047v-9.06l-3.817-4.014v1.317a1.83 1.83 0 001.816 1.836c.412.001.746.34.745.757a.751.751 0 01-.747.753c-1.825-.004-3.31-1.505-3.31-3.346V3.522H7.965c-1.637 0-2.969 1.345-2.969 3v4.294a.752.752 0 01-.747.755.752.752 0 01-.748-.755V6.521c0-2.486 2.003-4.509 4.464-4.509h6.419c.02-.002.037-.012.057-.012zm-4.878 8.71a.743.743 0 011.058 0l1.198 1.212 1.2-1.212a.742.742 0 011.056 0 .76.76 0 010 1.068l-1.198 1.21 1.198 1.21a.76.76 0 010 1.069.742.742 0 01-1.057 0l-1.199-1.21-1.198 1.21a.746.746 0 01-1.058 0 .76.76 0 010-1.068l1.2-1.21-1.2-1.211a.76.76 0 010-1.068z"/>
</svg>
