<svg viewBox="0 0 24 24" xmlns="http://www.w3.org/2000/svg" focusable="false">
  <path d="M15 3a1 1 0 01.916.6l.738 1.685H19a3 3 0 012.995 2.824l.005.177V18a3 3 0 01-3 3H5a3 3 0 01-3-3V8.286a3 3 0 013-3l2.345-.001.739-1.686a1 1 0 01.785-.59L9 3zm-.655 2H9.654l-.738 1.687a1 1 0 01-.785.59L8 7.286H5a1 1 0 00-1 1V18a1 1 0 001 1h14a1 1 0 001-1V8.286a1 1 0 00-1-1h-3a1 1 0 01-.916-.6L14.345 5zM12 9a4 4 0 110 8 4 4 0 010-8zm0 2a2 2 0 100 4 2 2 0 000-4z" fill="currentColor" fill-rule="evenodd"/>
</svg>
