<svg xmlns="http://www.w3.org/2000/svg" viewBox="0 0 32 32" focusable="false" fill="currentColor">
  <path d="M7.333 9.333H22a.666.666 0 100-1.334H7.333a.666.666 0 100 1.334zm8 6.667h-8a.666.666 0 100 1.334h8a.667.667 0 100-1.334zM29.448 4c-.039 0-.076.01-.115.011V4a2.67 2.67 0 00-2.667-2.667h-24A2.67 2.67 0 00-.001 4v26a.667.667 0 001.137.472l6.471-6.471h19.057a2.67 2.67 0 002.667-2.667V10.276l1.919-1.919v-.001a2.57 2.57 0 00.747-1.804A2.555 2.555 0 0029.445 4zM28 21.333c0 .735-.598 1.333-1.333 1.333H7.334a.665.665 0 00-.471.195L1.334 28.39V3.999c0-.735.598-1.333 1.333-1.333h24c.736 0 1.333.598 1.333 1.333v.455a2.5 2.5 0 00-.357.292l-7.254 7.253H7.333a.666.666 0 100 1.334H19.32l-.64 3.203a.666.666 0 00.783.784l3.332-.667a.661.661 0 00.341-.182l4.863-4.863v9.724zm-5.663-5.947l-2.154.431.431-2.156 6.052-6.052 1.724 1.724-6.053 6.053zm7.973-7.972l-.977.977-1.724-1.724.977-.977a1.22 1.22 0 011.724 1.725z"/>
</svg>
