<svg xmlns="http://www.w3.org/2000/svg" viewBox="0 0 24 24">
  <path fill="#200E32" d="M13.164 19.085a3.47 3.47 0 011.431.356h.027a.885.885 0 01.143 1.226 3.082 3.082 0 01-2.317 1.307 3.685 3.685 0 01-2.684-.738 1.625 1.625 0 01-.698-1.164c0-.498.466-.73.895-.827a7.453 7.453 0 011.53-.16zM12.037 2c3.095 0 6.289 2.24 6.62 5.485.054.666 0 1.36.054 2.035.175.871.58 1.681 1.172 2.347.368.547.58 1.183.617 1.84v.205a3.658 3.658 0 01-.895 2.417 4.484 4.484 0 01-2.818 1.396 37.715 37.715 0 01-9.6 0 4.484 4.484 0 01-2.853-1.396 3.603 3.603 0 01-.832-2.417v-.205a3.73 3.73 0 01.6-1.84 5.126 5.126 0 001.19-2.347c.053-.675 0-1.36.053-2.035C5.685 4.24 8.815 2 11.947 2z"/>
</svg>
