<svg viewBox="0 0 24 24" xmlns="http://www.w3.org/2000/svg" focusable="false">
  <path d="M6.706 12.89a.94.94 0 00-.934.948l-.258 4.58a1.2 1.2 0 001.192 1.207c.657 0 1.19-.54 1.19-1.208l-.257-4.579a.94.94 0 00-.933-.947" opacity=".4"/>
  <path d="M7.98 3.673s-.268-.275-.434-.395A1.371 1.371 0 006.712 3c-.333 0-.642.105-.893.302-.046.046-.24.22-.4.383-1.007.952-2.654 3.435-3.157 4.736-.08.197-.251.696-.262.963 0 .254.056.499.17.73.161.29.413.523.71.65.206.082.823.21.835.21.675.128 1.773.196 2.985.196 1.155 0 2.207-.068 2.893-.173.012-.012.777-.139 1.04-.28.48-.254.779-.753.779-1.287v-.046c-.012-.348-.31-1.08-.32-1.08-.504-1.23-2.071-3.655-3.112-4.63"/>
  <path d="M17.295 11.11a.94.94 0 00.934-.948l.256-4.579c0-.668-.533-1.208-1.19-1.208a1.2 1.2 0 00-1.192 1.208l.258 4.579a.94.94 0 00.934.948" opacity=".4"/>
  <path d="M21.83 13.885a1.497 1.497 0 00-.71-.65c-.206-.081-.824-.208-.835-.208-.675-.129-1.773-.198-2.985-.198-1.155 0-2.207.07-2.893.174-.012.012-.777.14-1.04.279a1.463 1.463 0 00-.779 1.289v.046c.012.348.31 1.078.32 1.078.504 1.231 2.07 3.658 3.112 4.632 0 0 .268.275.434.394.24.186.537.279.835.279.332 0 .64-.105.892-.302.046-.046.24-.22.4-.382 1.006-.953 2.654-3.436 3.156-4.736.08-.197.252-.697.263-.963 0-.255-.056-.5-.17-.732"/>
</svg>
