<svg data-name="Layer 1" xmlns="http://www.w3.org/2000/svg" viewBox="0 0 24 24" focusable="false">
  <path d="M19.16 21.5v.01A5.033 5.033 0 0117 22H7a5.002 5.002 0 01-5-5v-1.73a.21.21 0 00.06-.04 9.936 9.936 0 016.45-2.57h.02c4.62 0 8.99 3.64 10.63 8.84z"/>
  <path d="M17 2H7a5.002 5.002 0 00-5 5v6.35a11.072 11.072 0 016.51-2.22h.02c.18 0 .37 0 .55.01a11.28 11.28 0 015.42 1.78 14.716 14.716 0 015.96 7.67A4.936 4.936 0 0022 17V7a5.002 5.002 0 00-5-5zm-.69 6.95a1.5 1.5 0 111.5-1.5 1.498 1.498 0 01-1.5 1.5z"/>
  <path d="M19.16 21.51v-.01c-1.64-5.2-6.01-8.84-10.63-8.84h-.02a9.936 9.936 0 00-6.45 2.57.21.21 0 01-.06.04v-1.92a11.072 11.072 0 016.51-2.22h.02c.18 0 .37 0 .55.01a11.28 11.28 0 015.42 1.78 14.716 14.716 0 015.96 7.67 4.725 4.725 0 01-1.3.92z"/>
  <circle cx="16.31" cy="7.45" r="1.5"/>
</svg>
