<svg xmlns="http://www.w3.org/2000/svg" viewBox="0 0 24 24" focusable="false">
  <path fill="none" d="M0 0h24v24H0z"/>
  <path d="M19.702 7.668a4.997 4.997 0 00-2.7-.79h-10a4.986 4.986 0 00-3.577 1.505 4.94 4.94 0 011.237-.955l7.26-3.847a5.005 5.005 0 016.76 2.079l.75 1.419a6.271 6.271 0 01.27.59z"/>
  <path d="M22.002 11.876v4.127a5 5 0 01-5 4.997h-10a4.994 4.994 0 01-5-4.997v-4.157a5.334 5.334 0 01.1-.98c.03-.16.08-.32.12-.48a5.012 5.012 0 014.78-3.507h10a4.995 4.995 0 015 4.997z"/>
  <path d="M1.998 11.877a4.996 4.996 0 012.66-4.449l7.265-3.846a5.002 5.002 0 016.759 2.077l.75 1.417a5.043 5.043 0 01.269.597"/>
  <rect x="1.998" y="6.88" width="20" height="14.119" rx="5"/>
  <path d="M14.718 13.939h-5.44"/>
</svg>
