<svg xmlns="http://www.w3.org/2000/svg" viewBox="0 0 32 32" focusable="false">
  <path d="M17.707 22.507H13.44a.64.64 0 01-.64-.64v-1.084c0-.356.284-.64.64-.64h4.267c.356 0 .64.284.64.64v1.084c0 .356-.284.64-.64.64zm-.996-3.485h-2.276a.445.445 0 01-.444-.426V8.071a.44.44 0 01.444-.444h2.293c.231 0 .427.196.427.444v10.524c0 .249-.178.444-.427.444zm8.498-4.035c1.564 0 3.022.498 4.196 1.369.356.267.853-.089.676-.516L25.494 4.853c-1.209-3.236-7.147-3.129-7.396 1.956v11.769c0 .444.604.604.818.213 1.215-2.279 3.576-3.804 6.293-3.804zm4.764 3.591a5.906 5.906 0 10-9.5 7.02l-.011-.016a5.906 5.906 0 109.5-7.02l.011.016zm-4.48.64a3.175 3.175 0 00-3.164 3.182.729.729 0 11-1.458 0v-.018a4.622 4.622 0 014.622-4.622.729.729 0 110 1.458zM5.92 14.987a7.018 7.018 0 00-4.196 1.369c-.356.267-.853-.089-.676-.516L5.635 4.853c1.209-3.236 7.164-3.129 7.396 1.956v11.769c0 .444-.604.604-.818.213-1.215-2.279-3.576-3.804-6.293-3.804zm4.764 3.591a5.906 5.906 0 10-9.5 7.02l-.011-.016a5.906 5.906 0 109.5-7.02l.011.016zm-4.462.64A3.179 3.179 0 003.04 22.4a.729.729 0 11-1.458 0c0-2.56 2.08-4.64 4.622-4.64a.729.729 0 110 1.458z"/>
</svg>
