<svg viewBox="0 0 24 24" xmlns="http://www.w3.org/2000/svg" focusable="false">
  <g fill-rule="evenodd">
    <path d="M6.185 14.205C-.246 6.918 2.97 4.74 3.254 4.385c3.069-3.112 3.545-1.695 5.956.752 2.03 2.07-.602 3.058.477 5.516l-3.502 3.552zm5.905-.823c3.28 2.694 4.206-1.159 6.53 1.202 2.396 2.447 3.774 2.941.735 6.043-.357.31-2.66 3.842-10.555-3.885l3.29-3.36z"/>
    <path d="M21.375 3.86v.01l-9.416 9.645-8.515 8.73a.856.856 0 01-.594.255.898.898 0 01-.605-.254.898.898 0 01-.129-1.057l.03-.04a.517.517 0 01.07-.092l17.96-18.428a.816.816 0 01.594-.265c.228 0 .446.103.605.265a.893.893 0 010 1.23" fill-rule="nonzero" opacity=".4"/>
  </g>
</svg>
