<svg xmlns="http://www.w3.org/2000/svg" viewBox="0 0 32 32">
  <path fill="#e0e0e2" d="M25.082 20.5l1.207-1.81a3.745 3.745 0 00.59-2.606 3.745 3.745 0 00-5.633-2.682l-.164.098-2.71-.712 1.849-1.102a5.745 5.745 0 017.732 8.114l-3.002 4.502z"/>
  <path fill="#2c2b2d" d="M24.951 24.802a.49.49 0 01-.153-.025.5.5 0 01-.346-.493l.13-3.802a.494.494 0 01.084-.26l1.207-1.809a3.245 3.245 0 00-1.307-4.73 3.196 3.196 0 00-3.063.148l-.165.099a.507.507 0 01-.383.053l-2.71-.712a.5.5 0 01-.13-.913l1.85-1.102a6.245 6.245 0 018.404 8.821l-3.002 4.502a.501.501 0 01-.416.223zm.626-4.143l-.066 1.902 2.026-3.039a5.243 5.243 0 00-7.059-7.408l-.827.493 1.355.356a4.245 4.245 0 015.699 6.005z"/>
  <path fill="#fdd402" d="M15.582 4v-.473A3.027 3.027 0 0118.61.5a3.027 3.027 0 013.027 3.027v.485"/>
  <path fill="#2c2b2d" d="M21.636 4.512a.5.5 0 01-.5-.5v-.486a2.527 2.527 0 00-5.054 0V4a.5.5 0 01-1 0v-.474a3.527 3.527 0 017.054 0v.486a.5.5 0 01-.5.5z"/>
  <path fill="#fdd402" d="M21.082 31.5h-5a2 2 0 01-2-2v-2.793h9V29.5a2 2 0 01-2 2z"/>
  <path fill="#2c2b2d" d="M21.082 32h-5a2.503 2.503 0 01-2.5-2.5v-2.794a.5.5 0 01.5-.5h9a.5.5 0 01.5.5V29.5a2.503 2.503 0 01-2.5 2.5zm-6.5-4.794V29.5a1.502 1.502 0 001.5 1.5h5a1.502 1.502 0 001.5-1.5v-2.294z"/>
  <path fill="#fdd402" d="M14.582 25.5h-2.681a3 3 0 01-2.995-2.813l-.765-12.25a1 1 0 00-.998-.937h-4.06l1-1.5-1-1.5 4.92.663a3 3 0 012.598 2.854l.431 10.785a1 1 0 00.723.89l2.827.808a1.5 1.5 0 010 3z"/>
  <path fill="#2c2b2d" d="M14.582 26H11.9a3.507 3.507 0 01-3.493-3.281l-.765-12.25a.5.5 0 00-.5-.469h-4.06a.5.5 0 01-.416-.777L3.481 8l-.815-1.223a.499.499 0 01-.008-.542.506.506 0 01.49-.23l4.923.663a3.495 3.495 0 013.03 3.33l.43 10.784a.5.5 0 00.361.43l2.765.789A2 2 0 0114.582 26zM4.016 9h3.127a1.502 1.502 0 011.497 1.406l.765 12.25A2.504 2.504 0 0011.9 25h2.682a1 1 0 100-2 .501.501 0 01-.137-.02l-2.827-.807a1.504 1.504 0 01-1.084-1.335L10.1 10.036a2.498 2.498 0 00-2.164-2.378l-3.825-.514.386.579a.5.5 0 010 .554z"/>
  <path fill="#fdd402" d="M16.593 6.003a3.097 3.097 0 00-.2-.603 2.412 2.412 0 00-1.705-1.394l6.948.006c-.156 4.55-.27 9.31 1.72 13.404.823 1.695 2.011 3.297 2.177 5.174a5.763 5.763 0 01-2.426 5.015 7.747 7.747 0 01-5.543 1.267 7.499 7.499 0 01-4.286-1.988 5.382 5.382 0 01-1.634-4.348c.229-1.96 1.646-3.532 2.67-5.218a16.318 16.318 0 002.038-5.45 15.47 15.47 0 00.24-5.865z"/>
  <path fill="#2c2b2d" d="M18.707 29.448a9.02 9.02 0 01-1.209-.08 8.007 8.007 0 01-4.572-2.129 5.851 5.851 0 01-1.779-4.76 9.717 9.717 0 011.954-4.217c.27-.4.54-.8.786-1.204a15.75 15.75 0 001.974-5.282 15.224 15.224 0 00.244-5.663 2.627 2.627 0 00-.167-.506 1.91 1.91 0 00-1.346-1.11.5.5 0 01.096-.991l6.948.006a.499.499 0 01.5.517c-.147 4.261-.313 9.091 1.669 13.168.212.437.448.867.685 1.296a10.441 10.441 0 011.54 4.053 6.271 6.271 0 01-2.63 5.464 8.01 8.01 0 01-4.693 1.438zM16.42 4.508a3.056 3.056 0 01.428.685 3.637 3.637 0 01.232.7 16.1 16.1 0 01-.238 6.069 16.748 16.748 0 01-2.101 5.615c-.255.42-.533.831-.812 1.244a8.858 8.858 0 00-1.79 3.773 4.913 4.913 0 001.49 3.934 7.015 7.015 0 004 1.849 7.277 7.277 0 005.184-1.177 5.254 5.254 0 002.22-4.566 9.552 9.552 0 00-1.42-3.658c-.245-.446-.49-.89-.709-1.341-2.008-4.133-1.93-8.875-1.786-13.123z"/>
  <path fill="#37b678" d="M25.22 24.81a32.048 32.048 0 01-6.02.69 31.795 31.795 0 01-7.25-.68 4.576 4.576 0 01-.32-2.07 31.895 31.895 0 007.57.75 31.87 31.87 0 006.34-.76 5.195 5.195 0 01-.32 2.07z"/>
  <path fill="#2c2b2d" d="M18.542 26.007a32.436 32.436 0 01-6.695-.697.501.501 0 01-.362-.306 5.056 5.056 0 01-.353-2.296.501.501 0 01.202-.361.51.51 0 01.405-.085A31.388 31.388 0 0019.19 23a31.32 31.32 0 006.24-.748.51.51 0 01.411.089.502.502 0 01.198.371 5.667 5.667 0 01-.35 2.269.499.499 0 01-.364.318A32.454 32.454 0 0119.21 26q-.335.007-.669.007zm-6.217-1.62A31.07 31.07 0 0019.19 25a31.533 31.533 0 005.647-.621 4.742 4.742 0 00.197-1.019 32.53 32.53 0 01-5.824.64 32.551 32.551 0 01-7.087-.634 4.125 4.125 0 00.202 1.022zm12.895.423z"/>
  <path fill="#37b678" d="M21.64 4.01c-.03.79-.05 1.59-.07 2.39v.1h-4.89a4.02 4.02 0 00-.09-.5 2.648 2.648 0 00-.2-.6 2.414 2.414 0 00-1.7-1.39z"/>
  <path fill="#2c2b2d" d="M21.57 7h-4.89a.5.5 0 01-.496-.441 3.62 3.62 0 00-.079-.438 2.27 2.27 0 00-.167-.507A1.924 1.924 0 0014.593 4.5a.5.5 0 01.097-.99h6.95a.5.5 0 01.5.52c-.03.786-.05 1.584-.07 2.383a.596.596 0 01-.5.587zm-4.466-1h3.976c.012-.498.025-.996.042-1.49h-4.705a3.075 3.075 0 01.428.682 3.116 3.116 0 01.235.71l.024.098z"/>
</svg>
