<svg viewBox="0 0 24 24" xmlns="http://www.w3.org/2000/svg" focusable="false">
  <path d="M18.809 9.021c-.452 0-1.05-.01-1.794-.01-1.816 0-3.31-1.503-3.31-3.336V2.459A.456.456 0 0013.254 2h-5.29C5.496 2 3.5 4.026 3.5 6.509v10.775C3.5 19.889 5.59 22 8.17 22h7.876c2.46 0 4.454-2.013 4.454-4.498V9.471a.453.453 0 00-.453-.458c-.422.003-.93.008-1.238.008" opacity=".4"/>
  <path d="M16.084 2.567a.477.477 0 00-.821.334v2.637c0 1.106.911 2.016 2.017 2.016.697.008 1.665.01 2.487.008a.477.477 0 00.343-.808l-4.026-4.187" opacity=".4"/>
  <path d="M14.418 14.893a.746.746 0 010 1.489H8.974a.744.744 0 110-1.49h5.444zm-2.06-4.994a.746.746 0 010 1.489H8.975a.744.744 0 110-1.49h3.385z"/>
</svg>
