<svg xmlns="http://www.w3.org/2000/svg" viewBox="0 0 32 32">
  <g transform="translate(1.007 -1021.363)">
    <path fill="#92d9f7" fill-rule="evenodd" d="M10.5 1032.276v-3.614h9v3.614"/>
    <rect width="13" height="3.003" x="8.5" y="1025.859" fill="#89b9d8" rx="0" ry="0"/>
    <rect width="15.014" height="18.001" x="7.503" y="1031.862" fill="#92d9f7" rx="0" ry="2.7"/>
    <path fill="#ec7bb0" d="M22.5 1045.862h-15v-10h15z"/>
    <path fill="#f2f2f2" d="M14.01 1037.862v2h-2v2h2v2h2v-2h2v-2h-2v-2h-2z"/>
    <path fill="#62355c" d="M8.5 1025.36a.5.5 0 00-.5.5v3.001a.5.5 0 00.5.5H19v2h-8.798a3.204 3.204 0 00-3.199 3.202v1.199a.5.5 0 000 .195v9.805a.5.5 0 000 .195v1.205a3.204 3.204 0 003.2 3.201h9.613a3.206 3.206 0 003.2-3.2v-12.6a3.196 3.196 0 00-3.017-3.182v-2.02h1.5a.5.5 0 00.5-.5v-3.001a.5.5 0 00-.5-.5h-13zm.5 1h12v2.001H9v-2.001zm1.202 6.001h9.614c1.227 0 2.2.974 2.2 2.202v.798H8.004v-.798c0-1.228.972-2.202 2.2-2.202zm-2.199 4h14.014v9H8.003v-9zm6.006 1a.5.5 0 00-.5.5v1.5h-1.5a.5.5 0 00-.5.5v2a.5.5 0 00.5.5h1.5v1.5a.5.5 0 00.5.5h2a.5.5 0 00.5-.5v-1.5h1.5a.5.5 0 00.5-.5v-2a.5.5 0 00-.5-.5h-1.5v-1.5a.5.5 0 00-.5-.5h-2zm.5 1h1v1.5a.5.5 0 00.5.5h1.5v1h-1.5a.5.5 0 00-.5.5v1.5h-1v-1.5a.5.5 0 00-.5-.5h-1.5v-1h1.5a.5.5 0 00.5-.5v-1.5zm-6.506 8h14.014v.801a2.186 2.186 0 01-2.201 2.201h-9.614a2.184 2.184 0 01-2.199-2.2v-.802z" color="#000" font-family="sans-serif" font-weight="400" overflow="visible" style="line-height:normal;text-indent:0;text-align:start;text-decoration-line:none;text-decoration-style:solid;text-decoration-color:#000;text-transform:none;block-progression:tb;isolation:auto;mix-blend-mode:normal"/>
    <path fill="#62355c" fill-rule="evenodd" d="M10 1028.662v3.613h1v-3.613h-1z" color="#000" font-family="sans-serif" font-weight="400" overflow="visible" style="line-height:normal;text-indent:0;text-align:start;text-decoration-line:none;text-decoration-style:solid;text-decoration-color:#000;text-transform:none;block-progression:tb;isolation:auto;mix-blend-mode:normal"/>
  </g>
</svg>
