<svg xmlns="http://www.w3.org/2000/svg" viewBox="0 0 32 32">
  <path fill="#f2f2f2" d="M14.458 10.556a5 5 0 018.872 4.238C22.47 18 21 18 20.5 23a1.5 1.5 0 11-3 0v-2.833c0-.92-.671-1.667-1.5-1.667s-1.5.746-1.5 1.667V23a1.5 1.5 0 11-3 0c-.393-5-1.97-5-2.83-8.206A5 5 0 0116 9.17"/>
  <path fill="#62355c" d="M13.141 8.014a5.493 5.493 0 00-2.988 1.12 5.483 5.483 0 00-1.447 1.694c-1.07.286-1.935.624-2.568 1.031-.649.417-1.116.941-1.137 1.598-.022.657.422 1.203 1.049 1.627.622.42 1.48.768 2.554 1.062.389.94.835 1.603 1.217 2.315.53.986.99 2.13 1.182 4.578L11 23c0 .713.382 1.377 1 1.733a2.003 2.003 0 002 0c.618-.356 1-1.02 1-1.734v-2.83c0-.677.471-1.17 1-1.17s1 .493 1 1.17v2.83c0 .714.382 1.378 1 1.734a2.003 2.003 0 002 0c.618-.356 1-1.02 1-1.734l-.002.053c.245-2.452.706-3.605 1.224-4.594.375-.715.803-1.379 1.182-2.318a12.4 12.4 0 001.535-.52c.765-.328 1.326-.688 1.686-1.137.36-.448.472-1.056.25-1.56-.223-.505-.678-.89-1.3-1.235-.59-.328-1.363-.615-2.294-.863a5.46 5.46 0 00-2.41-2.287c-1.595-.762-3.379-.626-4.87.143-.902-.465-1.882-.73-2.86-.666zm.065.996c.592-.04 1.161.206 1.732.404-.307.267-.635.505-.882.846-.395.539.414 1.13.808.592a4.494 4.494 0 015.576-1.413 4.494 4.494 0 012.407 5.225c-.064.236-.136.425-.206.627-2.975.71-7.324.928-11.052.426-.687-.124-.828.928-.133.99 3.58.482 7.624.371 10.719-.264-.265.531-.547.996-.836 1.547-.557 1.063-1.081 2.413-1.336 4.961A.496.496 0 0020 23a1 1 0 11-2 .002V20.17c0-1.164-.871-2.168-2-2.168-1.13 0-2 1.004-2 2.168v2.834a1 1 0 11-2-.002l-.002-.04c-.2-2.551-.725-3.906-1.297-4.972-.572-1.065-1.137-1.793-1.547-3.322a4.495 4.495 0 011.606-4.734 4.497 4.497 0 012.445-.922V9.01zm10.59 3.02c.51.17.966.347 1.297.53.513.285.786.577.869.766.083.189.078.29-.115.531-.194.242-.624.553-1.301.844-.22.095-.49.178-.746.264.004-.015.01-.026.013-.041a5.478 5.478 0 00-.017-2.895zm-15.582.007a5.477 5.477 0 00-.026 2.887c.004.013.009.02.012.033-.662-.224-1.232-.461-1.59-.703-.481-.325-.615-.592-.61-.766.007-.173.17-.46.679-.787.358-.23.906-.453 1.535-.664z" color="#000" font-family="sans-serif" font-weight="400" overflow="visible" style="line-height:normal;text-indent:0;text-align:start;text-decoration-line:none;text-decoration-style:solid;text-decoration-color:#000;text-transform:none;block-progression:tb;isolation:auto;mix-blend-mode:normal"/>
  <path fill="#f8f8f8" style="line-height:normal;text-indent:0;text-align:start;text-decoration-line:none;text-decoration-style:solid;text-decoration-color:#000;text-transform:none;block-progression:tb;isolation:auto;mix-blend-mode:normal" d="M19.24 10.596v.002c-.579.02-.667.842-.106.984A2.493 2.493 0 0121 13.998c-.01.676 1.01.676 1 0a3.5 3.5 0 00-2.613-3.383.5.5 0 00-.149-.02z" color="#000" font-family="sans-serif" font-weight="400" overflow="visible"/>
</svg>
