<svg xmlns="http://www.w3.org/2000/svg" viewBox="0 0 24 24" focusable="false">
  <path fill="none" d="M0 0h24v24H0z"/>
  <path d="M19.503 8.46l-1.426-.242a2.804 2.804 0 01-2.295-2.294l-.242-1.426A3 3 0 0012.582 2h-1.164A3 3 0 008.46 4.498l-.242 1.426a2.804 2.804 0 01-2.294 2.294l-1.426.242A3 3 0 002 11.418v1.164a3 3 0 002.498 2.958l1.426.242a2.804 2.804 0 012.294 2.295l.242 1.426A3 3 0 0011.418 22h1.164a3 3 0 002.958-2.497l.242-1.426a2.804 2.804 0 012.295-2.295l1.426-.242A3 3 0 0022 12.582v-1.164a3 3 0 00-2.497-2.958z" fill="#001975" opacity=".1"/>
  <path d="M19.503 8.46l-1.426-.242a2.804 2.804 0 01-2.295-2.294l-.242-1.426A3 3 0 0012.582 2h-1.164A3 3 0 008.46 4.498l-.242 1.426a2.804 2.804 0 01-2.294 2.294l-1.426.242A3 3 0 002 11.418v1.164a3 3 0 002.498 2.958l1.426.242a2.804 2.804 0 012.294 2.295l.242 1.426A3 3 0 0011.418 22h1.164a3 3 0 002.958-2.497l.242-1.426a2.804 2.804 0 012.295-2.295l1.426-.242A3 3 0 0022 12.582v-1.164a3 3 0 00-2.497-2.958z"/>
  <circle cx="12" cy="12" r="1.75"/>
</svg>
