<svg viewBox="0 0 24 24" xmlns="http://www.w3.org/2000/svg" focusable="false">
  <path d="M3.373 7.163a.798.798 0 01.59.116c.34.227.44.675.224 1.019l-.057.11a1.05 1.05 0 00.462 1.339c.391.234.714.564.935.957.69 1.237.262 2.784-.971 3.514a1.05 1.05 0 00-.405 1.45l.62 1.044c.142.25.381.431.663.504.282.073.582.03.83-.117a2.648 2.648 0 011.323-.343c1.49 0 2.698 1.18 2.698 2.635a1.085 1.085 0 001.098 1.063l-.01.018c.28 0 .539.145.678.382.14.236.14.527 0 .764a.786.786 0 01-.677.382c-1.49 0-2.699-1.18-2.699-2.635a.992.992 0 00-.144-.527 1.112 1.112 0 00-1.493-.395l-.16.078c-1.236.559-2.721.127-3.438-1.027l-.61-1.044c-.69-1.237-.262-2.784.971-3.514.164-.093.3-.226.396-.386.18-.246.245-.554.178-.85a1.065 1.065 0 00-.529-.696l-.15-.095a2.597 2.597 0 01-.821-3.418l.076-.095c.112-.119.26-.2.423-.232zm16.129 2.539a.81.81 0 01.956.335c.22.361.1.829-.27 1.045-.163.094-.3.227-.395.387a1.041 1.041 0 00-.113.81c.074.273.257.506.509.648 1.272.745 1.69 2.354.935 3.6l-.612 1.046-.097.147c-.781 1.09-2.287 1.447-3.5.802a1.102 1.102 0 00-1.098-.01 1.05 1.05 0 00-.54.932.785.785 0 01-.787.69.785.785 0 01-.787-.69 2.63 2.63 0 011.346-2.227 2.755 2.755 0 012.648-.03 1.093 1.093 0 001.493-.387l.612-1.045c.146-.243.186-.533.112-.805a1.058 1.058 0 00-.508-.644 2.57 2.57 0 01-.98-1.046c-.69-1.236-.262-2.783.971-3.513zm-7.508-1a3.415 3.415 0 012.391.961c.635.618.991 1.458.991 2.333l-.005.2a3.308 3.308 0 01-2.076 2.857 3.442 3.442 0 01-3.689-.71 3.246 3.246 0 01-.737-3.6c.523-1.236 1.757-2.041 3.125-2.041zm0 1.546c-.993 0-1.799.786-1.799 1.756s.806 1.757 1.8 1.757c.993 0 1.798-.786 1.798-1.757l-.006-.144c-.075-.902-.849-1.612-1.793-1.612zM12.615 2c1.49 0 2.698 1.18 2.698 2.635a.992.992 0 00.144.527c.144.247.382.428.662.502.28.074.58.036.831-.107 1.267-.673 2.851-.255 3.598.949a.772.772 0 01-.288 1.045.802.802 0 01-1.07-.272l-.07-.104a1.115 1.115 0 00-1.423-.283 2.755 2.755 0 01-2.644-.028 2.626 2.626 0 01-1.35-2.22 1.05 1.05 0 00-.305-.775 1.101 1.101 0 00-.783-.323h-1.232c-.296 0-.58.116-.786.323a1.058 1.058 0 00-.312.775 2.582 2.582 0 01-1.343 2.23 2.709 2.709 0 01-2.65-.017l-.036-.035-.087-.06a.753.753 0 01-.165-.994.795.795 0 011.08-.246c.163.094.35.145.539.15.291.011.575-.09.79-.283.214-.193.34-.46.352-.745C8.76 3.215 9.921 2.043 11.383 2z"/>
</svg>
