<svg xmlns="http://www.w3.org/2000/svg" viewBox="0 0 32 32" focusable="false">
  <path fill="#67acd5" d="M12.7 23.7l-1.8-.6c-.4 1.5-2.9 2.6-2.9 2.6s-2.5-1.1-2.9-2.6l-1.8.6c-1.1.4-1.8 1.3-1.8 2.5v2.3h13v-2.3c0-1.1-.7-2.1-1.8-2.5z"/>
  <path fill="#5791d1" d="M14.5 28.5v-2.3c0-.5-.1-.9-.4-1.3-1.5.2-2.7 1.5-2.7 3.1v.5h3.1zm-13 0v-2.3c0-.5.1-.9.4-1.3 1.5.2 2.7 1.5 2.7 3.1v.5H1.5z"/>
  <path fill="#a17852" d="M3.5 23.5V17c0-2.5 2-4.5 4.5-4.5s4.5 2 4.5 4.5v6.5"/>
  <path fill="#fed8aa" d="M5.1 23.1c.4 1.5 2.9 2.6 2.9 2.6s2.5-1.1 2.9-2.6l1.8.6-2.9-1v-2H6.2v2l-1.1.4z"/>
  <path fill="#fed8aa" d="M10.5 17.5V19c0 1.4-1.1 2.5-2.5 2.5S5.5 20.4 5.5 19v-1.5"/>
  <path fill="#40455a" d="M8 22c-1.7 0-3-1.3-3-3v-1.5c0-.3.2-.5.5-.5s.5.2.5.5V19c0 1.1.9 2 2 2s2-.9 2-2v-1.5c0-.3.2-.5.5-.5s.5.2.5.5V19c0 1.7-1.3 3-3 3z"/>
  <path fill="#40455a" d="M14.5 29h-13c-.3 0-.5-.2-.5-.5v-2.3c0-1.3.9-2.5 2.1-2.9l2.6-.8v-1.7c0-.3.2-.5.5-.5s.5.2.5.5v2c0 .2-.1.4-.3.5l-2.9 1c-.9.3-1.4 1.1-1.4 2V28h12v-1.8c0-.9-.6-1.7-1.4-2l-2.9-1c-.2-.1-.3-.3-.3-.5v-2c0-.3.2-.5.5-.5s.5.2.5.5v1.7l2.6.8c1.3.4 2.1 1.6 2.1 2.9v2.3c-.2.4-.4.6-.7.6z"/>
  <path fill="#40455a" d="M14.5 29h-3.1c-.3 0-.5-.2-.5-.5V28c0-1.8 1.4-3.4 3.2-3.6.2 0 .4.1.5.2.3.5.4 1 .4 1.6v2.3c0 .3-.2.5-.5.5zm-2.6-1H14v-1.8c0-.3-.1-.5-.2-.8-1.1.3-1.9 1.4-1.9 2.6zm-7.3 1H1.5c-.3 0-.5-.2-.5-.5v-2.3c0-.6.2-1.1.4-1.6.1-.2.3-.3.5-.2 1.8.2 3.2 1.8 3.2 3.6v.5c0 .3-.2.5-.5.5zM2 28h2.1c0-1.2-.8-2.2-2-2.5 0 .2-.1.4-.1.7V28zm10.5-4c-.3 0-.5-.2-.5-.5V17c0-2.2-1.8-4-4-4s-4 1.8-4 4v6.5c0 .3-.2.5-.5.5s-.5-.2-.5-.5V17c0-2.8 2.2-5 5-5s5 2.2 5 5v6.5c0 .3-.2.5-.5.5z"/>
  <path fill="#40455a" d="M6 18h-.5c-.3 0-.5-.2-.5-.5s.2-.5.5-.5H6c.3 0 .5-.2.5-.5s.2-.5.5-.5.5.2.5.5c0 .8-.7 1.5-1.5 1.5z"/>
  <path fill="#40455a" d="M10.5 18H8c-.8 0-1.5-.7-1.5-1.5v-1c0-.3.2-.5.5-.5s.5.2.5.5v1c0 .3.2.5.5.5h2.5c.3 0 .5.2.5.5s-.2.5-.5.5zm4 11h-13c-.3 0-.5-.2-.5-.5v-2.3c0-1.3.9-2.5 2.1-2.9l1.8-.6h.4c.1.1.2.2.2.3.3.9 1.7 1.8 2.4 2.2.7-.4 2.2-1.2 2.4-2.2 0-.1.1-.2.2-.3.1-.1.3-.1.4 0l1.8.6c1.3.4 2.1 1.6 2.1 2.9v2.3c.2.3 0 .5-.3.5zM2 28h12v-1.8c0-.9-.6-1.7-1.4-2l-1.4-.4c-.8 1.4-2.8 2.3-3 2.4-.1.1-.3.1-.4 0-.2-.1-2.2-1-3-2.4l-1.4.4c-.9.3-1.4 1.1-1.4 2V28z"/>
  <path fill="#fff" d="M9.5 3.5h-7c-.6 0-1 .4-1 1v4c0 .6.4 1 1 1h1v2l3-2h3c.6 0 1-.4 1-1v-4c0-.5-.4-1-1-1zm13 0h7c.6 0 1 .4 1 1v4c0 .6-.4 1-1 1h-1v2l-3-2h-3c-.6 0-1-.4-1-1v-4c0-.5.4-1 1-1z"/>
  <path fill="#40455a" d="M8.4 6h-5c-.2 0-.5-.2-.5-.5s.3-.5.5-.5h5c.3 0 .5.2.5.5s-.2.5-.5.5zm-2 2h-3c-.2 0-.5-.2-.5-.5s.3-.5.5-.5h3c.3 0 .5.2.5.5s-.2.5-.5.5z"/>
  <path fill="#40455a" d="M3.5 12c-.1 0-.2 0-.2-.1-.2 0-.3-.2-.3-.4V10h-.5C1.7 10 1 9.3 1 8.5v-4C1 3.7 1.7 3 2.5 3h7c.8 0 1.5.7 1.5 1.5v4c0 .8-.7 1.5-1.5 1.5H6.7l-2.9 1.9c-.1.1-.2.1-.3.1zm-1-8c-.3 0-.5.2-.5.5v4c0 .3.2.5.5.5h1c.3 0 .5.2.5.5v1.1l2.2-1.5c.1-.1.2-.1.3-.1h3c.3 0 .5-.2.5-.5v-4c0-.3-.2-.5-.5-.5h-7zm7 16.3h-1c-.3 0-.5-.2-.5-.5s.2-.5.5-.5h1c.3 0 .5-.2.5-.5v-.7c0-.3.2-.5.5-.5s.5.2.5.5v.7c0 .9-.7 1.5-1.5 1.5z"/>
  <path fill="#a3d86b" d="M22.2 22.8l-2.9 1c-1.1.4-1.8 1.3-1.8 2.5v2.3h13v-2.3c0-1.1-.7-2.1-1.8-2.5l-2.9-1"/>
  <path fill="#a3d86b" d="M30.5 28.5v-2.3c0-.5-.1-.9-.4-1.3-1.5.2-2.7 1.5-2.7 3.1v.5h3.1zm-13 0v-2.3c0-.5.1-.9.4-1.3 1.5.2 2.7 1.5 2.7 3.1v.5h-3.1z"/>
  <path fill="#fed8aa" d="M22.2 21.2v1.3c0 1 1.8 1.8 1.8 1.8s1.8-.8 1.8-1.8v-1.3"/>
  <path fill="#fed8aa" d="M20.5 15.1V18c0 1.9 1.6 3.5 3.5 3.5s3.5-1.6 3.5-3.5v-2.9h-7z"/>
  <path fill="#a17852" d="M27.5 17.3l.6-1.8c.2-.8-.4-1.6-1.3-1.6 0-1-.9-1.7-1.8-1.6l-3.8.6c-.9.1-1.5 1-1.3 1.9l.6 2.5 1.3-1c.2-.1.4-.2.6-.2h3.3c.2 0 .5.1.6.2l1.2 1z"/>
  <path fill="#40455a" d="M24 24.8h-.2c-.2-.1-2.1-1-2.1-2.3v-1.3c0-.3.2-.5.5-.5s.5.2.5.5v1.3c0 .4.7.9 1.3 1.3.6-.3 1.3-.9 1.3-1.3v-1.3c0-.3.2-.5.5-.5s.5.2.5.5v1.3c0 1.3-1.9 2.2-2.1 2.3H24z"/>
  <path fill="#40455a" d="M24 22.1c-2.2 0-4-1.8-4-4v-.9c0-.3.2-.5.5-.5s.5.2.5.5v.9c0 1.7 1.3 3 3 3s3-1.3 3-3v-.9c0-.3.2-.5.5-.5s.5.2.5.5v.9c0 2.2-1.8 4-4 4z"/>
  <path fill="#40455a" d="M27.5 17.8c-.1 0-.2 0-.3-.1l-1.2-1c-.1-.1-.2-.1-.3-.1h-3.3c-.1 0-.2 0-.3.1l-1.3 1c-.1.1-.3.1-.5.1-.2-.1-.3-.2-.3-.4l-.6-2.4c-.1-.6 0-1.2.3-1.6s.8-.8 1.4-.9l3.8-.6c.6-.1 1.2.1 1.7.5.4.3.6.7.7 1.2.4.1.7.3.9.6.3.4.5 1 .4 1.5l-.6 1.8c-.1.2-.2.3-.3.3h-.2zm-5.1-2.3h3.3c.3 0 .7.1 1 .3l.7.6.4-1.1c0-.2 0-.4-.2-.6-.2-.2-.4-.3-.6-.3-.3 0-.5-.2-.5-.5 0-.4-.1-.7-.4-.9-.2-.2-.6-.3-.9-.2l-3.8.6c-.3 0-.6.2-.7.5-.2.2-.2.5-.2.8l.4 1.7.6-.5c.2-.3.5-.4.9-.4zM30.5 29h-13c-.3 0-.5-.2-.5-.5v-2.3c0-1.3.9-2.5 2.1-2.9l2.9-1c.3-.1.5.1.6.3s-.1.5-.3.6l-2.9 1c-.9.3-1.4 1.1-1.4 2V28h12v-1.8c0-.9-.6-1.7-1.4-2l-2.9-1c-.3-.1-.4-.4-.3-.6s.4-.4.6-.3l2.9 1c1.3.4 2.1 1.6 2.1 2.9v2.3c0 .3-.2.5-.5.5z"/>
  <path fill="#40455a" d="M30.5 29h-3.1c-.3 0-.5-.2-.5-.5V28c0-1.8 1.4-3.4 3.2-3.6.2 0 .4.1.5.2.3.5.4 1 .4 1.6v2.3c0 .3-.2.5-.5.5zm-2.6-1H30v-1.8c0-.3-.1-.5-.2-.8-1.1.3-1.9 1.4-1.9 2.6zm-7.3 1h-3.1c-.3 0-.5-.2-.5-.5v-2.3c0-.6.2-1.1.4-1.6.1-.2.3-.3.5-.2 1.8.2 3.2 1.8 3.2 3.6v.5c0 .3-.2.5-.5.5zM18 28h2.1c0-1.2-.8-2.2-2-2.5-.1.2-.2.5-.2.8V28zM28.6 6c.3 0 .5-.2.5-.5s-.2-.5-.5-.5h-5c-.3 0-.5.2-.5.5s.2.5.5.5h5zm-2 2c.3 0 .5-.2.5-.5s-.2-.5-.5-.5h-3c-.3 0-.5.2-.5.5s.2.5.5.5h3z"/>
  <path fill="#40455a" d="M28.5 12c-.1 0-.2 0-.3-.1L25.4 10h-2.8c-.9 0-1.6-.7-1.6-1.5v-4c0-.8.7-1.5 1.5-1.5h7c.8 0 1.5.7 1.5 1.5v4c0 .8-.7 1.5-1.5 1.5H29v1.5c0 .2-.1.4-.3.4 0 .1-.1.1-.2.1zm-6-8c-.3 0-.5.2-.5.5v4c0 .3.2.5.5.5h3c.1 0 .2 0 .3.1l2.2 1.5V9.5c0-.3.2-.5.5-.5h1c.3 0 .5-.2.5-.5v-4c0-.3-.2-.5-.5-.5h-7z"/>
</svg>
