<svg viewBox="0 0 24 24" xmlns="http://www.w3.org/2000/svg" focusable="false">
  <path d="M12.235 4.039c1.626-1.028 3.786-1.312 5.652-.714 4.059 1.309 5.319 5.734 4.192 9.255-1.74 5.53-9.166 9.655-9.481 9.828a.743.743 0 01-.72.002c-.312-.171-7.685-4.235-9.482-9.829l-.001-.001c-1.128-3.522.128-7.948 4.183-9.255a6.729 6.729 0 015.657.714zm-5.197.714c-3.281 1.058-4.105 4.587-3.214 7.37 1.402 4.362 6.94 7.889 8.413 8.762 1.477-.882 7.056-4.448 8.413-8.758.89-2.786.064-6.315-3.222-7.374-1.592-.511-3.45-.2-4.731.792a.75.75 0 01-.91.006 5.234 5.234 0 00-4.75-.798zm9.43 1.986a3.525 3.525 0 012.435 3.075.75.75 0 01-1.496.122 2.024 2.024 0 00-1.4-1.77.75.75 0 01.46-1.427z" fill-rule="evenodd"/>
</svg>
