<svg viewBox="0 0 24 24" xmlns="http://www.w3.org/2000/svg" focusable="false">
  <path d="M6.657 2c1.117.015 1.913.852 2.92 1.911.25.261.519.546.82.846 1.458 1.46 1.043 2.651.708 3.607-.364 1.043-.678 1.943 1.207 3.83 1.886 1.885 2.786 1.57 3.828 1.203.956-.334 2.144-.752 3.606.708.297.297.577.563.837.81 1.063 1.012 1.903 1.811 1.918 2.931.01.954-.57 1.928-2.002 3.36l-.634-.43.537.523c-.317.325-1.16 1.191-2.81 1.201h-.03c-2.493 0-5.742-1.984-9.658-5.899C3.972 12.671 1.985 9.411 2 6.914c.01-1.65.874-2.495 1.2-2.812l.027-.03.067-.068C4.73 2.57 5.715 1.98 6.657 2zm-.019 1.5H6.63c-.449 0-1.13.45-2.082 1.374l-.19.188h.002a.61.61 0 01-.045.046l-.067.067c-.242.235-.743.724-.748 1.747-.008 1.431.933 4.088 5.464 8.618 4.51 4.508 7.162 5.46 8.598 5.46h.02c1.024-.006 1.512-.507 1.747-.748a2.12 2.12 0 01.17-.16c.997-1.004 1.507-1.749 1.502-2.228-.006-.488-.613-1.064-1.452-1.863a43.95 43.95 0 01-.863-.836c-.794-.79-1.185-.656-2.05-.352-1.195.42-2.832.993-5.383-1.56C8.7 10.703 9.273 9.065 9.69 7.87c.302-.864.44-1.257-.353-2.05-.31-.31-.59-.605-.846-.875C7.697 4.11 7.124 3.507 6.639 3.5zm8.609 2.058A5.153 5.153 0 0119.34 9.65a.75.75 0 11-1.472.288A3.66 3.66 0 0014.96 7.03a.75.75 0 11.286-1.472zm-.06-3.552A8.671 8.671 0 0122.889 9.7a.75.75 0 01-1.49.168 7.181 7.181 0 00-6.378-6.37.75.75 0 01-.662-.829.743.743 0 01.828-.662z" fill-rule="evenodd"/>
</svg>
