<svg viewBox="0 0 24 24" xmlns="http://www.w3.org/2000/svg" focusable="false">
  <g stroke="#000" stroke-width="1.5" fill="none" fill-rule="evenodd" stroke-linecap="round" stroke-linejoin="round">
    <path d="M9.76 14.367a3.123 3.123 0 01-.924-2.23A3.16 3.16 0 0112 8.973c.867 0 1.665.35 2.23.925m.875 2.801a3.158 3.158 0 01-2.537 2.542"/>
    <path d="M6.655 17.472c-1.587-1.246-2.931-3.066-3.905-5.335.984-2.279 2.337-4.109 3.934-5.365C8.27 5.516 10.102 4.834 12 4.834c1.909 0 3.739.692 5.336 1.957m2.112 2.199a15.359 15.359 0 011.802 3.147c-1.967 4.557-5.443 7.302-9.25 7.302-.863 0-1.714-.14-2.532-.413M19.887 4.25L4.113 20.024"/>
  </g>
</svg>
