<svg data-name="Layer 1" xmlns="http://www.w3.org/2000/svg" viewBox="0 0 24 24" focusable="false">
  <path d="M11.996 13a3.322 3.322 0 01-1.093-.185L3.16 10.13a1.726 1.726 0 010-3.26l7.75-2.686a3.332 3.332 0 012.183 0L20.84 6.87a1.726 1.726 0 010 3.261l-7.753 2.686a3.335 3.335 0 01-1.091.183z" fill="#ffb531"/>
  <path d="M13.257 14.441a3.854 3.854 0 01-2.524 0L6.006 12.8a.877.877 0 00-1.165.83v2.072a2.632 2.632 0 001.724 2.47l4.527 1.665a2.632 2.632 0 001.816 0l4.527-1.664a2.632 2.632 0 001.724-2.47v-2.075a.877.877 0 00-1.164-.83z" fill="#030835"/>
</svg>
