<svg xmlns="http://www.w3.org/2000/svg" viewBox="0 0 32 32" fill="currentColor" focusable="false">
  <path d="M28.506 30.738H3.405a1.023 1.023 0 01-1.024-1.024v-16.39a1.023 1.023 0 112.048 0V28.69h23.053V13.324a1.023 1.023 0 112.048 0v16.39c0 .566-.458 1.024-1.024 1.024zm-8.711-.968a1.023 1.023 0 01-1.024-1.024v-8.384h-5.824v8.384a1.023 1.023 0 11-2.048 0v-9.408c0-.566.458-1.024 1.024-1.024h7.872c.566 0 1.024.458 1.024 1.024v9.408c0 .566-.458 1.024-1.024 1.024zm5.507-14.62a5.568 5.568 0 01-4.616-2.458l-.013-.02a5.57 5.57 0 01-9.341-.129l-.014-.023a5.574 5.574 0 01-4.726 2.622A5.57 5.57 0 011.023 9.58V2.432c0-.566.458-1.024 1.024-1.024h27.802c.566 0 1.024.458 1.024 1.024V9.58a5.577 5.577 0 01-5.572 5.571zm-4.709-6.594h.161c.566 0 1.024.458 1.024 1.024a3.524 3.524 0 007.04.006V3.455H3.072v6.124a3.524 3.524 0 007.04.006v-.007c0-.566.458-1.024 1.024-1.024h.358c.566 0 1.024.458 1.024 1.024a3.524 3.524 0 007.04.006v-.007c0-.566.458-1.024 1.024-1.024h.011-.001z"/>
</svg>
