<svg viewBox="0 0 24 24" xmlns="http://www.w3.org/2000/svg" focusable="false">
  <path d="M2.502 12c-.003 1.23-.058 2.907.703 3.534.71.585 1.209.434 2.504.53 1.297.095 4.033 3.906 6.142 2.7 1.088-.855 1.17-2.649 1.17-6.764s-.082-5.909-1.17-6.764C9.742 4.029 7.006 7.84 5.71 7.937c-1.295.095-1.794-.055-2.504.53-.76.626-.706 2.303-.703 3.533zm17.082-6.096a10.656 10.656 0 010 12.192m-2.503-9.782a7.398 7.398 0 010 7.372" stroke="#000" stroke-width="1.5" fill="none" stroke-linecap="round" stroke-linejoin="round"/>
</svg>
