<svg xmlns="http://www.w3.org/2000/svg" viewBox="0 0 48 48">
  <ellipse cx="23.6" cy="44" rx="12.4" ry="1.6" fill="#45413c" opacity=".15"/>
  <path d="M30.5 25.1s-.1 3 .5 7.5c.6 4.6 2.8 6.2 2.7 8.6-.1 2.5-4.5 2.8-9.7 2.8s-9.6-.3-9.7-2.7 2.1-4 2.7-8.6c.6-4.6.5-7.5.5-7.5h13z" fill="#fff5e3"/>
  <path d="M16.4 35.2c2.5.1 5.1.1 7.6.1s5.1 0 7.5-.1c-.2-.7-.4-1.6-.6-2.6-.6-4.6-.5-7.5-.5-7.5H17.6s.1 3-.5 7.5c-.2 1-.4 1.8-.7 2.6z" fill="#f7e5c6"/>
  <path class="st10" d="M30.5 25.1s-.1 3 .5 7.5c.6 4.6 2.8 6.2 2.7 8.6-.1 2.5-4.5 2.8-9.7 2.8s-9.6-.3-9.7-2.7 2.1-4 2.7-8.6c.6-4.6.5-7.5.5-7.5h13z" fill="none" stroke="#45413C" stroke-linecap="round" stroke-linejoin="round" stroke-miterlimit="10"/>
  <path d="M24 29.4c9.9 0 19.9-.5 20.9-7.4 1-6.8-7.7-19.6-20.9-19.6S2.1 15.2 3.1 22c1 6.9 11 7.4 20.9 7.4z" fill="#ff6242"/>
  <path d="M3.3 23.1C5.1 16.9 13 8.9 24 8.9s18.9 8 20.6 14.2c.1-.4.2-.7.3-1.1 1-6.8-7.7-19.6-20.9-19.6S2.1 15.2 3.1 22c0 .4.1.8.2 1.1z" fill="#ff866e"/>
  <path class="st10" d="M24 29.4c9.9 0 19.9-.5 20.9-7.4 1-6.8-7.7-19.6-20.9-19.6S2.1 15.2 3.1 22c1 6.9 11 7.4 20.9 7.4z" fill="none" stroke="#45413C" stroke-linecap="round" stroke-linejoin="round" stroke-miterlimit="10"/>
  <path d="M32 4.1c-3.3-.1-6 1.2-6.4 3.4-.5 2.8 2.8 5.9 7.2 7 4.2 1 8-.1 8.8-2.5-2.1-3.2-5.5-6.2-9.6-7.9z" fill="#fff48c"/>
  <path d="M38.8 14.4c1.5-.5 2.5-1.3 2.9-2.5C39.4 8.7 36.1 5.7 32 4c-3.3-.1-6 1.2-6.4 3.4-.1.5 0 1 .1 1.5 5.3.5 9.8 2.7 13.1 5.5z" fill="#fffacf"/>
  <path class="st10" d="M32 4.1c-3.3-.1-6 1.2-6.4 3.4-.5 2.8 2.8 5.9 7.2 7 4.2 1 8-.1 8.8-2.5-2.1-3.2-5.5-6.2-9.6-7.9z" fill="none" stroke="#45413C" stroke-linecap="round" stroke-linejoin="round" stroke-miterlimit="10"/>
  <path class="st56" d="M9 14c-2 1.3-2.9 3.9-2.1 5.7.8 1.8 3.1 2.2 5.1.9 2-1.3 2.9-3.9 2.1-5.7-.8-1.8-3.1-2.2-5.1-.9z" fill="#FFF48C" stroke="#45413C" stroke-linecap="round" stroke-linejoin="round" stroke-miterlimit="10"/>
  <ellipse class="st56" cx="26.7" cy="22.4" rx="3.1" ry="3.2" fill="#FFF48C" stroke="#45413C" stroke-linecap="round" stroke-linejoin="round" stroke-miterlimit="10"/>
  <path d="M18.6 7.6c.1.9-.6 1.7-1.6 1.8-1 .1-1.8-.5-1.9-1.4-.1-.9.7-1.7 1.6-1.8 1-.1 1.9.5 1.9 1.4z" fill="#fffacf" stroke="#45413c" stroke-linecap="round" stroke-linejoin="round" stroke-miterlimit="10"/>
  <ellipse class="st56" cx="40.1" cy="21.3" rx="1.8" ry="1.6" fill="#FFF48C" stroke="#45413C" stroke-linecap="round" stroke-linejoin="round" stroke-miterlimit="10"/>
</svg>
