<svg xmlns="http://www.w3.org/2000/svg" viewBox="0 0 48 48">
  <ellipse cx="24" cy="40.8" rx="13.6" ry="1.9" fill="#45413c" opacity=".15"/>
  <path d="M24 35.2s-4.2.3-11.5-4.8c-4.5-3.1-7.7-4.9-9.2-5.7-.6-.3-1-.9-1-1.6 0-.6.3-1.2.8-1.5 2-1.3 7.5-5.3 11-10.9C20 1.4 24 7.1 24 7.1s4-5.7 9.8 3.6c3.5 5.6 9 9.6 11 10.9.5.3.8.9.8 1.5 0 .7-.4 1.3-1 1.6-1.5.8-4.7 2.6-9.2 5.7-7.2 5.1-11.4 4.8-11.4 4.8z" fill="#ff6196"/>
  <path class="st29" d="M2.4 23.2c0 .4.4.7.9.8 1.5.4 4.7 1.4 9.2 3.2 7.3 2.9 11.5 2.7 11.5 2.7s4.2.2 11.5-2.7c4.5-1.8 7.7-2.8 9.2-3.2.6-.2.9-.5.9-.8H2.4z" fill="#FF87AF"/>
  <path class="st29" d="M3.3 24.7s.1 0 .1.1c2.2-1.5 7.4-5.3 10.7-10.7 3.5-5.6 6.3-5.8 8-5 1.1.5 2.4.5 3.5 0 1.7-.7 4.5-.5 8 5 3.4 5.4 8.5 9.3 10.7 10.7 0 0 .1 0 .1-.1.6-.3 1-.9 1-1.6 0-.6-.3-1.2-.8-1.5-2-1.3-7.5-5.3-11-10.9C28 1.4 24 7.1 24 7.1s-4-5.7-9.8 3.6c-3.5 5.6-9 9.6-11 10.9-.5.3-.8.9-.8 1.5 0 .7.4 1.3.9 1.6z" fill="#FF87AF"/>
  <path d="M24 35.2s-4.2.3-11.5-4.8c-4.5-3.1-7.7-4.9-9.2-5.7-.6-.3-1-.9-1-1.6 0-.6.3-1.2.8-1.5 2-1.3 7.5-5.3 11-10.9C20 1.4 24 7.1 24 7.1s4-5.7 9.8 3.6c3.5 5.6 9 9.6 11 10.9.5.3.8.9.8 1.5 0 .7-.4 1.3-1 1.6-1.5.8-4.7 2.6-9.2 5.7-7.2 5.1-11.4 4.8-11.4 4.8z" fill="none" stroke="#45413c" stroke-linecap="round" stroke-linejoin="round" stroke-miterlimit="10"/>
  <path d="M24 23.2c3.5 0 4.6.1 10.8.7s10.8-.7 10.8-.7-5.3-.7-10.8-3.5-7.5-3.5-10.8-3.5c-3.3 0-5.3.8-10.8 3.5-5.5 2.8-10.8 3.5-10.8 3.5s4.6 1.3 10.8.7 7.3-.7 10.8-.7z" fill="#525252" stroke="#45413c" stroke-linecap="round" stroke-linejoin="round" stroke-miterlimit="10"/>
  <path d="M24 20.7c4.2 0 8.3-.1 12.1-.3-.4-.2-.9-.4-1.3-.6-5.5-2.8-7.5-3.5-10.8-3.5-3.3 0-5.3.8-10.8 3.5-.4.2-.9.4-1.3.6 3.8.2 7.9.3 12.1.3z" fill="#fff" stroke="#45413c" stroke-linecap="round" stroke-linejoin="round" stroke-miterlimit="10"/>
</svg>
