<svg xmlns="http://www.w3.org/2000/svg" viewBox="0 0 24 24" fill="currentColor" focusable="false">
  <path d="M11.991 18.622L5.5 21.864a1.02 1.02 0 01-1.376-.4A1.09 1.09 0 014 20.967v-7.258c0 .72.406 1.164 1.473 1.661l6.518 3.252z" opacity=".4"/>
  <path d="M15.07 2c2.707 0 4.904 1.066 4.93 3.793v15.174c-.001.17-.043.338-.123.488a1.008 1.008 0 01-1.402.409l-6.484-3.242-6.518-3.252C4.406 14.873 4 14.428 4 13.71V5.793C4 3.066 6.196 2 8.895 2zm.679 6.041H8.225a.788.788 0 00-.785.79c0 .437.351.791.785.791h7.524a.788.788 0 00.785-.79.788.788 0 00-.785-.791z"/>
</svg>
