<svg viewBox="0 0 24 24" xmlns="http://www.w3.org/2000/svg" focusable="false">
  <path d="M9.559 21.456c-3.672 0-6.81-.555-6.81-2.779 0-2.224 3.118-4.228 6.81-4.228 3.672 0 6.808 1.985 6.808 4.208s-3.117 2.8-6.808 2.8zm0-10.179a4.364 4.364 0 10-4.365-4.363 4.348 4.348 0 004.333 4.364h.031zm7.242-1.198a3.289 3.289 0 00-.187-6.397m.846 9.971c1.989 0 3.687 1.348 3.687 2.551 0 .71-.585 1.438-1.475 1.646" stroke="#000" stroke-width="1.5" fill="none" stroke-linecap="round" stroke-linejoin="round"/>
</svg>
