<svg viewBox="0 0 24 24" xmlns="http://www.w3.org/2000/svg" focusable="false">
  <path d="M17.553 7.198C20.005 7.198 22 9.272 22 11.82v5.067c0 2.542-1.99 4.612-4.437 4.612H9.949c-.425 0-.769-.36-.769-.8 0-.443.344-.802.77-.802h7.613c1.597 0 2.897-1.35 2.897-3.01V11.82c0-1.667-1.304-3.022-2.907-3.022h-.93c-.426 0-.77-.358-.77-.8 0-.442.344-.801.77-.801zm-10.175 0c.425 0 .77.36.77.8 0 .443-.345.801-.77.801h-.941c-1.597 0-2.897 1.352-2.897 3.01v5.068c0 1.666 1.304 3.022 2.907 3.022.425 0 .77.358.77.8 0 .442-.345.8-.77.8C3.995 21.5 2 19.426 2 16.877V11.81c0-2.543 1.99-4.612 4.437-4.612zM12 2.5a.77.77 0 01.77.766v11.955c0 .31-.187.59-.476.709a.775.775 0 01-.84-.167l-2.908-2.908a.764.764 0 01.002-1.084.773.773 0 011.089.002l1.593 1.592V3.266c0-.423.345-.766.77-.766zm2.361 9.275a.773.773 0 011.09-.006.763.763 0 01.005 1.084l-.728.733a.771.771 0 01-1.317-.54c0-.193.074-.388.223-.539z"/>
</svg>
