<svg viewBox="0 0 24 24" xmlns="http://www.w3.org/2000/svg" focusable="false">
  <path d="M19.296 10.274c.389 0 .704.323.704.72 0 4.265-3.214 7.772-7.296 8.139v2.147c0 .398-.315.72-.703.72a.712.712 0 01-.705-.72v-2.83c0-.397.315-.72.705-.72 3.634 0 6.592-3.022 6.592-6.736 0-.397.315-.72.703-.72zm-14.592 0c.389 0 .704.323.704.72 0 2.58 1.407 4.896 3.672 6.042a.727.727 0 01.319.964.701.701 0 01-.944.324C5.708 16.934 4 14.126 4 10.994c0-.397.315-.72.704-.72zM12.124 2c2.377 0 4.31 1.975 4.31 4.403v4.584c0 2.43-1.933 4.405-4.31 4.405h-.249c-2.376 0-4.31-1.976-4.31-4.405V6.403C7.566 3.975 9.5 2 11.876 2zm0 1.438h-.249c-1.6 0-2.902 1.33-2.902 2.965v4.584c0 1.636 1.302 2.966 2.902 2.966h.249c1.6 0 2.903-1.33 2.903-2.966V6.403c0-1.635-1.302-2.965-2.903-2.965z"/>
</svg>
