<svg xmlns="http://www.w3.org/2000/svg" viewBox="0 0 32 32" focusable="false">
  <path d="M15.992 30.766h-.004c-8.207 0-14.86-6.653-14.86-14.86s6.653-14.86 14.86-14.86 14.86 6.653 14.86 14.86c-.009 8.202-6.654 14.848-14.855 14.86h-.001zm0-27.671h-.004c-7.076 0-12.812 5.736-12.812 12.812s5.736 12.812 12.812 12.812S28.8 22.983 28.8 15.907c-.008-7.071-5.737-12.801-12.807-12.812h-.001zm9.315 14.953H15.303a1.023 1.023 0 01-1.024-1.024V6.606a1.023 1.023 0 112.048 0V16h8.98a1.023 1.023 0 110 2.048z"/>
</svg>
