<svg viewBox="0 0 24 24" xmlns="http://www.w3.org/2000/svg" focusable="false">
  <g fill="none" fill-rule="evenodd">
    <path d="M0 0h24v24H0z"/>
    <path d="M10 21a1 1 0 01-.883.993L9 22H4a1 1 0 01-.117-1.993L4 20h2.211l-1.883-2.107c-1.93-2.029-2.733-4.946-2.133-7.733.602-2.796 2.532-5.08 5.122-6.044a1 1 0 01.698 1.875c-1.942.723-3.405 2.453-3.865 4.59-.442 2.055.106 4.2 1.466 5.757l.182.2L8 19v-3a1 1 0 01.883-.993L9 15a1 1 0 01.993.883L10 16v5zm11.805-7.16c-.602 2.796-2.532 5.08-5.122 6.044a1 1 0 01-.698-1.875c1.942-.723 3.405-2.453 3.865-4.59.442-2.055-.106-4.2-1.466-5.757l-.182-.2L16 4.998V8a1 1 0 01-.883.993L15 9a1 1 0 01-.993-.883L14 8V3a1 1 0 01.883-.993L15 2h5a1 1 0 01.117 1.993L20 4h-2.209l1.881 2.107c1.93 2.029 2.733 4.946 2.133 7.733z" fill="currentColor"/>
  </g>
</svg>
