<svg viewBox="0 0 24 24" xmlns="http://www.w3.org/2000/svg" focusable="false">
  <path d="M12.01 2c2.419 0 4.38 2 4.408 4.47h.205c2.692 0 4.877 2.25 4.877 5.01V17c0 2.76-2.185 5-4.877 5H7.377C4.685 22 2.5 19.76 2.5 17v-5.52c0-2.76 2.185-5.01 4.877-5.01h.205a4.57 4.57 0 011.307-3.16c.838-.85 1.911-1.28 3.12-1.31zm3.696 5.66c-.4 0-.731.34-.731.75v1.16c0 .41.331.75.731.75a.74.74 0 00.732-.75V8.41a.74.74 0 00-.732-.75zm-7.5 0c-.4 0-.732.34-.732.75v1.16c0 .41.332.75.732.75a.74.74 0 00.731-.75V8.41a.74.74 0 00-.731-.75zM12.01 3.5c-.751 0-1.532.31-2.097.88-.546.56-.849 1.3-.868 2.09h5.91C14.926 4.83 13.62 3.5 12.01 3.5z"/>
</svg>
