<svg xmlns="http://www.w3.org/2000/svg" viewBox="0 0 48 48" focusable="false">
  <ellipse cx="24" cy="45.6" rx="11" ry="1.5" fill="#45413c" opacity=".15"/>
  <path d="M24.3 45.9c-5.8 0-10.5-4.7-10.5-10.5V11.3C13.8 5.5 18.5.8 24.3.8s10.5 4.7 10.5 10.5v24.1c0 5.8-4.7 10.5-10.5 10.5z" fill="#daedf7"/>
  <path d="M24.3.9c-5.8 0-10.5 4.7-10.5 10.5V14c0-5.8 4.7-10.5 10.5-10.5S34.8 8.2 34.8 14v-2.6C34.8 5.6 30.1.9 24.3.9z" fill="#fff"/>
  <path d="M24.3 45.9c-5.8 0-10.5-4.7-10.5-10.5V11.3C13.8 5.5 18.5.8 24.3.8s10.5 4.7 10.5 10.5v24.1c0 5.8-4.7 10.5-10.5 10.5z" fill="none" stroke="#45413C" stroke-linecap="round" stroke-linejoin="round" stroke-miterlimit="10"/>
  <path d="M24.3 43.3c-4.3 0-7.8-3.5-7.8-7.8V11.3c0-4.3 3.5-7.8 7.8-7.8s7.8 3.5 7.8 7.8v24.1c.1 4.3-3.5 7.9-7.8 7.9z" fill="#87898c"/>
  <path d="M24.3 3.5c-4.3 0-7.8 3.5-7.8 7.8v2.8c0-4.3 3.5-7.8 7.8-7.8s7.8 3.5 7.8 7.8v-2.8c.1-4.3-3.5-7.8-7.8-7.8z" fill="#656769"/>
  <path d="M24.3 43.3c-4.3 0-7.8-3.5-7.8-7.8V11.3c0-4.3 3.5-7.8 7.8-7.8s7.8 3.5 7.8 7.8v24.1c.1 4.3-3.5 7.9-7.8 7.9z" fill="none" stroke="#45413C" stroke-linecap="round" stroke-linejoin="round" stroke-miterlimit="10"/>
  <circle cx="24.3" cy="23.9" r="4.5" fill="#ffe500"/>
  <path d="M24.3 19.4c-2.5 0-4.5 2-4.5 4.5 0 1.8 1.1 3.3 2.6 4.1l5-7.3c-.8-.8-1.9-1.3-3.1-1.3z" fill="#fff48c"/>
  <circle cx="24.3" cy="12.4" r="4.5" fill="#6dd627"/>
  <path d="M24.3 7.9c-2.5 0-4.5 2-4.5 4.5 0 1.8 1.1 3.3 2.6 4.1l5-7.3c-.8-.8-1.9-1.3-3.1-1.3z" fill="#9ceb60"/>
  <circle cx="24.3" cy="35.4" r="4.5" fill="#ff6242"/>
  <path d="M24.3 30.9c-2.5 0-4.5 2-4.5 4.5 0 1.8 1.1 3.3 2.6 4.1l5-7.3c-.8-.8-1.9-1.3-3.1-1.3z" fill="#ff866e"/>
  <circle cx="24.3" cy="23.9" r="4.5" fill="none" stroke="#45413C" stroke-linecap="round" stroke-linejoin="round" stroke-miterlimit="10"/>
  <circle cx="24.3" cy="12.4" r="4.5" fill="none" stroke="#45413C" stroke-linecap="round" stroke-linejoin="round" stroke-miterlimit="10"/>
  <circle cx="24.3" cy="35.4" r="4.5" fill="none" stroke="#45413C" stroke-linecap="round" stroke-linejoin="round" stroke-miterlimit="10"/>
  <path d="M29.3 35.1c0 2.8-.8-2.5-5-2.5s-5 5.3-5 2.5 2.2-5 5-5 5 2.2 5 5zm0-11.5c0 2.8-.8-2.5-5-2.5s-5 5.3-5 2.5 2.2-5 5-5 5 2.2 5 5zm0-11.5c0 2.8-.8-2.5-5-2.5s-5 5.3-5 2.5 2.2-5 5-5 5 2.2 5 5z" fill="#BDBEC0" stroke="#45413C" stroke-linecap="round" stroke-linejoin="round" stroke-miterlimit="10"/>
</svg>
