<svg viewBox="0 0 24 24" xmlns="http://www.w3.org/2000/svg" focusable="false">
  <path d="M22.239 12.041c.42 0 .761.335.761.747a.753.753 0 01-.761.746h-1.062v3.56c0 2.155-1.787 3.906-3.983 3.906h-1.593a.755.755 0 01-.762-.747c0-.412.341-.746.762-.746h1.593c1.357 0 2.461-1.082 2.461-2.414v-3.56h-2.623v.992c.01 1.24-1.005 2.254-2.27 2.266H9.238c-1.264-.012-2.279-1.025-2.269-2.266v-.991H4.346v3.563c0 1.327 1.101 2.407 2.454 2.409h1.628c.42 0 .761.335.761.747a.755.755 0 01-.762.747l-1.629-.001c-2.191-.002-3.975-1.752-3.975-3.902v-3.563H1.762A.754.754 0 011 12.788c0-.412.342-.747.762-.747zm-7.477-5.298c.605 0 1.186.238 1.61.663.425.428.661 1.004.66 1.603v1.245a.28.28 0 01-.273.269H7.24a.278.278 0 01-.27-.269V9.01c-.01-1.24 1.005-2.254 2.27-2.266zM17.194 3c2.197 0 3.983 1.752 3.983 3.906v1.856c0 .412-.34.748-.761.748a.755.755 0 01-.761-.748V6.906c0-1.33-1.104-2.413-2.461-2.413H15.6a.753.753 0 01-.761-.745c0-.413.34-.748.76-.748zM8.428 3c.42 0 .76.334.76.747 0 .412-.34.746-.76.746l-1.63.001c-1.351.002-2.451 1.082-2.451 2.409v1.859a.756.756 0 01-.762.747.755.755 0 01-.761-.747v-1.86c0-2.149 1.783-3.9 3.974-3.901z"/>
</svg>
