<svg viewBox="0 0 24 24" xmlns="http://www.w3.org/2000/svg" focusable="false">
  <g stroke="#000" stroke-width="1.5" fill="none" fill-rule="evenodd" stroke-linecap="round" stroke-linejoin="round">
    <path d="M6.42 17.73c-2.23-1.46-3.67-3.66-3.67-5.59 0-3.28 4.14-7.3 9.25-7.3 2.09 0 4.03.67 5.59 1.71m2.26 2.06c.89 1.13 1.41 2.38 1.41 3.53 0 3.28-4.15 7.3-9.26 7.3-.91 0-1.8-.13-2.63-.36"/>
    <path d="M9.766 14.367a3.12 3.12 0 01-.925-2.229 3.159 3.159 0 015.394-2.241m.875 2.803a3.158 3.158 0 01-2.537 2.541M19.892 4.25L4.118 20.024"/>
  </g>
</svg>
