<svg xmlns="http://www.w3.org/2000/svg" viewBox="0 0 24 24">
  <path fill="#200E32" d="M21.756 20.607l-3.438-3.361-.08-.123a.806.806 0 00-1.137 0c-2.922 2.68-7.423 2.826-10.519.34-3.096-2.485-3.826-6.83-1.706-10.153 2.12-3.323 6.432-4.593 10.077-2.968 3.645 1.625 5.49 5.642 4.314 9.386a.779.779 0 00.182.771.822.822 0 00.774.232.803.803 0 00.593-.54c1.406-4.442-.718-9.223-5-11.25C11.534.915 6.381 2.251 3.69 6.085.997 9.92 1.575 15.102 5.05 18.28c3.474 3.177 8.8 3.396 12.535.515l3.044 2.976a.819.819 0 001.136 0 .784.784 0 000-1.12l-.008-.044z"/>
</svg>
