<svg xmlns="http://www.w3.org/2000/svg" viewBox="0 0 24 24">
  <g fill="#200E32">
    <path d="M22 8.053v7.894a5.033 5.033 0 01-1.467 3.569A5.042 5.042 0 0116.969 21H7.058a5.051 5.051 0 01-3.576-1.474A5.041 5.041 0 012 15.956V8.053c0-.588.106-1.172.311-1.723A5.049 5.049 0 017.058 3h9.884a5.048 5.048 0 014.773 3.392c.196.532.292 1.095.285 1.66z" opacity=".4"/>
    <path d="M21.715 6.401l-.098.08c-1.84 1.43-7.795 6.216-7.795 6.216a2.82 2.82 0 01-3.556 0S4.346 7.92 2.506 6.49l-.195-.151A5.049 5.049 0 017.058 3h9.884a5.048 5.048 0 014.773 3.401z"/>
  </g>
</svg>
