<svg xmlns="http://www.w3.org/2000/svg" viewBox="0 0 32 32">
  <g transform="translate(174.808 -1433.066)">
    <circle cx="-228.321" cy="1426.214" r="1" fill="#8a7988" transform="scale(-1 1) rotate(-15)"/>
    <circle cx="-222.321" cy="1426.214" r="1" fill="#8a7988" transform="scale(-1 1) rotate(-15)"/>
    <path fill="#938993" d="M-156.079 1449.198l-.259.966a.998.998 0 00.708 1.225.998.998 0 001.224-.707l.26-.966"/>
    <circle cx="-209.321" cy="1439.214" r="2" fill="#c9c4c9" transform="scale(-1 1) rotate(-15)"/>
    <path fill="#62355c" d="M-154.297 1433.66a1.51 1.51 0 00-1.316.647l-1.533-.412a.5.5 0 00-.149-.017v.01a.5.5 0 00-.46.365l-.323 1.152a.5.5 0 00-.002 0l-.98 3.666a.5.5 0 00-.01.035l-.776 2.895c-.793 2.96.606 5.981 3.201 7.373l-.176.662a1.502 1.502 0 00.604 1.617l-1.965 7.334a5.478 5.478 0 01-6.736 3.89 5.478 5.478 0 01-3.89-6.735l1.099-4.106h.002l1.164-4.348a2.748 2.748 0 00-1.287-3.082 2.503 2.503 0 00-1.832-2.67 2.506 2.506 0 00-3.06 1.768 2.508 2.508 0 001.767 3.063 2.504 2.504 0 002.812-1.186c.555.414.825 1.131.633 1.85l-1.164 4.345-1.1 4.106a6.497 6.497 0 004.596 7.96 6.497 6.497 0 007.961-4.595l1.965-7.336a1.505 1.505 0 001.33-1.1l.178-.664c2.937.086 5.653-1.828 6.445-4.785l.768-2.861.01-.031a.5.5 0 00.006-.026l.984-3.674.32-1.15a.5.5 0 00-.353-.617l-1.537-.412a1.506 1.506 0 00-1.102-1.328 1.506 1.506 0 00-1.836 1.06 1.508 1.508 0 001.06 1.838 1.504 1.504 0 001.618-.603l1.05.28-.185.667-.986 3.683a.5.5 0 00-.006.022l-.004.014a5.461 5.461 0 01-6.721 3.851 5.46 5.46 0 01-3.89-6.709.5.5 0 00.013-.058l.977-3.645.187-.674 1.05.282a1.502 1.502 0 001.1 1.335 1.508 1.508 0 001.838-1.06 1.506 1.506 0 00-1.359-1.885zm-.16 1a.508.508 0 01.2.015c.272.073.426.34.353.613a.491.491 0 01-.612.353.494.494 0 01-.353-.613.492.492 0 01.412-.367zm5.795 1.554a.518.518 0 01.201.013.494.494 0 01.354.614.493.493 0 01-.614.353.492.492 0 01-.353-.611.494.494 0 01.412-.37zm-10.32 6.513a6.488 6.488 0 004.511 4.315 6.488 6.488 0 006.057-1.471 5.461 5.461 0 01-6.574 3.395 5.461 5.461 0 01-3.994-6.239zm-11.239.125a1.493 1.493 0 011.361 1.887 1.493 1.493 0 01-1.837 1.06 1.493 1.493 0 01-1.06-1.837 1.492 1.492 0 011.536-1.11zm-.105.998a.5.5 0 00-.465.371.5.5 0 00.353.612.5.5 0 00.614-.354.5.5 0 00-.354-.611.5.5 0 00-.148-.018zm14.61 5.932c.154.054.307.11.468.152.166.045.332.075.498.106l-.139.513a.487.487 0 01-.611.354.5.5 0 00-.002 0 .49.49 0 01-.354-.613l.14-.512z" color="#000" font-family="sans-serif" font-weight="400" overflow="visible" style="line-height:normal;text-indent:0;text-align:start;text-decoration-line:none;text-decoration-style:solid;text-decoration-color:#000;text-transform:none;block-progression:tb;isolation:auto;mix-blend-mode:normal"/>
  </g>
</svg>
