<svg xmlns="http://www.w3.org/2000/svg" viewBox="0 0 48 48">
  <ellipse cx="25.1" cy="44.7" rx="15.3" ry="1.8" fill="#45413c" opacity=".15"/>
  <path d="M19.4 7.1l-3.8 1.8c-11 5.2-12 20.7-1.5 26.9.1 0 .2.1.3.1l12.9 7.3c4.5 2.6 10.2-.1 11.1-5.2L41 23.4c.1-.5.2-1 .2-1.5C42.3 10.3 29.9 2.1 19.4 7.1z" fill="#ff6242"/>
  <path d="M15.6 14.3l3.8-1.8C28.6 8.2 39.2 14 41 23.2c.1-.4.1-.9.2-1.3C42.3 10.3 29.9 2.1 19.4 7.1l-3.8 1.8C8.8 12 5.9 19.1 7 25.6c.8-4.7 3.7-9 8.6-11.3z" fill="#ff866e"/>
  <path class="st10" d="M19.4 7.1l-3.8 1.8c-11 5.2-12 20.7-1.5 26.9.1 0 .2.1.3.1l12.9 7.3c4.5 2.6 10.2-.1 11.1-5.2L41 23.4c.1-.5.2-1 .2-1.5C42.3 10.3 29.9 2.1 19.4 7.1z" fill="none" stroke="#45413C" stroke-linecap="round" stroke-linejoin="round" stroke-miterlimit="10"/>
  <path d="M28.3 9.4l-1.4-1.3c-.3-.3-.3-.8 0-1.1l1-1c.5-.5.1-1.3-.6-1.3l-1.4.1c-.4 0-.8-.3-.8-.7L25 2.2c0-.6-.7-.9-1.2-.6l-4.3 3.3c-.2.2-.5.2-.8.1l-1.1-.5c-.5-.6-.8-1.1-1-1.4-.5-1-2.8.2-2.3 1.1.1.3.3 1.1.4 2l-.4.8c-.1.3-.3.5-.6.5L8.4 8.8c-.6.1-.8.9-.3 1.3l1.4 1.3c.3.3.3.8 0 1.1l-1 1c-.5.5-.1 1.3.6 1.3l1.4-.1c.4 0 .8.3.8.7l.1 1.9c0 .6.7.9 1.2.6l4.3-3.3c.2-.2.5-.2.8-.1l2.5 1.1c.4.2.9 0 1-.5l.8-2.6c.1-.3.3-.5.6-.5l5.3-1.2c.7-.3.9-1 .4-1.4z" fill="#6dd627"/>
  <path d="M28 10.7l-3.2.8c-.1-.3-.1-.6.1-.9l1-1c.5-.5.1-1.3-.6-1.3l-1.4.1c-.5 0-.9-.4-.9-.8l-.1-1.9c0-.6-.7-.9-1.2-.6l-1.8 1.4c-.9-.5-1.7-1.3-2.4-2.1l1.1.6c.2.1.5.1.8-.1l4.3-3.3c.5-.4 1.2 0 1.2.5l.1 2c0 .4.4.7.8.7l1.4-.1c.7 0 1.1.8.6 1.3l-1 1.1c-.3.3-.3.8 0 1.1l1.4 1.3c.6.3.4 1-.2 1.2z" fill="#9ceb60"/>
  <ellipse transform="rotate(-25.136 12.745 24.821)" class="st80" cx="12.7" cy="24.8" rx="1.5" ry="2.6" fill="#E04122" stroke="#45413C" stroke-linecap="round" stroke-linejoin="round" stroke-miterlimit="10"/>
  <ellipse transform="rotate(-25.136 20.713 31.112)" class="st80" cx="20.7" cy="31.1" rx="1.5" ry="2.6" fill="#E04122" stroke="#45413C" stroke-linecap="round" stroke-linejoin="round" stroke-miterlimit="10"/>
  <ellipse transform="rotate(-25.136 23.34 20.682)" class="st80" cx="23.3" cy="20.7" rx="1.5" ry="2.6" fill="#E04122" stroke="#45413C" stroke-linecap="round" stroke-linejoin="round" stroke-miterlimit="10"/>
  <ellipse transform="rotate(-25.136 30.09 35.067)" class="st80" cx="30.1" cy="35.1" rx="1.5" ry="2.6" fill="#E04122" stroke="#45413C" stroke-linecap="round" stroke-linejoin="round" stroke-miterlimit="10"/>
  <ellipse transform="rotate(-25.136 33.978 14.853)" class="st80" cx="34" cy="14.9" rx="1.5" ry="2.6" fill="#E04122" stroke="#45413C" stroke-linecap="round" stroke-linejoin="round" stroke-miterlimit="10"/>
  <ellipse transform="rotate(-25.136 33.04 25.323)" class="st80" cx="33" cy="25.3" rx="1.5" ry="2.6" fill="#E04122" stroke="#45413C" stroke-linecap="round" stroke-linejoin="round" stroke-miterlimit="10"/>
  <path class="st10" d="M13.6 10.6c1.4-.7 1-5.5.6-6.4-.4-.9 1.9-2.1 2.3-1.1.5 1 3.3 4.6 5.3 3.7" fill="none" stroke="#45413C" stroke-linecap="round" stroke-linejoin="round" stroke-miterlimit="10"/>
  <path class="st10" d="M28.3 9.4l-1.4-1.3c-.3-.3-.3-.8 0-1.1l1-1c.5-.5.1-1.3-.6-1.3l-1.4.1c-.4 0-.8-.3-.8-.7L25 2.2c0-.6-.7-.9-1.2-.6l-4.3 3.3c-.2.2-.5.2-.8.1l-1.1-.5c-.5-.6-.8-1.1-1-1.4-.5-1-2.8.2-2.3 1.1.1.3.3 1.1.4 2l-.4.8c-.1.3-.3.5-.6.5L8.4 8.8c-.6.1-.8.9-.3 1.3l1.4 1.3c.3.3.3.8 0 1.1l-1 1c-.5.5-.1 1.3.6 1.3l1.4-.1c.4 0 .8.3.8.7l.1 1.9c0 .6.7.9 1.2.6l4.3-3.3c.2-.2.5-.2.8-.1l2.5 1.1c.4.2.9 0 1-.5l.8-2.6c.1-.3.3-.5.6-.5l5.3-1.2c.7-.3.9-1 .4-1.4z" fill="none" stroke="#45413C" stroke-linecap="round" stroke-linejoin="round" stroke-miterlimit="10"/>
</svg>
