<svg viewBox="0 0 24 24" xmlns="http://www.w3.org/2000/svg" focusable="false">
  <path d="M16.335 2C19.723 2 22 4.376 22 7.915v8.167C22 19.623 19.723 22 16.334 22H7.666C4.276 22 2 19.622 2 16.083V7.916C2 4.377 4.277 2 7.666 2zM8.84 9.397A2.604 2.604 0 006.24 12a2.604 2.604 0 002.6 2.602 2.596 2.596 0 002.479-1.852h2.112v1.102a.75.75 0 001.5 0V12.75h1.33v1.102a.75.75 0 001.5 0V12a.75.75 0 00-.75-.75h-5.692A2.596 2.596 0 008.84 9.4zm0 1.5c.607 0 1.102.494 1.102 1.102a1.103 1.103 0 01-2.204 0c0-.608.495-1.102 1.102-1.102z"/>
</svg>
