<svg xmlns="http://www.w3.org/2000/svg" viewBox="0 0 48 48">
  <style>
    .st1{fill:#ffc258}.st2{fill:#4f4b45}.st3{fill:#fabfa5}.st10{fill:none;stroke:#45413c;stroke-linecap:round;stroke-linejoin:round;stroke-miterlimit:10}.st79{fill:#ffa694}
  </style>
  <symbol id="New_Symbol_14" viewBox="-6.5 -6.5 13 13">
    <path d="M0-6c2.2 0 4.1 1.5 4.7 3.5C6.3-2.5 6.4 0 5 0v1c0 2.8-2.2 5-5 5s-5-2.2-5-5V0c-1.4 0-1.3-2.5.2-2.5C-4.1-4.5-2.2-6 0-6z" fill="#ffd4c3" stroke="#504b46" stroke-linecap="round" stroke-linejoin="round" stroke-miterlimit="10"/>
    <circle class="st1" cx="-1.6" cy="-.1" r=".1" fill="#FFC258"/>
    <path class="st2" d="M-1.6.5c-.3 0-.6-.3-.6-.6s.2-.7.6-.7c.3 0 .6.3.6.7s-.3.6-.6.6z" fill="#4F4B45"/>
    <circle class="st1" cx="1.6" cy="-.1" r=".1" fill="#FFC258"/>
    <path class="st2" d="M1.6.5C1.3.5 1 .2 1-.1s.3-.6.6-.6.6.3.6.6-.2.6-.6.6z" fill="#4F4B45"/>
    <circle class="st3" cx="-3" cy="-1.5" r=".5" fill="#FABFA5"/>
    <circle class="st3" cx="3" cy="-1.5" r=".5" fill="#FABFA5"/>
    <path d="M-1.2-3c.8-.5 1.7-.5 2.5 0" fill="none" stroke="#504b46" stroke-linecap="round" stroke-linejoin="round" stroke-miterlimit="10"/>
  </symbol>
  <g id="Icons">
    <g id="XMLID_1865_">
      <ellipse id="XMLID_1805_" cx="26.1" cy="42.6" rx="13.2" ry="1.7" fill="#45413c" opacity=".15"/>
      <path id="XMLID_1804_" d="M45.2 20.2s3.5-5.7-1.1-5.7h-.3l.2-3.7c.1-1.3-1.1-2.2-2.2-1.9-3.3 1-6.2 3.3-8.2 6.3l-1.3 2c-1.5 2.3-4.6 2.2-5.9-.2l-2.6-4.5c-1.6-2.7-4.4-4.4-7.4-4.4h-.2c-5.4 0-9.7 4.8-9.5 10.6l.2 6c.3 9.3 7.4 16.7 16 16.7h4.4c7 0 13-4.8 15.2-11.6l.1.1s2.7-.9 3.7-4c1.1-3.3-1.1-5.7-1.1-5.7z" fill="#f0f0f0"/>
      <path id="XMLID_1803_" d="M13.9 12.2h.3c3.7 0 7.1 1.7 9 4.4l3.2 4.5c1.6 2.3 5.4 2.4 7.2.2l1.6-2c2.2-2.7 5.2-4.8 8.7-5.9l.1-2.6c.1-1.3-1.1-2.2-2.2-1.9-3.3 1-6.2 3.3-8.2 6.3l-1.3 2c-1.5 2.3-4.6 2.2-5.9-.2l-2.6-4.5c-1.6-2.7-4.4-4.4-7.4-4.4h-.2c-3.8 0-7 2.4-8.5 5.7 1.8-1 3.9-1.6 6.2-1.6z" fill="#fff"/>
      <path id="XMLID_1802_" class="st10" d="M45.2 20.2s3.5-5.7-1.1-5.7h-.3l.2-3.7c.1-1.3-1.1-2.2-2.2-1.9-3.3 1-6.2 3.3-8.2 6.3l-1.3 2c-1.5 2.3-4.6 2.2-5.9-.2l-2.6-4.5c-1.6-2.7-4.4-4.4-7.4-4.4h-.2c-5.4 0-9.7 4.8-9.5 10.6l.2 6c.3 9.3 7.4 16.7 16 16.7h4.4c7 0 13-4.8 15.2-11.6l.1.1s2.7-.9 3.7-4c1.1-3.3-1.1-5.7-1.1-5.7z" fill="none" stroke="#45413C" stroke-linecap="round" stroke-linejoin="round" stroke-miterlimit="10"/>
      <path id="XMLID_1356_" class="st10" d="M35.6 20.7s4-6.4 8.5-6.3c4.5.1 1.1 5.7 1.1 5.7s2.1 2.4 1.1 5.7c-1 3.2-3.7 4-3.7 4" fill="none" stroke="#45413C" stroke-linecap="round" stroke-linejoin="round" stroke-miterlimit="10"/>
      <path id="XMLID_1355_" d="M5.3 19.9s-2.5 7.8 2.3 7.5c3.3-.2 3.4-3.1 3.2-4.9-.1-.7.5-1.3 1.2-1.3 1.8 0 4.7-.4 6-3.6 1.4-3.6.1-5.4-.7-6-.3-.2-.5-.6-.4-1 .1-1.1.9-2.7 3.4-1.6 1.9-1.4 2.2-4.1 0-5.2-1.5-.7-2.6-.2-3.3.3-.5.4-1.2.4-1.7 0-.8-.5-2.2-1.1-3.7.2-2.4 2.2.6 4.7.6 4.7S9.1 9 7 13s-1.7 6.9-1.7 6.9z" fill="#ff866e"/>
      <g id="XMLID_1336_">
        <path id="XMLID_1351_" class="st79" d="M18.4 13.7c-.1-.4-.2-.8-.4-1.1v.1c0 .5.2.8.4 1z" fill="#FFA694"/>
        <path id="XMLID_1340_" class="st79" d="M12 8.8c-.1-.7 0-1.5.9-2.2 1.5-1.3 2.9-.8 3.7-.2.5.3 1.2.3 1.7 0 .7-.5 1.8-1 3.3-.3.1.1.2.1.3.2 0-.9-.5-1.9-1.6-2.4-1.5-.7-2.6-.2-3.3.3-.5.4-1.2.4-1.7 0-.8-.5-2.2-1.1-3.7.2-2 1.8-.2 3.8.4 4.4z" fill="#FFA694"/>
        <path id="XMLID_1337_" class="st79" d="M6.5 22.1s-.4-2.9 1.7-6.9 5.2-4 5.2-4-1.1-1-1.4-2.2c-.6.1-3.2.5-5 4-2.1 4-1.7 6.9-1.7 6.9s-1.9 5.8.7 7.2c-.4-2.2.5-5 .5-5z" fill="#FFA694"/>
      </g>
      <path id="XMLID_1335_" class="st10" d="M5.3 19.9s-2.5 7.8 2.3 7.5c3.3-.2 3.4-3.1 3.2-4.9-.1-.7.5-1.3 1.2-1.3 1.8 0 4.7-.4 6-3.6 1.4-3.6.1-5.4-.7-6-.3-.2-.5-.6-.4-1 .1-1.1.9-2.7 3.4-1.6 1.9-1.4 2.2-4.1 0-5.2-1.5-.7-2.6-.2-3.3.3-.5.4-1.2.4-1.7 0-.8-.5-2.2-1.1-3.7.2-2.4 2.2.6 4.7.6 4.7S9.1 9 7 13s-1.7 6.9-1.7 6.9z" fill="none" stroke="#45413C" stroke-linecap="round" stroke-linejoin="round" stroke-miterlimit="10"/>
      <path id="XMLID_1334_" d="M6.1 15s-3.9 1.5-4.6 3.4c-.7 1.9 4 2.3 4 2.3s1.7.1 2.3-1.1c.6-1.3-1.7-4.6-1.7-4.6z" fill="#ffe500"/>
      <path id="XMLID_1333_" d="M7.2 17.1s.2.2.4.6C7.1 16.4 6.1 15 6.1 15s-3.9 1.5-4.6 3.4c-.3.8.4 1.4 1.3 1.7 1-1.7 4.4-3 4.4-3z" fill="#fff48c"/>
      <path id="XMLID_1332_" class="st10" d="M6.1 15s-3.9 1.5-4.6 3.4c-.7 1.9 4 2.3 4 2.3s1.7.1 2.3-1.1c.6-1.3-1.7-4.6-1.7-4.6z" fill="none" stroke="#45413C" stroke-linecap="round" stroke-linejoin="round" stroke-miterlimit="10"/>
      <path id="XMLID_1331_" class="st10" d="M18.6 30.5s.3 6.8 6.4 6.3c6.1-.5 5.9-5.7 5.9-5.7s2.9-1.9 2.7-4.6c-.3-2.9-2-3.6-5.3-2.9" fill="none" stroke="#45413C" stroke-linecap="round" stroke-linejoin="round" stroke-miterlimit="10"/>
      <circle id="XMLID_1330_" cx="12.5" cy="14.2" r="1.1" fill="#45413c"/>
      <ellipse id="XMLID_1329_" cx="14.8" cy="17.2" rx="1.1" ry="1" fill="#ffcabf"/>
    </g>
  </g>
</svg>
