<svg viewBox="0 0 24 24" xmlns="http://www.w3.org/2000/svg" focusable="false">
  <path d="M9.963 19.228c.5-.106 3.546-.106 4.046 0 .428.099.89.33.89.833-.025.48-.306.904-.695 1.174a3.634 3.634 0 01-1.713.731 3.793 3.793 0 01-1.008 0 3.618 3.618 0 01-1.714-.732c-.39-.269-.67-.694-.695-1.173 0-.504.462-.734.89-.833zM12.045 2c2.08 0 4.205.987 5.467 2.625.82 1.054 1.195 2.108 1.195 3.745v.426c0 1.256.332 1.997 1.063 2.85.553.628.73 1.435.73 2.31 0 .874-.287 1.704-.863 2.378a4.537 4.537 0 01-2.9 1.413c-1.571.134-3.143.247-4.737.247-1.594 0-3.165-.068-4.736-.247a4.532 4.532 0 01-2.9-1.413 3.616 3.616 0 01-.864-2.378c0-.875.178-1.682.73-2.31.754-.853 1.064-1.594 1.064-2.85V8.37c0-1.682.42-2.781 1.283-3.858C7.861 2.942 9.919 2 11.956 2z"/>
</svg>
