<svg xmlns="http://www.w3.org/2000/svg" viewBox="0 0 48 48" focusable="false">
  <ellipse cx="24" cy="42.2" rx="11.2" ry="1.5" fill="#45413c" opacity=".15"/>
  <path d="M25.9 23.4l-.4-.4s-.6-.6-1.5-.6-1.5.6-1.5.6l-.4.4-.1-1.7.5-.6s.6-.6 1.5-.6 1.5.6 1.5.6l.5.6-.1 1.7z" fill="#E8F4FA" stroke="#45413C" stroke-linecap="round" stroke-linejoin="round" stroke-miterlimit="10"/>
  <path d="M1 21.4L7.9 8.6c.7-1.3 1.9-2.4 3.3-2.9l2.6-1c.7-.3 1.5.4 1.3 1.1-.4 1.9-2 3.4-3.9 3.6-.8.1-1.4.6-1.8 1.3L3 23.5l-2-2.1zm46 0L40.1 8.6c-.7-1.3-1.9-2.4-3.3-2.9l-2.6-1c-.7-.3-1.5.4-1.3 1.1.4 1.9 2 3.4 3.9 3.6.8.1 1.4.6 1.8 1.3L45 23.5l2-2.1z" fill="#87898C"/>
  <path d="M7.9 10.6c.7-1.3 1.9-2.4 3.3-2.9l2.6-1c.4-.1.7-.1 1 .1.2-.3.3-.7.4-1.1.2-.8-.6-1.4-1.3-1.1l-2.6 1c-1.5.6-2.7 1.6-3.4 3L1 21.4l.7.7 6.2-11.5zm25.3-3.8c.3-.2.6-.3 1-.1l2.6 1c1.4.5 2.6 1.6 3.3 2.9l6.2 11.5.7-.7-6.9-12.8c-.7-1.3-1.9-2.4-3.3-2.9l-2.6-1c-.7-.3-1.5.4-1.3 1.1 0 .4.2.7.3 1z" fill="#BDBEC0"/>
  <path d="M1 21.4L7.9 8.6c.7-1.3 1.9-2.4 3.3-2.9l2.6-1c.7-.3 1.5.4 1.3 1.1-.4 1.9-2 3.4-3.9 3.6-.8.1-1.4.6-1.8 1.3L3 23.5l-2-2.1zm46 0L40.1 8.6c-.7-1.3-1.9-2.4-3.3-2.9l-2.6-1c-.7-.3-1.5.4-1.3 1.1.4 1.9 2 3.4 3.9 3.6.8.1 1.4.6 1.8 1.3L45 23.5l2-2.1z" fill="none" stroke="#45413C" stroke-linecap="round" stroke-linejoin="round" stroke-miterlimit="10"/>
  <path d="M1.9 24h2.6v-3.5H1.9c-.5 0-.9.4-.9.9v1.7c0 .5.4.9.9.9zm44.2 0h-2.6v-3.5h2.6c.5 0 .9.4.9.9v1.7c0 .5-.4.9-.9.9z" fill="#E8F4FA" stroke="#45413C" stroke-linecap="round" stroke-linejoin="round" stroke-miterlimit="10"/>
  <path d="M4 23.5s-1 .1-1-1.5 1.1-3 10-3 9.5 2.1 9.5 3.5-1 1-1 1H4zm40 0s1 .1 1-1.5-1.1-3-10-3-9.5 2.1-9.5 3.5 1 1 1 1H44z" fill="#87898C"/>
  <path d="M13 20.7c7 0 8.9 1.3 9.3 2.5.1-.2.2-.4.2-.8 0-1.4-.6-3.5-9.5-3.5S3 20.4 3 22c0 .4.1.7.2.9.5-1.2 2.5-2.2 9.8-2.2zm22 0c7.3 0 9.3 1 9.8 2.2.1-.2.2-.5.2-.9 0-1.6-1.1-3-10-3s-9.5 2.1-9.5 3.5c0 .4.1.6.2.8.4-1.3 2.3-2.6 9.3-2.6z" fill="#BDBEC0"/>
  <path d="M4 23.5s-1 .1-1-1.5 1.1-3 10-3 9.5 2.1 9.5 3.5-1 1-1 1H4zm40 0s1 .1 1-1.5-1.1-3-10-3-9.5 2.1-9.5 3.5 1 1 1 1H44z" fill="none" stroke="#45413C" stroke-linecap="round" stroke-linejoin="round" stroke-miterlimit="10"/>
  <path d="M4 23.5s3-1 8.5-1 9 1 9 1 .3 9.8-2.5 11.5c-2.8 1.7-10.5 2-13-1S4 23.5 4 23.5z" fill="#00B8F0"/>
  <path d="M18.9 23c-1.6-.2-3.8-.5-6.4-.5-5.5 0-8.5 1-8.5 1S3.5 31 6 34c1 1.3 3 1.9 5.1 2.2L18.9 23z" fill="#4ACFFF"/>
  <path d="M44 23.5s-3-1-8.5-1-9 1-9 1-.3 9.8 2.5 11.5c2.8 1.7 10.5 2 13-1s2-10.5 2-10.5z" fill="#00B8F0"/>
  <path d="M35.5 22.5c-5.5 0-9 1-9 1S26.2 33.3 29 35c1 .6 2.7 1 4.5 1.2l7.8-13.3c-1.4-.2-3.3-.4-5.8-.4z" fill="#4ACFFF"/>
  <path d="M4 23.5s3-1 8.5-1 9 1 9 1 .3 9.8-2.5 11.5c-2.8 1.7-10.5 2-13-1S4 23.5 4 23.5zm40 0s-3-1-8.5-1-9 1-9 1-.3 9.8 2.5 11.5c2.8 1.7 10.5 2 13-1s2-10.5 2-10.5z" fill="none" stroke="#45413C" stroke-linecap="round" stroke-linejoin="round" stroke-miterlimit="10"/>
</svg>
