<svg xmlns="http://www.w3.org/2000/svg" viewBox="0 0 29 32" fill="currentColor" focusable="false">
  <path d="M23.872 21.504h-.004a5.228 5.228 0 00-4.111 1.991l-.008.011-9.631-5.554c.239-.578.378-1.249.378-1.952s-.139-1.374-.391-1.987l.013.035 9.631-5.56a5.234 5.234 0 10-.733-1.251l-.013-.035-9.627 5.558a5.247 5.247 0 10-.008 6.491l.008-.011 9.631 5.56a5.247 5.247 0 104.871-3.296h-.001zm0-20.019a3.76 3.76 0 11-3.76 3.762 3.764 3.764 0 013.76-3.758zM5.247 19.759a3.76 3.76 0 113.764-3.76v.002a3.764 3.764 0 01-3.764 3.758zM23.87 30.511a3.76 3.76 0 113.76-3.76v.002a3.764 3.764 0 01-3.758 3.758zM3.824 14.166a1.618 1.618 0 00-1.616 1.616.545.545 0 101.092 0 .53.53 0 01.53-.53.545.545 0 100-1.092z"/>
</svg>
