<svg xmlns="http://www.w3.org/2000/svg" viewBox="0 0 32 32" fill="currentColor" focusable="false">
  <path d="M1.867 27.88h24.16c1.027 0 1.867-.84 1.867-1.867v-5.827h-8.976a4.906 4.906 0 01-3.504-1.466l-.001-.001a4.918 4.918 0 01-1.467-3.51v-.011.001-.535c0-1.371.561-2.612 1.466-3.504l.001-.001a4.918 4.918 0 013.51-1.467h8.97V3.865c0-1.027-.84-1.867-1.867-1.867H1.866c-1.027 0-1.867.84-1.867 1.867v22.133c0 1.04.84 1.88 1.867 1.88zM29.96 12.973a1.4 1.4 0 00-1.4-1.4h-9.627a3.107 3.107 0 00-3.107 3.107v.533a3.107 3.107 0 003.107 3.107h9.627a1.4 1.4 0 001.4-1.4zM19.44 16.6a1.653 1.653 0 110-3.306 1.653 1.653 0 110 3.306z"/>
</svg>
