<svg viewBox="0 0 24 24" xmlns="http://www.w3.org/2000/svg" focusable="false">
  <path d="M22 10.822a.757.757 0 01-.756.756h-.01v-.017a.765.765 0 01-.764-.764V8.253c0-3.053-1.67-4.723-4.714-4.723h-7.5C5.21 3.53 3.53 5.21 3.53 8.253v7.5c0 3.034 1.68 4.714 4.723 4.714h7.5c3.043 0 4.714-1.68 4.714-4.714a.766.766 0 011.53 0C22 19.608 19.607 22 15.756 22H8.253C4.392 22 2 19.608 2 15.756v-7.5C2 4.393 4.392 2 8.253 2h7.5C19.59 2 22 4.393 22 8.253zM16.836 12a.75.75 0 01-.75.75H7.914a.756.756 0 01-.531-.22c-.008-.008-.01-.017-.017-.024a.782.782 0 01-.144-.22.754.754 0 01-.051-.25c-.001-.014-.007-.023-.007-.036a.743.743 0 01.22-.53l3.766-3.75a.749.749 0 111.058 1.062L9.73 11.25h6.356a.75.75 0 01.75.75zm-4.629 3.217a.749.749 0 11-1.059 1.062l-1.284-1.278a.751.751 0 011.059-1.062z"/>
</svg>
