<svg viewBox="0 0 24 24" xmlns="http://www.w3.org/2000/svg" focusable="false">
  <path d="M7.543 19.952a1.296 1.296 0 010 2.589 1.296 1.296 0 010-2.59zm11.28 0c.716 0 1.297.58 1.297 1.294a1.296 1.296 0 11-1.296-1.294zM3.269 3.009l2.08.36c.335.06.59.337.619.677l.235 2.801h.874l.423.001h1.984l1.77.002h1.572l.291.001h1.092l.255.001h.952l.222.001h.821l.725.002h.778l.14.001h.509l.433.002h.444l.286.002h.23l.05.001h.17l.036.001h.092l.026.001h.067l.018.001h.046l.012.001h.035l.02.002h.004l.013.001a2.083 2.083 0 011.38.82c.335.447.475.998.395 1.55l-.95 6.558a2.562 2.562 0 01-2.522 2.19H7.975a2.562 2.562 0 01-2.54-2.344L4.52 4.748l-1.507-.26A.752.752 0 012.4 3.62a.76.76 0 01.867-.61zm3.607 5.339h-.547l.603 7.171c.044.552.495.966 1.046.966h10.917c.52 0 .966-.388 1.04-.903l.95-6.559a.587.587 0 00-.112-.438.58.58 0 00-.388-.23h-.16l-.075.001h-.567l-.149.001h-1.56l-1.52-.001h-.276l-.86-.001h-.296l-.912-.001h-.937l-.317-.001-.958-.001h-.32l-.64-.001h-.956l-.316-.001h-.93l-.304-.001-1.176-.001h-.282zm10.413 2.196a.75.75 0 010 1.5h-2.772a.75.75 0 110-1.5h2.772z" fill-rule="evenodd"/>
</svg>
