<svg viewBox="0 0 24 24" xmlns="http://www.w3.org/2000/svg" focusable="false">
  <path d="M12.002 4c4.136.002 7.851 2.886 9.938 7.714.08.183.08.39 0 .573a16.897 16.897 0 01-.822 1.654.733.733 0 01-.997.277.726.726 0 01-.278-.99c.222-.391.432-.804.625-1.228C18.601 7.896 15.453 5.456 12 5.455 8.546 5.456 5.398 7.896 3.531 12c1.867 4.104 5.015 6.545 8.47 6.545 2.007 0 3.944-.831 5.601-2.404a.736.736 0 011.034.024c.28.29.268.75-.024 1.027C16.679 19.028 14.394 20 12.002 20c-4.14-.002-7.855-2.885-9.943-7.713a.723.723 0 010-.573C4.147 6.886 7.862 4.002 11.997 4zM12 8.124c2.15 0 3.899 1.739 3.899 3.876 0 2.138-1.75 3.876-3.9 3.876a3.9 3.9 0 01-2.003-.552.723.723 0 01-.25-.998.732.732 0 011.003-.247 2.44 2.44 0 001.25.343A2.432 2.432 0 0014.437 12 2.431 2.431 0 0012 9.58 2.431 2.431 0 009.564 12a.73.73 0 01-.732.727A.729.729 0 018.1 12c0-2.137 1.75-3.876 3.9-3.876z"/>
</svg>
