<svg xmlns="http://www.w3.org/2000/svg" viewBox="0 0 16 16">
  <g fill="none">
    <path d="M9.536 1.8a1.07 1.07 0 001.755.52c.812-.741 2.073.076 1.742 1.129-.242.77.408 1.526 1.198 1.394 1.08-.18 1.702 1.195.86 1.9a1.087 1.087 0 00.26 1.827c1.006.437.792 1.934-.294 2.068-.795.098-1.207 1.008-.76 1.678.611.916-.37 2.06-1.356 1.58-.722-.352-1.556.19-1.54.997.024 1.104-1.414 1.53-1.986.588a1.068 1.068 0 00-1.83 0c-.572.942-2.01.516-1.987-.588.017-.808-.817-1.349-1.539-.998-.985.48-1.967-.663-1.356-1.579.447-.67.035-1.58-.76-1.678-1.086-.134-1.3-1.63-.294-2.068.735-.32.876-1.31.26-1.826-.842-.706-.22-2.081.86-1.9.79.131 1.44-.625 1.198-1.395-.33-1.053.93-1.87 1.742-1.13a1.07 1.07 0 001.755-.52C7.751.734 9.25.734 9.536 1.8z" fill="#60E1A9"/>
    <path d="M16 8.538c0 .505-.363 1.009-1.022 1.084-.618.07-1.022.56-1.022 1.08 0 .204.062.413.199.602.142.197.205.405.205.605 0 .73-.836 1.355-1.674.977a1.23 1.23 0 00-.206-.071c.315-.2.526-.54.526-.906 0-.2-.063-.408-.205-.605-.137-.19-.2-.398-.2-.602 0-.52.405-1.01 1.023-1.08.66-.075 1.022-.579 1.022-1.084 0-.397-.224-.796-.703-.988-.457-.184-.702-.59-.702-.999 0-.304.136-.611.42-.832.858-.663.314-1.92-.725-1.92a1.35 1.35 0 00-.207.016c-.732.113-1.353-.426-1.353-1.067 0-.108.017-.219.055-.33.172-.507-.053-.959-.431-1.21.21-.144.442-.208.668-.208.718 0 1.38.646 1.117 1.418a1.023 1.023 0 00-.055.33c0 .641.62 1.18 1.353 1.067.071-.01.14-.016.207-.016 1.039 0 1.583 1.257.726 1.92-.285.22-.42.528-.42.832 0 .41.244.815.702.999.479.192.702.59.702.988z" fill="#88F6C6"/>
    <path d="M6.18 16a1.62 1.62 0 01-.447-.064 1.564 1.564 0 01-1.135-1.554.573.573 0 00-.267-.505.555.555 0 00-.553-.032 1.551 1.551 0 01-1.866-.38 1.572 1.572 0 01-.125-1.926.578.578 0 00.045-.573.563.563 0 00-.45-.332A1.561 1.561 0 01.017 9.292a1.567 1.567 0 01.932-1.68.57.57 0 00.341-.451.575.575 0 00-.202-.534 1.571 1.571 0 01-.421-1.881c.3-.654.978-1.014 1.685-.896a.557.557 0 00.521-.189.577.577 0 00.117-.562 1.569 1.569 0 01.658-1.814 1.55 1.55 0 011.898.165c.15.137.348.183.541.126a.566.566 0 00.395-.406C6.669.47 7.28 0 8 0s1.33.47 1.518 1.17c.054.2.198.349.395.406.193.057.39.01.54-.126a1.55 1.55 0 011.899-.165c.612.39.876 1.12.658 1.813-.063.2-.02.406.117.563a.557.557 0 00.521.189 1.555 1.555 0 011.685.896 1.57 1.57 0 01-.42 1.88.575.575 0 00-.203.535.57.57 0 00.34.45c.662.288 1.037.964.933 1.681a1.561 1.561 0 01-1.365 1.342.563.563 0 00-.45.332.578.578 0 00.045.573 1.572 1.572 0 01-.125 1.926 1.551 1.551 0 01-1.866.38.555.555 0 00-.553.032.573.573 0 00-.267.505 1.565 1.565 0 01-1.135 1.554 1.553 1.553 0 01-1.78-.695.56.56 0 00-.487-.276.56.56 0 00-.487.276A1.553 1.553 0 016.18 16zM8 13.965a1.56 1.56 0 011.342.757.548.548 0 00.645.253.562.562 0 00.415-.572 1.573 1.573 0 01.728-1.368 1.555 1.555 0 011.53-.09.547.547 0 00.675-.138.57.57 0 00.046-.713 1.58 1.58 0 01-.122-1.545c.23-.5.692-.84 1.236-.907a.56.56 0 00.498-.493.565.565 0 00-.341-.62 1.57 1.57 0 01-.932-1.225 1.576 1.576 0 01.55-1.444.569.569 0 00.155-.696.552.552 0 00-.612-.328 1.558 1.558 0 01-1.44-.518 1.578 1.578 0 01-.317-1.52.567.567 0 00-.242-.67.546.546 0 00-.686.06 1.555 1.555 0 01-1.496.348 1.566 1.566 0 01-1.08-1.107A.556.556 0 008 1a.556.556 0 00-.553.429 1.566 1.566 0 01-1.079 1.107 1.556 1.556 0 01-1.496-.347.546.546 0 00-.686-.06.567.567 0 00-.242.67c.167.531.049 1.1-.316 1.519-.361.415-.9.609-1.441.518a.552.552 0 00-.612.328.569.569 0 00.155.696c.424.355.63.895.55 1.444a1.57 1.57 0 01-.932 1.225.565.565 0 00-.341.62.56.56 0 00.498.493 1.564 1.564 0 011.236.907 1.579 1.579 0 01-.122 1.545.57.57 0 00.046.713.547.547 0 00.676.139 1.555 1.555 0 011.529.089c.468.3.74.81.728 1.368a.563.563 0 00.415.573.548.548 0 00.645-.254A1.56 1.56 0 018 13.965z" fill="#000"/>
    <path d="M5.5 11a.498.498 0 01-.354-.854l5-5a.5.5 0 11.708.708l-5 5A.498.498 0 015.5 11zM6 7a1.001 1.001 0 010-2 1.001 1.001 0 010 2zm4 4a1.001 1.001 0 010-2 1.001 1.001 0 010 2z" fill="#000"/>
  </g>
</svg>
