<svg viewBox="0 0 24 24" xmlns="http://www.w3.org/2000/svg" fill="currentColor" focusable="false">
  <path d="M13 5.414v3.95a1 1 0 01-2 0v-3.95l-1.93 1.93a1 1 0 01-1.413-1.415l3.636-3.636a1 1 0 011.414 0l3.636 3.636a1 1 0 01-1.414 1.414L13 5.414zM17 17a1 1 0 01-2 0 3 3 0 00-6 0 1 1 0 01-2 0 5 5 0 0110 0zM5.293 11.707a1 1 0 011.414-1.414l1 1a1 1 0 01-1.414 1.414l-1-1zM4 17a1 1 0 010-2h1a1 1 0 010 2H4zm15 0a1 1 0 010-2h1a1 1 0 010 2h-1zm-1.293-4.293a1 1 0 01-1.414-1.414l1-1a1 1 0 011.414 1.414l-1 1zM20 19a1 1 0 010 2H4a1 1 0 010-2h16z" fill="none"/>
</svg>
