<svg viewBox="0 0 24 24" xmlns="http://www.w3.org/2000/svg" focusable="false">
  <g fill="none" fill-rule="evenodd">
    <path d="M0 0h24v24H0z"/>
    <path d="M23 16v2a2 2 0 01-1.85 1.995L21 20h-2a1 1 0 010-2h2v-2a1 1 0 012 0zM3 16v2h2a1 1 0 010 2H3a2 2 0 01-1.995-1.85L1 18v-2a1 1 0 012 0zm6.5-8.25v7.5a.75.75 0 11-1.5 0v-7.5a.75.75 0 011.5 0zm-3 7v.5a.75.75 0 11-1.5 0v-.5a.75.75 0 111.5 0zm6 0v.5a.75.75 0 11-1.5 0v-.5a.75.75 0 111.5 0zm3-7v7.5a.75.75 0 11-1.5 0v-7.5a.75.75 0 111.5 0zm3.5 7v.5a.75.75 0 11-1.5 0v-.5a.75.75 0 111.5 0zm-12.5-7v4.5a.75.75 0 11-1.5 0v-4.5a.75.75 0 011.5 0zm6 0v4.5a.75.75 0 11-1.5 0v-4.5a.75.75 0 111.5 0zm6.5 0v4.5a.75.75 0 11-1.5 0v-4.5a.75.75 0 111.5 0zM21 3a2 2 0 011.995 1.85L23 5v2a1 1 0 01-2 0V5h-2a1 1 0 010-2h2zM6 4a1 1 0 01-1 1H3v2a1 1 0 11-2 0V5a2 2 0 011.85-1.995L3 3h2a1 1 0 011 1z" fill="#404040" fill-rule="nonzero"/>
  </g>
</svg>
