<svg viewBox="0 0 24 24" xmlns="http://www.w3.org/2000/svg" focusable="false">
  <path d="M20.152 5.102a.75.75 0 01.034 1.06l-6.66 7.107c1.125.767 1.787.528 2.606.235.894-.322 2.12-.76 3.561.704.29.296.564.562.816.808 1.043 1.013 1.866 1.813 1.88 2.929.013.952-.556 1.925-1.958 3.357l-.626-.433.548.51c-.303.325-1.107 1.185-2.702 1.22h-.099c-2.197 0-4.99-1.6-8.311-4.76l-4.055 4.323a.746.746 0 01-1.06.034.75.75 0 01-.034-1.06l15-16a.748.748 0 011.06-.034zm-7.66 9.27l-2.225 2.373c3.814 3.638 6.073 4.41 7.35 4.354.965-.02 1.421-.51 1.64-.743.061-.065.11-.113.145-.145.993-1.016 1.494-1.764 1.488-2.248-.007-.493-.602-1.071-1.426-1.872a48.49 48.49 0 01-.842-.831c-.767-.782-1.147-.646-1.982-.344-.97.349-2.282.823-4.149-.543zM6.588 2.002c1.111.014 1.896.853 2.89 1.916.244.26.51.544.804.843 1.43 1.458 1.024 2.647.697 3.6-.236.692-.442 1.29-.068 2.14a.75.75 0 11-1.373.604c-.609-1.388-.245-2.452.022-3.23.29-.842.434-1.265-.348-2.062-.303-.308-.577-.601-.83-.87C7.604 4.108 7.04 3.506 6.57 3.5h-.008c-.438 0-1.107.448-2.043 1.37l-.188.188-.003.003a1.67 1.67 0 01-.103.106c-2.142 2.116 1 6.353 3.062 8.69a.75.75 0 11-1.124.992C.821 8.8 1.587 5.665 3.171 4.1c.016-.02.071-.073.088-.091C4.663 2.582 5.623 2 6.56 2h.03z" fill-rule="evenodd"/>
</svg>
