<svg viewBox="0 0 24 24" xmlns="http://www.w3.org/2000/svg" focusable="false">
  <path d="M22.239 12.041c.42 0 .761.335.761.747a.754.754 0 01-.761.747h-1.062v3.558c0 2.156-1.787 3.907-3.983 3.907h-1.593a.754.754 0 01-.761-.747c0-.412.341-.746.761-.746h1.593c1.357 0 2.461-1.082 2.461-2.414v-3.558H4.346v3.561c0 1.328 1.101 2.408 2.454 2.41h1.628c.42 0 .761.335.761.747a.755.755 0 01-.762.747l-1.628-.001c-2.192-.002-3.976-1.752-3.976-3.903v-3.561H1.761A.755.755 0 011 12.788c0-.412.342-.747.761-.747zm-8.38 3.733c.42 0 .761.334.761.746a.753.753 0 01-.76.746h-3.718a.754.754 0 01-.762-.746c0-.412.341-.746.762-.746zM8.428 3c.42 0 .76.334.76.747 0 .412-.34.746-.76.746L6.8 4.494c-1.353.002-2.453 1.082-2.453 2.409v1.859a.756.756 0 01-.762.747.755.755 0 01-.761-.747v-1.86c0-2.149 1.783-3.9 3.974-3.901zm5.43 5.016c.422 0 .763.334.763.746a.755.755 0 01-.762.747h-3.717a.755.755 0 01-.761-.747c0-.412.34-.746.76-.746zM17.195 3c2.197 0 3.983 1.751 3.983 3.905v1.857c0 .41-.341.746-.761.746a.755.755 0 01-.761-.746V6.906c0-1.33-1.104-2.413-2.461-2.413H15.6a.754.754 0 01-.761-.746c0-.413.34-.746.76-.746z"/>
</svg>
