<svg viewBox="0 0 24 24" xmlns="http://www.w3.org/2000/svg" focusable="false">
  <path d="M12 2c5.514 0 10 4.485 10 10 0 5.514-4.486 10-10 10a9.915 9.915 0 01-4.013-.838.723.723 0 11.582-1.325 8.488 8.488 0 003.431.716c4.715 0 8.552-3.838 8.552-8.553 0-4.716-3.837-8.552-8.552-8.552-4.716 0-8.552 3.836-8.552 8.552a8.48 8.48 0 001.674 5.084.724.724 0 01-1.164.86A9.916 9.916 0 012 12C2 6.485 6.486 2 12 2zm-1.136 6.03c.223.006.631.158.796.223 1.02.395 2.906 1.65 3.785 2.502l.152.154.079.085c.094.1.21.225.237.26a1.202 1.202 0 01.028 1.455 5.13 5.13 0 01-.22.248l-.064.07-.049.051c-.814.876-2.829 2.2-3.847 2.63-.005.002-.507.21-.818.254l-.087.007h-.036a1.21 1.21 0 01-1.066-.65c-.086-.167-.169-.555-.208-.756l-.021-.11-.003-.017c-.095-.578-.149-1.467-.147-2.437-.002-1.026.058-1.947.163-2.526.001-.008.101-.53.176-.707a1.204 1.204 0 011.15-.736zm.135 1.52a4.999 4.999 0 00-.037.183c-.087.481-.141 1.35-.14 2.266-.001.883.047 1.707.129 2.202.01.062.029.157.05.25.072-.03.15-.059.199-.079.926-.39 2.74-1.625 3.347-2.28a.469.469 0 00.058-.06.432.432 0 01.03-.032l-.007-.007-.007-.008-.084-.089c-.627-.67-2.538-1.959-3.405-2.296l-.133-.05z"/>
</svg>
