<svg style="height:15px;width:15px" viewBox="0 0 200 100" xmlns="http://www.w3.org/2000/svg">
  <path d="M 177.21513,2.8894402 V 1.8813608 h -0.33603 -0.33603 V 1.7133476 1.5453343 h 0.95208 0.95207 v 0.1680133 0.1680132 h -0.39203 -0.39203 v 1.0080794 1.0080793 h -0.22402 -0.22401 z m 1.62412,-0.1680133 V 1.5453343 l 0.37803,2.851e-4 0.37803,2.85e-4 0.22958,0.6577669 c 0.12627,0.3617718 0.25165,0.6538761 0.27862,0.6491206 0.027,-0.00476 0.17325,-0.3008788 0.32506,-0.6580518 l 0.27603,-0.6494058 h 0.38343 0.38343 v 1.1760926 1.1760926 h -0.22402 -0.22401 l -0.002,-1.0220804 c -9.6e-4,-0.5781025 -0.022,-0.9855892 -0.0485,-0.9380739 -0.0257,0.046204 -0.19355,0.5061398 -0.3729,1.0220805 -0.28854,0.8300409 -0.34027,0.9380738 -0.4492,0.9380738 -0.10828,0 -0.16604,-0.1163702 -0.47947,-0.966076 l -0.35636,-0.9660761 -0.0153,0.9660761 -0.0153,0.966076 h -0.22269 -0.2227 z M 64.226716,98.723065 c -8.315594,-2.9683 -12.120405,-13.266054 -7.996563,-21.642766 2.242077,-4.554304 5.58948,-6.956011 11.02701,-7.911696 2.492888,-0.438143 6.244912,0.543019 8.417104,2.20109 1.053141,0.803881 2.03084,1.345562 2.172665,1.203737 0.141825,-0.141825 0.257864,-0.814383 0.257864,-1.494573 v -1.23671 h 4.801342 4.801342 v 14.404027 14.404027 h -4.801342 -4.801342 v -1.283697 c 0,-1.674181 -0.557121,-1.971359 -1.578487,-0.841992 -2.428299,2.685074 -8.097633,3.698468 -12.299593,2.198553 z m 9.149951,-7.942642 c 3.075531,-0.854228 5.544339,-4.997747 4.710367,-7.905636 -0.954637,-3.328625 -3.339837,-5.171696 -6.696246,-5.174266 -2.759257,-0.0021 -4.738278,1.217649 -5.913107,3.644522 -1.103503,2.279532 -1.122293,3.470188 -0.09056,5.738288 0.941928,2.070673 1.676168,2.738218 3.874701,3.52274 2.017691,0.71999 2.132789,0.724867 4.114842,0.174352 z M 1.2850092,97.886351 C 1.2866902,97.12703 7.6166903,59.181679 8.0589407,57.279843 8.286238,56.302384 8.3860592,56.286621 13.587182,56.406872 l 5.296764,0.122462 4.185135,11.23338 c 2.301824,6.178358 4.285795,11.236136 4.408825,11.239506 0.12303,0.0034 2.115812,-5.051651 4.428405,-11.23338 l 4.204714,-11.239506 h 5.368422 5.368422 l 3.56192,21.060434 3.561919,21.060433 H 48.667923 43.364141 L 41.712361,87.410695 C 40.803883,81.228967 39.91714,75.693638 39.741821,75.109965 39.376892,73.895038 39.670334,73.265647 33.243686,89.047517 L 29.42218,98.431958 H 27.308063 25.193946 L 20.745362,87.083331 c -2.446721,-6.241745 -4.59033,-11.720473 -4.763575,-12.174951 -0.173245,-0.454478 -0.405599,-0.735714 -0.516343,-0.62497 -0.186394,0.186394 -3.70647,22.895908 -3.70647,23.912024 0,0.290101 -1.8965605,0.454767 -5.2378278,0.454767 -4.6980613,0 -5.2376537,-0.07872 -5.236137,-0.76385 z M 64.226716,98.723065 C 54.365647,95.203098 51.317834,81.541856 58.596242,73.485529 c 4.327147,-4.789634 12.303961,-5.759961 17.121423,-2.082709 1.077009,0.8221 2.054708,1.494727 2.172665,1.494727 0.117956,0 0.214466,-0.687465 0.214466,-1.5277 v -1.5277 h 4.801342 4.801342 v 14.404027 14.404027 h -4.801342 -4.801342 v -1.5277 c 0,-1.755614 -0.393573,-1.908181 -1.569172,-0.608282 -2.437598,2.695336 -8.099592,3.711391 -12.308908,2.208846 z m 9.051317,-7.922316 c 3.329995,-0.955029 5.704995,-4.801816 4.835795,-7.832537 -0.978094,-3.410416 -3.332511,-5.265078 -6.687115,-5.267691 -2.770734,-0.0021 -4.397788,0.905194 -5.744784,3.203669 -1.835028,3.131238 -1.16387,6.635473 1.681272,8.778225 2.010118,1.513873 3.532214,1.801661 5.914832,1.118334 z M 91.635851,84.246174 V 69.842147 h 5.019586 5.019583 v 2.473298 2.473298 l 1.63682,-1.759059 c 2.13819,-2.297864 4.04037,-3.231 7.16367,-3.514211 l 2.54814,-0.231057 v 4.673136 c 0,4.640022 -0.007,4.670939 -0.97676,4.363125 -0.53722,-0.170507 -1.99327,-0.310012 -3.23567,-0.310012 -2.96964,0 -4.89755,1.130896 -6.15411,3.609947 -0.90587,1.787202 -0.98209,2.523167 -0.98209,9.483577 v 7.546012 H 96.655437 91.635851 Z M 115.20608,75.298218 V 51.946235 h 5.01362 5.01362 l 0.11509,14.227873 0.11508,14.227873 5.52336,-5.279917 5.52335,-5.279917 h 6.60122 6.60121 l -7.19711,6.638448 -7.1971,6.638448 7.51238,7.656458 7.51237,7.656457 -6.76552,0.132727 -6.76553,0.132727 -5.76841,-6.025284 -5.76841,-6.025283 -0.015,6.001678 -0.015,6.001678 h -5.01959 -5.01958 z m 43.21208,23.623762 c -4.47031,-1.297147 -7.68508,-3.862402 -9.63963,-7.692035 -1.51585,-2.970046 -1.70588,-9.306558 -0.38616,-12.876327 1.29493,-3.502728 4.95051,-7.171819 8.30981,-8.34054 3.27153,-1.138187 9.77044,-1.135543 13.05063,0.0053 4.94029,1.718236 8.27402,6.562509 8.96656,13.029421 l 0.31531,2.944308 h -10.90664 -10.90663 l 0.38256,2.047761 c 0.45658,2.443972 1.70701,3.90317 3.91047,4.56334 2.20995,0.662118 4.48713,0.149501 6.26321,-1.409917 1.47101,-1.291569 1.52456,-1.301949 6.08132,-1.178806 l 4.59723,0.124236 -0.8094,1.805743 c -1.2,2.677158 -3.66418,5.162097 -6.24684,6.299474 -2.79003,1.228698 -9.81889,1.595811 -12.9818,0.678032 z m 11.34863,-18.976114 c 0,-0.912313 -2.11855,-3.409201 -3.50059,-4.125732 -1.78728,-0.926632 -4.59985,-0.736118 -6.3832,0.432377 -0.94514,0.619279 -2.33781,2.902681 -2.33781,3.83303 0,0.127744 2.74986,0.232262 6.1108,0.232262 3.36094,0 6.1108,-0.167372 6.1108,-0.371937 z m 13.96754,8.446922 V 78.135375 h -1.74595 -1.74594 v -4.146614 -4.146614 h 1.74594 1.74595 v -4.364856 -4.364857 h 5.01958 5.01959 v 4.364857 4.364856 h 2.83715 2.83716 v 4.146614 4.146614 h -2.83716 -2.83715 v 10.257413 10.257413 h -5.01959 -5.01958 z m 0,0 V 78.135375 h -1.74595 -1.74594 v -4.146614 -4.146614 h 1.74594 1.74595 v -4.364856 -4.364857 h 5.01958 5.01959 v 4.364857 4.364856 h 2.83715 2.83716 v 4.146614 4.146614 h -2.83716 -2.83715 v 10.257413 10.257413 h -5.01959 -5.01958 z m 0,0 V 78.135375 h -1.74595 -1.74594 v -4.146614 -4.146614 h 1.74594 1.74595 v -4.364856 -4.364857 h 5.01958 5.01959 v 4.364857 4.364856 h 2.83715 2.83716 v 4.146614 4.146614 h -2.83716 -2.83715 v 10.257413 10.257413 h -5.01959 -5.01958 z m -5.45607,-44.07209 c -4.45772,-1.613453 -5.49777,-7.103229 -1.98359,-10.470032 1.66904,-1.599038 5.21822,-2.040308 7.38756,-0.918496 3.91957,2.026884 4.24857,8.649164 0.53854,10.839871 -1.76874,1.044415 -4.00291,1.25069 -5.94251,0.548657 z m 0,0 c -2.2324,-0.808007 -3.5466,-2.336371 -3.92259,-4.561796 -0.38008,-2.249714 0.3147,-4.352055 1.95883,-5.927236 1.64886,-1.579709 5.2113,-2.014632 7.36773,-0.899496 3.91957,2.026884 4.24857,8.649164 0.53854,10.839871 -1.76874,1.044415 -4.00291,1.25069 -5.94251,0.548657 z m 0.91959,-22.760068 c 1.06617,-4.053723 2.64562,-10.16937 3.50988,-13.5903262 l 1.57137,-6.2199207 h 5.14019 5.14019 l -2.98604,11.6040099 c -1.64232,6.382205 -3.29416,12.074255 -3.67074,12.649001 -1.09358,1.669 -3.15828,2.460664 -7.05095,2.703519 l -3.59241,0.224123 z M 138.7763,35.796265 V 15.281439 h 4.80135 4.80134 v 1.5277 c 0,1.865205 0.34714,1.906071 1.95301,0.22991 1.77759,-1.855406 4.91476,-2.787411 8.51537,-2.529788 5.13852,0.367659 9.31616,3.42131 11.73339,8.576537 0.98976,2.110868 1.15021,3.03148 1.15021,6.599668 0,3.55465 -0.16208,4.492173 -1.13535,6.567202 -1.48687,3.17004 -3.32335,5.210386 -6.00204,6.668313 -4.58473,2.495318 -9.68034,2.435916 -13.77458,-0.160577 -1.11861,-0.709404 -2.10962,-1.289825 -2.20224,-1.289825 -0.0926,0 -0.23311,2.550221 -0.31221,5.667159 l -0.1438,5.66716 -1.34788,1.34663 c -1.3983,1.397021 -3.58467,2.131242 -6.39975,2.14915 l -1.63682,0.01041 z m 19.42808,-0.191977 c 1.66919,-0.697433 3.04709,-2.633929 3.46707,-4.872624 0.69023,-3.679263 -1.89172,-7.270359 -5.6304,-7.831008 -2.65247,-0.397763 -5.78818,1.093917 -6.92216,3.292924 -1.04177,2.020195 -0.83513,6.102025 0.37798,7.466395 2.22476,2.502156 5.57956,3.251253 8.70751,1.944313 z M 138.7763,35.859383 V 15.281439 h 4.80135 4.80134 v 1.5277 c 0,1.865205 0.34714,1.906071 1.95301,0.22991 1.77759,-1.855406 4.91476,-2.787411 8.51537,-2.529788 5.13852,0.367659 9.31616,3.42131 11.73339,8.576537 0.98988,2.111112 1.15017,3.031068 1.14988,6.599668 -3.6e-4,4.662874 -0.78057,6.977522 -3.45004,10.235259 -4.09942,5.002794 -12.21526,6.331265 -17.36344,2.842199 -1.0359,-0.702053 -2.03076,-1.280034 -2.21081,-1.284402 -0.18005,-0.0044 -0.3281,2.299975 -0.32899,5.120763 -0.001,4.313437 -0.13683,5.350437 -0.85214,6.523569 -1.24041,2.034337 -2.59697,2.739996 -5.85164,3.043922 l -2.89728,0.270552 z m 20.28411,-0.669536 c 0.65194,-0.427167 1.57879,-1.666119 2.05967,-2.753228 2.30181,-5.203623 -1.87167,-10.468132 -7.53957,-9.510547 -3.25067,0.549197 -5.20152,3.037832 -5.20152,6.635407 0,4.366401 2.66261,6.849423 7.03959,6.564784 1.371,-0.08916 2.98027,-0.502945 3.64183,-0.936416 z m -56.07593,0.388175 V 15.281439 h 5.01958 5.01959 v 1.572916 1.572916 l 1.48181,-1.301047 c 4.69563,-4.122819 12.73145,-3.426685 17.31832,1.500267 2.02748,2.177803 2.72448,3.355363 3.65676,6.178012 1.62449,4.918475 0.27787,11.488419 -3.15648,15.39993 -4.31763,4.917502 -13.26407,5.831308 -18.00819,1.83939 l -1.29222,-1.087331 v 4.854162 c 0,5.496971 -0.46626,7.09442 -2.59305,8.883996 -1.2284,1.03363 -1.77705,1.179956 -4.42421,1.179956 h -3.02191 z m 20.56123,-0.68777 c 2.61869,-1.864674 3.26808,-5.409262 1.59042,-8.68101 -1.31561,-2.565669 -3.28647,-3.61764 -6.34715,-3.38787 -4.1041,0.308103 -6.38925,3.018035 -6.07946,7.20956 0.19746,2.671511 1.21823,4.31192 3.40056,5.464746 1.96685,1.039003 5.53415,0.748545 7.43563,-0.605426 z M 77.765436,44.51498 c -2.527877,-0.519994 -5.991489,-2.464406 -7.548247,-4.237455 -0.704119,-0.801948 -1.820002,-2.482033 -2.47974,-3.733523 -1.097771,-2.082417 -1.199523,-2.682724 -1.199523,-7.076779 0,-4.423343 0.09692,-4.985386 1.231082,-7.139057 2.621185,-4.977396 7.253799,-7.919699 12.469456,-7.919699 3.014155,0 4.851751,0.567423 7.359895,2.272627 l 1.855064,1.261197 v -1.330426 -1.330426 h 5.019585 5.019585 v 11.647304 c 0,10.71353 -0.06924,11.790341 -0.863699,13.431469 -1.195621,2.469822 -2.769324,3.292795 -6.296539,3.292795 h -2.878932 v -1.613324 -1.613324 l -1.418578,1.37296 c -2.493633,2.413441 -6.538607,3.483102 -10.269409,2.715661 z m 9.113646,-9.273022 c 4.190675,-2.799553 3.852323,-9.662828 -0.575439,-11.672446 -1.028393,-0.466755 -2.466547,-0.852958 -3.195897,-0.858231 -2.036174,-0.01472 -5.037204,1.732969 -5.979603,3.482299 -1.053251,1.955099 -0.857704,5.626571 0.390364,7.329237 1.999242,2.72745 6.589327,3.570454 9.360575,1.719141 z M 33.583258,29.467223 V 15.281439 h 5.019585 5.019585 v 1.783038 1.783038 l 1.959799,-1.725084 c 2.424747,-2.134347 5.004823,-2.905093 8.725146,-2.606461 3.850761,0.309102 6.205179,1.733002 7.887662,4.770285 1.284142,2.31818 1.287875,2.346448 1.434939,10.867107 0.119503,6.923785 0.02107,8.845337 -0.519341,10.138735 -0.960756,2.299412 -2.939803,3.357278 -6.284514,3.359279 l -2.728035,0.0016 -0.01901,-7.74762 c -0.01046,-4.261192 -0.188433,-8.625782 -0.395506,-9.699091 -0.516826,-2.678828 -2.038335,-3.941087 -4.750532,-3.941087 -4.333191,0 -5.310609,1.900103 -5.310609,10.323828 0,5.07349 -0.131786,6.259244 -0.8637,7.771175 -1.19562,2.469822 -2.769323,3.292795 -6.296538,3.292795 H 33.583257 Z M 8.861599,44.125245 C 6.0409622,43.282011 3.1991641,42.233114 0.7789637,40.536156 0.72644075,38.574487 2.2481313,36.875889 2.9736554,35.099815 3.5442723,33.994602 4.1605272,32.913354 4.863347,31.8866 c 2.6451852,1.840311 5.418094,3.950655 8.802687,3.902023 2.273222,0.09839 5.341461,-0.310188 6.17512,-2.813591 C 20.525619,31.172869 19.60586,29.131229 17.905489,28.292528 13.65859,25.82595 8.187886,25.793149 4.5533405,22.21701 1.4896339,18.998777 1.5436094,14.009283 2.6463153,9.9755828 4.0848954,4.9107142 9.0221467,1.1704036 14.23908,0.85751579 18.991095,0.49619513 23.973715,1.1580811 28.200545,3.4567024 c 2.12524,0.8011708 -0.06194,2.8476504 -0.803686,3.9627619 -1.187001,1.6210383 -3.074902,2.8926047 -5.169141,2.5194718 -2.592364,-0.049905 -5.408267,-0.7385371 -7.835926,0.4696699 -1.493197,1.008494 -1.832704,3.549317 -0.584233,4.868124 2.57838,2.145365 6.102205,2.432085 9.095037,3.75931 3.539099,1.295666 7.063021,3.877379 7.830006,7.777702 0.843836,4.505525 0.292803,9.612728 -2.963631,13.09211 -2.844228,3.35394 -7.266957,4.794822 -11.549653,4.904835 -2.4663,0.10726 -4.963964,-0.05527 -7.357719,-0.685442 z"/>
</svg>
