<svg xmlns="http://www.w3.org/2000/svg" viewBox="0 0 200 100" focusable="false" fill="currentColor">
  <path d="M177.215 2.89V1.88h-.672v-.336h1.904v.336h-.784v2.017h-.448zm1.624-.169V1.545h.756l.23.659c.126.361.252.654.279.649.027-.005.173-.301.325-.658l.276-.65h.766v2.353h-.448l-.002-1.023c0-.578-.022-.985-.048-.938-.026.047-.194.507-.373 1.022-.289.83-.34.939-.45.939-.107 0-.165-.117-.479-.967l-.356-.966-.015.966-.016.967h-.445zM64.227 98.723c-8.316-2.968-12.12-13.266-7.997-21.643 2.242-4.554 5.59-6.956 11.027-7.911 2.493-.439 6.245.543 8.417 2.2 1.053.805 2.031 1.346 2.173 1.204.142-.141.258-.814.258-1.494v-1.237h9.602V98.65h-9.602v-1.283c0-1.675-.557-1.972-1.579-.842-2.428 2.685-8.097 3.698-12.3 2.198zm9.15-7.943c3.075-.854 5.544-4.997 4.71-7.905-.955-3.329-3.34-5.172-6.696-5.174-2.76-.003-4.738 1.217-5.913 3.644-1.104 2.28-1.123 3.47-.09 5.738.941 2.071 1.675 2.739 3.874 3.523 2.018.72 2.133.725 4.115.174zM1.285 97.886c.002-.759 6.332-38.704 6.774-40.606.227-.978.327-.993 5.528-.873l5.297.122 4.185 11.234c2.302 6.178 4.286 11.236 4.409 11.24.123.003 2.116-5.052 4.428-11.234l4.205-11.24h10.737l3.562 21.06 3.562 21.061H43.364l-1.652-11.24c-.908-6.181-1.795-11.716-1.97-12.3-.365-1.215-.072-1.844-6.498 13.938l-3.822 9.384h-4.228l-4.449-11.349c-2.446-6.241-4.59-11.72-4.763-12.175-.173-.454-.406-.735-.517-.625-.186.187-3.706 22.896-3.706 23.912 0 .29-1.897.455-5.238.455-4.698 0-5.238-.079-5.236-.764zm62.942.837c-9.861-3.52-12.91-17.181-5.63-25.237 4.326-4.79 12.303-5.76 17.12-2.083 1.078.822 2.055 1.495 2.173 1.495.118 0 .215-.688.215-1.528v-1.528h9.602V98.65h-9.602v-1.527c0-1.756-.394-1.909-1.57-.609-2.437 2.696-8.099 3.712-12.308 2.21zm9.051-7.922c3.33-.955 5.705-4.802 4.836-7.833-.978-3.41-3.333-5.265-6.687-5.267-2.771-.003-4.398.905-5.745 3.203-1.835 3.131-1.164 6.636 1.681 8.778 2.01 1.514 3.532 1.802 5.915 1.119zm18.358-6.555V69.842h10.039v4.947l1.637-1.76c2.138-2.297 4.04-3.23 7.164-3.514l2.548-.23v4.673c0 4.64-.007 4.67-.977 4.363-.537-.17-1.993-.31-3.236-.31-2.97 0-4.897 1.13-6.154 3.61-.906 1.787-.982 2.523-.982 9.483v7.546h-10.04zm23.57-8.948V51.946h10.027l.115 14.228.115 14.228 5.524-5.28 5.523-5.28h13.203l-7.197 6.639-7.198 6.638 7.513 7.657 7.512 7.656-6.765.133-6.766.132-5.768-6.025-5.769-6.025-.015 6.002-.015 6.001h-10.039zm43.212 23.624c-4.47-1.297-7.685-3.862-9.64-7.692-1.515-2.97-1.705-9.307-.386-12.876 1.295-3.503 4.95-7.172 8.31-8.34 3.272-1.14 9.77-1.136 13.05.004 4.941 1.719 8.275 6.563 8.967 13.03l.316 2.944H157.22l.383 2.048c.457 2.444 1.707 3.903 3.91 4.563 2.21.662 4.488.15 6.264-1.41 1.47-1.291 1.524-1.302 6.081-1.179l4.597.125-.81 1.805c-1.2 2.678-3.663 5.163-6.246 6.3-2.79 1.229-9.819 1.596-12.982.678zm11.349-18.976c0-.912-2.119-3.41-3.5-4.126-1.788-.926-4.6-.736-6.384.433-.945.619-2.338 2.902-2.338 3.833 0 .127 2.75.232 6.111.232 3.36 0 6.11-.168 6.11-.372zm13.967 8.447V78.135h-3.492v-8.293h3.492v-8.73h10.04v8.73h5.674v8.293h-5.674V98.65h-10.04zm0 0V78.135h-3.492v-8.293h3.492v-8.73h10.04v8.73h5.674v8.293h-5.674V98.65h-10.04zm0 0V78.135h-3.492v-8.293h3.492v-8.73h10.04v8.73h5.674v8.293h-5.674V98.65h-10.04zm-5.456-44.072c-4.457-1.614-5.498-7.104-1.983-10.47 1.669-1.6 5.218-2.04 7.387-.919 3.92 2.027 4.249 8.65.539 10.84a7.094 7.094 0 01-5.943.549zm0 0c-2.232-.808-3.546-2.337-3.922-4.562-.38-2.25.314-4.352 1.958-5.927 1.65-1.58 5.212-2.015 7.368-.9 3.92 2.027 4.249 8.65.539 10.84a7.094 7.094 0 01-5.943.549zm.92-22.76c1.066-4.054 2.645-10.17 3.51-13.59l1.571-6.22h10.28l-2.986 11.603c-1.642 6.383-3.294 12.075-3.67 12.65-1.094 1.668-3.159 2.46-7.051 2.703l-3.593.224zm-40.422 14.235V15.281h9.603v1.528c0 1.865.347 1.906 1.953.23 1.778-1.855 4.915-2.787 8.515-2.53 5.139.368 9.317 3.422 11.734 8.577.99 2.11 1.15 3.031 1.15 6.6 0 3.554-.162 4.492-1.135 6.567-1.487 3.17-3.324 5.21-6.002 6.668-4.585 2.495-9.68 2.436-13.775-.16-1.119-.71-2.11-1.29-2.202-1.29-.093 0-.233 2.55-.312 5.667l-.144 5.667-1.348 1.347c-1.398 1.397-3.585 2.13-6.4 2.149l-1.637.01zm19.428-.192c1.67-.697 3.047-2.634 3.467-4.872.69-3.68-1.891-7.27-5.63-7.831-2.652-.398-5.788 1.094-6.922 3.293-1.042 2.02-.835 6.102.378 7.466 2.225 2.502 5.58 3.251 8.707 1.944zm-19.428.255V15.281h9.603v1.528c0 1.865.347 1.906 1.953.23 1.778-1.855 4.915-2.787 8.515-2.53 5.139.368 9.317 3.422 11.734 8.577.99 2.11 1.15 3.03 1.15 6.6 0 4.662-.78 6.977-3.45 10.235-4.1 5.003-12.216 6.331-17.364 2.842-1.036-.702-2.03-1.28-2.21-1.284-.18-.005-.329 2.3-.33 5.12 0 4.314-.136 5.35-.852 6.524-1.24 2.034-2.597 2.74-5.851 3.044l-2.898.27zm20.284-.67c.652-.426 1.58-1.665 2.06-2.752 2.302-5.204-1.872-10.469-7.54-9.51-3.25.548-5.201 3.037-5.201 6.634 0 4.367 2.663 6.85 7.04 6.565 1.37-.089 2.98-.503 3.641-.936zm-56.076.389V15.281h10.04v3.146l1.481-1.3c4.696-4.124 12.732-3.427 17.319 1.5 2.027 2.177 2.724 3.355 3.657 6.178 1.624 4.918.277 11.488-3.157 15.4-4.318 4.917-13.264 5.83-18.008 1.839l-1.292-1.088v4.855c0 5.497-.467 7.094-2.593 8.884-1.229 1.033-1.777 1.18-4.425 1.18h-3.022zm20.562-.688c2.618-1.864 3.268-5.409 1.59-8.68-1.315-2.566-3.286-3.618-6.347-3.389-4.104.308-6.39 3.018-6.08 7.21.198 2.671 1.219 4.312 3.401 5.465 1.967 1.039 5.534.748 7.436-.606zm-45.78 9.625c-2.528-.52-5.992-2.464-7.549-4.237-.704-.802-1.82-2.483-2.48-3.734-1.097-2.082-1.2-2.683-1.2-7.077 0-4.423.098-4.985 1.232-7.139 2.621-4.977 7.254-7.92 12.47-7.92 3.014 0 4.851.568 7.36 2.273l1.854 1.261v-2.66h10.04v11.647c0 10.713-.07 11.79-.864 13.431-1.196 2.47-2.77 3.293-6.297 3.293h-2.879v-3.227L88.035 41.8c-2.494 2.414-6.539 3.483-10.27 2.716zm9.113-9.273c4.19-2.8 3.852-9.663-.575-11.672-1.029-.467-2.467-.853-3.196-.859-2.036-.014-5.037 1.733-5.98 3.483-1.053 1.955-.858 5.626.39 7.329 2 2.727 6.59 3.57 9.361 1.719zm-53.296-5.775V15.281h10.04v3.567l1.96-1.726c2.424-2.134 5.004-2.905 8.724-2.606 3.851.31 6.206 1.733 7.888 4.77 1.284 2.318 1.288 2.347 1.435 10.867.12 6.924.021 8.846-.52 10.14-.96 2.299-2.94 3.356-6.284 3.358l-2.728.002-.019-7.748c-.01-4.26-.188-8.625-.395-9.699-.517-2.679-2.039-3.94-4.751-3.94-4.333 0-5.31 1.9-5.31 10.323 0 5.073-.132 6.26-.864 7.771-1.196 2.47-2.77 3.293-6.297 3.293h-2.879zM8.862 44.125c-2.821-.843-5.663-1.892-8.083-3.589-.053-1.962 1.47-3.66 2.195-5.436a30.159 30.159 0 011.89-3.213c2.645 1.84 5.417 3.95 8.802 3.902 2.273.098 5.341-.31 6.175-2.814.685-1.802-.235-3.844-1.936-4.682-4.246-2.467-9.717-2.5-13.352-6.076-3.063-3.218-3.01-8.208-1.907-12.241C4.085 4.91 9.022 1.17 14.24.858c4.752-.362 9.735.3 13.962 2.599 2.125.8-.062 2.847-.804 3.962-1.187 1.622-3.075 2.893-5.17 2.52-2.592-.05-5.408-.739-7.835.47-1.493 1.008-1.833 3.549-.584 4.868 2.578 2.145 6.102 2.432 9.095 3.759 3.539 1.296 7.063 3.877 7.83 7.778.843 4.505.292 9.612-2.964 13.092-2.844 3.354-7.267 4.795-11.55 4.905-2.466.107-4.964-.056-7.357-.686z"/>
</svg>
