<svg viewBox="0 0 24 24" xmlns="http://www.w3.org/2000/svg" focusable="false">
  <path d="M7.822 1a.75.75 0 01.75.75c0 .326.277.59.618.59h1.057c1.573.006 2.858 1.27 2.865 2.819v.218c1.02.005 2.048.016 3.078.033 3.651 0 6.31 2.609 6.31 6.202v4.65c0 3.59-2.655 6.198-6.316 6.201a271.278 271.278 0 01-8.874 0c-3.65 0-6.31-2.609-6.31-6.201v-4.65C1 8.019 3.66 5.41 7.323 5.41a262.07 262.07 0 014.288-.037v-.21c-.002-.724-.616-1.32-1.367-1.322H9.19c-1.167 0-2.118-.938-2.118-2.091a.75.75 0 01.75-.75zm3.88 5.873c-1.477 0-2.935.013-4.367.037-2.807 0-4.835 1.978-4.835 4.702v4.65c0 2.723 2.028 4.701 4.823 4.701 2.947.049 5.918.049 8.842 0h.013c2.794 0 4.822-1.978 4.822-4.701v-4.65c0-2.724-2.028-4.702-4.822-4.702a280.925 280.925 0 00-4.477-.037zm-3.104 4.442a.75.75 0 01.75.75v1.12l1.16.002a.75.75 0 010 1.5l-1.16-.001v1.124a.75.75 0 01-1.5 0v-1.124h-1.16a.75.75 0 010-1.5h1.16v-1.121a.75.75 0 01.75-.75zm8.332 3.688a.75.75 0 010 1.5h-.107a.75.75 0 010-1.5h.107zm-1.814-3.574a.75.75 0 010 1.5h-.107a.75.75 0 010-1.5h.107z" fill-rule="evenodd"/>
</svg>
