<svg viewBox="0 0 24 24" xmlns="http://www.w3.org/2000/svg" focusable="false">
  <g stroke="#000" stroke-width="1.5" fill="none" fill-rule="evenodd" stroke-linecap="round" stroke-linejoin="round">
    <path d="M2.75 12c0 6.937 2.313 9.25 9.25 9.25 6.937 0 9.25-2.313 9.25-9.25 0-6.937-2.313-9.25-9.25-9.25-6.937 0-9.25 2.313-9.25 9.25z"/>
    <path d="M10.599 8.784a1.76 1.76 0 11-3.521.001 1.76 1.76 0 013.52 0zm10.521 5.883c-.88-.906-2.127-2.737-4.416-2.737-2.289 0-2.339 4.038-4.675 4.038-2.337 0-3.278-1.371-4.8-.655-1.523.715-2.763 3.56-2.763 3.56"/>
  </g>
</svg>
