<svg xmlns="http://www.w3.org/2000/svg" viewBox="0 0 19 11" fill="currentColor" focusable="false">
  <path d="M13.174.108c1.602.37 2.215 1.301 2.984 2.583h-2.984V.108zm-9.363 2.69c.313 0 .541.15.541.503a.54.54 0 01-.54.538H.542A.54.54 0 000 4.377a.54.54 0 00.541.538h4.873a.54.54 0 01.544.538.54.54 0 01-.542.538H.541A.54.54 0 000 6.53a.54.54 0 00.541.538h1.191v1.614a.54.54 0 00.542.538h1.088a2.073 2.073 0 002.034 1.65c.995 0 1.84-.7 2.034-1.65h5.497a2.073 2.073 0 002.034 1.65c.995 0 1.84-.7 2.034-1.65h.944a.54.54 0 00.541-.538V5.453c0-1.579-1.676-1.684-1.677-1.686h-4.17a.54.54 0 01-.542-.538V0H2.274a.54.54 0 00-.542.538v1.184h-.65a.54.54 0 00-.54.538.54.54 0 00.54.538h2.729zM15.663 8.11a.983.983 0 010 1.395c-.624.62-1.695.18-1.695-.697s1.071-1.318 1.695-.698zm-9.565 0a.983.983 0 010 1.395c-.624.62-1.695.18-1.695-.697S5.474 7.49 6.098 8.11z"/>
</svg>
