<svg viewBox="0 0 24 24" xmlns="http://www.w3.org/2000/svg" focusable="false">
  <path d="M20 18.33c0 3.29-4.566 3.67-8 3.67-.346 0-.687-.005-1.022-.015a.717.717 0 01-.7-.738c.01-.396.354-.694.74-.697.323.009.65.013.982.013 4.35 0 6.555-.75 6.555-2.233 0-1.496-2.206-2.255-6.555-2.255-4.35 0-6.555.752-6.555 2.235 0 .485.173 1.188 1.676 1.694.378.127.58.534.452.909a.722.722 0 01-.916.45C4.46 20.624 4 19.295 4 18.31c0-3.223 4.381-3.654 7.788-3.67h.593c2.272.011 7.619.212 7.619 3.69zM12 2c2.97 0 5.387 2.402 5.387 5.354 0 2.95-2.416 5.353-5.387 5.353-2.97 0-5.388-2.402-5.388-5.353C6.612 4.402 9.03 2 12 2zm0 1.437c-2.174 0-3.942 1.757-3.942 3.917 0 2.159 1.768 3.916 3.942 3.916 2.174 0 3.942-1.757 3.942-3.916 0-2.16-1.768-3.917-3.942-3.917z"/>
</svg>
