<svg xmlns="http://www.w3.org/2000/svg" viewBox="0 0 32 32" focusable="false">
  <path fill="#bc9a7b" d="M.5 21.501V6.436a1 1 0 011.211-.977L16 8.549l14.289-3.09a1 1 0 011.211.977v15.077a1 1 0 01-.793.979L16 25.602 1.292 22.48a1 1 0 01-.792-.978z"/>
  <path fill="#2c2b2d" d="M16 26.103a.534.534 0 01-.104-.011L1.188 22.969A1.506 1.506 0 010 21.5V6.437A1.499 1.499 0 011.817 4.97L16 8.038l14.184-3.067A1.5 1.5 0 0132 6.437v15.077a1.506 1.506 0 01-1.19 1.466l-14.706 3.112a.529.529 0 01-.104.01zM1.499 5.937a.499.499 0 00-.499.5V21.5a.502.502 0 00.396.49L16 25.09l14.604-3.089a.502.502 0 00.396-.488V6.437a.5.5 0 00-.605-.49l-14.29 3.091a.48.48 0 01-.21 0l-14.29-3.09a.558.558 0 00-.106-.011z"/>
  <path fill="#e0e0e2" d="M27.733 19.794L16 22.61 4.267 19.794a1 1 0 01-.767-.972V3.878a1 1 0 011.233-.972L16 5.61l11.267-2.704a1 1 0 011.233.972v14.944a1 1 0 01-.767.972z"/>
  <path fill="#2c2b2d" d="M16 23.11a.525.525 0 01-.117-.013L4.15 20.28A1.495 1.495 0 013 18.821V3.88a1.5 1.5 0 011.85-1.46L16 5.097 27.15 2.42A1.5 1.5 0 0129 3.879V18.82a1.494 1.494 0 01-1.15 1.46l-11.733 2.816a.525.525 0 01-.117.013zM4.499 3.378a.5.5 0 00-.499.5v14.943a.498.498 0 00.383.487L16 22.096l11.617-2.788A.498.498 0 0028 18.82V3.88a.499.499 0 00-.616-.486L16.117 6.097a.523.523 0 01-.234 0L4.617 3.393a.49.49 0 00-.118-.015z"/>
  <path fill="#afaeb3" d="M4.267 19.794L16 22.61v-.635a3 3 0 00-2.3-2.917L3.5 16.61v2.212a1 1 0 00.767.972z"/>
  <path fill="#2c2b2d" d="M16 23.11a.525.525 0 01-.117-.013L4.15 20.28A1.495 1.495 0 013 18.821v-2.21a.5.5 0 01.19-.393.506.506 0 01.427-.094l10.2 2.447a3.49 3.49 0 012.683 3.405v.634a.5.5 0 01-.5.5zM4 17.244v1.577a.498.498 0 00.383.487L15.5 21.977v-.001a2.494 2.494 0 00-1.916-2.432z"/>
  <path fill="#afaeb3" d="M16 22.61l11.733-2.816a1 1 0 00.767-.972V16.61l-10.2 2.448a3 3 0 00-2.3 2.917z"/>
  <path fill="#2c2b2d" d="M16 23.11a.5.5 0 01-.5-.5v-.634a3.49 3.49 0 012.683-3.405l10.2-2.447a.506.506 0 01.427.094.5.5 0 01.19.392v2.211a1.494 1.494 0 01-1.15 1.46l-11.733 2.816a.525.525 0 01-.117.013zm12-5.866l-9.584 2.3a2.494 2.494 0 00-1.916 2.432l11.117-2.668A.498.498 0 0028 18.82zm-9.196-3.376a.5.5 0 01-.121-.985l6.946-1.737a.5.5 0 01.242.971l-6.946 1.737a.52.52 0 01-.121.014zm0-3a.5.5 0 01-.121-.985l6.946-1.737a.5.5 0 01.242.971l-6.946 1.737a.52.52 0 01-.121.014zm0-3a.5.5 0 01-.121-.985l6.946-1.737a.5.5 0 01.242.971l-6.946 1.737a.52.52 0 01-.121.014zm0 9a.5.5 0 01-.121-.985l6.946-1.737a.5.5 0 01.242.971l-6.946 1.737a.52.52 0 01-.121.014zm-6.054-3a.52.52 0 01-.121-.014l-6.946-1.737a.5.5 0 01.242-.97l6.946 1.736a.5.5 0 01-.12.985zm0-3a.52.52 0 01-.121-.014L5.683 9.117a.5.5 0 01.242-.97l6.946 1.736a.5.5 0 01-.12.985zm0-3a.52.52 0 01-.121-.014L5.683 6.117a.5.5 0 01.242-.97l6.946 1.736a.5.5 0 01-.12.985zm0 9a.52.52 0 01-.121-.014l-6.946-1.737a.5.5 0 01.242-.97l6.946 1.736a.5.5 0 01-.12.985z"/>
  <path fill="#2c2b2d" d="M16 23.11a.5.5 0 01-.5-.5v-17a.5.5 0 011 0v17a.5.5 0 01-.5.5z"/>
  <path fill="#b28966" d="M28.593 29.085L16.02 25.596l13.84-2.925v5.45a1 1 0 01-1.267.964z"/>
  <path fill="#2c2b2d" d="M28.864 29.622a1.524 1.524 0 01-.405-.056l-12.573-3.488a.5.5 0 01.03-.97l13.84-2.926a.507.507 0 01.419.1.5.5 0 01.185.389v5.45a1.5 1.5 0 01-1.496 1.501zm-.137-1.018a.5.5 0 00.633-.483v-4.833l-11.233 2.374z"/>
  <path fill="#b28966" d="M3.427 29.085L16 25.596 2.16 22.664v5.457a1 1 0 001.267.964z"/>
  <path fill="#2c2b2d" d="M3.156 29.622a1.502 1.502 0 01-1.496-1.5v-5.458a.5.5 0 01.603-.49l13.84 2.933a.5.5 0 01.03.971L3.562 29.566a1.518 1.518 0 01-.405.056zm-.496-6.34v4.84a.5.5 0 00.633.482l10.602-2.942z"/>
</svg>
