<svg viewBox="0 0 24 24" xmlns="http://www.w3.org/2000/svg" focusable="false">
  <path d="M19.385 3.711a.74.74 0 011.035 0 .712.712 0 010 1.019L4.615 20.288a.735.735 0 01-1.035 0 .711.711 0 010-1.018l5.196-5.115A3.75 3.75 0 018.098 12c0-2.119 1.75-3.841 3.902-3.841.787 0 1.553.238 2.19.665l2.034-2.001c-2.868-1.837-6.365-1.68-9.097.45-1.443 1.117-2.682 2.747-3.595 4.728.406.885.878 1.7 1.404 2.43a.713.713 0 01-.172 1.003.735.735 0 01-.424.134.732.732 0 01-.597-.303 16.048 16.048 0 01-1.684-2.982.709.709 0 01.001-.569C3.081 9.387 4.52 7.46 6.221 6.142c3.298-2.569 7.63-2.696 11.056-.356zm-.362 4.61a.739.739 0 011.024.143c.724.946 1.36 2.04 1.893 3.25a.71.71 0 010 .571c-2.097 4.783-5.813 7.639-9.94 7.639a8.86 8.86 0 01-2.769-.445.719.719 0 01-.462-.911.735.735 0 01.925-.456c.75.246 1.526.37 2.306.37 3.445 0 6.592-2.416 8.468-6.481a14.196 14.196 0 00-1.59-2.671.713.713 0 01.145-1.009zm-3.882 3.514l.099.01a.72.72 0 01.59.838c-.283 1.563-1.542 2.803-3.13 3.088a.729.729 0 01-.851-.58.723.723 0 01.59-.839 2.413 2.413 0 001.952-1.924.733.733 0 01.849-.582zM12.001 9.6c-1.346 0-2.44 1.076-2.44 2.4 0 .392.106.764.286 1.101l3.272-3.22A2.448 2.448 0 0012 9.6z"/>
</svg>
