<svg xmlns="http://www.w3.org/2000/svg" viewBox="0 0 800 800" focusable="false">
  <path d="M399.997 10c-143.596 0-259.998 116.402-259.998 259.998 0 46.184 12.398 89.379 33.51 126.949 3.51 6.24 7.184 12.381 11.174 18.299L399.997 790l215.309-374.754c3.316-4.91 6.176-10.113 9.141-15.246l2.039-3.053c21.094-37.57 33.516-80.766 33.516-126.949C660.001 126.402 543.587 10 399.997 10zm0 130.002c71.789 0 129.996 58.201 129.996 129.996S471.786 400 399.997 400c-71.795 0-130.002-58.207-130.002-130.002s58.207-129.996 130.002-129.996z"/>
  <path d="M399.997 107.5c-89.748 0-162.498 72.756-162.498 162.498 0 89.736 72.75 162.498 162.498 162.498 89.73 0 162.504-72.762 162.504-162.498 0-89.742-72.773-162.498-162.504-162.498zm0 64.998c53.848 0 97.5 43.652 97.5 97.5 0 53.854-43.652 97.5-97.5 97.5-53.854 0-97.5-43.646-97.5-97.5 0-53.848 43.647-97.5 97.5-97.5z"/>
</svg>
