<svg xmlns="http://www.w3.org/2000/svg" viewBox="0 0 32 32" focusable="false">
  <path fill="#e0e0e2" d="M20.521 9.189L22.48 5.31a.45.45 0 01.807.007l1.887 3.913a.45.45 0 00.337.25l4.293.663a.45.45 0 01.242.77l-3.138 3.004a.45.45 0 00-.133.397l.695 4.288a.45.45 0 01-.657.468l-3.827-2.056a.45.45 0 00-.418-.004l-3.864 1.986a.45.45 0 01-.648-.48l.773-4.275a.45.45 0 00-.126-.399l-3.083-3.06a.45.45 0 01.257-.766l4.304-.585a.45.45 0 00.341-.243z"/>
  <path fill="#2c2b2d" d="M27.026 19.626a.952.952 0 01-.45-.114l-3.827-2.057-3.817 1.987a.95.95 0 01-1.37-1.014l.774-4.274-3.068-3.016a.95.95 0 01.54-1.616l4.278-.582 1.947-3.855a1.004 1.004 0 01.856-.521.943.943 0 01.847.537l1.887 3.913 4.256.636a.95.95 0 01.512 1.625l-3.139 3.004.71 4.244a.952.952 0 01-.936 1.103zm-4.254-3.165a.954.954 0 01.45.113l3.827 2.057-.769-4.236a.95.95 0 01.28-.838l3.14-3.004-4.266-.578a.95.95 0 01-.712-.527l-1.886-3.912-1.868 3.878a.95.95 0 01-.72.514l-4.305.585 3.111 2.975a.95.95 0 01.266.844l-.773 4.274 3.79-2.04a.947.947 0 01.435-.105zm-2.66-7.524z"/>
  <path fill="#e0e0e2" d="M7.488 3.389A15.386 15.386 0 0112.287.647a.448.448 0 01.493.705A15.833 15.833 0 0027.508 26.86a.448.448 0 01.366.778 15.42 15.42 0 01-6.103 3.204 15.992 15.992 0 01-15-3.738 15.919 15.919 0 01.717-23.716z"/>
  <path fill="#2c2b2d" d="M17.675 31.877A16.46 16.46 0 016.43 27.47a16.013 16.013 0 01-5.107-12.26A16.533 16.533 0 017.166 3.006 15.915 15.915 0 0112.12.176a.936.936 0 011.08.34.947.947 0 01-.028 1.148 15.333 15.333 0 0014.263 24.702.944.944 0 011.008.549.933.933 0 01-.244 1.104 15.935 15.935 0 01-6.3 3.307 16.386 16.386 0 01-4.224.551zM12.28 1.182a14.897 14.897 0 00-4.47 2.59 15.529 15.529 0 00-5.488 11.464 15.026 15.026 0 004.791 11.505 15.51 15.51 0 0014.53 3.619 14.945 14.945 0 005.762-2.98A16.333 16.333 0 0112.28 1.182zM7.488 3.389z"/>
</svg>
