<svg viewBox="0 0 24 24" xmlns="http://www.w3.org/2000/svg" focusable="false">
  <path d="M17.3 12.83c1.212 0 2.31.068 2.985.197.011 0 .629.127.835.209.297.128.549.36.71.65.114.23.17.476.17.731-.01.266-.183.766-.263.963-.502 1.3-2.15 3.783-3.156 4.736-.16.161-.354.336-.4.382-.253.197-.56.302-.892.302a1.36 1.36 0 01-.835-.28 3.93 3.93 0 01-.39-.349l-.044-.044c-1.042-.974-2.608-3.401-3.111-4.632-.01 0-.262-.613-.312-.984l-.009-.094v-.046c0-.535.297-1.034.779-1.29.263-.138 1.028-.266 1.04-.278.686-.105 1.738-.174 2.893-.174zm-10.594.06c.479 0 .873.366.927.838l.006.11.257 4.58c0 .667-.533 1.207-1.19 1.207a1.198 1.198 0 01-1.186-1.084l-.006-.124.258-4.579a.94.94 0 01.934-.947zM6.712 3c.296 0 .593.093.834.278.104.075.248.21.34.302l.094.093c1.04.976 2.608 3.4 3.111 4.631.01 0 .261.615.312.986l.009.094v.046c0 .534-.299 1.033-.779 1.288-.263.14-1.028.267-1.04.279-.686.105-1.738.173-2.893.173-1.212 0-2.31-.068-2.985-.197-.012 0-.629-.127-.835-.209a1.491 1.491 0 01-.71-.65 1.628 1.628 0 01-.17-.73c.01-.267.183-.766.262-.963.503-1.3 2.15-3.784 3.157-4.736.16-.162.354-.337.4-.383.251-.197.56-.302.893-.302zm10.583 1.375c.616 0 1.123.475 1.184 1.084l.006.124-.256 4.579a.94.94 0 01-.934.948.939.939 0 01-.928-.838l-.006-.11-.258-4.579a1.2 1.2 0 011.192-1.208z"/>
</svg>
