<svg viewBox="0 0 24 24" xmlns="http://www.w3.org/2000/svg" fill="currentColor" focusable="false">
  <path d="M12 17a5 5 0 110-10 5 5 0 010 10zm0-2a3 3 0 100-6 3 3 0 000 6zM11 3a1 1 0 012 0v2a1 1 0 01-2 0V3zm0 16a1 1 0 012 0v2a1 1 0 01-2 0v-2zM4.513 5.927a1 1 0 011.414-1.414l1.42 1.42a1 1 0 01-1.414 1.414l-1.42-1.42zm12.14 12.14a1 1 0 011.414-1.414l1.42 1.42a1 1 0 01-1.414 1.414l-1.42-1.42zM3 13a1 1 0 010-2h2a1 1 0 010 2H3zm16 0a1 1 0 010-2h2a1 1 0 010 2h-2zM5.927 19.487a1 1 0 11-1.414-1.414l1.42-1.42a1 1 0 111.414 1.414l-1.42 1.42zm12.14-12.14a1 1 0 01-1.414-1.414l1.42-1.42a1 1 0 011.414 1.414l-1.42 1.42z" fill="none"/>
</svg>
