<svg data-name="Layer 1" xmlns="http://www.w3.org/2000/svg" viewBox="0 0 24 24" focusable="false">
  <path d="M14.329 3.916a10.43 10.43 0 01-.9 3.793 11.199 11.199 0 01-5.736 5.728 10.433 10.433 0 01-3.776.892 1.994 1.994 0 00-1.525 3.181A10.83 10.83 0 1017.51 2.392a1.994 1.994 0 00-3.181 1.524z" fill="#ffb531"/>
  <path d="M7.728 6.425l.824-.824a.5.5 0 10-.707-.707l-.824.824-.823-.824a.5.5 0 00-.707.707l.823.824-.823.824a.5.5 0 10.707.707l.823-.824.824.824a.5.5 0 10.707-.707z" fill="#030835"/>
</svg>
