<svg xmlns="http://www.w3.org/2000/svg" viewBox="0 0 32 32" focusable="false">
  <path d="M27.477 5.077c1.408 0 2.56 1.131 2.56 2.539v20.267a2.568 2.568 0 01-2.56 2.56H4.65a2.56 2.56 0 01-2.517-2.56V7.616c0-1.408 1.152-2.56 2.539-2.56h1.28v1.28c0 1.408 1.109 2.539 2.517 2.539V1.259C8.554.627 9.09.144 9.738.144s1.185.483 1.269 1.109l.001.007v3.819h8.875v1.28a2.526 2.526 0 002.539 2.517V1.26c.084-.632.621-1.115 1.269-1.115s1.185.483 1.269 1.109l.001.007V5.08zM7.595 18.581h3.413v-3.392H7.595zm6.784 6.784h3.413v-3.392h-3.413zm0-6.784h3.413v-3.392h-3.413zm6.784 6.784h3.392v-3.392h-3.392zm0-6.784h3.392v-3.392h-3.392z"/>
</svg>
