<svg xmlns="http://www.w3.org/2000/svg" viewBox="0 0 24 24">
  <g fill="#200E32">
    <path d="M8.947 5.082h6.143v-1.43H8.947v1.43zM7.55 3.71v.007c-.48.044-.954.139-1.416.282v-.005c-.031.013-.059.02-.085.033a.518.518 0 00-.108.039 3.843 3.843 0 00-.297.112c-.051.02-.102.046-.152.065-.07.033-.145.072-.215.105l-.171.099c-.05.026-.095.059-.146.089a4.096 4.096 0 00-.714.583l-.013.013c-.076.09-.151.171-.22.257l-.014.012a5.298 5.298 0 00-.992 3.371v.384h1.385v-.387c0-1.686.537-2.735 1.732-3.273a4.743 4.743 0 011.43-.356h.012V3.716L7.55 3.71zm12.454 1.686l-.006-.013a3.03 3.03 0 00-.228-.256l-.008-.013a4.333 4.333 0 00-.72-.583c-.044-.027-.085-.06-.139-.09-.053-.029-.114-.065-.177-.098a3.145 3.145 0 00-.215-.105c-.043-.02-.095-.046-.15-.065-.097-.04-.191-.08-.291-.112-.038-.013-.07-.026-.108-.04-.037-.013-.058-.02-.085-.032v.007a6.953 6.953 0 00-1.417-.282V5.13c.485.043.96.163 1.409.356.564.232 1.03.658 1.322 1.207.303.642.447 1.352.418 2.066v.397h1.384v-.387a5.302 5.302 0 00-.989-3.373z" opacity=".4"/>
    <path d="M16.5 2.717v3.151a.72.72 0 01-1.44 0V2.724a.72.72 0 011.44-.01v.003zm-7.56.011v3.144a.72.72 0 11-1.44 0V2.728a.72.72 0 111.44 0M21 9.156v7.754c0 3.382-1.888 5.09-5.63 5.09H8.621C4.888 22 3 20.292 3 16.91V9.156h18zm-4.884 7.09a.84.84 0 00-.833.85c.009.47.378.85.833.85.455 0 .824-.38.824-.85s-.37-.85-.824-.85zm-4.112-.009a.852.852 0 00-.832.859c0 .47.377.85.832.85.455 0 .824-.38.824-.859a.855.855 0 00-.824-.85zm-4.12 0a.834.834 0 00-.824.859c0 .47.37.85.824.85.455 0 .824-.39.824-.859s-.369-.85-.824-.85zm8.232-3.62c-.464 0-.824.38-.824.85 0 .469.369.85.824.85a.838.838 0 00.824-.85c0-.47-.37-.85-.824-.85zm-4.112-.009a.852.852 0 00-.832.859c0 .469.377.85.832.85.455 0 .824-.381.824-.86 0-.46-.369-.84-.824-.849zm-4.111 0c-.464 0-.833.39-.833.859s.37.85.824.85c.464 0 .833-.39.824-.86 0-.468-.369-.849-.815-.849z"/>
  </g>
</svg>
