<svg xmlns="http://www.w3.org/2000/svg" viewBox="0 0 48 48">
  <style>
    .st1{fill:#ffc258}.st2{fill:#4f4b45}.st3{fill:#fabfa5}.st7{fill:#f0d5a8}.st8{fill:#f7e5c6}.st10{fill:none;stroke:#45413c;stroke-linecap:round;stroke-linejoin:round;stroke-miterlimit:10}.st18{fill:#e8f4fa}.st83,.st88{fill:#daedf7}.st88{stroke:#45413c;stroke-linecap:round;stroke-linejoin:round;stroke-miterlimit:10}
  </style>
  <symbol id="New_Symbol_14" viewBox="-6.5 -6.5 13 13">
    <path d="M0-6c2.2 0 4.1 1.5 4.7 3.5C6.3-2.5 6.4 0 5 0v1c0 2.8-2.2 5-5 5s-5-2.2-5-5V0c-1.4 0-1.3-2.5.2-2.5C-4.1-4.5-2.2-6 0-6z" fill="#ffd4c3" stroke="#504b46" stroke-linecap="round" stroke-linejoin="round" stroke-miterlimit="10"/>
    <circle class="st1" cx="-1.6" cy="-.1" r=".1" fill="#FFC258"/>
    <path class="st2" d="M-1.6.5c-.3 0-.6-.3-.6-.6s.2-.7.6-.7c.3 0 .6.3.6.7s-.3.6-.6.6z" fill="#4F4B45"/>
    <circle class="st1" cx="1.6" cy="-.1" r=".1" fill="#FFC258"/>
    <path class="st2" d="M1.6.5C1.3.5 1 .2 1-.1s.3-.6.6-.6.6.3.6.6-.2.6-.6.6z" fill="#4F4B45"/>
    <circle class="st3" cx="-3" cy="-1.5" r=".5" fill="#FABFA5"/>
    <circle class="st3" cx="3" cy="-1.5" r=".5" fill="#FABFA5"/>
    <path d="M-1.2-3c.8-.5 1.7-.5 2.5 0" fill="none" stroke="#504b46" stroke-linecap="round" stroke-linejoin="round" stroke-miterlimit="10"/>
  </symbol>
  <g id="Icons">
    <g id="XMLID_1928_">
      <ellipse id="XMLID_2018_" cx="24" cy="41.5" rx="17.8" ry="1.7" fill="#45413c" opacity=".15"/>
      <path id="XMLID_1234_" d="M39 40.7H9c-2.5 0-4.4-2-4.4-4.4V16.8c0-2.5 2-4.4 4.4-4.4h30c2.5 0 4.4 2 4.4 4.4v19.5c.1 2.4-1.9 4.4-4.4 4.4z" fill="#debb7e"/>
      <path id="XMLID_806_" class="st7" d="M39 12.3H9c-2.5 0-4.4 2-4.4 4.4v2.8c0-2.5 2-4.4 4.4-4.4h30c2.5 0 4.4 2 4.4 4.4v-2.8c.1-2.4-1.9-4.4-4.4-4.4z" fill="#F0D5A8"/>
      <path id="XMLID_805_" class="st10" d="M39 40.7H9c-2.5 0-4.4-2-4.4-4.4V16.8c0-2.5 2-4.4 4.4-4.4h30c2.5 0 4.4 2 4.4 4.4v19.5c.1 2.4-1.9 4.4-4.4 4.4z" fill="none" stroke="#45413C" stroke-linecap="round" stroke-linejoin="round" stroke-miterlimit="10"/>
      <path id="XMLID_804_" class="st83" d="M2.9 23.5h1.7v-5.6H2.9c-.6 0-1.1.5-1.1 1.1v3.3c0 .7.4 1.2 1.1 1.2z" fill="#DAEDF7"/>
      <path id="XMLID_801_" class="st83" d="M43.5 23.5h1.7c.6 0 1.1-.5 1.1-1.1V19c0-.6-.5-1.1-1.1-1.1h-1.7v5.6z" fill="#DAEDF7"/>
      <path id="XMLID_738_" class="st18" d="M2.9 17.9c-.6 0-1.1.5-1.1 1.1v1.8c0-.6.5-1.1 1.1-1.1h1.7v-1.8H2.9z" fill="#E8F4FA"/>
      <path id="XMLID_737_" class="st18" d="M45.1 17.9h-1.7v1.8h1.7c.6 0 1.1.5 1.1 1.1V19c0-.6-.4-1.1-1.1-1.1z" fill="#E8F4FA"/>
      <path id="XMLID_735_" class="st10" d="M2.9 23.5h1.7v-5.6H2.9c-.6 0-1.1.5-1.1 1.1v3.3c0 .7.4 1.2 1.1 1.2z" fill="none" stroke="#45413C" stroke-linecap="round" stroke-linejoin="round" stroke-miterlimit="10"/>
      <path id="XMLID_734_" class="st10" d="M43.5 23.5h1.7c.6 0 1.1-.5 1.1-1.1V19c0-.6-.5-1.1-1.1-1.1h-1.7v5.6z" fill="none" stroke="#45413C" stroke-linecap="round" stroke-linejoin="round" stroke-miterlimit="10"/>
      <path id="XMLID_732_" d="M38.5 15.1h-29c-1.2 0-2.2 1-2.2 2.2V24h33.4v-6.7c0-1.2-1-2.2-2.2-2.2z" fill="#bdbec0"/>
      <path id="XMLID_719_" d="M38.5 15.1h-29c-1.2 0-2.2 1-2.2 2.2v2.2c0-1.2 1-2.2 2.2-2.2h28.9c1.2 0 2.2 1 2.2 2.2v-2.2c.1-1.2-.9-2.2-2.1-2.2z" fill="#87898c"/>
      <path id="XMLID_715_" class="st10" d="M38.5 15.1h-29c-1.2 0-2.2 1-2.2 2.2V24h33.4v-6.7c0-1.2-1-2.2-2.2-2.2z" fill="none" stroke="#45413C" stroke-linecap="round" stroke-linejoin="round" stroke-miterlimit="10"/>
      <path id="XMLID_714_" class="st8" d="M38.5 37.9h-29c-1.2 0-2.2-1-2.2-2.2V24h33.4v11.7c0 1.2-1 2.2-2.2 2.2z" fill="#F7E5C6"/>
      <path id="XMLID_711_" class="st7" fill="#F0D5A8" d="M7.3 24h33.4v2.5H7.3z"/>
      <path id="XMLID_710_" class="st10" d="M38.5 37.9h-29c-1.2 0-2.2-1-2.2-2.2V24h33.4v11.7c0 1.2-1 2.2-2.2 2.2z" fill="none" stroke="#45413C" stroke-linecap="round" stroke-linejoin="round" stroke-miterlimit="10"/>
      <circle id="XMLID_701_" class="st7" cx="11.8" cy="19.6" r="2.2" fill="#F0D5A8"/>
      <circle id="XMLID_700_" class="st7" cx="36.2" cy="19.6" r="2.2" fill="#F0D5A8"/>
      <path id="XMLID_693_" class="st8" d="M11.8 19c.9 0 1.7.6 2.1 1.4.1-.3.2-.5.2-.8 0-1.2-1-2.2-2.2-2.2s-2.2 1-2.2 2.2c0 .3.1.6.2.8.1-.8.9-1.4 1.9-1.4z" fill="#F7E5C6"/>
      <path id="XMLID_53_" class="st8" d="M36.2 19c.9 0 1.7.6 2.1 1.4.1-.3.2-.5.2-.8 0-1.2-1-2.2-2.2-2.2s-2.2 1-2.2 2.2c0 .3.1.6.2.8.2-.8 1-1.4 1.9-1.4z" fill="#F7E5C6"/>
      <circle id="XMLID_52_" class="st10" cx="11.8" cy="19.6" r="2.2" fill="none" stroke="#45413C" stroke-linecap="round" stroke-linejoin="round" stroke-miterlimit="10"/>
      <circle id="XMLID_51_" class="st10" cx="36.2" cy="19.6" r="2.2" fill="none" stroke="#45413C" stroke-linecap="round" stroke-linejoin="round" stroke-miterlimit="10"/>
      <path id="XMLID_50_" d="M30.7 21.8H17.3c-.6 0-1.1-.5-1.1-1.1v-2.2c0-.6.5-1.1 1.1-1.1h13.3c.6 0 1.1.5 1.1 1.1v2.2c.1.6-.4 1.1-1 1.1z" fill="#e8f4fa" stroke="#45413c" stroke-linecap="round" stroke-linejoin="round" stroke-miterlimit="10"/>
      <path id="XMLID_49_" class="st10" fill="none" stroke="#45413C" stroke-linecap="round" stroke-linejoin="round" stroke-miterlimit="10" d="M22.3 21.8V19"/>
      <path id="XMLID_48_" class="st10" fill="none" stroke="#45413C" stroke-linecap="round" stroke-linejoin="round" stroke-miterlimit="10" d="M16.2 19.6h15.6"/>
      <path id="XMLID_47_" class="st88" d="M12.8 11.2L12.4 9l21.3-4.2c.6-.1 1.2.3 1.3.9l.2 1.1-22.4 4.4z" fill="#DAEDF7" stroke="#45413C" stroke-linecap="round" stroke-linejoin="round" stroke-miterlimit="10"/>
      <path id="XMLID_46_" class="st10" fill="none" stroke="#45413C" stroke-linecap="round" stroke-linejoin="round" stroke-miterlimit="10" d="M34.9 5.7l5.8-1.2"/>
      <path id="XMLID_45_" class="st88" d="M12.3 9c-.9 0-1.7.7-1.7 1.7v1.7H14v-1.7c0-1-.8-1.7-1.7-1.7z" fill="#DAEDF7" stroke="#45413C" stroke-linecap="round" stroke-linejoin="round" stroke-miterlimit="10"/>
      <path id="XMLID_44_" class="st10" fill="none" stroke="#45413C" stroke-linecap="round" stroke-linejoin="round" stroke-miterlimit="10" d="M10.1 26.8h27.8"/>
      <path id="XMLID_43_" class="st10" fill="none" stroke="#45413C" stroke-linecap="round" stroke-linejoin="round" stroke-miterlimit="10" d="M10.1 29.6h27.8"/>
      <path id="XMLID_42_" class="st10" fill="none" stroke="#45413C" stroke-linecap="round" stroke-linejoin="round" stroke-miterlimit="10" d="M10.1 32.4h27.8"/>
      <path id="XMLID_41_" class="st10" fill="none" stroke="#45413C" stroke-linecap="round" stroke-linejoin="round" stroke-miterlimit="10" d="M10.1 35.1h27.8"/>
    </g>
  </g>
</svg>
