<svg xmlns="http://www.w3.org/2000/svg" viewBox="0 0 48 48" focusable="false">
  <ellipse cx="24" cy="41.5" rx="17.8" ry="1.7" fill="#45413c" opacity=".15"/>
  <path d="M39 40.7H9c-2.5 0-4.4-2-4.4-4.4V16.8c0-2.5 2-4.4 4.4-4.4h30c2.5 0 4.4 2 4.4 4.4v19.5c.1 2.4-1.9 4.4-4.4 4.4z" fill="#debb7e"/>
  <path d="M39 12.3H9c-2.5 0-4.4 2-4.4 4.4v2.8c0-2.5 2-4.4 4.4-4.4h30c2.5 0 4.4 2 4.4 4.4v-2.8c.1-2.4-1.9-4.4-4.4-4.4z" fill="#F0D5A8"/>
  <path d="M39 40.7H9c-2.5 0-4.4-2-4.4-4.4V16.8c0-2.5 2-4.4 4.4-4.4h30c2.5 0 4.4 2 4.4 4.4v19.5c.1 2.4-1.9 4.4-4.4 4.4z" fill="none" stroke="#45413C" stroke-linecap="round" stroke-linejoin="round" stroke-miterlimit="10"/>
  <path d="M2.9 23.5h1.7v-5.6H2.9c-.6 0-1.1.5-1.1 1.1v3.3c0 .7.4 1.2 1.1 1.2zm40.6 0h1.7c.6 0 1.1-.5 1.1-1.1V19c0-.6-.5-1.1-1.1-1.1h-1.7v5.6z" fill="#DAEDF7"/>
  <path d="M2.9 17.9c-.6 0-1.1.5-1.1 1.1v1.8c0-.6.5-1.1 1.1-1.1h1.7v-1.8H2.9zm42.2 0h-1.7v1.8h1.7c.6 0 1.1.5 1.1 1.1V19c0-.6-.4-1.1-1.1-1.1z" fill="#E8F4FA"/>
  <path d="M2.9 23.5h1.7v-5.6H2.9c-.6 0-1.1.5-1.1 1.1v3.3c0 .7.4 1.2 1.1 1.2zm40.6 0h1.7c.6 0 1.1-.5 1.1-1.1V19c0-.6-.5-1.1-1.1-1.1h-1.7v5.6z" fill="none" stroke="#45413C" stroke-linecap="round" stroke-linejoin="round" stroke-miterlimit="10"/>
  <path d="M38.5 15.1h-29c-1.2 0-2.2 1-2.2 2.2V24h33.4v-6.7c0-1.2-1-2.2-2.2-2.2z" fill="#bdbec0"/>
  <path d="M38.5 15.1h-29c-1.2 0-2.2 1-2.2 2.2v2.2c0-1.2 1-2.2 2.2-2.2h28.9c1.2 0 2.2 1 2.2 2.2v-2.2c.1-1.2-.9-2.2-2.1-2.2z" fill="#87898c"/>
  <path d="M38.5 15.1h-29c-1.2 0-2.2 1-2.2 2.2V24h33.4v-6.7c0-1.2-1-2.2-2.2-2.2z" fill="none" stroke="#45413C" stroke-linecap="round" stroke-linejoin="round" stroke-miterlimit="10"/>
  <path d="M38.5 37.9h-29c-1.2 0-2.2-1-2.2-2.2V24h33.4v11.7c0 1.2-1 2.2-2.2 2.2z" fill="#F7E5C6"/>
  <path fill="#F0D5A8" d="M7.3 24h33.4v2.5H7.3z"/>
  <path d="M38.5 37.9h-29c-1.2 0-2.2-1-2.2-2.2V24h33.4v11.7c0 1.2-1 2.2-2.2 2.2z" fill="none" stroke="#45413C" stroke-linecap="round" stroke-linejoin="round" stroke-miterlimit="10"/>
  <circle cx="11.8" cy="19.6" r="2.2" fill="#F0D5A8"/>
  <circle cx="36.2" cy="19.6" r="2.2" fill="#F0D5A8"/>
  <path d="M11.8 19c.9 0 1.7.6 2.1 1.4.1-.3.2-.5.2-.8 0-1.2-1-2.2-2.2-2.2s-2.2 1-2.2 2.2c0 .3.1.6.2.8.1-.8.9-1.4 1.9-1.4zm24.4 0c.9 0 1.7.6 2.1 1.4.1-.3.2-.5.2-.8 0-1.2-1-2.2-2.2-2.2s-2.2 1-2.2 2.2c0 .3.1.6.2.8.2-.8 1-1.4 1.9-1.4z" fill="#F7E5C6"/>
  <circle cx="11.8" cy="19.6" r="2.2" fill="none" stroke="#45413C" stroke-linecap="round" stroke-linejoin="round" stroke-miterlimit="10"/>
  <circle cx="36.2" cy="19.6" r="2.2" fill="none" stroke="#45413C" stroke-linecap="round" stroke-linejoin="round" stroke-miterlimit="10"/>
  <path d="M30.7 21.8H17.3c-.6 0-1.1-.5-1.1-1.1v-2.2c0-.6.5-1.1 1.1-1.1h13.3c.6 0 1.1.5 1.1 1.1v2.2c.1.6-.4 1.1-1 1.1z" fill="#e8f4fa" stroke="#45413c" stroke-linecap="round" stroke-linejoin="round" stroke-miterlimit="10"/>
  <path fill="none" stroke="#45413C" stroke-linecap="round" stroke-linejoin="round" stroke-miterlimit="10" d="M22.3 21.8V19m-6.1.6h15.6"/>
  <path d="M12.8 11.2L12.4 9l21.3-4.2c.6-.1 1.2.3 1.3.9l.2 1.1-22.4 4.4z" fill="#DAEDF7" stroke="#45413C" stroke-linecap="round" stroke-linejoin="round" stroke-miterlimit="10"/>
  <path fill="none" stroke="#45413C" stroke-linecap="round" stroke-linejoin="round" stroke-miterlimit="10" d="M34.9 5.7l5.8-1.2"/>
  <path d="M12.3 9c-.9 0-1.7.7-1.7 1.7v1.7H14v-1.7c0-1-.8-1.7-1.7-1.7z" fill="#DAEDF7" stroke="#45413C" stroke-linecap="round" stroke-linejoin="round" stroke-miterlimit="10"/>
  <path fill="none" stroke="#45413C" stroke-linecap="round" stroke-linejoin="round" stroke-miterlimit="10" d="M10.1 26.8h27.8m-27.8 2.8h27.8m-27.8 2.8h27.8m-27.8 2.7h27.8"/>
</svg>
