<svg xmlns="http://www.w3.org/2000/svg" viewBox="0 0 32 32" focusable="false">
  <path fill="#e0e0e2" d="M9.5 9.5h13v14h-13z"/>
  <path fill="#fdd402" d="M27.76 17.911l.823-1.615.721 1.664 1.718.318-1.289 1.237.24 1.813-1.518-.901-1.571.802.351-1.793-1.21-1.317 1.735-.208z"/>
  <path fill="#2c2b2d" d="M29.973 21.828a.502.502 0 01-.255-.07l-1.281-.76-1.326.677a.5.5 0 01-.718-.542l.303-1.545-1.04-1.13a.5.5 0 01.31-.835l1.47-.177.7-1.378a.5.5 0 01.906.029l.615 1.42 1.456.27a.5.5 0 01.256.852l-1.107 1.062.206 1.561a.5.5 0 01-.495.566zm-1.518-1.9a.5.5 0 01.254.07l.633.375-.104-.792a.5.5 0 01.15-.426l.585-.562-.76-.14a.5.5 0 01-.368-.294l-.3-.69-.34.67a.501.501 0 01-.386.269l-.766.091.55.599a.502.502 0 01.123.434l-.154.784.655-.334a.5.5 0 01.228-.055zm-.695-2.017z"/>
  <path fill="#fdd402" d="M17.75 20.1L16 21.5l-1.75-1.4a2 2 0 01-.75-1.561V14.46a2 2 0 01.75-1.561L16 11.5l1.75 1.4a2 2 0 01.75 1.561v4.078a2 2 0 01-.75 1.561z"/>
  <path fill="#2c2b2d" d="M16 22a.501.501 0 01-.313-.11l-1.749-1.399A2.49 2.49 0 0113 18.54v-4.08a2.49 2.49 0 01.938-1.952l1.75-1.4a.502.502 0 01.625 0l1.749 1.4A2.49 2.49 0 0119 14.46v4.078a2.49 2.49 0 01-.938 1.952l-1.75 1.4A.501.501 0 0116 22zm0-9.86l-1.437 1.15A1.493 1.493 0 0014 14.461v4.078a1.494 1.494 0 00.563 1.171L16 20.86l1.437-1.15A1.493 1.493 0 0018 18.539V14.46a1.494 1.494 0 00-.563-1.171zm1.75 7.96z"/>
  <path fill="#fdd402" d="M22.5 21.9l-1.536-1.844a2 2 0 01-.464-1.28v-4.552a2 2 0 01.464-1.28L22.5 11.1"/>
  <path fill="#2c2b2d" d="M22.5 22.4a.5.5 0 01-.384-.18l-1.537-1.844a2.506 2.506 0 01-.579-1.6v-4.552a2.504 2.504 0 01.58-1.6l1.536-1.844a.5.5 0 11.768.64l-1.536 1.844a1.502 1.502 0 00-.348.96v4.552a1.504 1.504 0 00.348.96l1.536 1.844a.5.5 0 01-.384.82z"/>
  <path fill="#fdd402" d="M9.5 11.1l1.536 1.844a2 2 0 01.464 1.28v4.552a2 2 0 01-.464 1.28L9.5 21.9"/>
  <path fill="#2c2b2d" d="M9.5 22.4a.5.5 0 01-.384-.82l1.536-1.844a1.502 1.502 0 00.348-.96v-4.552a1.504 1.504 0 00-.348-.96L9.116 11.42a.5.5 0 01.768-.64l1.537 1.844a2.506 2.506 0 01.579 1.6v4.552a2.504 2.504 0 01-.58 1.6L9.885 22.22a.5.5 0 01-.384.18z"/>
  <path fill="#f7991d" d="M16 28.5a13.6 13.6 0 01-6.5-5h13a13.6 13.6 0 01-6.5 5z"/>
  <path fill="#2c2b2d" d="M16 29a.497.497 0 01-.172-.03 14.103 14.103 0 01-6.738-5.184A.5.5 0 019.5 23h13a.5.5 0 01.41.786 14.103 14.103 0 01-6.738 5.183A.497.497 0 0116 29zm-5.497-5A13.085 13.085 0 0016 27.966 13.085 13.085 0 0021.497 24z"/>
  <path fill="#f7991d" d="M22.5 9.5h-13a13.72 13.72 0 016.5-5 13.6 13.6 0 016.5 5z"/>
  <path fill="#2c2b2d" d="M22.5 10h-13a.5.5 0 01-.41-.787 14.214 14.214 0 016.737-5.182.496.496 0 01.345 0 14.103 14.103 0 016.738 5.183.5.5 0 01-.41.786zM10.507 9h10.99A13.087 13.087 0 0016 5.034 13.207 13.207 0 0010.507 9z"/>
  <circle cx="16" cy="29.5" r="1" fill="#fdd402"/>
  <path fill="#2c2b2d" d="M16 31a1.5 1.5 0 111.5-1.5A1.502 1.502 0 0116 31zm0-2a.5.5 0 10.5.5.5.5 0 00-.5-.5z"/>
  <circle cx="28.5" cy="15.5" r="1" fill="#e5303e"/>
  <path fill="#2c2b2d" d="M28.5 17a1.5 1.5 0 111.5-1.5 1.502 1.502 0 01-1.5 1.5zm0-2a.5.5 0 10.5.5.5.5 0 00-.5-.5zM16 32a.5.5 0 01-.5-.5v-1a.5.5 0 011 0v1a.5.5 0 01-.5.5zm0-27a.5.5 0 01-.5-.5v-4a.5.5 0 011 0v4a.5.5 0 01-.5.5zm7.5 19h-15a.5.5 0 010-1h15a.5.5 0 010 1zm0-14h-15a.5.5 0 010-1h15a.5.5 0 010 1z"/>
  <circle cx="16" cy="3.5" r="1" fill="#fdd402"/>
  <path fill="#2c2b2d" d="M16 5a1.5 1.5 0 111.5-1.5A1.502 1.502 0 0116 5zm0-2a.5.5 0 10.5.5.5.5 0 00-.5-.5zm12.5 12a.5.5 0 01-.5-.5V.5a.5.5 0 011 0v14a.5.5 0 01-.5.5z"/>
  <circle cx="3.5" cy="20.5" r="1" fill="#e5303e"/>
  <path fill="#2c2b2d" d="M3.5 22A1.5 1.5 0 115 20.5 1.502 1.502 0 013.5 22zm0-2a.5.5 0 10.5.5.5.5 0 00-.5-.5z"/>
  <path fill="#2c2b2d" d="M3.5 20a.5.5 0 01-.5-.5V.5a.5.5 0 011 0v19a.5.5 0 01-.5.5z"/>
  <path fill="#fdd402" d="M2.554 22.2a2.773 2.773 0 011.067-.618 2.785 2.785 0 003.449 3.676 2.796 2.796 0 11-4.516-3.059z"/>
  <path fill="#2c2b2d" d="M4.473 27.541l-.108-.001a3.3 3.3 0 01-2.153-5.706 3.273 3.273 0 011.256-.728.5.5 0 01.618.658 2.285 2.285 0 002.832 3.017.5.5 0 01.618.658 3.267 3.267 0 01-3.063 2.102zm-1.577-4.977a2.3 2.3 0 001.501 3.976 2.25 2.25 0 001.647-.622l.028-.026a3.287 3.287 0 01-3.148-3.354l-.027.026zM22.5 24h-13a.5.5 0 01-.5-.5v-14a.5.5 0 01.5-.5h13a.5.5 0 01.5.5v14a.5.5 0 01-.5.5zM10 23h12V10H10z"/>
</svg>
