<svg xmlns="http://www.w3.org/2000/svg" viewBox="0 0 24 24" fill="currentColor" focusable="false">
  <g transform="translate(3 2)">
    <ellipse cx="9" cy="5.556" opacity=".4" rx="5.625" ry="5.556"/>
    <path d="M17.99 16.676a1.89 1.89 0 000-.238 2.143 2.143 0 00-.244-.84c-.547-1.068-2.08-1.552-3.359-1.826-.913-.19-1.84-.312-2.773-.366l-.977-.073H7.356l-.976.073c-.933.054-1.86.176-2.773.366-1.28.237-2.812.73-3.36 1.826a2.143 2.143 0 00-.243.84 1.89 1.89 0 000 .238 1.874 1.874 0 000 .237c.026.29.113.572.254.831.547 1.069 2.08 1.553 3.359 1.827.914.18 1.84.303 2.773.365l.976.064h3.281l.977-.064a21.707 21.707 0 002.773-.365c1.279-.247 2.812-.73 3.359-1.827.134-.267.217-.555.244-.849a1.786 1.786 0 00-.01-.22z"/>
  </g>
</svg>
