<svg viewBox="0 0 24 24" xmlns="http://www.w3.org/2000/svg" focusable="false">
  <path d="M22 12.005C22 17.514 17.512 22 12 22S2 17.514 2 12.005C2 6.486 6.488 2 12 2s10 4.486 10 10.005" opacity=".4"/>
  <path d="M16 12.005c0 .253-.08.506-.239.71a3.79 3.79 0 01-.278.31l-.06.059c-.835.885-2.913 2.217-3.967 2.644 0 .01-.626.263-.925.272h-.04c-.457 0-.884-.252-1.103-.66-.12-.225-.229-.876-.239-.885-.09-.584-.149-1.478-.149-2.46 0-1.03.06-1.963.169-2.537 0-.01.11-.535.179-.71.11-.251.308-.466.557-.602.199-.096.408-.146.626-.146.229.01.656.156.826.224 1.113.427 3.241 1.827 4.056 2.682.14.137.289.303.328.34.17.215.259.477.259.759"/>
</svg>
