<svg xmlns="http://www.w3.org/2000/svg" viewBox="0 0 48 48" focusable="false">
  <ellipse cx="24" cy="40.1" rx="20.5" ry="1.7" fill="#45413c" opacity=".15"/>
  <path d="M43.3 27.2v5c0 4-8.7 7.2-19.3 7.2S4.7 36.2 4.7 32.2v-5h38.6z" fill="#DEBB7E"/>
  <path d="M4.7 29.4c0 4 8.7 7.2 19.3 7.2s19.3-3.2 19.3-7.2v-2.2H4.7v2.2z" fill="#b89558"/>
  <path d="M43.3 27.2v5c0 4-8.7 7.2-19.3 7.2S4.7 36.2 4.7 32.2v-5h38.6z" fill="none" stroke="#45413C" stroke-linecap="round" stroke-linejoin="round" stroke-miterlimit="10"/>
  <path d="M24 33.9c23.8 0 23.2-7.7 20.5-12.2-2.8-3.9-9.2-7.2-20.5-7.2S6.3 17.8 3.5 21.7C.8 26.1.2 33.9 24 33.9z" fill="#bf8256" stroke="#45413c" stroke-linecap="round" stroke-linejoin="round" stroke-miterlimit="10"/>
  <path d="M43.3 19.5s3.3 1.1 3.3 4.4-4.4.6-6.1 1.7c-1.7 1.1-.4 3.6-2.8 4.4-3.3 1.1-5-2.1-7.2-1.7-2.8.6-1.7 3.3-6.6 3.3s-3.9-2.8-6.6-3.3c-2.2-.4-3.9 2.8-7.2 1.7-2.3-.8-1.1-3.3-2.8-4.4-1.7-1.1-6.1 1.7-6.1-1.7s3.3-4.4 3.3-4.4h38.8z" fill="#6dd627" stroke="#45413c" stroke-linecap="round" stroke-linejoin="round" stroke-miterlimit="10"/>
  <path d="M6.9 21.7s-1.8 3.8 2.2 5c3.9 1.1 7.7-2.2 11.1-2.2s6.4 4.9 10.5 3.9c4.4-1.1 2.2-3.3 5-4.4 2.8-1.1 12.2 2.8 6.6-3.9L6.9 21.7z" fill="#ff6242" stroke="#45413c" stroke-linecap="round" stroke-linejoin="round" stroke-miterlimit="10"/>
  <path d="M25.1 25h-9.4v2.8c0 1.2 1 2.2 2.2 2.2H19v2.5c0 1.1.9 1.9 1.9 1.9s1.9-.9 1.9-1.9v-4.1c1.2 0 2.2-1 2.2-2.2V25z" fill="#ffe500" stroke="#45413c" stroke-linecap="round" stroke-linejoin="round" stroke-miterlimit="10"/>
  <path d="M43.3 18.9c0 4-8.7 7.2-19.3 7.2S4.7 22.9 4.7 18.9c0 0 1.1-12.7 19.3-12.7s19.3 12.7 19.3 12.7z" fill="#f0d5a8"/>
  <path d="M24 22.2c-9.1 0-16.8-2.4-18.8-5.5-.5 1.3-.5 2.2-.5 2.2 0 4 8.7 7.2 19.3 7.2s19.3-3.2 19.3-7.2c0 0-.1-.9-.5-2.2-2 3.2-9.7 5.5-18.8 5.5z" fill="#DEBB7E"/>
  <path d="M43.3 18.9c0 4-8.7 7.2-19.3 7.2S4.7 22.9 4.7 18.9c0 0 1.1-12.7 19.3-12.7s19.3 12.7 19.3 12.7z" fill="none" stroke="#45413C" stroke-linecap="round" stroke-linejoin="round" stroke-miterlimit="10"/>
  <path d="M12.7 12.1c-.6.2-.9.8-.8 1.4.2.6.8.9 1.4.8l1.1-.3c.6-.2.9-.8.8-1.4-.2-.6-.8-.9-1.4-.8l-1.1.3zm6.4 3c-.3.6 0 1.2.5 1.5s1.2 0 1.5-.5l.5-1c.3-.6 0-1.2-.5-1.5-.6-.3-1.2 0-1.5.5l-.5 1zm16.2-3c.6.2.9.8.8 1.4-.2.6-.8.9-1.4.8l-1.1-.3c-.6-.2-.9-.8-.8-1.4.2-.6.8-.9 1.4-.8l1.1.3zm-6.4 3c.3.6 0 1.2-.5 1.5s-1.2 0-1.5-.5l-.5-1c-.3-.6 0-1.2.5-1.5.6-.3 1.2 0 1.5.5l.5 1z" fill="#DEBB7E" stroke="#45413C" stroke-linecap="round" stroke-linejoin="round" stroke-miterlimit="10"/>
</svg>
