<svg xmlns="http://www.w3.org/2000/svg" viewBox="0 0 48 48">
  <style>
    .st1{fill:#ffc258}.st2{fill:#4f4b45}.st3{fill:#fabfa5}.st6{stroke:#45413c;stroke-linecap:round;stroke-linejoin:round;stroke-miterlimit:10}.st6,.st9{fill:#debb7e}.st10{fill:none;stroke:#45413c;stroke-linecap:round;stroke-linejoin:round;stroke-miterlimit:10}
  </style>
  <symbol id="New_Symbol_14" viewBox="-6.5 -6.5 13 13">
    <path d="M0-6c2.2 0 4.1 1.5 4.7 3.5C6.3-2.5 6.4 0 5 0v1c0 2.8-2.2 5-5 5s-5-2.2-5-5V0c-1.4 0-1.3-2.5.2-2.5C-4.1-4.5-2.2-6 0-6z" fill="#ffd4c3" stroke="#504b46" stroke-linecap="round" stroke-linejoin="round" stroke-miterlimit="10"/>
    <circle class="st1" cx="-1.6" cy="-.1" r=".1" fill="#FFC258"/>
    <path class="st2" d="M-1.6.5c-.3 0-.6-.3-.6-.6s.2-.7.6-.7c.3 0 .6.3.6.7s-.3.6-.6.6z" fill="#4F4B45"/>
    <circle class="st1" cx="1.6" cy="-.1" r=".1" fill="#FFC258"/>
    <path class="st2" d="M1.6.5C1.3.5 1 .2 1-.1s.3-.6.6-.6.6.3.6.6-.2.6-.6.6z" fill="#4F4B45"/>
    <circle class="st3" cx="-3" cy="-1.5" r=".5" fill="#FABFA5"/>
    <circle class="st3" cx="3" cy="-1.5" r=".5" fill="#FABFA5"/>
    <path d="M-1.2-3c.8-.5 1.7-.5 2.5 0" fill="none" stroke="#504b46" stroke-linecap="round" stroke-linejoin="round" stroke-miterlimit="10"/>
  </symbol>
  <g id="Icons">
    <g id="XMLID_1517_">
      <ellipse id="XMLID_218_" cx="24" cy="40.1" rx="20.5" ry="1.7" fill="#45413c" opacity=".15"/>
      <g id="XMLID_374_">
        <path id="XMLID_414_" class="st9" d="M43.3 27.2v5c0 4-8.7 7.2-19.3 7.2S4.7 36.2 4.7 32.2v-5h38.6z" fill="#DEBB7E"/>
        <g id="XMLID_412_">
          <path id="XMLID_413_" d="M4.7 29.4c0 4 8.7 7.2 19.3 7.2s19.3-3.2 19.3-7.2v-2.2H4.7v2.2z" fill="#b89558"/>
        </g>
        <path id="XMLID_411_" class="st10" d="M43.3 27.2v5c0 4-8.7 7.2-19.3 7.2S4.7 36.2 4.7 32.2v-5h38.6z" fill="none" stroke="#45413C" stroke-linecap="round" stroke-linejoin="round" stroke-miterlimit="10"/>
      </g>
      <g id="XMLID_136_">
        <path id="XMLID_373_" d="M24 33.9c23.8 0 23.2-7.7 20.5-12.2-2.8-3.9-9.2-7.2-20.5-7.2S6.3 17.8 3.5 21.7C.8 26.1.2 33.9 24 33.9z" fill="#bf8256" stroke="#45413c" stroke-linecap="round" stroke-linejoin="round" stroke-miterlimit="10"/>
      </g>
      <path id="XMLID_135_" d="M43.3 19.5s3.3 1.1 3.3 4.4-4.4.6-6.1 1.7c-1.7 1.1-.4 3.6-2.8 4.4-3.3 1.1-5-2.1-7.2-1.7-2.8.6-1.7 3.3-6.6 3.3s-3.9-2.8-6.6-3.3c-2.2-.4-3.9 2.8-7.2 1.7-2.3-.8-1.1-3.3-2.8-4.4-1.7-1.1-6.1 1.7-6.1-1.7s3.3-4.4 3.3-4.4h38.8z" fill="#6dd627" stroke="#45413c" stroke-linecap="round" stroke-linejoin="round" stroke-miterlimit="10"/>
      <path id="XMLID_116_" d="M6.9 21.7s-1.8 3.8 2.2 5c3.9 1.1 7.7-2.2 11.1-2.2s6.4 4.9 10.5 3.9c4.4-1.1 2.2-3.3 5-4.4 2.8-1.1 12.2 2.8 6.6-3.9L6.9 21.7z" fill="#ff6242" stroke="#45413c" stroke-linecap="round" stroke-linejoin="round" stroke-miterlimit="10"/>
      <path id="XMLID_115_" d="M25.1 25h-9.4v2.8c0 1.2 1 2.2 2.2 2.2H19v2.5c0 1.1.9 1.9 1.9 1.9s1.9-.9 1.9-1.9v-4.1c1.2 0 2.2-1 2.2-2.2V25z" fill="#ffe500" stroke="#45413c" stroke-linecap="round" stroke-linejoin="round" stroke-miterlimit="10"/>
      <g id="XMLID_106_">
        <g id="XMLID_111_">
          <path id="XMLID_114_" d="M43.3 18.9c0 4-8.7 7.2-19.3 7.2S4.7 22.9 4.7 18.9c0 0 1.1-12.7 19.3-12.7s19.3 12.7 19.3 12.7z" fill="#f0d5a8"/>
          <path id="XMLID_113_" class="st9" d="M24 22.2c-9.1 0-16.8-2.4-18.8-5.5-.5 1.3-.5 2.2-.5 2.2 0 4 8.7 7.2 19.3 7.2s19.3-3.2 19.3-7.2c0 0-.1-.9-.5-2.2-2 3.2-9.7 5.5-18.8 5.5z" fill="#DEBB7E"/>
          <path id="XMLID_112_" class="st10" d="M43.3 18.9c0 4-8.7 7.2-19.3 7.2S4.7 22.9 4.7 18.9c0 0 1.1-12.7 19.3-12.7s19.3 12.7 19.3 12.7z" fill="none" stroke="#45413C" stroke-linecap="round" stroke-linejoin="round" stroke-miterlimit="10"/>
        </g>
        <path id="XMLID_110_" class="st6" d="M12.7 12.1c-.6.2-.9.8-.8 1.4.2.6.8.9 1.4.8l1.1-.3c.6-.2.9-.8.8-1.4-.2-.6-.8-.9-1.4-.8l-1.1.3z" fill="#DEBB7E" stroke="#45413C" stroke-linecap="round" stroke-linejoin="round" stroke-miterlimit="10"/>
        <path id="XMLID_109_" class="st6" d="M19.1 15.1c-.3.6 0 1.2.5 1.5s1.2 0 1.5-.5l.5-1c.3-.6 0-1.2-.5-1.5-.6-.3-1.2 0-1.5.5l-.5 1z" fill="#DEBB7E" stroke="#45413C" stroke-linecap="round" stroke-linejoin="round" stroke-miterlimit="10"/>
        <path id="XMLID_108_" class="st6" d="M35.3 12.1c.6.2.9.8.8 1.4-.2.6-.8.9-1.4.8l-1.1-.3c-.6-.2-.9-.8-.8-1.4.2-.6.8-.9 1.4-.8l1.1.3z" fill="#DEBB7E" stroke="#45413C" stroke-linecap="round" stroke-linejoin="round" stroke-miterlimit="10"/>
        <path id="XMLID_107_" class="st6" d="M28.9 15.1c.3.6 0 1.2-.5 1.5s-1.2 0-1.5-.5l-.5-1c-.3-.6 0-1.2.5-1.5.6-.3 1.2 0 1.5.5l.5 1z" fill="#DEBB7E" stroke="#45413C" stroke-linecap="round" stroke-linejoin="round" stroke-miterlimit="10"/>
      </g>
    </g>
  </g>
</svg>
