<svg xmlns="http://www.w3.org/2000/svg" viewBox="0 0 48 48" focusable="false">
  <ellipse cx="24" cy="44.9" rx="12.5" ry="1.5" fill="#45413c" opacity=".15"/>
  <path d="M22.3 28.2c1.2 6.7 2.6 11.3 6.9 16 .8.9 2.2 1 3.1.2 6.6-5.5 10.4-13.6 10.3-22.2L30.8 13c-1.7-1.3-3.5-2.5-5.5-3.4-3.3-1.8-7.3-1.8-10.6 0-2.5 1.3-4.5 3.5-5.6 6.1L4.7 26.5c-.6 1.5-.6 3.1.1 4.6v.1c1 2.2 3.1 3.5 5.5 3.5h.1c2.5-.1 4.9-1.1 6.5-3l2.8-3.2 2.7-.3c1.8-.7 2.8-1.5 3.8-2.7 1-1.2 1.9-3 2.1-5" fill="#DEBB7E"/>
  <path d="M11.9 17c2.1-3.7 5.9-4.4 3.2-7.7-.2.1-.3.1-.5.2-2.5 1.3-4.5 3.5-5.6 6.1L4.7 26.5c-.6 1.5-.6 3.1.1 4.6v.1c1 2.2 3.1 3.5 5.5 3.5h.1c1.6 0 3.2-.5 4.6-1.4.1-.5.2-1.1.2-1.7 0-1.4-.7-2.6-1.7-3.6-2.8-2.8-3.6-7.2-1.7-10.7 0-.1.1-.2.1-.3z" fill="#fff" stroke="#45413c" stroke-linecap="round" stroke-linejoin="round" stroke-miterlimit="10"/>
  <path d="M22.3 28.2c1.2 6.7 2.6 11.3 6.9 16 .8.9 2.2 1 3.1.2 6.6-5.5 10.4-13.6 10.3-22.2L30.8 13c-1.7-1.3-3.5-2.5-5.5-3.4-3.3-1.8-7.3-1.8-10.6 0-2.5 1.3-4.5 3.5-5.6 6.1L4.7 26.5c-.6 1.5-.6 3.1.1 4.6v.1c1 2.2 3.1 3.5 5.5 3.5h.1c2.5-.1 4.9-1.1 6.5-3l2.8-3.2 2.7-.3c1.8-.7 2.8-1.5 3.8-2.7 1-1.2 1.9-3 2.1-5" fill="none" stroke="#45413C" stroke-linecap="round" stroke-linejoin="round" stroke-miterlimit="10"/>
  <circle cx="16.8" cy="18" r="1" fill="#45413c" stroke="#45413c" stroke-linecap="round" stroke-linejoin="round" stroke-miterlimit="10"/>
  <ellipse cx="21.5" cy="22.4" rx="1.1" ry=".8" fill="#fc9"/>
  <path d="M7.6 30.4s-.4-1.1.6-1.6" fill="none" stroke="#45413C" stroke-linecap="round" stroke-linejoin="round" stroke-miterlimit="10"/>
  <path d="M42.3 24.8c-1.8 2.9-4.7 4.1-5.9 4.5-.3.1-.5-.1-.5-.4.2-1.3.5-4.9-.4-8-.9-3.1-4.1-5.9-5.5-7-.3-.3-.8-.2-1 .2l-1.2 1.8c-.2.3-.6.2-.6-.1-.2-1-.7-2.8-2-4.1-1.9-2-5.7-3.6-5.7-3.6s-1.1 4.3-5.4 6.4c-2.7 1.4-5.3 1.7-6.8 1.8-.3 0-.5-.4-.3-.6.5-.5 1.2-1.4 1.7-3C9.9 9.2 13.3 4 19.4 4c8.6 0 10 4 10 4s4-.4 8.6 2.1c3.6 2 5.1 4.6 5.6 7.4.6 3.1-.4 5.4-1.3 7.3z" fill="#bf8256"/>
  <path d="M7.2 16.2c.4 0 .9-.1 1.5-.1V16c1.2-3.5 4.6-8.6 10.7-8.6 8.6 0 10 3.9 10 3.9s4-.4 8.6 2.1c3.6 2 5.1 4.6 5.6 7.4.2-1 .2-2.1 0-3.4-.5-2.9-2-5.4-5.6-7.4-4.5-2.4-8.6-2-8.6-2s-1.4-4-10-4c-6.1 0-9.5 5.1-10.7 8.6-.5 1.6-1.2 2.5-1.7 3-.3.2-.1.6.2.6z" fill="#dea47a"/>
  <path d="M42.3 24.8c-1.8 2.9-4.7 4.1-5.9 4.5-.3.1-.5-.1-.5-.4.2-1.3.5-4.9-.4-8-.9-3.1-4.1-5.9-5.5-7-.3-.3-.8-.2-1 .2l-1.2 1.8c-.2.3-.6.2-.6-.1-.2-1-.7-2.8-2-4.1-1.9-2-5.7-3.6-5.7-3.6s-1.1 4.3-5.4 6.4c-2.7 1.4-5.3 1.7-6.8 1.8-.3 0-.5-.4-.3-.6.5-.5 1.2-1.4 1.7-3C9.9 9.2 13.3 4 19.4 4c8.6 0 10 4 10 4s4-.4 8.6 2.1c3.6 2 5.1 4.6 5.6 7.4.6 3.1-.4 5.4-1.3 7.3z" fill="none" stroke="#45413C" stroke-linecap="round" stroke-linejoin="round" stroke-miterlimit="10"/>
  <path d="M22.4 10.2c1.8-1.7 2.2-4.2.8-6.3L22 2.2c-.4-.6-1.3-.8-1.9-.4-.3.2-.5.5-.5.9l-.5 7" fill="#DEBB7E"/>
  <path d="M19.4 5c0-.3.4-.7.7-.9.6-.4 1.5-.2 1.9.4l1.1 1.7c.3.5.5 1 .7 1.5.3-1.3.1-2.7-.7-3.9L22 2.2c-.4-.6-1.3-.8-1.9-.4-.3.2-.5.5-.5.9L19.4 5z" fill="#f0d5a8"/>
  <path d="M22.4 10.2c1.8-1.7 2.2-4.2.8-6.3L22 2.2c-.4-.6-1.3-.8-1.9-.4-.3.2-.5.5-.5.9l-.5 7" fill="none" stroke="#45413C" stroke-linecap="round" stroke-linejoin="round" stroke-miterlimit="10"/>
  <path d="M29.4 8s.5.7.7 3.2" fill="#bf8256" stroke="#45413c" stroke-linecap="round" stroke-linejoin="round" stroke-miterlimit="10"/>
</svg>
