<svg viewBox="0 0 24 24" xmlns="http://www.w3.org/2000/svg" focusable="false">
  <path d="M19.083 3C20.14 3 21 3.886 21 4.974v1.378c0 .527-.21 1.04-.575 1.409l-6.011 6.08v4.58a.716.716 0 01-.401.649l-3.89 1.863a.674.674 0 01-.292.067.694.694 0 01-.63-.413.727.727 0 01.337-.953l3.485-1.67v-4.422c0-.192.076-.377.21-.511l6.219-6.293a.55.55 0 00.158-.386V4.974a.535.535 0 00-.527-.542h-8.009a.706.706 0 01-.695-.716c0-.394.312-.716.695-.716h8.009zM7.696 3c.383 0 .695.325.695.724 0 .4-.312.724-.695.724h-2.78a.539.539 0 00-.526.547v1.424c0 .14.05.273.142.374l5.726 6.368a.738.738 0 01.188.494v3.586c0 .398-.31.722-.694.722a.71.71 0 01-.695-.722v-3.3l-5.54-6.157A2.035 2.035 0 013 6.419V4.995C3 3.895 3.86 3 4.916 3h2.78z"/>
</svg>
