<svg data-name="Layer 1" xmlns="http://www.w3.org/2000/svg" viewBox="0 0 24 24" focusable="false">
  <path d="M13.595 22h-3.176a.723.723 0 110-1.446h3.177a.723.723 0 110 1.446z"/>
  <path d="M21.635 16.452a2.303 2.303 0 01-2.303 2.302H4.678a2.305 2.305 0 01-1.359-4.172 4.104 4.104 0 001.696-3.333V9.245a7.154 7.154 0 016.484-7.226 6.988 6.988 0 017.486 6.965v2.265a4.113 4.113 0 001.705 3.333 2.3 2.3 0 01.945 1.87z" fill="#ffb531"/>
  <path d="M12.726 7.163v3.18a.723.723 0 11-1.445 0v-3.18a.723.723 0 111.445 0z"/>
</svg>
