<svg viewBox="0 0 24 24" xmlns="http://www.w3.org/2000/svg" focusable="false">
  <path d="M16.334 2C19.723 2 22 4.378 22 7.916v8.168C22 19.622 19.723 22 16.333 22H7.665C4.276 22 2 19.622 2 16.084V7.916C2 4.378 4.276 2 7.665 2h8.669zm0 1.5H7.665C5.135 3.5 3.5 5.233 3.5 7.916v8.168c0 2.683 1.635 4.416 4.165 4.416h8.668c2.531 0 4.167-1.733 4.167-4.416V7.916c0-2.683-1.635-4.416-4.166-4.416zm-4.335 3.384a.75.75 0 01.75.75v3.936l3.026 1.803a.752.752 0 01-.769 1.29l-3.39-2.023a.754.754 0 01-.367-.644V7.634a.75.75 0 01.75-.75z" fill-rule="evenodd"/>
</svg>
