<svg viewBox="0 0 24 24" xmlns="http://www.w3.org/2000/svg" focusable="false">
  <g fill="none" fill-rule="evenodd">
    <path d="M0 0h24v24H0z"/>
    <path d="M7.47 2a2.738 2.738 0 012.738 2.359c.107.808.305 1.602.59 2.363a2.731 2.731 0 01-.62 2.887l-.658.657a13.705 13.705 0 004.199 4.192l.662-.66a2.74 2.74 0 012.886-.617c.765.285 1.56.483 2.378.59 1.376.195 2.388 1.387 2.354 2.752v2.736a2.73 2.73 0 01-.887 2.023 2.75 2.75 0 01-2.113.706 19.012 19.012 0 01-8.279-2.937 18.71 18.71 0 01-5.76-5.748 18.96 18.96 0 01-2.949-8.324 2.73 2.73 0 01.705-2.089A2.74 2.74 0 014.736 2h2.733zm.008 1.816H4.737a.92.92 0 00-.916.985 17.141 17.141 0 002.67 7.521 16.912 16.912 0 005.212 5.2 17.186 17.186 0 007.476 2.66.92.92 0 001.002-.917V16.5a.916.916 0 00-.782-.93 12.67 12.67 0 01-2.77-.69.918.918 0 00-.966.203l-1.161 1.16a.91.91 0 01-1.092.147 15.522 15.522 0 01-5.826-5.816.907.907 0 01.147-1.09L8.89 8.328a.917.917 0 00.206-.97 12.586 12.586 0 01-.689-2.755.92.92 0 00-.928-.788zm6.393 2.096a5.324 5.324 0 014.21 4.202.757.757 0 01-1.488.29 3.81 3.81 0 00-3.012-3.007.757.757 0 11.29-1.485zm-.061-3.66a8.977 8.977 0 017.937 7.913.757.757 0 01-1.506.17 7.463 7.463 0 00-6.598-6.58.757.757 0 11.167-1.503z" fill="#404040" fill-rule="nonzero"/>
  </g>
</svg>
