<svg xmlns="http://www.w3.org/2000/svg" viewBox="0 0 48 48">
  <style>
    .st1{fill:#ffc258}.st2{fill:#4f4b45}.st3{fill:#fabfa5}.st10{fill:none;stroke:#45413c;stroke-linecap:round;stroke-linejoin:round;stroke-miterlimit:10}
  </style>
  <symbol id="New_Symbol_14" viewBox="-6.5 -6.5 13 13">
    <path d="M0-6c2.2 0 4.1 1.5 4.7 3.5C6.3-2.5 6.4 0 5 0v1c0 2.8-2.2 5-5 5s-5-2.2-5-5V0c-1.4 0-1.3-2.5.2-2.5C-4.1-4.5-2.2-6 0-6z" fill="#ffd4c3" stroke="#504b46" stroke-linecap="round" stroke-linejoin="round" stroke-miterlimit="10"/>
    <circle class="st1" cx="-1.6" cy="-.1" r=".1" fill="#FFC258"/>
    <path class="st2" d="M-1.6.5c-.3 0-.6-.3-.6-.6s.2-.7.6-.7c.3 0 .6.3.6.7s-.3.6-.6.6z" fill="#4F4B45"/>
    <circle class="st1" cx="1.6" cy="-.1" r=".1" fill="#FFC258"/>
    <path class="st2" d="M1.6.5C1.3.5 1 .2 1-.1s.3-.6.6-.6.6.3.6.6-.2.6-.6.6z" fill="#4F4B45"/>
    <circle class="st3" cx="-3" cy="-1.5" r=".5" fill="#FABFA5"/>
    <circle class="st3" cx="3" cy="-1.5" r=".5" fill="#FABFA5"/>
    <path d="M-1.2-3c.8-.5 1.7-.5 2.5 0" fill="none" stroke="#504b46" stroke-linecap="round" stroke-linejoin="round" stroke-miterlimit="10"/>
  </symbol>
  <g id="Icons">
    <g id="XMLID_1977_">
      <ellipse id="XMLID_356_" cx="26.3" cy="44.1" rx="14" ry="1.8" fill="#45413c" opacity=".15"/>
      <ellipse id="XMLID_355_" transform="rotate(-76.798 27.72 20.335)" cx="27.7" cy="20.3" rx="18.3" ry="17.9" fill="#4aeff7"/>
      <path id="XMLID_354_" d="M10.3 21c2.3-9.8 12-16 21.6-13.7 7.5 1.7 12.7 8 13.6 15.3 1.2-9.2-4.6-18-13.6-20.1C22.3.2 12.6 6.4 10.3 16.2c-.5 2.2-.6 4.4-.3 6.6 0-.6.1-1.2.3-1.8z" fill="#a6fbff"/>
      <ellipse id="XMLID_353_" transform="rotate(-76.798 27.72 20.335)" class="st10" cx="27.7" cy="20.3" rx="18.3" ry="17.9" fill="none" stroke="#45413C" stroke-linecap="round" stroke-linejoin="round" stroke-miterlimit="10"/>
      <path id="XMLID_352_" d="M4.1 24.5s0 6.4 7.9 6.2c2.9-.2 4.5-7 4.5-7l-12.4.8z" fill="#ffe500" stroke="#45413c" stroke-linecap="round" stroke-linejoin="round" stroke-miterlimit="10"/>
      <path id="XMLID_351_" d="M10 17.4s-1.9-.2-5 2.6c-3.1 2.8-2.6 5.9-2.6 5.9s6.6 1.2 9.9.3 4.3-2.5 4.3-2.5-.7-4.4-6.6-6.3z" fill="#fff48c"/>
      <path id="XMLID_350_" d="M7.2 21.8c3.8-2.9 6.1-2.6 6.1-2.6.2.1.3.1.4.2-.9-.8-2.2-1.5-3.8-2 0 0-1.9-.2-5 2.6-3.1 2.8-2.6 5.9-2.6 5.9s.8.2 2 .3c.3-1.3 1-2.9 2.9-4.4z" fill="#fffacf"/>
      <path id="XMLID_349_" class="st10" d="M10 17.4s-1.9-.2-5 2.6c-3.1 2.8-2.6 5.9-2.6 5.9s6.6 1.2 9.9.3 4.3-2.5 4.3-2.5-.7-4.4-6.6-6.3z" fill="none" stroke="#45413C" stroke-linecap="round" stroke-linejoin="round" stroke-miterlimit="10"/>
      <path id="XMLID_348_" d="M24.5 9.6c-1.4-.3-4.4 0-6.1 4.8-1.8 4.8-1.1 7.2 1.3 7.8 2.4.7 11.5-.9 12.2-4 1-4-2.4-7.6-7.4-8.6z" fill="#fff" stroke="#45413c" stroke-linecap="round" stroke-linejoin="round" stroke-miterlimit="10"/>
      <circle id="XMLID_319_" transform="rotate(-76.798 23.445 16.197)" cx="23.4" cy="16.2" fill="#45413c" stroke="#45413c" stroke-linecap="round" stroke-linejoin="round" stroke-miterlimit="10" r="1.8"/>
      <path id="XMLID_317_" d="M35.8 25.4c-.3.7-1.5 1.1-2.7.9-1.2-.2-1.9-.8-1.7-1.5.3-.7 1.5-1.1 2.7-.9 1.3.2 2 .8 1.7 1.5z" fill="#d9fdff"/>
    </g>
  </g>
</svg>
