<svg xmlns="http://www.w3.org/2000/svg" viewBox="0 0 32 32" focusable="false">
  <path fill="#37b678" d="M5.5 25.5v-23a2 2 0 012-2h19v23"/>
  <path fill="#2c2b2d" d="M5.5 26a.5.5 0 01-.5-.5v-23A2.503 2.503 0 017.5 0h19a.5.5 0 01.5.5v23a.5.5 0 01-1 0V1H7.5A1.502 1.502 0 006 2.5v23a.5.5 0 01-.5.5z"/>
  <path fill="#e0e0e2" d="M7.5 23.5h19v5h-19a2 2 0 01-2-2v-1a2 2 0 012-2z"/>
  <path fill="#2c2b2d" d="M26.5 29h-19A2.503 2.503 0 015 26.5v-1A2.503 2.503 0 017.5 23h19a.5.5 0 01.5.5v5a.5.5 0 01-.5.5zm-19-5A1.502 1.502 0 006 25.5v1A1.502 1.502 0 007.5 28H26v-4z"/>
  <path fill="#e5303e" d="M11.5 31.5l-2-1-2 1v-5h4v5z"/>
  <path fill="#2c2b2d" d="M11.5 32a.502.502 0 01-.224-.053L9.5 31.06l-1.776.888A.5.5 0 017 31.5v-5a.5.5 0 01.5-.5h4a.5.5 0 01.5.5v5a.5.5 0 01-.5.5zm-2-2a.5.5 0 01.224.053L11 30.69V27H8v3.691l1.276-.638A.5.5 0 019.5 30z"/>
  <path fill="#fdd402" d="M7.5 4.5v14a2 2 0 012 2 1.98 1.98 0 01-.277 1h12.554a1.98 1.98 0 01-.277-1 2 2 0 012-2 1.98 1.98 0 011 .277V4.223a1.98 1.98 0 01-1 .277 2 2 0 01-2-2h-12a2 2 0 01-2 2z"/>
  <path fill="#2c2b2d" d="M21.777 22H9.223a.5.5 0 01-.432-.752A1.47 1.47 0 009 20.5 1.502 1.502 0 007.5 19a.5.5 0 01-.5-.5v-14a.5.5 0 01.5-.5A1.502 1.502 0 009 2.5a.5.5 0 01.5-.5h12a.5.5 0 01.5.5A1.502 1.502 0 0023.5 4a1.473 1.473 0 00.748-.209.5.5 0 01.752.432v14.554a.5.5 0 01-.752.432A1.473 1.473 0 0023.5 19a1.502 1.502 0 00-1.5 1.5 1.47 1.47 0 00.21.748.5.5 0 01-.433.752zm-11.83-1h11.105a2.414 2.414 0 01-.052-.5 2.503 2.503 0 012.5-2.5 2.44 2.44 0 01.5.052V4.948a2.44 2.44 0 01-.5.052 2.504 2.504 0 01-2.45-2H9.95A2.509 2.509 0 018 4.95v13.1a2.505 2.505 0 012 2.45 2.414 2.414 0 01-.052.5z"/>
  <path fill="#e0e0e2" d="M12.576 7.68a4.922 4.922 0 012.093-.634 4.943 4.943 0 004.473 7.747 4.963 4.963 0 11-6.566-7.113z"/>
  <path fill="#2c2b2d" d="M15.07 17.452a5.468 5.468 0 01-2.743-10.204 5.38 5.38 0 012.303-.7.5.5 0 01.451.781 4.443 4.443 0 004.022 6.966.489.489 0 01.472.248.5.5 0 01-.02.533 5.393 5.393 0 01-4.484 2.376zm-1.345-9.725a4.25 4.25 0 00-.898.386 4.47 4.47 0 004.469 7.742 4.236 4.236 0 00.785-.585 5.439 5.439 0 01-4.356-7.543zm-1.148-.046z"/>
  <path fill="#e0e0e2" d="M18.639 8.797l.787-1.634.758 1.648 1.725.28-1.261 1.265.279 1.807-1.537-.866-1.553.836.311-1.8-1.239-1.29 1.73-.246z"/>
  <path fill="#2c2b2d" d="M20.927 12.663a.502.502 0 01-.245-.064l-1.298-.73-1.31.705a.5.5 0 01-.73-.525l.268-1.552-1.064-1.107a.5.5 0 01.29-.842l1.466-.208.671-1.394a.501.501 0 01.45-.283h.005a.5.5 0 01.45.291l.647 1.406 1.462.238a.5.5 0 01.274.845l-1.082 1.087.24 1.557a.5.5 0 01-.494.576zm-1.537-1.866a.5.5 0 01.245.064l.64.362-.121-.79a.498.498 0 01.14-.429l.573-.575-.763-.124a.498.498 0 01-.374-.284l-.314-.684-.327.677a.501.501 0 01-.38.278l-.763.108.563.586a.502.502 0 01.132.432l-.136.788.647-.35a.499.499 0 01.238-.06zm-.751-2z"/>
</svg>
