<svg viewBox="0 0 24 24" xmlns="http://www.w3.org/2000/svg" focusable="false">
  <g fill="none" fill-rule="evenodd">
    <path d="M0 0h24v24H0z"/>
    <path d="M8 9a1 1 0 011 1l-.001 8.586 2.294-2.293a1 1 0 011.414 1.414l-4 4-.082.073-.008.007-.022.017a1.035 1.035 0 01-.172.102l-.052.023a.95.95 0 01-.222.06l-.069.007-.052.003L8 22l.02-.001h.008l.013-.001-.021.001h-.002L8 22a1 1 0 01-.371-.071l-.052-.023-.061-.03-.037-.022a1.03 1.03 0 01-.074-.05l-.03-.024.003.003-.003-.003-.016-.013-.012-.01-.054-.05-4-4a1 1 0 011.414-1.414L7 18.586V10a1 1 0 011-1zm7.999-6l.082.003.068.008a1.083 1.083 0 01.222.06l.052.023a1.018 1.018 0 01.172.102l.022.017.008.007.082.073 4 4a1 1 0 11-1.414 1.414l-2.294-2.293L17 15a1 1 0 01-2 0l-.001-8.586-2.292 2.293a1 1 0 01-1.414-1.414l4-4 .077-.069.035-.028a1.03 1.03 0 01.074-.05l.037-.021c.02-.011.04-.022.06-.031l.053-.023a.988.988 0 01.352-.07L15.999 3z" fill="currentColor" fill-rule="nonzero"/>
  </g>
</svg>
