<svg viewBox="0 0 24 24" xmlns="http://www.w3.org/2000/svg" focusable="false">
  <g stroke="#000" stroke-width="1.5" fill="none" fill-rule="evenodd" stroke-linecap="round" stroke-linejoin="round">
    <path d="M11.492 2.789H7.753c-3.075 0-5.003 2.177-5.003 5.259v8.314c0 3.082 1.92 5.259 5.003 5.259h8.824c3.085 0 5.004-2.177 5.004-5.259v-4.028" opacity=".4"/>
    <path d="M8.828 10.92L16.3 3.449c.93-.93 2.44-.93 3.37 0l1.218 1.217a2.383 2.383 0 010 3.37l-7.51 7.51a2.17 2.17 0 01-1.534.636H8.099l.094-3.78a2.17 2.17 0 01.635-1.48zm6.337-6.317l4.566 4.565"/>
  </g>
</svg>
