<svg viewBox="0 0 24 24" xmlns="http://www.w3.org/2000/svg" focusable="false">
  <path d="M14.44 2c.02 0 .037.01.057.012h.205c.203 0 .398.084.54.233l5.05 5.312a.76.76 0 01.208.523v9.251c0 2.532-2.045 4.669-4.466 4.669H8.07c-2.563 0-4.57-2.05-4.57-4.669v-2.523c0-.416.335-.755.748-.755.412 0 .747.339.747.755v2.523c0 1.8 1.321 3.159 3.075 3.159h7.964c1.61 0 2.97-1.447 2.97-3.159V8.383l-3.817-4.015v1.317c0 1.01.815 1.835 1.816 1.837.412.001.746.34.745.757a.751.751 0 01-.747.753c-1.825-.004-3.31-1.505-3.31-3.347V3.522H8.07c-1.667 0-3.075 1.374-3.075 3v4.182a.752.752 0 01-.747.755.752.752 0 01-.748-.755V6.522c0-2.445 2.093-4.51 4.57-4.51h6.312c.02-.002.038-.012.058-.012zm-2.825 6.736c.413 0 .748.339.748.755v4.789l1.551-1.574a.743.743 0 011.058-.002.76.76 0 01.003 1.068l-2.83 2.87-.002.002a.749.749 0 01-.528.22.742.742 0 01-.529-.221l-2.83-2.87a.762.762 0 01.002-1.069.743.743 0 011.058.002l1.552 1.575V9.49c0-.416.335-.755.747-.755z"/>
</svg>
