<svg xmlns="http://www.w3.org/2000/svg" viewBox="0 0 48 48" focusable="false">
  <ellipse cx="24" cy="45.1" rx="14.9" ry="1.6" fill="#45413c" opacity=".15"/>
  <path d="M26.7 31c-1.1 5.5-6 8.8-11.5 7.7-5.5-1.1-8.8-6-7.7-11.5 1.1-5.5 7.2-8.9 11.2-5.9 4.3-1.2 9.2 4.1 8 9.7z" fill="#FF6242"/>
  <path d="M7.5 30c1.1-5.5 7.2-7.3 11.2-5.9s7.3 2.4 8.1 6.7c.9-5.5-3.8-10.6-8.1-9.5-3.9-3-10.1.4-11.2 5.9-.2 1.2-.3 2.4-.1 3.5.1-.2.1-.5.1-.7z" fill="#FF866E"/>
  <path d="M26.7 31c-1.1 5.5-6 8.8-11.5 7.7-5.5-1.1-8.8-6-7.7-11.5 1.1-5.5 7.2-8.9 11.2-5.9 4.3-1.2 9.2 4.1 8 9.7z" fill="none" stroke="#45413C" stroke-linejoin="round" stroke-miterlimit="10"/>
  <path d="M38.4 35.1c0 5.7-4.1 9.8-9.8 9.8-5.7 0-9.8-4.1-9.8-9.8 0-5.7 5.3-10.2 9.8-8 4.1-2 9.8 2.3 9.8 8z" fill="#FF6242"/>
  <path d="M28.7 30c3.3 0 8.8 1.7 9.7 6.6.1-.5.1-1.1.1-1.6 0-5.7-5.8-10-9.8-8-4.4-2.2-9.8 2.4-9.8 8 0 .5 0 1.1.1 1.6.8-4.9 6.4-6.6 9.7-6.6z" fill="#FF866E"/>
  <path d="M38.4 35.1c0 5.7-4.1 9.8-9.8 9.8-5.7 0-9.8-4.1-9.8-9.8 0-5.7 5.3-10.2 9.8-8 4.1-2 9.8 2.3 9.8 8z" fill="none" stroke="#45413C" stroke-linejoin="round" stroke-miterlimit="10"/>
  <path d="M18.7 21.2s2-4.1 9.5-8.1c6-3.2 12-1.8 12-1.8M28.7 27.1s.7-11 11.6-15.7" fill="none" stroke="#45413C" stroke-linecap="round" stroke-linejoin="round" stroke-miterlimit="10"/>
  <path d="M34 3.3c-3.3-1.9-7-2.4-10-1.7-.6.2-1 .7-.8 1.3.9 3 3.2 5.8 6.5 7.7 3.5 2 7.4 2.5 10.5 1.5.3-.1.4-.3.4-.6-.7-3.1-3.1-6.2-6.6-8.2z" fill="#6dd627"/>
  <path d="M23.9 4.7s.1-.1 0 0c3.1-.8 6.7-.2 10 1.7 2.7 1.5 4.7 3.7 5.8 6 .2 0 .3-.1.5-.1.3-.1.4-.3.4-.6-.8-3.2-3.2-6.3-6.7-8.3-3.2-2-6.9-2.5-9.9-1.8-.6.2-1 .7-.8 1.3.2.6.4 1.2.7 1.8z" fill="#9ceb60"/>
  <path d="M34 3.3c-3.3-1.9-7-2.4-10-1.7-.6.2-1 .7-.8 1.3.9 3 3.2 5.8 6.5 7.7 3.5 2 7.4 2.5 10.5 1.5.3-.1.4-.3.4-.6-.7-3.1-3.1-6.2-6.6-8.2z" fill="none" stroke="#45413C" stroke-linecap="round" stroke-linejoin="round" stroke-miterlimit="10"/>
</svg>
