<svg data-name="Layer 1" xmlns="http://www.w3.org/2000/svg" viewBox="0 0 24 24" focusable="false">
  <path fill="none" d="M0 0h24v24H0z"/>
  <path d="M20.593 8.696H3.407a.996.996 0 01-.92-1.396A4.998 4.998 0 017 4.446h10A4.997 4.997 0 0121.515 7.3a.996.996 0 01-.922 1.396zM22 10.75V17a5 5 0 01-5 5H7a5 5 0 01-5-5v-6.25a1 1 0 011-1h18a1 1 0 011 1z"/>
  <path d="M16.241 6.893a.769.769 0 01-.768-.769V2.769a.769.769 0 011.537 0v3.355a.769.769 0 01-.769.769zm-8.481 0a.769.769 0 01-.77-.769V2.769a.769.769 0 111.538 0v3.355a.769.769 0 01-.769.769z"/>
</svg>
