<svg viewBox="0 0 24 24" xmlns="http://www.w3.org/2000/svg" focusable="false">
  <g stroke="#000" stroke-width="1.5" fill="none" fill-rule="evenodd" stroke-linecap="round" stroke-linejoin="round">
    <path d="M11.961 16.516v-2.628m9.129-2.41l-.03.02c-2.421 1.493-5.62 2.394-9.103 2.394-3.485 0-6.674-.901-9.095-2.393l-.03-.021"/>
    <path d="M2.75 13.35c0-6.151 2.303-8.202 9.211-8.202 6.91 0 9.211 2.05 9.211 8.203 0 6.152-2.302 8.203-9.21 8.203-6.909 0-9.212-2.051-9.212-8.203z"/>
    <path d="M15.224 5.37v-.63c0-1.265-.923-2.29-2.06-2.29h-2.405c-1.137 0-2.06 1.025-2.06 2.29v.63"/>
  </g>
</svg>
