<svg xmlns="http://www.w3.org/2000/svg" viewBox="0 0 48 48">
  <style>
    .st1{fill:#ffc258}.st2{fill:#4f4b45}.st3{fill:#fabfa5}.st11{fill:#ffe500}.st16{fill:#e5f8ff}.st61{fill:#00b8f0;stroke:#45413c;stroke-linecap:round;stroke-linejoin:round;stroke-miterlimit:10}
  </style>
  <symbol id="New_Symbol_14" viewBox="-6.5 -6.5 13 13">
    <path d="M0-6c2.2 0 4.1 1.5 4.7 3.5C6.3-2.5 6.4 0 5 0v1c0 2.8-2.2 5-5 5s-5-2.2-5-5V0c-1.4 0-1.3-2.5.2-2.5C-4.1-4.5-2.2-6 0-6z" fill="#ffd4c3" stroke="#504b46" stroke-linecap="round" stroke-linejoin="round" stroke-miterlimit="10"/>
    <circle class="st1" cx="-1.6" cy="-.1" r=".1" fill="#FFC258"/>
    <path class="st2" d="M-1.6.5c-.3 0-.6-.3-.6-.6s.2-.7.6-.7c.3 0 .6.3.6.7s-.3.6-.6.6z" fill="#4F4B45"/>
    <circle class="st1" cx="1.6" cy="-.1" r=".1" fill="#FFC258"/>
    <path class="st2" d="M1.6.5C1.3.5 1 .2 1-.1s.3-.6.6-.6.6.3.6.6-.2.6-.6.6z" fill="#4F4B45"/>
    <circle class="st3" cx="-3" cy="-1.5" r=".5" fill="#FABFA5"/>
    <circle class="st3" cx="3" cy="-1.5" r=".5" fill="#FABFA5"/>
    <path d="M-1.2-3c.8-.5 1.7-.5 2.5 0" fill="none" stroke="#504b46" stroke-linecap="round" stroke-linejoin="round" stroke-miterlimit="10"/>
  </symbol>
  <g id="Icons">
    <g id="XMLID_1894_">
      <ellipse id="XMLID_943_" cx="24" cy="44.8" rx="9" ry="1.5" fill="#45413c" opacity=".15"/>
      <g id="XMLID_941_">
        <path id="XMLID_1441_" class="st61" d="M22.4 31.3c.9 3.8.6 10.2.6 10.2 0 .3-.3.6-.6.6-2.6.2-4.6.8-5 1.6-.1.1 0 .3.1.4.6.3 2.6 1.1 6.4 1.1s5.8-.8 6.4-1.1c.1-.1.2-.3.1-.4-.4-.8-2.4-1.4-5-1.6-.3 0-.6-.3-.6-.6 0 0-.3-6.4.6-10.2h-3z" fill="#00B8F0" stroke="#45413C" stroke-linecap="round" stroke-linejoin="round" stroke-miterlimit="10"/>
        <g id="XMLID_951_">
          <path id="XMLID_1440_" d="M31.3 24.7c0 4-3.2 7.9-7.3 7.9s-7.3-3.9-7.3-7.9L18 2.9h12l1.3 21.8z" fill="#00b8f0"/>
          <path id="XMLID_1439_" d="M30.6 13.8L30 2.9H18l-1.3 21.8c0 1 .2 1.9.5 2.8 5.6-3.5 10.4-8.2 13.4-13.7z" fill="#4acfff"/>
          <path id="XMLID_1438_" d="M31.3 24.7c0 4-3.2 7.9-7.3 7.9s-7.3-3.9-7.3-7.9L18 2.9h12l1.3 21.8z" fill="none" stroke="#45413c" stroke-linecap="round" stroke-linejoin="round" stroke-miterlimit="10"/>
          <ellipse id="XMLID_1437_" class="st61" cx="24" cy="2.9" rx="6" ry="1.3" fill="#00B8F0" stroke="#45413C" stroke-linecap="round" stroke-linejoin="round" stroke-miterlimit="10"/>
        </g>
        <g id="XMLID_945_">
          <path id="XMLID_1436_" class="st11" d="M19.3 19.9s.6-1.6 2.5-1.6c2.2 0 3.5 1.6 3.5 1.6h-6z" fill="#FFE500"/>
          <path id="XMLID_1435_" class="st11" d="M29.7 24c0 3.1-2.5 6.9-5.7 6.9s-5.7-3.8-5.7-6.9l.3-5s.6.9 2.8.9 2.8-1.9 5-1.9 2.8.9 2.8.9l.5 5.1z" fill="#FFE500"/>
          <path id="XMLID_1434_" d="M27.7 18.2c-.3-.1-.7-.2-1.2-.2-2.2 0-2.8 1.9-5 1.9s-2.9-.9-2.9-.9l-.3 5c0 .8.2 1.6.5 2.4 3.3-2.3 6.4-5.1 8.9-8.2z" fill="#fff48c"/>
        </g>
        <g id="XMLID_942_">
          <circle id="XMLID_1433_" class="st16" cx="21.8" cy="7.6" r="1.3" fill="#E5F8FF"/>
          <circle id="XMLID_1432_" class="st16" cx="19.9" cy="9.5" r=".6" fill="#E5F8FF"/>
        </g>
      </g>
    </g>
  </g>
</svg>
