<svg xmlns="http://www.w3.org/2000/svg" viewBox="0 0 48 48">
  <ellipse cx="24" cy="44.8" rx="9" ry="1.5" fill="#45413c" opacity=".15"/>
  <path class="st61" d="M22.4 31.3c.9 3.8.6 10.2.6 10.2 0 .3-.3.6-.6.6-2.6.2-4.6.8-5 1.6-.1.1 0 .3.1.4.6.3 2.6 1.1 6.4 1.1s5.8-.8 6.4-1.1c.1-.1.2-.3.1-.4-.4-.8-2.4-1.4-5-1.6-.3 0-.6-.3-.6-.6 0 0-.3-6.4.6-10.2h-3z" fill="#00B8F0" stroke="#45413C" stroke-linecap="round" stroke-linejoin="round" stroke-miterlimit="10"/>
  <path d="M31.3 24.7c0 4-3.2 7.9-7.3 7.9s-7.3-3.9-7.3-7.9L18 2.9h12l1.3 21.8z" fill="#00b8f0"/>
  <path d="M30.6 13.8L30 2.9H18l-1.3 21.8c0 1 .2 1.9.5 2.8 5.6-3.5 10.4-8.2 13.4-13.7z" fill="#4acfff"/>
  <path d="M31.3 24.7c0 4-3.2 7.9-7.3 7.9s-7.3-3.9-7.3-7.9L18 2.9h12l1.3 21.8z" fill="none" stroke="#45413c" stroke-linecap="round" stroke-linejoin="round" stroke-miterlimit="10"/>
  <ellipse class="st61" cx="24" cy="2.9" rx="6" ry="1.3" fill="#00B8F0" stroke="#45413C" stroke-linecap="round" stroke-linejoin="round" stroke-miterlimit="10"/>
  <path class="st11" d="M19.3 19.9s.6-1.6 2.5-1.6c2.2 0 3.5 1.6 3.5 1.6h-6z" fill="#FFE500"/>
  <path class="st11" d="M29.7 24c0 3.1-2.5 6.9-5.7 6.9s-5.7-3.8-5.7-6.9l.3-5s.6.9 2.8.9 2.8-1.9 5-1.9 2.8.9 2.8.9l.5 5.1z" fill="#FFE500"/>
  <path d="M27.7 18.2c-.3-.1-.7-.2-1.2-.2-2.2 0-2.8 1.9-5 1.9s-2.9-.9-2.9-.9l-.3 5c0 .8.2 1.6.5 2.4 3.3-2.3 6.4-5.1 8.9-8.2z" fill="#fff48c"/>
  <circle class="st16" cx="21.8" cy="7.6" r="1.3" fill="#E5F8FF"/>
  <circle class="st16" cx="19.9" cy="9.5" r=".6" fill="#E5F8FF"/>
</svg>
