<svg data-name="Layer 1" xmlns="http://www.w3.org/2000/svg" viewBox="0 0 24 24" focusable="false">
  <path fill="none" d="M0 0h24v24H0z"/>
  <path d="M22 16.991a2.391 2.391 0 01-2.392 2.39H4.392A2.391 2.391 0 012 16.991a2.39 2.39 0 01.985-1.934 4.283 4.283 0 001.765-3.464v-2.08a7.425 7.425 0 016.729-7.494 7.254 7.254 0 017.771 7.228v2.346a4.283 4.283 0 001.765 3.464A2.39 2.39 0 0122 16.991z" fill="#e54141" opacity=".1"/>
  <path d="M13.648 22h-3.296M12 7.359v3.295"/>
  <path d="M22 16.99h0a2.391 2.391 0 01-2.392 2.391H4.392A2.391 2.391 0 012 16.991h0a2.39 2.39 0 01.985-1.934h0a4.283 4.283 0 001.765-3.464v-2.08a7.425 7.425 0 016.729-7.495 7.254 7.254 0 017.771 7.228v2.347a4.283 4.283 0 001.765 3.464h0A2.39 2.39 0 0122 16.99z" stroke-miterlimit="10" stroke="#e54141" stroke-linecap="round" stroke-width="1.5" fill="none"/>
</svg>
