<svg viewBox="0 0 24 24" xmlns="http://www.w3.org/2000/svg" focusable="false">
  <path d="M21 13a1 1 0 01.993.883L22 14v5a1 1 0 01-1.993.117L20 19v-2.211l-2.107 1.883c-2.029 1.93-4.946 2.733-7.733 2.133-2.796-.602-5.08-2.532-6.044-5.122a1 1 0 011.875-.698c.723 1.942 2.453 3.405 4.59 3.865 2.055.442 4.2-.106 5.757-1.466l.2-.182L19 15h-3a1 1 0 01-.993-.883L15 14a1 1 0 01.883-.993L16 13h5zm-7.16-9.805c2.796.602 5.08 2.532 6.044 5.122a1 1 0 01-1.875.698c-.723-1.942-2.453-3.405-4.59-3.865-2.055-.442-4.2.106-5.757 1.466l-.2.182L4.998 9H8a1 1 0 01.993.883L9 10a1 1 0 01-.883.993L8 11H3a1 1 0 01-.993-.883L2 10V5a1 1 0 011.993-.117L4 5v2.209l2.107-1.881c2.029-1.93 4.946-2.733 7.733-2.133z" fill="#404040" fill-rule="evenodd"/>
</svg>
