<svg xmlns="http://www.w3.org/2000/svg" viewBox="0 0 32 32">
  <path fill="#e0e0e2" d="M10.5 28.5h-7v3h10.576a2.661 2.661 0 002.214-1.185 2.661 2.661 0 00-.333-3.358L14.5 25.5"/>
  <path fill="#ffdaa7" d="M26.348 26.153l-2.15-1.182-.944 2.402 1.466.766 1.628-1.986z"/>
  <path fill="#2c2b2d" d="M24.72 28.639a.502.502 0 01-.231-.057l-1.467-.766a.5.5 0 01-.233-.626l.943-2.401a.5.5 0 01.706-.256l2.15 1.182a.501.501 0 01.146.756l-1.627 1.985a.499.499 0 01-.387.183zm-.836-1.501l.707.369.989-1.205-1.125-.618z"/>
  <path fill="#ffdaa7" d="M24.695 29.606l.182-1.465a2.422 2.422 0 012.722-2.102l1.473.195a2.47 2.47 0 012.118 2.742l-.05.401a2.422 2.422 0 01-2.722 2.102l-2.537-.336a1.385 1.385 0 01-1.186-1.537z"/>
  <path fill="#8b8891" d="M29.24 26.26l-.37 2.17-2.85-1.95-.01-.01-.04-.06a2.365 2.365 0 011.63-.37l1.47.19.17.03z"/>
  <path fill="#37b678" d="M7.5 28.5l.44-4.833a5 5 0 016.47-4.32l7.985 2.495a3 3 0 012.105 2.864v.794l-1 2-5.497.344z"/>
  <path fill="#2c2b2d" d="M7.5 29l-.045-.002a.5.5 0 01-.453-.543l.44-4.833a5.501 5.501 0 017.117-4.753l7.985 2.495A3.486 3.486 0 0125 24.705v.795a.502.502 0 01-.053.224l-1 2a.5.5 0 01-.416.275l-5.497.344a.489.489 0 01-.53-.468.5.5 0 01.468-.53l5.21-.326.818-1.637v-.677a2.49 2.49 0 00-1.754-2.386l-7.985-2.495a4.5 4.5 0 00-5.823 3.888l-.44 4.833A.5.5 0 017.5 29z"/>
  <path fill="#ffdaa7" d="M20.386 29.322a9.089 9.089 0 001.7.604c.651.16 1.563 1.09 1.485 1.51a9.269 9.269 0 01-3.36-.217z"/>
  <path fill="#2c2b2d" d="M22.476 32c-.25 0-.499-.01-.746-.03a9.64 9.64 0 01-1.642-.267.5.5 0 01-.375-.53l.175-1.897a.5.5 0 01.71-.406 8.614 8.614 0 001.606.57c.79.195 2.005 1.3 1.859 2.087a.5.5 0 01-.433.405 9.736 9.736 0 01-1.154.068zm-1.727-1.172a9.13 9.13 0 001.058.147 8.436 8.436 0 001.007.018 2.14 2.14 0 00-.85-.582 9.605 9.605 0 01-1.143-.36zM14.076 32H3.5a.5.5 0 01-.5-.5v-3a.5.5 0 01.5-.5h7a.5.5 0 010 1H4v2h10.076a2.161 2.161 0 001.528-3.69l-1.458-1.456a.5.5 0 01.707-.707l1.458 1.457A3.161 3.161 0 0114.076 32z"/>
  <path fill="#ffdaa7" d="M3.5 31.5h-3l.544-1.632A2 2 0 012.942 28.5H3.5z"/>
  <path fill="#2c2b2d" d="M3.5 32h-3a.5.5 0 01-.475-.658l.544-1.633A2.497 2.497 0 012.941 28H3.5a.5.5 0 01.5.5v3a.5.5 0 01-.5.5zm-2.307-1H3v-2h-.059a1.5 1.5 0 00-1.423 1.025z"/>
  <path fill="#37b678" d="M20.202 26.209l-1.341 1.543 2.172 1.302-.39 2.432-4.711-2.393a1 1 0 01-.364-1.468l1.873-2.654"/>
  <path fill="#2c2b2d" d="M20.643 31.986a.501.501 0 01-.227-.054l-4.71-2.394a1.499 1.499 0 01-.547-2.201l1.873-2.653a.5.5 0 01.818.576l-1.873 2.653a.498.498 0 00.181.733l4.1 2.083.227-1.42-1.881-1.127a.5.5 0 01-.12-.757l1.34-1.544a.5.5 0 11.756.656l-.95 1.094 1.66.995a.5.5 0 01.236.508l-.39 2.431a.501.501 0 01-.493.421z"/>
  <path fill="#e0e0e2" d="M29.238 26.282l-.885 5.188.902-.046a2.278 2.278 0 002.115-1.826l.083-.405a2.324 2.324 0 00-1.49-2.651z"/>
  <path fill="#2c2b2d" d="M28.353 31.97a.5.5 0 01-.493-.584l.886-5.188a.5.5 0 01.66-.386l.726.26a2.834 2.834 0 011.81 3.22l-.082.406a2.78 2.78 0 01-2.58 2.226l-.903.045zm1.278-5.016l-.68 3.985.279-.013a1.782 1.782 0 001.65-1.428l.083-.406a1.83 1.83 0 00-1.168-2.08z"/>
  <path fill="#fff" d="M28.872 28.428a13.703 13.703 0 00-2.867-1.953"/>
  <path fill="#2c2b2d" d="M28.872 28.928a.495.495 0 01-.331-.126 13.195 13.195 0 00-2.763-1.882.5.5 0 11.454-.89 14.41 14.41 0 011.71 1.028 14.167 14.167 0 011.262.996.5.5 0 01-.332.874z"/>
  <path fill="#e0e0e2" d="M18.015 5.557l.872-1.728a.2.2 0 01.36.003l.84 1.744a.2.2 0 00.15.11l1.913.297a.2.2 0 01.108.343L20.86 7.664a.2.2 0 00-.06.177l.31 1.91a.2.2 0 01-.292.21l-1.705-.917a.2.2 0 00-.187-.002l-1.721.886a.2.2 0 01-.29-.214l.345-1.905a.2.2 0 00-.056-.178L15.83 6.267a.2.2 0 01.115-.34l1.918-.262a.2.2 0 00.152-.108z"/>
  <path fill="#2c2b2d" d="M20.914 10.485a.704.704 0 01-.334-.085l-1.565-.841-1.582.813a.7.7 0 01-1.01-.747l.317-1.75-1.262-1.254a.7.7 0 01.4-1.19l1.761-.24.802-1.587a.696.696 0 01.625-.385h.006a.695.695 0 01.625.395l.772 1.603 1.758.271a.7.7 0 01.376 1.2l-1.284 1.228.285 1.756a.702.702 0 01-.69.813zm.14-.966zM19.02 8.52a.701.701 0 01.33.083l1.17.628-.213-1.311a.701.701 0 01.205-.616l.962-.921-1.313-.203a.702.702 0 01-.522-.384l-.579-1.2-.6 1.185a.697.697 0 01-.53.378l-1.317.18.944.936a.694.694 0 01.195.622l-.236 1.307 1.182-.607a.713.713 0 01.322-.077zm-2.169-.536l.003.003zm4.443-.225zm.619-1.796h-.002zM16.18 5.91l.002.002zm1.387-.579v.002-.002zm2.744-.139z"/>
  <path fill="#e0e0e2" d="M12.207 2.972a6.856 6.856 0 012.138-1.221.2.2 0 01.22.314 7.055 7.055 0 006.563 11.366.2.2 0 01.163.347 6.871 6.871 0 01-2.72 1.428 7.056 7.056 0 01-6.364-12.234z"/>
  <path fill="#2c2b2d" d="M16.748 15.944a7.611 7.611 0 01-5.203-2.04 7.408 7.408 0 01-2.362-5.673 7.643 7.643 0 012.702-5.641 7.378 7.378 0 012.293-1.31.7.7 0 01.78 1.095 6.556 6.556 0 006.097 10.563.7.7 0 01.561 1.22 7.39 7.39 0 01-2.915 1.531 7.6 7.6 0 01-1.953.255zM13.562 2.646a6.372 6.372 0 00-1.033.71 6.643 6.643 0 00-2.347 4.903 6.422 6.422 0 002.048 4.917 6.63 6.63 0 006.213 1.547 6.38 6.38 0 001.68-.714h-.05a7.558 7.558 0 01-6.51-11.363zm-1.355.327zM28.743 32a3.104 3.104 0 01-.39-.025l-2.537-.336a1.883 1.883 0 01-1.618-2.094l.183-1.466a2.922 2.922 0 013.284-2.536l1.473.195a2.967 2.967 0 012.548 3.3l-.05.401A2.922 2.922 0 0128.743 32zm-3.553-2.332a.88.88 0 00.757.979l2.537.335a1.886 1.886 0 001.427-.383 1.909 1.909 0 00.733-1.284l.05-.4a1.964 1.964 0 00-1.688-2.185l-1.473-.195a1.922 1.922 0 00-2.16 1.667z"/>
</svg>
