<svg xmlns="http://www.w3.org/2000/svg" viewBox="0 0 41.468 36.55">
  <path d="M3.664 11.955a.609.609 0 00.123-.013l1.735-.357a.608.608 0 10-.245-1.191l-1.735.357a.608.608 0 00.122 1.2zm0 0M7.638 14.14a.612.612 0 00.123-.013l1.735-.357a.608.608 0 10-.245-1.191l-1.735.357a.608.608 0 00.122 1.2zm0 0" fill="#2446f5"/>
  <path d="M40.683 15.53v-1.2a2.95 2.95 0 00-.724-1.936l-1.926-2.216a1.734 1.734 0 01-.426-1.138V6.428a1.08 1.08 0 001.029-1.077V1.079A1.08 1.08 0 0037.557 0h-6.9a1.081 1.081 0 00-1.079 1.079v4.272a1.08 1.08 0 00.947 1.07v2.622a1.735 1.735 0 01-.426 1.138L28.26 12.3l-.019-.031-.794-1.2a1.092 1.092 0 00.623-.984V7.818a1.092 1.092 0 00-1.091-1.091h-8.312a.608.608 0 100 1.216h8.187v2.011h-13.5V7.943h2.5a.608.608 0 000-1.216h-2.623a1.092 1.092 0 00-1.091 1.091v2.262a1.091 1.091 0 00.623.984l-.794 1.2c-.013.019-.023.039-.035.058a20.5 20.5 0 00-.486-2.269 4.812 4.812 0 00-4.129-3.526 7.472 7.472 0 00-.919-.042l.905-1.667a.608.608 0 00-1.069-.581l-.654 1.2L5.124 3.2a.608.608 0 00-1.191.245l.461 2.24-1.077-.845a.608.608 0 10-.752.955l1.49 1.173a7.4 7.4 0 00-.825.4 4.812 4.812 0 00-2.4 4.872 21.138 21.138 0 00.726 3.26h-.543A1.015 1.015 0 000 16.517v3.146a1.015 1.015 0 001.013 1.013h1.455l.465 2.68a.609.609 0 101.2-.208L3.7 20.676h34.065l-2.124 12.235a2.918 2.918 0 01-2.881 2.423H8.707a2.917 2.917 0 01-2.88-2.423l-1.213-6.984a.609.609 0 10-1.2.208l1.213 6.984a4.132 4.132 0 004.08 3.431h24.054a4.132 4.132 0 004.078-3.431L39 20.676h1.455a1.015 1.015 0 001.013-1.013v-3.146a1.015 1.015 0 00-.785-.987zm-9.89-14.314h6.627v4h-6.627zm-2.129 13.117a1.734 1.734 0 01.426-1.138l1.926-2.216a2.951 2.951 0 00.724-1.936V6.43h4.651v2.613a2.952 2.952 0 00.724 1.936l1.926 2.216a1.735 1.735 0 01.426 1.138V15.5h-10.8zm-15.9-.659a1.335 1.335 0 01.222-.738l1.166-1.765H26.06l1.166 1.765a1.334 1.334 0 01.222.738V15.5h-1.62v-1.4a1.015 1.015 0 00-1.013-1.013h-9.421a1.015 1.015 0 00-1.013 1.013v1.4h-1.62zm11.851.625v1.2H15.6V14.3zM3.829 8.427a6.372 6.372 0 011.617-.637A6.065 6.065 0 016.52 7.7a6.171 6.171 0 01.667.035 3.6 3.6 0 013.089 2.643 20.957 20.957 0 01.712 5.125H2.834a20.279 20.279 0 01-.8-3.428 3.6 3.6 0 011.795-3.648zm36.422 11.032H1.216v-2.74h10.758a.611.611 0 00.179.027h15.755a.619.619 0 00.148.019h12.019a.614.614 0 00.177-.026zm0 0" fill="#2446f5"/>
  <path d="M10.653 32.713a.689.689 0 00.124-.011.612.612 0 00.522-.711l-1.687-8.188a.655.655 0 00-.768-.483.612.612 0 00-.522.711l1.688 8.187a.645.645 0 00.643.495zm0 0M17.354 32.716h.057a.63.63 0 00.614-.656l-.756-8.188a.654.654 0 00-.726-.555.63.63 0 00-.614.656l.755 8.188a.65.65 0 00.67.555zm0 0M31.036 32.713a.646.646 0 00.644-.494l1.687-8.188a.612.612 0 00-.522-.711.655.655 0 00-.768.483l-1.687 8.188a.612.612 0 00.522.711.689.689 0 00.124.011zm0 0M24.314 32.713a.65.65 0 00.669-.557l.755-8.188a.629.629 0 00-.614-.656.655.655 0 00-.726.556l-.756 8.188a.63.63 0 00.614.656zm0 0" fill="#01af44"/>
  <path fill="#fff" d="M12 6.265h17v5H12z"/>
  <path d="M15.9 7.905h-3.3v2.85h15.172v-2.85H18.28" fill="none" stroke="#01af44" stroke-linecap="round" stroke-linejoin="round"/>
</svg>
