<svg xmlns="http://www.w3.org/2000/svg" viewBox="0 0 48 48" focusable="false">
  <path fill="#debb7e" d="M13.3 16.6h4.3v22.3h-4.3z"/>
  <path d="M13.3 32.1c.4.2.8.3 1.3.3 1.2 0 2.3-.8 2.8-1.8.1 0 .2 0 .2.1V16.6h-4.3v15.5z" fill="#b89558"/>
  <path fill="none" stroke="#45413C" stroke-linecap="round" stroke-linejoin="round" stroke-miterlimit="10" d="M13.3 16.6h4.3v22.3h-4.3z"/>
  <path d="M15.4 6.8c-5.5 0-10 4.3-10.4 9.7-2.5 1-4.2 3.4-4.2 6.2 0 3.7 3 6.6 6.6 6.6 1.9 0 3.6-.8 4.8-2.1 1 .3 2.1.5 3.2.5 5.8 0 10.4-4.7 10.4-10.4S21.2 6.8 15.4 6.8z" fill="#6DD627"/>
  <path d="M5 19.3c.4-5.4 4.9-9.7 10.4-9.7 5.3 0 9.7 3.9 10.3 9.1.1-.5.1-.9.1-1.4 0-5.8-4.7-10.4-10.4-10.4-5.5 0-10 4.3-10.4 9.7-2.5 1-4.2 3.4-4.2 6.2 0 .5.1 1 .2 1.4.4-2.3 1.9-4.1 4-4.9z" fill="#9CEB60"/>
  <path d="M15.4 6.8c-5.5 0-10 4.3-10.4 9.7-2.5 1-4.2 3.4-4.2 6.2 0 3.7 3 6.6 6.6 6.6 1.9 0 3.6-.8 4.8-2.1 1 .3 2.1.5 3.2.5 5.8 0 10.4-4.7 10.4-10.4S21.2 6.8 15.4 6.8z" fill="none" stroke="#45413C" stroke-linecap="round" stroke-linejoin="round" stroke-miterlimit="10"/>
  <path d="M15.4 21.9L27 15.1c.5-.3 1.2-.3 1.7 0l11.7 6.8c.7.4.9 1.2.6 1.9-.4.8-1.3 1.1-2.1.6l-11-6.4-11 6.4c-.8.4-1.7.1-2.1-.6-.4-.7-.1-1.5.6-1.9z" fill="#ff6242"/>
  <path d="M14.9 24c.1-.2.3-.3.5-.4L27 16.8c.5-.3 1.2-.3 1.7 0l11.7 6.8c.2.1.4.3.5.4 0-.1.1-.1.1-.2.3-.7.1-1.5-.6-1.9l-11.7-6.8c-.5-.3-1.2-.3-1.7 0l-11.7 6.8c-.7.4-.9 1.2-.6 1.9.1.1.1.2.2.2z" fill="#ff866e"/>
  <path d="M15.4 21.9L27 15.1c.5-.3 1.2-.3 1.7 0l11.7 6.8c.7.4.9 1.2.6 1.9-.4.8-1.3 1.1-2.1.6l-11-6.4-11 6.4c-.8.4-1.7.1-2.1-.6-.4-.7-.1-1.5.6-1.9z" fill="none" stroke="#45413C" stroke-linecap="round" stroke-linejoin="round" stroke-miterlimit="10"/>
  <ellipse cx="26.2" cy="39.7" rx="21" ry="1.5" fill="#45413c" opacity=".15"/>
  <path fill="#fffacf" d="M38.2 38.9H17.6V24l10.3-6 10.3 6z"/>
  <path fill="#fff48c" d="M27.9 18l-10.3 6v2.4l10.3-6 10.3 6V24z"/>
  <path fill="none" stroke="#45413C" stroke-linecap="round" stroke-linejoin="round" stroke-miterlimit="10" d="M38.2 38.9H17.6V24l10.3-6 10.3 6z"/>
  <path d="M29.2 38.9h-9.9v-1.3c0-.5.4-.9.9-.9h8.2c.5 0 .9.4.9.9v1.3z" fill="#e0e0e0" stroke="#45413c" stroke-linecap="round" stroke-linejoin="round" stroke-miterlimit="10"/>
  <path d="M27.1 26.4h-5.6c-.5 0-.9.4-.9.9v9.4h7.3v-9.4c0-.5-.4-.9-.8-.9z" fill="#bf8256"/>
  <path d="M27.1 26.4h-5.6c-.5 0-.9.4-.9.9V29c0-.5.4-.9.9-.9h5.6c.5 0 .9.4.9.9v-1.7c-.1-.5-.5-.9-.9-.9z" fill="#915e3a"/>
  <path d="M27.1 26.4h-5.6c-.5 0-.9.4-.9.9v9.4h7.3v-9.4c0-.5-.4-.9-.8-.9z" fill="none" stroke="#45413C" stroke-linecap="round" stroke-linejoin="round" stroke-miterlimit="10"/>
  <path d="M34.8 31.6h-3.4c-.5 0-.9-.4-.9-.9v-3.4c0-.5.4-.9.9-.9h3.4c.5 0 .9.4.9.9v3.4c-.1.5-.4.9-.9.9z" fill="#00B8F0"/>
  <path d="M34.8 26.4h-3.4c-.5 0-.9.4-.9.9v3.4c0 .5.4.9.9.9h.6l3-5.1c-.1 0-.2-.1-.2-.1z" fill="#4ACFFF"/>
  <path d="M25.3 32h-2.1c-.5 0-.9-.4-.9-.9V29c0-.5.4-.9.9-.9h2.1c.5 0 .9.4.9.9v2.1c0 .5-.4.9-.9.9z" fill="#00B8F0"/>
  <path d="M25.3 28.1h-2.1c-.5 0-.9.4-.9.9v2.1c0 .5.4.9.9.9h.2l2.2-3.8c-.1 0-.2-.1-.3-.1z" fill="#4ACFFF"/>
  <path d="M34.8 31.6h-3.4c-.5 0-.9-.4-.9-.9v-3.4c0-.5.4-.9.9-.9h3.4c.5 0 .9.4.9.9v3.4c-.1.5-.4.9-.9.9zm-9.5.4h-2.1c-.5 0-.9-.4-.9-.9V29c0-.5.4-.9.9-.9h2.1c.5 0 .9.4.9.9v2.1c0 .5-.4.9-.9.9z" fill="none" stroke="#45413C" stroke-linecap="round" stroke-linejoin="round" stroke-miterlimit="10"/>
  <path d="M45.5 38.9c.5-.4.9-1 .9-1.7 0-1.2-1-2.1-2.1-2.1-.5 0-1 .2-1.4.5-.4-1.8-1.9-3.1-3.8-3.1-2.1 0-3.9 1.7-3.9 3.9 0 1 .4 1.9 1 2.6h9.3z" fill="#6DD627"/>
  <path d="M39.1 34.2c1.9 0 3.4 1.3 3.8 3.1.4-.3.8-.5 1.4-.5.9 0 1.6.5 2 1.3.1-.3.2-.5.2-.9 0-1.2-1-2.1-2.1-2.1-.5 0-1 .2-1.4.5-.4-1.8-1.9-3.1-3.8-3.1-2.1 0-3.9 1.7-3.9 3.9 0 .3 0 .6.1.9.3-1.8 1.8-3.1 3.7-3.1z" fill="#9CEB60"/>
  <path d="M45.5 38.9c.5-.4.9-1 .9-1.7 0-1.2-1-2.1-2.1-2.1-.5 0-1 .2-1.4.5-.4-1.8-1.9-3.1-3.8-3.1-2.1 0-3.9 1.7-3.9 3.9 0 1 .4 1.9 1 2.6h9.3z" fill="none" stroke="#45413C" stroke-linecap="round" stroke-linejoin="round" stroke-miterlimit="10"/>
</svg>
