<svg viewBox="0 0 24 24" xmlns="http://www.w3.org/2000/svg" focusable="false">
  <g fill="none" fill-rule="evenodd">
    <path d="M0 0h24v24H0z"/>
    <path d="M13.128 6c.507 0 .936.315 1.09.758l1.512 4.252c.054.158.084.33.084.495v5.37c0 .622-.522 1.125-1.15 1.125-.638 0-1.152-.51-1.152-1.125V16.5h-9.21v.375c0 .622-.514 1.125-1.15 1.125A1.137 1.137 0 012 16.875v-5.37c0-.173.03-.338.084-.495l1.512-4.252A1.152 1.152 0 014.686 6zm6.186 0c.477 0 .885.279 1.06.68l.03.078 1.512 4.252c.043.126.07.262.08.395l.004.1v5.37c0 .622-.522 1.125-1.151 1.125-.61 0-1.108-.468-1.149-1.049l-.002-.076V16.5h-2.932v-4.995c0-.165-.03-.338-.084-.495l-.182-.51h3.965l-.975-2.865a.777.777 0 00-.659-.507l-.07-.003h-3.46l-.131-.367A1.145 1.145 0 0014.08 6h5.234zM4.686 12c-.637 0-1.151.502-1.151 1.125s.514 1.125 1.151 1.125 1.151-.502 1.151-1.125S5.323 12 4.687 12zm8.442 0c-.637 0-1.151.502-1.151 1.125s.514 1.125 1.151 1.125 1.151-.502 1.151-1.125S13.765 12 13.13 12zm6.186 0c-.637 0-1.151.502-1.151 1.125s.514 1.125 1.15 1.125c.638 0 1.152-.502 1.152-1.125S19.951 12 19.314 12zm-6.738-4.875H5.239c-.33 0-.622.21-.73.51L3.536 10.5H14.28l-.974-2.865a.777.777 0 00-.73-.51z" fill="currentColor"/>
  </g>
</svg>
