<svg xmlns="http://www.w3.org/2000/svg" viewBox="0 0 32 32">
  <path fill="#ffdaa7" d="M20.517 9.655l-.513-.272a3.451 3.451 0 01-1.428-4.705l1.038-1.902a3.54 3.54 0 014.763-1.41l.513.272a3.451 3.451 0 011.428 4.705L25.28 8.245a3.54 3.54 0 01-4.763 1.41z"/>
  <path fill="#2c2b2d" d="M22.177 10.57a4.016 4.016 0 01-1.895-.473l-.512-.273a3.96 3.96 0 01-1.949-2.37 3.91 3.91 0 01.317-3.016l1.037-1.9A4.044 4.044 0 0124.612.924l.512.272a3.95 3.95 0 011.948 2.368 3.908 3.908 0 01-.316 3.017L25.72 8.484a4.03 4.03 0 01-3.543 2.085zM20.75 9.213a3.043 3.043 0 004.09-1.208l1.037-1.902a2.916 2.916 0 00.236-2.251 2.96 2.96 0 00-1.459-1.773l-.512-.272a3.043 3.043 0 00-4.091 1.208l-1.037 1.901a2.921 2.921 0 00-.236 2.25 2.964 2.964 0 001.461 1.774z"/>
  <path fill="#8b8891" d="M19.756 2.594a6.906 6.906 0 016.508 3.848l.403-1.23a3.26 3.26 0 00-1.362-3.768l-.502-.32a3.35 3.35 0 00-4.325.633z"/>
  <path fill="#2c2b2d" d="M26.264 6.941a.5.5 0 01-.449-.278 6.403 6.403 0 00-6.037-3.57.486.486 0 01-.472-.281.501.501 0 01.071-.545l.723-.837a3.867 3.867 0 014.972-.727l.501.318a3.764 3.764 0 011.57 4.346l-.405 1.23a.5.5 0 01-.44.343.422.422 0 01-.034.001zM20.82 2.126a7.385 7.385 0 015.31 3.12l.062-.19a2.764 2.764 0 00-1.156-3.19l-.5-.32a2.858 2.858 0 00-3.679.537z"/>
  <path fill="#8b8891" d="M25.16 31.5H9.476v-4.14H19.2l4.072-3.643 3.595 4.089a2.228 2.228 0 01-1.705 3.694z"/>
  <path fill="#2c2b2d" d="M25.161 32H9.476a.5.5 0 01-.5-.5v-4.14a.5.5 0 01.5-.5h9.532l3.93-3.516a.488.488 0 01.363-.126.496.496 0 01.345.169l3.595 4.089a2.683 2.683 0 01.439 2.908A2.73 2.73 0 0125.16 32zM9.976 31H25.16a1.741 1.741 0 001.608-1.027 1.674 1.674 0 00-.278-1.837l-3.262-3.71-3.697 3.307a.497.497 0 01-.333.127H9.976z"/>
  <path fill="#ffdaa7" d="M9.475 31.5v-4.14a2.854 2.854 0 00-1.523.425 4.376 4.376 0 00-1.255 1.656A6.57 6.57 0 014.576 31.5z"/>
  <path fill="#2c2b2d" d="M9.476 32h-4.9a.5.5 0 01-.267-.923 6.153 6.153 0 001.963-1.901c.095-.15.176-.296.256-.438a3.46 3.46 0 011.152-1.373 3.316 3.316 0 011.789-.505.564.564 0 01.357.144.501.501 0 01.15.356v4.14a.5.5 0 01-.5.5zm-3.431-1h2.93v-3.09a2.094 2.094 0 00-.75.294 2.554 2.554 0 00-.825 1.023 11.1 11.1 0 01-.28.481A6.506 6.506 0 016.044 31z"/>
  <path fill="#8b8891" d="M26.866 27.806a25.9 25.9 0 01-7.897.682c-2.528-.178-4.261-.325-5.612-1.665a5.673 5.673 0 01-1.518-3.035 5.257 5.257 0 01.114-2.364l2.404-8.667a3.227 3.227 0 013.081-2.258h.855l2.152 1.072c.282.705.667 1.727 1.055 2.986a18.075 18.075 0 01.615 2.254c.413 2.503-1.007 3.74-1.006 5.343 0 1.337.991 3.268 5.757 5.652z"/>
  <path fill="#2c2b2d" d="M20.707 29.048q-.89 0-1.773-.062c-2.468-.173-4.417-.31-5.93-1.808a6.087 6.087 0 01-1.656-3.3 5.778 5.778 0 01.124-2.588l2.404-8.667a3.714 3.714 0 013.562-2.624h.855a.491.491 0 01.223.053l2.152 1.072a.494.494 0 01.241.262c.39.975.751 1.993 1.069 3.023a18.201 18.201 0 01.63 2.32 6.568 6.568 0 01-.558 3.749 4.7 4.7 0 00-.442 1.675c.001 1.635 1.846 3.387 5.482 5.205a.5.5 0 01-.107.934 26.864 26.864 0 01-6.276.756zm-3.269-18.049a2.713 2.713 0 00-2.603 1.907l-2.4 8.652a4.794 4.794 0 00-.105 2.14 5.11 5.11 0 001.38 2.77c1.188 1.18 2.709 1.34 5.294 1.52a25.171 25.171 0 006.412-.384c-3.23-1.808-4.807-3.597-4.808-5.45a5.487 5.487 0 01.511-2.04 5.576 5.576 0 00.502-3.221 17.945 17.945 0 00-.598-2.189 38.437 38.437 0 00-.972-2.77l-1.875-.935z"/>
  <path fill="#8b8891" d="M20.445 11.571l-.455 8.198 3.223 3.972-.98 2.796-5.172-4.332a2.142 2.142 0 01-.767-1.642v-5.146"/>
  <path fill="#2c2b2d" d="M22.234 27.037a.502.502 0 01-.32-.116l-5.174-4.332a2.638 2.638 0 01-.946-2.026v-5.146a.5.5 0 011 0v5.146a1.64 1.64 0 00.589 1.26L22 25.688l.647-1.85-3.047-3.755a.501.501 0 01-.11-.343l.455-8.197a.5.5 0 01.998.055l-.445 8.005 3.103 3.822a.5.5 0 01.083.48l-.979 2.796a.5.5 0 01-.339.318.517.517 0 01-.133.017z"/>
  <path fill="#ffdaa7" d="M23.138 23.955a11.477 11.477 0 001.898 1.253c.75.395 1.584 1.806 1.36 2.294a11.729 11.729 0 01-4.05-1.285l.74-2.114"/>
  <path fill="#2c2b2d" d="M26.396 28.002a.457.457 0 01-.062-.004 12.22 12.22 0 01-4.223-1.339.498.498 0 01-.237-.606l.74-2.115a.57.57 0 01.032-.07.5.5 0 01.807-.3 11.057 11.057 0 001.816 1.198c.847.445 1.97 2.1 1.582 2.945a.5.5 0 01-.455.291zm-3.434-2.032a11.191 11.191 0 002.871.94 2.96 2.96 0 00-1.03-1.26 11.994 11.994 0 01-1.421-.878z"/>
  <path fill="#8b8891" d="M25.5 1.6a6.95 6.95 0 00-3 1.993c-2.647 3.085-1.494 7.904-1 9.967a17.983 17.983 0 001 2.99l-12 5.95c-.277-3.269-.35-10.192 4-16 1.071-1.43 5.036-6.725 9-5.897a4.65 4.65 0 012 .997z"/>
  <path fill="#2c2b2d" d="M10.5 23a.5.5 0 01-.498-.458c-.378-4.454.026-10.905 4.098-16.342 3.468-4.633 6.664-6.679 9.503-6.087a5.114 5.114 0 012.215 1.1.5.5 0 01-.148.856 6.543 6.543 0 00-2.791 1.85c-2.48 2.892-1.368 7.54-.893 9.524a17.465 17.465 0 00.973 2.908.5.5 0 01-.237.647l-12 5.95A.502.502 0 0110.5 23zM22.664 1.018c-1.712 0-4.297 1.15-7.764 5.782-3.666 4.894-4.212 10.686-3.956 14.922l10.913-5.411a18.58 18.58 0 01-.843-2.635c-.511-2.133-1.707-7.13 1.106-10.408a7.192 7.192 0 012.345-1.775 3.829 3.829 0 00-1.067-.401 3.558 3.558 0 00-.734-.074z"/>
</svg>
