<svg viewBox="0 0 24 24" xmlns="http://www.w3.org/2000/svg" focusable="false">
  <path d="M12.613 11.21l.094.083 2 2a1 1 0 01-1.32 1.497l-.094-.083-.294-.293L13 20a1 1 0 01-1.993.117L11 20l-.001-5.585-.292.292a1 1 0 01-1.32.083l-.094-.083a1 1 0 01-.083-1.32l.083-.094 2-2a1 1 0 011.32-.083zm3.94-3.17l.074.21h.283c2.756 0 4.976 2.302 5.086 5.155l.004.22c0 1.616-.68 3.12-1.838 4.136a1 1 0 11-1.32-1.503c.725-.636 1.158-1.593 1.158-2.633 0-1.813-1.304-3.27-2.916-3.37l-.174-.004h-1.03a1 1 0 01-.972-.766c-.73-3.019-3.465-4.914-6.284-4.401-2.835.517-4.852 3.304-4.603 6.43.15 1.895 1.112 3.568 2.569 4.563a1 1 0 11-1.129 1.651c-1.958-1.337-3.236-3.56-3.434-6.056-.328-4.125 2.368-7.85 6.239-8.556 3.563-.649 6.992 1.466 8.287 4.925z" fill="#404040" fill-rule="evenodd"/>
</svg>
