<svg xmlns="http://www.w3.org/2000/svg" viewBox="0 0 20 20" focusable="false">
  <path d="M17.5 16h-16C.673 16 0 15.327 0 14.5v-8C0 5.673.673 5 1.5 5h16c.827 0 1.5.673 1.5 1.5v8c0 .827-.673 1.5-1.5 1.5zM1.5 6a.5.5 0 00-.5.5v8a.5.5 0 00.5.5h16a.5.5 0 00.5-.5v-8a.5.5 0 00-.5-.5h-16z"/>
  <path d="M3.5 8h-1a.5.5 0 010-1h1a.5.5 0 010 1zm13 0h-1a.5.5 0 010-1h1a.5.5 0 010 1zm-12 2h-2a.5.5 0 010-1h2a.5.5 0 010 1zm-1 4h-1a.5.5 0 010-1h1a.5.5 0 010 1zm8 0h-6a.5.5 0 010-1h6a.5.5 0 010 1zm3 0h-1a.5.5 0 010-1h1a.5.5 0 010 1zm2-2h-3a.5.5 0 010-1H16V9.5a.5.5 0 011 0v2a.5.5 0 01-.5.5zm-11 0h-3a.5.5 0 010-1h3a.5.5 0 010 1zM6 7.5a.5.5 0 11-1 0 .5.5 0 011 0zm2 0a.5.5 0 11-1 0 .5.5 0 011 0zm2 0a.5.5 0 11-1 0 .5.5 0 011 0zm2 0a.5.5 0 11-1 0 .5.5 0 011 0zm2 0a.5.5 0 11-1 0 .5.5 0 011 0zm-7 2a.5.5 0 11-1 0 .5.5 0 011 0zm2 0a.5.5 0 11-1 0 .5.5 0 011 0zm2 0a.5.5 0 11-1 0 .5.5 0 011 0zm2 0a.5.5 0 11-1 0 .5.5 0 011 0z"/>
  <path d="M15 9.5a.5.5 0 11-1 0 .5.5 0 011 0zm-7 2a.5.5 0 11-1 0 .5.5 0 011 0zm2 0a.5.5 0 11-1 0 .5.5 0 011 0zm2 0a.5.5 0 11-1 0 .5.5 0 011 0z"/>
</svg>
