<svg viewBox="0 0 24 24" xmlns="http://www.w3.org/2000/svg" focusable="false">
  <path d="M17.173 5.713c.456 0 .824.373.824.833v11.602l2.043-2.077a.819.819 0 011.165-.002.842.842 0 01.002 1.18l-3.45 3.505a.813.813 0 01-.898.183.833.833 0 01-.51-.77V6.547c0-.46.37-.834.824-.834zm-3.447 9.768l1.604 1.63a.84.84 0 01-.004 1.179.816.816 0 01-1.165-.003l-1.604-1.629a.84.84 0 01.003-1.179.818.818 0 011.166.002zM7.94 3.245l4.032 4.095a.84.84 0 01-.002 1.18.816.816 0 01-1.165-.003L8.181 5.852v11.6a.83.83 0 01-.824.834.83.83 0 01-.824-.834V3.833c0-.338.2-.641.51-.77a.817.817 0 01.897.182zM5.51 5.708a.842.842 0 01.003 1.18L3.908 8.517a.812.812 0 01-1.165.002.838.838 0 01-.002-1.178l1.604-1.63a.818.818 0 011.165-.003z"/>
</svg>
