<svg xmlns="http://www.w3.org/2000/svg" viewBox="0 0 48 48" focusable="false">
  <path d="M9.7 17.3L4 11.1c-.2-.3-.3-.6-.1-1 .2-.4.6-.6 1.1-.4l8.6 3.1-3.9 4.5z" fill="#fffacf"/>
  <path d="M4.3 11.4c.2-.1.4-.1.7-.1l7.6 2.7 1.1-1.2-8.8-3.1c-.4-.1-.9 0-1.1.4-.2.3-.1.7.1 1l.4.3z" fill="#fffce5"/>
  <path d="M9.7 17.3L4 11.1c-.2-.3-.3-.6-.1-1 .2-.4.6-.6 1.1-.4l8.6 3.1-3.9 4.5z" fill="none" stroke="#45413C" stroke-linecap="round" stroke-linejoin="round" stroke-miterlimit="10"/>
  <path d="M18.4 9.2l25.4 15c.2-1.4.3-2.8.3-4.3 0-.8 0-1.5-.1-2.3-.1-1.6-1.3-3-2.9-3.3-.2 0-.4-.1-.5-.1-.2-.4-.4-.8-.6-1.1-1.5-2.3-3.6-3-5.4-3.1-.3-.5-.6-1-1-1.5-1.6-1.9-3.5-2.4-5.3-2.4l-.3-.3c-1.9-1.9-4.1-2.2-5.9-1.9-2.1-1.4-5.2-1.9-8.2-.5-5.8 2.6-4 10.8.9 10.5 2.8-.2 4.9-3.2 3.6-4.7z" fill="#fcd"/>
  <path d="M22.1 6.8c1.8-.3 4 0 5.9 1.9l.3.3c1.7 0 3.7.5 5.3 2.4.5.5.8 1.1 1 1.5 1.9.1 3.9.8 5.4 3.1.3.4.5.8.6 1.1 1.2.2 2.4.6 3.4 1.5 0-.3 0-.6-.1-.9-.1-1.8-1.4-3.2-3.2-3.5h-.2c-.2-.4-.4-.8-.6-1.1-1.5-2.3-3.6-3-5.4-3.1-.3-.5-.6-1-1-1.5-1.6-1.9-3.5-2.4-5.3-2.4 0-.1-.1-.2-.2-.3-1.9-1.9-4.1-2.2-5.9-1.9-2.1-1.4-5.2-1.9-8.2-.5-3.1 1.4-4 4.5-3.4 6.9.4-1.6 1.5-3.1 3.4-4 3-1.4 6.1-.9 8.2.5z" fill="#ffe5ee"/>
  <path d="M18.4 9.2l25.4 15c.2-1.4.3-2.8.3-4.3 0-.8 0-1.5-.1-2.3-.1-1.6-1.3-3-2.9-3.3-.2 0-.4-.1-.5-.1-.2-.4-.4-.8-.6-1.1-1.5-2.3-3.6-3-5.4-3.1-.3-.5-.6-1-1-1.5-1.6-1.9-3.5-2.4-5.3-2.4l-.3-.3c-1.9-1.9-4.1-2.2-5.9-1.9-2.1-1.4-5.2-1.9-8.2-.5-5.8 2.6-4 10.8.9 10.5 2.8-.2 4.9-3.2 3.6-4.7z" fill="none" stroke="#45413C" stroke-linecap="round" stroke-linejoin="round" stroke-miterlimit="10"/>
  <path d="M17.2 31.1l2.7-3 2.4-.3c.8 4.6 2.5 8.9 5 12.7 1.3 2 4.1 2.4 6 1 5.5-4.1 9.5-10.3 10.5-17.5L30.4 13.5c-1.4-1.1-2.9-2.1-4.5-2.9-2.1-1.1-4.4-1.7-6.7-1.5-4.2.4-7.8 3.2-9.3 6.9L5.7 26.3c-.6 1.4-.5 2.9.1 4.3v.1c.9 2 2.9 3.3 5.1 3.3h.1c2.4-.1 4.7-1.1 6.2-2.9z" fill="#e5f8ff"/>
  <path d="M25.3 14.9c1.8.9 3.5 2 5.1 3.2L43 28c.4-1.3.7-2.6.9-3.9L30.4 13.5c-1.6-1.3-3.3-2.3-5.1-3.2-3.2-1.6-7-1.6-10.2.1-2.4 1.2-4.2 3.3-5.2 5.7L5.7 26.3c-.6 1.4-.5 2.9.1 4.3v.1l4.1-10c1-2.5 2.9-4.5 5.2-5.7 3.2-1.7 7-1.7 10.2-.1z" fill="#fff"/>
  <ellipse cx="24.9" cy="44" rx="11.5" ry="1.5" fill="#45413c" opacity=".15"/>
  <path d="M30.8 10.6c-.7-2-1.6-3.5-2.5-4.5m7.7 7.3c-.4-1.3-.8-2.4-1.3-3.3m7 7.7c-.2-1.4-.6-2.6-1-3.5" fill="none" stroke="#45413C" stroke-linecap="round" stroke-linejoin="round" stroke-miterlimit="10"/>
  <circle cx="17.2" cy="18.2" r=".9" fill="#45413c" stroke="#45413c" stroke-linecap="round" stroke-linejoin="round" stroke-miterlimit="10"/>
  <ellipse cx="22.3" cy="21.8" rx="1.5" ry="1" fill="#ffb0ca"/>
  <path d="M8.4 30s-.4-1.1.6-1.5m13.3-.6c1.5-.2 2.9-.9 3.9-2.1 1-1.2 1.5-2.7 1.4-4.2l-.1-1.8" fill="none" stroke="#45413C" stroke-linecap="round" stroke-linejoin="round" stroke-miterlimit="10"/>
  <path d="M17.2 31.1l2.7-3 2.4-.3c.8 4.6 2.5 8.9 5 12.7 1.3 2 4.1 2.4 6 1 5.5-4.1 9.5-10.3 10.5-17.5L30.4 13.5c-1.4-1.1-2.9-2.1-4.5-2.9-2.1-1.1-4.4-1.7-6.7-1.5-4.2.4-7.8 3.2-9.3 6.9L5.7 26.3c-.6 1.4-.5 2.9.1 4.3v.1c.9 2 2.9 3.3 5.1 3.3h.1c2.4-.1 4.7-1.1 6.2-2.9z" fill="none" stroke="#45413C" stroke-linecap="round" stroke-linejoin="round" stroke-miterlimit="10"/>
  <path d="M10.5 10.4c.5 2 2.1 3.6 4.3 3.5 3.2-.2 4.2-4.3 2.1-5.6-1.9-1.1-3.8.7-2.7 1.5" fill="#fcd" stroke="#45413c" stroke-linecap="round" stroke-linejoin="round" stroke-miterlimit="10"/>
  <path d="M22.3 11.6c1.2-1.4 1.2-3.4-.2-4.7L21 5.8c-.4-.4-1.2-.4-1.6-.1-.2.2-.3.4-.3.7l.6 5.2" fill="#fff" stroke="#45413c" stroke-linecap="round" stroke-linejoin="round" stroke-miterlimit="10"/>
</svg>
