<svg viewBox="0 0 24 24" xmlns="http://www.w3.org/2000/svg" focusable="false">
  <path d="M20.72 2.222a.75.75 0 111.06 1.06l-9.445 9.44a9.56 9.56 0 002.51 1.49c.218.08.415-.01.873-.274.471-.27 1.114-.638 1.937-.465.764.148 3.175 2.136 3.634 2.61.431.45.67.919.71 1.4.073 1.858-2.407 3.772-2.69 3.931-.534.39-1.163.586-1.87.586-.705 0-1.487-.194-2.335-.589-1.841-.76-4.303-2.538-6.658-4.8l-5.166 5.16a.75.75 0 11-1.06-1.06l5.69-5.687a.77.77 0 011.06 0c2.382 2.38 4.9 4.255 6.737 5.014 1.218.568 2.123.598 2.794.116.534-.322 2.03-1.802 2-2.581-.004-.041-.05-.2-.292-.451-.549-.567-2.502-2.045-2.9-2.194-.215-.047-.449.082-.843.309-.523.3-1.239.71-2.165.372-1.414-.581-2.61-1.363-3.581-2.333a.75.75 0 010-1.06zM6.301 2.001l.187.003c.507.042.977.28 1.422.709.376.361 1.01 1.143 1.47 1.759 1.065 1.419 1.118 1.72 1.15 1.9.168.797-.202 1.44-.47 1.908-.265.46-.356.655-.266.899.077.19.17.394.266.593a.75.75 0 01-1.348.659 11.462 11.462 0 01-.317-.712c-.35-.946.062-1.661.363-2.185.225-.392.351-.628.298-.879-.003.001-.129-.288-.876-1.284-.495-.66-1.047-1.324-1.31-1.58-.25-.239-.409-.285-.483-.292-.646-.05-2.18 1.398-2.516 1.951-.514.706-.475 1.612.081 2.826.525 1.276 1.528 2.81 2.91 4.462a.75.75 0 11-1.151.962c-1.479-1.77-2.563-3.438-3.134-4.826-.781-1.7-.768-3.143.048-4.256.175-.292 2.06-2.73 3.863-2.614z"/>
</svg>
