<svg xmlns="http://www.w3.org/2000/svg" viewBox="0 0 48 48" focusable="false">
  <ellipse cx="24" cy="45.1" rx="15.5" ry="1.7" fill="#45413c" opacity=".15"/>
  <path d="M35.2 34v8.3c0 1.1-.9 2-2 2H14.7c-1.1 0-2-.9-2-2V34c0-6.2 5-11.2 11.2-11.2s11.3 5 11.3 11.2z" fill="#00B8F0"/>
  <path d="M24 22.8c-6.2 0-11.2 5-11.2 11.2v8.3l17.6-17.6c-1.9-1.2-4-1.9-6.4-1.9z" fill="#4ACFFF"/>
  <path d="M35.2 34v8.3c0 1.1-.9 2-2 2H14.7c-1.1 0-2-.9-2-2V34c0-6.2 5-11.2 11.2-11.2s11.3 5 11.3 11.2z" fill="none" stroke="#45413C" stroke-linecap="round" stroke-linejoin="round" stroke-miterlimit="10"/>
  <path d="M35.2 11.5V3.2c0-1.1-.9-2-2-2H14.7c-1.1 0-2 .9-2 2v8.3c0 6.2 5 11.2 11.2 11.2s11.3-5 11.3-11.2z" fill="#00B8F0"/>
  <path d="M32.8 1.2H14.7c-1.1 0-2 .9-2 2v8.3c0 2.7 1 5.2 2.6 7.2L32.8 1.2z" fill="#4ACFFF"/>
  <path d="M35.2 11.5V3.2c0-1.1-.9-2-2-2H14.7c-1.1 0-2 .9-2 2v8.3c0 6.2 5 11.2 11.2 11.2s11.3-5 11.3-11.2z" fill="none" stroke="#45413C" stroke-linecap="round" stroke-linejoin="round" stroke-miterlimit="10"/>
  <path d="M12.8 1.2c-1.1 0-2 .9-2 2s.9 2 2 2h22.5c1.1 0 2-.9 2-2s-.9-2-2-2H12.8z" fill="#BF8256"/>
  <path d="M37.2 3.2c0-1.1-.9-2-2-2H12.8c-1.1 0-2 .9-2 2h26.4z" fill="#dea47a"/>
  <path d="M12.8 1.2c-1.1 0-2 .9-2 2s.9 2 2 2h22.5c1.1 0 2-.9 2-2s-.9-2-2-2H12.8z" fill="none" stroke="#45413C" stroke-linecap="round" stroke-linejoin="round" stroke-miterlimit="10"/>
  <path d="M12.8 40.4c-1.1 0-2 .9-2 2s.9 2 2 2h22.5c1.1 0 2-.9 2-2s-.9-2-2-2H12.8z" fill="#BF8256"/>
  <path d="M10.8 42.3c0 1.1.9 2 2 2h22.5c1.1 0 2-.9 2-2H10.8z" fill="#915e3a"/>
  <path d="M12.8 40.4c-1.1 0-2 .9-2 2s.9 2 2 2h22.5c1.1 0 2-.9 2-2s-.9-2-2-2H12.8z" fill="none" stroke="#45413C" stroke-linecap="round" stroke-linejoin="round" stroke-miterlimit="10"/>
  <path d="M31.4 12c.7-.2 1.4.4 1.2 1.1-.8 4.1-4.3 7.2-8.7 7.2s-7.9-3.1-8.7-7.2c-.1-.7.5-1.3 1.2-1.1 1.5.4 4.1 1 7.4 1s6.1-.6 7.6-1z" fill="#F0D5A8"/>
  <path d="M17.1 16.9l4.1-4.1c-2-.2-3.6-.6-4.6-.9-.7-.2-1.4.4-1.2 1.1.2 1.5.8 2.8 1.7 3.9z" fill="#FFF5E3"/>
  <path d="M31.4 12c.7-.2 1.4.4 1.2 1.1-.8 4.1-4.3 7.2-8.7 7.2s-7.9-3.1-8.7-7.2c-.1-.7.5-1.3 1.2-1.1 1.5.4 4.1 1 7.4 1s6.1-.6 7.6-1z" fill="none" stroke="#45413C" stroke-linecap="round" stroke-linejoin="round" stroke-miterlimit="10"/>
  <path d="M14.7 38.4h18.6v-2s-2-3.9-9.3-3.9-9.3 3.9-9.3 3.9v2z" fill="#F0D5A8"/>
  <path d="M22.5 32.6c-6.1.5-7.8 3.8-7.8 3.8v2h2l5.8-5.8z" fill="#FFF5E3"/>
  <path d="M14.7 38.4h18.6v-2s-2-3.9-9.3-3.9-9.3 3.9-9.3 3.9v2z" fill="none" stroke="#45413C" stroke-linecap="round" stroke-linejoin="round" stroke-miterlimit="10"/>
</svg>
