<svg xmlns="http://www.w3.org/2000/svg" viewBox="0 0 24 24" fill="currentColor" focusable="false">
  <path d="M12.004 2C6.483 2 2.004 6.475 2 11.998a9.955 9.955 0 001.13 4.625c.07.134.133.267.204.392.16.307.191.665.089.996-.285.761-.523 1.54-.712 2.33 0 .392.116.623.534.623.76-.17 1.508-.387 2.241-.65a1.53 1.53 0 01.96.063c.276.142.525.347.8.471h.09A10.002 10.002 0 0022 11.998c-.005-5.52-4.477-9.993-9.996-9.998z" opacity=".4"/>
  <path d="M7.26 13.535a1.252 1.252 0 110-2.504 1.252 1.252 0 010 2.504zm4.523 0a1.243 1.243 0 01-1.253-1.252 1.252 1.252 0 111.253 1.252zm4.513 0a1.252 1.252 0 110-2.504 1.252 1.252 0 010 2.504z"/>
</svg>
