<svg viewBox="0 0 24 24" xmlns="http://www.w3.org/2000/svg" focusable="false">
  <path d="M16.084 2C19.622 2 22 4.276 22 7.665v8.669C22 19.723 19.622 22 16.084 22H7.916C4.378 22 2 19.723 2 16.334V7.665C2 4.276 4.378 2 7.916 2h8.168zm0 1.5H7.916C5.233 3.5 3.5 5.135 3.5 7.665v8.669c0 2.53 1.733 4.166 4.416 4.166h8.168c2.683 0 4.416-1.636 4.416-4.166V7.665c0-2.53-1.733-4.165-4.416-4.165zm-3.233 4.221l3.758 3.741a.755.755 0 01.077.088l-.07-.081a.736.736 0 01.22.531l-.003.039-.004.063a.745.745 0 01-.213.428v.001l-3.765 3.748a.747.747 0 01-1.06-.002.75.75 0 01.002-1.06l2.477-2.467H7.914a.75.75 0 010-1.5h6.356l-2.477-2.467a.75.75 0 011.058-1.062z" fill-rule="evenodd"/>
</svg>
