<svg viewBox="0 0 24 24" xmlns="http://www.w3.org/2000/svg" focusable="false">
  <path d="M11.78 2a5.076 5.076 0 015.04 4.54h.075c1.45 0 3.213.963 3.808 3.664l.788 6.107c.284 1.971-.07 3.552-1.053 4.686-.979 1.128-2.526 1.725-4.477 1.725H7.612c-2.144 0-3.637-.525-4.566-1.604-.933-1.082-1.245-2.705-.927-4.823l.776-6.026c.51-2.763 2.375-3.729 3.82-3.729A5.124 5.124 0 018.18 3.477 5.112 5.112 0 0111.76 2h.02zm5.115 6.04H6.715c-.44 0-1.914.178-2.337 2.462l-.773 6c-.25 1.683-.057 2.901.578 3.638.627.728 1.75 1.082 3.43 1.082h8.347c1.048 0 2.48-.209 3.343-1.207.686-.79.922-1.969.703-3.502l-.78-6.052c-.331-1.49-1.207-2.42-2.331-2.42zm-2.198 2.784c.414 0 .773.336.773.75s-.313.75-.727.75h-.046a.75.75 0 010-1.5zm-5.83 0c.414 0 .773.336.773.75s-.314.75-.728.75h-.045a.75.75 0 010-1.5zm2.91-7.324h-.014A3.6 3.6 0 009.24 4.54a3.598 3.598 0 00-1.01 2h7.078a3.576 3.576 0 00-3.53-3.04z" fill-rule="evenodd"/>
</svg>
