<svg xmlns="http://www.w3.org/2000/svg" viewBox="0 0 24 24">
  <path fill="#200E32" d="M12.006 3.54a6.565 6.565 0 015.515-.737 6.208 6.208 0 013.714 3.19 7.9 7.9 0 01.336 5.96 12.518 12.518 0 01-2.965 4.765 23.865 23.865 0 01-2.815 2.472l-.053.045a.724.724 0 01-1.006-.198.748.748 0 01.177-1.043 23.351 23.351 0 002.647-2.328 10.946 10.946 0 002.647-4.18 6.345 6.345 0 00-.3-4.8 4.78 4.78 0 00-2.85-2.445 5.042 5.042 0 00-4.615.818.73.73 0 01-.882 0 5.033 5.033 0 00-4.615-.818 4.778 4.778 0 00-2.876 2.436 6.4 6.4 0 00-.283 4.782A10.981 10.981 0 006.43 15.63a33.042 33.042 0 005.753 4.495c.264.186.38.524.288.837a.743.743 0 01-.694.538.706.706 0 01-.405-.126 34.307 34.307 0 01-5.992-4.683 12.364 12.364 0 01-2.973-4.764 7.945 7.945 0 01.37-5.933 6.208 6.208 0 013.715-3.191 6.565 6.565 0 015.515.737zm3.77 2.957h.112a3.466 3.466 0 012.374 3.012l.005.117a.746.746 0 01-.153.432.72.72 0 01-.487.278.744.744 0 01-.83-.648 1.972 1.972 0 00-1.359-1.797.762.762 0 01-.311-.877.741.741 0 01.761-.517z"/>
</svg>
