<svg xmlns="http://www.w3.org/2000/svg" viewBox="0 0 24 24">
  <path fill="#200E32" d="M15.45 3.78c-.04.25-.06.5-.06.75 0 2.25 1.82 4.07 4.06 4.07.25 0 .49-.03.74-.07v8.07c0 3.39-2 5.4-5.4 5.4H7.401C4 22 2 19.99 2 16.6V9.2c0-3.4 2-5.42 5.401-5.42zm.201 6.08a.768.768 0 00-.701.31l-2.419 3.13-2.771-2.18a.79.79 0 00-.57-.16.775.775 0 00-.5.3l-2.959 3.85-.061.09a.747.747 0 00.21.95c.14.09.29.15.46.15.231.01.45-.11.59-.3l2.51-3.23 2.85 2.14.09.06c.32.17.72.09.95-.21l2.89-3.73-.04.02c.16-.22.19-.5.08-.75a.737.737 0 00-.609-.44zM19.591 2a2.411 2.411 0 01-.001 4.82c-1.33 0-2.41-1.08-2.41-2.41S18.26 2 19.59 2z"/>
</svg>
