<svg xmlns="http://www.w3.org/2000/svg" viewBox="0 0 48 48" focusable="false">
  <ellipse cx="24" cy="44.3" rx="9.5" ry="1.5" fill="#45413c" opacity=".15"/>
  <path d="M31 30.7H17c-.4 0-.8-.3-.9-.7l-.9-3.6c-.1-.6.3-1.1.9-1.1h15.8c.6 0 1 .6.9 1.1l-.9 3.6c-.1.4-.5.7-.9.7z" fill="#F0D5A8"/>
  <path d="M15.5 27.5h17l.3-1.1c.1-.6-.3-1.1-.9-1.1H16.1c-.6 0-1 .6-.9 1.1l.3 1.1z" fill="#f7e5c6"/>
  <path d="M31 30.7H17c-.4 0-.8-.3-.9-.7l-.9-3.6c-.1-.6.3-1.1.9-1.1h15.8c.6 0 1 .6.9 1.1l-.9 3.6c-.1.4-.5.7-.9.7z" fill="none" stroke="#45413C" stroke-linecap="round" stroke-linejoin="round" stroke-miterlimit="10"/>
  <path d="M26.2 44.3h-4.3c-1.4 0-2.5-1-2.7-2.4l-1.5-11.2h12.7l-1.5 11.2c-.2 1.4-1.4 2.4-2.7 2.4z" fill="#F0D5A8"/>
  <path fill="#debb7e" d="M30 33l.4-2.3H17.6L18 33z"/>
  <path d="M26.2 44.3h-4.3c-1.4 0-2.5-1-2.7-2.4l-1.5-11.2h12.7l-1.5 11.2c-.2 1.4-1.4 2.4-2.7 2.4z" fill="none" stroke="#45413C" stroke-linecap="round" stroke-linejoin="round" stroke-miterlimit="10"/>
  <path d="M33 15.6c.3-.5.5-1.1.5-1.7 0-1.8-1.4-3.2-3.2-3.2h-1.2c.4-.5.7-1.1.7-1.8 0-1.5-1.2-2.7-2.7-2.7h-1.4c-2 0-3.4-2.2-2.4-4.1-3 .3-5.4 2.8-5.4 5.9 0 .8.2 2.1.5 2.7h-.9c-1.8 0-3.2 1.4-3.2 3.2 0 .6.2 1.2.5 1.7-1.9.7-3.2 2.5-3.2 4.7 0 2.8 2.2 5 5 5h14.5c2.8 0 5-2.2 5-5 .2-2.2-1.2-4-3.1-4.7z" fill="#FFFEF2"/>
  <path d="M14.5 22.1c0-2.1 1.3-3.9 3.2-4.7-.3-.5-.5-1.1-.5-1.7 0-1.8 1.4-3.2 3.2-3.2h.9c-.3-.7-.5-1.9-.5-2.7 0-2.1 1.1-3.9 2.7-4.9-.5-.8-.6-1.8 0-2.8-3 .3-5.4 2.8-5.4 5.9 0 .8.2 2.1.5 2.7h-.9c-1.8 0-3.2 1.4-3.2 3.2 0 .6.2 1.2.5 1.7-1.9.7-3.2 2.5-3.2 4.7 0 2.3 1.6 4.3 3.7 4.8-.6-.8-1-1.9-1-3z" fill="#fff"/>
  <path d="M33 15.6c.3-.5.5-1.1.5-1.7 0-1.8-1.4-3.2-3.2-3.2h-1.2c.4-.5.7-1.1.7-1.8 0-1.5-1.2-2.7-2.7-2.7h-1.4c-2 0-3.4-2.2-2.4-4.1-3 .3-5.4 2.8-5.4 5.9 0 .8.2 2.1.5 2.7h-.9c-1.8 0-3.2 1.4-3.2 3.2 0 .6.2 1.2.5 1.7-1.9.7-3.2 2.5-3.2 4.7 0 2.8 2.2 5 5 5h14.5c2.8 0 5-2.2 5-5 .2-2.2-1.2-4-3.1-4.7z" fill="none" stroke="#45413C" stroke-linecap="round" stroke-linejoin="round" stroke-miterlimit="10"/>
  <path d="M31.7 18.9v1.4c0 .8-.6 1.4-1.4 1.4S29 21 29 20.3v-3.2m-5.5-3.6v2.3c0 .8-.6 1.4-1.4 1.4s-1.4-.6-1.4-1.4v-.9" fill="none" stroke="#45413C" stroke-linecap="round" stroke-linejoin="round" stroke-miterlimit="10"/>
  <path d="M19.9 24.3v2.3c0 .8-.6 1.4-1.4 1.4s-1.4-.6-1.4-1.4v-2.3h2.8z" fill="#FFFEF2"/>
  <path d="M19.9 25.3v1.4c0 .8-.6 1.4-1.4 1.4s-1.4-.6-1.4-1.4v-2.3" fill="none" stroke="#45413C" stroke-linecap="round" stroke-linejoin="round" stroke-miterlimit="10"/>
</svg>
