<svg xmlns="http://www.w3.org/2000/svg" viewBox="0 0 43.77 43.77" fill="currentColor" focusable="false">
  <path d="M37.36 6.41a21.885 21.885 0 100 30.95 21.885 21.885 0 000-30.95zm-.912 30.043A20.608 20.608 0 017.315 7.317a20.608 20.608 0 0129.139 29.136zm0 0"/>
  <path d="M9.152 17.447a.763.763 0 00.938-.538 3.774 3.774 0 016.539 0 .766.766 0 001.478-.4 5.242 5.242 0 00-9.495 0 .763.763 0 00.54.938zm16.981 0a.763.763 0 00.938-.538 3.774 3.774 0 016.539 0 .766.766 0 001.478-.4 5.242 5.242 0 00-9.495 0 .763.763 0 00.54.938zM15.954 32.74s6.063-10.427 12.363 0"/>
</svg>
