<svg viewBox="0 0 24 24" xmlns="http://www.w3.org/2000/svg" focusable="false">
  <g stroke="#000" stroke-width="1.5" fill="none" fill-rule="evenodd" stroke-linecap="round" stroke-linejoin="round">
    <path d="M21.21 7.9v8.15c0 3.02-1.89 5.15-4.91 5.15H7.65c-3.02 0-4.9-2.13-4.9-5.15V7.9c0-3.02 1.89-5.15 4.9-5.15h8.65c3.02 0 4.91 2.13 4.91 5.15z"/>
    <path d="M5.281 16.43l1.528-1.612a1.401 1.401 0 011.98-.06l.937.952a1.434 1.434 0 002.027.02c.037-.036 2.334-2.822 2.334-2.822a1.687 1.687 0 012.375-.23c.048.04 2.218 2.268 2.218 2.268m-8.367-5.813a1.754 1.754 0 11-3.508 0 1.754 1.754 0 013.508 0z" opacity=".4"/>
  </g>
</svg>
