<svg xmlns="http://www.w3.org/2000/svg" viewBox="0 0 32 32" focusable="false">
  <path d="M14.328 31.716c-.351 0-.681-.155-.908-.413l-.33-.392c-1.105-1.29-10.766-12.769-10.766-18.906C2.333 5.378 7.702.009 14.328 0h.001c6.628.009 11.999 5.378 12.01 12.004v.001a1.197 1.197 0 01-2.394 0 9.626 9.626 0 00-9.615-9.61h-.001a9.62 9.62 0 00-9.61 9.61v.001c0 4.072 5.987 12.305 9.61 16.661.103-.129.227-.268.351-.428.408-.495.919-1.141 1.497-1.889a1.196 1.196 0 012.145.733c0 .277-.094.533-.252.736l.002-.003a95.17 95.17 0 01-2.568 3.188l.121-.148-.392.449a1.202 1.202 0 01-.903.413zm.005-14.937a4.78 4.78 0 01-.011-9.548h.011a4.78 4.78 0 01.011 9.548h-.011zm0-7.153a2.381 2.381 0 100 4.764 2.381 2.381 0 100-4.764zM28.506 23.03H18.189a1.197 1.197 0 010-2.394h10.317a1.197 1.197 0 010 2.394zm-5.161 5.161a1.197 1.197 0 01-1.197-1.197V16.671a1.197 1.197 0 012.394 0v10.317c0 .661-.536 1.197-1.197 1.197z"/>
</svg>
