<svg xmlns="http://www.w3.org/2000/svg" viewBox="0 0 38.453 41.2">
  <path d="M2.06 3.433h26.094a1.373 1.373 0 011.373 1.373v30.9a1.373 1.373 0 01-1.373 1.373H2.06a1.373 1.373 0 01-1.373-1.373v-30.9A1.373 1.373 0 012.06 3.433zm0 0" fill="#20df39"/>
  <path d="M4.12 6.18h21.973a.687.687 0 01.687.687v26.78a.687.687 0 01-.687.687H4.12a.687.687 0 01-.687-.687V6.867a.687.687 0 01.687-.687zm0 0" fill="#1447ff"/>
  <path d="M21.287 6.18v2.06a.687.687 0 01-.687.687H9.614a.687.687 0 01-.687-.687V1.374a.687.687 0 01.687-.687h10.987a.687.687 0 01.687.687zm0 0" fill="#d5deff"/>
  <path d="M13.046 13.96v5.267H7.553v-5.494h5.493zm0 0" fill="#20df39"/>
  <path d="M30.9 31.587v6.867a2.06 2.06 0 01-4.12 0v-6.867zm0 0" fill="#d5deff"/>
  <path d="M30.214 29.423v2.163h-2.747v-2.163a9.219 9.219 0 002.747 0zm0 0" fill="#f7e29c"/>
  <path d="M29.527 11.7a8.927 8.927 0 01.687 17.723 9.218 9.218 0 01-2.747 0 8.927 8.927 0 01-.632-17.524 8.793 8.793 0 012.005-.227c.233 0 .46.007.687.027zm0 0" fill="#20df39"/>
  <path d="M38.453 20.6a9.619 9.619 0 00-8.24-9.5V4.806a2.06 2.06 0 00-2.06-2.06h-6.18V1.373A1.373 1.373 0 0020.6 0H9.613A1.373 1.373 0 008.24 1.373v1.373H2.06A2.06 2.06 0 000 4.806v30.9a2.06 2.06 0 002.06 2.06h24.033v.687a2.747 2.747 0 005.493 0v-6.867a.687.687 0 00-.686-.686v-.915a9.625 9.625 0 007.553-9.385zm-1.373 0a8.24 8.24 0 11-8.24-8.24 8.24 8.24 0 018.24 8.24zM28.153 4.12a.687.687 0 01.687.687v6.18a9.516 9.516 0 00-1.373.11V6.866a1.373 1.373 0 00-1.373-1.373h-4.12V4.12zM9.613 1.373H20.6V8.24H9.613zM20.6 9.613a1.373 1.373 0 001.373-1.373V6.866h4.12v4.525a9.607 9.607 0 00.687 18.594v.915a.687.687 0 00-.687.687v2.06H4.12V6.866h4.12V8.24a1.373 1.373 0 001.373 1.373zM2.06 36.393a.687.687 0 01-.687-.687v-30.9a.687.687 0 01.687-.686h6.18v1.373H4.12a1.373 1.373 0 00-1.373 1.373v26.78A1.373 1.373 0 004.12 35.02h21.973v1.373zm28.153 2.06a1.373 1.373 0 11-2.747 0v-6.18h2.747zm-.686-7.553h-1.374v-.722c.228.016.455.035.687.035s.459-.018.687-.035zm0 0"/>
  <path d="M21.973 20.6a6.874 6.874 0 006.867 6.867v-1.374a5.494 5.494 0 110-10.987v-1.373a6.874 6.874 0 00-6.867 6.867zM6.867 13.734v5.493a.687.687 0 00.687.687h5.493a.687.687 0 00.687-.687v-5.013l1.208-1.41-1.042-.893-.972 1.135H7.554a.687.687 0 00-.687.688zm1.373.687h3.51l-1.489 1.736-.849-.849-.971.971 1.373 1.373a.687.687 0 00.485.2h.027a.687.687 0 00.494-.24l1.539-1.8v2.722h-4.12zm0 0"/>
</svg>
