<svg viewBox="0 0 24 24" xmlns="http://www.w3.org/2000/svg" focusable="false">
  <path d="M12.087 22a.782.782 0 01-.36-.086L8.126 20.05c-1.022-.53-1.821-1.124-2.445-1.816a8.243 8.243 0 01-2.139-5.474L3.5 6.124a1.813 1.813 0 011.228-1.712l6.613-2.305c.392-.14.83-.142 1.23-.007l6.637 2.227a1.81 1.81 0 011.25 1.695l.042 6.64a8.243 8.243 0 01-2.066 5.496c-.617.702-1.41 1.305-2.421 1.845l-3.57 1.906a.764.764 0 01-.356.091" opacity=".4"/>
  <path d="M11.32 14.32a.764.764 0 01-.536-.21l-1.917-1.844a.722.722 0 01-.006-1.04.77.77 0 011.068-.007l1.38 1.326 3.367-3.32a.77.77 0 011.068-.007c.297.286.3.752.007 1.04l-3.9 3.844a.76.76 0 01-.532.219"/>
</svg>
