<svg xmlns="http://www.w3.org/2000/svg" viewBox="0 0 14.6 18.3" focusable="false" fill="currentColor">
  <path d="M7.3 0A7.3 7.3 0 000 7.3a7.2 7.2 0 00.1 1.4v.2a7.2 7.2 0 00.6 1.5A20.5 20.5 0 007 18.1a.5.5 0 00.7 0 20.6 20.6 0 006.3-7.7 7.1 7.1 0 00.5-1.5 4.3 4.3 0 000-.2 7.5 7.5 0 00.1-1.4A7.3 7.3 0 007.3 0zm6.2 8.5v.2A6 6 0 0113 10a19.1 19.1 0 01-5.7 7 19.1 19.1 0 01-5.7-7 6.5 6.5 0 01-.4-1.3v-.2a6.3 6.3 0 1112.3 0z"/>
  <path d="M7.3 2.8A4.6 4.6 0 1012 7.4a4.7 4.7 0 00-4.7-4.6zm0 8.3A3.6 3.6 0 1111 7.4a3.6 3.6 0 01-3.7 3.7z"/>
</svg>
