<svg viewBox="0 0 24 24" xmlns="http://www.w3.org/2000/svg" focusable="false">
  <path d="M9.877 14.456h.383c2.242.013 7.494.217 7.494 3.681 0 3.212-4.313 3.641-7.669 3.658h-.591C7.252 21.781 2 21.578 2 18.114c0-3.28 4.495-3.659 7.877-3.659zm0 1.5c-4.231 0-6.377.727-6.377 2.159 0 1.446 2.146 2.18 6.377 2.18s6.377-.727 6.377-2.158c0-1.448-2.146-2.181-6.377-2.181zm9.327-8.037a.75.75 0 01.75.75v1.254h1.296a.75.75 0 010 1.5h-1.296v1.257a.75.75 0 01-1.5 0v-1.257H17.16a.75.75 0 010-1.5h1.294V8.669a.75.75 0 01.75-.75zM9.877 2a5.324 5.324 0 015.318 5.318 5.324 5.324 0 01-5.318 5.318h-.031A5.27 5.27 0 016.1 11.07a5.269 5.269 0 01-1.54-3.755A5.323 5.323 0 019.877 2zm0 1.5A3.822 3.822 0 006.06 7.318a3.778 3.778 0 001.103 2.695 3.785 3.785 0 002.686 1.123l.028.741v-.741a3.823 3.823 0 003.818-3.818A3.823 3.823 0 009.877 3.5z" fill-rule="evenodd"/>
</svg>
