<svg data-name="Layer 1" xmlns="http://www.w3.org/2000/svg" viewBox="0 0 24 24" focusable="false">
  <path fill="none" d="M0 0h24v24H0z"/>
  <path d="M17 7.63h-2.838a3.978 3.978 0 01-3.338-1.815A3.978 3.978 0 007.486 4H7a5 5 0 00-5 5v6a5 5 0 005 5h10a5 5 0 005-5v-2.37a5 5 0 00-5-5z" fill="#b75b3e" opacity=".1"/>
  <path d="M17 7.63h-2.838a3.978 3.978 0 01-3.338-1.815h0A3.978 3.978 0 007.486 4H7a5 5 0 00-5 5v6a5 5 0 005 5h10a5 5 0 005-5v-2.37a5 5 0 00-5-5z" stroke-miterlimit="10" stroke="#b75b3e" stroke-linecap="round" stroke-width="1.5" fill="none"/>
  <path stroke-linejoin="round" stroke="#b75b3e" stroke-linecap="round" stroke-width="1.5" fill="none" d="M14.72 15H9.28"/>
</svg>
