<svg data-name="Layer 1" xmlns="http://www.w3.org/2000/svg" viewBox="0 0 24 24" focusable="false">
  <path d="M15.83 8.889a.724.724 0 01-.705-.565l-1.212-5.445a.723.723 0 011.412-.314l1.212 5.444a.724.724 0 01-.707.88zm-7.666 0a.724.724 0 01-.707-.88L8.67 2.565a.723.723 0 011.412.314L8.869 8.324a.723.723 0 01-.705.565z"/>
  <path d="M15.86 22H8.13a5.769 5.769 0 01-5.667-6.834l.828-4.472a5.774 5.774 0 014.598-4.607 5.698 5.698 0 011.08-.106h6.052a5.698 5.698 0 011.08.106 5.762 5.762 0 014.597 4.607l.839 4.472A5.775 5.775 0 0115.86 22z" fill="#ffb531"/>
  <path d="M15.416 16.882a.722.722 0 01-.722.722H9.45a.723.723 0 110-1.445h5.244a.728.728 0 01.722.723z"/>
</svg>
