<svg viewBox="0 0 24 24" xmlns="http://www.w3.org/2000/svg" focusable="false">
  <path d="M13.976 2c.043 0 .085.004.126.01l.135.002c.204 0 .4.083.541.23l5.066 5.277a.753.753 0 01.208.519v9.19a4.594 4.594 0 01-4.453 4.638H7.46a4.563 4.563 0 01-4.457-4.44V6.49C3.06 4.01 5.107 2.01 7.57 2.01h6.28a.754.754 0 01.126-.01zm-.75 1.511H7.572A3.087 3.087 0 004.501 6.51v10.719a3.064 3.064 0 002.99 3.138h8.082a3.097 3.097 0 002.98-3.133v-8.25l-2.01.001a3.331 3.331 0 01-3.317-3.325V3.511zM11.142 9.16a.75.75 0 01.75.75v4.222l1.062-1.066a.75.75 0 111.063 1.06l-2.32 2.328a.753.753 0 01-.206.161c-.007.002-.014.006-.02.009a.572.572 0 01-.092.039l-.009.001a.749.749 0 01-.451.003l-.035-.012a.565.565 0 01-.063-.026l-.036-.018a.66.66 0 01-.07-.042l-.022-.017a.732.732 0 01-.09-.08l-2.338-2.347a.751.751 0 011.063-1.059l1.063 1.068V9.91a.75.75 0 01.75-.75zm3.582-4.807V5.66c0 1.004.817 1.822 1.82 1.825h1.185l-3.005-3.132z" fill-rule="evenodd"/>
</svg>
