<svg xmlns="http://www.w3.org/2000/svg" viewBox="0 0 43.516 43.516" focusable="false">
  <path d="M37.144 6.373a21.758 21.758 0 100 30.771 21.758 21.758 0 000-30.771zm-.907 29.869A20.489 20.489 0 017.274 7.274a20.489 20.489 0 0128.969 28.968zm0 0"/>
  <path d="M27.081 17.231a.466.466 0 00.152.025.618.618 0 00.559-.544 2.606 2.606 0 014.954 0 .578.578 0 00.711.511.763.763 0 00.408-.892 3.686 3.686 0 00-7.191 0 .763.763 0 00.408.9zm-16.318 0a.466.466 0 00.152.025.618.618 0 00.559-.544 2.606 2.606 0 014.954 0 .578.578 0 00.711.511.763.763 0 00.408-.892 3.686 3.686 0 00-7.191 0 .763.763 0 00.408.9zm2.993 9.965c8.411 13.925 16.511 0 16.511 0z"/>
</svg>
