<svg viewBox="0 0 24 24" xmlns="http://www.w3.org/2000/svg" focusable="false">
  <path d="M16.665 2.01a5.323 5.323 0 013.926 1.39 5.381 5.381 0 011.399 3.936v9.33a5.373 5.373 0 01-1.389 3.936 5.346 5.346 0 01-3.936 1.389h-9.33A5.332 5.332 0 013.399 20.6a5.332 5.332 0 01-1.389-3.936v-9.33A5.332 5.332 0 013.4 3.399 5.332 5.332 0 017.335 2.01zm-.26 4.566a1.58 1.58 0 00-2.237 0l-.67.679c-.1.1-.1.27 0 .37l.055.054.246.244.497.496.605.604c.126.126.21.211.216.22.11.12.18.28.18.46a.66.66 0 01-.66.659c-.17 0-.33-.07-.44-.18L12.53 8.524a.217.217 0 00-.3 0l-4.765 4.765a1.8 1.8 0 00-.53 1.238l-.06 2.368c0 .13.04.25.13.34.09.09.21.14.34.14h2.347c.48 0 .94-.19 1.29-.53l6.722-6.743c.61-.62.61-1.618 0-2.228z"/>
</svg>
