<svg viewBox="0 0 24 24" xmlns="http://www.w3.org/2000/svg" focusable="false">
  <path d="M18.94 8.697c.198 0 .38.087.522.234.134.157.2.352.181.558 0 .068-.533 6.808-.837 9.645-.19 1.741-1.313 2.798-2.997 2.827-1.294.029-2.56.039-3.805.039-1.323 0-2.616-.01-3.872-.039-1.627-.039-2.75-1.115-2.931-2.827-.313-2.847-.837-9.577-.846-9.645a.79.79 0 01.19-.558.706.706 0 01.524-.234h13.87zM14.064 2c.884 0 1.673.617 1.902 1.497l.163.73a1.28 1.28 0 001.241 1.016h2.916c.39 0 .713.323.713.734v.38a.73.73 0 01-.713.734H3.714A.73.73 0 013 6.357v-.38c0-.411.324-.734.714-.734H6.63c.592 0 1.107-.421 1.24-1.015l.153-.682C8.261 2.617 9.041 2 9.935 2z"/>
</svg>
