<svg viewBox="0 0 24 24" xmlns="http://www.w3.org/2000/svg" focusable="false">
  <path d="M12.02 2C17.7 2 22 6.657 22 11.985 22 18.165 16.96 22 12 22c-1.64 0-3.46-.44-4.92-1.302-.51-.31-.94-.54-1.49-.36l-2.02.6c-.51.16-.97-.24-.82-.78l.67-2.244c.11-.31.09-.641-.07-.901C2.49 15.43 2 13.698 2 12.015 2 6.747 6.21 2 12.02 2zm4.57 8.743c-.71 0-1.28.571-1.28 1.282 0 .701.57 1.282 1.28 1.282a1.283 1.283 0 000-2.564zm-4.61 0c-.7-.01-1.28.571-1.28 1.272 0 .711.57 1.282 1.28 1.292a1.283 1.283 0 000-2.564zm-4.61 0c-.71 0-1.28.571-1.28 1.282 0 .701.58 1.282 1.28 1.282a1.29 1.29 0 001.28-1.282c0-.711-.57-1.282-1.28-1.282z"/>
</svg>
