<svg viewBox="0 0 24 24" xmlns="http://www.w3.org/2000/svg" focusable="false">
  <g stroke="#000" stroke-width="1.5" fill="none" fill-rule="evenodd" stroke-linecap="round" stroke-linejoin="round">
    <path d="M6.095 16.65a1.762 1.762 0 01-.635-.341c-.765-.653-.71-2.397-.71-3.676 0-1.278-.055-3.023.71-3.675.709-.607 1.213-.448 2.51-.551 1.296-.103 4.039-4.058 6.156-2.808.485.394.77.982.938 1.887m.219 7.182c-.037 2.873-.262 4.272-1.157 5-.98.579-2.09.047-3.135-.71"/>
    <path opacity=".4" d="M4.752 20.75l3.713-3.713 6.819-6.82L20.75 4.75"/>
  </g>
</svg>
