<svg viewBox="0 0 24 24" xmlns="http://www.w3.org/2000/svg" focusable="false">
  <path d="M13.252 2c.248 0 .456.21.456.46v3.22c0 1.83 1.495 3.33 3.307 3.34.742 0 1.346.01 1.792.01.307 0 .822-.01 1.238-.01.257 0 .455.2.455.45v8.04c0 2.48-1.99 4.49-4.455 4.49H8.173C5.59 22 3.5 19.89 3.5 17.29V6.51C3.5 4.03 5.5 2 7.965 2zm-2.663 8.72a.713.713 0 00-1.04 0 .748.748 0 000 1.05l1.208 1.22-1.207 1.22a.748.748 0 000 1.05c.138.15.326.22.514.22s.386-.07.525-.22l1.208-1.22 1.208 1.22a.73.73 0 00.525.22.73.73 0 00.524-.22.748.748 0 000-1.05l-1.207-1.22 1.207-1.22a.748.748 0 000-1.05.724.724 0 00-1.049 0l-1.208 1.22zm4.557-7.814c0-.43.518-.645.813-.334l3.987 4.187a.477.477 0 01-.34.807c-.814.003-1.773 0-2.463-.007-1.095 0-1.997-.91-1.997-2.017z"/>
</svg>
