<svg data-name="Layer 1" xmlns="http://www.w3.org/2000/svg" viewBox="0 0 24 24" focusable="false">
  <g fill="none" stroke="#030835" stroke-linecap="round" stroke-miterlimit="10">
    <path d="M19.503 8.46l-1.427-.242a2.804 2.804 0 01-2.294-2.294l-.242-1.427A3 3 0 0012.582 2h-1.164A3 3 0 008.46 4.497l-.242 1.427a2.804 2.804 0 01-2.294 2.294l-1.427.242A3 3 0 002 11.418v1.164a3 3 0 002.497 2.958l1.427.242a2.804 2.804 0 012.294 2.294l.242 1.427A3 3 0 0011.418 22h1.164a3 3 0 002.958-2.497l.242-1.427a2.804 2.804 0 012.294-2.294l1.427-.242A3 3 0 0022 12.582v-1.164a3 3 0 00-2.497-2.958z" stroke-width="1.5"/>
    <circle cx="12" cy="12" r="1.75"/>
  </g>
</svg>
