<svg viewBox="0 0 24 24" xmlns="http://www.w3.org/2000/svg" focusable="false">
  <path d="M14.124 2.875l.73.731a1.5 1.5 0 001.064.437h1.028a3.015 3.015 0 013.012 3.013v1.026c0 .401.156.78.439 1.065l.718.72c.569.565.885 1.32.888 2.125a2.991 2.991 0 01-.875 2.133l-.733.73a1.5 1.5 0 00-.437 1.063v1.029a3.015 3.015 0 01-3.011 3.01h-1.031c-.396 0-.783.16-1.064.44l-.718.718a3 3 0 01-2.135.887 3.002 3.002 0 01-2.145-.897l-.71-.71a1.505 1.505 0 00-1.063-.438H7.055a3.014 3.014 0 01-3.011-3.01v-1.031a1.5 1.5 0 00-.44-1.064l-.718-.718A3.015 3.015 0 012.85 9.9l.027-.026.728-.73c.28-.284.438-.663.438-1.064V7.055c0-1.66 1.35-3.01 3.01-3.012h1.03a1.51 1.51 0 001.066-.44l.715-.717a3.014 3.014 0 014.259-.01zm-3.196 1.07l-.72.722a3.004 3.004 0 01-2.124.877h-1.03a1.514 1.514 0 00-1.51 1.512V8.08c0 .802-.311 1.555-.875 2.123l-.71.71-.021.021a1.513 1.513 0 00.007 2.138l.722.722c.566.567.877 1.32.877 2.121v1.032c0 .833.677 1.51 1.51 1.51h1.028a2.99 2.99 0 012.122.877l.72.72.02.022c.59.575 1.54.569 2.127-.02l.722-.72a3.026 3.026 0 012.123-.878h1.03c.834 0 1.512-.678 1.512-1.511v-1.03c0-.8.31-1.553.876-2.12l.72-.722a1.51 1.51 0 00.002-2.146l-.721-.723a2.991 2.991 0 01-.877-2.123V7.055c0-.835-.678-1.513-1.512-1.513h-1.028a2.991 2.991 0 01-2.121-.873l-.722-.724a1.518 1.518 0 00-2.147 0zm3.575 9.554a1 1 0 110 2 1.003 1.003 0 01-1.005-1c0-.553.444-1 .997-1h.009zm.598-4.599a.75.75 0 010 1.062l-5.14 5.14a.744.744 0 01-.53.22.749.749 0 01-.53-1.28L14.04 8.9a.75.75 0 011.06 0zm-5.598-.4a1 1 0 110 2 1.003 1.003 0 01-1.005-1c0-.554.444-1 .997-1h.009z" fill-rule="evenodd"/>
</svg>
