<svg xmlns="http://www.w3.org/2000/svg" viewBox="0 0 24 24" focusable="false">
  <path d="M22 8.405v7.2a4.006 4.006 0 01-2.52 3.71l-6 2.4a4.011 4.011 0 01-2.97 0l-6-2.4A3.997 3.997 0 012 15.605v-7.2a4 4 0 012.51-3.72l6-2.4a4.011 4.011 0 012.97 0l6 2.4A4.01 4.01 0 0122 8.405z" fill="#ffb531"/>
  <path d="M18.72 8.345l-4.32 1.73a2.604 2.604 0 00-1.65 2.44v5.44a.75.75 0 01-1.5 0v-5.44a4.075 4.075 0 01.41-1.81 4.21 4.21 0 01-1.2-.29l-5.19-2.07a.75.75 0 01.56-1.39l5.19 2.07a2.629 2.629 0 001.95 0l5.19-2.07a.74.74 0 01.97.41.747.747 0 01-.41.98z" fill="#030835"/>
</svg>
