<svg viewBox="0 0 24 24" xmlns="http://www.w3.org/2000/svg" focusable="false">
  <path d="M20.75 20.44a.75.75 0 010 1.5h-7.253a.75.75 0 010-1.5h7.253zM16.116 3.654l1.723 1.339c.608.362 1.083 1.009 1.263 1.775a2.862 2.862 0 01-.383 2.222l-.007.01c-.068.09-.362.462-1.847 2.322a.749.749 0 01-.128.16l-.321.402-.228.286-1.69 2.115-.34.426-5.01 6.269a2.447 2.447 0 01-1.886.914l-3.639.046h-.01a.75.75 0 01-.73-.577l-.819-3.471a2.371 2.371 0 01.46-2.037l9.42-11.782c.004-.004.007-.01.011-.013 1.033-1.235 2.901-1.417 4.161-.406zm-5.222 4.133l-7.199 9.005a.879.879 0 00-.17.755l.68 2.885 3.04-.038a.949.949 0 00.732-.352l3.235-4.048.417-.521.417-.523 3.11-3.891-4.262-3.272zm2.216-2.77l-1.279 1.598 4.26 3.27c.82-1.026 1.36-1.703 1.41-1.767a1.36 1.36 0 00.142-1.004 1.411 1.411 0 00-.652-.887 328.898 328.898 0 01-1.808-1.398 1.497 1.497 0 00-2.073.188z" fill-rule="evenodd"/>
</svg>
